%TF.GenerationSoftware,KiCad,Pcbnew,7.0.9*%
%TF.CreationDate,2024-12-16T17:29:34+09:00*%
%TF.ProjectId,IR_Bored_ESP32,49525f42-6f72-4656-945f-45535033322e,rev?*%
%TF.SameCoordinates,Original*%
%TF.FileFunction,Soldermask,Bot*%
%TF.FilePolarity,Negative*%
%FSLAX46Y46*%
G04 Gerber Fmt 4.6, Leading zero omitted, Abs format (unit mm)*
G04 Created by KiCad (PCBNEW 7.0.9) date 2024-12-16 17:29:34*
%MOMM*%
%LPD*%
G01*
G04 APERTURE LIST*
G04 Aperture macros list*
%AMRoundRect*
0 Rectangle with rounded corners*
0 $1 Rounding radius*
0 $2 $3 $4 $5 $6 $7 $8 $9 X,Y pos of 4 corners*
0 Add a 4 corners polygon primitive as box body*
4,1,4,$2,$3,$4,$5,$6,$7,$8,$9,$2,$3,0*
0 Add four circle primitives for the rounded corners*
1,1,$1+$1,$2,$3*
1,1,$1+$1,$4,$5*
1,1,$1+$1,$6,$7*
1,1,$1+$1,$8,$9*
0 Add four rect primitives between the rounded corners*
20,1,$1+$1,$2,$3,$4,$5,0*
20,1,$1+$1,$4,$5,$6,$7,0*
20,1,$1+$1,$6,$7,$8,$9,0*
20,1,$1+$1,$8,$9,$2,$3,0*%
G04 Aperture macros list end*
%ADD10R,1.700000X1.700000*%
%ADD11O,1.700000X1.700000*%
%ADD12C,3.200000*%
%ADD13C,2.000000*%
%ADD14C,8.400000*%
%ADD15RoundRect,0.250200X-0.849005X0.351669X-0.351669X-0.849005X0.849005X-0.351669X0.351669X0.849005X0*%
%ADD16C,1.800000*%
%ADD17RoundRect,0.250200X0.849005X0.351669X-0.351669X0.849005X-0.849005X-0.351669X0.351669X-0.849005X0*%
%ADD18RoundRect,0.250200X-0.351669X-0.849005X0.849005X-0.351669X0.351669X0.849005X-0.849005X0.351669X0*%
%ADD19RoundRect,0.250200X0.351669X0.849005X-0.849005X0.351669X-0.351669X-0.849005X0.849005X-0.351669X0*%
%ADD20RoundRect,0.250200X-0.649800X-0.649800X0.649800X-0.649800X0.649800X0.649800X-0.649800X0.649800X0*%
%ADD21RoundRect,0.250200X-0.918956X0.000000X0.000000X-0.918956X0.918956X0.000000X0.000000X0.918956X0*%
%ADD22RoundRect,0.250200X0.000000X0.918956X-0.918956X0.000000X0.000000X-0.918956X0.918956X0.000000X0*%
%ADD23RoundRect,0.250200X0.000000X-0.918956X0.918956X0.000000X0.000000X0.918956X-0.918956X0.000000X0*%
%ADD24RoundRect,0.250200X-0.849005X-0.351669X0.351669X-0.849005X0.849005X0.351669X-0.351669X0.849005X0*%
%ADD25RoundRect,0.250200X0.649800X-0.649800X0.649800X0.649800X-0.649800X0.649800X-0.649800X-0.649800X0*%
%ADD26RoundRect,0.250200X-0.649800X0.649800X-0.649800X-0.649800X0.649800X-0.649800X0.649800X0.649800X0*%
%ADD27RoundRect,0.250200X0.849005X-0.351669X0.351669X0.849005X-0.849005X0.351669X-0.351669X-0.849005X0*%
%ADD28RoundRect,0.250200X-0.351669X0.849005X-0.849005X-0.351669X0.351669X-0.849005X0.849005X0.351669X0*%
%ADD29RoundRect,0.250200X0.649800X0.649800X-0.649800X0.649800X-0.649800X-0.649800X0.649800X-0.649800X0*%
%ADD30RoundRect,0.250200X0.351669X-0.849005X0.849005X0.351669X-0.351669X0.849005X-0.849005X-0.351669X0*%
%ADD31RoundRect,0.250200X0.918956X0.000000X0.000000X0.918956X-0.918956X0.000000X0.000000X-0.918956X0*%
G04 APERTURE END LIST*
D10*
%TO.C,J1*%
X176530000Y-110410000D03*
D11*
X173990000Y-110410000D03*
X171450000Y-110410000D03*
X168910000Y-110410000D03*
%TD*%
D12*
%TO.C,REF\u002A\u002A*%
X154535498Y-120412834D03*
%TD*%
%TO.C,REF\u002A\u002A*%
X232550000Y-105720000D03*
%TD*%
D13*
%TO.C,Camera_RST*%
X209280000Y-92770000D03*
X209280000Y-86270000D03*
X213780000Y-92770000D03*
X213780000Y-86270000D03*
%TD*%
D12*
%TO.C,REF\u002A\u002A*%
X146475498Y-105714800D03*
%TD*%
%TO.C,REF\u002A\u002A*%
X217795498Y-51872834D03*
%TD*%
%TO.C,REF\u002A\u002A*%
X224490000Y-120440000D03*
%TD*%
D14*
%TO.C,REF\u002A\u002A*%
X213300000Y-116560000D03*
%TD*%
D13*
%TO.C,SW2*%
X191830000Y-130680000D03*
X191830000Y-124180000D03*
X196330000Y-130680000D03*
X196330000Y-124180000D03*
%TD*%
D10*
%TO.C,SW5*%
X213670000Y-104690000D03*
D11*
X211130000Y-104690000D03*
%TD*%
D12*
%TO.C,REF\u002A\u002A*%
X224530000Y-112410000D03*
%TD*%
D10*
%TO.C,J2*%
X210303800Y-44356600D03*
D11*
X212843800Y-44356600D03*
X210303800Y-46896600D03*
X212843800Y-46896600D03*
X210303800Y-49436600D03*
X212843800Y-49436600D03*
X210303800Y-51976600D03*
X212843800Y-51976600D03*
X210303800Y-54516600D03*
X212843800Y-54516600D03*
X210303800Y-57056600D03*
X212843800Y-57056600D03*
X210303800Y-59596600D03*
X212843800Y-59596600D03*
X210303800Y-62136600D03*
X212843800Y-62136600D03*
X210303800Y-64676600D03*
X212843800Y-64676600D03*
X210303800Y-67216600D03*
X212843800Y-67216600D03*
X210303800Y-69756600D03*
X212843800Y-69756600D03*
X210303800Y-72296600D03*
X212843800Y-72296600D03*
X210303800Y-74836600D03*
X212843800Y-74836600D03*
%TD*%
D12*
%TO.C,REF\u002A\u002A*%
X154505498Y-112490000D03*
%TD*%
%TO.C,REF\u002A\u002A*%
X234500000Y-85660000D03*
%TD*%
D13*
%TO.C,SW1*%
X183600000Y-130720000D03*
X183600000Y-124220000D03*
X188100000Y-130720000D03*
X188100000Y-124220000D03*
%TD*%
%TO.C,SW3*%
X200020000Y-130650000D03*
X200020000Y-124150000D03*
X204520000Y-130650000D03*
X204520000Y-124150000D03*
%TD*%
D12*
%TO.C,REF\u002A\u002A*%
X161140000Y-51860000D03*
%TD*%
D15*
%TO.C,U13*%
X240504024Y-61797671D03*
D16*
X241476040Y-64144325D03*
X242448056Y-66490979D03*
%TD*%
D17*
%TO.C,U7*%
X170288024Y-138598749D03*
D16*
X167941370Y-137626733D03*
X165594716Y-136654717D03*
%TD*%
D18*
%TO.C,U1*%
X165631671Y-34641976D03*
D16*
X167978325Y-33669960D03*
X170324979Y-32697944D03*
%TD*%
D19*
%TO.C,U9*%
X213348329Y-136670024D03*
D16*
X211001675Y-137642040D03*
X208655021Y-138614056D03*
%TD*%
D20*
%TO.C,U17*%
X186970000Y-29395000D03*
D16*
X189510000Y-29395000D03*
X192050000Y-29395000D03*
%TD*%
D21*
%TO.C,U14*%
X227490626Y-44091556D03*
D16*
X229286677Y-45887607D03*
X231082728Y-47683658D03*
%TD*%
D22*
%TO.C,U10*%
X231054444Y-123656625D03*
D16*
X229258393Y-125452676D03*
X227462342Y-127248727D03*
%TD*%
D23*
%TO.C,U2*%
X147925556Y-47655375D03*
D16*
X149721607Y-45859324D03*
X151517658Y-44063273D03*
%TD*%
D24*
%TO.C,U15*%
X208691976Y-32713251D03*
D16*
X211038630Y-33685267D03*
X213385284Y-34657283D03*
%TD*%
D25*
%TO.C,U4*%
X133229000Y-88176000D03*
D16*
X133229000Y-85636000D03*
X133229000Y-83096000D03*
%TD*%
D26*
%TO.C,U12*%
X245751001Y-83136000D03*
D16*
X245751001Y-85676000D03*
X245751001Y-88216000D03*
%TD*%
D27*
%TO.C,U5*%
X138475976Y-109514329D03*
D16*
X137503960Y-107167675D03*
X136531944Y-104821021D03*
%TD*%
D28*
%TO.C,U11*%
X242432749Y-104857976D03*
D16*
X241460733Y-107204630D03*
X240488717Y-109551284D03*
%TD*%
D29*
%TO.C,U8*%
X192010000Y-141917000D03*
D16*
X189470000Y-141917000D03*
X186930000Y-141917000D03*
%TD*%
D30*
%TO.C,U3*%
X136547251Y-66454024D03*
D16*
X137519267Y-64107370D03*
X138491283Y-61760716D03*
%TD*%
D31*
%TO.C,U6*%
X151489375Y-127220444D03*
D16*
X149693324Y-125424393D03*
X147897273Y-123628342D03*
%TD*%
M02*
