M48
; DRILL file {KiCad 7.0.9} date Mon Dec 16 17:30:38 2024
; FORMAT={-:-/ absolute / metric / decimal}
; #@! TF.CreationDate,2024-12-16T17:30:38+09:00
; #@! TF.GenerationSoftware,Kicad,Pcbnew,7.0.9
; #@! TF.FileFunction,Plated,1,2,PTH
FMAT,2
METRIC
; #@! TA.AperFunction,Plated,PTH,ViaDrill
T1C0.400
; #@! TA.AperFunction,Plated,PTH,ComponentDrill
T2C0.900
; #@! TA.AperFunction,Plated,PTH,ComponentDrill
T3C1.000
; #@! TA.AperFunction,Plated,PTH,ComponentDrill
T4C1.100
%
G90
G05
T1
X131.08Y-93.32
X131.4Y-85.03
X131.92Y-71.42
X133.06Y-103.14
X137.6Y-57.39
X138.58Y-115.65
X139.83Y-78.07
X141.57Y-80.98
X150.06Y-64.2
X158.14Y-35.58
X163.85Y-138.1
X166.55Y-32.38
X170.24Y-43.29
X171.97Y-29.41
X174.12Y-142.67
X179.69Y-27.19
X196.11Y-32.02
X202.12Y-28.39
X205.384Y-109.017
X207.493Y-45.339
X207.85Y-141.58
X208.71Y-40.72
X210.769Y-37.363
X211.43Y-41.5
X212.0Y-31.83
X214.554Y-60.782
X214.808Y-71.145
X215.44Y-63.71
X216.31Y-33.23
X220.62Y-82.86
X220.83Y-86.05
X222.72Y-79.1
X224.37Y-76.13
X224.38Y-37.75
X226.42Y-124.74
X227.609Y-129.235
X229.21Y-111.531
X229.79Y-43.77
X230.96Y-126.2
X232.04Y-75.83
X234.442Y-123.698
X237.39Y-81.01
X238.227Y-106.401
X240.36Y-55.77
X241.22Y-114.61
X243.34Y-107.96
X246.49Y-101.89
X246.58Y-69.41
X247.65Y-86.49
X248.98Y-88.42
T2
X133.229Y-83.096
X133.229Y-85.636
X133.229Y-88.176
X136.532Y-104.821
X136.547Y-66.454
X137.504Y-107.168
X137.519Y-64.107
X138.476Y-109.514
X138.491Y-61.761
X147.897Y-123.628
X147.926Y-47.655
X149.693Y-125.424
X149.722Y-45.859
X151.489Y-127.22
X151.518Y-44.063
X165.595Y-136.655
X165.632Y-34.642
X167.941Y-137.627
X167.978Y-33.67
X170.288Y-138.599
X170.325Y-32.698
X186.93Y-141.917
X186.97Y-29.395
X189.47Y-141.917
X189.51Y-29.395
X192.01Y-141.917
X192.05Y-29.395
X208.655Y-138.614
X208.692Y-32.713
X211.002Y-137.642
X211.039Y-33.685
X213.348Y-136.67
X213.385Y-34.657
X227.462Y-127.249
X227.491Y-44.092
X229.258Y-125.453
X229.287Y-45.888
X231.054Y-123.657
X231.083Y-47.684
X240.489Y-109.551
X240.504Y-61.798
X241.461Y-107.205
X241.476Y-64.144
X242.433Y-104.858
X242.448Y-66.491
X245.751Y-83.136
X245.751Y-85.676
X245.751Y-88.216
T3
X168.91Y-110.41
X171.45Y-110.41
X173.99Y-110.41
X176.53Y-110.41
X210.304Y-44.357
X210.304Y-46.897
X210.304Y-49.437
X210.304Y-51.977
X210.304Y-54.517
X210.304Y-57.057
X210.304Y-59.597
X210.304Y-62.137
X210.304Y-64.677
X210.304Y-67.217
X210.304Y-69.757
X210.304Y-72.297
X210.304Y-74.837
X211.13Y-104.69
X212.844Y-44.357
X212.844Y-46.897
X212.844Y-49.437
X212.844Y-51.977
X212.844Y-54.517
X212.844Y-57.057
X212.844Y-59.597
X212.844Y-62.137
X212.844Y-64.677
X212.844Y-67.217
X212.844Y-69.757
X212.844Y-72.297
X212.844Y-74.837
X213.67Y-104.69
T4
X183.6Y-124.22
X183.6Y-130.72
X188.1Y-124.22
X188.1Y-130.72
X191.83Y-124.18
X191.83Y-130.68
X196.33Y-124.18
X196.33Y-130.68
X200.02Y-124.15
X200.02Y-130.65
X204.52Y-124.15
X204.52Y-130.65
X209.28Y-86.27
X209.28Y-92.77
X213.78Y-86.27
X213.78Y-92.77
T0
M30
