%TF.GenerationSoftware,KiCad,Pcbnew,7.0.9*%
%TF.CreationDate,2024-12-16T17:29:33+09:00*%
%TF.ProjectId,IR_Bored_ESP32,49525f42-6f72-4656-945f-45535033322e,rev?*%
%TF.SameCoordinates,Original*%
%TF.FileFunction,Legend,Top*%
%TF.FilePolarity,Positive*%
%FSLAX46Y46*%
G04 Gerber Fmt 4.6, Leading zero omitted, Abs format (unit mm)*
G04 Created by KiCad (PCBNEW 7.0.9) date 2024-12-16 17:29:33*
%MOMM*%
%LPD*%
G01*
G04 APERTURE LIST*
%ADD10C,0.250000*%
%ADD11C,0.125000*%
%ADD12C,0.300000*%
%ADD13C,0.150000*%
%ADD14C,0.120000*%
G04 APERTURE END LIST*
D10*
X206040968Y-70349619D02*
X206040968Y-69349619D01*
X206040968Y-69349619D02*
X206279063Y-69349619D01*
X206279063Y-69349619D02*
X206421920Y-69397238D01*
X206421920Y-69397238D02*
X206517158Y-69492476D01*
X206517158Y-69492476D02*
X206564777Y-69587714D01*
X206564777Y-69587714D02*
X206612396Y-69778190D01*
X206612396Y-69778190D02*
X206612396Y-69921047D01*
X206612396Y-69921047D02*
X206564777Y-70111523D01*
X206564777Y-70111523D02*
X206517158Y-70206761D01*
X206517158Y-70206761D02*
X206421920Y-70302000D01*
X206421920Y-70302000D02*
X206279063Y-70349619D01*
X206279063Y-70349619D02*
X206040968Y-70349619D01*
X207564777Y-70349619D02*
X206993349Y-70349619D01*
X207279063Y-70349619D02*
X207279063Y-69349619D01*
X207279063Y-69349619D02*
X207183825Y-69492476D01*
X207183825Y-69492476D02*
X207088587Y-69587714D01*
X207088587Y-69587714D02*
X206993349Y-69635333D01*
X208183825Y-69349619D02*
X208279063Y-69349619D01*
X208279063Y-69349619D02*
X208374301Y-69397238D01*
X208374301Y-69397238D02*
X208421920Y-69444857D01*
X208421920Y-69444857D02*
X208469539Y-69540095D01*
X208469539Y-69540095D02*
X208517158Y-69730571D01*
X208517158Y-69730571D02*
X208517158Y-69968666D01*
X208517158Y-69968666D02*
X208469539Y-70159142D01*
X208469539Y-70159142D02*
X208421920Y-70254380D01*
X208421920Y-70254380D02*
X208374301Y-70302000D01*
X208374301Y-70302000D02*
X208279063Y-70349619D01*
X208279063Y-70349619D02*
X208183825Y-70349619D01*
X208183825Y-70349619D02*
X208088587Y-70302000D01*
X208088587Y-70302000D02*
X208040968Y-70254380D01*
X208040968Y-70254380D02*
X207993349Y-70159142D01*
X207993349Y-70159142D02*
X207945730Y-69968666D01*
X207945730Y-69968666D02*
X207945730Y-69730571D01*
X207945730Y-69730571D02*
X207993349Y-69540095D01*
X207993349Y-69540095D02*
X208040968Y-69444857D01*
X208040968Y-69444857D02*
X208088587Y-69397238D01*
X208088587Y-69397238D02*
X208183825Y-69349619D01*
X206777568Y-60265819D02*
X206777568Y-59265819D01*
X206777568Y-59265819D02*
X207015663Y-59265819D01*
X207015663Y-59265819D02*
X207158520Y-59313438D01*
X207158520Y-59313438D02*
X207253758Y-59408676D01*
X207253758Y-59408676D02*
X207301377Y-59503914D01*
X207301377Y-59503914D02*
X207348996Y-59694390D01*
X207348996Y-59694390D02*
X207348996Y-59837247D01*
X207348996Y-59837247D02*
X207301377Y-60027723D01*
X207301377Y-60027723D02*
X207253758Y-60122961D01*
X207253758Y-60122961D02*
X207158520Y-60218200D01*
X207158520Y-60218200D02*
X207015663Y-60265819D01*
X207015663Y-60265819D02*
X206777568Y-60265819D01*
X208206139Y-59265819D02*
X208015663Y-59265819D01*
X208015663Y-59265819D02*
X207920425Y-59313438D01*
X207920425Y-59313438D02*
X207872806Y-59361057D01*
X207872806Y-59361057D02*
X207777568Y-59503914D01*
X207777568Y-59503914D02*
X207729949Y-59694390D01*
X207729949Y-59694390D02*
X207729949Y-60075342D01*
X207729949Y-60075342D02*
X207777568Y-60170580D01*
X207777568Y-60170580D02*
X207825187Y-60218200D01*
X207825187Y-60218200D02*
X207920425Y-60265819D01*
X207920425Y-60265819D02*
X208110901Y-60265819D01*
X208110901Y-60265819D02*
X208206139Y-60218200D01*
X208206139Y-60218200D02*
X208253758Y-60170580D01*
X208253758Y-60170580D02*
X208301377Y-60075342D01*
X208301377Y-60075342D02*
X208301377Y-59837247D01*
X208301377Y-59837247D02*
X208253758Y-59742009D01*
X208253758Y-59742009D02*
X208206139Y-59694390D01*
X208206139Y-59694390D02*
X208110901Y-59646771D01*
X208110901Y-59646771D02*
X207920425Y-59646771D01*
X207920425Y-59646771D02*
X207825187Y-59694390D01*
X207825187Y-59694390D02*
X207777568Y-59742009D01*
X207777568Y-59742009D02*
X207729949Y-59837247D01*
D11*
X214966188Y-67648709D02*
X214680474Y-67648709D01*
X214823331Y-67648709D02*
X214823331Y-67148709D01*
X214823331Y-67148709D02*
X214775712Y-67220138D01*
X214775712Y-67220138D02*
X214728093Y-67267757D01*
X214728093Y-67267757D02*
X214680474Y-67291566D01*
X215275711Y-67148709D02*
X215323330Y-67148709D01*
X215323330Y-67148709D02*
X215370949Y-67172519D01*
X215370949Y-67172519D02*
X215394759Y-67196328D01*
X215394759Y-67196328D02*
X215418568Y-67243947D01*
X215418568Y-67243947D02*
X215442378Y-67339185D01*
X215442378Y-67339185D02*
X215442378Y-67458233D01*
X215442378Y-67458233D02*
X215418568Y-67553471D01*
X215418568Y-67553471D02*
X215394759Y-67601090D01*
X215394759Y-67601090D02*
X215370949Y-67624900D01*
X215370949Y-67624900D02*
X215323330Y-67648709D01*
X215323330Y-67648709D02*
X215275711Y-67648709D01*
X215275711Y-67648709D02*
X215228092Y-67624900D01*
X215228092Y-67624900D02*
X215204283Y-67601090D01*
X215204283Y-67601090D02*
X215180473Y-67553471D01*
X215180473Y-67553471D02*
X215156664Y-67458233D01*
X215156664Y-67458233D02*
X215156664Y-67339185D01*
X215156664Y-67339185D02*
X215180473Y-67243947D01*
X215180473Y-67243947D02*
X215204283Y-67196328D01*
X215204283Y-67196328D02*
X215228092Y-67172519D01*
X215228092Y-67172519D02*
X215275711Y-67148709D01*
X215537616Y-67696328D02*
X215918568Y-67696328D01*
X216275710Y-67648709D02*
X216037615Y-67648709D01*
X216037615Y-67648709D02*
X216037615Y-67148709D01*
X216728091Y-67601090D02*
X216704282Y-67624900D01*
X216704282Y-67624900D02*
X216632853Y-67648709D01*
X216632853Y-67648709D02*
X216585234Y-67648709D01*
X216585234Y-67648709D02*
X216513806Y-67624900D01*
X216513806Y-67624900D02*
X216466187Y-67577280D01*
X216466187Y-67577280D02*
X216442377Y-67529661D01*
X216442377Y-67529661D02*
X216418568Y-67434423D01*
X216418568Y-67434423D02*
X216418568Y-67362995D01*
X216418568Y-67362995D02*
X216442377Y-67267757D01*
X216442377Y-67267757D02*
X216466187Y-67220138D01*
X216466187Y-67220138D02*
X216513806Y-67172519D01*
X216513806Y-67172519D02*
X216585234Y-67148709D01*
X216585234Y-67148709D02*
X216632853Y-67148709D01*
X216632853Y-67148709D02*
X216704282Y-67172519D01*
X216704282Y-67172519D02*
X216728091Y-67196328D01*
X216942377Y-67648709D02*
X216942377Y-67148709D01*
X216942377Y-67148709D02*
X217061425Y-67148709D01*
X217061425Y-67148709D02*
X217132853Y-67172519D01*
X217132853Y-67172519D02*
X217180472Y-67220138D01*
X217180472Y-67220138D02*
X217204282Y-67267757D01*
X217204282Y-67267757D02*
X217228091Y-67362995D01*
X217228091Y-67362995D02*
X217228091Y-67434423D01*
X217228091Y-67434423D02*
X217204282Y-67529661D01*
X217204282Y-67529661D02*
X217180472Y-67577280D01*
X217180472Y-67577280D02*
X217132853Y-67624900D01*
X217132853Y-67624900D02*
X217061425Y-67648709D01*
X217061425Y-67648709D02*
X216942377Y-67648709D01*
X217323330Y-67696328D02*
X217704282Y-67696328D01*
X217894758Y-67648709D02*
X217847139Y-67624900D01*
X217847139Y-67624900D02*
X217823329Y-67577280D01*
X217823329Y-67577280D02*
X217823329Y-67148709D01*
X218275710Y-67624900D02*
X218228091Y-67648709D01*
X218228091Y-67648709D02*
X218132853Y-67648709D01*
X218132853Y-67648709D02*
X218085234Y-67624900D01*
X218085234Y-67624900D02*
X218061425Y-67577280D01*
X218061425Y-67577280D02*
X218061425Y-67386804D01*
X218061425Y-67386804D02*
X218085234Y-67339185D01*
X218085234Y-67339185D02*
X218132853Y-67315376D01*
X218132853Y-67315376D02*
X218228091Y-67315376D01*
X218228091Y-67315376D02*
X218275710Y-67339185D01*
X218275710Y-67339185D02*
X218299520Y-67386804D01*
X218299520Y-67386804D02*
X218299520Y-67434423D01*
X218299520Y-67434423D02*
X218061425Y-67482042D01*
X218442377Y-67315376D02*
X218632853Y-67315376D01*
X218513805Y-67648709D02*
X218513805Y-67220138D01*
X218513805Y-67220138D02*
X218537615Y-67172519D01*
X218537615Y-67172519D02*
X218585234Y-67148709D01*
X218585234Y-67148709D02*
X218632853Y-67148709D01*
X218728091Y-67315376D02*
X218918567Y-67315376D01*
X218799519Y-67148709D02*
X218799519Y-67577280D01*
X218799519Y-67577280D02*
X218823329Y-67624900D01*
X218823329Y-67624900D02*
X218870948Y-67648709D01*
X218870948Y-67648709D02*
X218918567Y-67648709D01*
D10*
X206828368Y-62678819D02*
X206828368Y-61678819D01*
X206828368Y-61678819D02*
X207066463Y-61678819D01*
X207066463Y-61678819D02*
X207209320Y-61726438D01*
X207209320Y-61726438D02*
X207304558Y-61821676D01*
X207304558Y-61821676D02*
X207352177Y-61916914D01*
X207352177Y-61916914D02*
X207399796Y-62107390D01*
X207399796Y-62107390D02*
X207399796Y-62250247D01*
X207399796Y-62250247D02*
X207352177Y-62440723D01*
X207352177Y-62440723D02*
X207304558Y-62535961D01*
X207304558Y-62535961D02*
X207209320Y-62631200D01*
X207209320Y-62631200D02*
X207066463Y-62678819D01*
X207066463Y-62678819D02*
X206828368Y-62678819D01*
X207733130Y-61678819D02*
X208399796Y-61678819D01*
X208399796Y-61678819D02*
X207971225Y-62678819D01*
X214803968Y-49877219D02*
X214803968Y-48877219D01*
X214803968Y-48877219D02*
X215042063Y-48877219D01*
X215042063Y-48877219D02*
X215184920Y-48924838D01*
X215184920Y-48924838D02*
X215280158Y-49020076D01*
X215280158Y-49020076D02*
X215327777Y-49115314D01*
X215327777Y-49115314D02*
X215375396Y-49305790D01*
X215375396Y-49305790D02*
X215375396Y-49448647D01*
X215375396Y-49448647D02*
X215327777Y-49639123D01*
X215327777Y-49639123D02*
X215280158Y-49734361D01*
X215280158Y-49734361D02*
X215184920Y-49829600D01*
X215184920Y-49829600D02*
X215042063Y-49877219D01*
X215042063Y-49877219D02*
X214803968Y-49877219D01*
X216327777Y-49877219D02*
X215756349Y-49877219D01*
X216042063Y-49877219D02*
X216042063Y-48877219D01*
X216042063Y-48877219D02*
X215946825Y-49020076D01*
X215946825Y-49020076D02*
X215851587Y-49115314D01*
X215851587Y-49115314D02*
X215756349Y-49162933D01*
X216661111Y-48877219D02*
X217280158Y-48877219D01*
X217280158Y-48877219D02*
X216946825Y-49258171D01*
X216946825Y-49258171D02*
X217089682Y-49258171D01*
X217089682Y-49258171D02*
X217184920Y-49305790D01*
X217184920Y-49305790D02*
X217232539Y-49353409D01*
X217232539Y-49353409D02*
X217280158Y-49448647D01*
X217280158Y-49448647D02*
X217280158Y-49686742D01*
X217280158Y-49686742D02*
X217232539Y-49781980D01*
X217232539Y-49781980D02*
X217184920Y-49829600D01*
X217184920Y-49829600D02*
X217089682Y-49877219D01*
X217089682Y-49877219D02*
X216803968Y-49877219D01*
X216803968Y-49877219D02*
X216708730Y-49829600D01*
X216708730Y-49829600D02*
X216661111Y-49781980D01*
X214829368Y-44695619D02*
X214829368Y-43695619D01*
X214829368Y-43695619D02*
X215067463Y-43695619D01*
X215067463Y-43695619D02*
X215210320Y-43743238D01*
X215210320Y-43743238D02*
X215305558Y-43838476D01*
X215305558Y-43838476D02*
X215353177Y-43933714D01*
X215353177Y-43933714D02*
X215400796Y-44124190D01*
X215400796Y-44124190D02*
X215400796Y-44267047D01*
X215400796Y-44267047D02*
X215353177Y-44457523D01*
X215353177Y-44457523D02*
X215305558Y-44552761D01*
X215305558Y-44552761D02*
X215210320Y-44648000D01*
X215210320Y-44648000D02*
X215067463Y-44695619D01*
X215067463Y-44695619D02*
X214829368Y-44695619D01*
X216353177Y-44695619D02*
X215781749Y-44695619D01*
X216067463Y-44695619D02*
X216067463Y-43695619D01*
X216067463Y-43695619D02*
X215972225Y-43838476D01*
X215972225Y-43838476D02*
X215876987Y-43933714D01*
X215876987Y-43933714D02*
X215781749Y-43981333D01*
X216734130Y-43790857D02*
X216781749Y-43743238D01*
X216781749Y-43743238D02*
X216876987Y-43695619D01*
X216876987Y-43695619D02*
X217115082Y-43695619D01*
X217115082Y-43695619D02*
X217210320Y-43743238D01*
X217210320Y-43743238D02*
X217257939Y-43790857D01*
X217257939Y-43790857D02*
X217305558Y-43886095D01*
X217305558Y-43886095D02*
X217305558Y-43981333D01*
X217305558Y-43981333D02*
X217257939Y-44124190D01*
X217257939Y-44124190D02*
X216686511Y-44695619D01*
X216686511Y-44695619D02*
X217305558Y-44695619D01*
X206828368Y-55058819D02*
X206828368Y-54058819D01*
X206828368Y-54058819D02*
X207066463Y-54058819D01*
X207066463Y-54058819D02*
X207209320Y-54106438D01*
X207209320Y-54106438D02*
X207304558Y-54201676D01*
X207304558Y-54201676D02*
X207352177Y-54296914D01*
X207352177Y-54296914D02*
X207399796Y-54487390D01*
X207399796Y-54487390D02*
X207399796Y-54630247D01*
X207399796Y-54630247D02*
X207352177Y-54820723D01*
X207352177Y-54820723D02*
X207304558Y-54915961D01*
X207304558Y-54915961D02*
X207209320Y-55011200D01*
X207209320Y-55011200D02*
X207066463Y-55058819D01*
X207066463Y-55058819D02*
X206828368Y-55058819D01*
X208256939Y-54392152D02*
X208256939Y-55058819D01*
X208018844Y-54011200D02*
X207780749Y-54725485D01*
X207780749Y-54725485D02*
X208399796Y-54725485D01*
D11*
X215067788Y-70010909D02*
X214782074Y-70010909D01*
X214924931Y-70010909D02*
X214924931Y-69510909D01*
X214924931Y-69510909D02*
X214877312Y-69582338D01*
X214877312Y-69582338D02*
X214829693Y-69629957D01*
X214829693Y-69629957D02*
X214782074Y-69653766D01*
X215305883Y-70010909D02*
X215401121Y-70010909D01*
X215401121Y-70010909D02*
X215448740Y-69987100D01*
X215448740Y-69987100D02*
X215472549Y-69963290D01*
X215472549Y-69963290D02*
X215520168Y-69891861D01*
X215520168Y-69891861D02*
X215543978Y-69796623D01*
X215543978Y-69796623D02*
X215543978Y-69606147D01*
X215543978Y-69606147D02*
X215520168Y-69558528D01*
X215520168Y-69558528D02*
X215496359Y-69534719D01*
X215496359Y-69534719D02*
X215448740Y-69510909D01*
X215448740Y-69510909D02*
X215353502Y-69510909D01*
X215353502Y-69510909D02*
X215305883Y-69534719D01*
X215305883Y-69534719D02*
X215282073Y-69558528D01*
X215282073Y-69558528D02*
X215258264Y-69606147D01*
X215258264Y-69606147D02*
X215258264Y-69725195D01*
X215258264Y-69725195D02*
X215282073Y-69772814D01*
X215282073Y-69772814D02*
X215305883Y-69796623D01*
X215305883Y-69796623D02*
X215353502Y-69820433D01*
X215353502Y-69820433D02*
X215448740Y-69820433D01*
X215448740Y-69820433D02*
X215496359Y-69796623D01*
X215496359Y-69796623D02*
X215520168Y-69772814D01*
X215520168Y-69772814D02*
X215543978Y-69725195D01*
X215639216Y-70058528D02*
X216020168Y-70058528D01*
X216115406Y-69987100D02*
X216186834Y-70010909D01*
X216186834Y-70010909D02*
X216305882Y-70010909D01*
X216305882Y-70010909D02*
X216353501Y-69987100D01*
X216353501Y-69987100D02*
X216377310Y-69963290D01*
X216377310Y-69963290D02*
X216401120Y-69915671D01*
X216401120Y-69915671D02*
X216401120Y-69868052D01*
X216401120Y-69868052D02*
X216377310Y-69820433D01*
X216377310Y-69820433D02*
X216353501Y-69796623D01*
X216353501Y-69796623D02*
X216305882Y-69772814D01*
X216305882Y-69772814D02*
X216210644Y-69749004D01*
X216210644Y-69749004D02*
X216163025Y-69725195D01*
X216163025Y-69725195D02*
X216139215Y-69701385D01*
X216139215Y-69701385D02*
X216115406Y-69653766D01*
X216115406Y-69653766D02*
X216115406Y-69606147D01*
X216115406Y-69606147D02*
X216139215Y-69558528D01*
X216139215Y-69558528D02*
X216163025Y-69534719D01*
X216163025Y-69534719D02*
X216210644Y-69510909D01*
X216210644Y-69510909D02*
X216329691Y-69510909D01*
X216329691Y-69510909D02*
X216401120Y-69534719D01*
X216901119Y-69963290D02*
X216877310Y-69987100D01*
X216877310Y-69987100D02*
X216805881Y-70010909D01*
X216805881Y-70010909D02*
X216758262Y-70010909D01*
X216758262Y-70010909D02*
X216686834Y-69987100D01*
X216686834Y-69987100D02*
X216639215Y-69939480D01*
X216639215Y-69939480D02*
X216615405Y-69891861D01*
X216615405Y-69891861D02*
X216591596Y-69796623D01*
X216591596Y-69796623D02*
X216591596Y-69725195D01*
X216591596Y-69725195D02*
X216615405Y-69629957D01*
X216615405Y-69629957D02*
X216639215Y-69582338D01*
X216639215Y-69582338D02*
X216686834Y-69534719D01*
X216686834Y-69534719D02*
X216758262Y-69510909D01*
X216758262Y-69510909D02*
X216805881Y-69510909D01*
X216805881Y-69510909D02*
X216877310Y-69534719D01*
X216877310Y-69534719D02*
X216901119Y-69558528D01*
X217353500Y-70010909D02*
X217115405Y-70010909D01*
X217115405Y-70010909D02*
X217115405Y-69510909D01*
X217401120Y-70058528D02*
X217782072Y-70058528D01*
X218139214Y-70010909D02*
X217901119Y-70010909D01*
X217901119Y-70010909D02*
X217901119Y-69510909D01*
X218591595Y-69963290D02*
X218567786Y-69987100D01*
X218567786Y-69987100D02*
X218496357Y-70010909D01*
X218496357Y-70010909D02*
X218448738Y-70010909D01*
X218448738Y-70010909D02*
X218377310Y-69987100D01*
X218377310Y-69987100D02*
X218329691Y-69939480D01*
X218329691Y-69939480D02*
X218305881Y-69891861D01*
X218305881Y-69891861D02*
X218282072Y-69796623D01*
X218282072Y-69796623D02*
X218282072Y-69725195D01*
X218282072Y-69725195D02*
X218305881Y-69629957D01*
X218305881Y-69629957D02*
X218329691Y-69582338D01*
X218329691Y-69582338D02*
X218377310Y-69534719D01*
X218377310Y-69534719D02*
X218448738Y-69510909D01*
X218448738Y-69510909D02*
X218496357Y-69510909D01*
X218496357Y-69510909D02*
X218567786Y-69534719D01*
X218567786Y-69534719D02*
X218591595Y-69558528D01*
X218805881Y-70010909D02*
X218805881Y-69510909D01*
X218805881Y-69510909D02*
X218924929Y-69510909D01*
X218924929Y-69510909D02*
X218996357Y-69534719D01*
X218996357Y-69534719D02*
X219043976Y-69582338D01*
X219043976Y-69582338D02*
X219067786Y-69629957D01*
X219067786Y-69629957D02*
X219091595Y-69725195D01*
X219091595Y-69725195D02*
X219091595Y-69796623D01*
X219091595Y-69796623D02*
X219067786Y-69891861D01*
X219067786Y-69891861D02*
X219043976Y-69939480D01*
X219043976Y-69939480D02*
X218996357Y-69987100D01*
X218996357Y-69987100D02*
X218924929Y-70010909D01*
X218924929Y-70010909D02*
X218805881Y-70010909D01*
D10*
X206853768Y-49928019D02*
X206853768Y-48928019D01*
X206853768Y-48928019D02*
X207091863Y-48928019D01*
X207091863Y-48928019D02*
X207234720Y-48975638D01*
X207234720Y-48975638D02*
X207329958Y-49070876D01*
X207329958Y-49070876D02*
X207377577Y-49166114D01*
X207377577Y-49166114D02*
X207425196Y-49356590D01*
X207425196Y-49356590D02*
X207425196Y-49499447D01*
X207425196Y-49499447D02*
X207377577Y-49689923D01*
X207377577Y-49689923D02*
X207329958Y-49785161D01*
X207329958Y-49785161D02*
X207234720Y-49880400D01*
X207234720Y-49880400D02*
X207091863Y-49928019D01*
X207091863Y-49928019D02*
X206853768Y-49928019D01*
X207806149Y-49023257D02*
X207853768Y-48975638D01*
X207853768Y-48975638D02*
X207949006Y-48928019D01*
X207949006Y-48928019D02*
X208187101Y-48928019D01*
X208187101Y-48928019D02*
X208282339Y-48975638D01*
X208282339Y-48975638D02*
X208329958Y-49023257D01*
X208329958Y-49023257D02*
X208377577Y-49118495D01*
X208377577Y-49118495D02*
X208377577Y-49213733D01*
X208377577Y-49213733D02*
X208329958Y-49356590D01*
X208329958Y-49356590D02*
X207758530Y-49928019D01*
X207758530Y-49928019D02*
X208377577Y-49928019D01*
X206777568Y-57700419D02*
X206777568Y-56700419D01*
X206777568Y-56700419D02*
X207015663Y-56700419D01*
X207015663Y-56700419D02*
X207158520Y-56748038D01*
X207158520Y-56748038D02*
X207253758Y-56843276D01*
X207253758Y-56843276D02*
X207301377Y-56938514D01*
X207301377Y-56938514D02*
X207348996Y-57128990D01*
X207348996Y-57128990D02*
X207348996Y-57271847D01*
X207348996Y-57271847D02*
X207301377Y-57462323D01*
X207301377Y-57462323D02*
X207253758Y-57557561D01*
X207253758Y-57557561D02*
X207158520Y-57652800D01*
X207158520Y-57652800D02*
X207015663Y-57700419D01*
X207015663Y-57700419D02*
X206777568Y-57700419D01*
X208253758Y-56700419D02*
X207777568Y-56700419D01*
X207777568Y-56700419D02*
X207729949Y-57176609D01*
X207729949Y-57176609D02*
X207777568Y-57128990D01*
X207777568Y-57128990D02*
X207872806Y-57081371D01*
X207872806Y-57081371D02*
X208110901Y-57081371D01*
X208110901Y-57081371D02*
X208206139Y-57128990D01*
X208206139Y-57128990D02*
X208253758Y-57176609D01*
X208253758Y-57176609D02*
X208301377Y-57271847D01*
X208301377Y-57271847D02*
X208301377Y-57509942D01*
X208301377Y-57509942D02*
X208253758Y-57605180D01*
X208253758Y-57605180D02*
X208206139Y-57652800D01*
X208206139Y-57652800D02*
X208110901Y-57700419D01*
X208110901Y-57700419D02*
X207872806Y-57700419D01*
X207872806Y-57700419D02*
X207777568Y-57652800D01*
X207777568Y-57652800D02*
X207729949Y-57605180D01*
X214829368Y-47515019D02*
X214829368Y-46515019D01*
X214829368Y-46515019D02*
X215067463Y-46515019D01*
X215067463Y-46515019D02*
X215210320Y-46562638D01*
X215210320Y-46562638D02*
X215305558Y-46657876D01*
X215305558Y-46657876D02*
X215353177Y-46753114D01*
X215353177Y-46753114D02*
X215400796Y-46943590D01*
X215400796Y-46943590D02*
X215400796Y-47086447D01*
X215400796Y-47086447D02*
X215353177Y-47276923D01*
X215353177Y-47276923D02*
X215305558Y-47372161D01*
X215305558Y-47372161D02*
X215210320Y-47467400D01*
X215210320Y-47467400D02*
X215067463Y-47515019D01*
X215067463Y-47515019D02*
X214829368Y-47515019D01*
X216353177Y-47515019D02*
X215781749Y-47515019D01*
X216067463Y-47515019D02*
X216067463Y-46515019D01*
X216067463Y-46515019D02*
X215972225Y-46657876D01*
X215972225Y-46657876D02*
X215876987Y-46753114D01*
X215876987Y-46753114D02*
X215781749Y-46800733D01*
X217210320Y-46848352D02*
X217210320Y-47515019D01*
X216972225Y-46467400D02*
X216734130Y-47181685D01*
X216734130Y-47181685D02*
X217353177Y-47181685D01*
D11*
X215093188Y-64930909D02*
X214807474Y-64930909D01*
X214950331Y-64930909D02*
X214950331Y-64430909D01*
X214950331Y-64430909D02*
X214902712Y-64502338D01*
X214902712Y-64502338D02*
X214855093Y-64549957D01*
X214855093Y-64549957D02*
X214807474Y-64573766D01*
X215569378Y-64930909D02*
X215283664Y-64930909D01*
X215426521Y-64930909D02*
X215426521Y-64430909D01*
X215426521Y-64430909D02*
X215378902Y-64502338D01*
X215378902Y-64502338D02*
X215331283Y-64549957D01*
X215331283Y-64549957D02*
X215283664Y-64573766D01*
X215664616Y-64978528D02*
X216045568Y-64978528D01*
X216402710Y-64930909D02*
X216164615Y-64930909D01*
X216164615Y-64930909D02*
X216164615Y-64430909D01*
X216855091Y-64883290D02*
X216831282Y-64907100D01*
X216831282Y-64907100D02*
X216759853Y-64930909D01*
X216759853Y-64930909D02*
X216712234Y-64930909D01*
X216712234Y-64930909D02*
X216640806Y-64907100D01*
X216640806Y-64907100D02*
X216593187Y-64859480D01*
X216593187Y-64859480D02*
X216569377Y-64811861D01*
X216569377Y-64811861D02*
X216545568Y-64716623D01*
X216545568Y-64716623D02*
X216545568Y-64645195D01*
X216545568Y-64645195D02*
X216569377Y-64549957D01*
X216569377Y-64549957D02*
X216593187Y-64502338D01*
X216593187Y-64502338D02*
X216640806Y-64454719D01*
X216640806Y-64454719D02*
X216712234Y-64430909D01*
X216712234Y-64430909D02*
X216759853Y-64430909D01*
X216759853Y-64430909D02*
X216831282Y-64454719D01*
X216831282Y-64454719D02*
X216855091Y-64478528D01*
X217069377Y-64930909D02*
X217069377Y-64430909D01*
X217069377Y-64430909D02*
X217188425Y-64430909D01*
X217188425Y-64430909D02*
X217259853Y-64454719D01*
X217259853Y-64454719D02*
X217307472Y-64502338D01*
X217307472Y-64502338D02*
X217331282Y-64549957D01*
X217331282Y-64549957D02*
X217355091Y-64645195D01*
X217355091Y-64645195D02*
X217355091Y-64716623D01*
X217355091Y-64716623D02*
X217331282Y-64811861D01*
X217331282Y-64811861D02*
X217307472Y-64859480D01*
X217307472Y-64859480D02*
X217259853Y-64907100D01*
X217259853Y-64907100D02*
X217188425Y-64930909D01*
X217188425Y-64930909D02*
X217069377Y-64930909D01*
X217450330Y-64978528D02*
X217831282Y-64978528D01*
X217950329Y-64930909D02*
X217950329Y-64597576D01*
X217950329Y-64692814D02*
X217974139Y-64645195D01*
X217974139Y-64645195D02*
X217997948Y-64621385D01*
X217997948Y-64621385D02*
X218045567Y-64597576D01*
X218045567Y-64597576D02*
X218093186Y-64597576D01*
X218259853Y-64930909D02*
X218259853Y-64597576D01*
X218259853Y-64430909D02*
X218236044Y-64454719D01*
X218236044Y-64454719D02*
X218259853Y-64478528D01*
X218259853Y-64478528D02*
X218283663Y-64454719D01*
X218283663Y-64454719D02*
X218259853Y-64430909D01*
X218259853Y-64430909D02*
X218259853Y-64478528D01*
X218712234Y-64597576D02*
X218712234Y-65002338D01*
X218712234Y-65002338D02*
X218688424Y-65049957D01*
X218688424Y-65049957D02*
X218664615Y-65073766D01*
X218664615Y-65073766D02*
X218616996Y-65097576D01*
X218616996Y-65097576D02*
X218545567Y-65097576D01*
X218545567Y-65097576D02*
X218497948Y-65073766D01*
X218712234Y-64907100D02*
X218664615Y-64930909D01*
X218664615Y-64930909D02*
X218569377Y-64930909D01*
X218569377Y-64930909D02*
X218521758Y-64907100D01*
X218521758Y-64907100D02*
X218497948Y-64883290D01*
X218497948Y-64883290D02*
X218474139Y-64835671D01*
X218474139Y-64835671D02*
X218474139Y-64692814D01*
X218474139Y-64692814D02*
X218497948Y-64645195D01*
X218497948Y-64645195D02*
X218521758Y-64621385D01*
X218521758Y-64621385D02*
X218569377Y-64597576D01*
X218569377Y-64597576D02*
X218664615Y-64597576D01*
X218664615Y-64597576D02*
X218712234Y-64621385D01*
X218950329Y-64930909D02*
X218950329Y-64430909D01*
X219164615Y-64930909D02*
X219164615Y-64669004D01*
X219164615Y-64669004D02*
X219140805Y-64621385D01*
X219140805Y-64621385D02*
X219093186Y-64597576D01*
X219093186Y-64597576D02*
X219021758Y-64597576D01*
X219021758Y-64597576D02*
X218974139Y-64621385D01*
X218974139Y-64621385D02*
X218950329Y-64645195D01*
X219331282Y-64597576D02*
X219521758Y-64597576D01*
X219402710Y-64430909D02*
X219402710Y-64859480D01*
X219402710Y-64859480D02*
X219426520Y-64907100D01*
X219426520Y-64907100D02*
X219474139Y-64930909D01*
X219474139Y-64930909D02*
X219521758Y-64930909D01*
D10*
X215375396Y-55058819D02*
X215042063Y-54582628D01*
X214803968Y-55058819D02*
X214803968Y-54058819D01*
X214803968Y-54058819D02*
X215184920Y-54058819D01*
X215184920Y-54058819D02*
X215280158Y-54106438D01*
X215280158Y-54106438D02*
X215327777Y-54154057D01*
X215327777Y-54154057D02*
X215375396Y-54249295D01*
X215375396Y-54249295D02*
X215375396Y-54392152D01*
X215375396Y-54392152D02*
X215327777Y-54487390D01*
X215327777Y-54487390D02*
X215280158Y-54535009D01*
X215280158Y-54535009D02*
X215184920Y-54582628D01*
X215184920Y-54582628D02*
X214803968Y-54582628D01*
X215756349Y-55011200D02*
X215899206Y-55058819D01*
X215899206Y-55058819D02*
X216137301Y-55058819D01*
X216137301Y-55058819D02*
X216232539Y-55011200D01*
X216232539Y-55011200D02*
X216280158Y-54963580D01*
X216280158Y-54963580D02*
X216327777Y-54868342D01*
X216327777Y-54868342D02*
X216327777Y-54773104D01*
X216327777Y-54773104D02*
X216280158Y-54677866D01*
X216280158Y-54677866D02*
X216232539Y-54630247D01*
X216232539Y-54630247D02*
X216137301Y-54582628D01*
X216137301Y-54582628D02*
X215946825Y-54535009D01*
X215946825Y-54535009D02*
X215851587Y-54487390D01*
X215851587Y-54487390D02*
X215803968Y-54439771D01*
X215803968Y-54439771D02*
X215756349Y-54344533D01*
X215756349Y-54344533D02*
X215756349Y-54249295D01*
X215756349Y-54249295D02*
X215803968Y-54154057D01*
X215803968Y-54154057D02*
X215851587Y-54106438D01*
X215851587Y-54106438D02*
X215946825Y-54058819D01*
X215946825Y-54058819D02*
X216184920Y-54058819D01*
X216184920Y-54058819D02*
X216327777Y-54106438D01*
X216613492Y-54058819D02*
X217184920Y-54058819D01*
X216899206Y-55058819D02*
X216899206Y-54058819D01*
X206879168Y-67809619D02*
X206879168Y-66809619D01*
X206879168Y-66809619D02*
X207117263Y-66809619D01*
X207117263Y-66809619D02*
X207260120Y-66857238D01*
X207260120Y-66857238D02*
X207355358Y-66952476D01*
X207355358Y-66952476D02*
X207402977Y-67047714D01*
X207402977Y-67047714D02*
X207450596Y-67238190D01*
X207450596Y-67238190D02*
X207450596Y-67381047D01*
X207450596Y-67381047D02*
X207402977Y-67571523D01*
X207402977Y-67571523D02*
X207355358Y-67666761D01*
X207355358Y-67666761D02*
X207260120Y-67762000D01*
X207260120Y-67762000D02*
X207117263Y-67809619D01*
X207117263Y-67809619D02*
X206879168Y-67809619D01*
X207926787Y-67809619D02*
X208117263Y-67809619D01*
X208117263Y-67809619D02*
X208212501Y-67762000D01*
X208212501Y-67762000D02*
X208260120Y-67714380D01*
X208260120Y-67714380D02*
X208355358Y-67571523D01*
X208355358Y-67571523D02*
X208402977Y-67381047D01*
X208402977Y-67381047D02*
X208402977Y-67000095D01*
X208402977Y-67000095D02*
X208355358Y-66904857D01*
X208355358Y-66904857D02*
X208307739Y-66857238D01*
X208307739Y-66857238D02*
X208212501Y-66809619D01*
X208212501Y-66809619D02*
X208022025Y-66809619D01*
X208022025Y-66809619D02*
X207926787Y-66857238D01*
X207926787Y-66857238D02*
X207879168Y-66904857D01*
X207879168Y-66904857D02*
X207831549Y-67000095D01*
X207831549Y-67000095D02*
X207831549Y-67238190D01*
X207831549Y-67238190D02*
X207879168Y-67333428D01*
X207879168Y-67333428D02*
X207926787Y-67381047D01*
X207926787Y-67381047D02*
X208022025Y-67428666D01*
X208022025Y-67428666D02*
X208212501Y-67428666D01*
X208212501Y-67428666D02*
X208307739Y-67381047D01*
X208307739Y-67381047D02*
X208355358Y-67333428D01*
X208355358Y-67333428D02*
X208402977Y-67238190D01*
X215429377Y-59313438D02*
X215334139Y-59265819D01*
X215334139Y-59265819D02*
X215191282Y-59265819D01*
X215191282Y-59265819D02*
X215048425Y-59313438D01*
X215048425Y-59313438D02*
X214953187Y-59408676D01*
X214953187Y-59408676D02*
X214905568Y-59503914D01*
X214905568Y-59503914D02*
X214857949Y-59694390D01*
X214857949Y-59694390D02*
X214857949Y-59837247D01*
X214857949Y-59837247D02*
X214905568Y-60027723D01*
X214905568Y-60027723D02*
X214953187Y-60122961D01*
X214953187Y-60122961D02*
X215048425Y-60218200D01*
X215048425Y-60218200D02*
X215191282Y-60265819D01*
X215191282Y-60265819D02*
X215286520Y-60265819D01*
X215286520Y-60265819D02*
X215429377Y-60218200D01*
X215429377Y-60218200D02*
X215476996Y-60170580D01*
X215476996Y-60170580D02*
X215476996Y-59837247D01*
X215476996Y-59837247D02*
X215286520Y-59837247D01*
X215905568Y-60265819D02*
X215905568Y-59265819D01*
X215905568Y-59265819D02*
X216476996Y-60265819D01*
X216476996Y-60265819D02*
X216476996Y-59265819D01*
X216953187Y-60265819D02*
X216953187Y-59265819D01*
X216953187Y-59265819D02*
X217191282Y-59265819D01*
X217191282Y-59265819D02*
X217334139Y-59313438D01*
X217334139Y-59313438D02*
X217429377Y-59408676D01*
X217429377Y-59408676D02*
X217476996Y-59503914D01*
X217476996Y-59503914D02*
X217524615Y-59694390D01*
X217524615Y-59694390D02*
X217524615Y-59837247D01*
X217524615Y-59837247D02*
X217476996Y-60027723D01*
X217476996Y-60027723D02*
X217429377Y-60122961D01*
X217429377Y-60122961D02*
X217334139Y-60218200D01*
X217334139Y-60218200D02*
X217191282Y-60265819D01*
X217191282Y-60265819D02*
X216953187Y-60265819D01*
X214784930Y-56573419D02*
X215403977Y-56573419D01*
X215403977Y-56573419D02*
X215070644Y-56954371D01*
X215070644Y-56954371D02*
X215213501Y-56954371D01*
X215213501Y-56954371D02*
X215308739Y-57001990D01*
X215308739Y-57001990D02*
X215356358Y-57049609D01*
X215356358Y-57049609D02*
X215403977Y-57144847D01*
X215403977Y-57144847D02*
X215403977Y-57382942D01*
X215403977Y-57382942D02*
X215356358Y-57478180D01*
X215356358Y-57478180D02*
X215308739Y-57525800D01*
X215308739Y-57525800D02*
X215213501Y-57573419D01*
X215213501Y-57573419D02*
X214927787Y-57573419D01*
X214927787Y-57573419D02*
X214832549Y-57525800D01*
X214832549Y-57525800D02*
X214784930Y-57478180D01*
X215832549Y-57478180D02*
X215880168Y-57525800D01*
X215880168Y-57525800D02*
X215832549Y-57573419D01*
X215832549Y-57573419D02*
X215784930Y-57525800D01*
X215784930Y-57525800D02*
X215832549Y-57478180D01*
X215832549Y-57478180D02*
X215832549Y-57573419D01*
X216213501Y-56573419D02*
X216832548Y-56573419D01*
X216832548Y-56573419D02*
X216499215Y-56954371D01*
X216499215Y-56954371D02*
X216642072Y-56954371D01*
X216642072Y-56954371D02*
X216737310Y-57001990D01*
X216737310Y-57001990D02*
X216784929Y-57049609D01*
X216784929Y-57049609D02*
X216832548Y-57144847D01*
X216832548Y-57144847D02*
X216832548Y-57382942D01*
X216832548Y-57382942D02*
X216784929Y-57478180D01*
X216784929Y-57478180D02*
X216737310Y-57525800D01*
X216737310Y-57525800D02*
X216642072Y-57573419D01*
X216642072Y-57573419D02*
X216356358Y-57573419D01*
X216356358Y-57573419D02*
X216261120Y-57525800D01*
X216261120Y-57525800D02*
X216213501Y-57478180D01*
X217118263Y-56573419D02*
X217451596Y-57573419D01*
X217451596Y-57573419D02*
X217784929Y-56573419D01*
D11*
X215143988Y-62238509D02*
X214858274Y-62238509D01*
X215001131Y-62238509D02*
X215001131Y-61738509D01*
X215001131Y-61738509D02*
X214953512Y-61809938D01*
X214953512Y-61809938D02*
X214905893Y-61857557D01*
X214905893Y-61857557D02*
X214858274Y-61881366D01*
X215334464Y-61786128D02*
X215358273Y-61762319D01*
X215358273Y-61762319D02*
X215405892Y-61738509D01*
X215405892Y-61738509D02*
X215524940Y-61738509D01*
X215524940Y-61738509D02*
X215572559Y-61762319D01*
X215572559Y-61762319D02*
X215596368Y-61786128D01*
X215596368Y-61786128D02*
X215620178Y-61833747D01*
X215620178Y-61833747D02*
X215620178Y-61881366D01*
X215620178Y-61881366D02*
X215596368Y-61952795D01*
X215596368Y-61952795D02*
X215310654Y-62238509D01*
X215310654Y-62238509D02*
X215620178Y-62238509D01*
X215715416Y-62286128D02*
X216096368Y-62286128D01*
X216453510Y-62238509D02*
X216215415Y-62238509D01*
X216215415Y-62238509D02*
X216215415Y-61738509D01*
X216905891Y-62190890D02*
X216882082Y-62214700D01*
X216882082Y-62214700D02*
X216810653Y-62238509D01*
X216810653Y-62238509D02*
X216763034Y-62238509D01*
X216763034Y-62238509D02*
X216691606Y-62214700D01*
X216691606Y-62214700D02*
X216643987Y-62167080D01*
X216643987Y-62167080D02*
X216620177Y-62119461D01*
X216620177Y-62119461D02*
X216596368Y-62024223D01*
X216596368Y-62024223D02*
X216596368Y-61952795D01*
X216596368Y-61952795D02*
X216620177Y-61857557D01*
X216620177Y-61857557D02*
X216643987Y-61809938D01*
X216643987Y-61809938D02*
X216691606Y-61762319D01*
X216691606Y-61762319D02*
X216763034Y-61738509D01*
X216763034Y-61738509D02*
X216810653Y-61738509D01*
X216810653Y-61738509D02*
X216882082Y-61762319D01*
X216882082Y-61762319D02*
X216905891Y-61786128D01*
X217120177Y-62238509D02*
X217120177Y-61738509D01*
X217120177Y-61738509D02*
X217239225Y-61738509D01*
X217239225Y-61738509D02*
X217310653Y-61762319D01*
X217310653Y-61762319D02*
X217358272Y-61809938D01*
X217358272Y-61809938D02*
X217382082Y-61857557D01*
X217382082Y-61857557D02*
X217405891Y-61952795D01*
X217405891Y-61952795D02*
X217405891Y-62024223D01*
X217405891Y-62024223D02*
X217382082Y-62119461D01*
X217382082Y-62119461D02*
X217358272Y-62167080D01*
X217358272Y-62167080D02*
X217310653Y-62214700D01*
X217310653Y-62214700D02*
X217239225Y-62238509D01*
X217239225Y-62238509D02*
X217120177Y-62238509D01*
X217501130Y-62286128D02*
X217882082Y-62286128D01*
X218191605Y-62214700D02*
X218143986Y-62238509D01*
X218143986Y-62238509D02*
X218048748Y-62238509D01*
X218048748Y-62238509D02*
X218001129Y-62214700D01*
X218001129Y-62214700D02*
X217977320Y-62167080D01*
X217977320Y-62167080D02*
X217977320Y-61976604D01*
X217977320Y-61976604D02*
X218001129Y-61928985D01*
X218001129Y-61928985D02*
X218048748Y-61905176D01*
X218048748Y-61905176D02*
X218143986Y-61905176D01*
X218143986Y-61905176D02*
X218191605Y-61928985D01*
X218191605Y-61928985D02*
X218215415Y-61976604D01*
X218215415Y-61976604D02*
X218215415Y-62024223D01*
X218215415Y-62024223D02*
X217977320Y-62071842D01*
X218429700Y-61905176D02*
X218429700Y-62238509D01*
X218429700Y-61952795D02*
X218453510Y-61928985D01*
X218453510Y-61928985D02*
X218501129Y-61905176D01*
X218501129Y-61905176D02*
X218572557Y-61905176D01*
X218572557Y-61905176D02*
X218620176Y-61928985D01*
X218620176Y-61928985D02*
X218643986Y-61976604D01*
X218643986Y-61976604D02*
X218643986Y-62238509D01*
X218810653Y-61905176D02*
X219001129Y-61905176D01*
X218882081Y-61738509D02*
X218882081Y-62167080D01*
X218882081Y-62167080D02*
X218905891Y-62214700D01*
X218905891Y-62214700D02*
X218953510Y-62238509D01*
X218953510Y-62238509D02*
X219001129Y-62238509D01*
X219358271Y-62214700D02*
X219310652Y-62238509D01*
X219310652Y-62238509D02*
X219215414Y-62238509D01*
X219215414Y-62238509D02*
X219167795Y-62214700D01*
X219167795Y-62214700D02*
X219143986Y-62167080D01*
X219143986Y-62167080D02*
X219143986Y-61976604D01*
X219143986Y-61976604D02*
X219167795Y-61928985D01*
X219167795Y-61928985D02*
X219215414Y-61905176D01*
X219215414Y-61905176D02*
X219310652Y-61905176D01*
X219310652Y-61905176D02*
X219358271Y-61928985D01*
X219358271Y-61928985D02*
X219382081Y-61976604D01*
X219382081Y-61976604D02*
X219382081Y-62024223D01*
X219382081Y-62024223D02*
X219143986Y-62071842D01*
X219596366Y-62238509D02*
X219596366Y-61905176D01*
X219596366Y-62000414D02*
X219620176Y-61952795D01*
X219620176Y-61952795D02*
X219643985Y-61928985D01*
X219643985Y-61928985D02*
X219691604Y-61905176D01*
X219691604Y-61905176D02*
X219739223Y-61905176D01*
D10*
X206828368Y-44822619D02*
X206828368Y-43822619D01*
X206828368Y-43822619D02*
X207066463Y-43822619D01*
X207066463Y-43822619D02*
X207209320Y-43870238D01*
X207209320Y-43870238D02*
X207304558Y-43965476D01*
X207304558Y-43965476D02*
X207352177Y-44060714D01*
X207352177Y-44060714D02*
X207399796Y-44251190D01*
X207399796Y-44251190D02*
X207399796Y-44394047D01*
X207399796Y-44394047D02*
X207352177Y-44584523D01*
X207352177Y-44584523D02*
X207304558Y-44679761D01*
X207304558Y-44679761D02*
X207209320Y-44775000D01*
X207209320Y-44775000D02*
X207066463Y-44822619D01*
X207066463Y-44822619D02*
X206828368Y-44822619D01*
X208018844Y-43822619D02*
X208114082Y-43822619D01*
X208114082Y-43822619D02*
X208209320Y-43870238D01*
X208209320Y-43870238D02*
X208256939Y-43917857D01*
X208256939Y-43917857D02*
X208304558Y-44013095D01*
X208304558Y-44013095D02*
X208352177Y-44203571D01*
X208352177Y-44203571D02*
X208352177Y-44441666D01*
X208352177Y-44441666D02*
X208304558Y-44632142D01*
X208304558Y-44632142D02*
X208256939Y-44727380D01*
X208256939Y-44727380D02*
X208209320Y-44775000D01*
X208209320Y-44775000D02*
X208114082Y-44822619D01*
X208114082Y-44822619D02*
X208018844Y-44822619D01*
X208018844Y-44822619D02*
X207923606Y-44775000D01*
X207923606Y-44775000D02*
X207875987Y-44727380D01*
X207875987Y-44727380D02*
X207828368Y-44632142D01*
X207828368Y-44632142D02*
X207780749Y-44441666D01*
X207780749Y-44441666D02*
X207780749Y-44203571D01*
X207780749Y-44203571D02*
X207828368Y-44013095D01*
X207828368Y-44013095D02*
X207875987Y-43917857D01*
X207875987Y-43917857D02*
X207923606Y-43870238D01*
X207923606Y-43870238D02*
X208018844Y-43822619D01*
D11*
X215067788Y-72677909D02*
X214782074Y-72677909D01*
X214924931Y-72677909D02*
X214924931Y-72177909D01*
X214924931Y-72177909D02*
X214877312Y-72249338D01*
X214877312Y-72249338D02*
X214829693Y-72296957D01*
X214829693Y-72296957D02*
X214782074Y-72320766D01*
X215353502Y-72392195D02*
X215305883Y-72368385D01*
X215305883Y-72368385D02*
X215282073Y-72344576D01*
X215282073Y-72344576D02*
X215258264Y-72296957D01*
X215258264Y-72296957D02*
X215258264Y-72273147D01*
X215258264Y-72273147D02*
X215282073Y-72225528D01*
X215282073Y-72225528D02*
X215305883Y-72201719D01*
X215305883Y-72201719D02*
X215353502Y-72177909D01*
X215353502Y-72177909D02*
X215448740Y-72177909D01*
X215448740Y-72177909D02*
X215496359Y-72201719D01*
X215496359Y-72201719D02*
X215520168Y-72225528D01*
X215520168Y-72225528D02*
X215543978Y-72273147D01*
X215543978Y-72273147D02*
X215543978Y-72296957D01*
X215543978Y-72296957D02*
X215520168Y-72344576D01*
X215520168Y-72344576D02*
X215496359Y-72368385D01*
X215496359Y-72368385D02*
X215448740Y-72392195D01*
X215448740Y-72392195D02*
X215353502Y-72392195D01*
X215353502Y-72392195D02*
X215305883Y-72416004D01*
X215305883Y-72416004D02*
X215282073Y-72439814D01*
X215282073Y-72439814D02*
X215258264Y-72487433D01*
X215258264Y-72487433D02*
X215258264Y-72582671D01*
X215258264Y-72582671D02*
X215282073Y-72630290D01*
X215282073Y-72630290D02*
X215305883Y-72654100D01*
X215305883Y-72654100D02*
X215353502Y-72677909D01*
X215353502Y-72677909D02*
X215448740Y-72677909D01*
X215448740Y-72677909D02*
X215496359Y-72654100D01*
X215496359Y-72654100D02*
X215520168Y-72630290D01*
X215520168Y-72630290D02*
X215543978Y-72582671D01*
X215543978Y-72582671D02*
X215543978Y-72487433D01*
X215543978Y-72487433D02*
X215520168Y-72439814D01*
X215520168Y-72439814D02*
X215496359Y-72416004D01*
X215496359Y-72416004D02*
X215448740Y-72392195D01*
X215639216Y-72725528D02*
X216020168Y-72725528D01*
X216115406Y-72654100D02*
X216186834Y-72677909D01*
X216186834Y-72677909D02*
X216305882Y-72677909D01*
X216305882Y-72677909D02*
X216353501Y-72654100D01*
X216353501Y-72654100D02*
X216377310Y-72630290D01*
X216377310Y-72630290D02*
X216401120Y-72582671D01*
X216401120Y-72582671D02*
X216401120Y-72535052D01*
X216401120Y-72535052D02*
X216377310Y-72487433D01*
X216377310Y-72487433D02*
X216353501Y-72463623D01*
X216353501Y-72463623D02*
X216305882Y-72439814D01*
X216305882Y-72439814D02*
X216210644Y-72416004D01*
X216210644Y-72416004D02*
X216163025Y-72392195D01*
X216163025Y-72392195D02*
X216139215Y-72368385D01*
X216139215Y-72368385D02*
X216115406Y-72320766D01*
X216115406Y-72320766D02*
X216115406Y-72273147D01*
X216115406Y-72273147D02*
X216139215Y-72225528D01*
X216139215Y-72225528D02*
X216163025Y-72201719D01*
X216163025Y-72201719D02*
X216210644Y-72177909D01*
X216210644Y-72177909D02*
X216329691Y-72177909D01*
X216329691Y-72177909D02*
X216401120Y-72201719D01*
X216615405Y-72677909D02*
X216615405Y-72177909D01*
X216615405Y-72177909D02*
X216734453Y-72177909D01*
X216734453Y-72177909D02*
X216805881Y-72201719D01*
X216805881Y-72201719D02*
X216853500Y-72249338D01*
X216853500Y-72249338D02*
X216877310Y-72296957D01*
X216877310Y-72296957D02*
X216901119Y-72392195D01*
X216901119Y-72392195D02*
X216901119Y-72463623D01*
X216901119Y-72463623D02*
X216877310Y-72558861D01*
X216877310Y-72558861D02*
X216853500Y-72606480D01*
X216853500Y-72606480D02*
X216805881Y-72654100D01*
X216805881Y-72654100D02*
X216734453Y-72677909D01*
X216734453Y-72677909D02*
X216615405Y-72677909D01*
X217091596Y-72535052D02*
X217329691Y-72535052D01*
X217043977Y-72677909D02*
X217210643Y-72177909D01*
X217210643Y-72177909D02*
X217377310Y-72677909D01*
X217424929Y-72725528D02*
X217805881Y-72725528D01*
X218163023Y-72677909D02*
X217924928Y-72677909D01*
X217924928Y-72677909D02*
X217924928Y-72177909D01*
X218615404Y-72630290D02*
X218591595Y-72654100D01*
X218591595Y-72654100D02*
X218520166Y-72677909D01*
X218520166Y-72677909D02*
X218472547Y-72677909D01*
X218472547Y-72677909D02*
X218401119Y-72654100D01*
X218401119Y-72654100D02*
X218353500Y-72606480D01*
X218353500Y-72606480D02*
X218329690Y-72558861D01*
X218329690Y-72558861D02*
X218305881Y-72463623D01*
X218305881Y-72463623D02*
X218305881Y-72392195D01*
X218305881Y-72392195D02*
X218329690Y-72296957D01*
X218329690Y-72296957D02*
X218353500Y-72249338D01*
X218353500Y-72249338D02*
X218401119Y-72201719D01*
X218401119Y-72201719D02*
X218472547Y-72177909D01*
X218472547Y-72177909D02*
X218520166Y-72177909D01*
X218520166Y-72177909D02*
X218591595Y-72201719D01*
X218591595Y-72201719D02*
X218615404Y-72225528D01*
X218829690Y-72677909D02*
X218829690Y-72177909D01*
X218829690Y-72177909D02*
X218948738Y-72177909D01*
X218948738Y-72177909D02*
X219020166Y-72201719D01*
X219020166Y-72201719D02*
X219067785Y-72249338D01*
X219067785Y-72249338D02*
X219091595Y-72296957D01*
X219091595Y-72296957D02*
X219115404Y-72392195D01*
X219115404Y-72392195D02*
X219115404Y-72463623D01*
X219115404Y-72463623D02*
X219091595Y-72558861D01*
X219091595Y-72558861D02*
X219067785Y-72606480D01*
X219067785Y-72606480D02*
X219020166Y-72654100D01*
X219020166Y-72654100D02*
X218948738Y-72677909D01*
X218948738Y-72677909D02*
X218829690Y-72677909D01*
D10*
X206828368Y-65218819D02*
X206828368Y-64218819D01*
X206828368Y-64218819D02*
X207066463Y-64218819D01*
X207066463Y-64218819D02*
X207209320Y-64266438D01*
X207209320Y-64266438D02*
X207304558Y-64361676D01*
X207304558Y-64361676D02*
X207352177Y-64456914D01*
X207352177Y-64456914D02*
X207399796Y-64647390D01*
X207399796Y-64647390D02*
X207399796Y-64790247D01*
X207399796Y-64790247D02*
X207352177Y-64980723D01*
X207352177Y-64980723D02*
X207304558Y-65075961D01*
X207304558Y-65075961D02*
X207209320Y-65171200D01*
X207209320Y-65171200D02*
X207066463Y-65218819D01*
X207066463Y-65218819D02*
X206828368Y-65218819D01*
X207971225Y-64647390D02*
X207875987Y-64599771D01*
X207875987Y-64599771D02*
X207828368Y-64552152D01*
X207828368Y-64552152D02*
X207780749Y-64456914D01*
X207780749Y-64456914D02*
X207780749Y-64409295D01*
X207780749Y-64409295D02*
X207828368Y-64314057D01*
X207828368Y-64314057D02*
X207875987Y-64266438D01*
X207875987Y-64266438D02*
X207971225Y-64218819D01*
X207971225Y-64218819D02*
X208161701Y-64218819D01*
X208161701Y-64218819D02*
X208256939Y-64266438D01*
X208256939Y-64266438D02*
X208304558Y-64314057D01*
X208304558Y-64314057D02*
X208352177Y-64409295D01*
X208352177Y-64409295D02*
X208352177Y-64456914D01*
X208352177Y-64456914D02*
X208304558Y-64552152D01*
X208304558Y-64552152D02*
X208256939Y-64599771D01*
X208256939Y-64599771D02*
X208161701Y-64647390D01*
X208161701Y-64647390D02*
X207971225Y-64647390D01*
X207971225Y-64647390D02*
X207875987Y-64695009D01*
X207875987Y-64695009D02*
X207828368Y-64742628D01*
X207828368Y-64742628D02*
X207780749Y-64837866D01*
X207780749Y-64837866D02*
X207780749Y-65028342D01*
X207780749Y-65028342D02*
X207828368Y-65123580D01*
X207828368Y-65123580D02*
X207875987Y-65171200D01*
X207875987Y-65171200D02*
X207971225Y-65218819D01*
X207971225Y-65218819D02*
X208161701Y-65218819D01*
X208161701Y-65218819D02*
X208256939Y-65171200D01*
X208256939Y-65171200D02*
X208304558Y-65123580D01*
X208304558Y-65123580D02*
X208352177Y-65028342D01*
X208352177Y-65028342D02*
X208352177Y-64837866D01*
X208352177Y-64837866D02*
X208304558Y-64742628D01*
X208304558Y-64742628D02*
X208256939Y-64695009D01*
X208256939Y-64695009D02*
X208161701Y-64647390D01*
X219985568Y-52417219D02*
X219985568Y-51417219D01*
X219985568Y-51417219D02*
X220223663Y-51417219D01*
X220223663Y-51417219D02*
X220366520Y-51464838D01*
X220366520Y-51464838D02*
X220461758Y-51560076D01*
X220461758Y-51560076D02*
X220509377Y-51655314D01*
X220509377Y-51655314D02*
X220556996Y-51845790D01*
X220556996Y-51845790D02*
X220556996Y-51988647D01*
X220556996Y-51988647D02*
X220509377Y-52179123D01*
X220509377Y-52179123D02*
X220461758Y-52274361D01*
X220461758Y-52274361D02*
X220366520Y-52369600D01*
X220366520Y-52369600D02*
X220223663Y-52417219D01*
X220223663Y-52417219D02*
X219985568Y-52417219D01*
X221509377Y-52417219D02*
X220937949Y-52417219D01*
X221223663Y-52417219D02*
X221223663Y-51417219D01*
X221223663Y-51417219D02*
X221128425Y-51560076D01*
X221128425Y-51560076D02*
X221033187Y-51655314D01*
X221033187Y-51655314D02*
X220937949Y-51702933D01*
X221890330Y-51512457D02*
X221937949Y-51464838D01*
X221937949Y-51464838D02*
X222033187Y-51417219D01*
X222033187Y-51417219D02*
X222271282Y-51417219D01*
X222271282Y-51417219D02*
X222366520Y-51464838D01*
X222366520Y-51464838D02*
X222414139Y-51512457D01*
X222414139Y-51512457D02*
X222461758Y-51607695D01*
X222461758Y-51607695D02*
X222461758Y-51702933D01*
X222461758Y-51702933D02*
X222414139Y-51845790D01*
X222414139Y-51845790D02*
X221842711Y-52417219D01*
X221842711Y-52417219D02*
X222461758Y-52417219D01*
X206040968Y-72889619D02*
X206040968Y-71889619D01*
X206040968Y-71889619D02*
X206279063Y-71889619D01*
X206279063Y-71889619D02*
X206421920Y-71937238D01*
X206421920Y-71937238D02*
X206517158Y-72032476D01*
X206517158Y-72032476D02*
X206564777Y-72127714D01*
X206564777Y-72127714D02*
X206612396Y-72318190D01*
X206612396Y-72318190D02*
X206612396Y-72461047D01*
X206612396Y-72461047D02*
X206564777Y-72651523D01*
X206564777Y-72651523D02*
X206517158Y-72746761D01*
X206517158Y-72746761D02*
X206421920Y-72842000D01*
X206421920Y-72842000D02*
X206279063Y-72889619D01*
X206279063Y-72889619D02*
X206040968Y-72889619D01*
X207564777Y-72889619D02*
X206993349Y-72889619D01*
X207279063Y-72889619D02*
X207279063Y-71889619D01*
X207279063Y-71889619D02*
X207183825Y-72032476D01*
X207183825Y-72032476D02*
X207088587Y-72127714D01*
X207088587Y-72127714D02*
X206993349Y-72175333D01*
X208517158Y-72889619D02*
X207945730Y-72889619D01*
X208231444Y-72889619D02*
X208231444Y-71889619D01*
X208231444Y-71889619D02*
X208136206Y-72032476D01*
X208136206Y-72032476D02*
X208040968Y-72127714D01*
X208040968Y-72127714D02*
X207945730Y-72175333D01*
X206777568Y-52493419D02*
X206777568Y-51493419D01*
X206777568Y-51493419D02*
X207015663Y-51493419D01*
X207015663Y-51493419D02*
X207158520Y-51541038D01*
X207158520Y-51541038D02*
X207253758Y-51636276D01*
X207253758Y-51636276D02*
X207301377Y-51731514D01*
X207301377Y-51731514D02*
X207348996Y-51921990D01*
X207348996Y-51921990D02*
X207348996Y-52064847D01*
X207348996Y-52064847D02*
X207301377Y-52255323D01*
X207301377Y-52255323D02*
X207253758Y-52350561D01*
X207253758Y-52350561D02*
X207158520Y-52445800D01*
X207158520Y-52445800D02*
X207015663Y-52493419D01*
X207015663Y-52493419D02*
X206777568Y-52493419D01*
X207682330Y-51493419D02*
X208301377Y-51493419D01*
X208301377Y-51493419D02*
X207968044Y-51874371D01*
X207968044Y-51874371D02*
X208110901Y-51874371D01*
X208110901Y-51874371D02*
X208206139Y-51921990D01*
X208206139Y-51921990D02*
X208253758Y-51969609D01*
X208253758Y-51969609D02*
X208301377Y-52064847D01*
X208301377Y-52064847D02*
X208301377Y-52302942D01*
X208301377Y-52302942D02*
X208253758Y-52398180D01*
X208253758Y-52398180D02*
X208206139Y-52445800D01*
X208206139Y-52445800D02*
X208110901Y-52493419D01*
X208110901Y-52493419D02*
X207825187Y-52493419D01*
X207825187Y-52493419D02*
X207729949Y-52445800D01*
X207729949Y-52445800D02*
X207682330Y-52398180D01*
X206879168Y-47413419D02*
X206879168Y-46413419D01*
X206879168Y-46413419D02*
X207117263Y-46413419D01*
X207117263Y-46413419D02*
X207260120Y-46461038D01*
X207260120Y-46461038D02*
X207355358Y-46556276D01*
X207355358Y-46556276D02*
X207402977Y-46651514D01*
X207402977Y-46651514D02*
X207450596Y-46841990D01*
X207450596Y-46841990D02*
X207450596Y-46984847D01*
X207450596Y-46984847D02*
X207402977Y-47175323D01*
X207402977Y-47175323D02*
X207355358Y-47270561D01*
X207355358Y-47270561D02*
X207260120Y-47365800D01*
X207260120Y-47365800D02*
X207117263Y-47413419D01*
X207117263Y-47413419D02*
X206879168Y-47413419D01*
X208402977Y-47413419D02*
X207831549Y-47413419D01*
X208117263Y-47413419D02*
X208117263Y-46413419D01*
X208117263Y-46413419D02*
X208022025Y-46556276D01*
X208022025Y-46556276D02*
X207926787Y-46651514D01*
X207926787Y-46651514D02*
X207831549Y-46699133D01*
D12*
X237514510Y-59160828D02*
X237514510Y-57660828D01*
X237514510Y-57660828D02*
X237871653Y-57660828D01*
X237871653Y-57660828D02*
X238085939Y-57732257D01*
X238085939Y-57732257D02*
X238228796Y-57875114D01*
X238228796Y-57875114D02*
X238300225Y-58017971D01*
X238300225Y-58017971D02*
X238371653Y-58303685D01*
X238371653Y-58303685D02*
X238371653Y-58517971D01*
X238371653Y-58517971D02*
X238300225Y-58803685D01*
X238300225Y-58803685D02*
X238228796Y-58946542D01*
X238228796Y-58946542D02*
X238085939Y-59089400D01*
X238085939Y-59089400D02*
X237871653Y-59160828D01*
X237871653Y-59160828D02*
X237514510Y-59160828D01*
X239871653Y-59160828D02*
X239014510Y-59160828D01*
X239443082Y-59160828D02*
X239443082Y-57660828D01*
X239443082Y-57660828D02*
X239300225Y-57875114D01*
X239300225Y-57875114D02*
X239157368Y-58017971D01*
X239157368Y-58017971D02*
X239014510Y-58089400D01*
X240514511Y-57660828D02*
X241443082Y-57660828D01*
X241443082Y-57660828D02*
X240943082Y-58232257D01*
X240943082Y-58232257D02*
X241157368Y-58232257D01*
X241157368Y-58232257D02*
X241300225Y-58303685D01*
X241300225Y-58303685D02*
X241371654Y-58375114D01*
X241371654Y-58375114D02*
X241443082Y-58517971D01*
X241443082Y-58517971D02*
X241443082Y-58875114D01*
X241443082Y-58875114D02*
X241371654Y-59017971D01*
X241371654Y-59017971D02*
X241300225Y-59089400D01*
X241300225Y-59089400D02*
X241157368Y-59160828D01*
X241157368Y-59160828D02*
X240728797Y-59160828D01*
X240728797Y-59160828D02*
X240585939Y-59089400D01*
X240585939Y-59089400D02*
X240514511Y-59017971D01*
X194194510Y-144410828D02*
X194194510Y-142910828D01*
X194194510Y-142910828D02*
X194551653Y-142910828D01*
X194551653Y-142910828D02*
X194765939Y-142982257D01*
X194765939Y-142982257D02*
X194908796Y-143125114D01*
X194908796Y-143125114D02*
X194980225Y-143267971D01*
X194980225Y-143267971D02*
X195051653Y-143553685D01*
X195051653Y-143553685D02*
X195051653Y-143767971D01*
X195051653Y-143767971D02*
X194980225Y-144053685D01*
X194980225Y-144053685D02*
X194908796Y-144196542D01*
X194908796Y-144196542D02*
X194765939Y-144339400D01*
X194765939Y-144339400D02*
X194551653Y-144410828D01*
X194551653Y-144410828D02*
X194194510Y-144410828D01*
X195908796Y-143553685D02*
X195765939Y-143482257D01*
X195765939Y-143482257D02*
X195694510Y-143410828D01*
X195694510Y-143410828D02*
X195623082Y-143267971D01*
X195623082Y-143267971D02*
X195623082Y-143196542D01*
X195623082Y-143196542D02*
X195694510Y-143053685D01*
X195694510Y-143053685D02*
X195765939Y-142982257D01*
X195765939Y-142982257D02*
X195908796Y-142910828D01*
X195908796Y-142910828D02*
X196194510Y-142910828D01*
X196194510Y-142910828D02*
X196337368Y-142982257D01*
X196337368Y-142982257D02*
X196408796Y-143053685D01*
X196408796Y-143053685D02*
X196480225Y-143196542D01*
X196480225Y-143196542D02*
X196480225Y-143267971D01*
X196480225Y-143267971D02*
X196408796Y-143410828D01*
X196408796Y-143410828D02*
X196337368Y-143482257D01*
X196337368Y-143482257D02*
X196194510Y-143553685D01*
X196194510Y-143553685D02*
X195908796Y-143553685D01*
X195908796Y-143553685D02*
X195765939Y-143625114D01*
X195765939Y-143625114D02*
X195694510Y-143696542D01*
X195694510Y-143696542D02*
X195623082Y-143839400D01*
X195623082Y-143839400D02*
X195623082Y-144125114D01*
X195623082Y-144125114D02*
X195694510Y-144267971D01*
X195694510Y-144267971D02*
X195765939Y-144339400D01*
X195765939Y-144339400D02*
X195908796Y-144410828D01*
X195908796Y-144410828D02*
X196194510Y-144410828D01*
X196194510Y-144410828D02*
X196337368Y-144339400D01*
X196337368Y-144339400D02*
X196408796Y-144267971D01*
X196408796Y-144267971D02*
X196480225Y-144125114D01*
X196480225Y-144125114D02*
X196480225Y-143839400D01*
X196480225Y-143839400D02*
X196408796Y-143696542D01*
X196408796Y-143696542D02*
X196337368Y-143625114D01*
X196337368Y-143625114D02*
X196194510Y-143553685D01*
X232234510Y-122510828D02*
X232234510Y-121010828D01*
X232234510Y-121010828D02*
X232591653Y-121010828D01*
X232591653Y-121010828D02*
X232805939Y-121082257D01*
X232805939Y-121082257D02*
X232948796Y-121225114D01*
X232948796Y-121225114D02*
X233020225Y-121367971D01*
X233020225Y-121367971D02*
X233091653Y-121653685D01*
X233091653Y-121653685D02*
X233091653Y-121867971D01*
X233091653Y-121867971D02*
X233020225Y-122153685D01*
X233020225Y-122153685D02*
X232948796Y-122296542D01*
X232948796Y-122296542D02*
X232805939Y-122439400D01*
X232805939Y-122439400D02*
X232591653Y-122510828D01*
X232591653Y-122510828D02*
X232234510Y-122510828D01*
X234591653Y-122510828D02*
X233734510Y-122510828D01*
X234163082Y-122510828D02*
X234163082Y-121010828D01*
X234163082Y-121010828D02*
X234020225Y-121225114D01*
X234020225Y-121225114D02*
X233877368Y-121367971D01*
X233877368Y-121367971D02*
X233734510Y-121439400D01*
X235663082Y-121010828D02*
X235805939Y-121010828D01*
X235805939Y-121010828D02*
X235948797Y-121082257D01*
X235948797Y-121082257D02*
X236020225Y-121153685D01*
X236020225Y-121153685D02*
X236091654Y-121296542D01*
X236091654Y-121296542D02*
X236163082Y-121582257D01*
X236163082Y-121582257D02*
X236163082Y-121939400D01*
X236163082Y-121939400D02*
X236091654Y-122225114D01*
X236091654Y-122225114D02*
X236020225Y-122367971D01*
X236020225Y-122367971D02*
X235948797Y-122439400D01*
X235948797Y-122439400D02*
X235805939Y-122510828D01*
X235805939Y-122510828D02*
X235663082Y-122510828D01*
X235663082Y-122510828D02*
X235520225Y-122439400D01*
X235520225Y-122439400D02*
X235448797Y-122367971D01*
X235448797Y-122367971D02*
X235377368Y-122225114D01*
X235377368Y-122225114D02*
X235305939Y-121939400D01*
X235305939Y-121939400D02*
X235305939Y-121582257D01*
X235305939Y-121582257D02*
X235377368Y-121296542D01*
X235377368Y-121296542D02*
X235448797Y-121153685D01*
X235448797Y-121153685D02*
X235520225Y-121082257D01*
X235520225Y-121082257D02*
X235663082Y-121010828D01*
X133104510Y-69240828D02*
X133104510Y-67740828D01*
X133104510Y-67740828D02*
X133461653Y-67740828D01*
X133461653Y-67740828D02*
X133675939Y-67812257D01*
X133675939Y-67812257D02*
X133818796Y-67955114D01*
X133818796Y-67955114D02*
X133890225Y-68097971D01*
X133890225Y-68097971D02*
X133961653Y-68383685D01*
X133961653Y-68383685D02*
X133961653Y-68597971D01*
X133961653Y-68597971D02*
X133890225Y-68883685D01*
X133890225Y-68883685D02*
X133818796Y-69026542D01*
X133818796Y-69026542D02*
X133675939Y-69169400D01*
X133675939Y-69169400D02*
X133461653Y-69240828D01*
X133461653Y-69240828D02*
X133104510Y-69240828D01*
X134533082Y-67740828D02*
X135461653Y-67740828D01*
X135461653Y-67740828D02*
X134961653Y-68312257D01*
X134961653Y-68312257D02*
X135175939Y-68312257D01*
X135175939Y-68312257D02*
X135318796Y-68383685D01*
X135318796Y-68383685D02*
X135390225Y-68455114D01*
X135390225Y-68455114D02*
X135461653Y-68597971D01*
X135461653Y-68597971D02*
X135461653Y-68955114D01*
X135461653Y-68955114D02*
X135390225Y-69097971D01*
X135390225Y-69097971D02*
X135318796Y-69169400D01*
X135318796Y-69169400D02*
X135175939Y-69240828D01*
X135175939Y-69240828D02*
X134747368Y-69240828D01*
X134747368Y-69240828D02*
X134604510Y-69169400D01*
X134604510Y-69169400D02*
X134533082Y-69097971D01*
X223134510Y-41390828D02*
X223134510Y-39890828D01*
X223134510Y-39890828D02*
X223491653Y-39890828D01*
X223491653Y-39890828D02*
X223705939Y-39962257D01*
X223705939Y-39962257D02*
X223848796Y-40105114D01*
X223848796Y-40105114D02*
X223920225Y-40247971D01*
X223920225Y-40247971D02*
X223991653Y-40533685D01*
X223991653Y-40533685D02*
X223991653Y-40747971D01*
X223991653Y-40747971D02*
X223920225Y-41033685D01*
X223920225Y-41033685D02*
X223848796Y-41176542D01*
X223848796Y-41176542D02*
X223705939Y-41319400D01*
X223705939Y-41319400D02*
X223491653Y-41390828D01*
X223491653Y-41390828D02*
X223134510Y-41390828D01*
X225491653Y-41390828D02*
X224634510Y-41390828D01*
X225063082Y-41390828D02*
X225063082Y-39890828D01*
X225063082Y-39890828D02*
X224920225Y-40105114D01*
X224920225Y-40105114D02*
X224777368Y-40247971D01*
X224777368Y-40247971D02*
X224634510Y-40319400D01*
X226848797Y-40390828D02*
X226848797Y-41390828D01*
X226491654Y-39819400D02*
X226134511Y-40890828D01*
X226134511Y-40890828D02*
X227063082Y-40890828D01*
X143674510Y-49520828D02*
X143674510Y-48020828D01*
X143674510Y-48020828D02*
X144031653Y-48020828D01*
X144031653Y-48020828D02*
X144245939Y-48092257D01*
X144245939Y-48092257D02*
X144388796Y-48235114D01*
X144388796Y-48235114D02*
X144460225Y-48377971D01*
X144460225Y-48377971D02*
X144531653Y-48663685D01*
X144531653Y-48663685D02*
X144531653Y-48877971D01*
X144531653Y-48877971D02*
X144460225Y-49163685D01*
X144460225Y-49163685D02*
X144388796Y-49306542D01*
X144388796Y-49306542D02*
X144245939Y-49449400D01*
X144245939Y-49449400D02*
X144031653Y-49520828D01*
X144031653Y-49520828D02*
X143674510Y-49520828D01*
X145174510Y-48163685D02*
X145245939Y-48092257D01*
X145245939Y-48092257D02*
X145388796Y-48020828D01*
X145388796Y-48020828D02*
X145745939Y-48020828D01*
X145745939Y-48020828D02*
X145888796Y-48092257D01*
X145888796Y-48092257D02*
X145960225Y-48163685D01*
X145960225Y-48163685D02*
X146031653Y-48306542D01*
X146031653Y-48306542D02*
X146031653Y-48449400D01*
X146031653Y-48449400D02*
X145960225Y-48663685D01*
X145960225Y-48663685D02*
X145103082Y-49520828D01*
X145103082Y-49520828D02*
X146031653Y-49520828D01*
X160524510Y-35870828D02*
X160524510Y-34370828D01*
X160524510Y-34370828D02*
X160881653Y-34370828D01*
X160881653Y-34370828D02*
X161095939Y-34442257D01*
X161095939Y-34442257D02*
X161238796Y-34585114D01*
X161238796Y-34585114D02*
X161310225Y-34727971D01*
X161310225Y-34727971D02*
X161381653Y-35013685D01*
X161381653Y-35013685D02*
X161381653Y-35227971D01*
X161381653Y-35227971D02*
X161310225Y-35513685D01*
X161310225Y-35513685D02*
X161238796Y-35656542D01*
X161238796Y-35656542D02*
X161095939Y-35799400D01*
X161095939Y-35799400D02*
X160881653Y-35870828D01*
X160881653Y-35870828D02*
X160524510Y-35870828D01*
X162881653Y-35870828D02*
X162024510Y-35870828D01*
X162453082Y-35870828D02*
X162453082Y-34370828D01*
X162453082Y-34370828D02*
X162310225Y-34585114D01*
X162310225Y-34585114D02*
X162167368Y-34727971D01*
X162167368Y-34727971D02*
X162024510Y-34799400D01*
X242164510Y-102910828D02*
X242164510Y-101410828D01*
X242164510Y-101410828D02*
X242521653Y-101410828D01*
X242521653Y-101410828D02*
X242735939Y-101482257D01*
X242735939Y-101482257D02*
X242878796Y-101625114D01*
X242878796Y-101625114D02*
X242950225Y-101767971D01*
X242950225Y-101767971D02*
X243021653Y-102053685D01*
X243021653Y-102053685D02*
X243021653Y-102267971D01*
X243021653Y-102267971D02*
X242950225Y-102553685D01*
X242950225Y-102553685D02*
X242878796Y-102696542D01*
X242878796Y-102696542D02*
X242735939Y-102839400D01*
X242735939Y-102839400D02*
X242521653Y-102910828D01*
X242521653Y-102910828D02*
X242164510Y-102910828D01*
X244521653Y-102910828D02*
X243664510Y-102910828D01*
X244093082Y-102910828D02*
X244093082Y-101410828D01*
X244093082Y-101410828D02*
X243950225Y-101625114D01*
X243950225Y-101625114D02*
X243807368Y-101767971D01*
X243807368Y-101767971D02*
X243664510Y-101839400D01*
X246093082Y-102910828D02*
X245235939Y-102910828D01*
X245664511Y-102910828D02*
X245664511Y-101410828D01*
X245664511Y-101410828D02*
X245521654Y-101625114D01*
X245521654Y-101625114D02*
X245378797Y-101767971D01*
X245378797Y-101767971D02*
X245235939Y-101839400D01*
D13*
X202136666Y-133045180D02*
X202136666Y-133807085D01*
X202184285Y-133092800D02*
X202184285Y-133759466D01*
X202231904Y-133092800D02*
X202231904Y-133759466D01*
X202279523Y-133140419D02*
X202279523Y-133711847D01*
X202327142Y-133140419D02*
X202327142Y-133711847D01*
X202374761Y-133188038D02*
X202374761Y-133664228D01*
X202422380Y-133188038D02*
X202422380Y-133664228D01*
X202469999Y-133235657D02*
X202469999Y-133616609D01*
X202517618Y-133283276D02*
X202517618Y-133568990D01*
X202565237Y-133283276D02*
X202565237Y-133568990D01*
X202612856Y-133330895D02*
X202612856Y-133521371D01*
X202660475Y-133330895D02*
X202660475Y-133521371D01*
X202708094Y-133426133D02*
X202755713Y-133426133D01*
X202708094Y-133378514D02*
X202708094Y-133473752D01*
X202089047Y-133045180D02*
X202803332Y-133426133D01*
X202803332Y-133426133D02*
X202089047Y-133807085D01*
X202850951Y-133426133D02*
X202089047Y-133854704D01*
X202089047Y-133854704D02*
X202089047Y-132997561D01*
X202089047Y-132997561D02*
X202850951Y-133426133D01*
D12*
X171884510Y-141830828D02*
X171884510Y-140330828D01*
X171884510Y-140330828D02*
X172241653Y-140330828D01*
X172241653Y-140330828D02*
X172455939Y-140402257D01*
X172455939Y-140402257D02*
X172598796Y-140545114D01*
X172598796Y-140545114D02*
X172670225Y-140687971D01*
X172670225Y-140687971D02*
X172741653Y-140973685D01*
X172741653Y-140973685D02*
X172741653Y-141187971D01*
X172741653Y-141187971D02*
X172670225Y-141473685D01*
X172670225Y-141473685D02*
X172598796Y-141616542D01*
X172598796Y-141616542D02*
X172455939Y-141759400D01*
X172455939Y-141759400D02*
X172241653Y-141830828D01*
X172241653Y-141830828D02*
X171884510Y-141830828D01*
X173313082Y-140330828D02*
X174313082Y-140330828D01*
X174313082Y-140330828D02*
X173670225Y-141830828D01*
D13*
X186263333Y-134024819D02*
X186263333Y-133262914D01*
X186215714Y-133977200D02*
X186215714Y-133310533D01*
X186168095Y-133977200D02*
X186168095Y-133310533D01*
X186120476Y-133929580D02*
X186120476Y-133358152D01*
X186072857Y-133929580D02*
X186072857Y-133358152D01*
X186025238Y-133881961D02*
X186025238Y-133405771D01*
X185977619Y-133881961D02*
X185977619Y-133405771D01*
X185930000Y-133834342D02*
X185930000Y-133453390D01*
X185882381Y-133786723D02*
X185882381Y-133501009D01*
X185834762Y-133786723D02*
X185834762Y-133501009D01*
X185787143Y-133739104D02*
X185787143Y-133548628D01*
X185739524Y-133739104D02*
X185739524Y-133548628D01*
X185691905Y-133643866D02*
X185644286Y-133643866D01*
X185691905Y-133691485D02*
X185691905Y-133596247D01*
X186310953Y-134024819D02*
X185596667Y-133643866D01*
X185596667Y-133643866D02*
X186310953Y-133262914D01*
X185549048Y-133643866D02*
X186310953Y-133215295D01*
X186310953Y-133215295D02*
X186310953Y-134072438D01*
X186310953Y-134072438D02*
X185549048Y-133643866D01*
D12*
X244544510Y-81080828D02*
X244544510Y-79580828D01*
X244544510Y-79580828D02*
X244901653Y-79580828D01*
X244901653Y-79580828D02*
X245115939Y-79652257D01*
X245115939Y-79652257D02*
X245258796Y-79795114D01*
X245258796Y-79795114D02*
X245330225Y-79937971D01*
X245330225Y-79937971D02*
X245401653Y-80223685D01*
X245401653Y-80223685D02*
X245401653Y-80437971D01*
X245401653Y-80437971D02*
X245330225Y-80723685D01*
X245330225Y-80723685D02*
X245258796Y-80866542D01*
X245258796Y-80866542D02*
X245115939Y-81009400D01*
X245115939Y-81009400D02*
X244901653Y-81080828D01*
X244901653Y-81080828D02*
X244544510Y-81080828D01*
X246901653Y-81080828D02*
X246044510Y-81080828D01*
X246473082Y-81080828D02*
X246473082Y-79580828D01*
X246473082Y-79580828D02*
X246330225Y-79795114D01*
X246330225Y-79795114D02*
X246187368Y-79937971D01*
X246187368Y-79937971D02*
X246044510Y-80009400D01*
X247615939Y-79723685D02*
X247687368Y-79652257D01*
X247687368Y-79652257D02*
X247830225Y-79580828D01*
X247830225Y-79580828D02*
X248187368Y-79580828D01*
X248187368Y-79580828D02*
X248330225Y-79652257D01*
X248330225Y-79652257D02*
X248401654Y-79723685D01*
X248401654Y-79723685D02*
X248473082Y-79866542D01*
X248473082Y-79866542D02*
X248473082Y-80009400D01*
X248473082Y-80009400D02*
X248401654Y-80223685D01*
X248401654Y-80223685D02*
X247544511Y-81080828D01*
X247544511Y-81080828D02*
X248473082Y-81080828D01*
X216274510Y-137460828D02*
X216274510Y-135960828D01*
X216274510Y-135960828D02*
X216631653Y-135960828D01*
X216631653Y-135960828D02*
X216845939Y-136032257D01*
X216845939Y-136032257D02*
X216988796Y-136175114D01*
X216988796Y-136175114D02*
X217060225Y-136317971D01*
X217060225Y-136317971D02*
X217131653Y-136603685D01*
X217131653Y-136603685D02*
X217131653Y-136817971D01*
X217131653Y-136817971D02*
X217060225Y-137103685D01*
X217060225Y-137103685D02*
X216988796Y-137246542D01*
X216988796Y-137246542D02*
X216845939Y-137389400D01*
X216845939Y-137389400D02*
X216631653Y-137460828D01*
X216631653Y-137460828D02*
X216274510Y-137460828D01*
X217845939Y-137389400D02*
X218131653Y-137389400D01*
X218131653Y-137389400D02*
X218274510Y-137317971D01*
X218274510Y-137317971D02*
X218345939Y-137246542D01*
X218345939Y-137246542D02*
X218488796Y-137032257D01*
X218488796Y-137032257D02*
X218560225Y-136746542D01*
X218560225Y-136746542D02*
X218560225Y-136175114D01*
X218560225Y-136175114D02*
X218488796Y-136032257D01*
X218488796Y-136032257D02*
X218417368Y-135960828D01*
X218417368Y-135960828D02*
X218274510Y-135889400D01*
X218274510Y-135889400D02*
X217988796Y-135889400D01*
X217988796Y-135889400D02*
X217845939Y-135960828D01*
X217845939Y-135960828D02*
X217774510Y-136032257D01*
X217774510Y-136032257D02*
X217703082Y-136175114D01*
X217703082Y-136175114D02*
X217703082Y-136532257D01*
X217703082Y-136532257D02*
X217774510Y-136675114D01*
X217774510Y-136675114D02*
X217845939Y-136746542D01*
X217845939Y-136746542D02*
X217988796Y-136817971D01*
X217988796Y-136817971D02*
X218274510Y-136817971D01*
X218274510Y-136817971D02*
X218417368Y-136746542D01*
X218417368Y-136746542D02*
X218488796Y-136675114D01*
X218488796Y-136675114D02*
X218560225Y-136532257D01*
X130754510Y-91450828D02*
X130754510Y-89950828D01*
X130754510Y-89950828D02*
X131111653Y-89950828D01*
X131111653Y-89950828D02*
X131325939Y-90022257D01*
X131325939Y-90022257D02*
X131468796Y-90165114D01*
X131468796Y-90165114D02*
X131540225Y-90307971D01*
X131540225Y-90307971D02*
X131611653Y-90593685D01*
X131611653Y-90593685D02*
X131611653Y-90807971D01*
X131611653Y-90807971D02*
X131540225Y-91093685D01*
X131540225Y-91093685D02*
X131468796Y-91236542D01*
X131468796Y-91236542D02*
X131325939Y-91379400D01*
X131325939Y-91379400D02*
X131111653Y-91450828D01*
X131111653Y-91450828D02*
X130754510Y-91450828D01*
X132897368Y-90450828D02*
X132897368Y-91450828D01*
X132540225Y-89879400D02*
X132183082Y-90950828D01*
X132183082Y-90950828D02*
X133111653Y-90950828D01*
X137534510Y-113330828D02*
X137534510Y-111830828D01*
X137534510Y-111830828D02*
X137891653Y-111830828D01*
X137891653Y-111830828D02*
X138105939Y-111902257D01*
X138105939Y-111902257D02*
X138248796Y-112045114D01*
X138248796Y-112045114D02*
X138320225Y-112187971D01*
X138320225Y-112187971D02*
X138391653Y-112473685D01*
X138391653Y-112473685D02*
X138391653Y-112687971D01*
X138391653Y-112687971D02*
X138320225Y-112973685D01*
X138320225Y-112973685D02*
X138248796Y-113116542D01*
X138248796Y-113116542D02*
X138105939Y-113259400D01*
X138105939Y-113259400D02*
X137891653Y-113330828D01*
X137891653Y-113330828D02*
X137534510Y-113330828D01*
X139820225Y-111830828D02*
X139105939Y-111830828D01*
X139105939Y-111830828D02*
X139034510Y-112545114D01*
X139034510Y-112545114D02*
X139105939Y-112473685D01*
X139105939Y-112473685D02*
X139248796Y-112402257D01*
X139248796Y-112402257D02*
X139605939Y-112402257D01*
X139605939Y-112402257D02*
X139748796Y-112473685D01*
X139748796Y-112473685D02*
X139820225Y-112545114D01*
X139820225Y-112545114D02*
X139891653Y-112687971D01*
X139891653Y-112687971D02*
X139891653Y-113045114D01*
X139891653Y-113045114D02*
X139820225Y-113187971D01*
X139820225Y-113187971D02*
X139748796Y-113259400D01*
X139748796Y-113259400D02*
X139605939Y-113330828D01*
X139605939Y-113330828D02*
X139248796Y-113330828D01*
X139248796Y-113330828D02*
X139105939Y-113259400D01*
X139105939Y-113259400D02*
X139034510Y-113187971D01*
X152114510Y-130850828D02*
X152114510Y-129350828D01*
X152114510Y-129350828D02*
X152471653Y-129350828D01*
X152471653Y-129350828D02*
X152685939Y-129422257D01*
X152685939Y-129422257D02*
X152828796Y-129565114D01*
X152828796Y-129565114D02*
X152900225Y-129707971D01*
X152900225Y-129707971D02*
X152971653Y-129993685D01*
X152971653Y-129993685D02*
X152971653Y-130207971D01*
X152971653Y-130207971D02*
X152900225Y-130493685D01*
X152900225Y-130493685D02*
X152828796Y-130636542D01*
X152828796Y-130636542D02*
X152685939Y-130779400D01*
X152685939Y-130779400D02*
X152471653Y-130850828D01*
X152471653Y-130850828D02*
X152114510Y-130850828D01*
X154328796Y-129350828D02*
X154043082Y-129350828D01*
X154043082Y-129350828D02*
X153900225Y-129422257D01*
X153900225Y-129422257D02*
X153828796Y-129493685D01*
X153828796Y-129493685D02*
X153685939Y-129707971D01*
X153685939Y-129707971D02*
X153614510Y-129993685D01*
X153614510Y-129993685D02*
X153614510Y-130565114D01*
X153614510Y-130565114D02*
X153685939Y-130707971D01*
X153685939Y-130707971D02*
X153757368Y-130779400D01*
X153757368Y-130779400D02*
X153900225Y-130850828D01*
X153900225Y-130850828D02*
X154185939Y-130850828D01*
X154185939Y-130850828D02*
X154328796Y-130779400D01*
X154328796Y-130779400D02*
X154400225Y-130707971D01*
X154400225Y-130707971D02*
X154471653Y-130565114D01*
X154471653Y-130565114D02*
X154471653Y-130207971D01*
X154471653Y-130207971D02*
X154400225Y-130065114D01*
X154400225Y-130065114D02*
X154328796Y-129993685D01*
X154328796Y-129993685D02*
X154185939Y-129922257D01*
X154185939Y-129922257D02*
X153900225Y-129922257D01*
X153900225Y-129922257D02*
X153757368Y-129993685D01*
X153757368Y-129993685D02*
X153685939Y-130065114D01*
X153685939Y-130065114D02*
X153614510Y-130207971D01*
X182744510Y-28670828D02*
X182744510Y-27170828D01*
X182744510Y-27170828D02*
X183101653Y-27170828D01*
X183101653Y-27170828D02*
X183315939Y-27242257D01*
X183315939Y-27242257D02*
X183458796Y-27385114D01*
X183458796Y-27385114D02*
X183530225Y-27527971D01*
X183530225Y-27527971D02*
X183601653Y-27813685D01*
X183601653Y-27813685D02*
X183601653Y-28027971D01*
X183601653Y-28027971D02*
X183530225Y-28313685D01*
X183530225Y-28313685D02*
X183458796Y-28456542D01*
X183458796Y-28456542D02*
X183315939Y-28599400D01*
X183315939Y-28599400D02*
X183101653Y-28670828D01*
X183101653Y-28670828D02*
X182744510Y-28670828D01*
X184601653Y-27170828D02*
X184744510Y-27170828D01*
X184744510Y-27170828D02*
X184887368Y-27242257D01*
X184887368Y-27242257D02*
X184958796Y-27313685D01*
X184958796Y-27313685D02*
X185030225Y-27456542D01*
X185030225Y-27456542D02*
X185101653Y-27742257D01*
X185101653Y-27742257D02*
X185101653Y-28099400D01*
X185101653Y-28099400D02*
X185030225Y-28385114D01*
X185030225Y-28385114D02*
X184958796Y-28527971D01*
X184958796Y-28527971D02*
X184887368Y-28599400D01*
X184887368Y-28599400D02*
X184744510Y-28670828D01*
X184744510Y-28670828D02*
X184601653Y-28670828D01*
X184601653Y-28670828D02*
X184458796Y-28599400D01*
X184458796Y-28599400D02*
X184387368Y-28527971D01*
X184387368Y-28527971D02*
X184315939Y-28385114D01*
X184315939Y-28385114D02*
X184244510Y-28099400D01*
X184244510Y-28099400D02*
X184244510Y-27742257D01*
X184244510Y-27742257D02*
X184315939Y-27456542D01*
X184315939Y-27456542D02*
X184387368Y-27313685D01*
X184387368Y-27313685D02*
X184458796Y-27242257D01*
X184458796Y-27242257D02*
X184601653Y-27170828D01*
X203214510Y-30480828D02*
X203214510Y-28980828D01*
X203214510Y-28980828D02*
X203571653Y-28980828D01*
X203571653Y-28980828D02*
X203785939Y-29052257D01*
X203785939Y-29052257D02*
X203928796Y-29195114D01*
X203928796Y-29195114D02*
X204000225Y-29337971D01*
X204000225Y-29337971D02*
X204071653Y-29623685D01*
X204071653Y-29623685D02*
X204071653Y-29837971D01*
X204071653Y-29837971D02*
X204000225Y-30123685D01*
X204000225Y-30123685D02*
X203928796Y-30266542D01*
X203928796Y-30266542D02*
X203785939Y-30409400D01*
X203785939Y-30409400D02*
X203571653Y-30480828D01*
X203571653Y-30480828D02*
X203214510Y-30480828D01*
X205571653Y-30480828D02*
X204714510Y-30480828D01*
X205143082Y-30480828D02*
X205143082Y-28980828D01*
X205143082Y-28980828D02*
X205000225Y-29195114D01*
X205000225Y-29195114D02*
X204857368Y-29337971D01*
X204857368Y-29337971D02*
X204714510Y-29409400D01*
X207071654Y-28980828D02*
X206357368Y-28980828D01*
X206357368Y-28980828D02*
X206285939Y-29695114D01*
X206285939Y-29695114D02*
X206357368Y-29623685D01*
X206357368Y-29623685D02*
X206500225Y-29552257D01*
X206500225Y-29552257D02*
X206857368Y-29552257D01*
X206857368Y-29552257D02*
X207000225Y-29623685D01*
X207000225Y-29623685D02*
X207071654Y-29695114D01*
X207071654Y-29695114D02*
X207143082Y-29837971D01*
X207143082Y-29837971D02*
X207143082Y-30195114D01*
X207143082Y-30195114D02*
X207071654Y-30337971D01*
X207071654Y-30337971D02*
X207000225Y-30409400D01*
X207000225Y-30409400D02*
X206857368Y-30480828D01*
X206857368Y-30480828D02*
X206500225Y-30480828D01*
X206500225Y-30480828D02*
X206357368Y-30409400D01*
X206357368Y-30409400D02*
X206285939Y-30337971D01*
D13*
X192119523Y-133641009D02*
X192452856Y-133641009D01*
X192595713Y-134164819D02*
X192119523Y-134164819D01*
X192119523Y-134164819D02*
X192119523Y-133164819D01*
X192119523Y-133164819D02*
X192595713Y-133164819D01*
X193024285Y-133498152D02*
X193024285Y-134164819D01*
X193024285Y-133593390D02*
X193071904Y-133545771D01*
X193071904Y-133545771D02*
X193167142Y-133498152D01*
X193167142Y-133498152D02*
X193309999Y-133498152D01*
X193309999Y-133498152D02*
X193405237Y-133545771D01*
X193405237Y-133545771D02*
X193452856Y-133641009D01*
X193452856Y-133641009D02*
X193452856Y-134164819D01*
X193786190Y-133498152D02*
X194167142Y-133498152D01*
X193929047Y-133164819D02*
X193929047Y-134021961D01*
X193929047Y-134021961D02*
X193976666Y-134117200D01*
X193976666Y-134117200D02*
X194071904Y-134164819D01*
X194071904Y-134164819D02*
X194167142Y-134164819D01*
X194881428Y-134117200D02*
X194786190Y-134164819D01*
X194786190Y-134164819D02*
X194595714Y-134164819D01*
X194595714Y-134164819D02*
X194500476Y-134117200D01*
X194500476Y-134117200D02*
X194452857Y-134021961D01*
X194452857Y-134021961D02*
X194452857Y-133641009D01*
X194452857Y-133641009D02*
X194500476Y-133545771D01*
X194500476Y-133545771D02*
X194595714Y-133498152D01*
X194595714Y-133498152D02*
X194786190Y-133498152D01*
X194786190Y-133498152D02*
X194881428Y-133545771D01*
X194881428Y-133545771D02*
X194929047Y-133641009D01*
X194929047Y-133641009D02*
X194929047Y-133736247D01*
X194929047Y-133736247D02*
X194452857Y-133831485D01*
X195357619Y-134164819D02*
X195357619Y-133498152D01*
X195357619Y-133688628D02*
X195405238Y-133593390D01*
X195405238Y-133593390D02*
X195452857Y-133545771D01*
X195452857Y-133545771D02*
X195548095Y-133498152D01*
X195548095Y-133498152D02*
X195643333Y-133498152D01*
X207831904Y-83709580D02*
X207784285Y-83757200D01*
X207784285Y-83757200D02*
X207641428Y-83804819D01*
X207641428Y-83804819D02*
X207546190Y-83804819D01*
X207546190Y-83804819D02*
X207403333Y-83757200D01*
X207403333Y-83757200D02*
X207308095Y-83661961D01*
X207308095Y-83661961D02*
X207260476Y-83566723D01*
X207260476Y-83566723D02*
X207212857Y-83376247D01*
X207212857Y-83376247D02*
X207212857Y-83233390D01*
X207212857Y-83233390D02*
X207260476Y-83042914D01*
X207260476Y-83042914D02*
X207308095Y-82947676D01*
X207308095Y-82947676D02*
X207403333Y-82852438D01*
X207403333Y-82852438D02*
X207546190Y-82804819D01*
X207546190Y-82804819D02*
X207641428Y-82804819D01*
X207641428Y-82804819D02*
X207784285Y-82852438D01*
X207784285Y-82852438D02*
X207831904Y-82900057D01*
X208689047Y-83804819D02*
X208689047Y-83281009D01*
X208689047Y-83281009D02*
X208641428Y-83185771D01*
X208641428Y-83185771D02*
X208546190Y-83138152D01*
X208546190Y-83138152D02*
X208355714Y-83138152D01*
X208355714Y-83138152D02*
X208260476Y-83185771D01*
X208689047Y-83757200D02*
X208593809Y-83804819D01*
X208593809Y-83804819D02*
X208355714Y-83804819D01*
X208355714Y-83804819D02*
X208260476Y-83757200D01*
X208260476Y-83757200D02*
X208212857Y-83661961D01*
X208212857Y-83661961D02*
X208212857Y-83566723D01*
X208212857Y-83566723D02*
X208260476Y-83471485D01*
X208260476Y-83471485D02*
X208355714Y-83423866D01*
X208355714Y-83423866D02*
X208593809Y-83423866D01*
X208593809Y-83423866D02*
X208689047Y-83376247D01*
X209165238Y-83804819D02*
X209165238Y-83138152D01*
X209165238Y-83233390D02*
X209212857Y-83185771D01*
X209212857Y-83185771D02*
X209308095Y-83138152D01*
X209308095Y-83138152D02*
X209450952Y-83138152D01*
X209450952Y-83138152D02*
X209546190Y-83185771D01*
X209546190Y-83185771D02*
X209593809Y-83281009D01*
X209593809Y-83281009D02*
X209593809Y-83804819D01*
X209593809Y-83281009D02*
X209641428Y-83185771D01*
X209641428Y-83185771D02*
X209736666Y-83138152D01*
X209736666Y-83138152D02*
X209879523Y-83138152D01*
X209879523Y-83138152D02*
X209974762Y-83185771D01*
X209974762Y-83185771D02*
X210022381Y-83281009D01*
X210022381Y-83281009D02*
X210022381Y-83804819D01*
X210879523Y-83757200D02*
X210784285Y-83804819D01*
X210784285Y-83804819D02*
X210593809Y-83804819D01*
X210593809Y-83804819D02*
X210498571Y-83757200D01*
X210498571Y-83757200D02*
X210450952Y-83661961D01*
X210450952Y-83661961D02*
X210450952Y-83281009D01*
X210450952Y-83281009D02*
X210498571Y-83185771D01*
X210498571Y-83185771D02*
X210593809Y-83138152D01*
X210593809Y-83138152D02*
X210784285Y-83138152D01*
X210784285Y-83138152D02*
X210879523Y-83185771D01*
X210879523Y-83185771D02*
X210927142Y-83281009D01*
X210927142Y-83281009D02*
X210927142Y-83376247D01*
X210927142Y-83376247D02*
X210450952Y-83471485D01*
X211355714Y-83804819D02*
X211355714Y-83138152D01*
X211355714Y-83328628D02*
X211403333Y-83233390D01*
X211403333Y-83233390D02*
X211450952Y-83185771D01*
X211450952Y-83185771D02*
X211546190Y-83138152D01*
X211546190Y-83138152D02*
X211641428Y-83138152D01*
X212403333Y-83804819D02*
X212403333Y-83281009D01*
X212403333Y-83281009D02*
X212355714Y-83185771D01*
X212355714Y-83185771D02*
X212260476Y-83138152D01*
X212260476Y-83138152D02*
X212070000Y-83138152D01*
X212070000Y-83138152D02*
X211974762Y-83185771D01*
X212403333Y-83757200D02*
X212308095Y-83804819D01*
X212308095Y-83804819D02*
X212070000Y-83804819D01*
X212070000Y-83804819D02*
X211974762Y-83757200D01*
X211974762Y-83757200D02*
X211927143Y-83661961D01*
X211927143Y-83661961D02*
X211927143Y-83566723D01*
X211927143Y-83566723D02*
X211974762Y-83471485D01*
X211974762Y-83471485D02*
X212070000Y-83423866D01*
X212070000Y-83423866D02*
X212308095Y-83423866D01*
X212308095Y-83423866D02*
X212403333Y-83376247D01*
X212641429Y-83900057D02*
X213403333Y-83900057D01*
X214212857Y-83804819D02*
X213879524Y-83328628D01*
X213641429Y-83804819D02*
X213641429Y-82804819D01*
X213641429Y-82804819D02*
X214022381Y-82804819D01*
X214022381Y-82804819D02*
X214117619Y-82852438D01*
X214117619Y-82852438D02*
X214165238Y-82900057D01*
X214165238Y-82900057D02*
X214212857Y-82995295D01*
X214212857Y-82995295D02*
X214212857Y-83138152D01*
X214212857Y-83138152D02*
X214165238Y-83233390D01*
X214165238Y-83233390D02*
X214117619Y-83281009D01*
X214117619Y-83281009D02*
X214022381Y-83328628D01*
X214022381Y-83328628D02*
X213641429Y-83328628D01*
X214593810Y-83757200D02*
X214736667Y-83804819D01*
X214736667Y-83804819D02*
X214974762Y-83804819D01*
X214974762Y-83804819D02*
X215070000Y-83757200D01*
X215070000Y-83757200D02*
X215117619Y-83709580D01*
X215117619Y-83709580D02*
X215165238Y-83614342D01*
X215165238Y-83614342D02*
X215165238Y-83519104D01*
X215165238Y-83519104D02*
X215117619Y-83423866D01*
X215117619Y-83423866D02*
X215070000Y-83376247D01*
X215070000Y-83376247D02*
X214974762Y-83328628D01*
X214974762Y-83328628D02*
X214784286Y-83281009D01*
X214784286Y-83281009D02*
X214689048Y-83233390D01*
X214689048Y-83233390D02*
X214641429Y-83185771D01*
X214641429Y-83185771D02*
X214593810Y-83090533D01*
X214593810Y-83090533D02*
X214593810Y-82995295D01*
X214593810Y-82995295D02*
X214641429Y-82900057D01*
X214641429Y-82900057D02*
X214689048Y-82852438D01*
X214689048Y-82852438D02*
X214784286Y-82804819D01*
X214784286Y-82804819D02*
X215022381Y-82804819D01*
X215022381Y-82804819D02*
X215165238Y-82852438D01*
X215450953Y-82804819D02*
X216022381Y-82804819D01*
X215736667Y-83804819D02*
X215736667Y-82804819D01*
D14*
%TO.C,R1*%
X155840835Y-44600282D02*
X155519718Y-44279165D01*
X156880282Y-43560835D02*
X156559165Y-43239718D01*
%TO.C,C16*%
X210126631Y-39017124D02*
X209927376Y-38934590D01*
X210402164Y-38351930D02*
X210202909Y-38269396D01*
%TO.C,J1*%
X177860000Y-109080000D02*
X177860000Y-110410000D01*
X176530000Y-109080000D02*
X177860000Y-109080000D01*
X175260000Y-109080000D02*
X167580000Y-109080000D01*
X175260000Y-109080000D02*
X175260000Y-111740000D01*
X167580000Y-109080000D02*
X167580000Y-111740000D01*
X175260000Y-111740000D02*
X167580000Y-111740000D01*
%TO.C,R15*%
X228037174Y-50566578D02*
X228358291Y-50245461D01*
X229076621Y-51606025D02*
X229397738Y-51284908D01*
%TO.C,C15*%
X226403687Y-50464594D02*
X226251184Y-50312091D01*
X226912804Y-49955477D02*
X226760301Y-49802974D01*
%TO.C,C11*%
X188212164Y-137350000D02*
X188427836Y-137350000D01*
X188212164Y-138070000D02*
X188427836Y-138070000D01*
%TO.C,C6*%
X141919032Y-104042363D02*
X142001566Y-104241618D01*
X141253838Y-104317896D02*
X141336372Y-104517151D01*
%TO.C,R10*%
X237121493Y-107964055D02*
X237541052Y-108137842D01*
X236558948Y-109322158D02*
X236978507Y-109495945D01*
%TO.C,Camera_RST*%
X210780000Y-93020000D02*
X212280000Y-93020000D01*
X214780000Y-91770000D02*
X214780000Y-87270000D01*
X208280000Y-87270000D02*
X208280000Y-91770000D01*
X212280000Y-86020000D02*
X210780000Y-86020000D01*
%TO.C,C14*%
X237060968Y-67269637D02*
X236978434Y-67070382D01*
X237726162Y-66994104D02*
X237643628Y-66794849D01*
%TO.C,R7*%
X148020282Y-118499165D02*
X147699165Y-118820282D01*
X146980835Y-117459718D02*
X146659718Y-117780835D01*
%TO.C,R6*%
X140448915Y-103323035D02*
X140029356Y-103496822D01*
X139886370Y-101964932D02*
X139466811Y-102138719D01*
%TO.C,R13*%
X241558938Y-88100998D02*
X242013066Y-88100998D01*
X241558938Y-89570998D02*
X242013066Y-89570998D01*
%TO.C,C9*%
X223749779Y-124871104D02*
X223902282Y-124718601D01*
X224258896Y-125380221D02*
X224411399Y-125227718D01*
%TO.C,R5*%
X137421064Y-83211001D02*
X136966936Y-83211001D01*
X137421064Y-81741001D02*
X136966936Y-81741001D01*
%TO.C,R3*%
X191935000Y-33107064D02*
X191935000Y-32652936D01*
X193405000Y-33107064D02*
X193405000Y-32652936D01*
%TO.C,R14*%
X238531086Y-67988964D02*
X238950645Y-67815177D01*
X239093631Y-69347067D02*
X239513190Y-69173280D01*
%TO.C,R2*%
X142320236Y-63471196D02*
X141900677Y-63297409D01*
X142882781Y-62113093D02*
X142463222Y-61939306D01*
%TO.C,C2*%
X142851124Y-65019368D02*
X142768590Y-65218623D01*
X142185930Y-64743835D02*
X142103396Y-64943090D01*
%TO.C,C1*%
X155791399Y-46247718D02*
X155638896Y-46400221D01*
X155282282Y-45738601D02*
X155129779Y-45891104D01*
%TO.C,SW2*%
X193330000Y-130930000D02*
X194830000Y-130930000D01*
X197330000Y-129680000D02*
X197330000Y-125180000D01*
X190830000Y-125180000D02*
X190830000Y-129680000D01*
X194830000Y-123930000D02*
X193330000Y-123930000D01*
%TO.C,R11*%
X187045000Y-138375436D02*
X187045000Y-138829564D01*
X185575000Y-138375436D02*
X185575000Y-138829564D01*
%TO.C,R16*%
X211674805Y-38486236D02*
X211848592Y-38066677D01*
X213032908Y-39048781D02*
X213206695Y-38629222D01*
%TO.C,C12*%
X207876363Y-133226968D02*
X208075618Y-133144434D01*
X208151896Y-133892162D02*
X208351151Y-133809628D01*
%TO.C,SW5*%
X215000000Y-103360000D02*
X215000000Y-104690000D01*
X213670000Y-103360000D02*
X215000000Y-103360000D01*
X212400000Y-103360000D02*
X209800000Y-103360000D01*
X212400000Y-103360000D02*
X212400000Y-106020000D01*
X209800000Y-103360000D02*
X209800000Y-106020000D01*
X212400000Y-106020000D02*
X209800000Y-106020000D01*
%TO.C,J2*%
X208973800Y-43026600D02*
X210303800Y-43026600D01*
X208973800Y-44356600D02*
X208973800Y-43026600D01*
X208973800Y-45626600D02*
X208973800Y-76166600D01*
X208973800Y-45626600D02*
X211573800Y-45626600D01*
X208973800Y-76166600D02*
X214173800Y-76166600D01*
X211573800Y-43026600D02*
X214173800Y-43026600D01*
X211573800Y-45626600D02*
X211573800Y-43026600D01*
X214173800Y-43026600D02*
X214173800Y-76166600D01*
%TO.C,R9*%
X223714400Y-126444953D02*
X224035517Y-126766070D01*
X222674953Y-127484400D02*
X222996070Y-127805517D01*
%TO.C,R12*%
X207157036Y-134697086D02*
X207330823Y-135116645D01*
X205798933Y-135259631D02*
X205972720Y-135679190D01*
%TO.C,C10*%
X236446136Y-106461861D02*
X236528670Y-106262606D01*
X237111330Y-106737394D02*
X237193864Y-106538139D01*
%TO.C,R8*%
X167305197Y-132825765D02*
X167131410Y-133245324D01*
X165947094Y-132263220D02*
X165773307Y-132682779D01*
%TO.C,R4*%
X171822966Y-36614915D02*
X171649179Y-36195356D01*
X173181069Y-36052370D02*
X173007282Y-35632811D01*
%TO.C,C5*%
X138503999Y-84438163D02*
X138503999Y-84653835D01*
X137783999Y-84438163D02*
X137783999Y-84653835D01*
%TO.C,C7*%
X149698307Y-118619190D02*
X149850810Y-118771693D01*
X149189190Y-119128307D02*
X149341693Y-119280810D01*
%TO.C,C4*%
X171103637Y-38085033D02*
X170904382Y-38167567D01*
X170828104Y-37419839D02*
X170628849Y-37502373D01*
%TO.C,C13*%
X240476001Y-86873837D02*
X240476001Y-86658165D01*
X241196001Y-86873837D02*
X241196001Y-86658165D01*
%TO.C,C3*%
X190747836Y-34170000D02*
X190532164Y-34170000D01*
X190747836Y-33450000D02*
X190532164Y-33450000D01*
%TO.C,SW1*%
X185100000Y-130970000D02*
X186600000Y-130970000D01*
X189100000Y-129720000D02*
X189100000Y-125220000D01*
X182600000Y-125220000D02*
X182600000Y-129720000D01*
X186600000Y-123970000D02*
X185100000Y-123970000D01*
%TO.C,C8*%
X168853368Y-132294876D02*
X169052623Y-132377410D01*
X168577835Y-132960070D02*
X168777090Y-133042604D01*
%TO.C,SW3*%
X201520000Y-130900000D02*
X203020000Y-130900000D01*
X205520000Y-129650000D02*
X205520000Y-125150000D01*
X199020000Y-125150000D02*
X199020000Y-129650000D01*
X203020000Y-123900000D02*
X201520000Y-123900000D01*
%TD*%
M02*
