%TF.GenerationSoftware,KiCad,Pcbnew,7.0.9*%
%TF.CreationDate,2024-12-18T22:21:06+09:00*%
%TF.ProjectId,IR_Bored_ESP32,49525f42-6f72-4656-945f-45535033322e,rev?*%
%TF.SameCoordinates,Original*%
%TF.FileFunction,Legend,Bot*%
%TF.FilePolarity,Positive*%
%FSLAX46Y46*%
G04 Gerber Fmt 4.6, Leading zero omitted, Abs format (unit mm)*
G04 Created by KiCad (PCBNEW 7.0.9) date 2024-12-18 22:21:06*
%MOMM*%
%LPD*%
G01*
G04 APERTURE LIST*
%ADD10C,0.125000*%
%ADD11C,0.120000*%
G04 APERTURE END LIST*
D10*
X218510211Y-62314709D02*
X218795925Y-62314709D01*
X218653068Y-62314709D02*
X218653068Y-61814709D01*
X218653068Y-61814709D02*
X218700687Y-61886138D01*
X218700687Y-61886138D02*
X218748306Y-61933757D01*
X218748306Y-61933757D02*
X218795925Y-61957566D01*
X218200688Y-61814709D02*
X218153069Y-61814709D01*
X218153069Y-61814709D02*
X218105450Y-61838519D01*
X218105450Y-61838519D02*
X218081640Y-61862328D01*
X218081640Y-61862328D02*
X218057831Y-61909947D01*
X218057831Y-61909947D02*
X218034021Y-62005185D01*
X218034021Y-62005185D02*
X218034021Y-62124233D01*
X218034021Y-62124233D02*
X218057831Y-62219471D01*
X218057831Y-62219471D02*
X218081640Y-62267090D01*
X218081640Y-62267090D02*
X218105450Y-62290900D01*
X218105450Y-62290900D02*
X218153069Y-62314709D01*
X218153069Y-62314709D02*
X218200688Y-62314709D01*
X218200688Y-62314709D02*
X218248307Y-62290900D01*
X218248307Y-62290900D02*
X218272116Y-62267090D01*
X218272116Y-62267090D02*
X218295926Y-62219471D01*
X218295926Y-62219471D02*
X218319735Y-62124233D01*
X218319735Y-62124233D02*
X218319735Y-62005185D01*
X218319735Y-62005185D02*
X218295926Y-61909947D01*
X218295926Y-61909947D02*
X218272116Y-61862328D01*
X218272116Y-61862328D02*
X218248307Y-61838519D01*
X218248307Y-61838519D02*
X218200688Y-61814709D01*
X217938784Y-62362328D02*
X217557831Y-62362328D01*
X217200689Y-62314709D02*
X217438784Y-62314709D01*
X217438784Y-62314709D02*
X217438784Y-61814709D01*
X216748308Y-62267090D02*
X216772117Y-62290900D01*
X216772117Y-62290900D02*
X216843546Y-62314709D01*
X216843546Y-62314709D02*
X216891165Y-62314709D01*
X216891165Y-62314709D02*
X216962593Y-62290900D01*
X216962593Y-62290900D02*
X217010212Y-62243280D01*
X217010212Y-62243280D02*
X217034022Y-62195661D01*
X217034022Y-62195661D02*
X217057831Y-62100423D01*
X217057831Y-62100423D02*
X217057831Y-62028995D01*
X217057831Y-62028995D02*
X217034022Y-61933757D01*
X217034022Y-61933757D02*
X217010212Y-61886138D01*
X217010212Y-61886138D02*
X216962593Y-61838519D01*
X216962593Y-61838519D02*
X216891165Y-61814709D01*
X216891165Y-61814709D02*
X216843546Y-61814709D01*
X216843546Y-61814709D02*
X216772117Y-61838519D01*
X216772117Y-61838519D02*
X216748308Y-61862328D01*
X216534022Y-62314709D02*
X216534022Y-61814709D01*
X216534022Y-61814709D02*
X216414974Y-61814709D01*
X216414974Y-61814709D02*
X216343546Y-61838519D01*
X216343546Y-61838519D02*
X216295927Y-61886138D01*
X216295927Y-61886138D02*
X216272117Y-61933757D01*
X216272117Y-61933757D02*
X216248308Y-62028995D01*
X216248308Y-62028995D02*
X216248308Y-62100423D01*
X216248308Y-62100423D02*
X216272117Y-62195661D01*
X216272117Y-62195661D02*
X216295927Y-62243280D01*
X216295927Y-62243280D02*
X216343546Y-62290900D01*
X216343546Y-62290900D02*
X216414974Y-62314709D01*
X216414974Y-62314709D02*
X216534022Y-62314709D01*
X216153070Y-62362328D02*
X215772117Y-62362328D01*
X215581641Y-62314709D02*
X215629260Y-62290900D01*
X215629260Y-62290900D02*
X215653070Y-62243280D01*
X215653070Y-62243280D02*
X215653070Y-61814709D01*
X215200689Y-62290900D02*
X215248308Y-62314709D01*
X215248308Y-62314709D02*
X215343546Y-62314709D01*
X215343546Y-62314709D02*
X215391165Y-62290900D01*
X215391165Y-62290900D02*
X215414974Y-62243280D01*
X215414974Y-62243280D02*
X215414974Y-62052804D01*
X215414974Y-62052804D02*
X215391165Y-62005185D01*
X215391165Y-62005185D02*
X215343546Y-61981376D01*
X215343546Y-61981376D02*
X215248308Y-61981376D01*
X215248308Y-61981376D02*
X215200689Y-62005185D01*
X215200689Y-62005185D02*
X215176879Y-62052804D01*
X215176879Y-62052804D02*
X215176879Y-62100423D01*
X215176879Y-62100423D02*
X215414974Y-62148042D01*
X215034022Y-61981376D02*
X214843546Y-61981376D01*
X214962594Y-62314709D02*
X214962594Y-61886138D01*
X214962594Y-61886138D02*
X214938784Y-61838519D01*
X214938784Y-61838519D02*
X214891165Y-61814709D01*
X214891165Y-61814709D02*
X214843546Y-61814709D01*
X214748308Y-61981376D02*
X214557832Y-61981376D01*
X214676880Y-61814709D02*
X214676880Y-62243280D01*
X214676880Y-62243280D02*
X214653070Y-62290900D01*
X214653070Y-62290900D02*
X214605451Y-62314709D01*
X214605451Y-62314709D02*
X214557832Y-62314709D01*
X218434011Y-64803909D02*
X218719725Y-64803909D01*
X218576868Y-64803909D02*
X218576868Y-64303909D01*
X218576868Y-64303909D02*
X218624487Y-64375338D01*
X218624487Y-64375338D02*
X218672106Y-64422957D01*
X218672106Y-64422957D02*
X218719725Y-64446766D01*
X218195916Y-64803909D02*
X218100678Y-64803909D01*
X218100678Y-64803909D02*
X218053059Y-64780100D01*
X218053059Y-64780100D02*
X218029250Y-64756290D01*
X218029250Y-64756290D02*
X217981631Y-64684861D01*
X217981631Y-64684861D02*
X217957821Y-64589623D01*
X217957821Y-64589623D02*
X217957821Y-64399147D01*
X217957821Y-64399147D02*
X217981631Y-64351528D01*
X217981631Y-64351528D02*
X218005440Y-64327719D01*
X218005440Y-64327719D02*
X218053059Y-64303909D01*
X218053059Y-64303909D02*
X218148297Y-64303909D01*
X218148297Y-64303909D02*
X218195916Y-64327719D01*
X218195916Y-64327719D02*
X218219726Y-64351528D01*
X218219726Y-64351528D02*
X218243535Y-64399147D01*
X218243535Y-64399147D02*
X218243535Y-64518195D01*
X218243535Y-64518195D02*
X218219726Y-64565814D01*
X218219726Y-64565814D02*
X218195916Y-64589623D01*
X218195916Y-64589623D02*
X218148297Y-64613433D01*
X218148297Y-64613433D02*
X218053059Y-64613433D01*
X218053059Y-64613433D02*
X218005440Y-64589623D01*
X218005440Y-64589623D02*
X217981631Y-64565814D01*
X217981631Y-64565814D02*
X217957821Y-64518195D01*
X217862584Y-64851528D02*
X217481631Y-64851528D01*
X217386393Y-64780100D02*
X217314965Y-64803909D01*
X217314965Y-64803909D02*
X217195917Y-64803909D01*
X217195917Y-64803909D02*
X217148298Y-64780100D01*
X217148298Y-64780100D02*
X217124489Y-64756290D01*
X217124489Y-64756290D02*
X217100679Y-64708671D01*
X217100679Y-64708671D02*
X217100679Y-64661052D01*
X217100679Y-64661052D02*
X217124489Y-64613433D01*
X217124489Y-64613433D02*
X217148298Y-64589623D01*
X217148298Y-64589623D02*
X217195917Y-64565814D01*
X217195917Y-64565814D02*
X217291155Y-64542004D01*
X217291155Y-64542004D02*
X217338774Y-64518195D01*
X217338774Y-64518195D02*
X217362584Y-64494385D01*
X217362584Y-64494385D02*
X217386393Y-64446766D01*
X217386393Y-64446766D02*
X217386393Y-64399147D01*
X217386393Y-64399147D02*
X217362584Y-64351528D01*
X217362584Y-64351528D02*
X217338774Y-64327719D01*
X217338774Y-64327719D02*
X217291155Y-64303909D01*
X217291155Y-64303909D02*
X217172108Y-64303909D01*
X217172108Y-64303909D02*
X217100679Y-64327719D01*
X216600680Y-64756290D02*
X216624489Y-64780100D01*
X216624489Y-64780100D02*
X216695918Y-64803909D01*
X216695918Y-64803909D02*
X216743537Y-64803909D01*
X216743537Y-64803909D02*
X216814965Y-64780100D01*
X216814965Y-64780100D02*
X216862584Y-64732480D01*
X216862584Y-64732480D02*
X216886394Y-64684861D01*
X216886394Y-64684861D02*
X216910203Y-64589623D01*
X216910203Y-64589623D02*
X216910203Y-64518195D01*
X216910203Y-64518195D02*
X216886394Y-64422957D01*
X216886394Y-64422957D02*
X216862584Y-64375338D01*
X216862584Y-64375338D02*
X216814965Y-64327719D01*
X216814965Y-64327719D02*
X216743537Y-64303909D01*
X216743537Y-64303909D02*
X216695918Y-64303909D01*
X216695918Y-64303909D02*
X216624489Y-64327719D01*
X216624489Y-64327719D02*
X216600680Y-64351528D01*
X216148299Y-64803909D02*
X216386394Y-64803909D01*
X216386394Y-64803909D02*
X216386394Y-64303909D01*
X216100680Y-64851528D02*
X215719727Y-64851528D01*
X215362585Y-64803909D02*
X215600680Y-64803909D01*
X215600680Y-64803909D02*
X215600680Y-64303909D01*
X214910204Y-64756290D02*
X214934013Y-64780100D01*
X214934013Y-64780100D02*
X215005442Y-64803909D01*
X215005442Y-64803909D02*
X215053061Y-64803909D01*
X215053061Y-64803909D02*
X215124489Y-64780100D01*
X215124489Y-64780100D02*
X215172108Y-64732480D01*
X215172108Y-64732480D02*
X215195918Y-64684861D01*
X215195918Y-64684861D02*
X215219727Y-64589623D01*
X215219727Y-64589623D02*
X215219727Y-64518195D01*
X215219727Y-64518195D02*
X215195918Y-64422957D01*
X215195918Y-64422957D02*
X215172108Y-64375338D01*
X215172108Y-64375338D02*
X215124489Y-64327719D01*
X215124489Y-64327719D02*
X215053061Y-64303909D01*
X215053061Y-64303909D02*
X215005442Y-64303909D01*
X215005442Y-64303909D02*
X214934013Y-64327719D01*
X214934013Y-64327719D02*
X214910204Y-64351528D01*
X214695918Y-64803909D02*
X214695918Y-64303909D01*
X214695918Y-64303909D02*
X214576870Y-64303909D01*
X214576870Y-64303909D02*
X214505442Y-64327719D01*
X214505442Y-64327719D02*
X214457823Y-64375338D01*
X214457823Y-64375338D02*
X214434013Y-64422957D01*
X214434013Y-64422957D02*
X214410204Y-64518195D01*
X214410204Y-64518195D02*
X214410204Y-64589623D01*
X214410204Y-64589623D02*
X214434013Y-64684861D01*
X214434013Y-64684861D02*
X214457823Y-64732480D01*
X214457823Y-64732480D02*
X214505442Y-64780100D01*
X214505442Y-64780100D02*
X214576870Y-64803909D01*
X214576870Y-64803909D02*
X214695918Y-64803909D01*
X218840411Y-57209309D02*
X219126125Y-57209309D01*
X218983268Y-57209309D02*
X218983268Y-56709309D01*
X218983268Y-56709309D02*
X219030887Y-56780738D01*
X219030887Y-56780738D02*
X219078506Y-56828357D01*
X219078506Y-56828357D02*
X219126125Y-56852166D01*
X218364221Y-57209309D02*
X218649935Y-57209309D01*
X218507078Y-57209309D02*
X218507078Y-56709309D01*
X218507078Y-56709309D02*
X218554697Y-56780738D01*
X218554697Y-56780738D02*
X218602316Y-56828357D01*
X218602316Y-56828357D02*
X218649935Y-56852166D01*
X218268984Y-57256928D02*
X217888031Y-57256928D01*
X217530889Y-57209309D02*
X217768984Y-57209309D01*
X217768984Y-57209309D02*
X217768984Y-56709309D01*
X217078508Y-57161690D02*
X217102317Y-57185500D01*
X217102317Y-57185500D02*
X217173746Y-57209309D01*
X217173746Y-57209309D02*
X217221365Y-57209309D01*
X217221365Y-57209309D02*
X217292793Y-57185500D01*
X217292793Y-57185500D02*
X217340412Y-57137880D01*
X217340412Y-57137880D02*
X217364222Y-57090261D01*
X217364222Y-57090261D02*
X217388031Y-56995023D01*
X217388031Y-56995023D02*
X217388031Y-56923595D01*
X217388031Y-56923595D02*
X217364222Y-56828357D01*
X217364222Y-56828357D02*
X217340412Y-56780738D01*
X217340412Y-56780738D02*
X217292793Y-56733119D01*
X217292793Y-56733119D02*
X217221365Y-56709309D01*
X217221365Y-56709309D02*
X217173746Y-56709309D01*
X217173746Y-56709309D02*
X217102317Y-56733119D01*
X217102317Y-56733119D02*
X217078508Y-56756928D01*
X216864222Y-57209309D02*
X216864222Y-56709309D01*
X216864222Y-56709309D02*
X216745174Y-56709309D01*
X216745174Y-56709309D02*
X216673746Y-56733119D01*
X216673746Y-56733119D02*
X216626127Y-56780738D01*
X216626127Y-56780738D02*
X216602317Y-56828357D01*
X216602317Y-56828357D02*
X216578508Y-56923595D01*
X216578508Y-56923595D02*
X216578508Y-56995023D01*
X216578508Y-56995023D02*
X216602317Y-57090261D01*
X216602317Y-57090261D02*
X216626127Y-57137880D01*
X216626127Y-57137880D02*
X216673746Y-57185500D01*
X216673746Y-57185500D02*
X216745174Y-57209309D01*
X216745174Y-57209309D02*
X216864222Y-57209309D01*
X216483270Y-57256928D02*
X216102317Y-57256928D01*
X215983270Y-57209309D02*
X215983270Y-56875976D01*
X215983270Y-56971214D02*
X215959460Y-56923595D01*
X215959460Y-56923595D02*
X215935651Y-56899785D01*
X215935651Y-56899785D02*
X215888032Y-56875976D01*
X215888032Y-56875976D02*
X215840413Y-56875976D01*
X215673746Y-57209309D02*
X215673746Y-56875976D01*
X215673746Y-56709309D02*
X215697555Y-56733119D01*
X215697555Y-56733119D02*
X215673746Y-56756928D01*
X215673746Y-56756928D02*
X215649936Y-56733119D01*
X215649936Y-56733119D02*
X215673746Y-56709309D01*
X215673746Y-56709309D02*
X215673746Y-56756928D01*
X215221365Y-56875976D02*
X215221365Y-57280738D01*
X215221365Y-57280738D02*
X215245175Y-57328357D01*
X215245175Y-57328357D02*
X215268984Y-57352166D01*
X215268984Y-57352166D02*
X215316603Y-57375976D01*
X215316603Y-57375976D02*
X215388032Y-57375976D01*
X215388032Y-57375976D02*
X215435651Y-57352166D01*
X215221365Y-57185500D02*
X215268984Y-57209309D01*
X215268984Y-57209309D02*
X215364222Y-57209309D01*
X215364222Y-57209309D02*
X215411841Y-57185500D01*
X215411841Y-57185500D02*
X215435651Y-57161690D01*
X215435651Y-57161690D02*
X215459460Y-57114071D01*
X215459460Y-57114071D02*
X215459460Y-56971214D01*
X215459460Y-56971214D02*
X215435651Y-56923595D01*
X215435651Y-56923595D02*
X215411841Y-56899785D01*
X215411841Y-56899785D02*
X215364222Y-56875976D01*
X215364222Y-56875976D02*
X215268984Y-56875976D01*
X215268984Y-56875976D02*
X215221365Y-56899785D01*
X214983270Y-57209309D02*
X214983270Y-56709309D01*
X214768984Y-57209309D02*
X214768984Y-56947404D01*
X214768984Y-56947404D02*
X214792794Y-56899785D01*
X214792794Y-56899785D02*
X214840413Y-56875976D01*
X214840413Y-56875976D02*
X214911841Y-56875976D01*
X214911841Y-56875976D02*
X214959460Y-56899785D01*
X214959460Y-56899785D02*
X214983270Y-56923595D01*
X214602317Y-56875976D02*
X214411841Y-56875976D01*
X214530889Y-56709309D02*
X214530889Y-57137880D01*
X214530889Y-57137880D02*
X214507079Y-57185500D01*
X214507079Y-57185500D02*
X214459460Y-57209309D01*
X214459460Y-57209309D02*
X214411841Y-57209309D01*
X218891211Y-59850909D02*
X219176925Y-59850909D01*
X219034068Y-59850909D02*
X219034068Y-59350909D01*
X219034068Y-59350909D02*
X219081687Y-59422338D01*
X219081687Y-59422338D02*
X219129306Y-59469957D01*
X219129306Y-59469957D02*
X219176925Y-59493766D01*
X218700735Y-59398528D02*
X218676926Y-59374719D01*
X218676926Y-59374719D02*
X218629307Y-59350909D01*
X218629307Y-59350909D02*
X218510259Y-59350909D01*
X218510259Y-59350909D02*
X218462640Y-59374719D01*
X218462640Y-59374719D02*
X218438831Y-59398528D01*
X218438831Y-59398528D02*
X218415021Y-59446147D01*
X218415021Y-59446147D02*
X218415021Y-59493766D01*
X218415021Y-59493766D02*
X218438831Y-59565195D01*
X218438831Y-59565195D02*
X218724545Y-59850909D01*
X218724545Y-59850909D02*
X218415021Y-59850909D01*
X218319784Y-59898528D02*
X217938831Y-59898528D01*
X217581689Y-59850909D02*
X217819784Y-59850909D01*
X217819784Y-59850909D02*
X217819784Y-59350909D01*
X217129308Y-59803290D02*
X217153117Y-59827100D01*
X217153117Y-59827100D02*
X217224546Y-59850909D01*
X217224546Y-59850909D02*
X217272165Y-59850909D01*
X217272165Y-59850909D02*
X217343593Y-59827100D01*
X217343593Y-59827100D02*
X217391212Y-59779480D01*
X217391212Y-59779480D02*
X217415022Y-59731861D01*
X217415022Y-59731861D02*
X217438831Y-59636623D01*
X217438831Y-59636623D02*
X217438831Y-59565195D01*
X217438831Y-59565195D02*
X217415022Y-59469957D01*
X217415022Y-59469957D02*
X217391212Y-59422338D01*
X217391212Y-59422338D02*
X217343593Y-59374719D01*
X217343593Y-59374719D02*
X217272165Y-59350909D01*
X217272165Y-59350909D02*
X217224546Y-59350909D01*
X217224546Y-59350909D02*
X217153117Y-59374719D01*
X217153117Y-59374719D02*
X217129308Y-59398528D01*
X216915022Y-59850909D02*
X216915022Y-59350909D01*
X216915022Y-59350909D02*
X216795974Y-59350909D01*
X216795974Y-59350909D02*
X216724546Y-59374719D01*
X216724546Y-59374719D02*
X216676927Y-59422338D01*
X216676927Y-59422338D02*
X216653117Y-59469957D01*
X216653117Y-59469957D02*
X216629308Y-59565195D01*
X216629308Y-59565195D02*
X216629308Y-59636623D01*
X216629308Y-59636623D02*
X216653117Y-59731861D01*
X216653117Y-59731861D02*
X216676927Y-59779480D01*
X216676927Y-59779480D02*
X216724546Y-59827100D01*
X216724546Y-59827100D02*
X216795974Y-59850909D01*
X216795974Y-59850909D02*
X216915022Y-59850909D01*
X216534070Y-59898528D02*
X216153117Y-59898528D01*
X215843594Y-59827100D02*
X215891213Y-59850909D01*
X215891213Y-59850909D02*
X215986451Y-59850909D01*
X215986451Y-59850909D02*
X216034070Y-59827100D01*
X216034070Y-59827100D02*
X216057879Y-59779480D01*
X216057879Y-59779480D02*
X216057879Y-59589004D01*
X216057879Y-59589004D02*
X216034070Y-59541385D01*
X216034070Y-59541385D02*
X215986451Y-59517576D01*
X215986451Y-59517576D02*
X215891213Y-59517576D01*
X215891213Y-59517576D02*
X215843594Y-59541385D01*
X215843594Y-59541385D02*
X215819784Y-59589004D01*
X215819784Y-59589004D02*
X215819784Y-59636623D01*
X215819784Y-59636623D02*
X216057879Y-59684242D01*
X215605499Y-59517576D02*
X215605499Y-59850909D01*
X215605499Y-59565195D02*
X215581689Y-59541385D01*
X215581689Y-59541385D02*
X215534070Y-59517576D01*
X215534070Y-59517576D02*
X215462642Y-59517576D01*
X215462642Y-59517576D02*
X215415023Y-59541385D01*
X215415023Y-59541385D02*
X215391213Y-59589004D01*
X215391213Y-59589004D02*
X215391213Y-59850909D01*
X215224546Y-59517576D02*
X215034070Y-59517576D01*
X215153118Y-59350909D02*
X215153118Y-59779480D01*
X215153118Y-59779480D02*
X215129308Y-59827100D01*
X215129308Y-59827100D02*
X215081689Y-59850909D01*
X215081689Y-59850909D02*
X215034070Y-59850909D01*
X214676928Y-59827100D02*
X214724547Y-59850909D01*
X214724547Y-59850909D02*
X214819785Y-59850909D01*
X214819785Y-59850909D02*
X214867404Y-59827100D01*
X214867404Y-59827100D02*
X214891213Y-59779480D01*
X214891213Y-59779480D02*
X214891213Y-59589004D01*
X214891213Y-59589004D02*
X214867404Y-59541385D01*
X214867404Y-59541385D02*
X214819785Y-59517576D01*
X214819785Y-59517576D02*
X214724547Y-59517576D01*
X214724547Y-59517576D02*
X214676928Y-59541385D01*
X214676928Y-59541385D02*
X214653118Y-59589004D01*
X214653118Y-59589004D02*
X214653118Y-59636623D01*
X214653118Y-59636623D02*
X214891213Y-59684242D01*
X214438833Y-59850909D02*
X214438833Y-59517576D01*
X214438833Y-59612814D02*
X214415023Y-59565195D01*
X214415023Y-59565195D02*
X214391214Y-59541385D01*
X214391214Y-59541385D02*
X214343595Y-59517576D01*
X214343595Y-59517576D02*
X214295976Y-59517576D01*
X215517735Y-51756309D02*
X215208211Y-51756309D01*
X215208211Y-51756309D02*
X215374878Y-51946785D01*
X215374878Y-51946785D02*
X215303449Y-51946785D01*
X215303449Y-51946785D02*
X215255830Y-51970595D01*
X215255830Y-51970595D02*
X215232021Y-51994404D01*
X215232021Y-51994404D02*
X215208211Y-52042023D01*
X215208211Y-52042023D02*
X215208211Y-52161071D01*
X215208211Y-52161071D02*
X215232021Y-52208690D01*
X215232021Y-52208690D02*
X215255830Y-52232500D01*
X215255830Y-52232500D02*
X215303449Y-52256309D01*
X215303449Y-52256309D02*
X215446306Y-52256309D01*
X215446306Y-52256309D02*
X215493925Y-52232500D01*
X215493925Y-52232500D02*
X215517735Y-52208690D01*
X214993926Y-52208690D02*
X214970116Y-52232500D01*
X214970116Y-52232500D02*
X214993926Y-52256309D01*
X214993926Y-52256309D02*
X215017735Y-52232500D01*
X215017735Y-52232500D02*
X214993926Y-52208690D01*
X214993926Y-52208690D02*
X214993926Y-52256309D01*
X214803450Y-51756309D02*
X214493926Y-51756309D01*
X214493926Y-51756309D02*
X214660593Y-51946785D01*
X214660593Y-51946785D02*
X214589164Y-51946785D01*
X214589164Y-51946785D02*
X214541545Y-51970595D01*
X214541545Y-51970595D02*
X214517736Y-51994404D01*
X214517736Y-51994404D02*
X214493926Y-52042023D01*
X214493926Y-52042023D02*
X214493926Y-52161071D01*
X214493926Y-52161071D02*
X214517736Y-52208690D01*
X214517736Y-52208690D02*
X214541545Y-52232500D01*
X214541545Y-52232500D02*
X214589164Y-52256309D01*
X214589164Y-52256309D02*
X214732021Y-52256309D01*
X214732021Y-52256309D02*
X214779640Y-52232500D01*
X214779640Y-52232500D02*
X214803450Y-52208690D01*
X214351069Y-51756309D02*
X214184403Y-52256309D01*
X214184403Y-52256309D02*
X214017736Y-51756309D01*
X215032002Y-49640109D02*
X215198668Y-49402014D01*
X215317716Y-49640109D02*
X215317716Y-49140109D01*
X215317716Y-49140109D02*
X215127240Y-49140109D01*
X215127240Y-49140109D02*
X215079621Y-49163919D01*
X215079621Y-49163919D02*
X215055811Y-49187728D01*
X215055811Y-49187728D02*
X215032002Y-49235347D01*
X215032002Y-49235347D02*
X215032002Y-49306776D01*
X215032002Y-49306776D02*
X215055811Y-49354395D01*
X215055811Y-49354395D02*
X215079621Y-49378204D01*
X215079621Y-49378204D02*
X215127240Y-49402014D01*
X215127240Y-49402014D02*
X215317716Y-49402014D01*
X214841525Y-49616300D02*
X214770097Y-49640109D01*
X214770097Y-49640109D02*
X214651049Y-49640109D01*
X214651049Y-49640109D02*
X214603430Y-49616300D01*
X214603430Y-49616300D02*
X214579621Y-49592490D01*
X214579621Y-49592490D02*
X214555811Y-49544871D01*
X214555811Y-49544871D02*
X214555811Y-49497252D01*
X214555811Y-49497252D02*
X214579621Y-49449633D01*
X214579621Y-49449633D02*
X214603430Y-49425823D01*
X214603430Y-49425823D02*
X214651049Y-49402014D01*
X214651049Y-49402014D02*
X214746287Y-49378204D01*
X214746287Y-49378204D02*
X214793906Y-49354395D01*
X214793906Y-49354395D02*
X214817716Y-49330585D01*
X214817716Y-49330585D02*
X214841525Y-49282966D01*
X214841525Y-49282966D02*
X214841525Y-49235347D01*
X214841525Y-49235347D02*
X214817716Y-49187728D01*
X214817716Y-49187728D02*
X214793906Y-49163919D01*
X214793906Y-49163919D02*
X214746287Y-49140109D01*
X214746287Y-49140109D02*
X214627240Y-49140109D01*
X214627240Y-49140109D02*
X214555811Y-49163919D01*
X214412954Y-49140109D02*
X214127240Y-49140109D01*
X214270097Y-49640109D02*
X214270097Y-49140109D01*
X218611811Y-67394709D02*
X218897525Y-67394709D01*
X218754668Y-67394709D02*
X218754668Y-66894709D01*
X218754668Y-66894709D02*
X218802287Y-66966138D01*
X218802287Y-66966138D02*
X218849906Y-67013757D01*
X218849906Y-67013757D02*
X218897525Y-67037566D01*
X218326097Y-67108995D02*
X218373716Y-67085185D01*
X218373716Y-67085185D02*
X218397526Y-67061376D01*
X218397526Y-67061376D02*
X218421335Y-67013757D01*
X218421335Y-67013757D02*
X218421335Y-66989947D01*
X218421335Y-66989947D02*
X218397526Y-66942328D01*
X218397526Y-66942328D02*
X218373716Y-66918519D01*
X218373716Y-66918519D02*
X218326097Y-66894709D01*
X218326097Y-66894709D02*
X218230859Y-66894709D01*
X218230859Y-66894709D02*
X218183240Y-66918519D01*
X218183240Y-66918519D02*
X218159431Y-66942328D01*
X218159431Y-66942328D02*
X218135621Y-66989947D01*
X218135621Y-66989947D02*
X218135621Y-67013757D01*
X218135621Y-67013757D02*
X218159431Y-67061376D01*
X218159431Y-67061376D02*
X218183240Y-67085185D01*
X218183240Y-67085185D02*
X218230859Y-67108995D01*
X218230859Y-67108995D02*
X218326097Y-67108995D01*
X218326097Y-67108995D02*
X218373716Y-67132804D01*
X218373716Y-67132804D02*
X218397526Y-67156614D01*
X218397526Y-67156614D02*
X218421335Y-67204233D01*
X218421335Y-67204233D02*
X218421335Y-67299471D01*
X218421335Y-67299471D02*
X218397526Y-67347090D01*
X218397526Y-67347090D02*
X218373716Y-67370900D01*
X218373716Y-67370900D02*
X218326097Y-67394709D01*
X218326097Y-67394709D02*
X218230859Y-67394709D01*
X218230859Y-67394709D02*
X218183240Y-67370900D01*
X218183240Y-67370900D02*
X218159431Y-67347090D01*
X218159431Y-67347090D02*
X218135621Y-67299471D01*
X218135621Y-67299471D02*
X218135621Y-67204233D01*
X218135621Y-67204233D02*
X218159431Y-67156614D01*
X218159431Y-67156614D02*
X218183240Y-67132804D01*
X218183240Y-67132804D02*
X218230859Y-67108995D01*
X218040384Y-67442328D02*
X217659431Y-67442328D01*
X217564193Y-67370900D02*
X217492765Y-67394709D01*
X217492765Y-67394709D02*
X217373717Y-67394709D01*
X217373717Y-67394709D02*
X217326098Y-67370900D01*
X217326098Y-67370900D02*
X217302289Y-67347090D01*
X217302289Y-67347090D02*
X217278479Y-67299471D01*
X217278479Y-67299471D02*
X217278479Y-67251852D01*
X217278479Y-67251852D02*
X217302289Y-67204233D01*
X217302289Y-67204233D02*
X217326098Y-67180423D01*
X217326098Y-67180423D02*
X217373717Y-67156614D01*
X217373717Y-67156614D02*
X217468955Y-67132804D01*
X217468955Y-67132804D02*
X217516574Y-67108995D01*
X217516574Y-67108995D02*
X217540384Y-67085185D01*
X217540384Y-67085185D02*
X217564193Y-67037566D01*
X217564193Y-67037566D02*
X217564193Y-66989947D01*
X217564193Y-66989947D02*
X217540384Y-66942328D01*
X217540384Y-66942328D02*
X217516574Y-66918519D01*
X217516574Y-66918519D02*
X217468955Y-66894709D01*
X217468955Y-66894709D02*
X217349908Y-66894709D01*
X217349908Y-66894709D02*
X217278479Y-66918519D01*
X217064194Y-67394709D02*
X217064194Y-66894709D01*
X217064194Y-66894709D02*
X216945146Y-66894709D01*
X216945146Y-66894709D02*
X216873718Y-66918519D01*
X216873718Y-66918519D02*
X216826099Y-66966138D01*
X216826099Y-66966138D02*
X216802289Y-67013757D01*
X216802289Y-67013757D02*
X216778480Y-67108995D01*
X216778480Y-67108995D02*
X216778480Y-67180423D01*
X216778480Y-67180423D02*
X216802289Y-67275661D01*
X216802289Y-67275661D02*
X216826099Y-67323280D01*
X216826099Y-67323280D02*
X216873718Y-67370900D01*
X216873718Y-67370900D02*
X216945146Y-67394709D01*
X216945146Y-67394709D02*
X217064194Y-67394709D01*
X216588003Y-67251852D02*
X216349908Y-67251852D01*
X216635622Y-67394709D02*
X216468956Y-66894709D01*
X216468956Y-66894709D02*
X216302289Y-67394709D01*
X216254671Y-67442328D02*
X215873718Y-67442328D01*
X215516576Y-67394709D02*
X215754671Y-67394709D01*
X215754671Y-67394709D02*
X215754671Y-66894709D01*
X215064195Y-67347090D02*
X215088004Y-67370900D01*
X215088004Y-67370900D02*
X215159433Y-67394709D01*
X215159433Y-67394709D02*
X215207052Y-67394709D01*
X215207052Y-67394709D02*
X215278480Y-67370900D01*
X215278480Y-67370900D02*
X215326099Y-67323280D01*
X215326099Y-67323280D02*
X215349909Y-67275661D01*
X215349909Y-67275661D02*
X215373718Y-67180423D01*
X215373718Y-67180423D02*
X215373718Y-67108995D01*
X215373718Y-67108995D02*
X215349909Y-67013757D01*
X215349909Y-67013757D02*
X215326099Y-66966138D01*
X215326099Y-66966138D02*
X215278480Y-66918519D01*
X215278480Y-66918519D02*
X215207052Y-66894709D01*
X215207052Y-66894709D02*
X215159433Y-66894709D01*
X215159433Y-66894709D02*
X215088004Y-66918519D01*
X215088004Y-66918519D02*
X215064195Y-66942328D01*
X214849909Y-67394709D02*
X214849909Y-66894709D01*
X214849909Y-66894709D02*
X214730861Y-66894709D01*
X214730861Y-66894709D02*
X214659433Y-66918519D01*
X214659433Y-66918519D02*
X214611814Y-66966138D01*
X214611814Y-66966138D02*
X214588004Y-67013757D01*
X214588004Y-67013757D02*
X214564195Y-67108995D01*
X214564195Y-67108995D02*
X214564195Y-67180423D01*
X214564195Y-67180423D02*
X214588004Y-67275661D01*
X214588004Y-67275661D02*
X214611814Y-67323280D01*
X214611814Y-67323280D02*
X214659433Y-67370900D01*
X214659433Y-67370900D02*
X214730861Y-67394709D01*
X214730861Y-67394709D02*
X214849909Y-67394709D01*
D11*
%TO.C,U13*%
X243856836Y-65972387D02*
X241908977Y-61269840D01*
X243542717Y-66102499D02*
X243856836Y-65972387D01*
X241399317Y-66990325D02*
X241075959Y-67124264D01*
X241075959Y-67124264D02*
X240080982Y-64722177D01*
X243665494Y-65510446D02*
G75*
G03*
X242059860Y-61629566I-896023J1901878D01*
G01*
%TO.C,U7*%
X164965258Y-138017575D02*
X169667805Y-139965434D01*
X165095370Y-137703456D02*
X164965258Y-138017575D01*
X165983196Y-135560056D02*
X166117135Y-135236698D01*
X166117135Y-135236698D02*
X168519222Y-136231675D01*
X165427197Y-138208917D02*
G75*
G03*
X169306750Y-139817760I1978416J-711247D01*
G01*
%TO.C,U1*%
X169806387Y-31289164D02*
X165103840Y-33237023D01*
X169936499Y-31603283D02*
X169806387Y-31289164D01*
X170824325Y-33746683D02*
X170958264Y-34070041D01*
X170958264Y-34070041D02*
X168556177Y-35065018D01*
X169344446Y-31480506D02*
G75*
G03*
X165463566Y-33086140I-1901878J-896023D01*
G01*
%TO.C,U9*%
X209173613Y-140022836D02*
X213876160Y-138074977D01*
X209043501Y-139708717D02*
X209173613Y-140022836D01*
X208155675Y-137565317D02*
X208021736Y-137241959D01*
X208021736Y-137241959D02*
X210423823Y-136246982D01*
X209635554Y-139831494D02*
G75*
G03*
X213516434Y-138225860I1901878J896023D01*
G01*
%TO.C,U17*%
X192110000Y-27895000D02*
X187020000Y-27895000D01*
X192110000Y-28235000D02*
X192110000Y-27895000D01*
X192110000Y-30555000D02*
X192110000Y-30905000D01*
X192110000Y-30905000D02*
X189510000Y-30905000D01*
X191609999Y-27895000D02*
G75*
G03*
X187410084Y-27893264I-2099999J-100000D01*
G01*
%TO.C,U14*%
X232185815Y-46665425D02*
X228586642Y-43066251D01*
X231945399Y-46905841D02*
X232185815Y-46665425D01*
X230304911Y-48546329D02*
X230057424Y-48793816D01*
X230057424Y-48793816D02*
X228218946Y-46955338D01*
X231832263Y-46311871D02*
G75*
G03*
X228863699Y-43340854I-1555636J1414213D01*
G01*
%TO.C,U10*%
X228480575Y-128351814D02*
X232079749Y-124752641D01*
X228240159Y-128111398D02*
X228480575Y-128351814D01*
X226599671Y-126470910D02*
X226352184Y-126223423D01*
X226352184Y-126223423D02*
X228190662Y-124384945D01*
X228834129Y-127998262D02*
G75*
G03*
X231805146Y-125029698I1414213J1555636D01*
G01*
%TO.C,U2*%
X150499425Y-42960186D02*
X146900251Y-46559359D01*
X150739841Y-43200602D02*
X150499425Y-42960186D01*
X152380329Y-44841090D02*
X152627816Y-45088577D01*
X152627816Y-45088577D02*
X150789338Y-46927055D01*
X150145871Y-43313738D02*
G75*
G03*
X147174854Y-46282302I-1414213J-1555636D01*
G01*
%TO.C,U15*%
X214014742Y-33294425D02*
X209312195Y-31346566D01*
X213884630Y-33608544D02*
X214014742Y-33294425D01*
X212996804Y-35751944D02*
X212862865Y-36075302D01*
X212862865Y-36075302D02*
X210460778Y-35080325D01*
X213552803Y-33103083D02*
G75*
G03*
X209673250Y-31494240I-1978416J711247D01*
G01*
%TO.C,U4*%
X131729000Y-83036000D02*
X131729000Y-88126000D01*
X132069000Y-83036000D02*
X131729000Y-83036000D01*
X134389000Y-83036000D02*
X134739000Y-83036000D01*
X134739000Y-83036000D02*
X134739000Y-85636000D01*
X131729000Y-83536001D02*
G75*
G03*
X131727264Y-87735916I100000J-2099999D01*
G01*
%TO.C,U12*%
X247251001Y-88276000D02*
X247251001Y-83186000D01*
X246911001Y-88276000D02*
X247251001Y-88276000D01*
X244591001Y-88276000D02*
X244241001Y-88276000D01*
X244241001Y-88276000D02*
X244241001Y-85676000D01*
X247251001Y-87775999D02*
G75*
G03*
X247252737Y-83576084I-100000J2099999D01*
G01*
%TO.C,U5*%
X135123164Y-105339613D02*
X137071023Y-110042160D01*
X135437283Y-105209501D02*
X135123164Y-105339613D01*
X137580683Y-104321675D02*
X137904041Y-104187736D01*
X137904041Y-104187736D02*
X138899018Y-106589823D01*
X135314506Y-105801554D02*
G75*
G03*
X136920140Y-109682434I896023J-1901878D01*
G01*
%TO.C,U11*%
X241851575Y-110180742D02*
X243799434Y-105478195D01*
X241537456Y-110050630D02*
X241851575Y-110180742D01*
X239394056Y-109162804D02*
X239070698Y-109028865D01*
X239070698Y-109028865D02*
X240065675Y-106626778D01*
X242042917Y-109718803D02*
G75*
G03*
X243651760Y-105839250I711247J1978416D01*
G01*
%TO.C,U8*%
X186870000Y-143417000D02*
X191960000Y-143417000D01*
X186870000Y-143077000D02*
X186870000Y-143417000D01*
X186870000Y-140757000D02*
X186870000Y-140407000D01*
X186870000Y-140407000D02*
X189470000Y-140407000D01*
X187370001Y-143417000D02*
G75*
G03*
X191569916Y-143418736I2099999J100000D01*
G01*
%TO.C,U3*%
X137128425Y-61131258D02*
X135180566Y-65833805D01*
X137442544Y-61261370D02*
X137128425Y-61131258D01*
X139585944Y-62149196D02*
X139909302Y-62283135D01*
X139909302Y-62283135D02*
X138914325Y-64685222D01*
X136937083Y-61593197D02*
G75*
G03*
X135328240Y-65472750I-711247J-1978416D01*
G01*
%TO.C,U6*%
X146794186Y-124646575D02*
X150393359Y-128245749D01*
X147034602Y-124406159D02*
X146794186Y-124646575D01*
X148675090Y-122765671D02*
X148922577Y-122518184D01*
X148922577Y-122518184D02*
X150761055Y-124356662D01*
X147147738Y-125000129D02*
G75*
G03*
X150116302Y-127971146I1555636J-1414213D01*
G01*
%TD*%
M02*
