M48
; DRILL file {KiCad 7.0.7} date Sat May  3 00:20:45 2025
; FORMAT={3:3/ absolute / metric / keep zeros}
; #@! TF.CreationDate,2025-05-03T00:20:45+09:00
; #@! TF.GenerationSoftware,Kicad,Pcbnew,7.0.7
; #@! TF.FileFunction,Plated,1,2,PTH
FMAT,2
METRIC
; #@! TA.AperFunction,Plated,PTH,ViaDrill
T1C0.400
; #@! TA.AperFunction,Plated,PTH,ComponentDrill
T2C0.700
; #@! TA.AperFunction,Plated,PTH,ComponentDrill
T3C0.800
; #@! TA.AperFunction,Plated,PTH,ComponentDrill
T4C1.000
; #@! TA.AperFunction,Plated,PTH,ComponentDrill
T5C1.100
%
G90
G05
T1
X078880Y-105530
X079920Y-115310
X081940Y-128220
X083890Y-084430
X087010Y-135390
X091710Y-099310
X092600Y-146550
X095200Y-089780
X098730Y-066190
X110480Y-074990
X110880Y-161780
X112660Y-128660
X114790Y-126600
X117090Y-055440
X118100Y-102980
X118140Y-122920
X120210Y-162580
X123480Y-084030
X124400Y-088910
X126230Y-091550
X128260Y-109690
X130080Y-092350
X130670Y-113510
X131120Y-102130
X131480Y-166850
X132930Y-137010
X134570Y-100980
X135700Y-118820
X137840Y-107310
X139110Y-084470
X140040Y-052840
X141190Y-101970
X141720Y-121320
X145600Y-108150
X145700Y-121180
X147420Y-110520
X148660Y-079260
X148980Y-115180
X149150Y-152770
X150250Y-125280
X150530Y-162960
X150630Y-099820
X153140Y-123740
X154640Y-164870
X160570Y-075000
X160920Y-058020
X173240Y-152940
X178900Y-072530
X187240Y-135030
X190180Y-090910
X192940Y-114070
T2
X083665Y-115240
X086645Y-092189
X088620Y-132080
X088745Y-115240
X091339Y-094133
X093313Y-130136
X097107Y-074720
X100699Y-078312
X100755Y-148430
X104348Y-144838
X113457Y-062585
X115401Y-067278
X118224Y-158891
X120168Y-154198
X130676Y-058010
X130676Y-063090
X138366Y-156791
X138366Y-161871
X151404Y-065303
X153348Y-060610
X156171Y-152223
X158115Y-156917
X167224Y-074664
X170817Y-071071
X170873Y-141189
X174465Y-144781
X178259Y-089365
X180233Y-125369
X182826Y-104240
X182952Y-087421
X184927Y-127313
X187906Y-104240
T3
X086195Y-118450
X087754Y-096122
X088695Y-118450
X090064Y-097079
X092186Y-134078
X094496Y-133121
X096626Y-078779
X098394Y-080547
X104814Y-148911
X106582Y-147143
X111459Y-066151
X112416Y-068460
X122158Y-157782
X123114Y-155473
X127466Y-060540
X127466Y-063040
X136100Y-080740
X136100Y-083240
X141576Y-156841
X141576Y-159341
X143240Y-142910
X145740Y-142910
X148022Y-065155
X148978Y-062845
X159156Y-151041
X159180Y-115660
X159180Y-118160
X160113Y-153351
X164990Y-072358
X166758Y-070591
X173178Y-138955
X174946Y-140722
X177076Y-086381
X179386Y-085424
X181508Y-122422
X182876Y-101030
X183818Y-123379
X185376Y-101030
T4
X080781Y-107226
X080781Y-109766
X080781Y-112306
X083990Y-091062
X084279Y-128191
X084962Y-088716
X085251Y-130538
X085934Y-086369
X086223Y-132884
X095084Y-072663
X095107Y-146860
X096880Y-070867
X096903Y-148656
X098677Y-069071
X098699Y-150452
X112361Y-059916
X112418Y-159608
X114708Y-058944
X114765Y-160580
X117055Y-057972
X117112Y-161552
X119770Y-074951
X119770Y-077491
X119770Y-080031
X119770Y-082571
X119770Y-085111
X119770Y-087651
X119770Y-090191
X119770Y-092731
X128296Y-078300
X128296Y-080840
X128296Y-083380
X128296Y-085920
X128296Y-088460
X128296Y-091000
X128296Y-093540
X131986Y-116870
X133230Y-054746
X133262Y-164756
X134526Y-116870
X135770Y-054746
X135802Y-164756
X137066Y-116870
X138310Y-054746
X138342Y-164756
X139606Y-116870
X143536Y-078300
X143536Y-080840
X143536Y-083380
X143536Y-085920
X143536Y-088460
X143536Y-091000
X143536Y-093540
X151360Y-101900
X151360Y-104440
X151360Y-106980
X151360Y-109520
X151360Y-112060
X151360Y-114600
X151360Y-117140
X151770Y-074951
X151770Y-077491
X151770Y-080031
X151770Y-082571
X151770Y-085111
X151770Y-087651
X151770Y-090191
X151770Y-092731
X151891Y-133650
X153900Y-101900
X153900Y-104440
X153900Y-106980
X153900Y-109520
X153900Y-112060
X153900Y-114600
X153900Y-117140
X154431Y-133650
X154474Y-057955
X154503Y-161535
X156821Y-058927
X156850Y-160563
X159168Y-059899
X159197Y-159591
X172873Y-069049
X172895Y-150430
X174669Y-070845
X174692Y-148634
X176465Y-072641
X176488Y-146838
X185626Y-086340
X185638Y-133132
X186598Y-088687
X186610Y-130786
X187570Y-091033
X187582Y-128439
X190791Y-107195
X190791Y-109735
X190791Y-112275
T5
X116646Y-132200
X116646Y-138700
X121146Y-132200
X121146Y-138700
X125376Y-146220
X125376Y-152720
X129876Y-146220
X129876Y-152720
X133596Y-146230
X133596Y-152730
X138096Y-146230
X138096Y-152730
X142186Y-146220
X142186Y-152720
X146686Y-146220
X146686Y-152720
T0
M30
