0
SECTION
2
HEADER
9
$INSUNITS
70
4
9
$ACADVER
1
AC1014
9
$HANDSEED
5
FFFF
0
ENDSEC
0
SECTION
2
TABLES
0
TABLE
2
VPORT
5
8
100
AcDbSymbolTable
0
ENDTAB
0
TABLE
2
LTYPE
5
5
100
AcDbSymbolTable
0
LTYPE
5
14
100
AcDbSymbolTableRecord
100
AcDbLinetypeTableRecord
2
BYBLOCK
70
0
0
LTYPE
5
15
100
AcDbSymbolTableRecord
100
AcDbLinetypeTableRecord
2
BYLAYER
70
0
0
LTYPE
5
16
100
AcDbSymbolTableRecord
100
AcDbLinetypeTableRecord
2
DASHED
70
0
3
Dashed __ __ __ __ __ __ __ __ __ __ __ __ __ _
72
65
73
2
40
0.75
49
0.5
74
0
49
-0.25
74
0
0
ENDTAB
0
TABLE
2
LAYER
5
2
100
AcDbSymbolTable
70
3
0
LAYER
5
50
100
AcDbSymbolTableRecord
100
AcDbLayerTableRecord
2
1
70
0
62
7
6
DASHED
0
LAYER
5
51
100
AcDbSymbolTableRecord
100
AcDbLayerTableRecord
2
0
70
0
62
7
6
CONTINUOUS
0
ENDTAB
0
TABLE
2
STYLE
5
3
100
AcDbSymbolTable
70
1
0
STYLE
5
11
100
AcDbSymbolTableRecord
100
AcDbTextStyleTableRecord
2
STANDARD
70
0
0
ENDTAB
0
TABLE
2
VIEW
5
6
100
AcDbSymbolTable
70
0
0
ENDTAB
0
TABLE
2
UCS
5
7
100
AcDbSymbolTable
70
0
0
ENDTAB
0
TABLE
2
APPID
5
9
100
AcDbSymbolTable
70
2
0
APPID
5
12
100
AcDbSymbolTableRecord
100
AcDbRegAppTableRecord
2
ACAD
70
0
0
ENDTAB
0
TABLE
2
DIMSTYLE
5
A
100
AcDbSymbolTable
70
1
0
ENDTAB
0
TABLE
2
BLOCK_RECORD
5
1
100
AcDbSymbolTable
70
1
0
BLOCK_RECORD
5
1F
100
AcDbSymbolTableRecord
100
AcDbBlockTableRecord
2
*MODEL_SPACE
0
BLOCK_RECORD
5
1B
100
AcDbSymbolTableRecord
100
AcDbBlockTableRecord
2
*PAPER_SPACE
0
ENDTAB
0
ENDSEC
0
SECTION
2
BLOCKS
0
BLOCK
5
20
100
AcDbEntity
100
AcDbBlockBegin
2
*MODEL_SPACE
0
ENDBLK
5
21
100
AcDbEntity
100
AcDbBlockEnd
0
BLOCK
5
1C
100
AcDbEntity
100
AcDbBlockBegin
2
*PAPER_SPACE
0
ENDBLK
5
1D
100
AcDbEntity
100
AcDbBlockEnd
0
ENDSEC
0
SECTION
2
ENTITIES
0
LWPOLYLINE
5
100
100
AcDbEntity
8
0
100
AcDbPolyline
90
32
70
1
43
0.0
10
-19.975246251818447
20
40.127789515636039
42
0.31086789170409168
10
-17.745163111660119
20
39.715980944505681
42
-0.081499467996086289
10
-4.1224751671249429
20
43.304216362153475
42
-0.29793824371507022
10
-2.1849644870980098
20
42.285120824080593
42
0.58816577322146979
10
2.1849644871305425
20
42.285120824078902
42
-0.29793824371506816
10
4.1224751671582354
20
43.304216362150427
42
-0.081499467995892375
10
17.745163111660077
20
39.715980944505709
42
0.31086789170409518
10
19.975246251818412
20
40.127789515636067
10
33.055437915343589
20
53.20798117916123
42
0.35639395869259566
10
33.182572813421906
20
54.466486927138007
42
-0.35639395869259471
10
33.691112405735211
20
59.500509919045108
10
40.615102007113954
20
66.424499520423836
42
0.41421356237309137
10
40.615102007113961
20
69.252926645170035
10
35.621542599612226
20
74.246486052671813
42
-0.41421356237309231
10
35.621542599612233
20
77.074913177417997
10
36.118900605080121
20
77.572271182885885
42
0.99999999999999989
10
32.513964836953591
20
81.037013324471886
10
31.918905820757125
20
80.417876475618016
42
-0.31066341491359828
10
29.698799696868043
20
79.961353489780308
42
0.29480442668656109
10
27.561615959675482
20
79.586236573509282
42
-0.39235429424080437
10
-27.520343886865781
20
79.623667274380765
42
0.29920805687815411
10
-29.686752591847892
20
79.988892728509626
42
-0.31473276420063201
10
-31.934090741261496
20
80.433675822531953
10
-32.513964836953605
20
81.037013324471886
42
0.99999999999999989
10
-36.118900605080142
20
77.572271182885885
10
-35.621542599612219
20
77.074913177417969
42
-0.41421356237309415
10
-35.621542599612219
20
74.24648605267177
10
-40.615102007114025
20
69.252926645169964
42
0.4142135623730932
10
-40.615102007114018
20
66.42449952042378
10
-33.69111240573524
20
59.50050991904503
42
-0.35639395869259993
10
-33.18257281342197
20
54.466486927137872
42
0.35639395869261026
10
-33.055437915343653
20
53.207981179161081
0
CIRCLE
5
101
100
AcDbEntity
8
0
100
AcDbCircle
10
-34.316432721016874
20
79.304642253678878
30
0
40
1.6500000000000004
210
-1.2445755067220543e-113
220
-6.8422776578360209e-49
230
1
0
CIRCLE
5
102
100
AcDbEntity
8
0
100
AcDbCircle
10
1.6733003871394203e-11
20
43.499999497054731
30
0
40
1.6500000000000008
210
1.244575506722054e-113
220
6.8422776578360209e-49
230
1
0
CIRCLE
5
103
100
AcDbEntity
8
0
100
AcDbCircle
10
34.316432721016859
20
79.304642253678878
30
0
40
1.6500000000000004
210
-1.2445755067220543e-113
220
-6.8422776578360209e-49
230
1
0
ENDSEC
0
SECTION
2
OBJECTS
0
DICTIONARY
5
C
100
AcDbDictionary
3
ACAD_GROUP
350
D
3
ACAD_MLINESTYLE
350
17
0
DICTIONARY
5
D
100
AcDbDictionary
0
DICTIONARY
5
1A
330
C
100
AcDbDictionary
0
DICTIONARY
5
17
100
AcDbDictionary
0
ENDSEC
0
EOF
