M48
; DRILL file {KiCad 7.0.9} date Wed Jan 15 18:35:16 2025
; FORMAT={-:-/ absolute / metric / decimal}
; #@! TF.CreationDate,2025-01-15T18:35:16+09:00
; #@! TF.GenerationSoftware,Kicad,Pcbnew,7.0.9
; #@! TF.FileFunction,Plated,1,2,PTH
FMAT,2
METRIC
; #@! TA.AperFunction,Plated,PTH,ViaDrill
T1C0.400
; #@! TA.AperFunction,Plated,PTH,ComponentDrill
T2C0.900
; #@! TA.AperFunction,Plated,PTH,ComponentDrill
T3C1.000
%
G90
G05
T1
X117.41Y-31.06
X120.47Y-29.99
X122.95Y-37.62
X125.38Y-31.5
X133.73Y-32.68
X134.94Y-29.89
X141.82Y-24.81
X143.81Y-27.91
X147.16Y-32.45
X149.49Y-33.88
X149.88Y-42.65
X150.01Y-62.95
X150.25Y-78.32
X150.91Y-59.65
X151.27Y-47.92
X151.43Y-74.46
X151.99Y-70.28
X152.35Y-56.19
X153.46Y-65.36
X153.96Y-47.89
X153.99Y-78.36
X154.0Y-27.33
X154.03Y-29.9
X154.09Y-35.99
X154.34Y-71.31
X154.64Y-39.77
X156.5Y-67.09
X156.92Y-48.81
X157.02Y-46.64
X157.24Y-58.03
X157.24Y-60.1
X157.64Y-54.86
X157.91Y-78.45
X159.44Y-36.41
X160.42Y-34.59
X162.84Y-24.44
X164.22Y-27.76
X171.45Y-34.49
X171.7Y-31.19
X173.74Y-28.86
X180.35Y-31.03
X183.74Y-28.95
X185.82Y-35.66
X187.33Y-38.89
X190.82Y-31.41
T2
X119.509Y-32.124
X120.251Y-34.553
X130.422Y-28.725
X131.164Y-31.154
X137.956Y-27.262
X138.221Y-29.788
X149.317Y-26.007
X149.582Y-28.534
X152.67Y-33.64
X152.67Y-50.64
X152.705Y-62.06
X152.72Y-45.04
X155.21Y-33.64
X155.21Y-50.64
X155.245Y-62.06
X155.26Y-45.04
X158.461Y-28.603
X158.727Y-26.077
X169.835Y-29.738
X170.1Y-27.212
X176.864Y-31.238
X177.607Y-28.809
X187.812Y-34.522
X188.555Y-32.093
T3
X150.164Y-75.931
X152.704Y-75.931
X155.244Y-75.931
X157.1Y-72.5
X157.784Y-75.931
T0
M30
