%TF.GenerationSoftware,KiCad,Pcbnew,7.0.9*%
%TF.CreationDate,2025-01-15T18:35:07+09:00*%
%TF.ProjectId,line_side_robot2,6c696e65-5f73-4696-9465-5f726f626f74,rev?*%
%TF.SameCoordinates,Original*%
%TF.FileFunction,Soldermask,Top*%
%TF.FilePolarity,Negative*%
%FSLAX46Y46*%
G04 Gerber Fmt 4.6, Leading zero omitted, Abs format (unit mm)*
G04 Created by KiCad (PCBNEW 7.0.9) date 2025-01-15 18:35:07*
%MOMM*%
%LPD*%
G01*
G04 APERTURE LIST*
G04 Aperture macros list*
%AMRoundRect*
0 Rectangle with rounded corners*
0 $1 Rounding radius*
0 $2 $3 $4 $5 $6 $7 $8 $9 X,Y pos of 4 corners*
0 Add a 4 corners polygon primitive as box body*
4,1,4,$2,$3,$4,$5,$6,$7,$8,$9,$2,$3,0*
0 Add four circle primitives for the rounded corners*
1,1,$1+$1,$2,$3*
1,1,$1+$1,$4,$5*
1,1,$1+$1,$6,$7*
1,1,$1+$1,$8,$9*
0 Add four rect primitives between the rounded corners*
20,1,$1+$1,$2,$3,$4,$5,0*
20,1,$1+$1,$4,$5,$6,$7,0*
20,1,$1+$1,$6,$7,$8,$9,0*
20,1,$1+$1,$8,$9,$2,$3,0*%
%AMRotRect*
0 Rectangle, with rotation*
0 The origin of the aperture is its center*
0 $1 length*
0 $2 width*
0 $3 Rotation angle, in degrees counterclockwise*
0 Add horizontal line*
21,1,$1,$2,0,0,$3*%
G04 Aperture macros list end*
%ADD10R,1.700000X1.700000*%
%ADD11RotRect,1.800000X1.800000X73.000000*%
%ADD12C,1.800000*%
%ADD13R,1.800000X1.800000*%
%ADD14RotRect,1.500000X0.900000X163.000000*%
%ADD15RotRect,1.800000X1.800000X96.000000*%
%ADD16RotRect,1.500000X0.900000X197.000000*%
%ADD17RotRect,1.800000X1.800000X107.000000*%
%ADD18R,0.900000X1.500000*%
%ADD19O,1.700000X1.700000*%
%ADD20RoundRect,0.250000X1.075000X-0.362500X1.075000X0.362500X-1.075000X0.362500X-1.075000X-0.362500X0*%
%ADD21RotRect,1.800000X1.800000X84.000000*%
%ADD22R,1.300000X2.000000*%
%ADD23R,2.000000X2.000000*%
%ADD24RotRect,1.500000X0.900000X186.000000*%
%ADD25RotRect,1.500000X0.900000X174.000000*%
G04 APERTURE END LIST*
D10*
%TO.C,J2*%
X157100000Y-72500000D03*
%TD*%
D11*
%TO.C,Q7*%
X176863974Y-31237940D03*
D12*
X177606598Y-28808926D03*
%TD*%
D13*
%TO.C,Q12*%
X152705000Y-62060000D03*
D12*
X155245000Y-62060000D03*
%TD*%
D14*
%TO.C,D5*%
X184569476Y-33944056D03*
X185534303Y-30788250D03*
X180848410Y-29355628D03*
X179883583Y-32511434D03*
%TD*%
D15*
%TO.C,Q4*%
X149582139Y-28533510D03*
D12*
X149316637Y-26007424D03*
%TD*%
D16*
%TO.C,D3*%
X128152835Y-32487468D03*
X127188008Y-29331662D03*
X122502115Y-30764284D03*
X123466942Y-33920090D03*
%TD*%
D17*
%TO.C,Q2*%
X131164465Y-31153672D03*
D12*
X130421841Y-28724658D03*
%TD*%
D18*
%TO.C,D1*%
X152335000Y-58800000D03*
X155635000Y-58800000D03*
X155635000Y-53900000D03*
X152335000Y-53900000D03*
%TD*%
D11*
%TO.C,Q8*%
X187812080Y-34522371D03*
D12*
X188554704Y-32093357D03*
%TD*%
D15*
%TO.C,Q3*%
X138221025Y-29787942D03*
D12*
X137955523Y-27261856D03*
%TD*%
D10*
%TO.C,J1*%
X157784013Y-75931020D03*
D19*
X155244013Y-75931020D03*
X152704013Y-75931020D03*
X150164013Y-75931020D03*
%TD*%
D20*
%TO.C,R1*%
X156330000Y-69822500D03*
X156330000Y-65197500D03*
%TD*%
D21*
%TO.C,Q6*%
X169834742Y-29737884D03*
D12*
X170100244Y-27211798D03*
%TD*%
D22*
%TO.C,RV1*%
X150840000Y-68330000D03*
D23*
X151990000Y-72330000D03*
D22*
X153140000Y-68330000D03*
%TD*%
D18*
%TO.C,D2*%
X152335000Y-41800000D03*
X155635000Y-41800000D03*
X155635000Y-36900000D03*
X152335000Y-36900000D03*
%TD*%
D24*
%TO.C,D6*%
X146371342Y-29268154D03*
X146026398Y-25986232D03*
X141153240Y-26498422D03*
X141498184Y-29780344D03*
%TD*%
D13*
%TO.C,Q11*%
X152670000Y-50640000D03*
D12*
X155210000Y-50640000D03*
%TD*%
D17*
%TO.C,Q1*%
X120251444Y-34552859D03*
D12*
X119508820Y-32123845D03*
%TD*%
D25*
%TO.C,D4*%
X166541367Y-29788912D03*
X166886311Y-26506990D03*
X162013153Y-25994800D03*
X161668209Y-29276722D03*
%TD*%
D13*
%TO.C,Q10*%
X152720000Y-45040000D03*
D12*
X155260000Y-45040000D03*
%TD*%
D21*
%TO.C,Q5*%
X158461085Y-28602795D03*
D12*
X158726587Y-26076709D03*
%TD*%
D13*
%TO.C,Q9*%
X152670000Y-33640000D03*
D12*
X155210000Y-33640000D03*
%TD*%
M02*
