%TF.GenerationSoftware,KiCad,Pcbnew,7.0.9*%
%TF.CreationDate,2025-01-15T18:35:07+09:00*%
%TF.ProjectId,line_side_robot2,6c696e65-5f73-4696-9465-5f726f626f74,rev?*%
%TF.SameCoordinates,Original*%
%TF.FileFunction,Legend,Top*%
%TF.FilePolarity,Positive*%
%FSLAX46Y46*%
G04 Gerber Fmt 4.6, Leading zero omitted, Abs format (unit mm)*
G04 Created by KiCad (PCBNEW 7.0.9) date 2025-01-15 18:35:07*
%MOMM*%
%LPD*%
G01*
G04 APERTURE LIST*
%ADD10C,0.150000*%
%ADD11C,0.120000*%
G04 APERTURE END LIST*
D10*
X148388493Y-29463192D02*
X147820194Y-29522922D01*
X148104344Y-29493057D02*
X147999815Y-28498535D01*
X147999815Y-28498535D02*
X147920031Y-28650565D01*
X147920031Y-28650565D02*
X147835270Y-28755236D01*
X147835270Y-28755236D02*
X147745531Y-28812549D01*
X168473888Y-30399076D02*
X167905589Y-30339346D01*
X168189738Y-30369211D02*
X168294267Y-29374689D01*
X168294267Y-29374689D02*
X168184618Y-29506809D01*
X168184618Y-29506809D02*
X168079946Y-29591570D01*
X168079946Y-29591570D02*
X167980253Y-29628973D01*
D11*
%TO.C,J2*%
X155770000Y-71170000D02*
X157100000Y-71170000D01*
X155770000Y-72500000D02*
X155770000Y-71170000D01*
X155770000Y-73770000D02*
X155770000Y-73830000D01*
X155770000Y-73770000D02*
X158430000Y-73770000D01*
X155770000Y-73830000D02*
X158430000Y-73830000D01*
X158430000Y-73770000D02*
X158430000Y-73830000D01*
%TO.C,Q7*%
X175597194Y-31153897D02*
X175746377Y-31199507D01*
X177811995Y-31831030D02*
X177961179Y-31876640D01*
X176692752Y-28108817D02*
G75*
G03*
X175597657Y-31154037I542534J-1914616D01*
G01*
X176507030Y-28712082D02*
G75*
G03*
X175898130Y-30703147I728256J-1311351D01*
G01*
X177963748Y-31334669D02*
G75*
G03*
X178572335Y-29343509I-728462J1311236D01*
G01*
X177960716Y-31876497D02*
G75*
G03*
X178755707Y-28739526I-725430J1853064D01*
G01*
%TO.C,Q12*%
X152415000Y-60824000D02*
X152415000Y-60980000D01*
X152415000Y-63140000D02*
X152415000Y-63296000D01*
X155647334Y-60981392D02*
G75*
G03*
X152415001Y-60824485I-1672334J-1078608D01*
G01*
X155016129Y-60980164D02*
G75*
G03*
X152934040Y-60980001I-1041129J-1079836D01*
G01*
X152934040Y-63139999D02*
G75*
G03*
X155016129Y-63139836I1040960J1079999D01*
G01*
X152415001Y-63295515D02*
G75*
G03*
X155647334Y-63138608I1559999J1235515D01*
G01*
%TO.C,D5*%
X185395433Y-35346837D02*
X178414408Y-33212523D01*
X187003478Y-30087161D02*
X180022453Y-27952847D01*
X180022453Y-27952847D02*
X179686225Y-29052598D01*
%TO.C,Q4*%
X148383223Y-28951119D02*
X148538369Y-28934812D01*
X150686536Y-28709031D02*
X150841681Y-28692724D01*
X148201882Y-25720039D02*
G75*
G03*
X148383706Y-28951067I1247506J-1550428D01*
G01*
X148266639Y-26347914D02*
G75*
G03*
X148484114Y-28418616I1182749J-922553D01*
G01*
X150632281Y-28192834D02*
G75*
G03*
X150414482Y-26122168I-1182893J922367D01*
G01*
X150841200Y-28692775D02*
G75*
G03*
X150347281Y-25494548I-1391812J1422308D01*
G01*
%TO.C,D3*%
X129622010Y-33188557D02*
X122640985Y-35322871D01*
X128013965Y-27928881D02*
X121032940Y-30063195D01*
X121032940Y-30063195D02*
X121369168Y-31162945D01*
%TO.C,Q2*%
X130067260Y-31792372D02*
X130216444Y-31746762D01*
X132282062Y-31115239D02*
X132431245Y-31069629D01*
X129272732Y-28655258D02*
G75*
G03*
X130067723Y-31792229I1520421J-1283907D01*
G01*
X129456104Y-29259241D02*
G75*
G03*
X130064691Y-31250401I1337049J-679924D01*
G01*
X132130309Y-30618879D02*
G75*
G03*
X131521409Y-28627814I-1337156J679714D01*
G01*
X132430782Y-31069769D02*
G75*
G03*
X131335687Y-28024549I-1637629J1130604D01*
G01*
%TO.C,D1*%
X151235000Y-60000000D02*
X151235000Y-52700000D01*
X156735000Y-60000000D02*
X156735000Y-52700000D01*
X156735000Y-52700000D02*
X155585000Y-52700000D01*
%TO.C,Q8*%
X186545300Y-34438328D02*
X186694483Y-34483938D01*
X188760101Y-35115461D02*
X188909285Y-35161071D01*
X187640858Y-31393248D02*
G75*
G03*
X186545763Y-34438468I542534J-1914616D01*
G01*
X187455136Y-31996513D02*
G75*
G03*
X186846236Y-33987578I728256J-1311351D01*
G01*
X188911854Y-34619100D02*
G75*
G03*
X189520441Y-32627940I-728462J1311236D01*
G01*
X188908822Y-35160928D02*
G75*
G03*
X189703813Y-32023957I-725430J1853064D01*
G01*
%TO.C,Q3*%
X137022109Y-30205551D02*
X137177255Y-30189244D01*
X139325422Y-29963463D02*
X139480567Y-29947156D01*
X136840768Y-26974471D02*
G75*
G03*
X137022592Y-30205499I1247506J-1550428D01*
G01*
X136905525Y-27602346D02*
G75*
G03*
X137123000Y-29673048I1182749J-922553D01*
G01*
X139271167Y-29447266D02*
G75*
G03*
X139053368Y-27376600I-1182893J922367D01*
G01*
X139480086Y-29947207D02*
G75*
G03*
X138986167Y-26748980I-1391812J1422308D01*
G01*
%TO.C,J1*%
X159054013Y-74661020D02*
X159054013Y-75931020D01*
X157784013Y-74661020D02*
X159054013Y-74661020D01*
X155624013Y-76973949D02*
X155624013Y-77371020D01*
X154864013Y-76973949D02*
X154864013Y-77371020D01*
X153084013Y-76973949D02*
X153084013Y-77371020D01*
X152324013Y-76973949D02*
X152324013Y-77371020D01*
X150544013Y-76973949D02*
X150544013Y-77371020D01*
X149784013Y-76973949D02*
X149784013Y-77371020D01*
X158164013Y-77041020D02*
X158164013Y-77371020D01*
X157404013Y-77041020D02*
X157404013Y-77371020D01*
X159114013Y-77371020D02*
X148834013Y-77371020D01*
X156514013Y-77371020D02*
X156514013Y-80031020D01*
X153974013Y-77371020D02*
X153974013Y-80031020D01*
X151434013Y-77371020D02*
X151434013Y-80031020D01*
X148834013Y-77371020D02*
X148834013Y-80031020D01*
X159114013Y-80031020D02*
X159114013Y-77371020D01*
X158164013Y-80031020D02*
X158164013Y-86031020D01*
X158104013Y-80031020D02*
X158104013Y-86031020D01*
X157984013Y-80031020D02*
X157984013Y-86031020D01*
X157864013Y-80031020D02*
X157864013Y-86031020D01*
X157744013Y-80031020D02*
X157744013Y-86031020D01*
X157624013Y-80031020D02*
X157624013Y-86031020D01*
X157504013Y-80031020D02*
X157504013Y-86031020D01*
X155624013Y-80031020D02*
X155624013Y-86031020D01*
X153084013Y-80031020D02*
X153084013Y-86031020D01*
X150544013Y-80031020D02*
X150544013Y-86031020D01*
X148834013Y-80031020D02*
X159114013Y-80031020D01*
X158164013Y-86031020D02*
X157404013Y-86031020D01*
X157404013Y-86031020D02*
X157404013Y-80031020D01*
X155624013Y-86031020D02*
X154864013Y-86031020D01*
X154864013Y-86031020D02*
X154864013Y-80031020D01*
X153084013Y-86031020D02*
X152324013Y-86031020D01*
X152324013Y-86031020D02*
X152324013Y-80031020D01*
X150544013Y-86031020D02*
X149784013Y-86031020D01*
X149784013Y-86031020D02*
X149784013Y-80031020D01*
%TO.C,R1*%
X154970000Y-69037064D02*
X154970000Y-65982936D01*
X157690000Y-69037064D02*
X157690000Y-65982936D01*
%TO.C,Q6*%
X168575200Y-29897098D02*
X168730345Y-29913405D01*
X170878512Y-30139186D02*
X171033658Y-30155493D01*
X169069600Y-26698922D02*
G75*
G03*
X168575681Y-29897149I897893J-1775919D01*
G01*
X169002399Y-27326541D02*
G75*
G03*
X168784599Y-29397209I965094J-1148300D01*
G01*
X170932766Y-29622989D02*
G75*
G03*
X171150241Y-27552288I-965273J1148148D01*
G01*
X171033175Y-30155441D02*
G75*
G03*
X171214999Y-26924413I-1065682J1680600D01*
G01*
%TO.C,RV1*%
X149370000Y-72950000D02*
X150750000Y-72950000D01*
X149370000Y-72950000D02*
X149370000Y-67710000D01*
X153230000Y-72950000D02*
X154610000Y-72950000D01*
X154610000Y-72950000D02*
X154610000Y-67710000D01*
X149370000Y-67710000D02*
X149951000Y-67710000D01*
X151730000Y-67710000D02*
X152250000Y-67710000D01*
X154030000Y-67710000D02*
X154610000Y-67710000D01*
%TO.C,D2*%
X151235000Y-43000000D02*
X151235000Y-35700000D01*
X156735000Y-43000000D02*
X156735000Y-35700000D01*
X156735000Y-35700000D02*
X155585000Y-35700000D01*
%TO.C,D6*%
X147679749Y-30236694D02*
X140419739Y-30999752D01*
X147104843Y-24766824D02*
X139844833Y-25529882D01*
X139844833Y-25529882D02*
X139965041Y-26673582D01*
%TO.C,Q11*%
X152380000Y-49404000D02*
X152380000Y-49560000D01*
X152380000Y-51720000D02*
X152380000Y-51876000D01*
X155612334Y-49561392D02*
G75*
G03*
X152380001Y-49404485I-1672334J-1078608D01*
G01*
X154981129Y-49560164D02*
G75*
G03*
X152899040Y-49560001I-1041129J-1079836D01*
G01*
X152899040Y-51719999D02*
G75*
G03*
X154981129Y-51719836I1040960J1079999D01*
G01*
X152380001Y-51875515D02*
G75*
G03*
X155612334Y-51718608I1559999J1235515D01*
G01*
%TO.C,Q1*%
X119154239Y-35191559D02*
X119303423Y-35145949D01*
X121369041Y-34514426D02*
X121518224Y-34468816D01*
X118359711Y-32054445D02*
G75*
G03*
X119154702Y-35191416I1520421J-1283907D01*
G01*
X118543083Y-32658428D02*
G75*
G03*
X119151670Y-34649588I1337049J-679924D01*
G01*
X121217288Y-34018066D02*
G75*
G03*
X120608388Y-32027001I-1337156J679714D01*
G01*
X121517761Y-34468956D02*
G75*
G03*
X120422666Y-31423736I-1637629J1130604D01*
G01*
%TO.C,D4*%
X167619812Y-31008320D02*
X160359802Y-30245262D01*
X168194718Y-25538450D02*
X160934708Y-24775392D01*
X160934708Y-24775392D02*
X160814501Y-25919092D01*
%TO.C,Q10*%
X152430000Y-43804000D02*
X152430000Y-43960000D01*
X152430000Y-46120000D02*
X152430000Y-46276000D01*
X155662334Y-43961392D02*
G75*
G03*
X152430001Y-43804485I-1672334J-1078608D01*
G01*
X155031129Y-43960164D02*
G75*
G03*
X152949040Y-43960001I-1041129J-1079836D01*
G01*
X152949040Y-46119999D02*
G75*
G03*
X155031129Y-46119836I1040960J1079999D01*
G01*
X152430001Y-46275515D02*
G75*
G03*
X155662334Y-46118608I1559999J1235515D01*
G01*
%TO.C,Q5*%
X157201543Y-28762009D02*
X157356688Y-28778316D01*
X159504855Y-29004097D02*
X159660001Y-29020404D01*
X157695943Y-25563833D02*
G75*
G03*
X157202024Y-28762060I897893J-1775919D01*
G01*
X157628742Y-26191452D02*
G75*
G03*
X157410942Y-28262120I965094J-1148300D01*
G01*
X159559109Y-28487900D02*
G75*
G03*
X159776584Y-26417199I-965273J1148148D01*
G01*
X159659518Y-29020352D02*
G75*
G03*
X159841342Y-25789324I-1065682J1680600D01*
G01*
%TO.C,Q9*%
X152380000Y-32404000D02*
X152380000Y-32560000D01*
X152380000Y-34720000D02*
X152380000Y-34876000D01*
X155612334Y-32561392D02*
G75*
G03*
X152380001Y-32404485I-1672334J-1078608D01*
G01*
X154981129Y-32560164D02*
G75*
G03*
X152899040Y-32560001I-1041129J-1079836D01*
G01*
X152899040Y-34719999D02*
G75*
G03*
X154981129Y-34719836I1040960J1079999D01*
G01*
X152380001Y-34875515D02*
G75*
G03*
X155612334Y-34718608I1559999J1235515D01*
G01*
%TD*%
M02*
