%TF.GenerationSoftware,KiCad,Pcbnew,7.0.9*%
%TF.CreationDate,2025-05-06T13:12:28+09:00*%
%TF.ProjectId,Line_side&back,4c696e65-5f73-4696-9465-266261636b2e,rev?*%
%TF.SameCoordinates,Original*%
%TF.FileFunction,Copper,L2,Bot*%
%TF.FilePolarity,Positive*%
%FSLAX46Y46*%
G04 Gerber Fmt 4.6, Leading zero omitted, Abs format (unit mm)*
G04 Created by KiCad (PCBNEW 7.0.9) date 2025-05-06 13:12:28*
%MOMM*%
%LPD*%
G01*
G04 APERTURE LIST*
G04 Aperture macros list*
%AMRotRect*
0 Rectangle, with rotation*
0 The origin of the aperture is its center*
0 $1 length*
0 $2 width*
0 $3 Rotation angle, in degrees counterclockwise*
0 Add horizontal line*
21,1,$1,$2,0,0,$3*%
G04 Aperture macros list end*
%TA.AperFunction,ComponentPad*%
%ADD10RotRect,1.800000X1.800000X81.500000*%
%TD*%
%TA.AperFunction,ComponentPad*%
%ADD11C,1.800000*%
%TD*%
%TA.AperFunction,ComponentPad*%
%ADD12RotRect,1.800000X1.800000X253.000000*%
%TD*%
%TA.AperFunction,ComponentPad*%
%ADD13R,1.700000X1.700000*%
%TD*%
%TA.AperFunction,ComponentPad*%
%ADD14O,1.700000X1.700000*%
%TD*%
%TA.AperFunction,ComponentPad*%
%ADD15R,1.800000X1.800000*%
%TD*%
%TA.AperFunction,ComponentPad*%
%ADD16RotRect,1.800000X1.800000X107.000000*%
%TD*%
%TA.AperFunction,ComponentPad*%
%ADD17RotRect,1.800000X1.800000X287.000000*%
%TD*%
%TA.AperFunction,ComponentPad*%
%ADD18RotRect,1.800000X1.800000X98.500000*%
%TD*%
%TA.AperFunction,ComponentPad*%
%ADD19RotRect,1.800000X1.800000X73.000000*%
%TD*%
%TA.AperFunction,ComponentPad*%
%ADD20RotRect,1.800000X1.800000X278.500000*%
%TD*%
%TA.AperFunction,ComponentPad*%
%ADD21RotRect,1.800000X1.800000X261.500000*%
%TD*%
%TA.AperFunction,ViaPad*%
%ADD22C,0.800000*%
%TD*%
%TA.AperFunction,Conductor*%
%ADD23C,0.700000*%
%TD*%
G04 APERTURE END LIST*
D10*
%TO.P,D10,1,K*%
%TO.N,GND*%
X131534026Y-152678362D03*
D11*
%TO.P,D10,2,A*%
%TO.N,Net-(D10-A)*%
X131909462Y-150166262D03*
%TD*%
D12*
%TO.P,Q3,1,C*%
%TO.N,+3.3V*%
X117909496Y-146280516D03*
D11*
%TO.P,Q3,2,E*%
%TO.N,Net-(Q1-E)*%
X117166872Y-148709530D03*
%TD*%
D13*
%TO.P,J1,1,Pin_1*%
%TO.N,GND*%
X147360000Y-116860000D03*
D14*
%TO.P,J1,2,Pin_2*%
%TO.N,+3.3V*%
X149900000Y-116860000D03*
%TO.P,J1,3,Pin_3*%
%TO.N,Data_Line_sensor*%
X152440000Y-116860000D03*
%TO.P,J1,4,Pin_4*%
%TO.N,+5V*%
X154980000Y-116860000D03*
%TD*%
D15*
%TO.P,Q6,1,C*%
%TO.N,+3.3V*%
X155840000Y-151920000D03*
D11*
%TO.P,Q6,2,E*%
%TO.N,Net-(Q1-E)*%
X155840000Y-154460000D03*
%TD*%
D16*
%TO.P,D2,1,K*%
%TO.N,GND*%
X180451331Y-150092653D03*
D11*
%TO.P,D2,2,A*%
%TO.N,Net-(D2-A)*%
X179708707Y-147663639D03*
%TD*%
D17*
%TO.P,Q4,1,C*%
%TO.N,+3.3V*%
X184251947Y-146243260D03*
D11*
%TO.P,Q4,2,E*%
%TO.N,Net-(Q1-E)*%
X184994571Y-148672274D03*
%TD*%
D15*
%TO.P,D6,1,K*%
%TO.N,GND*%
X152365000Y-132330000D03*
D11*
%TO.P,D6,2,A*%
%TO.N,Net-(D6-A)*%
X149825000Y-132330000D03*
%TD*%
D18*
%TO.P,D3,1,K*%
%TO.N,GND*%
X170632337Y-152649416D03*
D11*
%TO.P,D3,2,A*%
%TO.N,Net-(D3-A)*%
X170256901Y-150137316D03*
%TD*%
D17*
%TO.P,Q8,1,C*%
%TO.N,+3.3V*%
X175163336Y-149042841D03*
D11*
%TO.P,Q8,2,E*%
%TO.N,Net-(Q1-E)*%
X175905960Y-151471855D03*
%TD*%
D19*
%TO.P,D8,1,K*%
%TO.N,GND*%
X121706396Y-150107858D03*
D11*
%TO.P,D8,2,A*%
%TO.N,Net-(D8-A)*%
X122449020Y-147678844D03*
%TD*%
D15*
%TO.P,Q16,1,C*%
%TO.N,+3.3V*%
X152345000Y-127660000D03*
D11*
%TO.P,Q16,2,E*%
%TO.N,Net-(Q1-E)*%
X149805000Y-127660000D03*
%TD*%
D15*
%TO.P,Q7,1,C*%
%TO.N,+3.3V*%
X152355000Y-136980000D03*
D11*
%TO.P,Q7,2,E*%
%TO.N,Net-(Q1-E)*%
X149815000Y-136980000D03*
%TD*%
D10*
%TO.P,D1,1,K*%
%TO.N,GND*%
X140942523Y-154064249D03*
D11*
%TO.P,D1,2,A*%
%TO.N,Net-(D1-A)*%
X141317959Y-151552149D03*
%TD*%
D15*
%TO.P,D5,1,K*%
%TO.N,GND*%
X151080000Y-154490000D03*
D11*
%TO.P,D5,2,A*%
%TO.N,Net-(D5-A)*%
X151080000Y-151950000D03*
%TD*%
D20*
%TO.P,Q10,1,C*%
%TO.N,+3.3V*%
X165570444Y-150847823D03*
D11*
%TO.P,Q10,2,E*%
%TO.N,Net-(Q1-E)*%
X165945880Y-153359923D03*
%TD*%
D15*
%TO.P,D7,1,K*%
%TO.N,GND*%
X152325000Y-141640000D03*
D11*
%TO.P,D7,2,A*%
%TO.N,Net-(D7-A)*%
X149785000Y-141640000D03*
%TD*%
D21*
%TO.P,Q5,1,C*%
%TO.N,+3.3V*%
X136605809Y-150878247D03*
D11*
%TO.P,Q5,2,E*%
%TO.N,Net-(Q1-E)*%
X136230373Y-153390347D03*
%TD*%
D18*
%TO.P,D4,1,K*%
%TO.N,GND*%
X161229752Y-154074864D03*
D11*
%TO.P,D4,2,A*%
%TO.N,Net-(D4-A)*%
X160854316Y-151562764D03*
%TD*%
D15*
%TO.P,Q1,1,C*%
%TO.N,+3.3V*%
X146330000Y-151940000D03*
D11*
%TO.P,Q1,2,E*%
%TO.N,Net-(Q1-E)*%
X146330000Y-154480000D03*
%TD*%
D15*
%TO.P,Q15,1,C*%
%TO.N,+3.3V*%
X152330000Y-146380000D03*
D11*
%TO.P,Q15,2,E*%
%TO.N,Net-(Q1-E)*%
X149790000Y-146380000D03*
%TD*%
D12*
%TO.P,Q14,1,C*%
%TO.N,+3.3V*%
X127009802Y-149041844D03*
D11*
%TO.P,Q14,2,E*%
%TO.N,Net-(Q1-E)*%
X126267178Y-151470858D03*
%TD*%
D22*
%TO.N,GND*%
X152450000Y-125730000D03*
X155350000Y-141270000D03*
X155400000Y-131670000D03*
X152390000Y-134210000D03*
%TO.N,Net-(Q1-E)*%
X147160000Y-149300000D03*
%TD*%
D23*
%TO.N,+3.3V*%
X154350000Y-125655000D02*
X152345000Y-127660000D01*
X168096189Y-148322078D02*
X165570444Y-150847823D01*
X152330000Y-146380000D02*
X151890000Y-146380000D01*
X157647236Y-150112764D02*
X155840000Y-151920000D01*
X134443824Y-148716262D02*
X127335384Y-148716262D01*
X152355000Y-136980000D02*
X153815000Y-135520000D01*
X165570444Y-150847823D02*
X164835385Y-150112764D01*
X146330000Y-151940000D02*
X144492149Y-150102149D01*
X183531184Y-145522497D02*
X178683680Y-145522497D01*
X149900000Y-116860000D02*
X150410000Y-116860000D01*
X178683680Y-145522497D02*
X175163336Y-149042841D01*
X127009802Y-149041844D02*
X123527711Y-145559753D01*
X152330000Y-146380000D02*
X153775000Y-144935000D01*
X153815000Y-135520000D02*
X153815000Y-129130000D01*
X118630259Y-145559753D02*
X117909496Y-146280516D01*
X184251947Y-146243260D02*
X183531184Y-145522497D01*
X127335384Y-148716262D02*
X127009802Y-149041844D01*
X150410000Y-116860000D02*
X154350000Y-120800000D01*
X155840000Y-151920000D02*
X155840000Y-149890000D01*
X136605809Y-150878247D02*
X134443824Y-148716262D01*
X164835385Y-150112764D02*
X157647236Y-150112764D01*
X153775000Y-144935000D02*
X153775000Y-138400000D01*
X175163336Y-149042841D02*
X174442573Y-148322078D01*
X151890000Y-146380000D02*
X146330000Y-151940000D01*
X153775000Y-138400000D02*
X152355000Y-136980000D01*
X144492149Y-150102149D02*
X137381907Y-150102149D01*
X155840000Y-149890000D02*
X152330000Y-146380000D01*
X154350000Y-120800000D02*
X154350000Y-125655000D01*
X153815000Y-129130000D02*
X152345000Y-127660000D01*
X174442573Y-148322078D02*
X168096189Y-148322078D01*
X123527711Y-145559753D02*
X118630259Y-145559753D01*
X137381907Y-150102149D02*
X136605809Y-150878247D01*
%TO.N,Net-(Q1-E)*%
X149805000Y-127660000D02*
X148375000Y-129090000D01*
X147190000Y-148980000D02*
X147160000Y-149300000D01*
X148375000Y-129090000D02*
X148375000Y-135540000D01*
X147160000Y-149300000D02*
X147190000Y-149190000D01*
X149815000Y-136980000D02*
X148335000Y-138460000D01*
X148335000Y-138460000D02*
X148335000Y-144925000D01*
X148375000Y-135540000D02*
X149815000Y-136980000D01*
X148335000Y-144925000D02*
X149790000Y-146380000D01*
X149790000Y-146380000D02*
X147190000Y-148980000D01*
%TD*%
%TA.AperFunction,Conductor*%
%TO.N,GND*%
G36*
X147610000Y-118210000D02*
G01*
X148257828Y-118210000D01*
X148257844Y-118209999D01*
X148317372Y-118203598D01*
X148317379Y-118203596D01*
X148452086Y-118153354D01*
X148452093Y-118153350D01*
X148567187Y-118067190D01*
X148567190Y-118067187D01*
X148653350Y-117952093D01*
X148653354Y-117952086D01*
X148702422Y-117820529D01*
X148744293Y-117764595D01*
X148809757Y-117740178D01*
X148878030Y-117755030D01*
X148906285Y-117776181D01*
X149028599Y-117898495D01*
X149105135Y-117952086D01*
X149222165Y-118034032D01*
X149222167Y-118034033D01*
X149222170Y-118034035D01*
X149436337Y-118133903D01*
X149664592Y-118195063D01*
X149835319Y-118210000D01*
X149899999Y-118215659D01*
X149900000Y-118215659D01*
X149900001Y-118215659D01*
X149964681Y-118210000D01*
X150135408Y-118195063D01*
X150363663Y-118133903D01*
X150365068Y-118133248D01*
X150365746Y-118133144D01*
X150368749Y-118132052D01*
X150368968Y-118132655D01*
X150434146Y-118122753D01*
X150497930Y-118151271D01*
X150505158Y-118157947D01*
X153463181Y-121115970D01*
X153496666Y-121177293D01*
X153499500Y-121203651D01*
X153499500Y-125251348D01*
X153479815Y-125318387D01*
X153463181Y-125339029D01*
X152579028Y-126223181D01*
X152517705Y-126256666D01*
X152491347Y-126259500D01*
X151397129Y-126259500D01*
X151397123Y-126259501D01*
X151337516Y-126265908D01*
X151202671Y-126316202D01*
X151202664Y-126316206D01*
X151087455Y-126402452D01*
X151087452Y-126402455D01*
X151001206Y-126517664D01*
X151001203Y-126517670D01*
X150972544Y-126594508D01*
X150930672Y-126650441D01*
X150865208Y-126674858D01*
X150796935Y-126660006D01*
X150765135Y-126635158D01*
X150756784Y-126626087D01*
X150756778Y-126626082D01*
X150756777Y-126626081D01*
X150573634Y-126483535D01*
X150573628Y-126483531D01*
X150369504Y-126373064D01*
X150369495Y-126373061D01*
X150149984Y-126297702D01*
X149959450Y-126265908D01*
X149921049Y-126259500D01*
X149688951Y-126259500D01*
X149650550Y-126265908D01*
X149460015Y-126297702D01*
X149240504Y-126373061D01*
X149240495Y-126373064D01*
X149036371Y-126483531D01*
X149036365Y-126483535D01*
X148853222Y-126626081D01*
X148853219Y-126626084D01*
X148853216Y-126626086D01*
X148853216Y-126626087D01*
X148808319Y-126674858D01*
X148696016Y-126796852D01*
X148569075Y-126991151D01*
X148475842Y-127203699D01*
X148418866Y-127428691D01*
X148418864Y-127428702D01*
X148399700Y-127659993D01*
X148399700Y-127659995D01*
X148410450Y-127789736D01*
X148396368Y-127858172D01*
X148374554Y-127887656D01*
X147799830Y-128462380D01*
X147796127Y-128465794D01*
X147753898Y-128501665D01*
X147704909Y-128566108D01*
X147654155Y-128629249D01*
X147653649Y-128630041D01*
X147642469Y-128648066D01*
X147641944Y-128648938D01*
X147607939Y-128722439D01*
X147571963Y-128794980D01*
X147571582Y-128796017D01*
X147564580Y-128815906D01*
X147564267Y-128816833D01*
X147546858Y-128895926D01*
X147527314Y-128974513D01*
X147527191Y-128975416D01*
X147524607Y-128996516D01*
X147524500Y-128997501D01*
X147524500Y-129078468D01*
X147522306Y-129159438D01*
X147522389Y-129160447D01*
X147524500Y-129182649D01*
X147524500Y-135502911D01*
X147524295Y-135507945D01*
X147519798Y-135563163D01*
X147530729Y-135643392D01*
X147539486Y-135723913D01*
X147539710Y-135724930D01*
X147544525Y-135745473D01*
X147544773Y-135746470D01*
X147572700Y-135822486D01*
X147598557Y-135899223D01*
X147599001Y-135900185D01*
X147608146Y-135919266D01*
X147608564Y-135920109D01*
X147608567Y-135920114D01*
X147608568Y-135920116D01*
X147634741Y-135961064D01*
X147652184Y-135988353D01*
X147693930Y-136057736D01*
X147694538Y-136058536D01*
X147707578Y-136075216D01*
X147708201Y-136075991D01*
X147765458Y-136133248D01*
X147821149Y-136192040D01*
X147821950Y-136192720D01*
X147839118Y-136206907D01*
X148384554Y-136752342D01*
X148418039Y-136813665D01*
X148420450Y-136850262D01*
X148409700Y-136980000D01*
X148420450Y-137109735D01*
X148406368Y-137178171D01*
X148384554Y-137207655D01*
X147759830Y-137832380D01*
X147756127Y-137835794D01*
X147722909Y-137864011D01*
X147713898Y-137871665D01*
X147664909Y-137936108D01*
X147614155Y-137999249D01*
X147613649Y-138000041D01*
X147602469Y-138018066D01*
X147601944Y-138018938D01*
X147567939Y-138092439D01*
X147531963Y-138164980D01*
X147531582Y-138166017D01*
X147524580Y-138185906D01*
X147524267Y-138186833D01*
X147506858Y-138265926D01*
X147487314Y-138344513D01*
X147487191Y-138345416D01*
X147484607Y-138366516D01*
X147484500Y-138367501D01*
X147484500Y-138448468D01*
X147482306Y-138529438D01*
X147482389Y-138530447D01*
X147484500Y-138552649D01*
X147484500Y-144887911D01*
X147484295Y-144892945D01*
X147479798Y-144948163D01*
X147490729Y-145028392D01*
X147499486Y-145108913D01*
X147499710Y-145109930D01*
X147504525Y-145130473D01*
X147504773Y-145131470D01*
X147532700Y-145207486D01*
X147553077Y-145267962D01*
X147558557Y-145284223D01*
X147559001Y-145285185D01*
X147568146Y-145304266D01*
X147568564Y-145305109D01*
X147568567Y-145305114D01*
X147568568Y-145305116D01*
X147610323Y-145370441D01*
X147612184Y-145373353D01*
X147653930Y-145442736D01*
X147654538Y-145443536D01*
X147667578Y-145460216D01*
X147668201Y-145460991D01*
X147725458Y-145518248D01*
X147781149Y-145577040D01*
X147781950Y-145577720D01*
X147799118Y-145591907D01*
X148084070Y-145876859D01*
X148359554Y-146152342D01*
X148393039Y-146213665D01*
X148395450Y-146250262D01*
X148384700Y-146380000D01*
X148395450Y-146509736D01*
X148381368Y-146578172D01*
X148359554Y-146607656D01*
X146648955Y-148318254D01*
X146632387Y-148332155D01*
X146626528Y-148336256D01*
X146626526Y-148336257D01*
X146576005Y-148391205D01*
X146555997Y-148411214D01*
X146555991Y-148411221D01*
X146546084Y-148423545D01*
X146543402Y-148426663D01*
X146501315Y-148472438D01*
X146491696Y-148488977D01*
X146481159Y-148504314D01*
X146469163Y-148519238D01*
X146469157Y-148519247D01*
X146441524Y-148574964D01*
X146439574Y-148578589D01*
X146408304Y-148632353D01*
X146402459Y-148650590D01*
X146395468Y-148667830D01*
X146386964Y-148684978D01*
X146386962Y-148684982D01*
X146380055Y-148712759D01*
X146371951Y-148745343D01*
X146370830Y-148749286D01*
X146351847Y-148808518D01*
X146351847Y-148808521D01*
X146350059Y-148827580D01*
X146346939Y-148845914D01*
X146344602Y-148855315D01*
X146342316Y-148864507D01*
X146342315Y-148864510D01*
X146341658Y-148888768D01*
X146333426Y-148925080D01*
X146334829Y-148925536D01*
X146302207Y-149025937D01*
X146274326Y-149111744D01*
X146254540Y-149300000D01*
X146274326Y-149488256D01*
X146274327Y-149488259D01*
X146332818Y-149668277D01*
X146332821Y-149668284D01*
X146427467Y-149832216D01*
X146484904Y-149896006D01*
X146554129Y-149972888D01*
X146707265Y-150084148D01*
X146707267Y-150084149D01*
X146707270Y-150084151D01*
X146733276Y-150095729D01*
X146786511Y-150140978D01*
X146806833Y-150207827D01*
X146787788Y-150275051D01*
X146770520Y-150296689D01*
X146564029Y-150503181D01*
X146502706Y-150536666D01*
X146476348Y-150539500D01*
X146183651Y-150539500D01*
X146116612Y-150519815D01*
X146095970Y-150503181D01*
X145627360Y-150034571D01*
X145119756Y-149526967D01*
X145116353Y-149523275D01*
X145104979Y-149509884D01*
X145080486Y-149481049D01*
X145052086Y-149459460D01*
X145016040Y-149432058D01*
X144952908Y-149381311D01*
X144952907Y-149381310D01*
X144952903Y-149381307D01*
X144952897Y-149381304D01*
X144952003Y-149380732D01*
X144934168Y-149369669D01*
X144933213Y-149369095D01*
X144859709Y-149335088D01*
X144787176Y-149299115D01*
X144786130Y-149298731D01*
X144766309Y-149291751D01*
X144765313Y-149291415D01*
X144686222Y-149274007D01*
X144607643Y-149254464D01*
X144606733Y-149254340D01*
X144585655Y-149251759D01*
X144584650Y-149251650D01*
X144584646Y-149251649D01*
X144584641Y-149251649D01*
X144503680Y-149251649D01*
X144422713Y-149249455D01*
X144421669Y-149249540D01*
X144399501Y-149251649D01*
X137418994Y-149251649D01*
X137413959Y-149251444D01*
X137358742Y-149246947D01*
X137358735Y-149246948D01*
X137278514Y-149257878D01*
X137197999Y-149266634D01*
X137197038Y-149266846D01*
X137176378Y-149271687D01*
X137175441Y-149271920D01*
X137099420Y-149299849D01*
X137022691Y-149325702D01*
X137021827Y-149326102D01*
X137002628Y-149335301D01*
X137001788Y-149335718D01*
X136933566Y-149379325D01*
X136864175Y-149421076D01*
X136863396Y-149421668D01*
X136846671Y-149434744D01*
X136845913Y-149435353D01*
X136835534Y-149445732D01*
X136774209Y-149479213D01*
X136729531Y-149480683D01*
X136395510Y-149430763D01*
X136332116Y-149401386D01*
X136326157Y-149395806D01*
X135707269Y-148776918D01*
X135071431Y-148141080D01*
X135068028Y-148137388D01*
X135032160Y-148095161D01*
X134967715Y-148046171D01*
X134904583Y-147995424D01*
X134904582Y-147995423D01*
X134904578Y-147995420D01*
X134904572Y-147995417D01*
X134903678Y-147994845D01*
X134885843Y-147983782D01*
X134884888Y-147983208D01*
X134811384Y-147949201D01*
X134738851Y-147913228D01*
X134737805Y-147912844D01*
X134717984Y-147905864D01*
X134716988Y-147905528D01*
X134637897Y-147888120D01*
X134559318Y-147868577D01*
X134558408Y-147868453D01*
X134537330Y-147865872D01*
X134536325Y-147865763D01*
X134536321Y-147865762D01*
X134536316Y-147865762D01*
X134455355Y-147865762D01*
X134374388Y-147863568D01*
X134373344Y-147863653D01*
X134351176Y-147865762D01*
X127971679Y-147865762D01*
X127935425Y-147860344D01*
X127933305Y-147859696D01*
X127504392Y-147728564D01*
X126662419Y-147471147D01*
X126610992Y-147440246D01*
X125404396Y-146233650D01*
X124155318Y-144984571D01*
X124151915Y-144980879D01*
X124116047Y-144938652D01*
X124051602Y-144889662D01*
X123988470Y-144838915D01*
X123988469Y-144838914D01*
X123988465Y-144838911D01*
X123988459Y-144838908D01*
X123987565Y-144838336D01*
X123969730Y-144827273D01*
X123968775Y-144826699D01*
X123895271Y-144792692D01*
X123822738Y-144756719D01*
X123821692Y-144756335D01*
X123801871Y-144749355D01*
X123800875Y-144749019D01*
X123721784Y-144731611D01*
X123643205Y-144712068D01*
X123642295Y-144711944D01*
X123621217Y-144709363D01*
X123620212Y-144709254D01*
X123620208Y-144709253D01*
X123620203Y-144709253D01*
X123539242Y-144709253D01*
X123458275Y-144707059D01*
X123457231Y-144707144D01*
X123435063Y-144709253D01*
X118667346Y-144709253D01*
X118662311Y-144709048D01*
X118607094Y-144704551D01*
X118607087Y-144704552D01*
X118526866Y-144715482D01*
X118446351Y-144724238D01*
X118445390Y-144724450D01*
X118424730Y-144729291D01*
X118423793Y-144729524D01*
X118347772Y-144757453D01*
X118271043Y-144783306D01*
X118270179Y-144783706D01*
X118250971Y-144792910D01*
X118250144Y-144793319D01*
X118181903Y-144836938D01*
X118160509Y-144849809D01*
X118092917Y-144867503D01*
X118060330Y-144862139D01*
X117412509Y-144664081D01*
X117353629Y-144652781D01*
X117353628Y-144652781D01*
X117317712Y-144654948D01*
X117209964Y-144661452D01*
X117209959Y-144661453D01*
X117074572Y-144710246D01*
X117010029Y-144757453D01*
X116958403Y-144795212D01*
X116958402Y-144795213D01*
X116958401Y-144795213D01*
X116870879Y-144909461D01*
X116847322Y-144964593D01*
X116847319Y-144964603D01*
X116293061Y-146777502D01*
X116281761Y-146836382D01*
X116290432Y-146980047D01*
X116290433Y-146980052D01*
X116339226Y-147115439D01*
X116339227Y-147115441D01*
X116339228Y-147115442D01*
X116424192Y-147231609D01*
X116424193Y-147231609D01*
X116424193Y-147231610D01*
X116492112Y-147283640D01*
X116533360Y-147340035D01*
X116537570Y-147409778D01*
X116503406Y-147470726D01*
X116475723Y-147491130D01*
X116398248Y-147533058D01*
X116398237Y-147533065D01*
X116215094Y-147675611D01*
X116215091Y-147675614D01*
X116215088Y-147675616D01*
X116215088Y-147675617D01*
X116212112Y-147678850D01*
X116057888Y-147846382D01*
X115930947Y-148040681D01*
X115837714Y-148253229D01*
X115780738Y-148478221D01*
X115780736Y-148478232D01*
X115761572Y-148709523D01*
X115761572Y-148709536D01*
X115780736Y-148940827D01*
X115780738Y-148940838D01*
X115837714Y-149165830D01*
X115930947Y-149378378D01*
X116057888Y-149572677D01*
X116057891Y-149572681D01*
X116057893Y-149572683D01*
X116215088Y-149743443D01*
X116215091Y-149743445D01*
X116215094Y-149743448D01*
X116398237Y-149885994D01*
X116398243Y-149885998D01*
X116398246Y-149886000D01*
X116602369Y-149996466D01*
X116713365Y-150034571D01*
X116821887Y-150071827D01*
X116821889Y-150071827D01*
X116821891Y-150071828D01*
X117050823Y-150110030D01*
X117050824Y-150110030D01*
X117282920Y-150110030D01*
X117282921Y-150110030D01*
X117511853Y-150071828D01*
X117731375Y-149996466D01*
X117935498Y-149886000D01*
X118118656Y-149743443D01*
X118275851Y-149572683D01*
X118278555Y-149568545D01*
X118299331Y-149536744D01*
X118402796Y-149378379D01*
X118496029Y-149165830D01*
X118553006Y-148940835D01*
X118554274Y-148925536D01*
X118572172Y-148709536D01*
X118572172Y-148709523D01*
X118553007Y-148478232D01*
X118553005Y-148478221D01*
X118496029Y-148253229D01*
X118419260Y-148078215D01*
X118410357Y-148008915D01*
X118440334Y-147945803D01*
X118499673Y-147908916D01*
X118525338Y-147904631D01*
X118609025Y-147899580D01*
X118609028Y-147899578D01*
X118609032Y-147899578D01*
X118744419Y-147850785D01*
X118744418Y-147850785D01*
X118744422Y-147850784D01*
X118860589Y-147765820D01*
X118948112Y-147651570D01*
X118971670Y-147596438D01*
X119307495Y-146497997D01*
X119345920Y-146439644D01*
X119409794Y-146411327D01*
X119426077Y-146410253D01*
X121437551Y-146410253D01*
X121504590Y-146429938D01*
X121550345Y-146482742D01*
X121560289Y-146551900D01*
X121531264Y-146615456D01*
X121513715Y-146632104D01*
X121497236Y-146644931D01*
X121481957Y-146661528D01*
X121340036Y-146815696D01*
X121213095Y-147009995D01*
X121119862Y-147222543D01*
X121062886Y-147447535D01*
X121062884Y-147447546D01*
X121043720Y-147678837D01*
X121043720Y-147678850D01*
X121062884Y-147910141D01*
X121062886Y-147910152D01*
X121119862Y-148135144D01*
X121196845Y-148310646D01*
X121205748Y-148379946D01*
X121175771Y-148443058D01*
X121116431Y-148479945D01*
X121090761Y-148484231D01*
X121006969Y-148489289D01*
X120871706Y-148538036D01*
X120755657Y-148622912D01*
X120755654Y-148622915D01*
X120668219Y-148737050D01*
X120644687Y-148792123D01*
X120644684Y-148792134D01*
X120440660Y-149459460D01*
X121420687Y-149759084D01*
X121350598Y-149824118D01*
X121282771Y-149941598D01*
X121252586Y-150073850D01*
X121262723Y-150209123D01*
X121273655Y-150236978D01*
X120294475Y-149937612D01*
X120090451Y-150604948D01*
X120079163Y-150663766D01*
X120087827Y-150807284D01*
X120136574Y-150942547D01*
X120221450Y-151058596D01*
X120221453Y-151058599D01*
X120335588Y-151146034D01*
X120390661Y-151169566D01*
X120390672Y-151169569D01*
X121057998Y-151373591D01*
X121357913Y-150392617D01*
X121396861Y-150441457D01*
X121508943Y-150517874D01*
X121638569Y-150557858D01*
X121740120Y-150557858D01*
X121834591Y-150543618D01*
X121536150Y-151519776D01*
X122203486Y-151723802D01*
X122262304Y-151735090D01*
X122405822Y-151726426D01*
X122541085Y-151677679D01*
X122657134Y-151592803D01*
X122657137Y-151592800D01*
X122744572Y-151478665D01*
X122768104Y-151423592D01*
X122768107Y-151423581D01*
X122972130Y-150756254D01*
X121992105Y-150456629D01*
X122062194Y-150391598D01*
X122130021Y-150274118D01*
X122160206Y-150141866D01*
X122150069Y-150006593D01*
X122139136Y-149978736D01*
X123118314Y-150278101D01*
X123322340Y-149610767D01*
X123333628Y-149551949D01*
X123324964Y-149408431D01*
X123276217Y-149273168D01*
X123191341Y-149157119D01*
X123191337Y-149157115D01*
X123123297Y-149104992D01*
X123082050Y-149048597D01*
X123077840Y-148978854D01*
X123112004Y-148917907D01*
X123139687Y-148897503D01*
X123217646Y-148855314D01*
X123229716Y-148845920D01*
X123318355Y-148776929D01*
X123400804Y-148712757D01*
X123557999Y-148541997D01*
X123684944Y-148347693D01*
X123778177Y-148135144D01*
X123835154Y-147910149D01*
X123835155Y-147910141D01*
X123854320Y-147678850D01*
X123854320Y-147678837D01*
X123835155Y-147447546D01*
X123835151Y-147447526D01*
X123817675Y-147378514D01*
X123820299Y-147308693D01*
X123860255Y-147251376D01*
X123924856Y-147224759D01*
X123993592Y-147237293D01*
X124025561Y-147260392D01*
X125553902Y-148788733D01*
X125587387Y-148850056D01*
X125584803Y-148912668D01*
X125393367Y-149538830D01*
X125382067Y-149597710D01*
X125390738Y-149741375D01*
X125390739Y-149741380D01*
X125439532Y-149876767D01*
X125439533Y-149876769D01*
X125439534Y-149876770D01*
X125524498Y-149992937D01*
X125524499Y-149992937D01*
X125524499Y-149992938D01*
X125592418Y-150044968D01*
X125633666Y-150101363D01*
X125637876Y-150171106D01*
X125603712Y-150232054D01*
X125576029Y-150252458D01*
X125498554Y-150294386D01*
X125498543Y-150294393D01*
X125315400Y-150436939D01*
X125315397Y-150436942D01*
X125315394Y-150436944D01*
X125315394Y-150436945D01*
X125272201Y-150483865D01*
X125158194Y-150607710D01*
X125031253Y-150802009D01*
X124938020Y-151014557D01*
X124881044Y-151239549D01*
X124881042Y-151239560D01*
X124861878Y-151470851D01*
X124861878Y-151470864D01*
X124881042Y-151702155D01*
X124881044Y-151702166D01*
X124938020Y-151927158D01*
X125031253Y-152139706D01*
X125158194Y-152334005D01*
X125158197Y-152334009D01*
X125158199Y-152334011D01*
X125315394Y-152504771D01*
X125315397Y-152504773D01*
X125315400Y-152504776D01*
X125498543Y-152647322D01*
X125498549Y-152647326D01*
X125498552Y-152647328D01*
X125702675Y-152757794D01*
X125806925Y-152793583D01*
X125922193Y-152833155D01*
X125922195Y-152833155D01*
X125922197Y-152833156D01*
X126151129Y-152871358D01*
X126151130Y-152871358D01*
X126383226Y-152871358D01*
X126383227Y-152871358D01*
X126612159Y-152833156D01*
X126831681Y-152757794D01*
X127035804Y-152647328D01*
X127037945Y-152645662D01*
X127148222Y-152559830D01*
X127218962Y-152504771D01*
X127376157Y-152334011D01*
X127503102Y-152139707D01*
X127596335Y-151927158D01*
X127653312Y-151702163D01*
X127655341Y-151677679D01*
X127672478Y-151470864D01*
X127672478Y-151470851D01*
X127653313Y-151239560D01*
X127653311Y-151239549D01*
X127596335Y-151014557D01*
X127519566Y-150839543D01*
X127510663Y-150770243D01*
X127540640Y-150707131D01*
X127599979Y-150670244D01*
X127625644Y-150665959D01*
X127709331Y-150660908D01*
X127709334Y-150660906D01*
X127709338Y-150660906D01*
X127826526Y-150618671D01*
X127844728Y-150612112D01*
X127960895Y-150527148D01*
X128048418Y-150412898D01*
X128071976Y-150357766D01*
X128286983Y-149654506D01*
X128325408Y-149596153D01*
X128389282Y-149567836D01*
X128405565Y-149566762D01*
X130457253Y-149566762D01*
X130524292Y-149586447D01*
X130570047Y-149639251D01*
X130579991Y-149708409D01*
X130577458Y-149721203D01*
X130523330Y-149934944D01*
X130523326Y-149934964D01*
X130504162Y-150166255D01*
X130504162Y-150166268D01*
X130523326Y-150397559D01*
X130523328Y-150397570D01*
X130580304Y-150622562D01*
X130673537Y-150835110D01*
X130764406Y-150974196D01*
X130784594Y-151041085D01*
X130765413Y-151108271D01*
X130712954Y-151154421D01*
X130686283Y-151163327D01*
X130603045Y-151180951D01*
X130476468Y-151249160D01*
X130374240Y-151350257D01*
X130304636Y-151476061D01*
X130304634Y-151476066D01*
X130289502Y-151534010D01*
X130186356Y-152224173D01*
X131198846Y-152375491D01*
X131178228Y-152394622D01*
X131110401Y-152512102D01*
X131080216Y-152644354D01*
X131090353Y-152779627D01*
X131125876Y-152870139D01*
X130112450Y-152718681D01*
X130009306Y-153408842D01*
X130009306Y-153408845D01*
X130006836Y-153468689D01*
X130006836Y-153468690D01*
X130036616Y-153609344D01*
X130104824Y-153735919D01*
X130205921Y-153838147D01*
X130331725Y-153907751D01*
X130331730Y-153907753D01*
X130389671Y-153922884D01*
X130389677Y-153922886D01*
X131079837Y-154026030D01*
X131230753Y-153016230D01*
X131336573Y-153088378D01*
X131466199Y-153128362D01*
X131567750Y-153128362D01*
X131668164Y-153113227D01*
X131725970Y-153085388D01*
X131574345Y-154099935D01*
X132264508Y-154203081D01*
X132324353Y-154205551D01*
X132324354Y-154205551D01*
X132465008Y-154175771D01*
X132591583Y-154107563D01*
X132693811Y-154006466D01*
X132763415Y-153880662D01*
X132763417Y-153880657D01*
X132778548Y-153822716D01*
X132778550Y-153822710D01*
X132881695Y-153132549D01*
X131869207Y-152981230D01*
X131889824Y-152962102D01*
X131957651Y-152844622D01*
X131987836Y-152712370D01*
X131977699Y-152577097D01*
X131942174Y-152486582D01*
X132955599Y-152638040D01*
X133058745Y-151947881D01*
X133058745Y-151947878D01*
X133061215Y-151888034D01*
X133061215Y-151888033D01*
X133031435Y-151747379D01*
X132963227Y-151620804D01*
X132862129Y-151518575D01*
X132786897Y-151476951D01*
X132737767Y-151427272D01*
X132723295Y-151358918D01*
X132748075Y-151293590D01*
X132770761Y-151270601D01*
X132861246Y-151200175D01*
X133018441Y-151029415D01*
X133145386Y-150835111D01*
X133238619Y-150622562D01*
X133295596Y-150397567D01*
X133296091Y-150391598D01*
X133314762Y-150166268D01*
X133314762Y-150166255D01*
X133295597Y-149934964D01*
X133295593Y-149934944D01*
X133241466Y-149721203D01*
X133244090Y-149651382D01*
X133284046Y-149594065D01*
X133348647Y-149567448D01*
X133361671Y-149566762D01*
X134040173Y-149566762D01*
X134107212Y-149586447D01*
X134127854Y-149603081D01*
X134651434Y-150126661D01*
X135173288Y-150648514D01*
X135206773Y-150709837D01*
X135208245Y-150754523D01*
X135080589Y-151608697D01*
X135078115Y-151668601D01*
X135078115Y-151668607D01*
X135107925Y-151809403D01*
X135107925Y-151809404D01*
X135107926Y-151809405D01*
X135176199Y-151936103D01*
X135176201Y-151936105D01*
X135277393Y-152038429D01*
X135277398Y-152038433D01*
X135277400Y-152038435D01*
X135352510Y-152079991D01*
X135401638Y-152129668D01*
X135416111Y-152198022D01*
X135391331Y-152263350D01*
X135368641Y-152286343D01*
X135278591Y-152356432D01*
X135278589Y-152356433D01*
X135278589Y-152356434D01*
X135261022Y-152375517D01*
X135121389Y-152527199D01*
X134994448Y-152721498D01*
X134901215Y-152934046D01*
X134844239Y-153159038D01*
X134844237Y-153159049D01*
X134825073Y-153390340D01*
X134825073Y-153390353D01*
X134844237Y-153621644D01*
X134844239Y-153621655D01*
X134901215Y-153846647D01*
X134994448Y-154059195D01*
X135121389Y-154253494D01*
X135121392Y-154253498D01*
X135121394Y-154253500D01*
X135278589Y-154424260D01*
X135278592Y-154424262D01*
X135278595Y-154424265D01*
X135461738Y-154566811D01*
X135461744Y-154566815D01*
X135461747Y-154566817D01*
X135665870Y-154677283D01*
X135779860Y-154716415D01*
X135885388Y-154752644D01*
X135885390Y-154752644D01*
X135885392Y-154752645D01*
X136114324Y-154790847D01*
X136114325Y-154790847D01*
X136346421Y-154790847D01*
X136346422Y-154790847D01*
X136575354Y-154752645D01*
X136794876Y-154677283D01*
X136998999Y-154566817D01*
X137038091Y-154536391D01*
X137110551Y-154479993D01*
X137182157Y-154424260D01*
X137339352Y-154253500D01*
X137466297Y-154059196D01*
X137559530Y-153846647D01*
X137616507Y-153621652D01*
X137616905Y-153616847D01*
X137635673Y-153390353D01*
X137635673Y-153390340D01*
X137616508Y-153159049D01*
X137616506Y-153159038D01*
X137559530Y-152934046D01*
X137466297Y-152721498D01*
X137375721Y-152582860D01*
X137355533Y-152515971D01*
X137374714Y-152448785D01*
X137427173Y-152402635D01*
X137453842Y-152393729D01*
X137536967Y-152376130D01*
X137663665Y-152307857D01*
X137765997Y-152206656D01*
X137835672Y-152080723D01*
X137850821Y-152022716D01*
X137994950Y-151058320D01*
X138024327Y-150994927D01*
X138083314Y-150957480D01*
X138117588Y-150952649D01*
X139865750Y-150952649D01*
X139932789Y-150972334D01*
X139978544Y-151025138D01*
X139988488Y-151094296D01*
X139985955Y-151107090D01*
X139931827Y-151320831D01*
X139931823Y-151320851D01*
X139912659Y-151552142D01*
X139912659Y-151552155D01*
X139931823Y-151783446D01*
X139931825Y-151783457D01*
X139988801Y-152008449D01*
X140082034Y-152220997D01*
X140172903Y-152360083D01*
X140193091Y-152426972D01*
X140173910Y-152494158D01*
X140121451Y-152540308D01*
X140094780Y-152549214D01*
X140011542Y-152566838D01*
X139884965Y-152635047D01*
X139782737Y-152736144D01*
X139713133Y-152861948D01*
X139713131Y-152861953D01*
X139697999Y-152919897D01*
X139594853Y-153610060D01*
X140607343Y-153761378D01*
X140586725Y-153780509D01*
X140518898Y-153897989D01*
X140488713Y-154030241D01*
X140498850Y-154165514D01*
X140534373Y-154256026D01*
X139520947Y-154104568D01*
X139417803Y-154794729D01*
X139417803Y-154794732D01*
X139415333Y-154854576D01*
X139415333Y-154854577D01*
X139445113Y-154995231D01*
X139513321Y-155121806D01*
X139614418Y-155224034D01*
X139740222Y-155293638D01*
X139740227Y-155293640D01*
X139798168Y-155308771D01*
X139798174Y-155308773D01*
X140488334Y-155411917D01*
X140639250Y-154402117D01*
X140745070Y-154474265D01*
X140874696Y-154514249D01*
X140976247Y-154514249D01*
X141076661Y-154499114D01*
X141134467Y-154471275D01*
X140982842Y-155485822D01*
X141673005Y-155588968D01*
X141732850Y-155591438D01*
X141732851Y-155591438D01*
X141873505Y-155561658D01*
X142000080Y-155493450D01*
X142102308Y-155392353D01*
X142171912Y-155266549D01*
X142171914Y-155266544D01*
X142187045Y-155208603D01*
X142187047Y-155208597D01*
X142290192Y-154518436D01*
X141277704Y-154367117D01*
X141298321Y-154347989D01*
X141366148Y-154230509D01*
X141396333Y-154098257D01*
X141386196Y-153962984D01*
X141350671Y-153872469D01*
X142364096Y-154023927D01*
X142467242Y-153333768D01*
X142467242Y-153333765D01*
X142469712Y-153273921D01*
X142469712Y-153273920D01*
X142439932Y-153133266D01*
X142371724Y-153006691D01*
X142270626Y-152904462D01*
X142195394Y-152862838D01*
X142146264Y-152813159D01*
X142131792Y-152744805D01*
X142156572Y-152679477D01*
X142179258Y-152656488D01*
X142269743Y-152586062D01*
X142426938Y-152415302D01*
X142553883Y-152220998D01*
X142647116Y-152008449D01*
X142704093Y-151783454D01*
X142704464Y-151778979D01*
X142723259Y-151552155D01*
X142723259Y-151552142D01*
X142704094Y-151320851D01*
X142704090Y-151320831D01*
X142649963Y-151107090D01*
X142652587Y-151037269D01*
X142692543Y-150979952D01*
X142757144Y-150953335D01*
X142770168Y-150952649D01*
X144088498Y-150952649D01*
X144155537Y-150972334D01*
X144176179Y-150988968D01*
X144893181Y-151705969D01*
X144926666Y-151767292D01*
X144929500Y-151793650D01*
X144929500Y-152887870D01*
X144929501Y-152887876D01*
X144935908Y-152947483D01*
X144986202Y-153082328D01*
X144986206Y-153082335D01*
X145072452Y-153197544D01*
X145072455Y-153197547D01*
X145187664Y-153283793D01*
X145187673Y-153283798D01*
X145267904Y-153313722D01*
X145323838Y-153355593D01*
X145348256Y-153421057D01*
X145333405Y-153489330D01*
X145315802Y-153513886D01*
X145221019Y-153616849D01*
X145094075Y-153811151D01*
X145000842Y-154023699D01*
X144943866Y-154248691D01*
X144943864Y-154248702D01*
X144924700Y-154479993D01*
X144924700Y-154480006D01*
X144943864Y-154711297D01*
X144943866Y-154711308D01*
X145000842Y-154936300D01*
X145094075Y-155148848D01*
X145221016Y-155343147D01*
X145221019Y-155343151D01*
X145221021Y-155343153D01*
X145378216Y-155513913D01*
X145378219Y-155513915D01*
X145378222Y-155513918D01*
X145561365Y-155656464D01*
X145561371Y-155656468D01*
X145561374Y-155656470D01*
X145765497Y-155766936D01*
X145879487Y-155806068D01*
X145985015Y-155842297D01*
X145985017Y-155842297D01*
X145985019Y-155842298D01*
X146213951Y-155880500D01*
X146213952Y-155880500D01*
X146446048Y-155880500D01*
X146446049Y-155880500D01*
X146674981Y-155842298D01*
X146894503Y-155766936D01*
X147098626Y-155656470D01*
X147141453Y-155623137D01*
X147220441Y-155561658D01*
X147281784Y-155513913D01*
X147438979Y-155343153D01*
X147565924Y-155148849D01*
X147659157Y-154936300D01*
X147716134Y-154711305D01*
X147717791Y-154691308D01*
X147735300Y-154480006D01*
X147735300Y-154479993D01*
X147716135Y-154248702D01*
X147716133Y-154248691D01*
X147659157Y-154023699D01*
X147565924Y-153811151D01*
X147438983Y-153616852D01*
X147438980Y-153616849D01*
X147438979Y-153616847D01*
X147344195Y-153513884D01*
X147313275Y-153451232D01*
X147321135Y-153381806D01*
X147365283Y-153327651D01*
X147392095Y-153313722D01*
X147472326Y-153283798D01*
X147472326Y-153283797D01*
X147472331Y-153283796D01*
X147587546Y-153197546D01*
X147673796Y-153082331D01*
X147724091Y-152947483D01*
X147730500Y-152887873D01*
X147730499Y-151950006D01*
X149674700Y-151950006D01*
X149693864Y-152181297D01*
X149693866Y-152181308D01*
X149750842Y-152406300D01*
X149844075Y-152618848D01*
X149971018Y-152813150D01*
X150066167Y-152916510D01*
X150097089Y-152979164D01*
X150089228Y-153048590D01*
X150045081Y-153102746D01*
X150018271Y-153116674D01*
X149937911Y-153146646D01*
X149937906Y-153146649D01*
X149822812Y-153232809D01*
X149822809Y-153232812D01*
X149736649Y-153347906D01*
X149736645Y-153347913D01*
X149686403Y-153482620D01*
X149686401Y-153482627D01*
X149680000Y-153542155D01*
X149680000Y-154240000D01*
X150704722Y-154240000D01*
X150656375Y-154323740D01*
X150626190Y-154455992D01*
X150636327Y-154591265D01*
X150685887Y-154717541D01*
X150703797Y-154740000D01*
X149680000Y-154740000D01*
X149680000Y-155437844D01*
X149686401Y-155497372D01*
X149686403Y-155497379D01*
X149736645Y-155632086D01*
X149736649Y-155632093D01*
X149822809Y-155747187D01*
X149822812Y-155747190D01*
X149937906Y-155833350D01*
X149937913Y-155833354D01*
X150072620Y-155883596D01*
X150072627Y-155883598D01*
X150132155Y-155889999D01*
X150132172Y-155890000D01*
X150830000Y-155890000D01*
X150830000Y-154864189D01*
X150882547Y-154900016D01*
X151012173Y-154940000D01*
X151113724Y-154940000D01*
X151214138Y-154924865D01*
X151330000Y-154869068D01*
X151330000Y-155890000D01*
X152027828Y-155890000D01*
X152027844Y-155889999D01*
X152087372Y-155883598D01*
X152087379Y-155883596D01*
X152222086Y-155833354D01*
X152222093Y-155833350D01*
X152337187Y-155747190D01*
X152337190Y-155747187D01*
X152423350Y-155632093D01*
X152423354Y-155632086D01*
X152473596Y-155497379D01*
X152473598Y-155497372D01*
X152479999Y-155437844D01*
X152480000Y-155437827D01*
X152480000Y-154740000D01*
X151455278Y-154740000D01*
X151503625Y-154656260D01*
X151533810Y-154524008D01*
X151523673Y-154388735D01*
X151474113Y-154262459D01*
X151456203Y-154240000D01*
X152480000Y-154240000D01*
X152480000Y-153542172D01*
X152479999Y-153542155D01*
X152473598Y-153482627D01*
X152473596Y-153482620D01*
X152423354Y-153347913D01*
X152423350Y-153347906D01*
X152337190Y-153232812D01*
X152337187Y-153232809D01*
X152222093Y-153146649D01*
X152222086Y-153146645D01*
X152141729Y-153116674D01*
X152085795Y-153074803D01*
X152061378Y-153009338D01*
X152076230Y-152941065D01*
X152093826Y-152916516D01*
X152188979Y-152813153D01*
X152315924Y-152618849D01*
X152409157Y-152406300D01*
X152466134Y-152181305D01*
X152466554Y-152176238D01*
X152485300Y-151950006D01*
X152485300Y-151949993D01*
X152466135Y-151718702D01*
X152466133Y-151718691D01*
X152409157Y-151493699D01*
X152315924Y-151281151D01*
X152188983Y-151086852D01*
X152188980Y-151086849D01*
X152188979Y-151086847D01*
X152031784Y-150916087D01*
X152031779Y-150916083D01*
X152031777Y-150916081D01*
X151848634Y-150773535D01*
X151848628Y-150773531D01*
X151644504Y-150663064D01*
X151644495Y-150663061D01*
X151424984Y-150587702D01*
X151246136Y-150557858D01*
X151196049Y-150549500D01*
X150963951Y-150549500D01*
X150918164Y-150557140D01*
X150735015Y-150587702D01*
X150515504Y-150663061D01*
X150515495Y-150663064D01*
X150311371Y-150773531D01*
X150311365Y-150773535D01*
X150128222Y-150916081D01*
X150128219Y-150916084D01*
X150128216Y-150916086D01*
X150128216Y-150916087D01*
X150093927Y-150953335D01*
X149971016Y-151086852D01*
X149844075Y-151281151D01*
X149750842Y-151493699D01*
X149693866Y-151718691D01*
X149693864Y-151718702D01*
X149674700Y-151949993D01*
X149674700Y-151950006D01*
X147730499Y-151950006D01*
X147730499Y-151793649D01*
X147750184Y-151726611D01*
X147766813Y-151705974D01*
X151655970Y-147816818D01*
X151717293Y-147783333D01*
X151743651Y-147780499D01*
X152476348Y-147780499D01*
X152543387Y-147800184D01*
X152564029Y-147816818D01*
X154953181Y-150205969D01*
X154986666Y-150267292D01*
X154989500Y-150293650D01*
X154989500Y-150397648D01*
X154969815Y-150464687D01*
X154917011Y-150510442D01*
X154878755Y-150520938D01*
X154832516Y-150525909D01*
X154697671Y-150576202D01*
X154697664Y-150576206D01*
X154582455Y-150662452D01*
X154582452Y-150662455D01*
X154496206Y-150777664D01*
X154496202Y-150777671D01*
X154445908Y-150912517D01*
X154439501Y-150972116D01*
X154439500Y-150972135D01*
X154439500Y-152867870D01*
X154439501Y-152867876D01*
X154445908Y-152927483D01*
X154496202Y-153062328D01*
X154496206Y-153062335D01*
X154582452Y-153177544D01*
X154582455Y-153177547D01*
X154697664Y-153263793D01*
X154697673Y-153263798D01*
X154777904Y-153293722D01*
X154833838Y-153335593D01*
X154858256Y-153401057D01*
X154843405Y-153469330D01*
X154825802Y-153493886D01*
X154731019Y-153596849D01*
X154604075Y-153791151D01*
X154510842Y-154003699D01*
X154453866Y-154228691D01*
X154453864Y-154228702D01*
X154434700Y-154459993D01*
X154434700Y-154460006D01*
X154453864Y-154691297D01*
X154453866Y-154691308D01*
X154510842Y-154916300D01*
X154604075Y-155128848D01*
X154731016Y-155323147D01*
X154731019Y-155323151D01*
X154731021Y-155323153D01*
X154888216Y-155493913D01*
X154888219Y-155493915D01*
X154888222Y-155493918D01*
X155071365Y-155636464D01*
X155071371Y-155636468D01*
X155071374Y-155636470D01*
X155275497Y-155746936D01*
X155333761Y-155766938D01*
X155495015Y-155822297D01*
X155495017Y-155822297D01*
X155495019Y-155822298D01*
X155723951Y-155860500D01*
X155723952Y-155860500D01*
X155956048Y-155860500D01*
X155956049Y-155860500D01*
X156184981Y-155822298D01*
X156404503Y-155746936D01*
X156608626Y-155636470D01*
X156625757Y-155623137D01*
X156766085Y-155513915D01*
X156791784Y-155493913D01*
X156948979Y-155323153D01*
X157075924Y-155128849D01*
X157169157Y-154916300D01*
X157226134Y-154691305D01*
X157229817Y-154646858D01*
X157245300Y-154460006D01*
X157245300Y-154459993D01*
X157226135Y-154228702D01*
X157226133Y-154228691D01*
X157169157Y-154003699D01*
X157075924Y-153791151D01*
X156948983Y-153596852D01*
X156948980Y-153596849D01*
X156948979Y-153596847D01*
X156854195Y-153493884D01*
X156823275Y-153431232D01*
X156831135Y-153361806D01*
X156875283Y-153307651D01*
X156902095Y-153293722D01*
X156982326Y-153263798D01*
X156982326Y-153263797D01*
X156982331Y-153263796D01*
X157097546Y-153177546D01*
X157183796Y-153062331D01*
X157234091Y-152927483D01*
X157240500Y-152867873D01*
X157240499Y-151773649D01*
X157260184Y-151706611D01*
X157276813Y-151685974D01*
X157963205Y-150999583D01*
X158024528Y-150966098D01*
X158050886Y-150963264D01*
X159402107Y-150963264D01*
X159469146Y-150982949D01*
X159514901Y-151035753D01*
X159524845Y-151104911D01*
X159522312Y-151117705D01*
X159468184Y-151331446D01*
X159468180Y-151331466D01*
X159449016Y-151562757D01*
X159449016Y-151562770D01*
X159468180Y-151794061D01*
X159468182Y-151794072D01*
X159525158Y-152019064D01*
X159618391Y-152231612D01*
X159745332Y-152425911D01*
X159745335Y-152425915D01*
X159745337Y-152425917D01*
X159902532Y-152596677D01*
X159993011Y-152667099D01*
X160033824Y-152723810D01*
X160037499Y-152793583D01*
X160002868Y-152854266D01*
X159976880Y-152873453D01*
X159901649Y-152915076D01*
X159901647Y-152915077D01*
X159800550Y-153017306D01*
X159732342Y-153143881D01*
X159702562Y-153284535D01*
X159702562Y-153284536D01*
X159705032Y-153344380D01*
X159705032Y-153344383D01*
X159808176Y-154034542D01*
X160820790Y-153883206D01*
X160806127Y-153908604D01*
X160775942Y-154040856D01*
X160786079Y-154176129D01*
X160835639Y-154302405D01*
X160895588Y-154377580D01*
X159882081Y-154529051D01*
X159985228Y-155219213D01*
X160000360Y-155277159D01*
X160000362Y-155277164D01*
X160069966Y-155402968D01*
X160172194Y-155504065D01*
X160298769Y-155572273D01*
X160439424Y-155602053D01*
X160499268Y-155599583D01*
X160499271Y-155599583D01*
X161189431Y-155496437D01*
X161038539Y-154486804D01*
X161161925Y-154524864D01*
X161263476Y-154524864D01*
X161363890Y-154509729D01*
X161486109Y-154450871D01*
X161532314Y-154407998D01*
X161683938Y-155422532D01*
X162374100Y-155319388D01*
X162374106Y-155319386D01*
X162432047Y-155304255D01*
X162432052Y-155304253D01*
X162557856Y-155234649D01*
X162658953Y-155132421D01*
X162727161Y-155005846D01*
X162756941Y-154865192D01*
X162756941Y-154865191D01*
X162754471Y-154805347D01*
X162754471Y-154805344D01*
X162651325Y-154115183D01*
X161638714Y-154266519D01*
X161653377Y-154241124D01*
X161683562Y-154108872D01*
X161673425Y-153973599D01*
X161623865Y-153847323D01*
X161563913Y-153772145D01*
X162577421Y-153620675D01*
X162474276Y-152930515D01*
X162474274Y-152930509D01*
X162459143Y-152872568D01*
X162459141Y-152872563D01*
X162389537Y-152746759D01*
X162287309Y-152645662D01*
X162160735Y-152577455D01*
X162077494Y-152559830D01*
X162015986Y-152526685D01*
X161982162Y-152465549D01*
X161986760Y-152395831D01*
X161999372Y-152370697D01*
X162074360Y-152255919D01*
X162090240Y-152231613D01*
X162183473Y-152019064D01*
X162240450Y-151794069D01*
X162240485Y-151793650D01*
X162259616Y-151562770D01*
X162259616Y-151562757D01*
X162240451Y-151331466D01*
X162240447Y-151331446D01*
X162186320Y-151117705D01*
X162188944Y-151047884D01*
X162228900Y-150990567D01*
X162293501Y-150963950D01*
X162306525Y-150963264D01*
X164064798Y-150963264D01*
X164131837Y-150982949D01*
X164177592Y-151035753D01*
X164187435Y-151068935D01*
X164226672Y-151331466D01*
X164325433Y-151992291D01*
X164333378Y-152022715D01*
X164340581Y-152050299D01*
X164410256Y-152176232D01*
X164410257Y-152176233D01*
X164410261Y-152176238D01*
X164503399Y-152268346D01*
X164512588Y-152277433D01*
X164639286Y-152345706D01*
X164722407Y-152363304D01*
X164783914Y-152396447D01*
X164817740Y-152457583D01*
X164813143Y-152527302D01*
X164800531Y-152552436D01*
X164709955Y-152691074D01*
X164616722Y-152903622D01*
X164559746Y-153128614D01*
X164559744Y-153128625D01*
X164540580Y-153359916D01*
X164540580Y-153359929D01*
X164559744Y-153591220D01*
X164559746Y-153591231D01*
X164616722Y-153816223D01*
X164709955Y-154028771D01*
X164836896Y-154223070D01*
X164836899Y-154223074D01*
X164836901Y-154223076D01*
X164994096Y-154393836D01*
X164994099Y-154393838D01*
X164994102Y-154393841D01*
X165177245Y-154536387D01*
X165177251Y-154536391D01*
X165177254Y-154536393D01*
X165381377Y-154646859D01*
X165469996Y-154677282D01*
X165600895Y-154722220D01*
X165600897Y-154722220D01*
X165600899Y-154722221D01*
X165829831Y-154760423D01*
X165829832Y-154760423D01*
X166061928Y-154760423D01*
X166061929Y-154760423D01*
X166290861Y-154722221D01*
X166510383Y-154646859D01*
X166714506Y-154536393D01*
X166730419Y-154524008D01*
X166812665Y-154459993D01*
X166897664Y-154393836D01*
X167054859Y-154223076D01*
X167181804Y-154028772D01*
X167275037Y-153816223D01*
X167332014Y-153591228D01*
X167332128Y-153589851D01*
X167351180Y-153359929D01*
X167351180Y-153359916D01*
X167332015Y-153128625D01*
X167332013Y-153128614D01*
X167275037Y-152903622D01*
X167181804Y-152691074D01*
X167054863Y-152496775D01*
X167054860Y-152496772D01*
X167054859Y-152496770D01*
X166897664Y-152326010D01*
X166897659Y-152326006D01*
X166897657Y-152326004D01*
X166807612Y-152255919D01*
X166766799Y-152199209D01*
X166763124Y-152129436D01*
X166797756Y-152068753D01*
X166823739Y-152049569D01*
X166898853Y-152008011D01*
X167000054Y-151905679D01*
X167068327Y-151778981D01*
X167098138Y-151638180D01*
X167095665Y-151578277D01*
X166968006Y-150724099D01*
X166977565Y-150654887D01*
X167002960Y-150618093D01*
X168412158Y-149208897D01*
X168473481Y-149175412D01*
X168499839Y-149172578D01*
X168985159Y-149172578D01*
X169052198Y-149192263D01*
X169097953Y-149245067D01*
X169107897Y-149314225D01*
X169088968Y-149364397D01*
X169036109Y-149445306D01*
X169020975Y-149468470D01*
X168927743Y-149681015D01*
X168870767Y-149906007D01*
X168870765Y-149906018D01*
X168851601Y-150137309D01*
X168851601Y-150137322D01*
X168870765Y-150368613D01*
X168870767Y-150368624D01*
X168927743Y-150593616D01*
X169020976Y-150806164D01*
X169147917Y-151000463D01*
X169147920Y-151000467D01*
X169147922Y-151000469D01*
X169305117Y-151171229D01*
X169392895Y-151239549D01*
X169395596Y-151241651D01*
X169436409Y-151298362D01*
X169440084Y-151368135D01*
X169405453Y-151428818D01*
X169379465Y-151448005D01*
X169304234Y-151489628D01*
X169304232Y-151489629D01*
X169203135Y-151591858D01*
X169134927Y-151718433D01*
X169105147Y-151859087D01*
X169105147Y-151859088D01*
X169107617Y-151918932D01*
X169107617Y-151918935D01*
X169210761Y-152609094D01*
X170223375Y-152457758D01*
X170208712Y-152483156D01*
X170178527Y-152615408D01*
X170188664Y-152750681D01*
X170238224Y-152876957D01*
X170298173Y-152952132D01*
X169284666Y-153103603D01*
X169387813Y-153793765D01*
X169402945Y-153851711D01*
X169402947Y-153851716D01*
X169472551Y-153977520D01*
X169574779Y-154078617D01*
X169701354Y-154146825D01*
X169842009Y-154176605D01*
X169901853Y-154174135D01*
X169901856Y-154174135D01*
X170592016Y-154070989D01*
X170441124Y-153061356D01*
X170564510Y-153099416D01*
X170666061Y-153099416D01*
X170766475Y-153084281D01*
X170888694Y-153025423D01*
X170934899Y-152982550D01*
X171086523Y-153997084D01*
X171776685Y-153893940D01*
X171776691Y-153893938D01*
X171834632Y-153878807D01*
X171834637Y-153878805D01*
X171960441Y-153809201D01*
X172061538Y-153706973D01*
X172129746Y-153580398D01*
X172159526Y-153439744D01*
X172159526Y-153439743D01*
X172157056Y-153379899D01*
X172157056Y-153379896D01*
X172053910Y-152689735D01*
X171041299Y-152841071D01*
X171055962Y-152815676D01*
X171086147Y-152683424D01*
X171076010Y-152548151D01*
X171026450Y-152421875D01*
X170966498Y-152346697D01*
X171980006Y-152195227D01*
X171876861Y-151505067D01*
X171876859Y-151505061D01*
X171861728Y-151447120D01*
X171861726Y-151447115D01*
X171792122Y-151321311D01*
X171689894Y-151220214D01*
X171563320Y-151152007D01*
X171480079Y-151134382D01*
X171418571Y-151101237D01*
X171384747Y-151040101D01*
X171389345Y-150970383D01*
X171401957Y-150945249D01*
X171421013Y-150916081D01*
X171492825Y-150806165D01*
X171586058Y-150593616D01*
X171643035Y-150368621D01*
X171643852Y-150358762D01*
X171662201Y-150137322D01*
X171662201Y-150137309D01*
X171643036Y-149906018D01*
X171643034Y-149906007D01*
X171586058Y-149681015D01*
X171516866Y-149523275D01*
X171492825Y-149468467D01*
X171424833Y-149364397D01*
X171404647Y-149297510D01*
X171423827Y-149230325D01*
X171476285Y-149184174D01*
X171528643Y-149172578D01*
X173646755Y-149172578D01*
X173713794Y-149192263D01*
X173759549Y-149245067D01*
X173765335Y-149260319D01*
X174055018Y-150207827D01*
X174101163Y-150358762D01*
X174124719Y-150413894D01*
X174142378Y-150436945D01*
X174212243Y-150528145D01*
X174328410Y-150613109D01*
X174328411Y-150613109D01*
X174328412Y-150613110D01*
X174463799Y-150661903D01*
X174463804Y-150661904D01*
X174463807Y-150661905D01*
X174547488Y-150666955D01*
X174613217Y-150690643D01*
X174655708Y-150746108D01*
X174661467Y-150815740D01*
X174653571Y-150840540D01*
X174576802Y-151015554D01*
X174519826Y-151240546D01*
X174519824Y-151240557D01*
X174500660Y-151471848D01*
X174500660Y-151471861D01*
X174519824Y-151703152D01*
X174519826Y-151703163D01*
X174576802Y-151928155D01*
X174670035Y-152140703D01*
X174796976Y-152335002D01*
X174796979Y-152335006D01*
X174796981Y-152335008D01*
X174954176Y-152505768D01*
X174954179Y-152505770D01*
X174954182Y-152505773D01*
X175137325Y-152648319D01*
X175137331Y-152648323D01*
X175137334Y-152648325D01*
X175341457Y-152758791D01*
X175442803Y-152793583D01*
X175560975Y-152834152D01*
X175560977Y-152834152D01*
X175560979Y-152834153D01*
X175789911Y-152872355D01*
X175789912Y-152872355D01*
X176022008Y-152872355D01*
X176022009Y-152872355D01*
X176250941Y-152834153D01*
X176470463Y-152758791D01*
X176674586Y-152648325D01*
X176678008Y-152645662D01*
X176788285Y-152559830D01*
X176857744Y-152505768D01*
X177014939Y-152335008D01*
X177141884Y-152140704D01*
X177235117Y-151928155D01*
X177292094Y-151703160D01*
X177292095Y-151703152D01*
X177311260Y-151471861D01*
X177311260Y-151471848D01*
X177292095Y-151240557D01*
X177292093Y-151240546D01*
X177235117Y-151015554D01*
X177141884Y-150803006D01*
X177014943Y-150608707D01*
X177014940Y-150608704D01*
X177014939Y-150608702D01*
X176857744Y-150437942D01*
X176857739Y-150437938D01*
X176857737Y-150437936D01*
X176674594Y-150295390D01*
X176674588Y-150295386D01*
X176597108Y-150253456D01*
X176547518Y-150204236D01*
X176532410Y-150136019D01*
X176556581Y-150070464D01*
X176580711Y-150045971D01*
X176648640Y-149993934D01*
X176733604Y-149877767D01*
X176741285Y-149856455D01*
X176782398Y-149742377D01*
X176782399Y-149742372D01*
X176782398Y-149742372D01*
X176782400Y-149742370D01*
X176791071Y-149598709D01*
X176779772Y-149539830D01*
X176588332Y-148913663D01*
X176587557Y-148843800D01*
X176619232Y-148789732D01*
X178121447Y-147287517D01*
X178182768Y-147254034D01*
X178252460Y-147259018D01*
X178308393Y-147300890D01*
X178332810Y-147366354D01*
X178329332Y-147405638D01*
X178322574Y-147432323D01*
X178322571Y-147432341D01*
X178303407Y-147663632D01*
X178303407Y-147663645D01*
X178322571Y-147894936D01*
X178322573Y-147894947D01*
X178379549Y-148119939D01*
X178472782Y-148332487D01*
X178599723Y-148526786D01*
X178599726Y-148526790D01*
X178599728Y-148526792D01*
X178756923Y-148697552D01*
X178756926Y-148697554D01*
X178756929Y-148697557D01*
X178940072Y-148840103D01*
X178940078Y-148840107D01*
X178940081Y-148840109D01*
X179018038Y-148882297D01*
X179067628Y-148931517D01*
X179082736Y-148999733D01*
X179058566Y-149065289D01*
X179034429Y-149089787D01*
X178966389Y-149141910D01*
X178966385Y-149141914D01*
X178881509Y-149257963D01*
X178832762Y-149393226D01*
X178824098Y-149536744D01*
X178835386Y-149595562D01*
X179039410Y-150262896D01*
X180019277Y-149963321D01*
X179997521Y-150058645D01*
X180007658Y-150193918D01*
X180057218Y-150320194D01*
X180141796Y-150426252D01*
X180164535Y-150441755D01*
X179185595Y-150741049D01*
X179389619Y-151408376D01*
X179389622Y-151408387D01*
X179413154Y-151463460D01*
X179500589Y-151577595D01*
X179500592Y-151577598D01*
X179616641Y-151662474D01*
X179751904Y-151711221D01*
X179895422Y-151719885D01*
X179954240Y-151708597D01*
X180621575Y-151504571D01*
X180321653Y-150523574D01*
X180383504Y-150542653D01*
X180485055Y-150542653D01*
X180585469Y-150527518D01*
X180707688Y-150468660D01*
X180801185Y-150381907D01*
X181099726Y-151358386D01*
X181767054Y-151154364D01*
X181767065Y-151154361D01*
X181822138Y-151130829D01*
X181936273Y-151043394D01*
X181936276Y-151043391D01*
X182021152Y-150927342D01*
X182069899Y-150792079D01*
X182078563Y-150648561D01*
X182067275Y-150589743D01*
X181863249Y-149922407D01*
X180883384Y-150221982D01*
X180905141Y-150126661D01*
X180895004Y-149991388D01*
X180845444Y-149865112D01*
X180760866Y-149759054D01*
X180738123Y-149743548D01*
X181717065Y-149444255D01*
X181513042Y-148776929D01*
X181513039Y-148776918D01*
X181489507Y-148721845D01*
X181402072Y-148607710D01*
X181402069Y-148607707D01*
X181286020Y-148522831D01*
X181150757Y-148474084D01*
X181066965Y-148469026D01*
X181001233Y-148445337D01*
X180958744Y-148389872D01*
X180952986Y-148320240D01*
X180960878Y-148295446D01*
X181037864Y-148119939D01*
X181094841Y-147894944D01*
X181095163Y-147891062D01*
X181114007Y-147663645D01*
X181114007Y-147663632D01*
X181094842Y-147432341D01*
X181094840Y-147432330D01*
X181037864Y-147207338D01*
X180944631Y-146994790D01*
X180817690Y-146800491D01*
X180817687Y-146800488D01*
X180817686Y-146800486D01*
X180660491Y-146629726D01*
X180615682Y-146594850D01*
X180574870Y-146538140D01*
X180571195Y-146468367D01*
X180605826Y-146407684D01*
X180667768Y-146375357D01*
X180691845Y-146372997D01*
X182735366Y-146372997D01*
X182802405Y-146392682D01*
X182848160Y-146445486D01*
X182853946Y-146460738D01*
X183112195Y-147305433D01*
X183189774Y-147559181D01*
X183213330Y-147614313D01*
X183234728Y-147642245D01*
X183300854Y-147728564D01*
X183417021Y-147813528D01*
X183417022Y-147813528D01*
X183417023Y-147813529D01*
X183552410Y-147862322D01*
X183552415Y-147862323D01*
X183552418Y-147862324D01*
X183636099Y-147867374D01*
X183701828Y-147891062D01*
X183744319Y-147946527D01*
X183750078Y-148016159D01*
X183742182Y-148040959D01*
X183665413Y-148215973D01*
X183608437Y-148440965D01*
X183608435Y-148440976D01*
X183589271Y-148672267D01*
X183589271Y-148672280D01*
X183608435Y-148903571D01*
X183608437Y-148903582D01*
X183665413Y-149128574D01*
X183758646Y-149341122D01*
X183885587Y-149535421D01*
X183885590Y-149535425D01*
X183885592Y-149535427D01*
X184042787Y-149706187D01*
X184042790Y-149706189D01*
X184042793Y-149706192D01*
X184225936Y-149848738D01*
X184225942Y-149848742D01*
X184225945Y-149848744D01*
X184430068Y-149959210D01*
X184528314Y-149992938D01*
X184649586Y-150034571D01*
X184649588Y-150034571D01*
X184649590Y-150034572D01*
X184878522Y-150072774D01*
X184878523Y-150072774D01*
X185110619Y-150072774D01*
X185110620Y-150072774D01*
X185339552Y-150034572D01*
X185559074Y-149959210D01*
X185763197Y-149848744D01*
X185946355Y-149706187D01*
X186103550Y-149535427D01*
X186230495Y-149341123D01*
X186323728Y-149128574D01*
X186380705Y-148903579D01*
X186381209Y-148897502D01*
X186399871Y-148672280D01*
X186399871Y-148672267D01*
X186380706Y-148440976D01*
X186380704Y-148440965D01*
X186323728Y-148215973D01*
X186230495Y-148003425D01*
X186103554Y-147809126D01*
X186103551Y-147809123D01*
X186103550Y-147809121D01*
X185946355Y-147638361D01*
X185946350Y-147638357D01*
X185946348Y-147638355D01*
X185763205Y-147495809D01*
X185763199Y-147495805D01*
X185685719Y-147453875D01*
X185636129Y-147404655D01*
X185621021Y-147336438D01*
X185645192Y-147270883D01*
X185669322Y-147246390D01*
X185737251Y-147194353D01*
X185822215Y-147078186D01*
X185828774Y-147059984D01*
X185871009Y-146942796D01*
X185871010Y-146942791D01*
X185871009Y-146942791D01*
X185871011Y-146942789D01*
X185879682Y-146799128D01*
X185868383Y-146740249D01*
X185314120Y-144927339D01*
X185290563Y-144872206D01*
X185203040Y-144757956D01*
X185086873Y-144672992D01*
X185086872Y-144672991D01*
X185086870Y-144672990D01*
X184951483Y-144624197D01*
X184951478Y-144624196D01*
X184865869Y-144619029D01*
X184807815Y-144615525D01*
X184807814Y-144615525D01*
X184807813Y-144615525D01*
X184748934Y-144626824D01*
X184105732Y-144823471D01*
X184035867Y-144824247D01*
X183997964Y-144804717D01*
X183997606Y-144805278D01*
X183991038Y-144801080D01*
X183973203Y-144790017D01*
X183972248Y-144789443D01*
X183898744Y-144755436D01*
X183826211Y-144719463D01*
X183825165Y-144719079D01*
X183805344Y-144712099D01*
X183804348Y-144711763D01*
X183725257Y-144694355D01*
X183646678Y-144674812D01*
X183645768Y-144674688D01*
X183624690Y-144672107D01*
X183623685Y-144671998D01*
X183623681Y-144671997D01*
X183623676Y-144671997D01*
X183542715Y-144671997D01*
X183461748Y-144669803D01*
X183460704Y-144669888D01*
X183438536Y-144671997D01*
X178720767Y-144671997D01*
X178715732Y-144671792D01*
X178660515Y-144667295D01*
X178660508Y-144667296D01*
X178580287Y-144678226D01*
X178499772Y-144686982D01*
X178498811Y-144687194D01*
X178478151Y-144692035D01*
X178477214Y-144692268D01*
X178401193Y-144720197D01*
X178324464Y-144746050D01*
X178323600Y-144746450D01*
X178304401Y-144755649D01*
X178303561Y-144756066D01*
X178235339Y-144799673D01*
X178165948Y-144841424D01*
X178165169Y-144842016D01*
X178148444Y-144855092D01*
X178147693Y-144855695D01*
X178090449Y-144912938D01*
X178031636Y-144968650D01*
X178031026Y-144969368D01*
X178016771Y-144986616D01*
X175562144Y-147441242D01*
X175510717Y-147472143D01*
X175017120Y-147623052D01*
X174947255Y-147623828D01*
X174909354Y-147604296D01*
X174908995Y-147604859D01*
X174902427Y-147600661D01*
X174884592Y-147589598D01*
X174883637Y-147589024D01*
X174810133Y-147555017D01*
X174737600Y-147519044D01*
X174736554Y-147518660D01*
X174716733Y-147511680D01*
X174715737Y-147511344D01*
X174636646Y-147493936D01*
X174558067Y-147474393D01*
X174557157Y-147474269D01*
X174536079Y-147471688D01*
X174535074Y-147471579D01*
X174535070Y-147471578D01*
X174535065Y-147471578D01*
X174454104Y-147471578D01*
X174373137Y-147469384D01*
X174372093Y-147469469D01*
X174349925Y-147471578D01*
X168133276Y-147471578D01*
X168128241Y-147471373D01*
X168073024Y-147466876D01*
X168073017Y-147466877D01*
X167992796Y-147477807D01*
X167912281Y-147486563D01*
X167911320Y-147486775D01*
X167890660Y-147491616D01*
X167889723Y-147491849D01*
X167813702Y-147519778D01*
X167736973Y-147545631D01*
X167736109Y-147546031D01*
X167716893Y-147555238D01*
X167716074Y-147555644D01*
X167647835Y-147599262D01*
X167578448Y-147641011D01*
X167577683Y-147641593D01*
X167560980Y-147654650D01*
X167560201Y-147655277D01*
X167502939Y-147712537D01*
X167444145Y-147768231D01*
X167443511Y-147768977D01*
X167429282Y-147786194D01*
X165850094Y-149365382D01*
X165788771Y-149398867D01*
X165780742Y-149400339D01*
X165434642Y-149452065D01*
X165365429Y-149442506D01*
X165338625Y-149426073D01*
X165296145Y-149391926D01*
X165295239Y-149391347D01*
X165277404Y-149380284D01*
X165276449Y-149379710D01*
X165202945Y-149345703D01*
X165130412Y-149309730D01*
X165129366Y-149309346D01*
X165109545Y-149302366D01*
X165108549Y-149302030D01*
X165029458Y-149284622D01*
X164950879Y-149265079D01*
X164949969Y-149264955D01*
X164928891Y-149262374D01*
X164927886Y-149262265D01*
X164927882Y-149262264D01*
X164927877Y-149262264D01*
X164846916Y-149262264D01*
X164765949Y-149260070D01*
X164764905Y-149260155D01*
X164742737Y-149262264D01*
X157684323Y-149262264D01*
X157679288Y-149262059D01*
X157624071Y-149257562D01*
X157624064Y-149257563D01*
X157543843Y-149268493D01*
X157463328Y-149277249D01*
X157462367Y-149277461D01*
X157441707Y-149282302D01*
X157440777Y-149282534D01*
X157440769Y-149282536D01*
X157440768Y-149282537D01*
X157387707Y-149302030D01*
X157364735Y-149310469D01*
X157288011Y-149336321D01*
X157287032Y-149336774D01*
X157267933Y-149345926D01*
X157267120Y-149346329D01*
X157198868Y-149389956D01*
X157181612Y-149400339D01*
X157131048Y-149430763D01*
X157129492Y-149431699D01*
X157128756Y-149432258D01*
X157112064Y-149445306D01*
X157111250Y-149445961D01*
X157053986Y-149503223D01*
X156995192Y-149558917D01*
X156994558Y-149559663D01*
X156980329Y-149576880D01*
X156862065Y-149695144D01*
X156800742Y-149728629D01*
X156731050Y-149723645D01*
X156675117Y-149681773D01*
X156657990Y-149650223D01*
X156642294Y-149607499D01*
X156638272Y-149595562D01*
X156616444Y-149530779D01*
X156616441Y-149530774D01*
X156615950Y-149529712D01*
X156606930Y-149510886D01*
X156606434Y-149509886D01*
X156562806Y-149441631D01*
X156550439Y-149421076D01*
X156521070Y-149372264D01*
X156521069Y-149372263D01*
X156521068Y-149372261D01*
X156520409Y-149371395D01*
X156507541Y-149354934D01*
X156506802Y-149354014D01*
X156506801Y-149354013D01*
X156506800Y-149354011D01*
X156449539Y-149296750D01*
X156393849Y-149237959D01*
X156393088Y-149237312D01*
X156375881Y-149223092D01*
X153766818Y-146614029D01*
X153733333Y-146552706D01*
X153730499Y-146526348D01*
X153730499Y-146233650D01*
X153750184Y-146166611D01*
X153766814Y-146145973D01*
X154350173Y-145562613D01*
X154353866Y-145559210D01*
X154396096Y-145523340D01*
X154396100Y-145523337D01*
X154445104Y-145458872D01*
X154495842Y-145395753D01*
X154495842Y-145395751D01*
X154495844Y-145395750D01*
X154496432Y-145394829D01*
X154507426Y-145377105D01*
X154508050Y-145376069D01*
X154508054Y-145376064D01*
X154542055Y-145302570D01*
X154578037Y-145230021D01*
X154578037Y-145230017D01*
X154578440Y-145228923D01*
X154585329Y-145209361D01*
X154585727Y-145208177D01*
X154585732Y-145208167D01*
X154603139Y-145129083D01*
X154622684Y-145050494D01*
X154622684Y-145050492D01*
X154622833Y-145049400D01*
X154625371Y-145028677D01*
X154625500Y-145027497D01*
X154625500Y-144946530D01*
X154627513Y-144872206D01*
X154627693Y-144865567D01*
X154627692Y-144865566D01*
X154627693Y-144865561D01*
X154627610Y-144864551D01*
X154625500Y-144842346D01*
X154625500Y-138437087D01*
X154625705Y-138432052D01*
X154630201Y-138376836D01*
X154628929Y-138367503D01*
X154619270Y-138296607D01*
X154610514Y-138216090D01*
X154610513Y-138216088D01*
X154610513Y-138216084D01*
X154610280Y-138215026D01*
X154605497Y-138194621D01*
X154605227Y-138193532D01*
X154577299Y-138117513D01*
X154568850Y-138092439D01*
X154551444Y-138040779D01*
X154551441Y-138040775D01*
X154551441Y-138040773D01*
X154551006Y-138039831D01*
X154541895Y-138020818D01*
X154541432Y-138019884D01*
X154540270Y-138018066D01*
X154497822Y-137951658D01*
X154456070Y-137882264D01*
X154456068Y-137882262D01*
X154456067Y-137882260D01*
X154455455Y-137881455D01*
X154442503Y-137864889D01*
X154441803Y-137864018D01*
X154441799Y-137864011D01*
X154384556Y-137806768D01*
X154374768Y-137796435D01*
X154328848Y-137747957D01*
X154328108Y-137747328D01*
X154310875Y-137733087D01*
X153791818Y-137214030D01*
X153758333Y-137152707D01*
X153755499Y-137126349D01*
X153755499Y-136833650D01*
X153775184Y-136766611D01*
X153791814Y-136745973D01*
X154390173Y-136147613D01*
X154393866Y-136144210D01*
X154436096Y-136108340D01*
X154436100Y-136108337D01*
X154485104Y-136043872D01*
X154535842Y-135980753D01*
X154535842Y-135980751D01*
X154535844Y-135980750D01*
X154536432Y-135979829D01*
X154547426Y-135962105D01*
X154548050Y-135961069D01*
X154548054Y-135961064D01*
X154582055Y-135887570D01*
X154618037Y-135815021D01*
X154618037Y-135815017D01*
X154618440Y-135813923D01*
X154625329Y-135794361D01*
X154625727Y-135793177D01*
X154625732Y-135793167D01*
X154643139Y-135714083D01*
X154662684Y-135635494D01*
X154662684Y-135635492D01*
X154662833Y-135634400D01*
X154665371Y-135613677D01*
X154665500Y-135612497D01*
X154665500Y-135531530D01*
X154667693Y-135450563D01*
X154667608Y-135449520D01*
X154665500Y-135427352D01*
X154665500Y-129167087D01*
X154665705Y-129162052D01*
X154670201Y-129106836D01*
X154659270Y-129026607D01*
X154650513Y-128946084D01*
X154650280Y-128945026D01*
X154645497Y-128924621D01*
X154645227Y-128923532D01*
X154617299Y-128847513D01*
X154613576Y-128836464D01*
X154591444Y-128770779D01*
X154591441Y-128770775D01*
X154591441Y-128770773D01*
X154591006Y-128769831D01*
X154581895Y-128750818D01*
X154581433Y-128749887D01*
X154581432Y-128749884D01*
X154537815Y-128681646D01*
X154496070Y-128612264D01*
X154496069Y-128612263D01*
X154496068Y-128612261D01*
X154495457Y-128611458D01*
X154482493Y-128594874D01*
X154481804Y-128594018D01*
X154481800Y-128594011D01*
X154424539Y-128536750D01*
X154368849Y-128477959D01*
X154368088Y-128477312D01*
X154350881Y-128463092D01*
X153781818Y-127894029D01*
X153748333Y-127832706D01*
X153745499Y-127806348D01*
X153745499Y-127513651D01*
X153765184Y-127446612D01*
X153781818Y-127425970D01*
X154004089Y-127203699D01*
X154925192Y-126282595D01*
X154928859Y-126279215D01*
X154971100Y-126243337D01*
X155020097Y-126178881D01*
X155070841Y-126115754D01*
X155070842Y-126115751D01*
X155071480Y-126114753D01*
X155082406Y-126097138D01*
X155083043Y-126096077D01*
X155083054Y-126096064D01*
X155117066Y-126022547D01*
X155153036Y-125950021D01*
X155153039Y-125950008D01*
X155153452Y-125948886D01*
X155160389Y-125929183D01*
X155160727Y-125928177D01*
X155160732Y-125928167D01*
X155178141Y-125849073D01*
X155197684Y-125770495D01*
X155197683Y-125770495D01*
X155197685Y-125770491D01*
X155197830Y-125769426D01*
X155200371Y-125748677D01*
X155200500Y-125747497D01*
X155200500Y-125666531D01*
X155202693Y-125585564D01*
X155202608Y-125584520D01*
X155200500Y-125562352D01*
X155200500Y-120837087D01*
X155200705Y-120832052D01*
X155202186Y-120813854D01*
X155205201Y-120776833D01*
X155194272Y-120696623D01*
X155185514Y-120616090D01*
X155185511Y-120616081D01*
X155185293Y-120615091D01*
X155180493Y-120594608D01*
X155180225Y-120593529D01*
X155152305Y-120517530D01*
X155126444Y-120440779D01*
X155125980Y-120439776D01*
X155116947Y-120420923D01*
X155116434Y-120419891D01*
X155116432Y-120419884D01*
X155072822Y-120351658D01*
X155031070Y-120282264D01*
X155031068Y-120282262D01*
X155031067Y-120282260D01*
X155030455Y-120281455D01*
X155017503Y-120264889D01*
X155016803Y-120264018D01*
X155016799Y-120264011D01*
X154959557Y-120206769D01*
X154903848Y-120147957D01*
X154903108Y-120147328D01*
X154885875Y-120133087D01*
X153017309Y-118264521D01*
X152983824Y-118203198D01*
X152988808Y-118133506D01*
X153030680Y-118077573D01*
X153052576Y-118064463D01*
X153117830Y-118034035D01*
X153311401Y-117898495D01*
X153478495Y-117731401D01*
X153608425Y-117545842D01*
X153663002Y-117502217D01*
X153732500Y-117495023D01*
X153794855Y-117526546D01*
X153811575Y-117545842D01*
X153941505Y-117731401D01*
X154108599Y-117898495D01*
X154185135Y-117952086D01*
X154302165Y-118034032D01*
X154302167Y-118034033D01*
X154302170Y-118034035D01*
X154516337Y-118133903D01*
X154744592Y-118195063D01*
X154915319Y-118210000D01*
X154979999Y-118215659D01*
X154980000Y-118215659D01*
X154980001Y-118215659D01*
X155044681Y-118210000D01*
X155215408Y-118195063D01*
X155443663Y-118133903D01*
X155657830Y-118034035D01*
X155658361Y-118033662D01*
X155658632Y-118033571D01*
X155662522Y-118031326D01*
X155662972Y-118032107D01*
X155724565Y-118011328D01*
X155792334Y-118028332D01*
X155840152Y-118079275D01*
X155853495Y-118135230D01*
X155853495Y-141629748D01*
X155853483Y-141629788D01*
X155853492Y-141681109D01*
X155853527Y-141891520D01*
X155871197Y-142101105D01*
X155888879Y-142310846D01*
X155959336Y-142725742D01*
X155959337Y-142725743D01*
X156064392Y-143133223D01*
X156064394Y-143133230D01*
X156064395Y-143133232D01*
X156203311Y-143530449D01*
X156203316Y-143530462D01*
X156375120Y-143914625D01*
X156578581Y-144282984D01*
X156812271Y-144632953D01*
X157074537Y-144962054D01*
X157363522Y-145267960D01*
X157363525Y-145267962D01*
X157363525Y-145267963D01*
X157677181Y-145548506D01*
X157715962Y-145577720D01*
X158013305Y-145801713D01*
X158369509Y-146025787D01*
X158369511Y-146025788D01*
X158743273Y-146219144D01*
X158743278Y-146219146D01*
X159131970Y-146380421D01*
X159532836Y-146508473D01*
X159943042Y-146602396D01*
X160242738Y-146644930D01*
X160359687Y-146661528D01*
X160779826Y-146685448D01*
X160779828Y-146685447D01*
X160779829Y-146685448D01*
X161200495Y-146673989D01*
X161408213Y-146650800D01*
X161409623Y-146650645D01*
X161415595Y-146649969D01*
X162209557Y-146561206D01*
X162321420Y-146548701D01*
X164140677Y-146308952D01*
X165954863Y-146033434D01*
X167763272Y-145722255D01*
X169565206Y-145375534D01*
X171359964Y-144993406D01*
X173146852Y-144576020D01*
X174925176Y-144123536D01*
X176694248Y-143636131D01*
X178453382Y-143113993D01*
X180201896Y-142557325D01*
X181939111Y-141966342D01*
X183664356Y-141341274D01*
X184057539Y-141190000D01*
X185197843Y-140751276D01*
X185267479Y-140745576D01*
X185329143Y-140778429D01*
X185360391Y-140828974D01*
X188232633Y-149741943D01*
X188234460Y-149811788D01*
X188198235Y-149871534D01*
X188158347Y-149896006D01*
X187075030Y-150304359D01*
X186312022Y-150590591D01*
X185206380Y-150982931D01*
X184402137Y-151266473D01*
X183311791Y-151629625D01*
X182479356Y-151904574D01*
X181397709Y-152241563D01*
X180544422Y-152504651D01*
X179467738Y-152817214D01*
X178598047Y-153066484D01*
X177524133Y-153355679D01*
X176641008Y-153589851D01*
X175568436Y-153856383D01*
X174674056Y-154074552D01*
X173601944Y-154318894D01*
X172697953Y-154520399D01*
X171625602Y-154742910D01*
X170713574Y-154927202D01*
X169640535Y-155128132D01*
X168721509Y-155294840D01*
X167647692Y-155474333D01*
X166722720Y-155623137D01*
X165647915Y-155781336D01*
X164717832Y-155911995D01*
X163642139Y-156048969D01*
X162707707Y-156161291D01*
X161631147Y-156277108D01*
X160693154Y-156370930D01*
X159615744Y-156465644D01*
X158674902Y-156540838D01*
X157596786Y-156614478D01*
X156653839Y-156670948D01*
X155575148Y-156723536D01*
X154630548Y-156761223D01*
X153551627Y-156792767D01*
X152606079Y-156811622D01*
X151526863Y-156822137D01*
X150581127Y-156822137D01*
X149501910Y-156811622D01*
X148556362Y-156792767D01*
X147477441Y-156761223D01*
X146532841Y-156723536D01*
X145454150Y-156670948D01*
X144511203Y-156614478D01*
X143433087Y-156540838D01*
X142492245Y-156465644D01*
X141414835Y-156370930D01*
X140476842Y-156277108D01*
X139400282Y-156161291D01*
X138465850Y-156048969D01*
X137390157Y-155911995D01*
X136460074Y-155781336D01*
X135385269Y-155623137D01*
X134460297Y-155474333D01*
X133386480Y-155294840D01*
X132467454Y-155128132D01*
X131394415Y-154927202D01*
X130482387Y-154742910D01*
X129410036Y-154520399D01*
X128506045Y-154318894D01*
X128433695Y-154302405D01*
X127433932Y-154074551D01*
X126539553Y-153856383D01*
X125466981Y-153589851D01*
X124583856Y-153355679D01*
X123509942Y-153066484D01*
X122640251Y-152817214D01*
X121563567Y-152504651D01*
X120710280Y-152241563D01*
X119628633Y-151904574D01*
X118796198Y-151629625D01*
X117705852Y-151266473D01*
X116901609Y-150982931D01*
X115795967Y-150590591D01*
X115032959Y-150304359D01*
X113956311Y-149898520D01*
X113900523Y-149856455D01*
X113876334Y-149790906D01*
X113882724Y-149742353D01*
X116911624Y-140889703D01*
X116951951Y-140832648D01*
X117016723Y-140806451D01*
X117073470Y-140814116D01*
X118352988Y-141306401D01*
X118443633Y-141341276D01*
X120168878Y-141966345D01*
X121906094Y-142557328D01*
X123654607Y-143113996D01*
X125413741Y-143636134D01*
X127182813Y-144123539D01*
X128961137Y-144576023D01*
X130748025Y-144993410D01*
X132542783Y-145375538D01*
X134344717Y-145722259D01*
X136153127Y-146033439D01*
X137967312Y-146308956D01*
X139786569Y-146548706D01*
X139838342Y-146554494D01*
X140620963Y-146641989D01*
X140621251Y-146642109D01*
X140697887Y-146650589D01*
X140697887Y-146650590D01*
X140698383Y-146650646D01*
X140698804Y-146650692D01*
X140752847Y-146656795D01*
X140753458Y-146656779D01*
X140907497Y-146673976D01*
X141328161Y-146685436D01*
X141328161Y-146685435D01*
X141328164Y-146685436D01*
X141748303Y-146661516D01*
X141865169Y-146644930D01*
X142164948Y-146602385D01*
X142164952Y-146602384D01*
X142164953Y-146602384D01*
X142319425Y-146567015D01*
X142575154Y-146508462D01*
X142976019Y-146380411D01*
X143148245Y-146308952D01*
X143364715Y-146219135D01*
X143506147Y-146145969D01*
X143738479Y-146025779D01*
X144094672Y-145801713D01*
X144094685Y-145801705D01*
X144094685Y-145801704D01*
X144392918Y-145577041D01*
X144430807Y-145548499D01*
X144725201Y-145285185D01*
X144744466Y-145267954D01*
X145033451Y-144962049D01*
X145295716Y-144632948D01*
X145529406Y-144282980D01*
X145732867Y-143914622D01*
X145732871Y-143914614D01*
X145904671Y-143530459D01*
X145904672Y-143530454D01*
X145904675Y-143530449D01*
X146043595Y-143133221D01*
X146148650Y-142725742D01*
X146148651Y-142725741D01*
X146210404Y-142362102D01*
X146219107Y-142310853D01*
X146254460Y-141891519D01*
X146254495Y-141681109D01*
X146254495Y-141680609D01*
X146254495Y-118325310D01*
X146274180Y-118258271D01*
X146326984Y-118212516D01*
X146396142Y-118202572D01*
X146400144Y-118203331D01*
X146462155Y-118209999D01*
X146462172Y-118210000D01*
X147110000Y-118210000D01*
X147110000Y-117295501D01*
X147217685Y-117344680D01*
X147324237Y-117360000D01*
X147395763Y-117360000D01*
X147502315Y-117344680D01*
X147610000Y-117295501D01*
X147610000Y-118210000D01*
G37*
%TD.AperFunction*%
%TA.AperFunction,Conductor*%
G36*
X152127547Y-142050016D02*
G01*
X152257173Y-142090000D01*
X152358724Y-142090000D01*
X152459138Y-142074865D01*
X152575000Y-142019068D01*
X152575000Y-143040000D01*
X152800500Y-143040000D01*
X152867539Y-143059685D01*
X152913294Y-143112489D01*
X152924500Y-143164000D01*
X152924500Y-144531348D01*
X152904815Y-144598387D01*
X152888181Y-144619029D01*
X152564029Y-144943181D01*
X152502706Y-144976666D01*
X152476348Y-144979500D01*
X151382129Y-144979500D01*
X151382123Y-144979501D01*
X151322516Y-144985908D01*
X151187671Y-145036202D01*
X151187664Y-145036206D01*
X151072455Y-145122452D01*
X151072452Y-145122455D01*
X150986206Y-145237664D01*
X150986203Y-145237670D01*
X150957544Y-145314508D01*
X150915672Y-145370441D01*
X150850208Y-145394858D01*
X150781935Y-145380006D01*
X150750135Y-145355158D01*
X150741784Y-145346087D01*
X150741778Y-145346082D01*
X150741777Y-145346081D01*
X150558634Y-145203535D01*
X150558628Y-145203531D01*
X150354504Y-145093064D01*
X150354495Y-145093061D01*
X150134984Y-145017702D01*
X149944450Y-144985908D01*
X149906049Y-144979500D01*
X149673951Y-144979500D01*
X149673948Y-144979500D01*
X149666916Y-144980673D01*
X149597551Y-144972287D01*
X149558833Y-144946044D01*
X149221819Y-144609030D01*
X149188334Y-144547707D01*
X149185500Y-144521349D01*
X149185500Y-143088594D01*
X149205185Y-143021555D01*
X149257989Y-142975800D01*
X149327147Y-142965856D01*
X149349759Y-142971312D01*
X149440019Y-143002298D01*
X149668951Y-143040500D01*
X149668952Y-143040500D01*
X149901048Y-143040500D01*
X149901049Y-143040500D01*
X150129981Y-143002298D01*
X150349503Y-142926936D01*
X150553626Y-142816470D01*
X150736784Y-142673913D01*
X150745511Y-142664432D01*
X150805394Y-142628441D01*
X150875232Y-142630538D01*
X150932850Y-142670060D01*
X150952924Y-142705080D01*
X150981645Y-142782086D01*
X150981649Y-142782093D01*
X151067809Y-142897187D01*
X151067812Y-142897190D01*
X151182906Y-142983350D01*
X151182913Y-142983354D01*
X151317620Y-143033596D01*
X151317627Y-143033598D01*
X151377155Y-143039999D01*
X151377172Y-143040000D01*
X152075000Y-143040000D01*
X152075000Y-142014189D01*
X152127547Y-142050016D01*
G37*
%TD.AperFunction*%
%TA.AperFunction,Conductor*%
G36*
X150904849Y-137970949D02*
G01*
X150962468Y-138010469D01*
X150982544Y-138045491D01*
X151011203Y-138122330D01*
X151011206Y-138122335D01*
X151097452Y-138237544D01*
X151097455Y-138237547D01*
X151212664Y-138323793D01*
X151212671Y-138323797D01*
X151347517Y-138374091D01*
X151347516Y-138374091D01*
X151354444Y-138374835D01*
X151407127Y-138380500D01*
X152501348Y-138380499D01*
X152568387Y-138400184D01*
X152589029Y-138416818D01*
X152888181Y-138715970D01*
X152921666Y-138777293D01*
X152924500Y-138803651D01*
X152924500Y-140116000D01*
X152904815Y-140183039D01*
X152852011Y-140228794D01*
X152800500Y-140240000D01*
X152575000Y-140240000D01*
X152575000Y-141265810D01*
X152522453Y-141229984D01*
X152392827Y-141190000D01*
X152291276Y-141190000D01*
X152190862Y-141205135D01*
X152075000Y-141260931D01*
X152075000Y-140240000D01*
X151377155Y-140240000D01*
X151317627Y-140246401D01*
X151317620Y-140246403D01*
X151182913Y-140296645D01*
X151182906Y-140296649D01*
X151067812Y-140382809D01*
X151067809Y-140382812D01*
X150981649Y-140497906D01*
X150981646Y-140497911D01*
X150952924Y-140574920D01*
X150911052Y-140630853D01*
X150845588Y-140655270D01*
X150777315Y-140640418D01*
X150745514Y-140615571D01*
X150736784Y-140606087D01*
X150736779Y-140606083D01*
X150736777Y-140606081D01*
X150553634Y-140463535D01*
X150553628Y-140463531D01*
X150349504Y-140353064D01*
X150349495Y-140353061D01*
X150129984Y-140277702D01*
X149942404Y-140246401D01*
X149901049Y-140239500D01*
X149668951Y-140239500D01*
X149636246Y-140244957D01*
X149440013Y-140277702D01*
X149349762Y-140308686D01*
X149279964Y-140311836D01*
X149219543Y-140276749D01*
X149187682Y-140214567D01*
X149185500Y-140191405D01*
X149185500Y-138863650D01*
X149205185Y-138796611D01*
X149221815Y-138775973D01*
X149583834Y-138413953D01*
X149645155Y-138380470D01*
X149691925Y-138379328D01*
X149698771Y-138380470D01*
X149698951Y-138380500D01*
X149698956Y-138380500D01*
X149931048Y-138380500D01*
X149931049Y-138380500D01*
X150159981Y-138342298D01*
X150379503Y-138266936D01*
X150583626Y-138156470D01*
X150766784Y-138013913D01*
X150775130Y-138004846D01*
X150835010Y-137968854D01*
X150904849Y-137970949D01*
G37*
%TD.AperFunction*%
%TA.AperFunction,Conductor*%
G36*
X152167547Y-132740016D02*
G01*
X152297173Y-132780000D01*
X152398724Y-132780000D01*
X152499138Y-132764865D01*
X152615000Y-132709068D01*
X152615000Y-133730000D01*
X152840500Y-133730000D01*
X152907539Y-133749685D01*
X152953294Y-133802489D01*
X152964500Y-133854000D01*
X152964500Y-135116348D01*
X152944815Y-135183387D01*
X152928181Y-135204029D01*
X152589029Y-135543181D01*
X152527706Y-135576666D01*
X152501348Y-135579500D01*
X151407129Y-135579500D01*
X151407123Y-135579501D01*
X151347516Y-135585908D01*
X151212671Y-135636202D01*
X151212664Y-135636206D01*
X151097455Y-135722452D01*
X151097452Y-135722455D01*
X151011206Y-135837664D01*
X151011203Y-135837670D01*
X150982544Y-135914508D01*
X150940672Y-135970441D01*
X150875208Y-135994858D01*
X150806935Y-135980006D01*
X150775135Y-135955158D01*
X150766784Y-135946087D01*
X150766778Y-135946082D01*
X150766777Y-135946081D01*
X150583634Y-135803535D01*
X150583628Y-135803531D01*
X150379504Y-135693064D01*
X150379495Y-135693061D01*
X150159984Y-135617702D01*
X149938078Y-135580673D01*
X149931049Y-135579500D01*
X149698951Y-135579500D01*
X149698948Y-135579500D01*
X149691916Y-135580673D01*
X149622551Y-135572287D01*
X149583833Y-135546044D01*
X149261819Y-135224030D01*
X149228334Y-135162707D01*
X149225500Y-135136349D01*
X149225500Y-133778594D01*
X149245185Y-133711555D01*
X149297989Y-133665800D01*
X149367147Y-133655856D01*
X149389759Y-133661312D01*
X149480019Y-133692298D01*
X149708951Y-133730500D01*
X149708952Y-133730500D01*
X149941048Y-133730500D01*
X149941049Y-133730500D01*
X150169981Y-133692298D01*
X150389503Y-133616936D01*
X150593626Y-133506470D01*
X150776784Y-133363913D01*
X150785511Y-133354432D01*
X150845394Y-133318441D01*
X150915232Y-133320538D01*
X150972850Y-133360060D01*
X150992924Y-133395080D01*
X151021645Y-133472086D01*
X151021649Y-133472093D01*
X151107809Y-133587187D01*
X151107812Y-133587190D01*
X151222906Y-133673350D01*
X151222913Y-133673354D01*
X151357620Y-133723596D01*
X151357627Y-133723598D01*
X151417155Y-133729999D01*
X151417172Y-133730000D01*
X152115000Y-133730000D01*
X152115000Y-132704189D01*
X152167547Y-132740016D01*
G37*
%TD.AperFunction*%
%TA.AperFunction,Conductor*%
G36*
X150894849Y-128650949D02*
G01*
X150952468Y-128690469D01*
X150972544Y-128725491D01*
X151001203Y-128802330D01*
X151001206Y-128802335D01*
X151087452Y-128917544D01*
X151087455Y-128917547D01*
X151202664Y-129003793D01*
X151202671Y-129003797D01*
X151337517Y-129054091D01*
X151337516Y-129054091D01*
X151344444Y-129054835D01*
X151397127Y-129060500D01*
X152491348Y-129060499D01*
X152558387Y-129080184D01*
X152579029Y-129096818D01*
X152928181Y-129445969D01*
X152961666Y-129507292D01*
X152964500Y-129533650D01*
X152964500Y-130806000D01*
X152944815Y-130873039D01*
X152892011Y-130918794D01*
X152840500Y-130930000D01*
X152615000Y-130930000D01*
X152615000Y-131955810D01*
X152562453Y-131919984D01*
X152432827Y-131880000D01*
X152331276Y-131880000D01*
X152230862Y-131895135D01*
X152115000Y-131950931D01*
X152115000Y-130930000D01*
X151417155Y-130930000D01*
X151357627Y-130936401D01*
X151357620Y-130936403D01*
X151222913Y-130986645D01*
X151222906Y-130986649D01*
X151107812Y-131072809D01*
X151107809Y-131072812D01*
X151021649Y-131187906D01*
X151021646Y-131187911D01*
X150992924Y-131264920D01*
X150951052Y-131320853D01*
X150885588Y-131345270D01*
X150817315Y-131330418D01*
X150785514Y-131305571D01*
X150776784Y-131296087D01*
X150776779Y-131296083D01*
X150776777Y-131296081D01*
X150593634Y-131153535D01*
X150593628Y-131153531D01*
X150389504Y-131043064D01*
X150389495Y-131043061D01*
X150169984Y-130967702D01*
X149982404Y-130936401D01*
X149941049Y-130929500D01*
X149708951Y-130929500D01*
X149676246Y-130934957D01*
X149480013Y-130967702D01*
X149389762Y-130998686D01*
X149319964Y-131001836D01*
X149259543Y-130966749D01*
X149227682Y-130904567D01*
X149225500Y-130881405D01*
X149225500Y-129493650D01*
X149245185Y-129426611D01*
X149261815Y-129405973D01*
X149573834Y-129093953D01*
X149635155Y-129060470D01*
X149681925Y-129059328D01*
X149688771Y-129060470D01*
X149688951Y-129060500D01*
X149688956Y-129060500D01*
X149921048Y-129060500D01*
X149921049Y-129060500D01*
X150149981Y-129022298D01*
X150369503Y-128946936D01*
X150573626Y-128836470D01*
X150756784Y-128693913D01*
X150765130Y-128684846D01*
X150825010Y-128648854D01*
X150894849Y-128650949D01*
G37*
%TD.AperFunction*%
%TA.AperFunction,Conductor*%
G36*
X153856014Y-114500842D02*
G01*
X153878788Y-114502333D01*
X153937804Y-114506201D01*
X154119441Y-114519190D01*
X154127065Y-114520217D01*
X154243643Y-114543406D01*
X154387619Y-114574726D01*
X154394352Y-114576595D01*
X154513571Y-114617064D01*
X154645699Y-114666346D01*
X154651446Y-114668827D01*
X154767045Y-114725834D01*
X154888876Y-114792359D01*
X154893580Y-114795207D01*
X155000707Y-114866787D01*
X155003399Y-114868692D01*
X155112595Y-114950435D01*
X155116321Y-114953456D01*
X155213544Y-115038718D01*
X155216505Y-115041492D01*
X155312705Y-115137692D01*
X155315480Y-115140654D01*
X155400748Y-115237885D01*
X155403768Y-115241610D01*
X155485501Y-115350792D01*
X155487417Y-115353501D01*
X155503229Y-115377163D01*
X155524109Y-115443840D01*
X155505626Y-115511221D01*
X155453649Y-115557912D01*
X155384679Y-115569091D01*
X155368037Y-115565832D01*
X155215416Y-115524939D01*
X155215412Y-115524938D01*
X155215408Y-115524937D01*
X155215406Y-115524936D01*
X155215403Y-115524936D01*
X154980001Y-115504341D01*
X154979999Y-115504341D01*
X154744596Y-115524936D01*
X154744586Y-115524938D01*
X154516344Y-115586094D01*
X154516335Y-115586098D01*
X154302171Y-115685964D01*
X154302169Y-115685965D01*
X154108597Y-115821505D01*
X153941505Y-115988597D01*
X153811575Y-116174158D01*
X153756998Y-116217783D01*
X153687500Y-116224977D01*
X153625145Y-116193454D01*
X153608425Y-116174158D01*
X153478494Y-115988597D01*
X153311402Y-115821506D01*
X153311395Y-115821501D01*
X153117834Y-115685967D01*
X153117830Y-115685965D01*
X152962454Y-115613512D01*
X152903663Y-115586097D01*
X152903659Y-115586096D01*
X152903655Y-115586094D01*
X152675413Y-115524938D01*
X152675403Y-115524936D01*
X152440001Y-115504341D01*
X152439999Y-115504341D01*
X152204596Y-115524936D01*
X152204586Y-115524938D01*
X151976344Y-115586094D01*
X151976335Y-115586098D01*
X151762171Y-115685964D01*
X151762169Y-115685965D01*
X151568597Y-115821505D01*
X151401505Y-115988597D01*
X151271575Y-116174158D01*
X151216998Y-116217783D01*
X151147500Y-116224977D01*
X151085145Y-116193454D01*
X151068425Y-116174158D01*
X150938494Y-115988597D01*
X150771402Y-115821506D01*
X150771395Y-115821501D01*
X150577834Y-115685967D01*
X150577830Y-115685965D01*
X150422454Y-115613512D01*
X150363663Y-115586097D01*
X150363659Y-115586096D01*
X150363655Y-115586094D01*
X150135413Y-115524938D01*
X150135403Y-115524936D01*
X149900001Y-115504341D01*
X149899999Y-115504341D01*
X149664596Y-115524936D01*
X149664586Y-115524938D01*
X149436344Y-115586094D01*
X149436335Y-115586098D01*
X149222171Y-115685964D01*
X149222169Y-115685965D01*
X149028600Y-115821503D01*
X148906284Y-115943819D01*
X148844961Y-115977303D01*
X148775269Y-115972319D01*
X148719336Y-115930447D01*
X148702421Y-115899470D01*
X148653354Y-115767913D01*
X148653350Y-115767906D01*
X148567190Y-115652812D01*
X148567187Y-115652809D01*
X148452093Y-115566649D01*
X148452086Y-115566645D01*
X148317379Y-115516403D01*
X148317372Y-115516401D01*
X148257844Y-115510000D01*
X147610000Y-115510000D01*
X147610000Y-116424498D01*
X147502315Y-116375320D01*
X147395763Y-116360000D01*
X147324237Y-116360000D01*
X147217685Y-116375320D01*
X147110000Y-116424498D01*
X147110000Y-115510000D01*
X146751041Y-115510000D01*
X146684002Y-115490315D01*
X146638247Y-115437511D01*
X146628303Y-115368353D01*
X146651772Y-115311692D01*
X146704399Y-115241390D01*
X146707358Y-115237741D01*
X146792343Y-115140833D01*
X146795091Y-115137901D01*
X146795300Y-115137692D01*
X146891705Y-115041285D01*
X146894629Y-115038547D01*
X146991507Y-114953586D01*
X146995193Y-114950597D01*
X147104903Y-114868469D01*
X147107534Y-114866608D01*
X147214249Y-114795303D01*
X147218915Y-114792477D01*
X147341316Y-114725640D01*
X147456388Y-114668892D01*
X147462110Y-114666422D01*
X147594965Y-114616868D01*
X147713504Y-114576628D01*
X147720210Y-114574767D01*
X147865304Y-114543203D01*
X147980786Y-114520232D01*
X147988418Y-114519204D01*
X148172584Y-114506030D01*
X148230502Y-114502234D01*
X148251754Y-114500842D01*
X148255809Y-114500709D01*
X153851959Y-114500709D01*
X153856014Y-114500842D01*
G37*
%TD.AperFunction*%
%TD*%
M02*
