%TF.GenerationSoftware,KiCad,Pcbnew,7.0.9*%
%TF.CreationDate,2025-05-06T13:12:29+09:00*%
%TF.ProjectId,Line_side&back,4c696e65-5f73-4696-9465-266261636b2e,rev?*%
%TF.SameCoordinates,Original*%
%TF.FileFunction,Legend,Top*%
%TF.FilePolarity,Positive*%
%FSLAX46Y46*%
G04 Gerber Fmt 4.6, Leading zero omitted, Abs format (unit mm)*
G04 Created by KiCad (PCBNEW 7.0.9) date 2025-05-06 13:12:29*
%MOMM*%
%LPD*%
G01*
G04 APERTURE LIST*
%ADD10C,0.120000*%
G04 APERTURE END LIST*
D10*
%TO.C,D10*%
X130268738Y-152782484D02*
X130423024Y-152805542D01*
X132559298Y-153124811D02*
X132713585Y-153147869D01*
X130902170Y-149608918D02*
G75*
G03*
X130269216Y-152782556I819574J-1813394D01*
G01*
X130807657Y-150233008D02*
G75*
G03*
X130499743Y-152292205I914087J-1189304D01*
G01*
X132636017Y-152611473D02*
G75*
G03*
X132943609Y-150552228I-914273J1189161D01*
G01*
X132713106Y-153147798D02*
G75*
G03*
X133035691Y-149927774I-991362J1725486D01*
G01*
%TO.C,Q3*%
X119176276Y-146364559D02*
X119027093Y-146318949D01*
X116961475Y-145687426D02*
X116812291Y-145641816D01*
X118080718Y-149409639D02*
G75*
G03*
X119175813Y-146364419I-542534J1914616D01*
G01*
X118266440Y-148806374D02*
G75*
G03*
X118875340Y-146815309I-728256J1311351D01*
G01*
X116809722Y-146183787D02*
G75*
G03*
X116201135Y-148174947I728462J-1311236D01*
G01*
X116812754Y-145641959D02*
G75*
G03*
X116017763Y-148778930I725430J-1853064D01*
G01*
%TO.C,RV1*%
X146470000Y-124620000D02*
X147850000Y-124620000D01*
X146470000Y-124620000D02*
X146470000Y-119380000D01*
X150330000Y-124620000D02*
X151710000Y-124620000D01*
X151710000Y-124620000D02*
X151710000Y-119380000D01*
X146470000Y-119380000D02*
X147051000Y-119380000D01*
X148830000Y-119380000D02*
X149350000Y-119380000D01*
X151130000Y-119380000D02*
X151710000Y-119380000D01*
%TO.C,R1*%
X142640555Y-150324218D02*
X142192018Y-150253176D01*
X142870514Y-148872316D02*
X142421977Y-148801274D01*
%TO.C,J1*%
X146030000Y-118190000D02*
X146030000Y-116860000D01*
X147360000Y-118190000D02*
X146030000Y-118190000D01*
X148630000Y-118190000D02*
X156310000Y-118190000D01*
X148630000Y-118190000D02*
X148630000Y-115530000D01*
X156310000Y-118190000D02*
X156310000Y-115530000D01*
X148630000Y-115530000D02*
X156310000Y-115530000D01*
%TO.C,Q6*%
X157076000Y-151630000D02*
X156920000Y-151630000D01*
X154760000Y-151630000D02*
X154604000Y-151630000D01*
X156918608Y-154862334D02*
G75*
G03*
X157075515Y-151630001I-1078608J1672334D01*
G01*
X156919836Y-154231129D02*
G75*
G03*
X156919999Y-152149040I-1079836J1041129D01*
G01*
X154760001Y-152149040D02*
G75*
G03*
X154760164Y-154231129I1079999J-1040960D01*
G01*
X154604485Y-151630001D02*
G75*
G03*
X154761392Y-154862334I1235515J-1559999D01*
G01*
%TO.C,R5*%
X161721246Y-149784404D02*
X161274017Y-149863263D01*
X161465983Y-148336737D02*
X161018754Y-148415596D01*
%TO.C,R8*%
X155425000Y-138672936D02*
X155425000Y-139127064D01*
X153955000Y-138672936D02*
X153955000Y-139127064D01*
%TO.C,D2*%
X179354126Y-150731353D02*
X179503310Y-150685743D01*
X181568928Y-150054220D02*
X181718111Y-150008610D01*
X178559598Y-147594239D02*
G75*
G03*
X179354589Y-150731210I1520421J-1283907D01*
G01*
X178742970Y-148198222D02*
G75*
G03*
X179351557Y-150189382I1337049J-679924D01*
G01*
X181417175Y-149557860D02*
G75*
G03*
X180808275Y-147566795I-1337156J679714D01*
G01*
X181717648Y-150008750D02*
G75*
G03*
X180622553Y-146963530I-1637629J1130604D01*
G01*
%TO.C,Q4*%
X185349152Y-145604560D02*
X185199968Y-145650170D01*
X183134350Y-146281693D02*
X182985167Y-146327303D01*
X186143680Y-148741674D02*
G75*
G03*
X185348689Y-145604703I-1520421J1283907D01*
G01*
X185960308Y-148137691D02*
G75*
G03*
X185351721Y-146146531I-1337049J679924D01*
G01*
X183286103Y-146778053D02*
G75*
G03*
X183895003Y-148769118I1337156J-679714D01*
G01*
X182985630Y-146327163D02*
G75*
G03*
X184080725Y-149372383I1637629J-1130604D01*
G01*
%TO.C,D6*%
X152655000Y-133566000D02*
X152655000Y-133410000D01*
X152655000Y-131250000D02*
X152655000Y-131094000D01*
X149422666Y-133408608D02*
G75*
G03*
X152654999Y-133565515I1672334J1078608D01*
G01*
X150053871Y-133409836D02*
G75*
G03*
X152135960Y-133409999I1041129J1079836D01*
G01*
X152135960Y-131250001D02*
G75*
G03*
X150053871Y-131250164I-1040960J-1079999D01*
G01*
X152654999Y-131094485D02*
G75*
G03*
X149422666Y-131251392I-1559999J-1235515D01*
G01*
%TO.C,D3*%
X169452778Y-153118923D02*
X169607065Y-153095865D01*
X171743339Y-152776596D02*
X171897625Y-152753538D01*
X169130673Y-149898829D02*
G75*
G03*
X169453257Y-153118851I1313946J-1494537D01*
G01*
X169222755Y-150523283D02*
G75*
G03*
X169530346Y-152582526I1221864J-870083D01*
G01*
X171666619Y-152263258D02*
G75*
G03*
X171358706Y-150204063I-1222000J869892D01*
G01*
X171897146Y-152753609D02*
G75*
G03*
X171264193Y-149579973I-1452527J1360243D01*
G01*
%TO.C,R11*%
X133195798Y-148827194D02*
X132745055Y-148771849D01*
X133374945Y-147368151D02*
X132924202Y-147312806D01*
%TO.C,Q8*%
X176260541Y-148404141D02*
X176111357Y-148449751D01*
X174045739Y-149081274D02*
X173896556Y-149126884D01*
X177055069Y-151541255D02*
G75*
G03*
X176260078Y-148404284I-1520421J1283907D01*
G01*
X176871697Y-150937272D02*
G75*
G03*
X176263110Y-148946112I-1337049J679924D01*
G01*
X174197492Y-149577634D02*
G75*
G03*
X174806392Y-151568699I1337156J-679714D01*
G01*
X173897019Y-149126744D02*
G75*
G03*
X174992114Y-152171964I1637629J-1130604D01*
G01*
%TO.C,D8*%
X120439616Y-150023815D02*
X120588799Y-150069425D01*
X122654417Y-150700948D02*
X122803601Y-150746558D01*
X121535174Y-146978735D02*
G75*
G03*
X120440079Y-150023955I542534J-1914616D01*
G01*
X121349452Y-147582000D02*
G75*
G03*
X120740552Y-149573065I728256J-1311351D01*
G01*
X122806170Y-150204587D02*
G75*
G03*
X123414757Y-148213427I-728462J1311236D01*
G01*
X122803138Y-150746415D02*
G75*
G03*
X123598129Y-147609444I-725430J1853064D01*
G01*
%TO.C,R7*%
X155325000Y-129122936D02*
X155325000Y-129577064D01*
X153855000Y-129122936D02*
X153855000Y-129577064D01*
%TO.C,Q16*%
X152635000Y-128896000D02*
X152635000Y-128740000D01*
X152635000Y-126580000D02*
X152635000Y-126424000D01*
X149402666Y-128738608D02*
G75*
G03*
X152634999Y-128895515I1672334J1078608D01*
G01*
X150033871Y-128739836D02*
G75*
G03*
X152115960Y-128739999I1041129J1079836D01*
G01*
X152115960Y-126580001D02*
G75*
G03*
X150033871Y-126580164I-1040960J-1079999D01*
G01*
X152634999Y-126424485D02*
G75*
G03*
X149402666Y-126581392I-1559999J-1235515D01*
G01*
%TO.C,R9*%
X124119095Y-146368724D02*
X123680441Y-146251187D01*
X124499559Y-144948813D02*
X124060905Y-144831276D01*
%TO.C,R4*%
X171167146Y-148476246D02*
X170717438Y-148539448D01*
X170962562Y-147020552D02*
X170512854Y-147083754D01*
%TO.C,Q7*%
X152645000Y-138216000D02*
X152645000Y-138060000D01*
X152645000Y-135900000D02*
X152645000Y-135744000D01*
X149412666Y-138058608D02*
G75*
G03*
X152644999Y-138215515I1672334J1078608D01*
G01*
X150043871Y-138059836D02*
G75*
G03*
X152125960Y-138059999I1041129J1079836D01*
G01*
X152125960Y-135900001D02*
G75*
G03*
X150043871Y-135900164I-1040960J-1079999D01*
G01*
X152644999Y-135744485D02*
G75*
G03*
X149412666Y-135901392I-1559999J-1235515D01*
G01*
%TO.C,D1*%
X139677235Y-154168371D02*
X139831521Y-154191429D01*
X141967795Y-154510698D02*
X142122082Y-154533756D01*
X140310667Y-150994805D02*
G75*
G03*
X139677713Y-154168443I819574J-1813394D01*
G01*
X140216154Y-151618895D02*
G75*
G03*
X139908240Y-153678092I914087J-1189304D01*
G01*
X142044514Y-153997360D02*
G75*
G03*
X142352106Y-151938115I-914273J1189161D01*
G01*
X142121603Y-154533685D02*
G75*
G03*
X142444188Y-151313661I-991362J1725486D01*
G01*
%TO.C,D5*%
X149844000Y-154780000D02*
X150000000Y-154780000D01*
X152160000Y-154780000D02*
X152316000Y-154780000D01*
X150001392Y-151547666D02*
G75*
G03*
X149844485Y-154779999I1078608J-1672334D01*
G01*
X150000164Y-152178871D02*
G75*
G03*
X150000001Y-154260960I1079836J-1041129D01*
G01*
X152159999Y-154260960D02*
G75*
G03*
X152159836Y-152178871I-1079999J1040960D01*
G01*
X152315515Y-154779999D02*
G75*
G03*
X152158608Y-151547666I-1235515J1559999D01*
G01*
%TO.C,Q10*%
X166750003Y-150378316D02*
X166595716Y-150401374D01*
X164459442Y-150720643D02*
X164305156Y-150743701D01*
X167072108Y-153598410D02*
G75*
G03*
X166749524Y-150378388I-1313946J1494537D01*
G01*
X166980026Y-152973956D02*
G75*
G03*
X166672435Y-150914713I-1221864J870083D01*
G01*
X164536162Y-151233981D02*
G75*
G03*
X164844075Y-153293176I1222000J-869892D01*
G01*
X164305635Y-150743630D02*
G75*
G03*
X164938588Y-153917266I1452527J-1360243D01*
G01*
%TO.C,R6*%
X152227064Y-150415000D02*
X151772936Y-150415000D01*
X152227064Y-148945000D02*
X151772936Y-148945000D01*
%TO.C,R2*%
X180418152Y-145817359D02*
X179979498Y-145934896D01*
X180037688Y-144397448D02*
X179599034Y-144514985D01*
%TO.C,D7*%
X152615000Y-142876000D02*
X152615000Y-142720000D01*
X152615000Y-140560000D02*
X152615000Y-140404000D01*
X149382666Y-142718608D02*
G75*
G03*
X152614999Y-142875515I1672334J1078608D01*
G01*
X150013871Y-142719836D02*
G75*
G03*
X152095960Y-142719999I1041129J1079836D01*
G01*
X152095960Y-140560001D02*
G75*
G03*
X150013871Y-140560164I-1040960J-1079999D01*
G01*
X152614999Y-140404485D02*
G75*
G03*
X149382666Y-140561392I-1559999J-1235515D01*
G01*
%TO.C,Q5*%
X137871097Y-150774125D02*
X137716811Y-150751067D01*
X135580537Y-150431798D02*
X135426250Y-150408740D01*
X137237665Y-153947691D02*
G75*
G03*
X137870619Y-150774053I-819574J1813394D01*
G01*
X137332178Y-153323601D02*
G75*
G03*
X137640092Y-151264404I-914087J1189304D01*
G01*
X135503818Y-150945136D02*
G75*
G03*
X135196226Y-153004381I914273J-1189161D01*
G01*
X135426729Y-150408811D02*
G75*
G03*
X135104144Y-153628835I991362J-1725486D01*
G01*
%TO.C,D4*%
X160050193Y-154544371D02*
X160204480Y-154521313D01*
X162340754Y-154202044D02*
X162495040Y-154178986D01*
X159728088Y-151324277D02*
G75*
G03*
X160050672Y-154544299I1313946J-1494537D01*
G01*
X159820170Y-151948731D02*
G75*
G03*
X160127761Y-154007974I1221864J-870083D01*
G01*
X162264034Y-153688706D02*
G75*
G03*
X161956121Y-151629511I-1222000J869892D01*
G01*
X162494561Y-154179057D02*
G75*
G03*
X161861608Y-151005421I-1452527J1360243D01*
G01*
%TO.C,R3*%
X152085000Y-121129564D02*
X152085000Y-120675436D01*
X153555000Y-121129564D02*
X153555000Y-120675436D01*
%TO.C,Q1*%
X147566000Y-151650000D02*
X147410000Y-151650000D01*
X145250000Y-151650000D02*
X145094000Y-151650000D01*
X147408608Y-154882334D02*
G75*
G03*
X147565515Y-151650001I-1078608J1672334D01*
G01*
X147409836Y-154251129D02*
G75*
G03*
X147409999Y-152169040I-1079836J1041129D01*
G01*
X145250001Y-152169040D02*
G75*
G03*
X145250164Y-154251129I1079999J-1040960D01*
G01*
X145094485Y-151650001D02*
G75*
G03*
X145251392Y-154882334I1235515J-1559999D01*
G01*
%TO.C,Q15*%
X152620000Y-147616000D02*
X152620000Y-147460000D01*
X152620000Y-145300000D02*
X152620000Y-145144000D01*
X149387666Y-147458608D02*
G75*
G03*
X152619999Y-147615515I1672334J1078608D01*
G01*
X150018871Y-147459836D02*
G75*
G03*
X152100960Y-147459999I1041129J1079836D01*
G01*
X152100960Y-145300001D02*
G75*
G03*
X150018871Y-145300164I-1040960J-1079999D01*
G01*
X152619999Y-145144485D02*
G75*
G03*
X149387666Y-145301392I-1559999J-1235515D01*
G01*
%TO.C,Q14*%
X128276582Y-149125887D02*
X128127399Y-149080277D01*
X126061781Y-148448754D02*
X125912597Y-148403144D01*
X127181024Y-152170967D02*
G75*
G03*
X128276119Y-149125747I-542534J1914616D01*
G01*
X127366746Y-151567702D02*
G75*
G03*
X127975646Y-149576637I-728256J1311351D01*
G01*
X125910028Y-148945115D02*
G75*
G03*
X125301441Y-150936275I728462J-1311236D01*
G01*
X125913060Y-148403287D02*
G75*
G03*
X125118069Y-151540258I725430J-1853064D01*
G01*
%TD*%
M02*
