M48
; DRILL file {KiCad 7.0.9} date Tue May  6 13:12:31 2025
; FORMAT={-:-/ absolute / metric / decimal}
; #@! TF.CreationDate,2025-05-06T13:12:31+09:00
; #@! TF.GenerationSoftware,Kicad,Pcbnew,7.0.9
; #@! TF.FileFunction,Plated,1,2,PTH
FMAT,2
METRIC
; #@! TA.AperFunction,Plated,PTH,ViaDrill
T1C0.400
; #@! TA.AperFunction,Plated,PTH,ComponentDrill
T2C0.900
; #@! TA.AperFunction,Plated,PTH,ComponentDrill
T3C1.000
%
G90
G05
T1
X147.16Y-149.3
X152.39Y-134.21
X152.45Y-125.73
X155.35Y-141.27
X155.4Y-131.67
T2
X117.167Y-148.71
X117.909Y-146.281
X121.706Y-150.108
X122.449Y-147.679
X126.267Y-151.471
X127.01Y-149.042
X131.534Y-152.678
X131.909Y-150.166
X136.23Y-153.39
X136.606Y-150.878
X140.943Y-154.064
X141.318Y-151.552
X146.33Y-151.94
X146.33Y-154.48
X149.785Y-141.64
X149.79Y-146.38
X149.805Y-127.66
X149.815Y-136.98
X149.825Y-132.33
X151.08Y-151.95
X151.08Y-154.49
X152.325Y-141.64
X152.33Y-146.38
X152.345Y-127.66
X152.355Y-136.98
X152.365Y-132.33
X155.84Y-151.92
X155.84Y-154.46
X160.854Y-151.563
X161.23Y-154.075
X165.57Y-150.848
X165.946Y-153.36
X170.257Y-150.137
X170.632Y-152.649
X175.163Y-149.043
X175.906Y-151.472
X179.709Y-147.664
X180.451Y-150.093
X184.252Y-146.243
X184.995Y-148.672
T3
X147.36Y-116.86
X149.9Y-116.86
X152.44Y-116.86
X154.98Y-116.86
T0
M30
