%TF.GenerationSoftware,KiCad,Pcbnew,7.0.9*%
%TF.CreationDate,2025-05-06T13:12:29+09:00*%
%TF.ProjectId,Line_side&back,4c696e65-5f73-4696-9465-266261636b2e,rev?*%
%TF.SameCoordinates,Original*%
%TF.FileFunction,Soldermask,Top*%
%TF.FilePolarity,Negative*%
%FSLAX46Y46*%
G04 Gerber Fmt 4.6, Leading zero omitted, Abs format (unit mm)*
G04 Created by KiCad (PCBNEW 7.0.9) date 2025-05-06 13:12:29*
%MOMM*%
%LPD*%
G01*
G04 APERTURE LIST*
G04 Aperture macros list*
%AMRoundRect*
0 Rectangle with rounded corners*
0 $1 Rounding radius*
0 $2 $3 $4 $5 $6 $7 $8 $9 X,Y pos of 4 corners*
0 Add a 4 corners polygon primitive as box body*
4,1,4,$2,$3,$4,$5,$6,$7,$8,$9,$2,$3,0*
0 Add four circle primitives for the rounded corners*
1,1,$1+$1,$2,$3*
1,1,$1+$1,$4,$5*
1,1,$1+$1,$6,$7*
1,1,$1+$1,$8,$9*
0 Add four rect primitives between the rounded corners*
20,1,$1+$1,$2,$3,$4,$5,0*
20,1,$1+$1,$4,$5,$6,$7,0*
20,1,$1+$1,$6,$7,$8,$9,0*
20,1,$1+$1,$8,$9,$2,$3,0*%
%AMRotRect*
0 Rectangle, with rotation*
0 The origin of the aperture is its center*
0 $1 length*
0 $2 width*
0 $3 Rotation angle, in degrees counterclockwise*
0 Add horizontal line*
21,1,$1,$2,0,0,$3*%
G04 Aperture macros list end*
%ADD10RotRect,1.800000X1.800000X81.500000*%
%ADD11C,1.800000*%
%ADD12RotRect,1.800000X1.800000X253.000000*%
%ADD13R,1.300000X2.000000*%
%ADD14R,2.000000X2.000000*%
%ADD15RoundRect,0.250000X0.329664X0.403396X-0.188873X0.485524X-0.329664X-0.403396X0.188873X-0.485524X0*%
%ADD16R,1.700000X1.700000*%
%ADD17O,1.700000X1.700000*%
%ADD18R,1.800000X1.800000*%
%ADD19RoundRect,0.250000X0.180370X0.488746X-0.336654X0.397581X-0.180370X-0.488746X0.336654X-0.397581X0*%
%ADD20RoundRect,0.250000X-0.450000X0.262500X-0.450000X-0.262500X0.450000X-0.262500X0.450000X0.262500X0*%
%ADD21RotRect,1.800000X1.800000X107.000000*%
%ADD22RotRect,1.800000X1.800000X287.000000*%
%ADD23RotRect,1.800000X1.800000X98.500000*%
%ADD24RoundRect,0.250000X0.315385X0.414655X-0.205702X0.478636X-0.315385X-0.414655X0.205702X-0.478636X0*%
%ADD25RotRect,1.800000X1.800000X73.000000*%
%ADD26RoundRect,0.250000X0.370024X0.366727X-0.137087X0.502607X-0.370024X-0.366727X0.137087X-0.502607X0*%
%ADD27RoundRect,0.250000X0.197317X0.482154X-0.322573X0.409088X-0.197317X-0.482154X0.322573X-0.409088X0*%
%ADD28C,3.200000*%
%ADD29RotRect,1.800000X1.800000X278.500000*%
%ADD30RoundRect,0.250000X0.262500X0.450000X-0.262500X0.450000X-0.262500X-0.450000X0.262500X-0.450000X0*%
%ADD31RoundRect,0.250000X0.137087X0.502607X-0.370024X0.366727X-0.137087X-0.502607X0.370024X-0.366727X0*%
%ADD32RotRect,1.800000X1.800000X261.500000*%
%ADD33RoundRect,0.250000X0.450000X-0.262500X0.450000X0.262500X-0.450000X0.262500X-0.450000X-0.262500X0*%
G04 APERTURE END LIST*
D10*
%TO.C,D10*%
X131534026Y-152678362D03*
D11*
X131909462Y-150166262D03*
%TD*%
D12*
%TO.C,Q3*%
X117909496Y-146280516D03*
D11*
X117166872Y-148709530D03*
%TD*%
D13*
%TO.C,RV1*%
X147940000Y-120000000D03*
D14*
X149090000Y-124000000D03*
D13*
X150240000Y-120000000D03*
%TD*%
D15*
%TO.C,R1*%
X143432532Y-149705492D03*
X141630000Y-149420000D03*
%TD*%
D16*
%TO.C,J1*%
X147360000Y-116860000D03*
D17*
X149900000Y-116860000D03*
X152440000Y-116860000D03*
X154980000Y-116860000D03*
%TD*%
D18*
%TO.C,Q6*%
X155840000Y-151920000D03*
D11*
X155840000Y-154460000D03*
%TD*%
D19*
%TO.C,R5*%
X162268637Y-148941546D03*
X160471363Y-149258454D03*
%TD*%
D20*
%TO.C,R8*%
X154690000Y-137987500D03*
X154690000Y-139812500D03*
%TD*%
D21*
%TO.C,D2*%
X180451331Y-150092653D03*
D11*
X179708707Y-147663639D03*
%TD*%
D22*
%TO.C,Q4*%
X184251947Y-146243260D03*
D11*
X184994571Y-148672274D03*
%TD*%
D18*
%TO.C,D6*%
X152365000Y-132330000D03*
D11*
X149825000Y-132330000D03*
%TD*%
D23*
%TO.C,D3*%
X170632337Y-152649416D03*
D11*
X170256901Y-150137316D03*
%TD*%
D24*
%TO.C,R11*%
X133965698Y-148181206D03*
X132154302Y-147958794D03*
%TD*%
D22*
%TO.C,Q8*%
X175163336Y-149042841D03*
D11*
X175905960Y-151471855D03*
%TD*%
D25*
%TO.C,D8*%
X121706396Y-150107858D03*
D11*
X122449020Y-147678844D03*
%TD*%
D20*
%TO.C,R7*%
X154590000Y-128437500D03*
X154590000Y-130262500D03*
%TD*%
D18*
%TO.C,Q16*%
X152345000Y-127660000D03*
D11*
X149805000Y-127660000D03*
%TD*%
D26*
%TO.C,R9*%
X124971407Y-145836172D03*
X123208593Y-145363828D03*
%TD*%
D27*
%TO.C,R4*%
X171743620Y-147653005D03*
X169936380Y-147906995D03*
%TD*%
D18*
%TO.C,Q7*%
X152355000Y-136980000D03*
D11*
X149815000Y-136980000D03*
%TD*%
D28*
%TO.C,REF\u002A\u002A*%
X190530000Y-143670000D03*
%TD*%
D10*
%TO.C,D1*%
X140942523Y-154064249D03*
D11*
X141317959Y-151552149D03*
%TD*%
D18*
%TO.C,D5*%
X151080000Y-154490000D03*
D11*
X151080000Y-151950000D03*
%TD*%
D29*
%TO.C,Q10*%
X165570444Y-150847823D03*
D11*
X165945880Y-153359923D03*
%TD*%
D30*
%TO.C,R6*%
X152912500Y-149680000D03*
X151087500Y-149680000D03*
%TD*%
D31*
%TO.C,R2*%
X180890000Y-144930000D03*
X179127186Y-145402344D03*
%TD*%
D18*
%TO.C,D7*%
X152325000Y-141640000D03*
D11*
X149785000Y-141640000D03*
%TD*%
D32*
%TO.C,Q5*%
X136605809Y-150878247D03*
D11*
X136230373Y-153390347D03*
%TD*%
D28*
%TO.C,REF\u002A\u002A*%
X111590000Y-143700000D03*
%TD*%
D23*
%TO.C,D4*%
X161229752Y-154074864D03*
D11*
X160854316Y-151562764D03*
%TD*%
D33*
%TO.C,R3*%
X152820000Y-121815000D03*
X152820000Y-119990000D03*
%TD*%
D18*
%TO.C,Q1*%
X146330000Y-151940000D03*
D11*
X146330000Y-154480000D03*
%TD*%
D18*
%TO.C,Q15*%
X152330000Y-146380000D03*
D11*
X149790000Y-146380000D03*
%TD*%
D12*
%TO.C,Q14*%
X127009802Y-149041844D03*
D11*
X126267178Y-151470858D03*
%TD*%
M02*
