M48
; DRILL file {KiCad 7.0.9} date Wed Jan 15 22:01:14 2025
; FORMAT={3:3/ absolute / metric / keep zeros}
; #@! TF.CreationDate,2025-01-15T22:01:14+09:00
; #@! TF.GenerationSoftware,Kicad,Pcbnew,7.0.9
; #@! TF.FileFunction,MixedPlating,1,2
FMAT,2
METRIC
; #@! TA.AperFunction,Plated,PTH,ViaDrill
T1C0.400
; #@! TA.AperFunction,Plated,PTH,ComponentDrill
T2C0.900
; #@! TA.AperFunction,Plated,PTH,ComponentDrill
T3C1.000
%
G90
G05
T1
X145020Y-092330
X148270Y-093800
X153320Y-093290
X153440Y-099860
X160510Y-098510
X161350Y-103850
X169410Y-100310
X172780Y-108030
X176360Y-115040
X177360Y-104920
X178010Y-114710
X178020Y-101480
X178630Y-119840
X184090Y-108460
X187880Y-100220
X193720Y-104280
X196540Y-098120
X197170Y-100870
X201700Y-100970
X202340Y-094510
X202610Y-091070
X204440Y-092540
X212420Y-092930
T2
X147888Y-090918
X149345Y-088837
X157293Y-097466
X158750Y-095386
X163540Y-100261
X164069Y-097776
X174756Y-102614
X175284Y-100130
X181867Y-100203
X182395Y-102688
X193070Y-097791
X193598Y-100276
X198446Y-095532
X199902Y-097612
X207816Y-088934
X209273Y-091015
T3
X174836Y-116908
X177376Y-116908
X179916Y-116908
X181324Y-113221
X182456Y-116908
T0
M30
