%TF.GenerationSoftware,KiCad,Pcbnew,7.0.9*%
%TF.CreationDate,2025-01-15T22:01:11+09:00*%
%TF.ProjectId,line_front_back_robot2,6c696e65-5f66-4726-9f6e-74066261636b,rev?*%
%TF.SameCoordinates,Original*%
%TF.FileFunction,Copper,L1,Top*%
%TF.FilePolarity,Positive*%
%FSLAX46Y46*%
G04 Gerber Fmt 4.6, Leading zero omitted, Abs format (unit mm)*
G04 Created by KiCad (PCBNEW 7.0.9) date 2025-01-15 22:01:11*
%MOMM*%
%LPD*%
G01*
G04 APERTURE LIST*
G04 Aperture macros list*
%AMRoundRect*
0 Rectangle with rounded corners*
0 $1 Rounding radius*
0 $2 $3 $4 $5 $6 $7 $8 $9 X,Y pos of 4 corners*
0 Add a 4 corners polygon primitive as box body*
4,1,4,$2,$3,$4,$5,$6,$7,$8,$9,$2,$3,0*
0 Add four circle primitives for the rounded corners*
1,1,$1+$1,$2,$3*
1,1,$1+$1,$4,$5*
1,1,$1+$1,$6,$7*
1,1,$1+$1,$8,$9*
0 Add four rect primitives between the rounded corners*
20,1,$1+$1,$2,$3,$4,$5,0*
20,1,$1+$1,$4,$5,$6,$7,0*
20,1,$1+$1,$6,$7,$8,$9,0*
20,1,$1+$1,$8,$9,$2,$3,0*%
%AMRotRect*
0 Rectangle, with rotation*
0 The origin of the aperture is its center*
0 $1 length*
0 $2 width*
0 $3 Rotation angle, in degrees counterclockwise*
0 Add horizontal line*
21,1,$1,$2,0,0,$3*%
G04 Aperture macros list end*
%TA.AperFunction,ComponentPad*%
%ADD10RotRect,1.800000X1.800000X78.000000*%
%TD*%
%TA.AperFunction,ComponentPad*%
%ADD11C,1.800000*%
%TD*%
%TA.AperFunction,ComponentPad*%
%ADD12RotRect,1.800000X1.800000X102.000000*%
%TD*%
%TA.AperFunction,SMDPad,CuDef*%
%ADD13RotRect,1.500000X0.900000X192.000000*%
%TD*%
%TA.AperFunction,SMDPad,CuDef*%
%ADD14RotRect,1.500000X0.900000X145.000000*%
%TD*%
%TA.AperFunction,SMDPad,CuDef*%
%ADD15R,1.300000X2.000000*%
%TD*%
%TA.AperFunction,SMDPad,CuDef*%
%ADD16R,2.000000X2.000000*%
%TD*%
%TA.AperFunction,SMDPad,CuDef*%
%ADD17RotRect,1.500000X0.900000X168.000000*%
%TD*%
%TA.AperFunction,ComponentPad*%
%ADD18RotRect,1.800000X1.800000X125.000000*%
%TD*%
%TA.AperFunction,ComponentPad*%
%ADD19R,1.700000X1.700000*%
%TD*%
%TA.AperFunction,ComponentPad*%
%ADD20O,1.700000X1.700000*%
%TD*%
%TA.AperFunction,SMDPad,CuDef*%
%ADD21RotRect,1.500000X0.900000X215.000000*%
%TD*%
%TA.AperFunction,ComponentPad*%
%ADD22RotRect,1.800000X1.800000X55.000000*%
%TD*%
%TA.AperFunction,SMDPad,CuDef*%
%ADD23RoundRect,0.250000X1.075000X-0.362500X1.075000X0.362500X-1.075000X0.362500X-1.075000X-0.362500X0*%
%TD*%
%TA.AperFunction,ViaPad*%
%ADD24C,0.800000*%
%TD*%
%TA.AperFunction,Conductor*%
%ADD25C,0.500000*%
%TD*%
%TA.AperFunction,Conductor*%
%ADD26C,0.250000*%
%TD*%
G04 APERTURE END LIST*
D10*
%TO.P,Q10,1,C*%
%TO.N,+3.3V*%
X174756262Y-102614105D03*
D11*
%TO.P,Q10,2,E*%
%TO.N,Net-(Q1-E)*%
X175284358Y-100129610D03*
%TD*%
D12*
%TO.P,Q2,1,C*%
%TO.N,+3.3V*%
X193597947Y-100275554D03*
D11*
%TO.P,Q2,2,E*%
%TO.N,Net-(Q1-E)*%
X193069851Y-97791059D03*
%TD*%
D12*
%TO.P,Q1,1,C*%
%TO.N,+3.3V*%
X182394613Y-102687566D03*
D11*
%TO.P,Q1,2,E*%
%TO.N,Net-(Q1-E)*%
X181866517Y-100203071D03*
%TD*%
D13*
%TO.P,D5,1,DOUT*%
%TO.N,Net-(D1-DIN)*%
X190533130Y-101392166D03*
%TO.P,D5,2,GND*%
%TO.N,GND*%
X189847021Y-98164279D03*
%TO.P,D5,3,VDD*%
%TO.N,+5V*%
X185054098Y-99183046D03*
%TO.P,D5,4,DIN*%
%TO.N,Net-(D2-DOUT)*%
X185740207Y-102410933D03*
%TD*%
D14*
%TO.P,D3,1,DOUT*%
%TO.N,Net-(D2-DIN)*%
X154386337Y-95986264D03*
%TO.P,D3,2,GND*%
%TO.N,GND*%
X156279140Y-93283062D03*
%TO.P,D3,3,VDD*%
%TO.N,+5V*%
X152265295Y-90472538D03*
%TO.P,D3,4,DIN*%
%TO.N,/PWM*%
X150372492Y-93175740D03*
%TD*%
D15*
%TO.P,RV2,1,1*%
%TO.N,unconnected-(RV2-Pad1)*%
X175098592Y-108820719D03*
D16*
%TO.P,RV2,2,2*%
%TO.N,GND*%
X176248592Y-112820719D03*
D15*
%TO.P,RV2,3,3*%
%TO.N,/S*%
X177398592Y-108820719D03*
%TD*%
D17*
%TO.P,D2,1,DOUT*%
%TO.N,Net-(D2-DOUT)*%
X171502245Y-102387607D03*
%TO.P,D2,2,GND*%
%TO.N,GND*%
X172188354Y-99159720D03*
%TO.P,D2,3,VDD*%
%TO.N,+5V*%
X167395431Y-98140953D03*
%TO.P,D2,4,DIN*%
%TO.N,Net-(D2-DIN)*%
X166709322Y-101368840D03*
%TD*%
D18*
%TO.P,Q4,1,C*%
%TO.N,+3.3V*%
X209272680Y-91014723D03*
D11*
%TO.P,Q4,2,E*%
%TO.N,Net-(Q1-E)*%
X207815796Y-88934077D03*
%TD*%
D18*
%TO.P,Q3,1,C*%
%TO.N,+3.3V*%
X199902405Y-97612484D03*
D11*
%TO.P,Q3,2,E*%
%TO.N,Net-(Q1-E)*%
X198445521Y-95531838D03*
%TD*%
D10*
%TO.P,Q9,1,C*%
%TO.N,+3.3V*%
X163540453Y-100260781D03*
D11*
%TO.P,Q9,2,E*%
%TO.N,Net-(Q1-E)*%
X164068549Y-97776286D03*
%TD*%
D19*
%TO.P,J2,1,Pin_1*%
%TO.N,/PWM*%
X182456099Y-116907974D03*
D20*
%TO.P,J2,2,Pin_2*%
%TO.N,+3.3V*%
X179916099Y-116907974D03*
%TO.P,J2,3,Pin_3*%
%TO.N,GND*%
X177376099Y-116907974D03*
%TO.P,J2,4,Pin_4*%
%TO.N,/S*%
X174836099Y-116907974D03*
%TD*%
D19*
%TO.P,J3,1,Pin_1*%
%TO.N,+5V*%
X181323592Y-113220719D03*
%TD*%
D21*
%TO.P,D1,1,DOUT*%
%TO.N,unconnected-(D1-DOUT-Pad1)*%
X206887797Y-93240090D03*
%TO.P,D1,2,GND*%
%TO.N,GND*%
X204994994Y-90536888D03*
%TO.P,D1,3,VDD*%
%TO.N,+5V*%
X200981149Y-93347412D03*
%TO.P,D1,4,DIN*%
%TO.N,Net-(D1-DIN)*%
X202873952Y-96050614D03*
%TD*%
D22*
%TO.P,Q7,1,C*%
%TO.N,+3.3V*%
X147888486Y-90917591D03*
D11*
%TO.P,Q7,2,E*%
%TO.N,Net-(Q1-E)*%
X149345370Y-88836945D03*
%TD*%
D22*
%TO.P,Q8,1,C*%
%TO.N,+3.3V*%
X157293176Y-97466202D03*
D11*
%TO.P,Q8,2,E*%
%TO.N,Net-(Q1-E)*%
X158750060Y-95385556D03*
%TD*%
D23*
%TO.P,R8,1*%
%TO.N,/S*%
X180748592Y-110283219D03*
%TO.P,R8,2*%
%TO.N,Net-(Q1-E)*%
X180748592Y-105658219D03*
%TD*%
D24*
%TO.N,GND*%
X148270000Y-93800000D03*
X161350000Y-103850000D03*
X187880000Y-100220000D03*
X196540000Y-98120000D03*
X193720000Y-104280000D03*
X178010000Y-114710000D03*
X202340000Y-94510000D03*
X178630000Y-119840000D03*
X202610000Y-91070000D03*
X204440000Y-92540000D03*
X201700000Y-100970000D03*
X172780000Y-108030000D03*
X169410000Y-100310000D03*
X176360000Y-115040000D03*
X178020000Y-101480000D03*
X212420000Y-92930000D03*
X153440000Y-99860000D03*
X153320000Y-93290000D03*
X197170000Y-100870000D03*
X160510000Y-98510000D03*
X177360000Y-104920000D03*
X145020000Y-92330000D03*
X184090000Y-108460000D03*
%TD*%
D25*
%TO.N,+5V*%
X171070442Y-97706228D02*
X174053125Y-97706228D01*
X167395431Y-98140953D02*
X166203087Y-96948609D01*
X201298561Y-93030000D02*
X200981149Y-93347412D01*
X174547692Y-97983620D02*
X174641179Y-98077107D01*
X175348286Y-98370000D02*
X183091234Y-98370000D01*
X185935031Y-106694969D02*
X186151505Y-106478495D01*
X155607107Y-91307107D02*
X154797811Y-90497811D01*
X152574992Y-90162841D02*
X152265295Y-90472538D01*
X199398600Y-100991400D02*
X203811700Y-96578300D01*
X167395431Y-98140953D02*
X168163491Y-97372893D01*
X162747107Y-95517107D02*
X162045424Y-94815424D01*
X185256954Y-99183046D02*
X185054098Y-99183046D01*
X188712044Y-97010000D02*
X187844214Y-97010000D01*
X183070000Y-111474311D02*
X183070000Y-108605261D01*
X160287107Y-94087107D02*
X159843825Y-93643825D01*
X192296818Y-96409402D02*
X190141630Y-96409402D01*
X192716818Y-96153182D02*
X193278721Y-95591254D01*
X187137107Y-97302893D02*
X185256954Y-99183046D01*
X170322893Y-97372893D02*
X170363335Y-97413335D01*
X158113537Y-92927107D02*
X157079323Y-91892893D01*
X196405766Y-95070000D02*
X194537102Y-95070000D01*
X200981149Y-93347412D02*
X200564459Y-93347412D01*
X168870598Y-97080000D02*
X169615786Y-97080000D01*
X189434523Y-96702295D02*
X189351815Y-96785003D01*
X201589141Y-93030000D02*
X201298561Y-93030000D01*
X156372216Y-91600000D02*
X156314214Y-91600000D01*
X162045409Y-94815439D02*
G75*
G03*
X160994214Y-94380000I-1051209J-1051161D01*
G01*
X159843809Y-93643841D02*
G75*
G03*
X158820644Y-93220000I-1023209J-1023159D01*
G01*
X188712044Y-97010023D02*
G75*
G03*
X189351815Y-96785003I-44J1022123D01*
G01*
X196405766Y-95069990D02*
G75*
G03*
X197112893Y-94777107I34J999990D01*
G01*
X184305247Y-107369973D02*
G75*
G03*
X185935031Y-106694969I153J2304673D01*
G01*
X160287100Y-94087114D02*
G75*
G03*
X160994214Y-94380000I707100J707114D01*
G01*
X195611629Y-102560040D02*
G75*
G03*
X186151505Y-106478495I-129J-13378460D01*
G01*
X187844214Y-97010010D02*
G75*
G03*
X187137107Y-97302893I-14J-999990D01*
G01*
X154797794Y-90497828D02*
G75*
G03*
X153282047Y-89870000I-1515694J-1515672D01*
G01*
X184305247Y-107370000D02*
G75*
G03*
X183070000Y-108605261I53J-1235300D01*
G01*
X158113515Y-92927129D02*
G75*
G03*
X158820644Y-93220000I707085J707129D01*
G01*
X162747100Y-95517114D02*
G75*
G03*
X163454214Y-95810000I707100J707114D01*
G01*
X204200000Y-95640861D02*
G75*
G03*
X201589141Y-93030000I-2610900J-39D01*
G01*
X174641186Y-98077100D02*
G75*
G03*
X175348286Y-98370000I707114J707100D01*
G01*
X190141630Y-96409423D02*
G75*
G03*
X189434523Y-96702295I-30J-999977D01*
G01*
X170322900Y-97372886D02*
G75*
G03*
X169615786Y-97080000I-707100J-707114D01*
G01*
X166203076Y-96948620D02*
G75*
G03*
X163454214Y-95810000I-2748876J-2748880D01*
G01*
X168870598Y-97079999D02*
G75*
G03*
X168163492Y-97372894I2J-1000001D01*
G01*
X195611629Y-102560026D02*
G75*
G03*
X199398599Y-100991399I-29J5355626D01*
G01*
X192296819Y-96409406D02*
G75*
G03*
X192716818Y-96153182I-318919J995106D01*
G01*
X174547694Y-97983618D02*
G75*
G03*
X174053125Y-97706228I-726594J-715882D01*
G01*
X153282047Y-89869975D02*
G75*
G03*
X152574992Y-90162841I-47J-999825D01*
G01*
X170363308Y-97413362D02*
G75*
G03*
X171070442Y-97706228I707092J707162D01*
G01*
X155607100Y-91307114D02*
G75*
G03*
X156314214Y-91600000I707100J707114D01*
G01*
X181323592Y-113220700D02*
G75*
G03*
X183070000Y-111474311I8J1746400D01*
G01*
X200564459Y-93347372D02*
G75*
G03*
X197112894Y-94777108I41J-4881228D01*
G01*
X157079315Y-91892901D02*
G75*
G03*
X156372216Y-91600000I-707115J-707099D01*
G01*
X185054080Y-99183064D02*
G75*
G03*
X183091234Y-98370000I-1962880J-1962836D01*
G01*
X203811711Y-96578311D02*
G75*
G03*
X204200000Y-95640861I-937411J937411D01*
G01*
X194537102Y-95070007D02*
G75*
G03*
X193278721Y-95591254I-2J-1779593D01*
G01*
D26*
%TO.N,/PWM*%
X150372517Y-95892517D02*
X152744052Y-98264052D01*
X154382925Y-98942925D02*
X156249623Y-100809623D01*
X173905945Y-107280000D02*
X181398592Y-107280000D01*
X180160000Y-114850000D02*
X180398127Y-114850000D01*
X179160000Y-113030000D02*
X179160000Y-113850000D01*
X181398592Y-112030000D02*
X180160000Y-112030000D01*
X165738296Y-104740000D02*
X167774023Y-104739999D01*
X182398592Y-108280000D02*
X182398592Y-111030000D01*
X162924463Y-103574443D02*
G75*
G03*
X165738296Y-104740000I2813837J2813743D01*
G01*
X169603729Y-105497904D02*
G75*
G03*
X173905945Y-107280000I4302171J4301904D01*
G01*
X156249602Y-100809644D02*
G75*
G03*
X160837549Y-102710000I4587898J4587944D01*
G01*
X182398600Y-108280000D02*
G75*
G03*
X181398592Y-107280000I-1000000J0D01*
G01*
X179160000Y-113850000D02*
G75*
G03*
X180160000Y-114850000I1000000J0D01*
G01*
X180160000Y-112030000D02*
G75*
G03*
X179160000Y-113030000I0J-1000000D01*
G01*
X181398592Y-112029992D02*
G75*
G03*
X182398592Y-111030000I8J999992D01*
G01*
X154382902Y-98942948D02*
G75*
G03*
X153675786Y-98650000I-707202J-707152D01*
G01*
X152744047Y-98264057D02*
G75*
G03*
X153675786Y-98650000I931753J931757D01*
G01*
X182456100Y-116907974D02*
G75*
G03*
X180398127Y-114850000I-2058000J-26D01*
G01*
X150372476Y-93175724D02*
G75*
G03*
X150372517Y-95892517I1358424J-1358376D01*
G01*
X169603727Y-105497906D02*
G75*
G03*
X167774023Y-104739999I-1829727J-1829694D01*
G01*
X162924437Y-103574469D02*
G75*
G03*
X160837549Y-102710000I-2086937J-2086831D01*
G01*
D25*
%TO.N,/S*%
X174320000Y-115662056D02*
X174320000Y-111899307D01*
X177959311Y-108260000D02*
X177398592Y-108820719D01*
X180748592Y-110283219D02*
X181160000Y-109871811D01*
X179548208Y-108260000D02*
X177959311Y-108260000D01*
X175189307Y-111030000D02*
G75*
G03*
X174320000Y-111899307I-7J-869300D01*
G01*
X181160000Y-109871811D02*
G75*
G03*
X179548208Y-108260000I-1611800J11D01*
G01*
X175189307Y-111029992D02*
G75*
G03*
X177398592Y-108820719I-7J2209292D01*
G01*
X174320020Y-115662056D02*
G75*
G03*
X174836099Y-116907974I1761880J-44D01*
G01*
%TO.N,Net-(Q1-E)*%
X180230000Y-105658219D02*
X180230000Y-101653447D01*
X180748592Y-105658219D02*
X180230000Y-105658219D01*
X181773446Y-100110000D02*
X181866517Y-100203071D01*
X181773446Y-100110000D02*
G75*
G03*
X180230000Y-101653447I-46J-1543400D01*
G01*
D26*
%TO.N,Net-(D1-DIN)*%
X202873952Y-96050614D02*
X202873952Y-96185748D01*
X191964322Y-101985000D02*
X195520483Y-101984994D01*
X202581059Y-96892855D02*
X198880821Y-100593093D01*
X202581025Y-96892821D02*
G75*
G03*
X202873952Y-96185748I-707025J707121D01*
G01*
X195520483Y-101984962D02*
G75*
G03*
X198880821Y-100593093I17J4752262D01*
G01*
X190533114Y-101392182D02*
G75*
G03*
X191964322Y-101985000I1431186J1431182D01*
G01*
%TO.N,Net-(D2-DOUT)*%
X182384214Y-106760000D02*
X175874635Y-106760000D01*
X185740207Y-102410933D02*
X185421399Y-102729741D01*
X182384214Y-106759978D02*
G75*
G03*
X184719278Y-104424920I-14J2335078D01*
G01*
X171502200Y-102387607D02*
G75*
G03*
X175874635Y-106760000I4372400J7D01*
G01*
X185421387Y-102729729D02*
G75*
G03*
X184719278Y-104424920I1695113J-1695071D01*
G01*
%TO.N,Net-(D2-DIN)*%
X156515673Y-100439277D02*
X156029400Y-99953004D01*
X166709322Y-101368840D02*
X166709322Y-103392975D01*
X163190419Y-103204009D02*
G75*
G03*
X160911361Y-102260000I-2279019J-2278991D01*
G01*
X156515687Y-100439263D02*
G75*
G03*
X160911361Y-102260000I4395613J4395563D01*
G01*
X154386337Y-95986264D02*
G75*
G03*
X156029401Y-99953003I5609763J-36D01*
G01*
X163190408Y-103204020D02*
G75*
G03*
X165812279Y-104289994I2621792J2621820D01*
G01*
X165812279Y-104290022D02*
G75*
G03*
X166709322Y-103392975I21J897022D01*
G01*
%TD*%
%TA.AperFunction,Conductor*%
%TO.N,GND*%
G36*
X177626099Y-118238607D02*
G01*
X177839582Y-118181407D01*
X177839591Y-118181403D01*
X178053677Y-118081574D01*
X178247181Y-117946079D01*
X178414204Y-117779056D01*
X178544218Y-117593379D01*
X178598795Y-117549755D01*
X178668294Y-117542562D01*
X178730648Y-117574084D01*
X178747368Y-117593379D01*
X178877604Y-117779375D01*
X179044698Y-117946469D01*
X179141483Y-118014239D01*
X179238264Y-118082006D01*
X179238266Y-118082007D01*
X179238269Y-118082009D01*
X179452436Y-118181877D01*
X179680691Y-118243037D01*
X179857133Y-118258474D01*
X179916098Y-118263633D01*
X179916099Y-118263633D01*
X179916100Y-118263633D01*
X179975065Y-118258474D01*
X180151507Y-118243037D01*
X180379762Y-118181877D01*
X180593929Y-118082009D01*
X180787500Y-117946469D01*
X180909428Y-117824540D01*
X180970747Y-117791058D01*
X181040439Y-117796042D01*
X181096373Y-117837913D01*
X181113288Y-117868891D01*
X181162301Y-118000302D01*
X181162305Y-118000309D01*
X181248551Y-118115518D01*
X181248554Y-118115521D01*
X181363763Y-118201767D01*
X181363770Y-118201771D01*
X181498616Y-118252065D01*
X181498615Y-118252065D01*
X181505543Y-118252809D01*
X181558226Y-118258474D01*
X183353971Y-118258473D01*
X183404125Y-118253081D01*
X183413583Y-118252065D01*
X183426647Y-118247192D01*
X183496338Y-118242205D01*
X183557663Y-118275688D01*
X183591149Y-118337010D01*
X183593984Y-118363372D01*
X183593984Y-119486152D01*
X183593862Y-119490027D01*
X183590819Y-119538393D01*
X183588000Y-119583192D01*
X183577195Y-119741667D01*
X183576239Y-119749075D01*
X183553962Y-119865847D01*
X183526460Y-119998626D01*
X183524713Y-120005217D01*
X183486469Y-120122910D01*
X183442615Y-120246734D01*
X183440269Y-120252439D01*
X183386669Y-120366332D01*
X183327090Y-120481747D01*
X183324342Y-120486534D01*
X183257028Y-120592591D01*
X183255404Y-120595020D01*
X183181871Y-120699632D01*
X183178916Y-120703503D01*
X183098541Y-120800645D01*
X183096186Y-120803331D01*
X183009384Y-120896726D01*
X183006407Y-120899718D01*
X182914401Y-120986102D01*
X182911227Y-120988885D01*
X182812570Y-121069618D01*
X182809743Y-121071799D01*
X182707724Y-121145904D01*
X182703674Y-121148609D01*
X182594665Y-121215395D01*
X182592137Y-121216862D01*
X182482007Y-121277390D01*
X182477056Y-121279830D01*
X182358159Y-121332005D01*
X182241100Y-121378334D01*
X182235258Y-121380317D01*
X182108910Y-121416289D01*
X181989057Y-121447042D01*
X181982370Y-121448371D01*
X181848101Y-121467461D01*
X181730155Y-121482341D01*
X181722705Y-121482828D01*
X181565831Y-121483632D01*
X181470304Y-121483616D01*
X181466410Y-121483493D01*
X180894837Y-121447437D01*
X179745850Y-121404383D01*
X178596138Y-121390696D01*
X177446452Y-121406384D01*
X176297541Y-121451438D01*
X176255477Y-121454165D01*
X175725803Y-121488503D01*
X175721905Y-121488633D01*
X175628650Y-121488804D01*
X175469449Y-121488261D01*
X175461987Y-121487785D01*
X175343940Y-121473074D01*
X175209476Y-121454165D01*
X175202779Y-121452844D01*
X175082771Y-121422229D01*
X174956222Y-121386386D01*
X174950370Y-121384410D01*
X174833153Y-121338189D01*
X174714031Y-121286090D01*
X174709072Y-121283653D01*
X174638035Y-121244716D01*
X174598786Y-121223202D01*
X174596267Y-121221743D01*
X174487016Y-121154972D01*
X174482959Y-121152268D01*
X174380795Y-121078213D01*
X174377962Y-121076032D01*
X174279096Y-120995282D01*
X174275916Y-120992499D01*
X174236771Y-120955810D01*
X174183741Y-120906107D01*
X174180773Y-120903128D01*
X174093795Y-120809693D01*
X174091435Y-120807007D01*
X174010913Y-120709833D01*
X174007958Y-120705968D01*
X173934253Y-120601257D01*
X173932649Y-120598859D01*
X173928665Y-120592591D01*
X173907889Y-120559900D01*
X173865184Y-120492706D01*
X173862431Y-120487915D01*
X173802736Y-120372418D01*
X173749028Y-120258437D01*
X173746677Y-120252726D01*
X173702713Y-120128734D01*
X173695828Y-120107571D01*
X173664403Y-120010978D01*
X173662660Y-120004415D01*
X173635074Y-119871370D01*
X173634019Y-119865847D01*
X173612764Y-119754565D01*
X173611811Y-119747184D01*
X173600954Y-119588123D01*
X173597267Y-119529602D01*
X173595107Y-119495293D01*
X173594984Y-119491395D01*
X173594984Y-117876117D01*
X173614669Y-117809078D01*
X173667473Y-117763323D01*
X173736631Y-117753379D01*
X173800187Y-117782404D01*
X173806665Y-117788436D01*
X173964698Y-117946469D01*
X174061483Y-118014239D01*
X174158264Y-118082006D01*
X174158266Y-118082007D01*
X174158269Y-118082009D01*
X174372436Y-118181877D01*
X174600691Y-118243037D01*
X174777133Y-118258474D01*
X174836098Y-118263633D01*
X174836099Y-118263633D01*
X174836100Y-118263633D01*
X174895065Y-118258474D01*
X175071507Y-118243037D01*
X175299762Y-118181877D01*
X175513929Y-118082009D01*
X175707500Y-117946469D01*
X175874594Y-117779375D01*
X176004829Y-117593379D01*
X176059406Y-117549755D01*
X176128904Y-117542561D01*
X176191259Y-117574084D01*
X176207978Y-117593379D01*
X176337989Y-117779052D01*
X176505016Y-117946079D01*
X176698520Y-118081574D01*
X176912606Y-118181403D01*
X176912615Y-118181407D01*
X177126099Y-118238608D01*
X177126099Y-117343475D01*
X177233784Y-117392654D01*
X177340336Y-117407974D01*
X177411862Y-117407974D01*
X177518414Y-117392654D01*
X177626099Y-117343475D01*
X177626099Y-118238607D01*
G37*
%TD.AperFunction*%
%TA.AperFunction,Conductor*%
G36*
X179349498Y-109030185D02*
G01*
X179395253Y-109082989D01*
X179405197Y-109152147D01*
X179376172Y-109215703D01*
X179347556Y-109240039D01*
X179204934Y-109328008D01*
X179080881Y-109452061D01*
X178988779Y-109601382D01*
X178988778Y-109601385D01*
X178933593Y-109767922D01*
X178933593Y-109767923D01*
X178933592Y-109767923D01*
X178923092Y-109870702D01*
X178923092Y-110695720D01*
X178923093Y-110695738D01*
X178933592Y-110798515D01*
X178933593Y-110798518D01*
X178971767Y-110913717D01*
X178988778Y-110965053D01*
X179080880Y-111114375D01*
X179204936Y-111238431D01*
X179354258Y-111330533D01*
X179410395Y-111349135D01*
X179467839Y-111388906D01*
X179494663Y-111453422D01*
X179482348Y-111522197D01*
X179434806Y-111573398D01*
X179422904Y-111579634D01*
X179378992Y-111599688D01*
X179378979Y-111599695D01*
X179183392Y-111725391D01*
X179183386Y-111725395D01*
X179007661Y-111877661D01*
X178855395Y-112053386D01*
X178855391Y-112053392D01*
X178729695Y-112248979D01*
X178729682Y-112249002D01*
X178633099Y-112460489D01*
X178567590Y-112683594D01*
X178534500Y-112913743D01*
X178534500Y-113966256D01*
X178567590Y-114196405D01*
X178633099Y-114419510D01*
X178729682Y-114630997D01*
X178729695Y-114631020D01*
X178855391Y-114826607D01*
X178855395Y-114826613D01*
X179007661Y-115002338D01*
X179183386Y-115154604D01*
X179183392Y-115154608D01*
X179378979Y-115280304D01*
X179379002Y-115280317D01*
X179580572Y-115372371D01*
X179633376Y-115418126D01*
X179653061Y-115485165D01*
X179633376Y-115552204D01*
X179580572Y-115597959D01*
X179561154Y-115604940D01*
X179452443Y-115634068D01*
X179452434Y-115634072D01*
X179238270Y-115733938D01*
X179238268Y-115733939D01*
X179044696Y-115869479D01*
X178877607Y-116036568D01*
X178747368Y-116222569D01*
X178692791Y-116266193D01*
X178623292Y-116273386D01*
X178560938Y-116241864D01*
X178544218Y-116222568D01*
X178414212Y-116036900D01*
X178414207Y-116036894D01*
X178247181Y-115869868D01*
X178053677Y-115734373D01*
X177839591Y-115634544D01*
X177839585Y-115634541D01*
X177626099Y-115577338D01*
X177626099Y-116472472D01*
X177518414Y-116423294D01*
X177411862Y-116407974D01*
X177340336Y-116407974D01*
X177233784Y-116423294D01*
X177126099Y-116472472D01*
X177126099Y-115577338D01*
X177126098Y-115577338D01*
X176912612Y-115634541D01*
X176912606Y-115634544D01*
X176698521Y-115734373D01*
X176698519Y-115734374D01*
X176505025Y-115869860D01*
X176505019Y-115869865D01*
X176337990Y-116036894D01*
X176337989Y-116036896D01*
X176207979Y-116222569D01*
X176153402Y-116266193D01*
X176083903Y-116273386D01*
X176021549Y-116241864D01*
X176004829Y-116222568D01*
X175874593Y-116036571D01*
X175707501Y-115869480D01*
X175707494Y-115869475D01*
X175513933Y-115733941D01*
X175513929Y-115733939D01*
X175453510Y-115705765D01*
X175299762Y-115634071D01*
X175299758Y-115634070D01*
X175299754Y-115634068D01*
X175162407Y-115597267D01*
X175102746Y-115560902D01*
X175072217Y-115498055D01*
X175070500Y-115477492D01*
X175070500Y-114444561D01*
X175090185Y-114377522D01*
X175142989Y-114331767D01*
X175197443Y-114321441D01*
X175197443Y-114320719D01*
X175998592Y-114320719D01*
X175998592Y-113070719D01*
X176498592Y-113070719D01*
X176498592Y-114320719D01*
X177296420Y-114320719D01*
X177296436Y-114320718D01*
X177355964Y-114314317D01*
X177355971Y-114314315D01*
X177490678Y-114264073D01*
X177490685Y-114264069D01*
X177605779Y-114177909D01*
X177605782Y-114177906D01*
X177691942Y-114062812D01*
X177691946Y-114062805D01*
X177742188Y-113928098D01*
X177742190Y-113928091D01*
X177748591Y-113868563D01*
X177748592Y-113868546D01*
X177748592Y-113070719D01*
X176498592Y-113070719D01*
X175998592Y-113070719D01*
X175998592Y-112694719D01*
X176018277Y-112627680D01*
X176071081Y-112581925D01*
X176122592Y-112570719D01*
X177748592Y-112570719D01*
X177748592Y-111772891D01*
X177748591Y-111772874D01*
X177742190Y-111713346D01*
X177742188Y-111713339D01*
X177691946Y-111578632D01*
X177691942Y-111578625D01*
X177605782Y-111463531D01*
X177605779Y-111463528D01*
X177490685Y-111377368D01*
X177490678Y-111377364D01*
X177355971Y-111327122D01*
X177355964Y-111327120D01*
X177296436Y-111320719D01*
X177159119Y-111320719D01*
X177092080Y-111301034D01*
X177046325Y-111248230D01*
X177036381Y-111179072D01*
X177065406Y-111115516D01*
X177076147Y-111104569D01*
X177231095Y-110965053D01*
X177285056Y-110916467D01*
X177492641Y-110685922D01*
X177674990Y-110434941D01*
X177689079Y-110410539D01*
X177704853Y-110383218D01*
X177755420Y-110335002D01*
X177812240Y-110321218D01*
X178096463Y-110321218D01*
X178096464Y-110321218D01*
X178156075Y-110314810D01*
X178290923Y-110264515D01*
X178406138Y-110178265D01*
X178492388Y-110063050D01*
X178542683Y-109928202D01*
X178549092Y-109868592D01*
X178549092Y-109134500D01*
X178568777Y-109067461D01*
X178621581Y-109021706D01*
X178673092Y-109010500D01*
X179282459Y-109010500D01*
X179349498Y-109030185D01*
G37*
%TD.AperFunction*%
%TA.AperFunction,Conductor*%
G36*
X170902925Y-107201886D02*
G01*
X170918587Y-107207796D01*
X171336575Y-107398692D01*
X171336581Y-107398694D01*
X171336585Y-107398696D01*
X171785635Y-107566188D01*
X172245508Y-107701223D01*
X172713837Y-107803103D01*
X173188240Y-107871312D01*
X173294580Y-107878916D01*
X173666308Y-107905502D01*
X173824092Y-107905500D01*
X173891130Y-107925184D01*
X173936886Y-107977987D01*
X173948092Y-108029500D01*
X173948092Y-109868589D01*
X173948093Y-109868595D01*
X173954500Y-109928202D01*
X174004794Y-110063047D01*
X174004798Y-110063054D01*
X174091044Y-110178263D01*
X174091047Y-110178266D01*
X174206256Y-110264512D01*
X174206263Y-110264516D01*
X174309991Y-110303204D01*
X174365925Y-110345075D01*
X174390342Y-110410539D01*
X174375491Y-110478812D01*
X174333698Y-110523701D01*
X174216112Y-110599268D01*
X174216105Y-110599274D01*
X174041002Y-110751000D01*
X174041000Y-110751002D01*
X173889274Y-110926105D01*
X173889271Y-110926108D01*
X173764001Y-111121033D01*
X173763994Y-111121046D01*
X173697090Y-111267548D01*
X173651336Y-111320352D01*
X173584296Y-111340037D01*
X173517257Y-111320353D01*
X173471502Y-111267549D01*
X173463530Y-111244173D01*
X173386541Y-110913716D01*
X173386541Y-110913717D01*
X173386540Y-110913716D01*
X173248907Y-110476836D01*
X173248906Y-110476832D01*
X173078369Y-110051704D01*
X172875922Y-109640813D01*
X172658238Y-109272748D01*
X172642739Y-109246542D01*
X172380195Y-108871212D01*
X172380196Y-108871212D01*
X172235530Y-108694745D01*
X172089791Y-108516968D01*
X172089787Y-108516964D01*
X172089784Y-108516960D01*
X172089784Y-108516961D01*
X171773235Y-108185897D01*
X171432363Y-107879918D01*
X171069161Y-107600814D01*
X171069162Y-107600814D01*
X170799232Y-107424385D01*
X170753886Y-107371230D01*
X170744476Y-107301997D01*
X170773990Y-107238667D01*
X170833058Y-107201347D01*
X170902925Y-107201886D01*
G37*
%TD.AperFunction*%
%TA.AperFunction,Conductor*%
G36*
X185510395Y-107951528D02*
G01*
X185546047Y-108011617D01*
X185543552Y-108081442D01*
X185508564Y-108134706D01*
X185471352Y-108167989D01*
X185423141Y-108211109D01*
X185423136Y-108211113D01*
X185423135Y-108211115D01*
X185105360Y-108542376D01*
X185105361Y-108542375D01*
X185056949Y-108601253D01*
X184813819Y-108896943D01*
X184550211Y-109272748D01*
X184448540Y-109444209D01*
X184331960Y-109640813D01*
X184316082Y-109667589D01*
X184316082Y-109667588D01*
X184120757Y-110063047D01*
X184112796Y-110079166D01*
X184059548Y-110211593D01*
X184016274Y-110266449D01*
X183950213Y-110289201D01*
X183882338Y-110272626D01*
X183834199Y-110221986D01*
X183820500Y-110165333D01*
X183820500Y-108609356D01*
X183821031Y-108601253D01*
X183829271Y-108538678D01*
X183834891Y-108495995D01*
X183843269Y-108464735D01*
X183879206Y-108377979D01*
X183895391Y-108349946D01*
X183952559Y-108275444D01*
X183975439Y-108252562D01*
X184049950Y-108195385D01*
X184077967Y-108179210D01*
X184164727Y-108143271D01*
X184195990Y-108134893D01*
X184246886Y-108128189D01*
X184301229Y-108121033D01*
X184309307Y-108120503D01*
X184377830Y-108120501D01*
X184387205Y-108120501D01*
X184387623Y-108120478D01*
X184455299Y-108120483D01*
X184754058Y-108091076D01*
X185048496Y-108032524D01*
X185335776Y-107945393D01*
X185378450Y-107927718D01*
X185447917Y-107920252D01*
X185510395Y-107951528D01*
G37*
%TD.AperFunction*%
%TA.AperFunction,Conductor*%
G36*
X213088070Y-84596574D02*
G01*
X213093528Y-84596881D01*
X213251766Y-84612918D01*
X213393603Y-84632510D01*
X213398723Y-84633440D01*
X213553673Y-84668389D01*
X213671867Y-84700201D01*
X213692339Y-84705711D01*
X213697051Y-84707182D01*
X213811263Y-84747926D01*
X213845207Y-84760035D01*
X213847866Y-84761053D01*
X213979851Y-84815087D01*
X213984036Y-84816987D01*
X214124583Y-84887233D01*
X214127352Y-84888707D01*
X214251636Y-84958920D01*
X214255342Y-84961189D01*
X214279624Y-84977248D01*
X214386333Y-85047822D01*
X214389097Y-85049762D01*
X214503693Y-85135068D01*
X214506807Y-85137548D01*
X214626367Y-85239310D01*
X214629144Y-85241823D01*
X214661449Y-85272871D01*
X214732135Y-85340808D01*
X214734734Y-85343462D01*
X214841129Y-85458863D01*
X214843773Y-85461925D01*
X214933529Y-85573018D01*
X214935620Y-85575758D01*
X215027368Y-85703198D01*
X215029769Y-85706793D01*
X215077315Y-85783666D01*
X215104836Y-85828164D01*
X215106423Y-85830882D01*
X215182190Y-85968542D01*
X215184276Y-85972692D01*
X215243485Y-86102394D01*
X215244607Y-86105011D01*
X215303288Y-86250946D01*
X215304948Y-86255603D01*
X215347745Y-86392701D01*
X215388802Y-86546119D01*
X215389942Y-86551237D01*
X215415137Y-86692160D01*
X215437430Y-86849594D01*
X215437961Y-86855114D01*
X215445264Y-86997502D01*
X215448423Y-87156782D01*
X215448263Y-87162624D01*
X215437723Y-87304005D01*
X215421604Y-87463047D01*
X215420683Y-87469121D01*
X215392736Y-87606931D01*
X215357371Y-87763734D01*
X215355628Y-87769938D01*
X215311186Y-87901513D01*
X215256687Y-88054283D01*
X215254080Y-88060502D01*
X215194830Y-88182722D01*
X215121052Y-88330333D01*
X215117551Y-88336443D01*
X215047338Y-88444302D01*
X214952519Y-88587670D01*
X214948120Y-88593536D01*
X214892349Y-88659408D01*
X214754418Y-88821464D01*
X214751904Y-88824242D01*
X213152703Y-90488154D01*
X213151910Y-90488976D01*
X213130938Y-90510732D01*
X213115777Y-90526460D01*
X213065227Y-90617489D01*
X213039619Y-90718412D01*
X213039619Y-90718413D01*
X213039619Y-90718414D01*
X213040651Y-90822533D01*
X213048066Y-90849499D01*
X213068256Y-90922930D01*
X213120604Y-91012942D01*
X213120606Y-91012944D01*
X213135105Y-91027399D01*
X213157062Y-91049291D01*
X213157398Y-91049627D01*
X213157400Y-91049630D01*
X213213729Y-91105957D01*
X213216545Y-91108968D01*
X213269271Y-91169258D01*
X213393327Y-91312859D01*
X213398110Y-91319167D01*
X213464247Y-91419047D01*
X213545882Y-91547353D01*
X213549371Y-91553607D01*
X213604964Y-91668345D01*
X213664245Y-91800810D01*
X213666557Y-91806784D01*
X213707380Y-91931018D01*
X213746104Y-92068294D01*
X213747389Y-92073799D01*
X213771298Y-92202420D01*
X213771826Y-92205770D01*
X213789854Y-92344650D01*
X213790292Y-92349529D01*
X213796870Y-92480761D01*
X213796939Y-92484905D01*
X213794598Y-92624571D01*
X213794390Y-92628712D01*
X213783415Y-92759646D01*
X213782814Y-92764507D01*
X213760140Y-92902714D01*
X213759499Y-92906045D01*
X213731296Y-93033773D01*
X213729827Y-93039231D01*
X213686522Y-93175139D01*
X213641554Y-93297943D01*
X213639043Y-93303837D01*
X213575362Y-93434227D01*
X213515947Y-93547046D01*
X213512251Y-93553178D01*
X213426364Y-93678674D01*
X213356924Y-93776267D01*
X213351929Y-93782415D01*
X213220845Y-93924222D01*
X213168929Y-93979713D01*
X213165394Y-93983201D01*
X212608774Y-94490000D01*
X212164545Y-94893929D01*
X211613439Y-95369580D01*
X211123739Y-95790533D01*
X210567201Y-96245668D01*
X210058974Y-96658487D01*
X209493533Y-97096383D01*
X209479123Y-97107437D01*
X208971020Y-97497166D01*
X208395791Y-97918705D01*
X207860708Y-98305933D01*
X207275428Y-98711410D01*
X206728860Y-99084193D01*
X206133688Y-99473562D01*
X205576240Y-99831421D01*
X204971431Y-100204556D01*
X204403823Y-100546988D01*
X203789579Y-100903792D01*
X203212388Y-101230421D01*
X202589082Y-101570695D01*
X202002893Y-101881178D01*
X201370775Y-102204789D01*
X200776217Y-102498789D01*
X200135676Y-102805539D01*
X199533209Y-103082832D01*
X198884716Y-103372492D01*
X198274894Y-103632831D01*
X197618668Y-103905290D01*
X197002366Y-104148323D01*
X196338573Y-104403490D01*
X195716506Y-104628976D01*
X195045401Y-104866710D01*
X194418466Y-105074386D01*
X193740098Y-105294612D01*
X193109428Y-105484194D01*
X192423642Y-105686875D01*
X191791571Y-105857825D01*
X191096910Y-106043232D01*
X190469308Y-106194339D01*
X189760980Y-106363391D01*
X189189610Y-106484230D01*
X188435750Y-106643129D01*
X188209704Y-106687632D01*
X187946080Y-106760858D01*
X187872827Y-106778392D01*
X187861580Y-106784328D01*
X187797942Y-106802005D01*
X187767415Y-106810485D01*
X187767410Y-106810486D01*
X187548958Y-106889584D01*
X187335796Y-106966766D01*
X186917379Y-107155561D01*
X186834409Y-107200921D01*
X186766144Y-107215808D01*
X186700667Y-107191424D01*
X186658767Y-107135512D01*
X186653747Y-107065823D01*
X186687201Y-107004483D01*
X186689542Y-107002201D01*
X187160606Y-106555177D01*
X187162956Y-106553061D01*
X187663277Y-106125748D01*
X187665744Y-106123750D01*
X188187719Y-105723227D01*
X188190317Y-105721338D01*
X188732518Y-105348696D01*
X188735220Y-105346941D01*
X189296198Y-105003176D01*
X189298958Y-105001583D01*
X189877169Y-104687642D01*
X189880015Y-104686192D01*
X190473873Y-104402940D01*
X190476778Y-104401647D01*
X191084632Y-104149869D01*
X191087594Y-104148732D01*
X191707826Y-103929101D01*
X191710835Y-103928123D01*
X192341706Y-103741255D01*
X192344772Y-103740434D01*
X192984530Y-103586846D01*
X192987667Y-103586179D01*
X193634608Y-103466281D01*
X193637729Y-103465787D01*
X194290014Y-103379917D01*
X194293234Y-103379580D01*
X194949093Y-103327968D01*
X194952335Y-103327798D01*
X195103499Y-103323840D01*
X195611622Y-103310540D01*
X195611622Y-103310538D01*
X195612114Y-103310525D01*
X195829712Y-103310525D01*
X195829713Y-103310525D01*
X196264763Y-103279407D01*
X196264762Y-103279407D01*
X196696481Y-103217334D01*
X197122666Y-103124621D01*
X197122665Y-103124621D01*
X197122666Y-103124620D01*
X197122669Y-103124620D01*
X197541160Y-103001738D01*
X197949818Y-102849315D01*
X198002377Y-102825312D01*
X198346559Y-102668129D01*
X198704373Y-102472747D01*
X198729369Y-102459098D01*
X198927664Y-102331661D01*
X199096284Y-102223295D01*
X199096283Y-102223296D01*
X199445450Y-101961914D01*
X199445449Y-101961914D01*
X199775075Y-101676291D01*
X199775078Y-101676288D01*
X199860185Y-101591179D01*
X199860198Y-101591169D01*
X199867254Y-101584112D01*
X199867256Y-101584112D01*
X204306054Y-97145314D01*
X204306102Y-97145287D01*
X204342394Y-97108994D01*
X204342395Y-97108995D01*
X204424844Y-97026545D01*
X204570243Y-96844219D01*
X204694312Y-96646760D01*
X204795492Y-96436651D01*
X204872511Y-96216534D01*
X204924398Y-95989177D01*
X204950503Y-95757440D01*
X204950500Y-95640839D01*
X204950500Y-95622511D01*
X204950498Y-95464690D01*
X204913666Y-95114300D01*
X204849909Y-94814368D01*
X204840411Y-94769684D01*
X204834255Y-94750737D01*
X204731534Y-94434604D01*
X204719615Y-94407834D01*
X204588237Y-94112758D01*
X204588232Y-94112748D01*
X204588231Y-94112745D01*
X204412069Y-93807627D01*
X204204980Y-93522595D01*
X204204977Y-93522592D01*
X204204973Y-93522586D01*
X204056510Y-93357702D01*
X205512792Y-93357702D01*
X205548936Y-93497002D01*
X205548938Y-93497008D01*
X205577879Y-93549514D01*
X206149016Y-94365180D01*
X206149019Y-94365183D01*
X206186271Y-94407834D01*
X206188456Y-94410335D01*
X206307001Y-94491948D01*
X206443738Y-94536855D01*
X206587587Y-94541422D01*
X206726896Y-94505276D01*
X206779402Y-94476335D01*
X208086559Y-93561053D01*
X208131714Y-93521612D01*
X208213327Y-93403067D01*
X208258235Y-93266331D01*
X208262802Y-93122481D01*
X208226656Y-92983172D01*
X208197715Y-92930666D01*
X207626578Y-92115000D01*
X207587138Y-92069845D01*
X207559260Y-92050652D01*
X207468592Y-91988231D01*
X207468589Y-91988230D01*
X207331858Y-91943325D01*
X207283906Y-91941802D01*
X207188007Y-91938758D01*
X207188006Y-91938758D01*
X207188003Y-91938758D01*
X207048703Y-91974902D01*
X207048694Y-91974906D01*
X206996200Y-92003840D01*
X206996193Y-92003844D01*
X205689035Y-92919127D01*
X205643878Y-92958569D01*
X205562268Y-93077110D01*
X205562265Y-93077115D01*
X205517359Y-93213846D01*
X205517359Y-93213849D01*
X205513213Y-93344455D01*
X205512792Y-93357702D01*
X204056510Y-93357702D01*
X204044581Y-93344454D01*
X203969232Y-93260770D01*
X203717126Y-93033773D01*
X203707414Y-93025028D01*
X203707411Y-93025026D01*
X203707407Y-93025022D01*
X203422375Y-92817932D01*
X203117257Y-92641770D01*
X203117253Y-92641768D01*
X203117243Y-92641763D01*
X202795406Y-92498469D01*
X202795401Y-92498467D01*
X202795398Y-92498466D01*
X202564927Y-92423579D01*
X202460318Y-92389588D01*
X202135545Y-92320553D01*
X202115702Y-92316335D01*
X201846394Y-92288026D01*
X201815743Y-92284804D01*
X201751128Y-92258218D01*
X201727133Y-92232609D01*
X201719930Y-92222322D01*
X201680490Y-92177167D01*
X201664271Y-92166001D01*
X201561944Y-92095553D01*
X201561941Y-92095552D01*
X201425210Y-92050647D01*
X201377258Y-92049124D01*
X201281359Y-92046080D01*
X201281358Y-92046080D01*
X201281355Y-92046080D01*
X201142055Y-92082224D01*
X201142046Y-92082228D01*
X201089552Y-92111162D01*
X201089535Y-92111172D01*
X200427908Y-92574448D01*
X200361702Y-92596775D01*
X200356793Y-92596873D01*
X200343179Y-92596874D01*
X200343176Y-92596874D01*
X199902004Y-92631599D01*
X199901998Y-92631599D01*
X199901997Y-92631600D01*
X199464899Y-92700834D01*
X199034581Y-92804149D01*
X198613695Y-92940909D01*
X198389509Y-93033773D01*
X198204836Y-93110269D01*
X197909472Y-93260770D01*
X197810528Y-93311186D01*
X197433198Y-93542422D01*
X197245720Y-93678637D01*
X197075176Y-93802548D01*
X197075177Y-93802548D01*
X197075174Y-93802550D01*
X197025234Y-93845204D01*
X196738664Y-94089964D01*
X196738665Y-94089964D01*
X196605541Y-94223092D01*
X196585094Y-94243538D01*
X196578989Y-94248892D01*
X196543492Y-94276129D01*
X196515460Y-94292312D01*
X196485451Y-94304742D01*
X196454178Y-94313121D01*
X196409745Y-94318969D01*
X196401645Y-94319499D01*
X196333568Y-94319497D01*
X196326911Y-94319497D01*
X196326910Y-94319497D01*
X196323701Y-94319497D01*
X196323647Y-94319500D01*
X195231213Y-94319500D01*
X195164174Y-94299815D01*
X195118419Y-94247011D01*
X195108475Y-94177853D01*
X195137500Y-94114297D01*
X195181629Y-94081845D01*
X195403489Y-93985056D01*
X195437468Y-93970232D01*
X196554980Y-93441542D01*
X197655838Y-92878994D01*
X198739015Y-92283112D01*
X199803503Y-91654453D01*
X200113073Y-91458646D01*
X204114447Y-91458646D01*
X204256593Y-91661652D01*
X204256600Y-91661660D01*
X204295994Y-91706760D01*
X204295995Y-91706761D01*
X204414424Y-91788294D01*
X204551021Y-91833155D01*
X204551018Y-91833155D01*
X204694731Y-91837718D01*
X204833895Y-91801609D01*
X204833898Y-91801608D01*
X204886347Y-91772698D01*
X205335102Y-91458475D01*
X204933600Y-90885069D01*
X204933599Y-90885069D01*
X204114447Y-91458645D01*
X204114447Y-91458646D01*
X200113073Y-91458646D01*
X200848310Y-90993600D01*
X201349949Y-90654442D01*
X203620491Y-90654442D01*
X203656599Y-90793612D01*
X203685506Y-90846052D01*
X203685517Y-90846071D01*
X203827658Y-91049070D01*
X203827659Y-91049070D01*
X204471453Y-90598281D01*
X205343175Y-90598281D01*
X205744678Y-91171688D01*
X205744679Y-91171688D01*
X206193430Y-90857469D01*
X206193436Y-90857464D01*
X206238541Y-90818066D01*
X206320073Y-90699639D01*
X206364934Y-90563043D01*
X206369496Y-90419333D01*
X206333388Y-90280163D01*
X206304480Y-90227720D01*
X206162328Y-90024704D01*
X206162327Y-90024704D01*
X205343175Y-90598280D01*
X205343175Y-90598281D01*
X204471453Y-90598281D01*
X204646811Y-90475494D01*
X204646811Y-90475493D01*
X204245308Y-89902087D01*
X203796554Y-90216309D01*
X203751446Y-90255709D01*
X203669914Y-90374136D01*
X203625053Y-90510732D01*
X203620491Y-90654442D01*
X201349949Y-90654442D01*
X201872462Y-90301171D01*
X202245050Y-90032338D01*
X202245358Y-90032229D01*
X202250976Y-90028063D01*
X202823047Y-89615299D01*
X204654883Y-89615299D01*
X205056386Y-90188705D01*
X205056387Y-90188705D01*
X205875539Y-89615129D01*
X205875539Y-89615128D01*
X205733394Y-89412123D01*
X205733387Y-89412115D01*
X205693993Y-89367015D01*
X205693992Y-89367014D01*
X205575563Y-89285481D01*
X205438966Y-89240620D01*
X205438969Y-89240620D01*
X205295256Y-89236057D01*
X205156092Y-89272166D01*
X205156089Y-89272167D01*
X205103639Y-89301077D01*
X205103630Y-89301083D01*
X204654883Y-89615298D01*
X204654883Y-89615299D01*
X202823047Y-89615299D01*
X202875006Y-89577809D01*
X203187051Y-89337847D01*
X203249267Y-89290003D01*
X203250434Y-89289550D01*
X203270594Y-89273601D01*
X203712102Y-88934083D01*
X206410496Y-88934083D01*
X206429660Y-89165374D01*
X206429662Y-89165385D01*
X206486638Y-89390377D01*
X206579871Y-89602925D01*
X206706812Y-89797224D01*
X206706815Y-89797228D01*
X206706817Y-89797230D01*
X206864012Y-89967990D01*
X206864015Y-89967992D01*
X206864018Y-89967995D01*
X207047161Y-90110541D01*
X207047167Y-90110545D01*
X207047170Y-90110547D01*
X207251293Y-90221013D01*
X207299158Y-90237445D01*
X207470811Y-90296374D01*
X207470813Y-90296374D01*
X207470815Y-90296375D01*
X207532540Y-90306675D01*
X207595425Y-90337125D01*
X207631864Y-90396740D01*
X207630289Y-90466592D01*
X207614266Y-90499299D01*
X207566166Y-90569165D01*
X207521260Y-90705897D01*
X207520605Y-90726531D01*
X207516759Y-90847687D01*
X207516693Y-90849753D01*
X207552535Y-90987889D01*
X207552839Y-90989059D01*
X207581780Y-91041565D01*
X208669135Y-92594468D01*
X208708576Y-92639623D01*
X208827121Y-92721235D01*
X208827122Y-92721235D01*
X208827123Y-92721236D01*
X208867696Y-92734561D01*
X208963854Y-92766142D01*
X208963857Y-92766143D01*
X209107707Y-92770710D01*
X209247016Y-92734564D01*
X209299522Y-92705623D01*
X210852425Y-91618268D01*
X210897580Y-91578827D01*
X210979192Y-91460282D01*
X211024100Y-91323546D01*
X211028667Y-91179696D01*
X210992521Y-91040387D01*
X210963580Y-90987881D01*
X209876225Y-89434978D01*
X209836784Y-89389823D01*
X209718239Y-89308211D01*
X209718238Y-89308210D01*
X209718236Y-89308209D01*
X209581503Y-89263303D01*
X209581506Y-89263303D01*
X209473615Y-89259877D01*
X209437653Y-89258736D01*
X209437652Y-89258736D01*
X209420051Y-89263303D01*
X209357993Y-89279404D01*
X209288160Y-89277188D01*
X209230610Y-89237568D01*
X209203616Y-89173123D01*
X209203276Y-89149139D01*
X209221096Y-88934082D01*
X209221096Y-88934070D01*
X209201931Y-88702779D01*
X209201929Y-88702768D01*
X209144953Y-88477776D01*
X209051720Y-88265228D01*
X208924779Y-88070929D01*
X208924776Y-88070926D01*
X208924775Y-88070924D01*
X208767580Y-87900164D01*
X208767575Y-87900160D01*
X208767573Y-87900158D01*
X208584430Y-87757612D01*
X208584424Y-87757608D01*
X208380300Y-87647141D01*
X208380291Y-87647138D01*
X208160780Y-87571779D01*
X207974854Y-87540754D01*
X207931845Y-87533577D01*
X207699747Y-87533577D01*
X207656738Y-87540754D01*
X207470811Y-87571779D01*
X207251300Y-87647138D01*
X207251291Y-87647141D01*
X207047167Y-87757608D01*
X207047161Y-87757612D01*
X206864018Y-87900158D01*
X206864015Y-87900161D01*
X206864012Y-87900163D01*
X206864012Y-87900164D01*
X206834820Y-87931875D01*
X206706812Y-88070929D01*
X206579871Y-88265228D01*
X206486638Y-88477776D01*
X206429662Y-88702768D01*
X206429660Y-88702779D01*
X206410496Y-88934070D01*
X206410496Y-88934083D01*
X203712102Y-88934083D01*
X203855008Y-88824189D01*
X204811556Y-88041013D01*
X205743756Y-87229010D01*
X205893618Y-87090207D01*
X211446089Y-87090207D01*
X211453761Y-87182796D01*
X211454082Y-87186663D01*
X211454294Y-87191786D01*
X211454294Y-87214288D01*
X211457997Y-87236489D01*
X211458631Y-87241572D01*
X211466623Y-87338023D01*
X211466623Y-87338025D01*
X211490386Y-87431864D01*
X211491437Y-87436879D01*
X211495139Y-87459061D01*
X211495141Y-87459069D01*
X211502446Y-87480348D01*
X211503908Y-87485260D01*
X211527667Y-87579081D01*
X211527671Y-87579094D01*
X211566547Y-87667722D01*
X211568409Y-87672493D01*
X211575718Y-87693783D01*
X211575720Y-87693786D01*
X211586430Y-87713578D01*
X211588680Y-87718182D01*
X211627559Y-87806815D01*
X211680496Y-87887841D01*
X211683120Y-87892245D01*
X211693827Y-87912030D01*
X211693830Y-87912035D01*
X211707658Y-87929802D01*
X211710635Y-87933972D01*
X211763566Y-88014989D01*
X211763570Y-88014994D01*
X211829125Y-88086207D01*
X211832438Y-88090118D01*
X211846254Y-88107869D01*
X211862812Y-88123112D01*
X211866426Y-88126726D01*
X211931988Y-88197945D01*
X212008383Y-88257406D01*
X212012279Y-88260706D01*
X212017191Y-88265228D01*
X212028831Y-88275944D01*
X212047668Y-88288251D01*
X212051834Y-88291225D01*
X212128223Y-88350681D01*
X212213372Y-88396761D01*
X212217733Y-88399360D01*
X212236587Y-88411678D01*
X212257226Y-88420731D01*
X212261765Y-88422950D01*
X212346922Y-88469035D01*
X212438486Y-88500469D01*
X212443221Y-88502316D01*
X212463848Y-88511364D01*
X212485664Y-88516888D01*
X212490548Y-88518342D01*
X212561821Y-88542810D01*
X212582117Y-88549778D01*
X212615921Y-88555418D01*
X212677598Y-88565710D01*
X212682611Y-88566762D01*
X212704408Y-88572282D01*
X212704410Y-88572282D01*
X212704417Y-88572284D01*
X212726857Y-88574143D01*
X212731901Y-88574771D01*
X212827397Y-88590707D01*
X212827398Y-88590707D01*
X212924180Y-88590707D01*
X212929293Y-88590918D01*
X212945147Y-88592232D01*
X212951730Y-88592778D01*
X212951732Y-88592778D01*
X212951734Y-88592778D01*
X212958316Y-88592232D01*
X212974170Y-88590918D01*
X212979284Y-88590707D01*
X213076062Y-88590707D01*
X213076067Y-88590707D01*
X213171583Y-88574768D01*
X213176594Y-88574144D01*
X213199047Y-88572284D01*
X213220885Y-88566753D01*
X213225837Y-88565715D01*
X213321346Y-88549778D01*
X213412930Y-88518336D01*
X213417774Y-88516895D01*
X213439616Y-88511364D01*
X213460232Y-88502320D01*
X213464966Y-88500472D01*
X213556542Y-88469035D01*
X213641707Y-88422945D01*
X213646237Y-88420731D01*
X213666877Y-88411678D01*
X213685740Y-88399353D01*
X213690069Y-88396773D01*
X213775241Y-88350681D01*
X213851663Y-88291199D01*
X213855750Y-88288280D01*
X213874630Y-88275946D01*
X213891198Y-88260694D01*
X213895073Y-88257411D01*
X213971476Y-88197945D01*
X214037045Y-88126717D01*
X214040629Y-88123132D01*
X214057209Y-88107870D01*
X214071052Y-88090083D01*
X214074313Y-88086233D01*
X214139896Y-88014992D01*
X214192859Y-87933925D01*
X214195785Y-87929827D01*
X214209634Y-87912035D01*
X214220355Y-87892223D01*
X214222965Y-87887843D01*
X214275905Y-87806814D01*
X214314793Y-87718157D01*
X214317031Y-87713582D01*
X214317033Y-87713578D01*
X214327746Y-87693783D01*
X214335068Y-87672453D01*
X214336894Y-87667771D01*
X214375795Y-87579088D01*
X214399558Y-87485248D01*
X214401010Y-87480369D01*
X214408324Y-87459066D01*
X214412028Y-87436865D01*
X214413072Y-87431884D01*
X214436840Y-87338028D01*
X214444836Y-87241528D01*
X214445465Y-87236489D01*
X214449170Y-87214288D01*
X214449820Y-87182796D01*
X214450015Y-87179019D01*
X214457375Y-87090207D01*
X214450016Y-87001397D01*
X214449820Y-86997614D01*
X214449170Y-86966126D01*
X214445465Y-86943921D01*
X214444835Y-86938873D01*
X214436840Y-86842386D01*
X214413073Y-86748534D01*
X214412027Y-86743541D01*
X214408324Y-86721350D01*
X214408323Y-86721347D01*
X214401015Y-86700057D01*
X214399557Y-86695159D01*
X214385998Y-86641616D01*
X214375795Y-86601326D01*
X214336906Y-86512668D01*
X214335061Y-86507941D01*
X214327746Y-86486631D01*
X214317030Y-86466829D01*
X214314784Y-86462236D01*
X214290730Y-86407398D01*
X214275905Y-86373599D01*
X214222963Y-86292565D01*
X214220339Y-86288161D01*
X214219139Y-86285944D01*
X214209634Y-86268379D01*
X214199690Y-86255603D01*
X214195812Y-86250620D01*
X214192834Y-86246449D01*
X214139898Y-86165425D01*
X214139897Y-86165424D01*
X214139896Y-86165422D01*
X214081875Y-86102394D01*
X214074338Y-86094206D01*
X214071027Y-86090297D01*
X214057209Y-86072544D01*
X214057205Y-86072539D01*
X214040651Y-86057300D01*
X214037033Y-86053683D01*
X213971476Y-85982469D01*
X213895084Y-85923011D01*
X213891176Y-85919700D01*
X213874630Y-85904468D01*
X213855795Y-85892162D01*
X213851629Y-85889188D01*
X213775241Y-85829733D01*
X213775240Y-85829732D01*
X213775237Y-85829730D01*
X213775235Y-85829729D01*
X213690117Y-85783666D01*
X213685713Y-85781042D01*
X213666877Y-85768736D01*
X213646279Y-85759701D01*
X213641672Y-85757449D01*
X213556543Y-85711379D01*
X213556534Y-85711376D01*
X213464991Y-85679949D01*
X213460216Y-85678086D01*
X213460044Y-85678010D01*
X213439616Y-85669050D01*
X213439612Y-85669049D01*
X213439610Y-85669048D01*
X213417808Y-85663526D01*
X213412898Y-85662065D01*
X213321346Y-85630636D01*
X213225870Y-85614703D01*
X213220855Y-85613651D01*
X213199044Y-85608129D01*
X213199048Y-85608129D01*
X213176627Y-85606272D01*
X213171542Y-85605638D01*
X213076068Y-85589707D01*
X213076067Y-85589707D01*
X212979273Y-85589707D01*
X212974159Y-85589495D01*
X212958287Y-85588180D01*
X212951734Y-85587637D01*
X212951730Y-85587637D01*
X212945176Y-85588180D01*
X212929304Y-85589495D01*
X212924191Y-85589707D01*
X212827397Y-85589707D01*
X212731920Y-85605638D01*
X212726835Y-85606272D01*
X212704420Y-85608129D01*
X212704415Y-85608130D01*
X212682612Y-85613651D01*
X212677598Y-85614702D01*
X212582114Y-85630636D01*
X212490566Y-85662063D01*
X212485659Y-85663524D01*
X212463858Y-85669046D01*
X212463848Y-85669050D01*
X212443242Y-85678088D01*
X212438470Y-85679949D01*
X212346926Y-85711377D01*
X212346915Y-85711382D01*
X212261794Y-85757447D01*
X212257190Y-85759698D01*
X212236586Y-85768736D01*
X212236577Y-85768741D01*
X212217755Y-85781038D01*
X212213353Y-85783662D01*
X212128224Y-85829731D01*
X212128221Y-85829734D01*
X212051838Y-85889184D01*
X212047670Y-85892161D01*
X212028831Y-85904470D01*
X212012274Y-85919710D01*
X212008367Y-85923019D01*
X211931987Y-85982469D01*
X211866429Y-86053683D01*
X211862807Y-86057305D01*
X211846261Y-86072537D01*
X211846246Y-86072553D01*
X211832431Y-86090301D01*
X211829122Y-86094208D01*
X211763568Y-86165422D01*
X211710633Y-86246443D01*
X211707657Y-86250611D01*
X211693831Y-86268377D01*
X211693826Y-86268384D01*
X211683118Y-86288171D01*
X211680495Y-86292572D01*
X211627560Y-86373597D01*
X211588685Y-86462222D01*
X211586436Y-86466822D01*
X211575717Y-86486631D01*
X211568408Y-86507921D01*
X211566546Y-86512694D01*
X211554491Y-86540178D01*
X211527671Y-86601323D01*
X211527668Y-86601329D01*
X211503909Y-86695149D01*
X211502448Y-86700057D01*
X211495140Y-86721347D01*
X211491437Y-86743534D01*
X211490386Y-86748549D01*
X211466623Y-86842385D01*
X211466623Y-86842389D01*
X211458630Y-86938841D01*
X211457997Y-86943921D01*
X211454294Y-86966126D01*
X211454294Y-86988626D01*
X211454082Y-86993742D01*
X211452975Y-87007105D01*
X211448144Y-87065410D01*
X211446089Y-87090207D01*
X205893618Y-87090207D01*
X206195798Y-86810325D01*
X206198747Y-86807764D01*
X206264063Y-86754590D01*
X206399091Y-86645962D01*
X206405197Y-86641635D01*
X206504902Y-86579739D01*
X206627184Y-86506746D01*
X206633184Y-86503599D01*
X206745800Y-86452243D01*
X206871754Y-86399164D01*
X206877453Y-86397087D01*
X206998321Y-86359679D01*
X207128531Y-86325109D01*
X207133701Y-86323975D01*
X207258269Y-86302279D01*
X207261338Y-86301827D01*
X207392888Y-86285940D01*
X207397481Y-86285560D01*
X207524236Y-86279888D01*
X207528081Y-86279839D01*
X207660214Y-86282367D01*
X207664138Y-86282568D01*
X207790511Y-86293079D01*
X207795125Y-86293638D01*
X207925913Y-86314537D01*
X207929038Y-86315120D01*
X208052607Y-86341547D01*
X208057809Y-86342899D01*
X208186573Y-86382415D01*
X208305900Y-86424411D01*
X208311525Y-86426708D01*
X208435368Y-86484571D01*
X208545906Y-86540182D01*
X208551827Y-86543582D01*
X208563603Y-86551237D01*
X208671193Y-86621177D01*
X208710097Y-86647441D01*
X208768415Y-86686812D01*
X208774415Y-86691420D01*
X208866114Y-86771182D01*
X208909145Y-86808612D01*
X208909516Y-86808934D01*
X208967821Y-86860231D01*
X208970709Y-86862939D01*
X209019131Y-86911361D01*
X209019385Y-86911826D01*
X209055405Y-86947714D01*
X209055405Y-86947715D01*
X209093226Y-86985398D01*
X209185885Y-87038468D01*
X209289211Y-87065410D01*
X209395986Y-87064344D01*
X209498754Y-87035344D01*
X209590335Y-86980435D01*
X209616942Y-86952842D01*
X209617103Y-86952712D01*
X209627325Y-86942075D01*
X209627328Y-86942075D01*
X211148328Y-85359529D01*
X211150948Y-85356963D01*
X211301912Y-85217783D01*
X211370421Y-85154928D01*
X211376080Y-85150323D01*
X211515665Y-85049831D01*
X211620612Y-84975427D01*
X211626506Y-84971733D01*
X211771173Y-84892109D01*
X211890907Y-84828081D01*
X211896947Y-84825262D01*
X212047526Y-84764715D01*
X212177222Y-84715097D01*
X212183303Y-84713126D01*
X212338612Y-84671564D01*
X212475209Y-84638175D01*
X212481217Y-84637018D01*
X212563612Y-84625352D01*
X212639504Y-84614608D01*
X212690582Y-84608755D01*
X212780370Y-84598468D01*
X212786162Y-84598079D01*
X212945486Y-84594921D01*
X213088070Y-84596574D01*
G37*
%TD.AperFunction*%
%TA.AperFunction,Conductor*%
G36*
X144440776Y-84595541D02*
G01*
X144581908Y-84608881D01*
X144740646Y-84628156D01*
X144746650Y-84629189D01*
X144883897Y-84659866D01*
X145040001Y-84698342D01*
X145046117Y-84700192D01*
X145176814Y-84747245D01*
X145328500Y-84804772D01*
X145334640Y-84807490D01*
X145455657Y-84869151D01*
X145601805Y-84945856D01*
X145607812Y-84949458D01*
X145714265Y-85021803D01*
X145855732Y-85119451D01*
X145861501Y-85123959D01*
X145909406Y-85166193D01*
X145931541Y-85185708D01*
X146084883Y-85321558D01*
X146087594Y-85324109D01*
X147679607Y-86916120D01*
X147679960Y-86916474D01*
X147679960Y-86916473D01*
X147716985Y-86953605D01*
X147717242Y-86953753D01*
X147717245Y-86953756D01*
X147808568Y-87006482D01*
X147808569Y-87006482D01*
X147808570Y-87006483D01*
X147910430Y-87033777D01*
X147910432Y-87033777D01*
X148015881Y-87033777D01*
X148015883Y-87033777D01*
X148117744Y-87006484D01*
X148209069Y-86953757D01*
X148234365Y-86928460D01*
X148246280Y-86916544D01*
X148246283Y-86916544D01*
X148338648Y-86824178D01*
X148341523Y-86821482D01*
X148404657Y-86765945D01*
X148535687Y-86652027D01*
X148541651Y-86647450D01*
X148638976Y-86581771D01*
X148758510Y-86504102D01*
X148764399Y-86500723D01*
X148875051Y-86445095D01*
X148999023Y-86387221D01*
X149004669Y-86384916D01*
X149124098Y-86342938D01*
X149253024Y-86303434D01*
X149258193Y-86302093D01*
X149381897Y-86275703D01*
X149384962Y-86275132D01*
X149515945Y-86254277D01*
X149520554Y-86253720D01*
X149647052Y-86243278D01*
X149650947Y-86243082D01*
X149783191Y-86240641D01*
X149787129Y-86240693D01*
X149913926Y-86246460D01*
X149918517Y-86246844D01*
X150043275Y-86262011D01*
X150050139Y-86262846D01*
X150053316Y-86263316D01*
X150177865Y-86285116D01*
X150183077Y-86286263D01*
X150313407Y-86320993D01*
X150434263Y-86358523D01*
X150439997Y-86360618D01*
X150566049Y-86413890D01*
X150634335Y-86445118D01*
X150678635Y-86465377D01*
X150684693Y-86468563D01*
X150807000Y-86541760D01*
X150814004Y-86546119D01*
X150906686Y-86603804D01*
X150912813Y-86608158D01*
X151026764Y-86700057D01*
X151046589Y-86716045D01*
X151086426Y-86748561D01*
X151113211Y-86770423D01*
X151116185Y-86773012D01*
X151567539Y-87192198D01*
X152498635Y-88005467D01*
X153454117Y-88789943D01*
X153606118Y-88907160D01*
X153647184Y-88963686D01*
X153651171Y-89033442D01*
X153616812Y-89094280D01*
X153555016Y-89126884D01*
X153518244Y-89128756D01*
X153441933Y-89121242D01*
X153424207Y-89119497D01*
X153424205Y-89119497D01*
X153333470Y-89119498D01*
X153333398Y-89119476D01*
X153167357Y-89119470D01*
X153167347Y-89119470D01*
X152939841Y-89149414D01*
X152939832Y-89149416D01*
X152718201Y-89208797D01*
X152718191Y-89208800D01*
X152718191Y-89208801D01*
X152689517Y-89220678D01*
X152506186Y-89296614D01*
X152430378Y-89340383D01*
X152362477Y-89356856D01*
X152297254Y-89334571D01*
X152251153Y-89302291D01*
X152156900Y-89236294D01*
X152104394Y-89207352D01*
X152104391Y-89207351D01*
X151965088Y-89171206D01*
X151965085Y-89171206D01*
X151878775Y-89173946D01*
X151821234Y-89175773D01*
X151821233Y-89175773D01*
X151684502Y-89220678D01*
X151684494Y-89220682D01*
X151565955Y-89302291D01*
X151526517Y-89347444D01*
X151526511Y-89347450D01*
X150955385Y-90163103D01*
X150955378Y-90163115D01*
X150929786Y-90209543D01*
X150926436Y-90215620D01*
X150902810Y-90306675D01*
X150890290Y-90354929D01*
X150894857Y-90498781D01*
X150939763Y-90635512D01*
X150939766Y-90635517D01*
X151021376Y-90754058D01*
X151021377Y-90754059D01*
X151021378Y-90754060D01*
X151066531Y-90793501D01*
X151367542Y-91004271D01*
X152373680Y-91708776D01*
X152373683Y-91708777D01*
X152373690Y-91708782D01*
X152426196Y-91737724D01*
X152556027Y-91771410D01*
X152556829Y-91771619D01*
X152565505Y-91773870D01*
X152709354Y-91769303D01*
X152846091Y-91724396D01*
X152964636Y-91642783D01*
X153004076Y-91597629D01*
X153575211Y-90781962D01*
X153588646Y-90757588D01*
X153638245Y-90708383D01*
X153706576Y-90693802D01*
X153737092Y-90700029D01*
X153811318Y-90725224D01*
X153818813Y-90728329D01*
X153974949Y-90805326D01*
X153981978Y-90809384D01*
X154126729Y-90906103D01*
X154133165Y-90911042D01*
X154171250Y-90944442D01*
X154254777Y-91017694D01*
X154265844Y-91027399D01*
X154268790Y-91030158D01*
X155018314Y-91779681D01*
X155018324Y-91779692D01*
X155020650Y-91782018D01*
X155020651Y-91782019D01*
X155040101Y-91801469D01*
X155040120Y-91801503D01*
X155157547Y-91918927D01*
X155157551Y-91918931D01*
X155270367Y-92005495D01*
X155339604Y-92058621D01*
X155415344Y-92102348D01*
X155463560Y-92152915D01*
X155476784Y-92221522D01*
X155454920Y-92280859D01*
X155398593Y-92361302D01*
X155398594Y-92361303D01*
X156468228Y-93110269D01*
X157446473Y-93795243D01*
X157564933Y-93626066D01*
X157619510Y-93582442D01*
X157689009Y-93575249D01*
X157741991Y-93598812D01*
X157846028Y-93678637D01*
X157846050Y-93678652D01*
X158044759Y-93793367D01*
X158044763Y-93793369D01*
X158044770Y-93793373D01*
X158208739Y-93861284D01*
X158263143Y-93905122D01*
X158285211Y-93971415D01*
X158267934Y-94039115D01*
X158216799Y-94086728D01*
X158201559Y-94093125D01*
X158185566Y-94098616D01*
X158185555Y-94098620D01*
X157981431Y-94209087D01*
X157981425Y-94209091D01*
X157798282Y-94351637D01*
X157798279Y-94351640D01*
X157798276Y-94351642D01*
X157798276Y-94351643D01*
X157761929Y-94391127D01*
X157641076Y-94522408D01*
X157514135Y-94716707D01*
X157420902Y-94929255D01*
X157363926Y-95154247D01*
X157363924Y-95154258D01*
X157344760Y-95385549D01*
X157344760Y-95385551D01*
X157344760Y-95385556D01*
X157352377Y-95477481D01*
X157362580Y-95600619D01*
X157348498Y-95669055D01*
X157299652Y-95719014D01*
X157231551Y-95734634D01*
X157207866Y-95730885D01*
X157128203Y-95710215D01*
X157128202Y-95710215D01*
X156984350Y-95714782D01*
X156847619Y-95759688D01*
X156729074Y-95841299D01*
X156729070Y-95841303D01*
X156689635Y-95886450D01*
X156689628Y-95886458D01*
X155602282Y-97439350D01*
X155602280Y-97439355D01*
X155602278Y-97439358D01*
X155602277Y-97439360D01*
X155589026Y-97463400D01*
X155573336Y-97491864D01*
X155573334Y-97491869D01*
X155536325Y-97634501D01*
X155500434Y-97694448D01*
X155437831Y-97725474D01*
X155368392Y-97717730D01*
X155314164Y-97673673D01*
X155299964Y-97646276D01*
X155297400Y-97639326D01*
X155256616Y-97528776D01*
X155255118Y-97524163D01*
X155150203Y-97152155D01*
X155149076Y-97147462D01*
X155148515Y-97144640D01*
X155154735Y-97075054D01*
X155168549Y-97049326D01*
X155696253Y-96295688D01*
X155725196Y-96243182D01*
X155761342Y-96103873D01*
X155756775Y-95960023D01*
X155739023Y-95905972D01*
X155711868Y-95823289D01*
X155711865Y-95823284D01*
X155630255Y-95704743D01*
X155598298Y-95676829D01*
X155585101Y-95665301D01*
X155526260Y-95624100D01*
X154277951Y-94750025D01*
X154277946Y-94750023D01*
X154277947Y-94750023D01*
X154277942Y-94750020D01*
X154225436Y-94721078D01*
X154225433Y-94721077D01*
X154086130Y-94684932D01*
X154086127Y-94684932D01*
X153999817Y-94687672D01*
X153942276Y-94689499D01*
X153942275Y-94689499D01*
X153805544Y-94734404D01*
X153805536Y-94734408D01*
X153686997Y-94816017D01*
X153647559Y-94861170D01*
X153647553Y-94861176D01*
X153076427Y-95676829D01*
X153076420Y-95676841D01*
X153055506Y-95714782D01*
X153047478Y-95729346D01*
X153016755Y-95847755D01*
X153011332Y-95868655D01*
X153015899Y-96012507D01*
X153060805Y-96149238D01*
X153060808Y-96149243D01*
X153142418Y-96267784D01*
X153142419Y-96267785D01*
X153142420Y-96267786D01*
X153187573Y-96307227D01*
X153347879Y-96419474D01*
X153761047Y-96708777D01*
X153804672Y-96763354D01*
X153812662Y-96792705D01*
X153841676Y-96994501D01*
X153854766Y-97085550D01*
X153855991Y-97094066D01*
X153855991Y-97094067D01*
X153950663Y-97529279D01*
X153966409Y-97582905D01*
X154055035Y-97884747D01*
X154055035Y-97954617D01*
X154017260Y-98013394D01*
X153953704Y-98042419D01*
X153919864Y-98042619D01*
X153782377Y-98024508D01*
X153755749Y-98024506D01*
X153755654Y-98024500D01*
X153678850Y-98024500D01*
X153672770Y-98024201D01*
X153552907Y-98012396D01*
X153529064Y-98007653D01*
X153422588Y-97975352D01*
X153400133Y-97966051D01*
X153340034Y-97933927D01*
X153302005Y-97913600D01*
X153281794Y-97900095D01*
X153188739Y-97823727D01*
X153184238Y-97819648D01*
X150875585Y-95510994D01*
X150875581Y-95510989D01*
X150868512Y-95503920D01*
X150816519Y-95451928D01*
X150813226Y-95448365D01*
X150689110Y-95303047D01*
X150677673Y-95287305D01*
X150596135Y-95154251D01*
X150581646Y-95130609D01*
X150572814Y-95113275D01*
X150560857Y-95084410D01*
X150502484Y-94943489D01*
X150496471Y-94924986D01*
X150453565Y-94746277D01*
X150450521Y-94727060D01*
X150449706Y-94716707D01*
X150439453Y-94586461D01*
X150453816Y-94518086D01*
X150502866Y-94468328D01*
X150571031Y-94452988D01*
X150594213Y-94456706D01*
X150672702Y-94477072D01*
X150816551Y-94472505D01*
X150953288Y-94427598D01*
X151071833Y-94345985D01*
X151111273Y-94300831D01*
X151178620Y-94204649D01*
X155939030Y-94204649D01*
X156387786Y-94518872D01*
X156387785Y-94518872D01*
X156440235Y-94547782D01*
X156440238Y-94547783D01*
X156579402Y-94583891D01*
X156723113Y-94579329D01*
X156859709Y-94534468D01*
X156978138Y-94452935D01*
X156978139Y-94452934D01*
X157017533Y-94407834D01*
X157017540Y-94407826D01*
X157159685Y-94204819D01*
X156340533Y-93631243D01*
X156340532Y-93631243D01*
X155939030Y-94204649D01*
X151178620Y-94204649D01*
X151682408Y-93485164D01*
X151711351Y-93432658D01*
X151747497Y-93293349D01*
X151743438Y-93165507D01*
X154904637Y-93165507D01*
X154909199Y-93309217D01*
X154954060Y-93445813D01*
X155035592Y-93564240D01*
X155080700Y-93603641D01*
X155080708Y-93603647D01*
X155529453Y-93917862D01*
X155529454Y-93917862D01*
X155930957Y-93344455D01*
X155930957Y-93344454D01*
X155111805Y-92770878D01*
X155111804Y-92770878D01*
X154969664Y-92973878D01*
X154969652Y-92973897D01*
X154940745Y-93026337D01*
X154904637Y-93165507D01*
X151743438Y-93165507D01*
X151742930Y-93149499D01*
X151719157Y-93077115D01*
X151698023Y-93012765D01*
X151698020Y-93012760D01*
X151616410Y-92894219D01*
X151584453Y-92866305D01*
X151571256Y-92854777D01*
X151435395Y-92759646D01*
X150264106Y-91939501D01*
X150264101Y-91939499D01*
X150264102Y-91939499D01*
X150264097Y-91939496D01*
X150211591Y-91910554D01*
X150211588Y-91910553D01*
X150072285Y-91874408D01*
X150072282Y-91874408D01*
X149985972Y-91877148D01*
X149928431Y-91878975D01*
X149928430Y-91878975D01*
X149791699Y-91923880D01*
X149791691Y-91923884D01*
X149673152Y-92005493D01*
X149633714Y-92050646D01*
X149633708Y-92050652D01*
X149062582Y-92866305D01*
X149062575Y-92866317D01*
X149047195Y-92894219D01*
X149033633Y-92918822D01*
X149003807Y-93033773D01*
X148997487Y-93058131D01*
X149002054Y-93201983D01*
X149046960Y-93338714D01*
X149046963Y-93338719D01*
X149128573Y-93457260D01*
X149128574Y-93457261D01*
X149128575Y-93457262D01*
X149173728Y-93496703D01*
X149275263Y-93567798D01*
X149318888Y-93622374D01*
X149326082Y-93691873D01*
X149321182Y-93710325D01*
X149279995Y-93828036D01*
X149279989Y-93828057D01*
X149216353Y-94106884D01*
X149216351Y-94106893D01*
X149216350Y-94106900D01*
X149216350Y-94106901D01*
X149187254Y-94365180D01*
X149184330Y-94391131D01*
X149184334Y-94677153D01*
X149216361Y-94961367D01*
X149216363Y-94961375D01*
X149280014Y-95240226D01*
X149280015Y-95240231D01*
X149280016Y-95240232D01*
X149363036Y-95477481D01*
X149374485Y-95510197D01*
X149498589Y-95767894D01*
X149650766Y-96010075D01*
X149680854Y-96047803D01*
X149829100Y-96233692D01*
X149880636Y-96285226D01*
X149912786Y-96317376D01*
X149912787Y-96317378D01*
X149930227Y-96334817D01*
X149930227Y-96334818D01*
X149943887Y-96348477D01*
X149943889Y-96348479D01*
X152268243Y-98672834D01*
X152268253Y-98672853D01*
X152301753Y-98706352D01*
X152301753Y-98706353D01*
X152391812Y-98796411D01*
X152391816Y-98796414D01*
X152391818Y-98796416D01*
X152444220Y-98836625D01*
X152593898Y-98951477D01*
X152593905Y-98951481D01*
X152814484Y-99078833D01*
X152814486Y-99078834D01*
X152814495Y-99078839D01*
X153049829Y-99176319D01*
X153295873Y-99242248D01*
X153506202Y-99269940D01*
X153548408Y-99275497D01*
X153548410Y-99275497D01*
X153548417Y-99275498D01*
X153671670Y-99275498D01*
X153679748Y-99276029D01*
X153756502Y-99286140D01*
X153787752Y-99294515D01*
X153847940Y-99319450D01*
X153875966Y-99335634D01*
X153937551Y-99382893D01*
X153943652Y-99388243D01*
X153994317Y-99438911D01*
X153994319Y-99438912D01*
X153996958Y-99441551D01*
X153996983Y-99441573D01*
X155751282Y-101195872D01*
X155751303Y-101195895D01*
X155770362Y-101214954D01*
X155770411Y-101215044D01*
X155986961Y-101431593D01*
X155986962Y-101431593D01*
X155986965Y-101431596D01*
X156162983Y-101584115D01*
X156370996Y-101764358D01*
X156777783Y-102068871D01*
X157205258Y-102343589D01*
X157265277Y-102376361D01*
X157651249Y-102587115D01*
X158113472Y-102798202D01*
X158459564Y-102927285D01*
X158589573Y-102975775D01*
X158589573Y-102975776D01*
X158940725Y-103078880D01*
X159077136Y-103118933D01*
X159281936Y-103163483D01*
X159573665Y-103226943D01*
X159573666Y-103226943D01*
X160076633Y-103299256D01*
X160166163Y-103305658D01*
X160583483Y-103335502D01*
X160835794Y-103335500D01*
X160839273Y-103335598D01*
X160984251Y-103343741D01*
X161094474Y-103349933D01*
X161101381Y-103350713D01*
X161351651Y-103393240D01*
X161358435Y-103394789D01*
X161395070Y-103405344D01*
X161602366Y-103465069D01*
X161608920Y-103467362D01*
X161843469Y-103564521D01*
X161849711Y-103567527D01*
X162071899Y-103690333D01*
X162077783Y-103694031D01*
X162284815Y-103840936D01*
X162290255Y-103845274D01*
X162339652Y-103889420D01*
X162400170Y-103943505D01*
X162481103Y-104015834D01*
X162483630Y-104018224D01*
X162538360Y-104072955D01*
X162538551Y-104073124D01*
X162610872Y-104145447D01*
X162624329Y-104158904D01*
X162624329Y-104158903D01*
X162915807Y-104403490D01*
X162932352Y-104417373D01*
X162932351Y-104417373D01*
X163261741Y-104648020D01*
X163330389Y-104687655D01*
X163571844Y-104827063D01*
X163609973Y-104849077D01*
X163792187Y-104934047D01*
X163974403Y-105019018D01*
X164352259Y-105156550D01*
X164740665Y-105260626D01*
X165136664Y-105330453D01*
X165537241Y-105365500D01*
X165865599Y-105365500D01*
X165865608Y-105365499D01*
X167771993Y-105365499D01*
X167776041Y-105365631D01*
X168026070Y-105382021D01*
X168034110Y-105383080D01*
X168277864Y-105431568D01*
X168285685Y-105433664D01*
X168521024Y-105513553D01*
X168528525Y-105516660D01*
X168751421Y-105626582D01*
X168758446Y-105630637D01*
X168965089Y-105768715D01*
X168971513Y-105773644D01*
X169159937Y-105938891D01*
X169162898Y-105941664D01*
X169204898Y-105983667D01*
X169330862Y-106109638D01*
X169330862Y-106109639D01*
X169359552Y-106134500D01*
X169693078Y-106423518D01*
X169693084Y-106423523D01*
X169693087Y-106423525D01*
X170045874Y-106687631D01*
X170076757Y-106710751D01*
X170312993Y-106862577D01*
X170360952Y-106893400D01*
X170406706Y-106946205D01*
X170416649Y-107015363D01*
X170387622Y-107078919D01*
X170328844Y-107116692D01*
X170258974Y-107116690D01*
X170242639Y-107110617D01*
X169925900Y-106966766D01*
X169867267Y-106940137D01*
X169436983Y-106783066D01*
X168995981Y-106659251D01*
X168995982Y-106659251D01*
X168886299Y-106637331D01*
X168771486Y-106614385D01*
X168031518Y-106456170D01*
X167450370Y-106331510D01*
X166743468Y-106160689D01*
X166127300Y-106010500D01*
X166119590Y-106008620D01*
X165426531Y-105821607D01*
X164798088Y-105649798D01*
X164113939Y-105445625D01*
X163486819Y-105255305D01*
X162810380Y-105033782D01*
X162186705Y-104825419D01*
X161517727Y-104586565D01*
X160898730Y-104360464D01*
X160237179Y-104104334D01*
X159623880Y-103860800D01*
X159134243Y-103656174D01*
X158969836Y-103587466D01*
X158941159Y-103575146D01*
X158363077Y-103326791D01*
X157716837Y-103036404D01*
X157117253Y-102758837D01*
X156479089Y-102451535D01*
X155887330Y-102157362D01*
X155350594Y-101881178D01*
X155257557Y-101833304D01*
X154674203Y-101522809D01*
X154121105Y-101219437D01*
X154053168Y-101182174D01*
X154023266Y-101165176D01*
X153925428Y-101109559D01*
X153478824Y-100855684D01*
X152866802Y-100498612D01*
X152302056Y-100156481D01*
X151699383Y-99783149D01*
X151144778Y-99425733D01*
X150551756Y-99036302D01*
X150373003Y-98913946D01*
X150008000Y-98664102D01*
X149424724Y-98258586D01*
X149183823Y-98083668D01*
X148892617Y-97872224D01*
X148450289Y-97547011D01*
X148319192Y-97450624D01*
X147799633Y-97050869D01*
X147235929Y-96612978D01*
X146730825Y-96201511D01*
X146694355Y-96171601D01*
X146499693Y-96011951D01*
X146175726Y-95746254D01*
X146041351Y-95630434D01*
X145689552Y-95327211D01*
X145316344Y-95004243D01*
X145139430Y-94851144D01*
X144694073Y-94445177D01*
X144682489Y-94434604D01*
X144143270Y-93942430D01*
X144139766Y-93938964D01*
X144085295Y-93880607D01*
X143956794Y-93741253D01*
X143951816Y-93735111D01*
X143882488Y-93637458D01*
X143804042Y-93522586D01*
X143796823Y-93512015D01*
X143793137Y-93505886D01*
X143788312Y-93496703D01*
X143733853Y-93393054D01*
X143670353Y-93262733D01*
X143667850Y-93256842D01*
X143634491Y-93165507D01*
X143623018Y-93134095D01*
X143579851Y-92998246D01*
X143578396Y-92992823D01*
X143550292Y-92865095D01*
X143549672Y-92861858D01*
X143527095Y-92723648D01*
X143526507Y-92718869D01*
X143515620Y-92587966D01*
X143515417Y-92583864D01*
X143515265Y-92574448D01*
X143513158Y-92444263D01*
X143513228Y-92440185D01*
X143519874Y-92308998D01*
X143520309Y-92304178D01*
X143538396Y-92165356D01*
X143538918Y-92162062D01*
X143562880Y-92033461D01*
X143564148Y-92028042D01*
X143602892Y-91890885D01*
X143643745Y-91766698D01*
X143646037Y-91760778D01*
X143705297Y-91628449D01*
X143760910Y-91513735D01*
X143764367Y-91507542D01*
X143845954Y-91379352D01*
X143912079Y-91279519D01*
X143916845Y-91273233D01*
X144041930Y-91128464D01*
X144082075Y-91082564D01*
X146132499Y-91082564D01*
X146135251Y-91169258D01*
X146137066Y-91226416D01*
X146181972Y-91363147D01*
X146263583Y-91481692D01*
X146263587Y-91481696D01*
X146308734Y-91521131D01*
X146308742Y-91521138D01*
X147861634Y-92608484D01*
X147861637Y-92608485D01*
X147861644Y-92608490D01*
X147914150Y-92637432D01*
X148053459Y-92673578D01*
X148197309Y-92669011D01*
X148334045Y-92624103D01*
X148452590Y-92542491D01*
X148492031Y-92497337D01*
X148836424Y-92005493D01*
X149579379Y-90944442D01*
X149579379Y-90944440D01*
X149579385Y-90944433D01*
X149608327Y-90891927D01*
X149644473Y-90752618D01*
X149639906Y-90608768D01*
X149594998Y-90472032D01*
X149546897Y-90402164D01*
X149525097Y-90335787D01*
X149542645Y-90268156D01*
X149593970Y-90220749D01*
X149628626Y-90209543D01*
X149690351Y-90199243D01*
X149909873Y-90123881D01*
X150113996Y-90013415D01*
X150297154Y-89870858D01*
X150454349Y-89700098D01*
X150581294Y-89505794D01*
X150674527Y-89293245D01*
X150731504Y-89068250D01*
X150732850Y-89052008D01*
X150750670Y-88836951D01*
X150750670Y-88836938D01*
X150731505Y-88605647D01*
X150731503Y-88605636D01*
X150674527Y-88380644D01*
X150581294Y-88168096D01*
X150454353Y-87973797D01*
X150454350Y-87973794D01*
X150454349Y-87973792D01*
X150297154Y-87803032D01*
X150297149Y-87803028D01*
X150297147Y-87803026D01*
X150114004Y-87660480D01*
X150113998Y-87660476D01*
X149909874Y-87550009D01*
X149909865Y-87550006D01*
X149690354Y-87474647D01*
X149518652Y-87445995D01*
X149461419Y-87436445D01*
X149229321Y-87436445D01*
X149183534Y-87444085D01*
X149000385Y-87474647D01*
X148780874Y-87550006D01*
X148780865Y-87550009D01*
X148576741Y-87660476D01*
X148576735Y-87660480D01*
X148393592Y-87803026D01*
X148393589Y-87803029D01*
X148393586Y-87803031D01*
X148393586Y-87803032D01*
X148334637Y-87867067D01*
X148236386Y-87973797D01*
X148109445Y-88168096D01*
X148016212Y-88380644D01*
X147959236Y-88605636D01*
X147959234Y-88605647D01*
X147940070Y-88836938D01*
X147940070Y-88836940D01*
X147940070Y-88836945D01*
X147948119Y-88934082D01*
X147957890Y-89052008D01*
X147943808Y-89120444D01*
X147894962Y-89170403D01*
X147826861Y-89186023D01*
X147803176Y-89182274D01*
X147723513Y-89161604D01*
X147723512Y-89161604D01*
X147579660Y-89166171D01*
X147442929Y-89211077D01*
X147324384Y-89292688D01*
X147324380Y-89292692D01*
X147284945Y-89337839D01*
X147284938Y-89337847D01*
X146197592Y-90890739D01*
X146197590Y-90890744D01*
X146197588Y-90890747D01*
X146197587Y-90890749D01*
X146196938Y-90891927D01*
X146168646Y-90943253D01*
X146168644Y-90943257D01*
X146132499Y-91082560D01*
X146132499Y-91082563D01*
X146132499Y-91082564D01*
X144082075Y-91082564D01*
X144093357Y-91069664D01*
X144096161Y-91066666D01*
X144108814Y-91054012D01*
X144108835Y-91054001D01*
X144145136Y-91017696D01*
X144182417Y-90980411D01*
X144235138Y-90889084D01*
X144260192Y-90795570D01*
X144262428Y-90787228D01*
X144262428Y-90787227D01*
X144262429Y-90787224D01*
X144262428Y-90681772D01*
X144262428Y-90681770D01*
X144235138Y-90579916D01*
X144235137Y-90579912D01*
X144182414Y-90488586D01*
X144182412Y-90488584D01*
X144182261Y-90488322D01*
X144145133Y-90451300D01*
X144145134Y-90451300D01*
X144144780Y-90450947D01*
X142552768Y-88858935D01*
X142550217Y-88856224D01*
X142414367Y-88702882D01*
X142397747Y-88684031D01*
X142352618Y-88632842D01*
X142348110Y-88627073D01*
X142250412Y-88485533D01*
X142178117Y-88379153D01*
X142174515Y-88373146D01*
X142097810Y-88226998D01*
X142036149Y-88105981D01*
X142033431Y-88099841D01*
X141975904Y-87948155D01*
X141928851Y-87817458D01*
X141927001Y-87811342D01*
X141888525Y-87655238D01*
X141857848Y-87517991D01*
X141856815Y-87511987D01*
X141837542Y-87353264D01*
X141832886Y-87304005D01*
X141824201Y-87212118D01*
X141823926Y-87206280D01*
X141823926Y-87090207D01*
X142813223Y-87090207D01*
X142820895Y-87182796D01*
X142821216Y-87186663D01*
X142821428Y-87191786D01*
X142821428Y-87214288D01*
X142825131Y-87236489D01*
X142825765Y-87241572D01*
X142833757Y-87338023D01*
X142833757Y-87338025D01*
X142857520Y-87431864D01*
X142858571Y-87436879D01*
X142862273Y-87459061D01*
X142862275Y-87459069D01*
X142869580Y-87480348D01*
X142871042Y-87485260D01*
X142894801Y-87579081D01*
X142894805Y-87579094D01*
X142933681Y-87667722D01*
X142935543Y-87672493D01*
X142942852Y-87693783D01*
X142942854Y-87693786D01*
X142953564Y-87713578D01*
X142955814Y-87718182D01*
X142994693Y-87806815D01*
X143047630Y-87887841D01*
X143050254Y-87892245D01*
X143060961Y-87912030D01*
X143060964Y-87912035D01*
X143074792Y-87929802D01*
X143077769Y-87933972D01*
X143130700Y-88014989D01*
X143130704Y-88014994D01*
X143196259Y-88086207D01*
X143199572Y-88090118D01*
X143213388Y-88107869D01*
X143229946Y-88123112D01*
X143233560Y-88126726D01*
X143299122Y-88197945D01*
X143375517Y-88257406D01*
X143379413Y-88260706D01*
X143384325Y-88265228D01*
X143395965Y-88275944D01*
X143414802Y-88288251D01*
X143418968Y-88291225D01*
X143495357Y-88350681D01*
X143580506Y-88396761D01*
X143584867Y-88399360D01*
X143603721Y-88411678D01*
X143624360Y-88420731D01*
X143628899Y-88422950D01*
X143714056Y-88469035D01*
X143805620Y-88500469D01*
X143810355Y-88502316D01*
X143830982Y-88511364D01*
X143852798Y-88516888D01*
X143857682Y-88518342D01*
X143928955Y-88542810D01*
X143949251Y-88549778D01*
X143983055Y-88555418D01*
X144044732Y-88565710D01*
X144049745Y-88566762D01*
X144071542Y-88572282D01*
X144071544Y-88572282D01*
X144071551Y-88572284D01*
X144093991Y-88574143D01*
X144099035Y-88574771D01*
X144194531Y-88590707D01*
X144194532Y-88590707D01*
X144291314Y-88590707D01*
X144296427Y-88590918D01*
X144312281Y-88592232D01*
X144318864Y-88592778D01*
X144318866Y-88592778D01*
X144318868Y-88592778D01*
X144325450Y-88592232D01*
X144341304Y-88590918D01*
X144346418Y-88590707D01*
X144443196Y-88590707D01*
X144443201Y-88590707D01*
X144538717Y-88574768D01*
X144543728Y-88574144D01*
X144566181Y-88572284D01*
X144588019Y-88566753D01*
X144592971Y-88565715D01*
X144688480Y-88549778D01*
X144780064Y-88518336D01*
X144784908Y-88516895D01*
X144806750Y-88511364D01*
X144827366Y-88502320D01*
X144832100Y-88500472D01*
X144923676Y-88469035D01*
X145008841Y-88422945D01*
X145013371Y-88420731D01*
X145034011Y-88411678D01*
X145052874Y-88399353D01*
X145057203Y-88396773D01*
X145142375Y-88350681D01*
X145218797Y-88291199D01*
X145222884Y-88288280D01*
X145241764Y-88275946D01*
X145258332Y-88260694D01*
X145262207Y-88257411D01*
X145338610Y-88197945D01*
X145404179Y-88126717D01*
X145407763Y-88123132D01*
X145424343Y-88107870D01*
X145438186Y-88090083D01*
X145441447Y-88086233D01*
X145507030Y-88014992D01*
X145559993Y-87933925D01*
X145562919Y-87929827D01*
X145576768Y-87912035D01*
X145587489Y-87892223D01*
X145590099Y-87887843D01*
X145643039Y-87806814D01*
X145681927Y-87718157D01*
X145684165Y-87713582D01*
X145684167Y-87713578D01*
X145694880Y-87693783D01*
X145702202Y-87672453D01*
X145704028Y-87667771D01*
X145742929Y-87579088D01*
X145766692Y-87485248D01*
X145768144Y-87480369D01*
X145775458Y-87459066D01*
X145779162Y-87436865D01*
X145780206Y-87431884D01*
X145803974Y-87338028D01*
X145811970Y-87241528D01*
X145812599Y-87236489D01*
X145816304Y-87214288D01*
X145816954Y-87182796D01*
X145817149Y-87179019D01*
X145824509Y-87090207D01*
X145817150Y-87001397D01*
X145816954Y-86997614D01*
X145816304Y-86966126D01*
X145812599Y-86943921D01*
X145811969Y-86938873D01*
X145803974Y-86842386D01*
X145780207Y-86748534D01*
X145779161Y-86743541D01*
X145775458Y-86721350D01*
X145775457Y-86721347D01*
X145768149Y-86700057D01*
X145766691Y-86695159D01*
X145753132Y-86641616D01*
X145742929Y-86601326D01*
X145704040Y-86512668D01*
X145702195Y-86507941D01*
X145694880Y-86486631D01*
X145684164Y-86466829D01*
X145681918Y-86462236D01*
X145657864Y-86407398D01*
X145643039Y-86373599D01*
X145590097Y-86292565D01*
X145587473Y-86288161D01*
X145586273Y-86285944D01*
X145576768Y-86268379D01*
X145566824Y-86255603D01*
X145562946Y-86250620D01*
X145559968Y-86246449D01*
X145507032Y-86165425D01*
X145507031Y-86165424D01*
X145507030Y-86165422D01*
X145449009Y-86102394D01*
X145441472Y-86094206D01*
X145438161Y-86090297D01*
X145424343Y-86072544D01*
X145424339Y-86072539D01*
X145407785Y-86057300D01*
X145404167Y-86053683D01*
X145338610Y-85982469D01*
X145262218Y-85923011D01*
X145258310Y-85919700D01*
X145241764Y-85904468D01*
X145222929Y-85892162D01*
X145218763Y-85889188D01*
X145142375Y-85829733D01*
X145142374Y-85829732D01*
X145142371Y-85829730D01*
X145142369Y-85829729D01*
X145057251Y-85783666D01*
X145052847Y-85781042D01*
X145034011Y-85768736D01*
X145013413Y-85759701D01*
X145008806Y-85757449D01*
X144923677Y-85711379D01*
X144923668Y-85711376D01*
X144832125Y-85679949D01*
X144827350Y-85678086D01*
X144827178Y-85678010D01*
X144806750Y-85669050D01*
X144806746Y-85669049D01*
X144806744Y-85669048D01*
X144784942Y-85663526D01*
X144780032Y-85662065D01*
X144688480Y-85630636D01*
X144593004Y-85614703D01*
X144587989Y-85613651D01*
X144566178Y-85608129D01*
X144566182Y-85608129D01*
X144543761Y-85606272D01*
X144538676Y-85605638D01*
X144443202Y-85589707D01*
X144443201Y-85589707D01*
X144346407Y-85589707D01*
X144341293Y-85589495D01*
X144325421Y-85588180D01*
X144318868Y-85587637D01*
X144318864Y-85587637D01*
X144312310Y-85588180D01*
X144296438Y-85589495D01*
X144291325Y-85589707D01*
X144194531Y-85589707D01*
X144099054Y-85605638D01*
X144093969Y-85606272D01*
X144071554Y-85608129D01*
X144071549Y-85608130D01*
X144049746Y-85613651D01*
X144044732Y-85614702D01*
X143949248Y-85630636D01*
X143857700Y-85662063D01*
X143852793Y-85663524D01*
X143830992Y-85669046D01*
X143830982Y-85669050D01*
X143810376Y-85678088D01*
X143805604Y-85679949D01*
X143714060Y-85711377D01*
X143714049Y-85711382D01*
X143628928Y-85757447D01*
X143624324Y-85759698D01*
X143603720Y-85768736D01*
X143603711Y-85768741D01*
X143584889Y-85781038D01*
X143580487Y-85783662D01*
X143495358Y-85829731D01*
X143495355Y-85829734D01*
X143418972Y-85889184D01*
X143414804Y-85892161D01*
X143395965Y-85904470D01*
X143379408Y-85919710D01*
X143375501Y-85923019D01*
X143299121Y-85982469D01*
X143233563Y-86053683D01*
X143229941Y-86057305D01*
X143213395Y-86072537D01*
X143213380Y-86072553D01*
X143199565Y-86090301D01*
X143196256Y-86094208D01*
X143130702Y-86165422D01*
X143077767Y-86246443D01*
X143074791Y-86250611D01*
X143060965Y-86268377D01*
X143060960Y-86268384D01*
X143050252Y-86288171D01*
X143047629Y-86292572D01*
X142994694Y-86373597D01*
X142955819Y-86462222D01*
X142953570Y-86466822D01*
X142942851Y-86486631D01*
X142935542Y-86507921D01*
X142933680Y-86512694D01*
X142921625Y-86540178D01*
X142894805Y-86601323D01*
X142894802Y-86601329D01*
X142871043Y-86695149D01*
X142869582Y-86700057D01*
X142862274Y-86721347D01*
X142858571Y-86743534D01*
X142857520Y-86748549D01*
X142833757Y-86842385D01*
X142833757Y-86842389D01*
X142825764Y-86938841D01*
X142825131Y-86943921D01*
X142821428Y-86966126D01*
X142821428Y-86988626D01*
X142821216Y-86993742D01*
X142820109Y-87007105D01*
X142815278Y-87065410D01*
X142813223Y-87090207D01*
X141823926Y-87090207D01*
X141823926Y-87046983D01*
X141823964Y-87045753D01*
X141828405Y-86904424D01*
X141828822Y-86898963D01*
X141847993Y-86741079D01*
X141870391Y-86599666D01*
X141871422Y-86594567D01*
X141909434Y-86440346D01*
X141949519Y-86302372D01*
X141951055Y-86297778D01*
X142006860Y-86150632D01*
X142007892Y-86148089D01*
X142064559Y-86017139D01*
X142066534Y-86013008D01*
X142139582Y-85873826D01*
X142141064Y-85871167D01*
X142213774Y-85748223D01*
X142216073Y-85744629D01*
X142305312Y-85615344D01*
X142307289Y-85612643D01*
X142394894Y-85499703D01*
X142397386Y-85496697D01*
X142501578Y-85379090D01*
X142504048Y-85376466D01*
X142605125Y-85275389D01*
X142607749Y-85272919D01*
X142725356Y-85168727D01*
X142728362Y-85166235D01*
X142841302Y-85078630D01*
X142844003Y-85076653D01*
X142973288Y-84987414D01*
X142976882Y-84985115D01*
X143099826Y-84912405D01*
X143102485Y-84910923D01*
X143241667Y-84837875D01*
X143245798Y-84835900D01*
X143376748Y-84779233D01*
X143379291Y-84778201D01*
X143526437Y-84722396D01*
X143531031Y-84720860D01*
X143669005Y-84680775D01*
X143823226Y-84642763D01*
X143828325Y-84641732D01*
X143969738Y-84619334D01*
X144127622Y-84600163D01*
X144133083Y-84599746D01*
X144275642Y-84595267D01*
X144434941Y-84595267D01*
X144440776Y-84595541D01*
G37*
%TD.AperFunction*%
%TA.AperFunction,Conductor*%
G36*
X191694636Y-97179587D02*
G01*
X191740391Y-97232391D01*
X191750335Y-97301549D01*
X191742249Y-97329873D01*
X191742358Y-97329911D01*
X191741648Y-97331976D01*
X191741154Y-97333710D01*
X191740693Y-97334758D01*
X191683717Y-97559750D01*
X191683715Y-97559761D01*
X191664551Y-97791052D01*
X191664551Y-97791065D01*
X191683715Y-98022356D01*
X191683717Y-98022367D01*
X191740693Y-98247359D01*
X191833926Y-98459907D01*
X191960867Y-98654206D01*
X191960870Y-98654210D01*
X191960872Y-98654212D01*
X192118067Y-98824972D01*
X192168925Y-98864556D01*
X192280798Y-98951631D01*
X192321610Y-99008341D01*
X192325285Y-99078114D01*
X192290653Y-99138797D01*
X192271177Y-99154117D01*
X192201190Y-99198625D01*
X192201187Y-99198628D01*
X192106424Y-99306944D01*
X192106424Y-99306945D01*
X192106423Y-99306946D01*
X192106423Y-99306947D01*
X192093156Y-99335634D01*
X192046011Y-99437579D01*
X192024852Y-99579938D01*
X192030977Y-99639576D01*
X192030977Y-99639577D01*
X192314370Y-100972830D01*
X192364554Y-101208930D01*
X192364722Y-101209718D01*
X192359406Y-101279385D01*
X192317269Y-101335119D01*
X192251689Y-101359224D01*
X192243432Y-101359499D01*
X191966350Y-101359499D01*
X191962294Y-101359366D01*
X191896031Y-101355024D01*
X191830422Y-101330997D01*
X191788218Y-101275314D01*
X191782852Y-101257080D01*
X191652789Y-100645180D01*
X191634127Y-100588204D01*
X191556895Y-100466760D01*
X191505865Y-100422116D01*
X191448577Y-100371996D01*
X191448571Y-100371992D01*
X191317946Y-100311584D01*
X191175583Y-100290424D01*
X191115950Y-100296549D01*
X191115936Y-100296551D01*
X189555087Y-100628321D01*
X189555072Y-100628325D01*
X189498094Y-100646987D01*
X189376654Y-100724217D01*
X189281889Y-100832536D01*
X189221478Y-100963168D01*
X189200317Y-101105529D01*
X189206442Y-101165162D01*
X189206444Y-101165176D01*
X189413469Y-102139145D01*
X189428138Y-102183933D01*
X189432133Y-102196128D01*
X189509365Y-102317572D01*
X189539106Y-102343591D01*
X189617682Y-102412335D01*
X189617688Y-102412339D01*
X189687263Y-102444514D01*
X189748314Y-102472748D01*
X189890673Y-102493907D01*
X189950313Y-102487782D01*
X189950321Y-102487780D01*
X189950323Y-102487780D01*
X190130786Y-102449421D01*
X190709807Y-102326345D01*
X190779472Y-102331661D01*
X190789388Y-102335915D01*
X190905708Y-102391932D01*
X190957567Y-102438755D01*
X190975880Y-102506182D01*
X190954832Y-102572806D01*
X190901106Y-102617474D01*
X190893677Y-102620404D01*
X190525096Y-102752283D01*
X190525094Y-102752284D01*
X190525094Y-102752283D01*
X189884189Y-103017752D01*
X189884188Y-103017752D01*
X189447200Y-103224430D01*
X189257099Y-103314340D01*
X189257094Y-103314342D01*
X189257089Y-103314345D01*
X189109950Y-103392992D01*
X188645308Y-103641346D01*
X188645307Y-103641346D01*
X188324918Y-103833379D01*
X188050299Y-103997978D01*
X188050298Y-103997979D01*
X188050298Y-103997978D01*
X187507797Y-104360464D01*
X187473507Y-104383376D01*
X187166718Y-104610905D01*
X186916317Y-104796614D01*
X186916318Y-104796614D01*
X186736736Y-104943992D01*
X186380077Y-105236693D01*
X186237962Y-105365499D01*
X185866082Y-105702551D01*
X185720646Y-105847987D01*
X185620822Y-105947811D01*
X185572113Y-105996519D01*
X185572110Y-105996521D01*
X185405785Y-106162846D01*
X185402822Y-106165620D01*
X185254552Y-106295646D01*
X185248111Y-106300589D01*
X185085827Y-106409016D01*
X185078796Y-106413076D01*
X184903748Y-106499392D01*
X184896247Y-106502499D01*
X184771768Y-106544748D01*
X184701959Y-106547654D01*
X184641661Y-106512357D01*
X184610017Y-106450064D01*
X184617076Y-106380552D01*
X184639763Y-106344357D01*
X184688155Y-106290614D01*
X184870552Y-106039567D01*
X185025709Y-105770830D01*
X185151925Y-105487347D01*
X185247819Y-105192223D01*
X185312338Y-104888693D01*
X185344777Y-104580081D01*
X185344777Y-104505001D01*
X185344781Y-104504931D01*
X185344780Y-104500842D01*
X185344782Y-104500838D01*
X185344778Y-104426916D01*
X185344909Y-104422883D01*
X185359659Y-104197669D01*
X185360719Y-104189626D01*
X185362420Y-104181073D01*
X185404342Y-103970274D01*
X185406430Y-103962479D01*
X185478316Y-103750683D01*
X185481414Y-103743205D01*
X185580328Y-103542614D01*
X185584374Y-103535605D01*
X185649673Y-103437873D01*
X185703281Y-103393070D01*
X185726983Y-103385476D01*
X186718263Y-103174774D01*
X186775239Y-103156113D01*
X186896684Y-103078880D01*
X186991449Y-102970560D01*
X187051859Y-102839931D01*
X187073019Y-102697573D01*
X187070623Y-102674247D01*
X187067404Y-102642899D01*
X187066894Y-102637933D01*
X187062545Y-102617474D01*
X186916092Y-101928467D01*
X186859866Y-101663947D01*
X186841204Y-101606971D01*
X186763972Y-101485527D01*
X186704621Y-101433603D01*
X186655654Y-101390763D01*
X186655648Y-101390759D01*
X186525023Y-101330351D01*
X186382660Y-101309191D01*
X186323027Y-101315316D01*
X186323013Y-101315318D01*
X184762164Y-101647088D01*
X184762149Y-101647092D01*
X184705171Y-101665754D01*
X184583731Y-101742984D01*
X184488966Y-101851303D01*
X184428555Y-101981935D01*
X184407394Y-102124296D01*
X184413519Y-102183929D01*
X184413521Y-102183943D01*
X184538973Y-102774141D01*
X184533657Y-102843808D01*
X184522077Y-102866304D01*
X184522224Y-102866392D01*
X184520871Y-102868648D01*
X184520793Y-102868801D01*
X184520667Y-102868989D01*
X184520661Y-102868998D01*
X184380658Y-103130941D01*
X184267007Y-103405344D01*
X184180799Y-103689570D01*
X184180796Y-103689585D01*
X184122872Y-103980854D01*
X184122868Y-103980882D01*
X184093771Y-104276438D01*
X184093778Y-104417374D01*
X184093778Y-104422699D01*
X184093620Y-104427124D01*
X184077007Y-104659366D01*
X184074489Y-104676877D01*
X184026410Y-104897884D01*
X184021426Y-104914858D01*
X183942382Y-105126784D01*
X183935032Y-105142878D01*
X183935008Y-105142923D01*
X183826637Y-105341386D01*
X183817072Y-105356269D01*
X183681523Y-105537341D01*
X183669937Y-105550711D01*
X183510006Y-105710642D01*
X183496635Y-105722228D01*
X183315569Y-105857772D01*
X183300686Y-105867337D01*
X183102174Y-105975733D01*
X183086080Y-105983083D01*
X182874154Y-106062127D01*
X182857180Y-106067111D01*
X182724450Y-106095986D01*
X182654759Y-106091002D01*
X182598825Y-106049131D01*
X182574407Y-105983667D01*
X182574091Y-105974844D01*
X182574091Y-105245711D01*
X182573169Y-105236690D01*
X182563591Y-105142922D01*
X182563590Y-105142919D01*
X182540880Y-105074386D01*
X182508406Y-104976385D01*
X182416304Y-104827063D01*
X182292248Y-104703007D01*
X182142926Y-104610905D01*
X181976389Y-104555720D01*
X181976387Y-104555719D01*
X181873608Y-104545219D01*
X181873601Y-104545219D01*
X181104500Y-104545219D01*
X181037461Y-104525534D01*
X180991706Y-104472730D01*
X180980500Y-104421219D01*
X180980500Y-103946173D01*
X181000185Y-103879134D01*
X181052989Y-103833379D01*
X181122147Y-103823435D01*
X181185703Y-103852460D01*
X181222338Y-103907573D01*
X181240454Y-103962881D01*
X181317686Y-104084325D01*
X181426006Y-104179090D01*
X181556636Y-104239501D01*
X181698994Y-104260660D01*
X181758634Y-104254536D01*
X183612952Y-103860387D01*
X183669928Y-103841725D01*
X183791372Y-103764493D01*
X183886137Y-103656173D01*
X183946548Y-103525543D01*
X183967707Y-103383185D01*
X183961583Y-103323545D01*
X183567434Y-101469227D01*
X183548772Y-101412251D01*
X183471540Y-101290807D01*
X183363220Y-101196042D01*
X183232590Y-101135631D01*
X183232587Y-101135630D01*
X183232584Y-101135629D01*
X183148351Y-101123109D01*
X183084934Y-101093782D01*
X183047440Y-101034825D01*
X183047772Y-100964956D01*
X183062774Y-100932635D01*
X183067406Y-100925544D01*
X183102441Y-100871920D01*
X183195674Y-100659371D01*
X183252651Y-100434376D01*
X183253667Y-100422116D01*
X183271817Y-100203077D01*
X183271817Y-100203064D01*
X183252652Y-99971773D01*
X183252650Y-99971762D01*
X183195674Y-99746770D01*
X183102441Y-99534222D01*
X183062810Y-99473562D01*
X182975496Y-99339918D01*
X182964968Y-99328482D01*
X182934046Y-99265829D01*
X182941906Y-99196403D01*
X182986053Y-99142247D01*
X183052470Y-99120556D01*
X183056198Y-99120500D01*
X183089483Y-99120500D01*
X183092960Y-99120598D01*
X183205637Y-99126926D01*
X183314526Y-99133043D01*
X183321422Y-99133820D01*
X183529393Y-99169158D01*
X183538486Y-99170703D01*
X183545269Y-99172251D01*
X183716755Y-99221658D01*
X183775724Y-99259133D01*
X183803715Y-99315030D01*
X183934437Y-99930025D01*
X183948108Y-99971766D01*
X183953101Y-99987008D01*
X184030333Y-100108452D01*
X184078732Y-100150794D01*
X184138650Y-100203215D01*
X184138656Y-100203219D01*
X184208231Y-100235394D01*
X184269282Y-100263628D01*
X184411641Y-100284787D01*
X184471281Y-100278662D01*
X184471289Y-100278660D01*
X184471291Y-100278660D01*
X186032140Y-99946890D01*
X186032140Y-99946889D01*
X186032154Y-99946887D01*
X186089130Y-99928226D01*
X186210575Y-99850993D01*
X186305340Y-99742673D01*
X186365750Y-99612044D01*
X186386910Y-99469686D01*
X186385993Y-99460761D01*
X186380785Y-99410049D01*
X186380783Y-99410035D01*
X186344041Y-99237178D01*
X186349357Y-99167511D01*
X186377648Y-99123718D01*
X186832661Y-98668705D01*
X188676313Y-98668705D01*
X188727838Y-98911109D01*
X188746483Y-98968031D01*
X188823638Y-99089354D01*
X188931852Y-99184027D01*
X189062350Y-99244376D01*
X189204569Y-99265515D01*
X189264140Y-99259397D01*
X189264154Y-99259395D01*
X189799999Y-99145496D01*
X189654460Y-98460792D01*
X188676313Y-98668705D01*
X186832661Y-98668705D01*
X187144528Y-98356838D01*
X190143534Y-98356838D01*
X190289073Y-99041541D01*
X190824924Y-98927642D01*
X190881844Y-98908999D01*
X191003169Y-98831842D01*
X191097837Y-98723633D01*
X191097841Y-98723627D01*
X191158189Y-98593132D01*
X191179328Y-98450912D01*
X191173210Y-98391337D01*
X191121682Y-98148926D01*
X190143534Y-98356838D01*
X187144528Y-98356838D01*
X187664923Y-97836444D01*
X187670998Y-97831117D01*
X187706514Y-97803864D01*
X187734533Y-97787689D01*
X187764552Y-97775255D01*
X187795807Y-97766880D01*
X187832648Y-97762030D01*
X187840247Y-97761031D01*
X187848346Y-97760500D01*
X187923084Y-97760501D01*
X187923089Y-97760500D01*
X188390766Y-97760500D01*
X188457805Y-97780185D01*
X188503560Y-97832989D01*
X188514117Y-97871833D01*
X188520830Y-97937211D01*
X188520833Y-97937228D01*
X188572358Y-98179630D01*
X190039580Y-97867764D01*
X191017727Y-97659851D01*
X190966203Y-97417452D01*
X190966201Y-97417441D01*
X190947558Y-97360525D01*
X190947554Y-97360518D01*
X190941147Y-97350442D01*
X190921782Y-97283310D01*
X190941787Y-97216365D01*
X190994809Y-97170863D01*
X191045781Y-97159902D01*
X191627597Y-97159902D01*
X191694636Y-97179587D01*
G37*
%TD.AperFunction*%
%TA.AperFunction,Conductor*%
G36*
X160298059Y-94986377D02*
G01*
X160430332Y-95041165D01*
X160430336Y-95041166D01*
X160496778Y-95058968D01*
X160651984Y-95100553D01*
X160651985Y-95100553D01*
X160651987Y-95100554D01*
X160756374Y-95114295D01*
X160879490Y-95130502D01*
X160991156Y-95130500D01*
X160997237Y-95130799D01*
X161049348Y-95135931D01*
X161125668Y-95143449D01*
X161149496Y-95148189D01*
X161264222Y-95182993D01*
X161286671Y-95192292D01*
X161392400Y-95248807D01*
X161412605Y-95262309D01*
X161494443Y-95329475D01*
X161512519Y-95344310D01*
X161517029Y-95348397D01*
X161577562Y-95408932D01*
X161577581Y-95408948D01*
X162158314Y-95989681D01*
X162158324Y-95989692D01*
X162160650Y-95992018D01*
X162160651Y-95992019D01*
X162180101Y-96011469D01*
X162180120Y-96011503D01*
X162297547Y-96128927D01*
X162297551Y-96128931D01*
X162434085Y-96233694D01*
X162479604Y-96268621D01*
X162678331Y-96383353D01*
X162678342Y-96383357D01*
X162678343Y-96383358D01*
X162890332Y-96471165D01*
X162890340Y-96471167D01*
X163077203Y-96521234D01*
X163136865Y-96557598D01*
X163167395Y-96620444D01*
X163159101Y-96689820D01*
X163121280Y-96738858D01*
X163116769Y-96742368D01*
X163116768Y-96742370D01*
X163116765Y-96742372D01*
X163116765Y-96742373D01*
X162959570Y-96913133D01*
X162959568Y-96913135D01*
X162959568Y-96913136D01*
X162832624Y-97107437D01*
X162739391Y-97319985D01*
X162682415Y-97544977D01*
X162682413Y-97544988D01*
X162663249Y-97776279D01*
X162663249Y-97776292D01*
X162682413Y-98007583D01*
X162682415Y-98007594D01*
X162739391Y-98232586D01*
X162832624Y-98445134D01*
X162872292Y-98505851D01*
X162892480Y-98572741D01*
X162873299Y-98639926D01*
X162820840Y-98686076D01*
X162786714Y-98696324D01*
X162702481Y-98708844D01*
X162702476Y-98708845D01*
X162702476Y-98708846D01*
X162571846Y-98769257D01*
X162571844Y-98769258D01*
X162571843Y-98769258D01*
X162463528Y-98864020D01*
X162463526Y-98864022D01*
X162397701Y-98967529D01*
X162386291Y-98985471D01*
X162386291Y-98985472D01*
X162367633Y-99042430D01*
X162367628Y-99042452D01*
X161973485Y-100896756D01*
X161967358Y-100956396D01*
X161988517Y-101098755D01*
X161988517Y-101098756D01*
X161988518Y-101098758D01*
X162048929Y-101229388D01*
X162048930Y-101229389D01*
X162048930Y-101229390D01*
X162073147Y-101257070D01*
X162143694Y-101337708D01*
X162265138Y-101414940D01*
X162265141Y-101414941D01*
X162265143Y-101414942D01*
X162322102Y-101433600D01*
X162322108Y-101433601D01*
X162322113Y-101433603D01*
X164176432Y-101827749D01*
X164211564Y-101831357D01*
X164236068Y-101833875D01*
X164236069Y-101833874D01*
X164236072Y-101833875D01*
X164378430Y-101812716D01*
X164509060Y-101752305D01*
X164617380Y-101657540D01*
X164694612Y-101536096D01*
X164704226Y-101506743D01*
X164713272Y-101479131D01*
X164713272Y-101479128D01*
X164713275Y-101479121D01*
X164997714Y-100140937D01*
X172235374Y-100140937D01*
X172771220Y-100254836D01*
X172771234Y-100254838D01*
X172830805Y-100260957D01*
X172973024Y-100239817D01*
X173103522Y-100179468D01*
X173211736Y-100084795D01*
X173288891Y-99963472D01*
X173307534Y-99906557D01*
X173307536Y-99906546D01*
X173359060Y-99664146D01*
X172380913Y-99456233D01*
X172235374Y-100140937D01*
X164997714Y-100140937D01*
X165107421Y-99624802D01*
X165113547Y-99565162D01*
X165095888Y-99446353D01*
X170856046Y-99446353D01*
X170877185Y-99588573D01*
X170937533Y-99719068D01*
X170937537Y-99719074D01*
X171032205Y-99827283D01*
X171153530Y-99904440D01*
X171210450Y-99923083D01*
X171746300Y-100036982D01*
X171891839Y-99352279D01*
X170913690Y-99144367D01*
X170913690Y-99144368D01*
X170862166Y-99386770D01*
X170862164Y-99386785D01*
X170856046Y-99446353D01*
X165095888Y-99446353D01*
X165092388Y-99422804D01*
X165031977Y-99292174D01*
X165031975Y-99292171D01*
X164983329Y-99236568D01*
X164937212Y-99183854D01*
X164867220Y-99139342D01*
X164821216Y-99086759D01*
X164810943Y-99017649D01*
X164839665Y-98953956D01*
X164857602Y-98936857D01*
X164862993Y-98932661D01*
X165020333Y-98810199D01*
X165177528Y-98639439D01*
X165177980Y-98638748D01*
X165208133Y-98592595D01*
X165304473Y-98445135D01*
X165397706Y-98232586D01*
X165454683Y-98007591D01*
X165457330Y-97975651D01*
X165473849Y-97776292D01*
X165473849Y-97776280D01*
X165457066Y-97573739D01*
X165471147Y-97505303D01*
X165519992Y-97455344D01*
X165588093Y-97439723D01*
X165653829Y-97463400D01*
X165663915Y-97471621D01*
X165671503Y-97478498D01*
X165673707Y-97480597D01*
X166107438Y-97914328D01*
X166140923Y-97975651D01*
X166141047Y-98027790D01*
X166068745Y-98367948D01*
X166062618Y-98427589D01*
X166074251Y-98505851D01*
X166083779Y-98569951D01*
X166127292Y-98664042D01*
X166144190Y-98700582D01*
X166217196Y-98784030D01*
X166238954Y-98808900D01*
X166360399Y-98886133D01*
X166417373Y-98904795D01*
X167978248Y-99236568D01*
X168013380Y-99240176D01*
X168037884Y-99242694D01*
X168037885Y-99242693D01*
X168037888Y-99242694D01*
X168180247Y-99221535D01*
X168297065Y-99167511D01*
X168310872Y-99161126D01*
X168310872Y-99161125D01*
X168310876Y-99161124D01*
X168419196Y-99066359D01*
X168496428Y-98944915D01*
X168515091Y-98887940D01*
X168663812Y-98188261D01*
X168717872Y-97933927D01*
X168751064Y-97872445D01*
X168812227Y-97838669D01*
X168822973Y-97836769D01*
X168866559Y-97831030D01*
X168874659Y-97830500D01*
X168949480Y-97830500D01*
X169536911Y-97830500D01*
X169536916Y-97830501D01*
X169611731Y-97830500D01*
X169619829Y-97831030D01*
X169664187Y-97836870D01*
X169695449Y-97845245D01*
X169725465Y-97857678D01*
X169753498Y-97873862D01*
X169788698Y-97900871D01*
X169794793Y-97906217D01*
X169832651Y-97944070D01*
X169832651Y-97944071D01*
X169913785Y-98025197D01*
X170095841Y-98164880D01*
X170294573Y-98279605D01*
X170294578Y-98279607D01*
X170294582Y-98279609D01*
X170506579Y-98367410D01*
X170506585Y-98367412D01*
X170728219Y-98426788D01*
X170728223Y-98426788D01*
X170728232Y-98426791D01*
X170924017Y-98452558D01*
X170987915Y-98480822D01*
X171026388Y-98539145D01*
X171029128Y-98601278D01*
X171017647Y-98655292D01*
X172002149Y-98864555D01*
X172002151Y-98864556D01*
X173463015Y-99175071D01*
X173514543Y-98932661D01*
X173520661Y-98873086D01*
X173499522Y-98730866D01*
X173454160Y-98632777D01*
X173443886Y-98563667D01*
X173472608Y-98499973D01*
X173531205Y-98461919D01*
X173566707Y-98456728D01*
X173904099Y-98456728D01*
X173971138Y-98476413D01*
X173983882Y-98485804D01*
X174010836Y-98508458D01*
X174015112Y-98512409D01*
X174068435Y-98566530D01*
X174068440Y-98566534D01*
X174068444Y-98566538D01*
X174068447Y-98566540D01*
X174070592Y-98568303D01*
X174075063Y-98572359D01*
X174141403Y-98638698D01*
X174141407Y-98638701D01*
X174142630Y-98639924D01*
X174142861Y-98640143D01*
X174191619Y-98688903D01*
X174191623Y-98688906D01*
X174191625Y-98688908D01*
X174373672Y-98828600D01*
X174387572Y-98836625D01*
X174435788Y-98887192D01*
X174449012Y-98955798D01*
X174423045Y-99020664D01*
X174401735Y-99041866D01*
X174332580Y-99095691D01*
X174332577Y-99095694D01*
X174332574Y-99095696D01*
X174332574Y-99095697D01*
X174298196Y-99133042D01*
X174175374Y-99266462D01*
X174048433Y-99460761D01*
X173955200Y-99673309D01*
X173898224Y-99898301D01*
X173898222Y-99898312D01*
X173879058Y-100129603D01*
X173879058Y-100129611D01*
X173898222Y-100360907D01*
X173898224Y-100360918D01*
X173955200Y-100585910D01*
X174048433Y-100798458D01*
X174088101Y-100859175D01*
X174108289Y-100926065D01*
X174089108Y-100993250D01*
X174036649Y-101039400D01*
X174002523Y-101049648D01*
X173918290Y-101062168D01*
X173918285Y-101062169D01*
X173918285Y-101062170D01*
X173805190Y-101114472D01*
X173787653Y-101122582D01*
X173787652Y-101122582D01*
X173688054Y-101209718D01*
X173679335Y-101217346D01*
X173617031Y-101315317D01*
X173602100Y-101338795D01*
X173602100Y-101338796D01*
X173583442Y-101395754D01*
X173583437Y-101395776D01*
X173189294Y-103250080D01*
X173183167Y-103309720D01*
X173204326Y-103452079D01*
X173204326Y-103452080D01*
X173204327Y-103452082D01*
X173264738Y-103582712D01*
X173264739Y-103582713D01*
X173264739Y-103582714D01*
X173316434Y-103641802D01*
X173359503Y-103691032D01*
X173480947Y-103768264D01*
X173480950Y-103768265D01*
X173480952Y-103768266D01*
X173537911Y-103786924D01*
X173537917Y-103786925D01*
X173537922Y-103786927D01*
X175392241Y-104181073D01*
X175427373Y-104184681D01*
X175451877Y-104187199D01*
X175451878Y-104187198D01*
X175451881Y-104187199D01*
X175594239Y-104166040D01*
X175724869Y-104105629D01*
X175833189Y-104010864D01*
X175910421Y-103889420D01*
X175929084Y-103832445D01*
X176323230Y-101978126D01*
X176329356Y-101918486D01*
X176308197Y-101776128D01*
X176247786Y-101645498D01*
X176247784Y-101645495D01*
X176193678Y-101583651D01*
X176153021Y-101537178D01*
X176083029Y-101492666D01*
X176037025Y-101440083D01*
X176026752Y-101370973D01*
X176055474Y-101307280D01*
X176073411Y-101290181D01*
X176236142Y-101163523D01*
X176393337Y-100992763D01*
X176520282Y-100798459D01*
X176613515Y-100585910D01*
X176670492Y-100360915D01*
X176675826Y-100296550D01*
X176689658Y-100129611D01*
X176689658Y-100129603D01*
X176670493Y-99898312D01*
X176670491Y-99898301D01*
X176613515Y-99673309D01*
X176520282Y-99460761D01*
X176423302Y-99312321D01*
X176403115Y-99245432D01*
X176422295Y-99178246D01*
X176474753Y-99132096D01*
X176527111Y-99120500D01*
X180676836Y-99120500D01*
X180743875Y-99140185D01*
X180789630Y-99192989D01*
X180799574Y-99262147D01*
X180770549Y-99325703D01*
X180768065Y-99328483D01*
X180757536Y-99339920D01*
X180630592Y-99534223D01*
X180568794Y-99675104D01*
X180525679Y-99727342D01*
X180356135Y-99844369D01*
X180356132Y-99844371D01*
X180356130Y-99844373D01*
X180295258Y-99898301D01*
X180148402Y-100028402D01*
X180039975Y-100150793D01*
X179993668Y-100203064D01*
X179964367Y-100236138D01*
X179964363Y-100236142D01*
X179806731Y-100464515D01*
X179806724Y-100464527D01*
X179677758Y-100710257D01*
X179579347Y-100969759D01*
X179512941Y-101239203D01*
X179512938Y-101239220D01*
X179479496Y-101514704D01*
X179479500Y-101640620D01*
X179479500Y-104479862D01*
X179459815Y-104546901D01*
X179407011Y-104592656D01*
X179394506Y-104597567D01*
X179354260Y-104610903D01*
X179204934Y-104703008D01*
X179080881Y-104827061D01*
X178988779Y-104976382D01*
X178988777Y-104976387D01*
X178968669Y-105037071D01*
X178933593Y-105142922D01*
X178933593Y-105142923D01*
X178933592Y-105142923D01*
X178923092Y-105245702D01*
X178923092Y-105245710D01*
X178923092Y-105649798D01*
X178923093Y-106010500D01*
X178903409Y-106077539D01*
X178850605Y-106123294D01*
X178799093Y-106134500D01*
X175954334Y-106134500D01*
X175954318Y-106134499D01*
X175876157Y-106134499D01*
X175873115Y-106134424D01*
X175510407Y-106116608D01*
X175504349Y-106116012D01*
X175146659Y-106062957D01*
X175140695Y-106061771D01*
X174880186Y-105996519D01*
X174789916Y-105973908D01*
X174784090Y-105972141D01*
X174443611Y-105850317D01*
X174437987Y-105847987D01*
X174111100Y-105693385D01*
X174105731Y-105690515D01*
X173795561Y-105504609D01*
X173790499Y-105501226D01*
X173607490Y-105365499D01*
X173500049Y-105285816D01*
X173495354Y-105281963D01*
X173227417Y-105039122D01*
X173223112Y-105034817D01*
X172980258Y-104766871D01*
X172976396Y-104762165D01*
X172962715Y-104743718D01*
X172760981Y-104471714D01*
X172757609Y-104466667D01*
X172733178Y-104425907D01*
X172585242Y-104179090D01*
X172571703Y-104156502D01*
X172568833Y-104151133D01*
X172517221Y-104042010D01*
X172414218Y-103824232D01*
X172411897Y-103818629D01*
X172324775Y-103575143D01*
X172320724Y-103505394D01*
X172355027Y-103444524D01*
X172389477Y-103420824D01*
X172417690Y-103407778D01*
X172526010Y-103313013D01*
X172603242Y-103191569D01*
X172618480Y-103145050D01*
X172621902Y-103134604D01*
X172621902Y-103134601D01*
X172621905Y-103134594D01*
X172828931Y-102160608D01*
X172835057Y-102100967D01*
X172813897Y-101958609D01*
X172753487Y-101827980D01*
X172753485Y-101827978D01*
X172753485Y-101827977D01*
X172658722Y-101719660D01*
X172590526Y-101676291D01*
X172537277Y-101642427D01*
X172537274Y-101642426D01*
X172537275Y-101642426D01*
X172480301Y-101623764D01*
X172480290Y-101623762D01*
X170919431Y-101291992D01*
X170859791Y-101285865D01*
X170717428Y-101307025D01*
X170586803Y-101367433D01*
X170586797Y-101367437D01*
X170478482Y-101462199D01*
X170478480Y-101462201D01*
X170412980Y-101565197D01*
X170401245Y-101583650D01*
X170401245Y-101583651D01*
X170382587Y-101640609D01*
X170382582Y-101640631D01*
X170175559Y-102614602D01*
X170169432Y-102674243D01*
X170172900Y-102697573D01*
X170190593Y-102816605D01*
X170251003Y-102947234D01*
X170251004Y-102947236D01*
X170298686Y-103001738D01*
X170345768Y-103055554D01*
X170467213Y-103132787D01*
X170524187Y-103151449D01*
X170867542Y-103224431D01*
X170929023Y-103257622D01*
X170962799Y-103318785D01*
X170964069Y-103325309D01*
X170978892Y-103414136D01*
X170978892Y-103414137D01*
X171080387Y-103814925D01*
X171214624Y-104205939D01*
X171214626Y-104205944D01*
X171282405Y-104360464D01*
X171380703Y-104584561D01*
X171577469Y-104948147D01*
X171577473Y-104948154D01*
X171803600Y-105294264D01*
X171871904Y-105382020D01*
X172057532Y-105620514D01*
X172198507Y-105773651D01*
X172337547Y-105924687D01*
X172641717Y-106204693D01*
X172641716Y-106204693D01*
X172641719Y-106204695D01*
X172747961Y-106287386D01*
X172788775Y-106344095D01*
X172792450Y-106413868D01*
X172757819Y-106474551D01*
X172695878Y-106506879D01*
X172647617Y-106506858D01*
X172640513Y-106505445D01*
X172633997Y-106504149D01*
X172629280Y-106503017D01*
X172221434Y-106387990D01*
X172216804Y-106386486D01*
X171819254Y-106239817D01*
X171814762Y-106237957D01*
X171590190Y-106134424D01*
X171429933Y-106060541D01*
X171425594Y-106058330D01*
X171055874Y-105851270D01*
X171051722Y-105848725D01*
X170699390Y-105613293D01*
X170695457Y-105610435D01*
X170362687Y-105348088D01*
X170358992Y-105344932D01*
X170304559Y-105294612D01*
X170241904Y-105236690D01*
X170046361Y-105055921D01*
X170046050Y-105055610D01*
X169992347Y-105001904D01*
X169992344Y-105001902D01*
X169989709Y-104999267D01*
X169989450Y-104999036D01*
X169934417Y-104944003D01*
X169934416Y-104944002D01*
X169934411Y-104943997D01*
X169690374Y-104743718D01*
X169690370Y-104743715D01*
X169690366Y-104743712D01*
X169427892Y-104568328D01*
X169427877Y-104568320D01*
X169149465Y-104419502D01*
X169149463Y-104419501D01*
X169149461Y-104419500D01*
X169006939Y-104360464D01*
X168857786Y-104298681D01*
X168555694Y-104207041D01*
X168246066Y-104145448D01*
X168246058Y-104145447D01*
X168164403Y-104137404D01*
X167931878Y-104114500D01*
X167931875Y-104114499D01*
X167931865Y-104114499D01*
X167853043Y-104114499D01*
X167853042Y-104114499D01*
X167779423Y-104114499D01*
X167774029Y-104114499D01*
X167698079Y-104114498D01*
X167698078Y-104114498D01*
X167695055Y-104114498D01*
X167695036Y-104114499D01*
X167349527Y-104114499D01*
X167282488Y-104094814D01*
X167236733Y-104042010D01*
X167226789Y-103972852D01*
X167236732Y-103938990D01*
X167242476Y-103926410D01*
X167242476Y-103926408D01*
X167242479Y-103926403D01*
X167303834Y-103717431D01*
X167307488Y-103692017D01*
X167318895Y-103612666D01*
X167334825Y-103501854D01*
X167334822Y-103392958D01*
X167334822Y-103379706D01*
X167334822Y-102580033D01*
X167354507Y-102512994D01*
X167407311Y-102467239D01*
X167440589Y-102457380D01*
X167494138Y-102449422D01*
X167624767Y-102389011D01*
X167733087Y-102294246D01*
X167810319Y-102172802D01*
X167828982Y-102115827D01*
X168036008Y-101141841D01*
X168042134Y-101082200D01*
X168020974Y-100939842D01*
X167960564Y-100809213D01*
X167960562Y-100809211D01*
X167960562Y-100809210D01*
X167865799Y-100700893D01*
X167744354Y-100623660D01*
X167744351Y-100623659D01*
X167744352Y-100623659D01*
X167687378Y-100604997D01*
X167687367Y-100604995D01*
X166126508Y-100273225D01*
X166066868Y-100267098D01*
X165924505Y-100288258D01*
X165793880Y-100348666D01*
X165793874Y-100348670D01*
X165695907Y-100434379D01*
X165685557Y-100443434D01*
X165650467Y-100498612D01*
X165608322Y-100564883D01*
X165608322Y-100564884D01*
X165589664Y-100621842D01*
X165589659Y-100621864D01*
X165382636Y-101595835D01*
X165376509Y-101655476D01*
X165389517Y-101742986D01*
X165397670Y-101797838D01*
X165422395Y-101851303D01*
X165458081Y-101928469D01*
X165552844Y-102036786D01*
X165552845Y-102036787D01*
X165674290Y-102114020D01*
X165731264Y-102132682D01*
X165972364Y-102183929D01*
X165985603Y-102186743D01*
X166047085Y-102219935D01*
X166080861Y-102281098D01*
X166083822Y-102308033D01*
X166083822Y-103313493D01*
X166083820Y-103313530D01*
X166083821Y-103383232D01*
X166082295Y-103402628D01*
X166073606Y-103457500D01*
X166061617Y-103494400D01*
X166040881Y-103535097D01*
X166018077Y-103566484D01*
X165985784Y-103598777D01*
X165954399Y-103621580D01*
X165913703Y-103642316D01*
X165876799Y-103654306D01*
X165825086Y-103662494D01*
X165799613Y-103663871D01*
X165513181Y-103649806D01*
X165507122Y-103649210D01*
X165213941Y-103605726D01*
X165207970Y-103604538D01*
X164920461Y-103532526D01*
X164914635Y-103530759D01*
X164755748Y-103473911D01*
X164635553Y-103430906D01*
X164629947Y-103428584D01*
X164362004Y-103301861D01*
X164356638Y-103298993D01*
X164102403Y-103146614D01*
X164097347Y-103143236D01*
X163859273Y-102966671D01*
X163854578Y-102962818D01*
X163723269Y-102843808D01*
X163634072Y-102762965D01*
X163631867Y-102760866D01*
X163623284Y-102752283D01*
X163513900Y-102642899D01*
X163513895Y-102642895D01*
X163513896Y-102642895D01*
X163365751Y-102518586D01*
X163256460Y-102426879D01*
X163256454Y-102426874D01*
X162981175Y-102234121D01*
X162981176Y-102234121D01*
X162935275Y-102207620D01*
X162690129Y-102066085D01*
X162690127Y-102066084D01*
X162385546Y-101924056D01*
X162385547Y-101924056D01*
X162069752Y-101809118D01*
X161857715Y-101752305D01*
X161745135Y-101722140D01*
X161414174Y-101663785D01*
X161079386Y-101634499D01*
X160911354Y-101634499D01*
X160475143Y-101617365D01*
X160470288Y-101616983D01*
X160039152Y-101565958D01*
X160034356Y-101565199D01*
X159649147Y-101488578D01*
X159608581Y-101480509D01*
X159603846Y-101479373D01*
X159186008Y-101361533D01*
X159181380Y-101360029D01*
X158853863Y-101239203D01*
X158774092Y-101209774D01*
X158769593Y-101207910D01*
X158375336Y-101026156D01*
X158370997Y-101023945D01*
X158220820Y-100939842D01*
X157992218Y-100811818D01*
X157988088Y-100809287D01*
X157627124Y-100568097D01*
X157623194Y-100565242D01*
X157282251Y-100296463D01*
X157278555Y-100293306D01*
X157275438Y-100290425D01*
X157113726Y-100140937D01*
X156957607Y-99996620D01*
X156901946Y-99940958D01*
X156901923Y-99940937D01*
X156471710Y-99510723D01*
X156471696Y-99510708D01*
X156207683Y-99225101D01*
X156204537Y-99221417D01*
X155965250Y-98917884D01*
X155962390Y-98913946D01*
X155747670Y-98592595D01*
X155745125Y-98588442D01*
X155556271Y-98251217D01*
X155554060Y-98246877D01*
X155549578Y-98237155D01*
X155539389Y-98168032D01*
X155568188Y-98104374D01*
X155626832Y-98066391D01*
X155696701Y-98066143D01*
X155733309Y-98083666D01*
X156050739Y-98305933D01*
X157266324Y-99157095D01*
X157266327Y-99157096D01*
X157266334Y-99157101D01*
X157318840Y-99186043D01*
X157448671Y-99219729D01*
X157455624Y-99221534D01*
X157458149Y-99222189D01*
X157601999Y-99217622D01*
X157738735Y-99172714D01*
X157857280Y-99091102D01*
X157896721Y-99045948D01*
X158355084Y-98391337D01*
X158984069Y-97493053D01*
X158984069Y-97493051D01*
X158984075Y-97493044D01*
X159013017Y-97440538D01*
X159049163Y-97301229D01*
X159044596Y-97157379D01*
X158999688Y-97020643D01*
X158951587Y-96950775D01*
X158929787Y-96884398D01*
X158947335Y-96816767D01*
X158998660Y-96769360D01*
X159033316Y-96758154D01*
X159095041Y-96747854D01*
X159314563Y-96672492D01*
X159518686Y-96562026D01*
X159520646Y-96560501D01*
X159635422Y-96471167D01*
X159701844Y-96419469D01*
X159859039Y-96248709D01*
X159869713Y-96232372D01*
X159924023Y-96149243D01*
X159985984Y-96054405D01*
X160079217Y-95841856D01*
X160136194Y-95616861D01*
X160138717Y-95586413D01*
X160155360Y-95385562D01*
X160155360Y-95385549D01*
X160136195Y-95154258D01*
X160136194Y-95154254D01*
X160136194Y-95154251D01*
X160130402Y-95131379D01*
X160133025Y-95061562D01*
X160172979Y-95004243D01*
X160237580Y-94977624D01*
X160298059Y-94986377D01*
G37*
%TD.AperFunction*%
%TA.AperFunction,Conductor*%
G36*
X196994516Y-95744877D02*
G01*
X197052377Y-95784041D01*
X197076961Y-95832547D01*
X197116362Y-95988133D01*
X197116362Y-95988134D01*
X197209596Y-96200686D01*
X197336537Y-96394985D01*
X197336540Y-96394989D01*
X197336542Y-96394991D01*
X197493737Y-96565751D01*
X197493740Y-96565753D01*
X197493743Y-96565756D01*
X197676886Y-96708302D01*
X197676892Y-96708306D01*
X197676895Y-96708308D01*
X197881018Y-96818774D01*
X197995008Y-96857906D01*
X198100536Y-96894135D01*
X198100538Y-96894135D01*
X198100540Y-96894136D01*
X198162265Y-96904436D01*
X198225150Y-96934886D01*
X198261589Y-96994501D01*
X198260014Y-97064353D01*
X198243991Y-97097060D01*
X198195891Y-97166926D01*
X198150985Y-97303658D01*
X198150153Y-97329873D01*
X198146640Y-97440535D01*
X198146418Y-97447514D01*
X198182562Y-97586814D01*
X198182564Y-97586820D01*
X198211505Y-97639326D01*
X199279636Y-99164774D01*
X199301963Y-99230981D01*
X199284953Y-99298748D01*
X199265742Y-99323579D01*
X198459712Y-100129611D01*
X198438528Y-100150794D01*
X198175098Y-100392177D01*
X198170953Y-100395655D01*
X197889630Y-100611519D01*
X197885197Y-100614622D01*
X197586139Y-100805140D01*
X197581453Y-100807845D01*
X197266913Y-100971582D01*
X197262008Y-100973869D01*
X196934415Y-101109559D01*
X196929330Y-101111410D01*
X196591146Y-101218037D01*
X196585920Y-101219437D01*
X196239723Y-101296185D01*
X196234394Y-101297125D01*
X195882840Y-101343406D01*
X195877449Y-101343878D01*
X195519744Y-101359494D01*
X195230096Y-101359494D01*
X195163057Y-101339809D01*
X195117302Y-101287005D01*
X195107358Y-101217847D01*
X195117547Y-101183450D01*
X195149882Y-101113531D01*
X195171041Y-100971173D01*
X195164917Y-100911533D01*
X194770768Y-99057215D01*
X194752106Y-99000239D01*
X194674874Y-98878795D01*
X194566554Y-98784030D01*
X194435924Y-98723619D01*
X194435921Y-98723618D01*
X194435918Y-98723617D01*
X194351685Y-98711097D01*
X194288268Y-98681770D01*
X194250774Y-98622813D01*
X194251106Y-98552944D01*
X194266108Y-98520623D01*
X194292111Y-98480822D01*
X194305775Y-98459908D01*
X194399008Y-98247359D01*
X194455985Y-98022364D01*
X194455986Y-98022356D01*
X194475151Y-97791065D01*
X194475151Y-97791052D01*
X194455986Y-97559761D01*
X194455984Y-97559750D01*
X194399008Y-97334758D01*
X194305775Y-97122210D01*
X194178834Y-96927911D01*
X194178831Y-96927908D01*
X194178830Y-96927906D01*
X194021635Y-96757146D01*
X194021630Y-96757142D01*
X194021628Y-96757140D01*
X193838485Y-96614594D01*
X193838479Y-96614590D01*
X193646210Y-96510539D01*
X193596620Y-96461319D01*
X193581512Y-96393102D01*
X193605683Y-96327547D01*
X193617535Y-96313814D01*
X193802412Y-96128931D01*
X193807703Y-96123639D01*
X193811239Y-96120370D01*
X193924795Y-96023381D01*
X193940517Y-96011958D01*
X194061576Y-95937772D01*
X194078901Y-95928944D01*
X194210078Y-95874607D01*
X194228574Y-95868598D01*
X194366625Y-95835454D01*
X194385838Y-95832411D01*
X194534764Y-95820690D01*
X194539628Y-95820500D01*
X196451230Y-95820500D01*
X196451512Y-95820491D01*
X196520477Y-95820494D01*
X196747988Y-95790548D01*
X196924667Y-95743212D01*
X196994516Y-95744877D01*
G37*
%TD.AperFunction*%
%TA.AperFunction,Conductor*%
G36*
X202012450Y-93832324D02*
G01*
X202066647Y-93843105D01*
X202074465Y-93845200D01*
X202288515Y-93917862D01*
X202297205Y-93920812D01*
X202304705Y-93923918D01*
X202515670Y-94027956D01*
X202522688Y-94032009D01*
X202718266Y-94162691D01*
X202724702Y-94167631D01*
X202771974Y-94209087D01*
X202897883Y-94319507D01*
X202901543Y-94322716D01*
X202907282Y-94328455D01*
X202929675Y-94353989D01*
X203062369Y-94505298D01*
X203067310Y-94511736D01*
X203082499Y-94534468D01*
X203121422Y-94592720D01*
X203142300Y-94659397D01*
X203123816Y-94726778D01*
X203071837Y-94773468D01*
X203049468Y-94781635D01*
X203034859Y-94785426D01*
X203034855Y-94785427D01*
X203034853Y-94785428D01*
X203034850Y-94785429D01*
X203034849Y-94785430D01*
X202982355Y-94814364D01*
X202982348Y-94814368D01*
X201675190Y-95729651D01*
X201630033Y-95769093D01*
X201548423Y-95887634D01*
X201548420Y-95887639D01*
X201503514Y-96024370D01*
X201498947Y-96168226D01*
X201535091Y-96307526D01*
X201535093Y-96307532D01*
X201564034Y-96360038D01*
X201764800Y-96646761D01*
X201778329Y-96666082D01*
X201800656Y-96732289D01*
X201783646Y-96800056D01*
X201764435Y-96824887D01*
X201454970Y-97134352D01*
X201393647Y-97167837D01*
X201323955Y-97162853D01*
X201268022Y-97120981D01*
X201265714Y-97117794D01*
X200505956Y-96032747D01*
X200505950Y-96032739D01*
X200466509Y-95987584D01*
X200347964Y-95905972D01*
X200347963Y-95905971D01*
X200347961Y-95905970D01*
X200211228Y-95861064D01*
X200211231Y-95861064D01*
X200103340Y-95857638D01*
X200067378Y-95856497D01*
X200067377Y-95856497D01*
X200049776Y-95861064D01*
X199987718Y-95877165D01*
X199917885Y-95874949D01*
X199860335Y-95835329D01*
X199833341Y-95770884D01*
X199833001Y-95746900D01*
X199850821Y-95531843D01*
X199850821Y-95531831D01*
X199831656Y-95300540D01*
X199831654Y-95300529D01*
X199774678Y-95075537D01*
X199681445Y-94862989D01*
X199554504Y-94668690D01*
X199554501Y-94668687D01*
X199554500Y-94668685D01*
X199397305Y-94497925D01*
X199374883Y-94480473D01*
X199334070Y-94423762D01*
X199330397Y-94353989D01*
X199365028Y-94293306D01*
X199413752Y-94264361D01*
X199492779Y-94239443D01*
X199497963Y-94238054D01*
X199844544Y-94161214D01*
X199849819Y-94160284D01*
X199934468Y-94149139D01*
X200003502Y-94159904D01*
X200052227Y-94200953D01*
X200242368Y-94472502D01*
X200281808Y-94517657D01*
X200400353Y-94599270D01*
X200537090Y-94644177D01*
X200680939Y-94648744D01*
X200820248Y-94612598D01*
X200872754Y-94583657D01*
X201917144Y-93852365D01*
X201983347Y-93830040D01*
X202012450Y-93832324D01*
G37*
%TD.AperFunction*%
%TD*%
M02*
