%TF.GenerationSoftware,KiCad,Pcbnew,7.0.9*%
%TF.CreationDate,2024-12-16T14:33:08+09:00*%
%TF.ProjectId,Main maicon,4d61696e-206d-4616-9963-6f6e2e6b6963,rev?*%
%TF.SameCoordinates,Original*%
%TF.FileFunction,Soldermask,Bot*%
%TF.FilePolarity,Negative*%
%FSLAX46Y46*%
G04 Gerber Fmt 4.6, Leading zero omitted, Abs format (unit mm)*
G04 Created by KiCad (PCBNEW 7.0.9) date 2024-12-16 14:33:08*
%MOMM*%
%LPD*%
G01*
G04 APERTURE LIST*
G04 Aperture macros list*
%AMRoundRect*
0 Rectangle with rounded corners*
0 $1 Rounding radius*
0 $2 $3 $4 $5 $6 $7 $8 $9 X,Y pos of 4 corners*
0 Add a 4 corners polygon primitive as box body*
4,1,4,$2,$3,$4,$5,$6,$7,$8,$9,$2,$3,0*
0 Add four circle primitives for the rounded corners*
1,1,$1+$1,$2,$3*
1,1,$1+$1,$4,$5*
1,1,$1+$1,$6,$7*
1,1,$1+$1,$8,$9*
0 Add four rect primitives between the rounded corners*
20,1,$1+$1,$2,$3,$4,$5,0*
20,1,$1+$1,$4,$5,$6,$7,0*
20,1,$1+$1,$6,$7,$8,$9,0*
20,1,$1+$1,$8,$9,$2,$3,0*%
%AMHorizOval*
0 Thick line with rounded ends*
0 $1 width*
0 $2 $3 position (X,Y) of the first rounded end (center of the circle)*
0 $4 $5 position (X,Y) of the second rounded end (center of the circle)*
0 Add line between two ends*
20,1,$1,$2,$3,$4,$5,0*
0 Add two circle primitives to create the rounded ends*
1,1,$1,$2,$3*
1,1,$1,$4,$5*%
G04 Aperture macros list end*
%ADD10RoundRect,0.250000X-0.600000X-0.725000X0.600000X-0.725000X0.600000X0.725000X-0.600000X0.725000X0*%
%ADD11O,1.700000X1.950000*%
%ADD12RoundRect,0.250000X0.088388X-0.936916X0.936916X-0.088388X-0.088388X0.936916X-0.936916X0.088388X0*%
%ADD13HorizOval,1.700000X-0.088388X0.088388X0.088388X-0.088388X0*%
%ADD14RoundRect,0.250000X-0.936916X-0.088388X-0.088388X-0.936916X0.936916X0.088388X0.088388X0.936916X0*%
%ADD15HorizOval,1.700000X-0.088388X-0.088388X0.088388X0.088388X0*%
%ADD16R,1.700000X1.700000*%
%ADD17O,1.700000X1.700000*%
%ADD18C,1.400000*%
%ADD19O,1.400000X1.400000*%
%ADD20C,1.700000*%
%ADD21R,1.800000X1.800000*%
%ADD22C,1.800000*%
%ADD23RoundRect,0.250000X0.106066X-0.954594X0.954594X-0.106066X-0.106066X0.954594X-0.954594X0.106066X0*%
%ADD24HorizOval,1.700000X-0.106066X0.106066X0.106066X-0.106066X0*%
%ADD25C,1.524000*%
%ADD26C,3.200000*%
%ADD27C,1.600000*%
%ADD28RoundRect,0.250000X-0.600000X-0.600000X0.600000X-0.600000X0.600000X0.600000X-0.600000X0.600000X0*%
%ADD29C,2.000000*%
G04 APERTURE END LIST*
D10*
%TO.C,J5*%
X84790000Y-113495000D03*
D11*
X87290000Y-113495000D03*
X89790000Y-113495000D03*
%TD*%
D12*
%TO.C,J7*%
X103694466Y-117255534D03*
D13*
X105462233Y-115487767D03*
X107230000Y-113720000D03*
%TD*%
D14*
%TO.C,J2*%
X99834466Y-50864466D03*
D15*
X101602233Y-52632233D03*
X103370000Y-54400000D03*
X105137767Y-56167767D03*
%TD*%
D16*
%TO.C,SW2*%
X72960000Y-106940000D03*
D17*
X75500000Y-106940000D03*
X78040000Y-106940000D03*
%TD*%
D18*
%TO.C,R2*%
X78530000Y-76320000D03*
D19*
X78530000Y-71240000D03*
%TD*%
D20*
%TO.C,L3GD20H1*%
X71780000Y-78770000D03*
X74320000Y-78770000D03*
X76860000Y-78770000D03*
X79400000Y-78770000D03*
X81940000Y-78770000D03*
X84480000Y-78770000D03*
X87020000Y-78770000D03*
X89560000Y-78770000D03*
X92100000Y-78770000D03*
%TD*%
D21*
%TO.C,D1*%
X96270000Y-106515000D03*
D22*
X96270000Y-109055000D03*
%TD*%
D14*
%TO.C,J9*%
X104152233Y-65572233D03*
D15*
X105920000Y-67340000D03*
X107687767Y-69107767D03*
X109455534Y-70875534D03*
%TD*%
D23*
%TO.C,J1*%
X97872233Y-123407767D03*
D24*
X99640000Y-121640000D03*
%TD*%
D18*
%TO.C,R3*%
X81030000Y-71330000D03*
D19*
X81030000Y-76410000D03*
%TD*%
D25*
%TO.C,BNO1*%
X86280000Y-69150000D03*
X83740000Y-69150000D03*
X81200000Y-69150000D03*
X78660000Y-69150000D03*
X76120000Y-69150000D03*
X73580000Y-69150000D03*
X71040000Y-69150000D03*
X68500000Y-69150000D03*
%TD*%
D26*
%TO.C,REF\u002A\u002A*%
X126050000Y-67160000D03*
%TD*%
D25*
%TO.C,Back*%
X84040000Y-58520000D03*
X86580000Y-55980000D03*
X89120000Y-58520000D03*
%TD*%
D27*
%TO.C,C1*%
X97500000Y-77840000D03*
X100000000Y-77840000D03*
%TD*%
D12*
%TO.C,J6*%
X111418932Y-109451068D03*
D13*
X113186699Y-107683301D03*
X114954466Y-105915534D03*
X116722233Y-104147767D03*
X118490000Y-102380000D03*
%TD*%
D18*
%TO.C,R1*%
X92330000Y-109515000D03*
D19*
X87250000Y-109515000D03*
%TD*%
D14*
%TO.C,J3*%
X94470000Y-56020000D03*
D15*
X96237767Y-57787767D03*
X98005534Y-59555534D03*
X99773301Y-61323301D03*
%TD*%
D16*
%TO.C,SW3*%
X72880000Y-114520000D03*
D17*
X75420000Y-114520000D03*
X77960000Y-114520000D03*
%TD*%
D20*
%TO.C,U2*%
X69310000Y-81220000D03*
X71850000Y-81220000D03*
X74390000Y-81220000D03*
X76930000Y-81220000D03*
X79470000Y-81220000D03*
X82010000Y-81220000D03*
X84550000Y-81220000D03*
X84550000Y-65980000D03*
X82010000Y-65980000D03*
X79470000Y-65980000D03*
X76930000Y-65980000D03*
X74390000Y-65980000D03*
X71850000Y-65980000D03*
X69310000Y-65980000D03*
%TD*%
D25*
%TO.C,RV1*%
X76910000Y-58560000D03*
X79450000Y-56020000D03*
X81990000Y-58560000D03*
%TD*%
D26*
%TO.C,REF\u002A\u002A*%
X77550000Y-125560000D03*
%TD*%
%TO.C,REF\u002A\u002A*%
X126020000Y-106620000D03*
%TD*%
D27*
%TO.C,U1*%
X67320000Y-100630000D03*
X69860000Y-100630000D03*
X72400000Y-100630000D03*
X74940000Y-100630000D03*
X77480000Y-100630000D03*
X80020000Y-100630000D03*
X82560000Y-100630000D03*
X85100000Y-100630000D03*
X87640000Y-100630000D03*
X90180000Y-100630000D03*
X92720000Y-100630000D03*
X95260000Y-100630000D03*
X97800000Y-100630000D03*
X100340000Y-100630000D03*
X100340000Y-85390000D03*
X97800000Y-85390000D03*
X95260000Y-85390000D03*
X92720000Y-85390000D03*
X90180000Y-85390000D03*
X87640000Y-85390000D03*
X85100000Y-85390000D03*
X82560000Y-85390000D03*
X80020000Y-85390000D03*
X77480000Y-85390000D03*
X74940000Y-85390000D03*
X72400000Y-85390000D03*
X69860000Y-85390000D03*
X67320000Y-85390000D03*
%TD*%
D16*
%TO.C,SW1*%
X84800000Y-106595000D03*
D17*
X87340000Y-106595000D03*
X89880000Y-106595000D03*
%TD*%
D28*
%TO.C,J8*%
X117147500Y-77260000D03*
D20*
X119687500Y-77260000D03*
X117147500Y-79800000D03*
X119687500Y-79800000D03*
X117147500Y-82340000D03*
X119687500Y-82340000D03*
X117147500Y-84880000D03*
X119687500Y-84880000D03*
X117147500Y-87420000D03*
X119687500Y-87420000D03*
X117147500Y-89960000D03*
X119687500Y-89960000D03*
X117147500Y-92500000D03*
X119687500Y-92500000D03*
%TD*%
D29*
%TO.C,SW4*%
X109260000Y-83480000D03*
X109260000Y-89980000D03*
X104760000Y-83480000D03*
X104760000Y-89980000D03*
%TD*%
D14*
%TO.C,J4*%
X109424466Y-60444466D03*
D15*
X111192233Y-62212233D03*
X112960000Y-63980000D03*
X114727767Y-65747767D03*
%TD*%
D26*
%TO.C,REF\u002A\u002A*%
X77600000Y-48080000D03*
%TD*%
D25*
%TO.C,RV2*%
X69790000Y-58570000D03*
X72330000Y-56030000D03*
X74870000Y-58570000D03*
%TD*%
D27*
%TO.C,C2*%
X97380000Y-70790000D03*
X99880000Y-70790000D03*
%TD*%
M02*
