M48
; DRILL file {KiCad 7.0.9} date Mon Dec 16 14:33:27 2024
; FORMAT={-:-/ absolute / metric / decimal}
; #@! TF.CreationDate,2024-12-16T14:33:27+09:00
; #@! TF.GenerationSoftware,Kicad,Pcbnew,7.0.9
; #@! TF.FileFunction,Plated,1,2,PTH
FMAT,2
METRIC
; #@! TA.AperFunction,Plated,PTH,ViaDrill
T1C0.400
; #@! TA.AperFunction,Plated,PTH,ComponentDrill
T2C0.700
; #@! TA.AperFunction,Plated,PTH,ComponentDrill
T3C0.762
; #@! TA.AperFunction,Plated,PTH,ComponentDrill
T4C0.800
; #@! TA.AperFunction,Plated,PTH,ComponentDrill
T5C0.900
; #@! TA.AperFunction,Plated,PTH,ComponentDrill
T6C0.950
; #@! TA.AperFunction,Plated,PTH,ComponentDrill
T7C1.000
; #@! TA.AperFunction,Plated,PTH,ComponentDrill
T8C1.100
%
G90
G05
T1
X65.55Y-88.55
X69.45Y-98.125
X70.03Y-87.91
X70.275Y-107.95
X70.61Y-63.15
X71.475Y-119.6
X71.93Y-88.76
X72.2Y-90.225
X72.75Y-73.19
X74.225Y-91.725
X74.29Y-109.78
X75.1Y-62.55
X75.85Y-71.85
X75.99Y-87.76
X76.29Y-90.26
X77.925Y-63.175
X78.32Y-57.39
X79.8Y-73.925
X80.03Y-91.88
X80.225Y-104.55
X81.15Y-62.625
X82.03Y-91.8
X82.95Y-55.3
X83.75Y-70.9
X83.75Y-119.1
X84.25Y-98.59
X85.3Y-87.73
X86.03Y-90.76
X86.284Y-75.997
X88.14Y-92.34
X88.325Y-95.9
X89.84Y-60.78
X91.33Y-88.56
X91.4Y-52.73
X91.975Y-74.5
X92.075Y-103.124
X92.075Y-120.475
X92.225Y-63.925
X93.05Y-68.35
X93.85Y-97.325
X94.25Y-114.05
X94.6Y-80.76
X95.73Y-59.99
X98.69Y-72.18
X98.933Y-109.982
X99.0Y-52.79
X99.187Y-103.378
X101.48Y-54.67
X102.58Y-91.43
X102.86Y-104.66
X103.1Y-78.9
X103.56Y-57.47
X105.19Y-98.0
X105.5Y-95.83
X105.537Y-109.347
X105.93Y-104.59
X105.98Y-77.5
X106.34Y-70.67
X107.01Y-82.78
X107.01Y-97.97
X107.67Y-103.99
X108.12Y-98.12
X108.331Y-109.601
X110.3Y-104.55
X110.97Y-97.41
X111.02Y-100.0
X111.25Y-96.034
X112.16Y-93.79
X112.66Y-82.84
X112.7Y-85.75
X112.81Y-80.66
X113.055Y-103.403
X113.11Y-101.44
X113.24Y-99.62
X115.49Y-90.0
X117.729Y-95.631
X122.93Y-95.03
T2
X78.53Y-71.24
X78.53Y-76.32
X81.03Y-71.33
X81.03Y-76.41
X87.25Y-109.515
X92.33Y-109.515
T3
X68.5Y-69.15
X69.79Y-58.57
X71.04Y-69.15
X72.33Y-56.03
X73.58Y-69.15
X74.87Y-58.57
X76.12Y-69.15
X76.91Y-58.56
X78.66Y-69.15
X79.45Y-56.02
X81.2Y-69.15
X81.99Y-58.56
X83.74Y-69.15
X84.04Y-58.52
X86.28Y-69.15
X86.58Y-55.98
X89.12Y-58.52
T4
X97.38Y-70.79
X97.5Y-77.84
X99.88Y-70.79
X100.0Y-77.84
T5
X96.27Y-106.515
X96.27Y-109.055
T6
X84.79Y-113.495
X87.29Y-113.495
X89.79Y-113.495
X94.47Y-56.02
X96.238Y-57.788
X98.006Y-59.556
X99.773Y-61.323
X99.834Y-50.864
X101.602Y-52.632
X103.37Y-54.4
X103.694Y-117.256
X104.152Y-65.572
X105.138Y-56.168
X105.462Y-115.488
X105.92Y-67.34
X107.23Y-113.72
X107.688Y-69.108
X109.424Y-60.444
X109.456Y-70.876
X111.192Y-62.212
X111.419Y-109.451
X112.96Y-63.98
X113.187Y-107.683
X114.728Y-65.748
X114.954Y-105.916
X116.722Y-104.148
X118.49Y-102.38
T7
X69.31Y-65.98
X69.31Y-81.22
X71.78Y-78.77
X71.85Y-65.98
X71.85Y-81.22
X72.88Y-114.52
X72.96Y-106.94
X74.32Y-78.77
X74.39Y-65.98
X74.39Y-81.22
X75.42Y-114.52
X75.5Y-106.94
X76.86Y-78.77
X76.93Y-65.98
X76.93Y-81.22
X77.96Y-114.52
X78.04Y-106.94
X79.4Y-78.77
X79.47Y-65.98
X79.47Y-81.22
X81.94Y-78.77
X82.01Y-65.98
X82.01Y-81.22
X84.48Y-78.77
X84.55Y-65.98
X84.55Y-81.22
X84.8Y-106.595
X87.02Y-78.77
X87.34Y-106.595
X89.56Y-78.77
X89.88Y-106.595
X92.1Y-78.77
X97.872Y-123.408
X99.64Y-121.64
X117.147Y-77.26
X117.147Y-79.8
X117.147Y-82.34
X117.147Y-84.88
X117.147Y-87.42
X117.147Y-89.96
X117.147Y-92.5
X119.688Y-77.26
X119.688Y-79.8
X119.688Y-82.34
X119.688Y-84.88
X119.688Y-87.42
X119.688Y-89.96
X119.688Y-92.5
T8
X67.32Y-85.39
X67.32Y-100.63
X69.86Y-85.39
X69.86Y-100.63
X72.4Y-85.39
X72.4Y-100.63
X74.94Y-85.39
X74.94Y-100.63
X77.48Y-85.39
X77.48Y-100.63
X80.02Y-85.39
X80.02Y-100.63
X82.56Y-85.39
X82.56Y-100.63
X85.1Y-85.39
X85.1Y-100.63
X87.64Y-85.39
X87.64Y-100.63
X90.18Y-85.39
X90.18Y-100.63
X92.72Y-85.39
X92.72Y-100.63
X95.26Y-85.39
X95.26Y-100.63
X97.8Y-85.39
X97.8Y-100.63
X100.34Y-85.39
X100.34Y-100.63
X104.76Y-83.48
X104.76Y-89.98
X109.26Y-83.48
X109.26Y-89.98
T0
M30
