M48
; DRILL file {KiCad 7.0.9} date Tue May  6 13:31:21 2025
; FORMAT={-:-/ absolute / metric / decimal}
; #@! TF.CreationDate,2025-05-06T13:31:21+09:00
; #@! TF.GenerationSoftware,Kicad,Pcbnew,7.0.9
; #@! TF.FileFunction,Plated,1,2,PTH
FMAT,2
METRIC
; #@! TA.AperFunction,Plated,PTH,ViaDrill
T1C0.400
; #@! TA.AperFunction,Plated,PTH,ComponentDrill
T2C0.500
; #@! TA.AperFunction,Plated,PTH,ComponentDrill
T3C0.700
; #@! TA.AperFunction,Plated,PTH,ComponentDrill
T4C0.762
; #@! TA.AperFunction,Plated,PTH,ComponentDrill
T5C0.800
; #@! TA.AperFunction,Plated,PTH,ComponentDrill
T6C0.950
; #@! TA.AperFunction,Plated,PTH,ComponentDrill
T7C1.000
; #@! TA.AperFunction,Plated,PTH,ComponentDrill
T8C1.200
; #@! TA.AperFunction,Plated,PTH,ComponentDrill
T9C1.700
%
G90
G05
T1
X195.53Y-88.33
X197.93Y-90.79
X201.08Y-66.56
X204.1Y-65.8
X206.24Y-76.45
X211.11Y-72.35
X223.266Y-74.676
X223.52Y-115.47
T3
X203.44Y-103.75
X208.52Y-103.75
X220.73Y-88.05
X225.81Y-88.05
T4
X196.45Y-59.45
X196.45Y-100.09
X214.23Y-59.45
X214.23Y-100.09
T5
X217.17Y-97.536
X217.17Y-100.036
X218.22Y-83.91
X220.76Y-83.91
X222.985Y-70.89
X222.985Y-78.51
X223.185Y-60.54
X223.185Y-68.16
X223.3Y-83.91
X225.525Y-70.89
X225.525Y-78.51
X225.725Y-60.54
X225.725Y-68.16
X230.51Y-113.538
X232.278Y-115.306
T6
X220.83Y-92.58
X223.33Y-92.58
X225.83Y-92.58
X232.44Y-92.65
X232.44Y-95.15
X232.44Y-97.65
X232.44Y-103.74
X232.44Y-106.24
X232.44Y-108.74
X232.46Y-81.55
X232.46Y-84.05
X232.46Y-86.55
T7
X199.97Y-52.96
X202.47Y-52.96
X204.1Y-97.681
X204.13Y-61.799
X206.64Y-97.681
X206.67Y-61.799
X208.56Y-53.03
X209.18Y-97.681
X209.21Y-61.799
X211.06Y-53.03
X220.91Y-49.5
X222.678Y-51.268
X232.47Y-64.33
X232.47Y-66.83
X232.47Y-72.97
X232.47Y-75.47
T8
X209.46Y-110.89
X209.46Y-121.05
X217.97Y-60.96
X217.97Y-71.12
T9
X188.11Y-95.4
X192.07Y-95.4
X218.02Y-124.94
X220.82Y-122.14
T2
G00X203.91Y-108.95
M15
G01X205.51Y-108.95
M16
G05
G00X203.91Y-112.65
M15
G01X205.51Y-112.65
M16
G05
G00X203.91Y-116.95
M15
G01X205.51Y-116.95
M16
G05
G00X203.91Y-120.65
M15
G01X205.51Y-120.65
M16
G05
T7
G00X193.55Y-105.82
M15
G01X195.55Y-105.82
M16
G05
G00X193.55Y-111.82
M15
G01X195.55Y-111.82
M16
G05
T0
M30
