%TF.GenerationSoftware,KiCad,Pcbnew,7.0.9*%
%TF.CreationDate,2025-05-06T13:31:18+09:00*%
%TF.ProjectId,PowerBored,506f7765-7242-46f7-9265-642e6b696361,rev?*%
%TF.SameCoordinates,Original*%
%TF.FileFunction,Soldermask,Bot*%
%TF.FilePolarity,Negative*%
%FSLAX46Y46*%
G04 Gerber Fmt 4.6, Leading zero omitted, Abs format (unit mm)*
G04 Created by KiCad (PCBNEW 7.0.9) date 2025-05-06 13:31:18*
%MOMM*%
%LPD*%
G01*
G04 APERTURE LIST*
G04 Aperture macros list*
%AMRoundRect*
0 Rectangle with rounded corners*
0 $1 Rounding radius*
0 $2 $3 $4 $5 $6 $7 $8 $9 X,Y pos of 4 corners*
0 Add a 4 corners polygon primitive as box body*
4,1,4,$2,$3,$4,$5,$6,$7,$8,$9,$2,$3,0*
0 Add four circle primitives for the rounded corners*
1,1,$1+$1,$2,$3*
1,1,$1+$1,$4,$5*
1,1,$1+$1,$6,$7*
1,1,$1+$1,$8,$9*
0 Add four rect primitives between the rounded corners*
20,1,$1+$1,$2,$3,$4,$5,0*
20,1,$1+$1,$4,$5,$6,$7,0*
20,1,$1+$1,$6,$7,$8,$9,0*
20,1,$1+$1,$8,$9,$2,$3,0*%
%AMHorizOval*
0 Thick line with rounded ends*
0 $1 width*
0 $2 $3 position (X,Y) of the first rounded end (center of the circle)*
0 $4 $5 position (X,Y) of the second rounded end (center of the circle)*
0 Add line between two ends*
20,1,$1,$2,$3,$4,$5,0*
0 Add two circle primitives to create the rounded ends*
1,1,$1,$2,$3*
1,1,$1,$4,$5*%
G04 Aperture macros list end*
%ADD10RoundRect,0.250000X0.725000X-0.600000X0.725000X0.600000X-0.725000X0.600000X-0.725000X-0.600000X0*%
%ADD11O,1.950000X1.700000*%
%ADD12R,4.000000X2.000000*%
%ADD13C,3.200000*%
%ADD14C,1.400000*%
%ADD15O,1.400000X1.400000*%
%ADD16RoundRect,0.250000X-0.600000X-0.750000X0.600000X-0.750000X0.600000X0.750000X-0.600000X0.750000X0*%
%ADD17O,1.700000X2.000000*%
%ADD18C,1.600000*%
%ADD19C,1.440000*%
%ADD20RoundRect,0.250001X-1.099999X-1.099999X1.099999X-1.099999X1.099999X1.099999X-1.099999X1.099999X0*%
%ADD21C,2.700000*%
%ADD22RoundRect,0.250000X-0.600000X-0.725000X0.600000X-0.725000X0.600000X0.725000X-0.600000X0.725000X0*%
%ADD23O,1.700000X1.950000*%
%ADD24RoundRect,0.250000X0.750000X-0.600000X0.750000X0.600000X-0.750000X0.600000X-0.750000X-0.600000X0*%
%ADD25O,2.000000X1.700000*%
%ADD26O,2.700000X1.500000*%
%ADD27C,1.800000*%
%ADD28O,4.000000X2.000000*%
%ADD29R,2.400000X2.400000*%
%ADD30O,2.400000X2.400000*%
%ADD31RoundRect,0.250000X-0.954594X-0.106066X-0.106066X-0.954594X0.954594X0.106066X0.106066X0.954594X0*%
%ADD32HorizOval,1.700000X-0.106066X-0.106066X0.106066X0.106066X0*%
%ADD33C,1.524000*%
%ADD34RoundRect,0.250001X0.000000X1.555634X-1.555634X0.000000X0.000000X-1.555634X1.555634X0.000000X0*%
%ADD35R,1.600000X1.600000*%
%ADD36O,1.600000X1.600000*%
G04 APERTURE END LIST*
D10*
%TO.C,12V*%
X232440000Y-97650000D03*
D11*
X232440000Y-95150000D03*
X232440000Y-92650000D03*
%TD*%
D12*
%TO.C,MES1*%
X197161000Y-72594000D03*
X197161000Y-77166000D03*
%TD*%
D10*
%TO.C,FET*%
X232460000Y-86550000D03*
D11*
X232460000Y-84050000D03*
X232460000Y-81550000D03*
%TD*%
D13*
%TO.C,REF\u002A\u002A*%
X194860000Y-126240000D03*
%TD*%
D14*
%TO.C,R1*%
X208520000Y-103750000D03*
D15*
X203440000Y-103750000D03*
%TD*%
D16*
%TO.C,C3*%
X199970000Y-52960000D03*
D17*
X202470000Y-52960000D03*
%TD*%
D13*
%TO.C,REF\u002A\u002A*%
X227830000Y-118100000D03*
%TD*%
D18*
%TO.C,C1*%
X217170000Y-100036000D03*
X217170000Y-97536000D03*
%TD*%
D19*
%TO.C,RV1*%
X218220000Y-83910000D03*
X220760000Y-83910000D03*
X223300000Y-83910000D03*
%TD*%
D20*
%TO.C,Voltage_Check*%
X188110000Y-95400000D03*
D21*
X192070000Y-95400000D03*
%TD*%
D10*
%TO.C,12V*%
X232440000Y-108740000D03*
D11*
X232440000Y-106240000D03*
X232440000Y-103740000D03*
%TD*%
D13*
%TO.C,REF\u002A\u002A*%
X194920000Y-47320000D03*
%TD*%
%TO.C,REF\u002A\u002A*%
X227830000Y-55410000D03*
%TD*%
D22*
%TO.C,Switch*%
X220830000Y-92580000D03*
D23*
X223330000Y-92580000D03*
X225830000Y-92580000D03*
%TD*%
D24*
%TO.C,5V*%
X232470000Y-66830000D03*
D25*
X232470000Y-64330000D03*
%TD*%
D16*
%TO.C,C4*%
X208560000Y-53030000D03*
D17*
X211060000Y-53030000D03*
%TD*%
D26*
%TO.C,Fuse*%
X204710000Y-120650000D03*
X204710000Y-116950000D03*
X204710000Y-112650000D03*
X204710000Y-108950000D03*
%TD*%
D27*
%TO.C,Q2*%
X206670000Y-61799000D03*
X209210000Y-61799000D03*
X204130000Y-61799000D03*
%TD*%
D28*
%TO.C,Switch*%
X194550000Y-111820000D03*
X194550000Y-105820000D03*
%TD*%
D14*
%TO.C,R2*%
X220730000Y-88050000D03*
D15*
X225810000Y-88050000D03*
%TD*%
D29*
%TO.C,D2*%
X209460000Y-110890000D03*
D30*
X209460000Y-121050000D03*
%TD*%
D31*
%TO.C,Selnoid*%
X220910000Y-49500000D03*
D32*
X222677767Y-51267767D03*
%TD*%
D29*
%TO.C,D1*%
X217970000Y-71120000D03*
D30*
X217970000Y-60960000D03*
%TD*%
D33*
%TO.C,U2*%
X196450000Y-100090000D03*
X214230000Y-100090000D03*
X196450000Y-59450000D03*
X214230000Y-59450000D03*
%TD*%
D27*
%TO.C,Q1*%
X206640000Y-97681000D03*
X204100000Y-97681000D03*
X209180000Y-97681000D03*
%TD*%
D34*
%TO.C,BT1*%
X220820000Y-122140000D03*
D21*
X218019857Y-124940143D03*
%TD*%
D24*
%TO.C,5V*%
X232470000Y-75470000D03*
D25*
X232470000Y-72970000D03*
%TD*%
D35*
%TO.C,U4*%
X225525000Y-70890000D03*
D36*
X222985000Y-70890000D03*
X222985000Y-78510000D03*
X225525000Y-78510000D03*
%TD*%
D18*
%TO.C,106*%
X230510117Y-113538000D03*
X232277884Y-115305767D03*
%TD*%
D35*
%TO.C,U3*%
X225725000Y-60540000D03*
D36*
X223185000Y-60540000D03*
X223185000Y-68160000D03*
X225725000Y-68160000D03*
%TD*%
M02*
