%TF.GenerationSoftware,KiCad,Pcbnew,7.0.9*%
%TF.CreationDate,2025-05-06T13:31:17+09:00*%
%TF.ProjectId,PowerBored,506f7765-7242-46f7-9265-642e6b696361,rev?*%
%TF.SameCoordinates,Original*%
%TF.FileFunction,Copper,L2,Bot*%
%TF.FilePolarity,Positive*%
%FSLAX46Y46*%
G04 Gerber Fmt 4.6, Leading zero omitted, Abs format (unit mm)*
G04 Created by KiCad (PCBNEW 7.0.9) date 2025-05-06 13:31:17*
%MOMM*%
%LPD*%
G01*
G04 APERTURE LIST*
G04 Aperture macros list*
%AMRoundRect*
0 Rectangle with rounded corners*
0 $1 Rounding radius*
0 $2 $3 $4 $5 $6 $7 $8 $9 X,Y pos of 4 corners*
0 Add a 4 corners polygon primitive as box body*
4,1,4,$2,$3,$4,$5,$6,$7,$8,$9,$2,$3,0*
0 Add four circle primitives for the rounded corners*
1,1,$1+$1,$2,$3*
1,1,$1+$1,$4,$5*
1,1,$1+$1,$6,$7*
1,1,$1+$1,$8,$9*
0 Add four rect primitives between the rounded corners*
20,1,$1+$1,$2,$3,$4,$5,0*
20,1,$1+$1,$4,$5,$6,$7,0*
20,1,$1+$1,$6,$7,$8,$9,0*
20,1,$1+$1,$8,$9,$2,$3,0*%
%AMHorizOval*
0 Thick line with rounded ends*
0 $1 width*
0 $2 $3 position (X,Y) of the first rounded end (center of the circle)*
0 $4 $5 position (X,Y) of the second rounded end (center of the circle)*
0 Add line between two ends*
20,1,$1,$2,$3,$4,$5,0*
0 Add two circle primitives to create the rounded ends*
1,1,$1,$2,$3*
1,1,$1,$4,$5*%
G04 Aperture macros list end*
%TA.AperFunction,ComponentPad*%
%ADD10RoundRect,0.250000X0.725000X-0.600000X0.725000X0.600000X-0.725000X0.600000X-0.725000X-0.600000X0*%
%TD*%
%TA.AperFunction,ComponentPad*%
%ADD11O,1.950000X1.700000*%
%TD*%
%TA.AperFunction,SMDPad,CuDef*%
%ADD12R,4.000000X2.000000*%
%TD*%
%TA.AperFunction,ComponentPad*%
%ADD13C,1.400000*%
%TD*%
%TA.AperFunction,ComponentPad*%
%ADD14O,1.400000X1.400000*%
%TD*%
%TA.AperFunction,ComponentPad*%
%ADD15RoundRect,0.250000X-0.600000X-0.750000X0.600000X-0.750000X0.600000X0.750000X-0.600000X0.750000X0*%
%TD*%
%TA.AperFunction,ComponentPad*%
%ADD16O,1.700000X2.000000*%
%TD*%
%TA.AperFunction,ComponentPad*%
%ADD17C,1.600000*%
%TD*%
%TA.AperFunction,ComponentPad*%
%ADD18C,1.440000*%
%TD*%
%TA.AperFunction,ComponentPad*%
%ADD19RoundRect,0.250001X-1.099999X-1.099999X1.099999X-1.099999X1.099999X1.099999X-1.099999X1.099999X0*%
%TD*%
%TA.AperFunction,ComponentPad*%
%ADD20C,2.700000*%
%TD*%
%TA.AperFunction,ComponentPad*%
%ADD21RoundRect,0.250000X-0.600000X-0.725000X0.600000X-0.725000X0.600000X0.725000X-0.600000X0.725000X0*%
%TD*%
%TA.AperFunction,ComponentPad*%
%ADD22O,1.700000X1.950000*%
%TD*%
%TA.AperFunction,ComponentPad*%
%ADD23RoundRect,0.250000X0.750000X-0.600000X0.750000X0.600000X-0.750000X0.600000X-0.750000X-0.600000X0*%
%TD*%
%TA.AperFunction,ComponentPad*%
%ADD24O,2.000000X1.700000*%
%TD*%
%TA.AperFunction,ComponentPad*%
%ADD25O,2.700000X1.500000*%
%TD*%
%TA.AperFunction,ComponentPad*%
%ADD26C,1.800000*%
%TD*%
%TA.AperFunction,ComponentPad*%
%ADD27O,4.000000X2.000000*%
%TD*%
%TA.AperFunction,ComponentPad*%
%ADD28R,2.400000X2.400000*%
%TD*%
%TA.AperFunction,ComponentPad*%
%ADD29O,2.400000X2.400000*%
%TD*%
%TA.AperFunction,ComponentPad*%
%ADD30RoundRect,0.250000X-0.954594X-0.106066X-0.106066X-0.954594X0.954594X0.106066X0.106066X0.954594X0*%
%TD*%
%TA.AperFunction,ComponentPad*%
%ADD31HorizOval,1.700000X-0.106066X-0.106066X0.106066X0.106066X0*%
%TD*%
%TA.AperFunction,ComponentPad*%
%ADD32C,1.524000*%
%TD*%
%TA.AperFunction,ComponentPad*%
%ADD33RoundRect,0.250001X0.000000X1.555634X-1.555634X0.000000X0.000000X-1.555634X1.555634X0.000000X0*%
%TD*%
%TA.AperFunction,ComponentPad*%
%ADD34R,1.600000X1.600000*%
%TD*%
%TA.AperFunction,ComponentPad*%
%ADD35O,1.600000X1.600000*%
%TD*%
%TA.AperFunction,ViaPad*%
%ADD36C,0.800000*%
%TD*%
%TA.AperFunction,Conductor*%
%ADD37C,1.500000*%
%TD*%
%TA.AperFunction,Conductor*%
%ADD38C,0.700000*%
%TD*%
G04 APERTURE END LIST*
D10*
%TO.P,12V,1,Pin_1*%
%TO.N,+12V*%
X232440000Y-97650000D03*
D11*
%TO.P,12V,2,Pin_2*%
%TO.N,unconnected-(J5-Pin_2-Pad2)*%
X232440000Y-95150000D03*
%TO.P,12V,3,Pin_3*%
%TO.N,GND*%
X232440000Y-92650000D03*
%TD*%
D12*
%TO.P,MES1,1,-*%
%TO.N,GND*%
X197161000Y-72594000D03*
%TO.P,MES1,2,+*%
%TO.N,Net-(D2-K)*%
X197161000Y-77166000D03*
%TD*%
D10*
%TO.P,FET,1,Pin_1*%
%TO.N,FET1*%
X232460000Y-86550000D03*
D11*
%TO.P,FET,2,Pin_2*%
%TO.N,GND*%
X232460000Y-84050000D03*
%TO.P,FET,3,Pin_3*%
%TO.N,FET\uFF12*%
X232460000Y-81550000D03*
%TD*%
D13*
%TO.P,R1,1*%
%TO.N,+12V*%
X208520000Y-103750000D03*
D14*
%TO.P,R1,2*%
%TO.N,Net-(U1-ON{slash}OFF_CTRL)*%
X203440000Y-103750000D03*
%TD*%
D15*
%TO.P,C3,1*%
%TO.N,Solenoid+*%
X199970000Y-52960000D03*
D16*
%TO.P,C3,2*%
%TO.N,GND*%
X202470000Y-52960000D03*
%TD*%
D17*
%TO.P,C1,1*%
%TO.N,+12V*%
X217170000Y-100036000D03*
%TO.P,C1,2*%
%TO.N,GND*%
X217170000Y-97536000D03*
%TD*%
D18*
%TO.P,RV1,1,1*%
%TO.N,Net-(R2-Pad1)*%
X218220000Y-83910000D03*
%TO.P,RV1,2,2*%
X220760000Y-83910000D03*
%TO.P,RV1,3,3*%
%TO.N,Net-(U1-TRIM)*%
X223300000Y-83910000D03*
%TD*%
D19*
%TO.P,Voltage_Check,1,Pin_1*%
%TO.N,+48V*%
X188110000Y-95400000D03*
D20*
%TO.P,Voltage_Check,2,Pin_2*%
%TO.N,GND*%
X192070000Y-95400000D03*
%TD*%
D10*
%TO.P,12V,1,Pin_1*%
%TO.N,+12V*%
X232440000Y-108740000D03*
D11*
%TO.P,12V,2,Pin_2*%
%TO.N,unconnected-(J1-Pin_2-Pad2)*%
X232440000Y-106240000D03*
%TO.P,12V,3,Pin_3*%
%TO.N,GND*%
X232440000Y-103740000D03*
%TD*%
D21*
%TO.P,Switch,1*%
%TO.N,GND*%
X220830000Y-92580000D03*
D22*
%TO.P,Switch,2*%
%TO.N,Net-(U1-ON{slash}OFF_CTRL)*%
X223330000Y-92580000D03*
%TO.P,Switch,3*%
%TO.N,N/C*%
X225830000Y-92580000D03*
%TD*%
D23*
%TO.P,5V,1,Pin_1*%
%TO.N,+5V*%
X232470000Y-66830000D03*
D24*
%TO.P,5V,2,Pin_2*%
%TO.N,GND*%
X232470000Y-64330000D03*
%TD*%
D15*
%TO.P,C4,1*%
%TO.N,Solenoid+*%
X208560000Y-53030000D03*
D16*
%TO.P,C4,2*%
%TO.N,GND*%
X211060000Y-53030000D03*
%TD*%
D25*
%TO.P,Fuse,1*%
%TO.N,Net-(BT1-+)*%
X204710000Y-120650000D03*
X204710000Y-116950000D03*
%TO.P,Fuse,2*%
%TO.N,Net-(D2-K)*%
X204710000Y-112650000D03*
X204710000Y-108950000D03*
%TD*%
D26*
%TO.P,Q2,1,D*%
%TO.N,Solenoid-*%
X206670000Y-61799000D03*
%TO.P,Q2,2,G*%
%TO.N,Net-(Q2-G)*%
X209210000Y-61799000D03*
%TO.P,Q2,3,S*%
%TO.N,GND*%
X204130000Y-61799000D03*
%TD*%
D27*
%TO.P,Switch,1*%
%TO.N,Net-(D2-K)*%
X194550000Y-111820000D03*
%TO.P,Switch,2*%
%TO.N,+12V*%
X194550000Y-105820000D03*
%TD*%
D13*
%TO.P,R2,1*%
%TO.N,Net-(R2-Pad1)*%
X220730000Y-88050000D03*
D14*
%TO.P,R2,2*%
%TO.N,GND*%
X225810000Y-88050000D03*
%TD*%
D28*
%TO.P,D2,1,K*%
%TO.N,Net-(D2-K)*%
X209460000Y-110890000D03*
D29*
%TO.P,D2,2,A*%
%TO.N,GND*%
X209460000Y-121050000D03*
%TD*%
D30*
%TO.P,Selnoid,1,Pin_1*%
%TO.N,Solenoid+*%
X220910000Y-49500000D03*
D31*
%TO.P,Selnoid,2,Pin_2*%
%TO.N,Solenoid-*%
X222677767Y-51267767D03*
%TD*%
D28*
%TO.P,D1,1,K*%
%TO.N,+48V*%
X217970000Y-71120000D03*
D29*
%TO.P,D1,2,A*%
%TO.N,Net-(D1-A)*%
X217970000Y-60960000D03*
%TD*%
D32*
%TO.P,U2,1,IN\uFF0B*%
%TO.N,+12V*%
X196450000Y-100090000D03*
%TO.P,U2,2,IN\uFF0D*%
%TO.N,GND*%
X214230000Y-100090000D03*
%TO.P,U2,3,OUT\uFF0B*%
%TO.N,Net-(D1-A)*%
X196450000Y-59450000D03*
%TO.P,U2,4,OUT\uFF0D*%
%TO.N,GND*%
X214230000Y-59450000D03*
%TD*%
D26*
%TO.P,Q1,1,D*%
%TO.N,Solenoid+*%
X206640000Y-97681000D03*
%TO.P,Q1,2,G*%
%TO.N,Net-(Q1-G)*%
X204100000Y-97681000D03*
%TO.P,Q1,3,S*%
%TO.N,+48V*%
X209180000Y-97681000D03*
%TD*%
D33*
%TO.P,BT1,1,+*%
%TO.N,Net-(BT1-+)*%
X220820000Y-122140000D03*
D20*
%TO.P,BT1,2,-*%
%TO.N,GND*%
X218019857Y-124940143D03*
%TD*%
D23*
%TO.P,5V,1,Pin_1*%
%TO.N,+5V*%
X232470000Y-75470000D03*
D24*
%TO.P,5V,2,Pin_2*%
%TO.N,GND*%
X232470000Y-72970000D03*
%TD*%
D34*
%TO.P,U4,1*%
%TO.N,Net-(R4-Pad2)*%
X225525000Y-70890000D03*
D35*
%TO.P,U4,2*%
%TO.N,GND*%
X222985000Y-70890000D03*
%TO.P,U4,3*%
%TO.N,Net-(R7-Pad2)*%
X222985000Y-78510000D03*
%TO.P,U4,4*%
%TO.N,+15V*%
X225525000Y-78510000D03*
%TD*%
D17*
%TO.P,106,1*%
%TO.N,+5V*%
X230510117Y-113538000D03*
%TO.P,106,2*%
%TO.N,GND*%
X232277884Y-115305767D03*
%TD*%
D34*
%TO.P,U3,1*%
%TO.N,Net-(R3-Pad2)*%
X225725000Y-60540000D03*
D35*
%TO.P,U3,2*%
%TO.N,GND*%
X223185000Y-60540000D03*
%TO.P,U3,3*%
%TO.N,Net-(R5-Pad1)*%
X223185000Y-68160000D03*
%TO.P,U3,4*%
%TO.N,Net-(Q1-G)*%
X225725000Y-68160000D03*
%TD*%
D36*
%TO.N,GND*%
X211110000Y-72350000D03*
X204100000Y-65800000D03*
X201080000Y-66560000D03*
X206240000Y-76450000D03*
%TO.N,+48V*%
X195530000Y-88330000D03*
X197930000Y-90790000D03*
%TO.N,FET\uFF12*%
X223266000Y-74676000D03*
%TO.N,Net-(U1-TRIM)*%
X223520000Y-115470000D03*
%TD*%
D37*
%TO.N,Net-(U1-TRIM)*%
X225018234Y-83910000D02*
X223300000Y-83910000D01*
X229260000Y-88151767D02*
X225018234Y-83910000D01*
X229260000Y-107740000D02*
X229260000Y-88151767D01*
X223520000Y-115470000D02*
X223520000Y-113480000D01*
X223520000Y-113480000D02*
X229260000Y-107740000D01*
D38*
%TO.N,Solenoid+*%
X183810000Y-95480000D02*
X183810000Y-63460000D01*
X194310000Y-52960000D02*
X199970000Y-52960000D01*
X183810000Y-63460000D02*
X194310000Y-52960000D01*
X189732000Y-101402000D02*
X183810000Y-95480000D01*
X202919000Y-101402000D02*
X189732000Y-101402000D01*
X206640000Y-97681000D02*
X202919000Y-101402000D01*
D37*
%TO.N,+48V*%
X216154000Y-75438000D02*
X213652000Y-75438000D01*
X209180000Y-89408000D02*
X208280000Y-89408000D01*
X217424000Y-74168000D02*
X214922000Y-74168000D01*
X188422500Y-93280000D02*
X188422500Y-91231500D01*
X192040000Y-90980000D02*
X190722500Y-90980000D01*
X209180000Y-92202000D02*
X206502000Y-92202000D01*
X209180000Y-92202000D02*
X209180000Y-93472000D01*
X209180000Y-88138000D02*
X209180000Y-89408000D01*
X197326000Y-89916000D02*
X197440000Y-90030000D01*
X209180000Y-88138000D02*
X207518000Y-88138000D01*
X209180000Y-94234000D02*
X209180000Y-97681000D01*
X189738000Y-89916000D02*
X197326000Y-89916000D01*
X214649000Y-74441000D02*
X213252000Y-75838000D01*
X206502000Y-92202000D02*
X205486000Y-92202000D01*
X207264000Y-89408000D02*
X206248000Y-89408000D01*
X207518000Y-94234000D02*
X205232000Y-91948000D01*
X217970000Y-71120000D02*
X215157000Y-73933000D01*
X205740000Y-89408000D02*
X206248000Y-89408000D01*
X208280000Y-90932000D02*
X207264000Y-90932000D01*
X195722000Y-88138000D02*
X195530000Y-88330000D01*
X191516000Y-88138000D02*
X190246000Y-89408000D01*
X203703792Y-90932000D02*
X202687792Y-89916000D01*
X217932000Y-72898000D02*
X217932000Y-73660000D01*
X209180000Y-90932000D02*
X208280000Y-90932000D01*
X213741000Y-77851000D02*
X211239000Y-77851000D01*
X210566000Y-81026000D02*
X210566000Y-96295000D01*
X197554000Y-89916000D02*
X202687792Y-89916000D01*
X217932000Y-73660000D02*
X217424000Y-74168000D01*
X212598000Y-78994000D02*
X212490000Y-78886000D01*
X207772000Y-93472000D02*
X207391000Y-93091000D01*
X212363000Y-76727000D02*
X210966000Y-78124000D01*
X212598000Y-78994000D02*
X211582000Y-80010000D01*
X211582000Y-80010000D02*
X211482000Y-79910000D01*
X202687792Y-89916000D02*
X203751792Y-90980000D01*
X217932000Y-71158000D02*
X217932000Y-72898000D01*
X190246000Y-89408000D02*
X189738000Y-89916000D01*
X217424000Y-74168000D02*
X216154000Y-75438000D01*
X213652000Y-75438000D02*
X213252000Y-75838000D01*
X188110000Y-91544000D02*
X188110000Y-95400000D01*
X215265000Y-76327000D02*
X213741000Y-77851000D01*
X208280000Y-89408000D02*
X207264000Y-89408000D01*
X209180000Y-86476000D02*
X207518000Y-88138000D01*
X203751792Y-90980000D02*
X192040000Y-90980000D01*
X215157000Y-73933000D02*
X214649000Y-74441000D01*
X188422500Y-91231500D02*
X189738000Y-89916000D01*
X192040000Y-90980000D02*
X192040000Y-91470000D01*
X190722500Y-90980000D02*
X188422500Y-93280000D01*
X209180000Y-85598000D02*
X209180000Y-86476000D01*
X197440000Y-90030000D02*
X197554000Y-89916000D01*
X211582000Y-80010000D02*
X210566000Y-81026000D01*
X210204000Y-78886000D02*
X209180000Y-79910000D01*
X207264000Y-90932000D02*
X207264000Y-89408000D01*
X209180000Y-79910000D02*
X209180000Y-85598000D01*
X216192000Y-72898000D02*
X215157000Y-73933000D01*
X209180000Y-94234000D02*
X208534000Y-94234000D01*
X209180000Y-89408000D02*
X209180000Y-90932000D01*
X210566000Y-96295000D02*
X209180000Y-97681000D01*
X209180000Y-96408208D02*
X203751792Y-90980000D01*
X206248000Y-90932000D02*
X204216000Y-90932000D01*
X207518000Y-88138000D02*
X195722000Y-88138000D01*
X203703792Y-90932000D02*
X203703792Y-90428208D01*
X209180000Y-93472000D02*
X209180000Y-94234000D01*
X214922000Y-74168000D02*
X214649000Y-74441000D01*
X214865000Y-76727000D02*
X212363000Y-76727000D01*
X209180000Y-90932000D02*
X209180000Y-92202000D01*
X188422500Y-91231500D02*
X188110000Y-91544000D01*
X204724000Y-89408000D02*
X190246000Y-89408000D01*
X216154000Y-75438000D02*
X215265000Y-76327000D01*
X209180000Y-85598000D02*
X209180000Y-88138000D01*
X213252000Y-75838000D02*
X212363000Y-76727000D01*
X213741000Y-77851000D02*
X212598000Y-78994000D01*
X217970000Y-71120000D02*
X217932000Y-71158000D01*
X205232000Y-91948000D02*
X204216000Y-90932000D01*
X195530000Y-88330000D02*
X195338000Y-88138000D01*
X204216000Y-90932000D02*
X203703792Y-90932000D01*
X211239000Y-77851000D02*
X210966000Y-78124000D01*
X209180000Y-97681000D02*
X209180000Y-96408208D01*
X207391000Y-93091000D02*
X206502000Y-92202000D01*
X203703792Y-90428208D02*
X204724000Y-89408000D01*
X212490000Y-78886000D02*
X210204000Y-78886000D01*
X206248000Y-89408000D02*
X204724000Y-89408000D01*
X195338000Y-88138000D02*
X191516000Y-88138000D01*
X208534000Y-94234000D02*
X207391000Y-93091000D01*
X215265000Y-76327000D02*
X214865000Y-76727000D01*
X205486000Y-92202000D02*
X205232000Y-91948000D01*
X211482000Y-79910000D02*
X209180000Y-79910000D01*
X209180000Y-94234000D02*
X207518000Y-94234000D01*
X209180000Y-93472000D02*
X207772000Y-93472000D01*
X207264000Y-90932000D02*
X206248000Y-90932000D01*
X192040000Y-91470000D02*
X188110000Y-95400000D01*
X208280000Y-90932000D02*
X208280000Y-89408000D01*
X206248000Y-90932000D02*
X206248000Y-89408000D01*
X204216000Y-90932000D02*
X205740000Y-89408000D01*
X210966000Y-78124000D02*
X210204000Y-78886000D01*
X217932000Y-72898000D02*
X216192000Y-72898000D01*
%TO.N,Net-(D1-A)*%
X217970000Y-60960000D02*
X215281000Y-63649000D01*
X200649000Y-63649000D02*
X196450000Y-59450000D01*
D38*
X217970000Y-61460000D02*
X217320000Y-61460000D01*
D37*
X215281000Y-63649000D02*
X200649000Y-63649000D01*
%TO.N,FET\uFF12*%
X225586000Y-74676000D02*
X223266000Y-74676000D01*
X232460000Y-81550000D02*
X225586000Y-74676000D01*
%TO.N,Solenoid-*%
X206670000Y-61799000D02*
X206670000Y-61722704D01*
X222286042Y-51659492D02*
X222677767Y-51267767D01*
X206670000Y-61722704D02*
X216733212Y-51659492D01*
X216733212Y-51659492D02*
X222286042Y-51659492D01*
%TO.N,Net-(U1-ON{slash}OFF_CTRL)*%
X211180000Y-113040000D02*
X223330000Y-100890000D01*
X203405837Y-114350000D02*
X202380000Y-113324163D01*
X223330000Y-100890000D02*
X223330000Y-92580000D01*
X202380000Y-113324163D02*
X202380000Y-104810000D01*
X202380000Y-104810000D02*
X203440000Y-103750000D01*
X209870000Y-114350000D02*
X203405837Y-114350000D01*
X211180000Y-113040000D02*
X209870000Y-114350000D01*
%TO.N,Net-(D2-K)*%
X220980000Y-78108263D02*
X216560000Y-82528263D01*
X219202000Y-66294000D02*
X220980000Y-68072000D01*
X210170000Y-110180000D02*
X209460000Y-110890000D01*
X218948000Y-101402000D02*
X218948000Y-92202000D01*
X204092500Y-70234500D02*
X208033000Y-66294000D01*
X208033000Y-66294000D02*
X219202000Y-66294000D01*
X216560000Y-89814000D02*
X218948000Y-92202000D01*
X216560000Y-82528263D02*
X216560000Y-89814000D01*
X220980000Y-68072000D02*
X220980000Y-78108263D01*
X197161000Y-77166000D02*
X204092500Y-70234500D01*
X209460000Y-110890000D02*
X218948000Y-101402000D01*
%TD*%
%TA.AperFunction,Conductor*%
%TO.N,GND*%
G36*
X182877552Y-65417234D02*
G01*
X182933943Y-65458488D01*
X182959079Y-65523679D01*
X182959500Y-65533886D01*
X182959500Y-95442911D01*
X182959295Y-95447945D01*
X182954798Y-95503163D01*
X182965729Y-95583392D01*
X182974486Y-95663913D01*
X182974710Y-95664930D01*
X182979525Y-95685473D01*
X182979773Y-95686470D01*
X182990796Y-95716473D01*
X183007700Y-95762486D01*
X183029717Y-95827829D01*
X183033557Y-95839223D01*
X183034001Y-95840185D01*
X183043146Y-95859266D01*
X183043564Y-95860109D01*
X183087184Y-95928353D01*
X183128930Y-95997736D01*
X183129538Y-95998536D01*
X183142578Y-96015216D01*
X183143201Y-96015991D01*
X183200459Y-96073249D01*
X183256152Y-96132042D01*
X183256983Y-96132747D01*
X183274119Y-96146908D01*
X189104385Y-101977173D01*
X189107788Y-101980865D01*
X189143662Y-102023099D01*
X189208126Y-102072104D01*
X189271242Y-102122838D01*
X189271247Y-102122842D01*
X189271252Y-102122844D01*
X189272163Y-102123427D01*
X189289955Y-102134463D01*
X189290933Y-102135052D01*
X189290936Y-102135054D01*
X189364429Y-102169055D01*
X189436979Y-102205037D01*
X189436982Y-102205037D01*
X189436987Y-102205040D01*
X189438019Y-102205419D01*
X189457853Y-102212402D01*
X189458835Y-102212733D01*
X189537916Y-102230139D01*
X189616506Y-102249684D01*
X189616510Y-102249684D01*
X189616514Y-102249685D01*
X189617604Y-102249833D01*
X189638375Y-102252377D01*
X189639502Y-102252499D01*
X189639503Y-102252500D01*
X189639504Y-102252500D01*
X189720469Y-102252500D01*
X189801432Y-102254693D01*
X189801432Y-102254692D01*
X189801435Y-102254693D01*
X189802479Y-102254608D01*
X189824648Y-102252500D01*
X202881913Y-102252500D01*
X202886948Y-102252705D01*
X202906562Y-102254301D01*
X202942167Y-102257201D01*
X203022392Y-102246270D01*
X203102910Y-102237514D01*
X203102914Y-102237512D01*
X203104036Y-102237266D01*
X203124307Y-102232515D01*
X203125462Y-102232228D01*
X203125462Y-102232227D01*
X203125468Y-102232227D01*
X203201486Y-102204299D01*
X203278221Y-102178444D01*
X203278227Y-102178439D01*
X203279351Y-102177920D01*
X203298123Y-102168923D01*
X203299112Y-102168433D01*
X203299116Y-102168432D01*
X203367353Y-102124815D01*
X203436736Y-102083070D01*
X203436741Y-102083065D01*
X203437669Y-102082360D01*
X203454076Y-102069533D01*
X203454986Y-102068802D01*
X203454986Y-102068801D01*
X203454989Y-102068800D01*
X203483618Y-102040170D01*
X203512249Y-102011540D01*
X203548542Y-101977161D01*
X203571041Y-101955849D01*
X203571045Y-101955842D01*
X203571757Y-101955005D01*
X203585904Y-101937883D01*
X205433786Y-100090000D01*
X212963179Y-100090000D01*
X212982424Y-100309976D01*
X212982426Y-100309986D01*
X213039575Y-100523270D01*
X213039580Y-100523284D01*
X213132899Y-100723407D01*
X213132900Y-100723409D01*
X213178258Y-100788187D01*
X213845096Y-100121349D01*
X213845051Y-100121898D01*
X213876266Y-100245162D01*
X213945813Y-100351612D01*
X214046157Y-100429713D01*
X214166422Y-100471000D01*
X214202553Y-100471000D01*
X213531811Y-101141741D01*
X213596582Y-101187094D01*
X213596592Y-101187100D01*
X213796715Y-101280419D01*
X213796729Y-101280424D01*
X214010013Y-101337573D01*
X214010023Y-101337575D01*
X214229999Y-101356821D01*
X214230001Y-101356821D01*
X214449976Y-101337575D01*
X214449986Y-101337573D01*
X214663270Y-101280424D01*
X214663284Y-101280419D01*
X214863408Y-101187100D01*
X214863420Y-101187093D01*
X214928186Y-101141742D01*
X214928187Y-101141740D01*
X214257448Y-100471000D01*
X214261569Y-100471000D01*
X214355421Y-100455339D01*
X214467251Y-100394820D01*
X214553371Y-100301269D01*
X214604448Y-100184823D01*
X214610105Y-100116552D01*
X215281740Y-100788187D01*
X215281742Y-100788186D01*
X215327093Y-100723420D01*
X215327100Y-100723408D01*
X215420419Y-100523284D01*
X215420424Y-100523270D01*
X215477573Y-100309986D01*
X215477575Y-100309976D01*
X215496821Y-100090000D01*
X215496821Y-100089999D01*
X215477575Y-99870023D01*
X215477573Y-99870013D01*
X215420424Y-99656729D01*
X215420420Y-99656720D01*
X215327098Y-99456590D01*
X215281740Y-99391811D01*
X214614903Y-100058648D01*
X214614949Y-100058102D01*
X214583734Y-99934838D01*
X214514187Y-99828388D01*
X214413843Y-99750287D01*
X214293578Y-99709000D01*
X214257447Y-99709000D01*
X214928187Y-99038258D01*
X214863409Y-98992900D01*
X214863407Y-98992899D01*
X214663284Y-98899580D01*
X214663270Y-98899575D01*
X214449986Y-98842426D01*
X214449976Y-98842424D01*
X214230001Y-98823179D01*
X214229999Y-98823179D01*
X214010023Y-98842424D01*
X214010013Y-98842426D01*
X213796729Y-98899575D01*
X213796720Y-98899579D01*
X213596586Y-98992903D01*
X213531812Y-99038257D01*
X213531811Y-99038258D01*
X214202554Y-99709000D01*
X214198431Y-99709000D01*
X214104579Y-99724661D01*
X213992749Y-99785180D01*
X213906629Y-99878731D01*
X213855552Y-99995177D01*
X213849894Y-100063447D01*
X213178258Y-99391811D01*
X213178257Y-99391812D01*
X213132903Y-99456586D01*
X213039579Y-99656720D01*
X213039575Y-99656729D01*
X212982426Y-99870013D01*
X212982424Y-99870023D01*
X212963179Y-100089999D01*
X212963179Y-100090000D01*
X205433786Y-100090000D01*
X206408833Y-99114953D01*
X206470154Y-99081470D01*
X206516922Y-99080327D01*
X206523951Y-99081500D01*
X206523956Y-99081500D01*
X206756048Y-99081500D01*
X206756049Y-99081500D01*
X206984981Y-99043298D01*
X207204503Y-98967936D01*
X207408626Y-98857470D01*
X207461089Y-98816637D01*
X207546235Y-98750365D01*
X207591784Y-98714913D01*
X207748979Y-98544153D01*
X207806191Y-98456582D01*
X207859337Y-98411226D01*
X207928568Y-98401802D01*
X207991904Y-98431304D01*
X208013809Y-98456583D01*
X208071016Y-98544147D01*
X208071019Y-98544151D01*
X208071021Y-98544153D01*
X208228216Y-98714913D01*
X208228219Y-98714915D01*
X208228222Y-98714918D01*
X208411365Y-98857464D01*
X208411371Y-98857468D01*
X208411374Y-98857470D01*
X208615497Y-98967936D01*
X208710347Y-99000498D01*
X208835015Y-99043297D01*
X208835017Y-99043297D01*
X208835019Y-99043298D01*
X209063951Y-99081500D01*
X209063952Y-99081500D01*
X209296048Y-99081500D01*
X209296049Y-99081500D01*
X209524981Y-99043298D01*
X209744503Y-98967936D01*
X209948626Y-98857470D01*
X210001089Y-98816637D01*
X210086235Y-98750365D01*
X210131784Y-98714913D01*
X210288979Y-98544153D01*
X210415924Y-98349849D01*
X210509157Y-98137300D01*
X210509157Y-98137298D01*
X210511217Y-98132603D01*
X210512183Y-98133026D01*
X210538319Y-98091153D01*
X211398127Y-97231345D01*
X211403287Y-97226733D01*
X211433666Y-97202508D01*
X211478645Y-97151023D01*
X211481462Y-97148010D01*
X211489945Y-97139529D01*
X211516950Y-97107181D01*
X211581765Y-97032996D01*
X211584006Y-97029243D01*
X211595274Y-97013364D01*
X211598068Y-97010019D01*
X211646683Y-96924340D01*
X211697215Y-96839764D01*
X211698747Y-96835679D01*
X211707003Y-96818033D01*
X211707109Y-96817847D01*
X211709153Y-96814245D01*
X211741692Y-96721253D01*
X211776307Y-96629024D01*
X211777085Y-96624737D01*
X211782056Y-96605902D01*
X211783498Y-96601783D01*
X211798910Y-96504472D01*
X211807530Y-96456973D01*
X211816500Y-96407549D01*
X211816500Y-96403169D01*
X211818027Y-96383770D01*
X211818710Y-96379460D01*
X211816500Y-96280978D01*
X211816500Y-81595335D01*
X211836185Y-81528296D01*
X211852815Y-81507658D01*
X212445469Y-80915003D01*
X212447395Y-80913162D01*
X212508748Y-80857085D01*
X212523317Y-80837949D01*
X212528795Y-80831677D01*
X213461457Y-79899015D01*
X213463384Y-79897173D01*
X213524748Y-79841086D01*
X213539324Y-79821941D01*
X213544807Y-79815666D01*
X214548749Y-78811723D01*
X214563546Y-78799087D01*
X214567078Y-78796522D01*
X214572837Y-78790499D01*
X214635131Y-78725343D01*
X214637014Y-78723460D01*
X214664945Y-78695530D01*
X214664947Y-78695526D01*
X214665927Y-78694547D01*
X214665937Y-78694535D01*
X215672746Y-77687726D01*
X215687539Y-77675092D01*
X215691078Y-77672522D01*
X215759153Y-77601320D01*
X216188944Y-77171530D01*
X216961746Y-76398726D01*
X216976539Y-76386092D01*
X216980078Y-76383522D01*
X217011716Y-76350430D01*
X217048154Y-76312320D01*
X217077945Y-76282529D01*
X217301957Y-76058517D01*
X218231746Y-75128726D01*
X218246539Y-75116092D01*
X218250078Y-75113522D01*
X218281716Y-75080430D01*
X218318154Y-75042320D01*
X218347944Y-75012530D01*
X218384175Y-74976299D01*
X218764127Y-74596345D01*
X218769298Y-74591724D01*
X218799666Y-74567508D01*
X218844632Y-74516039D01*
X218847478Y-74512995D01*
X218855929Y-74504545D01*
X218855929Y-74504544D01*
X218855944Y-74504530D01*
X218882947Y-74472185D01*
X218947765Y-74397996D01*
X218950006Y-74394243D01*
X218961274Y-74378364D01*
X218964068Y-74375019D01*
X219012683Y-74289340D01*
X219063215Y-74204764D01*
X219064747Y-74200679D01*
X219073003Y-74183033D01*
X219073844Y-74181551D01*
X219075153Y-74179245D01*
X219107692Y-74086253D01*
X219142307Y-73994024D01*
X219143085Y-73989737D01*
X219148056Y-73970902D01*
X219149498Y-73966783D01*
X219164910Y-73869472D01*
X219170496Y-73838693D01*
X219182500Y-73772549D01*
X219182500Y-73768169D01*
X219184027Y-73748770D01*
X219184710Y-73744460D01*
X219182500Y-73645997D01*
X219182500Y-72934649D01*
X219202185Y-72867610D01*
X219254989Y-72821855D01*
X219275699Y-72814756D01*
X219277481Y-72814091D01*
X219277483Y-72814091D01*
X219412331Y-72763796D01*
X219527546Y-72677546D01*
X219527545Y-72677546D01*
X219531189Y-72674819D01*
X219596653Y-72650401D01*
X219664926Y-72665252D01*
X219714332Y-72714657D01*
X219729500Y-72774085D01*
X219729500Y-77538926D01*
X219709815Y-77605965D01*
X219693181Y-77626607D01*
X215727885Y-81591902D01*
X215722699Y-81596537D01*
X215692337Y-81620751D01*
X215692333Y-81620755D01*
X215647365Y-81672223D01*
X215644521Y-81675266D01*
X215636064Y-81683724D01*
X215636054Y-81683735D01*
X215609049Y-81716081D01*
X215544234Y-81790267D01*
X215544230Y-81790273D01*
X215541981Y-81794037D01*
X215530746Y-81809871D01*
X215527934Y-81813240D01*
X215527932Y-81813244D01*
X215479316Y-81898922D01*
X215468383Y-81917222D01*
X215428783Y-81983501D01*
X215427247Y-81987595D01*
X215419008Y-82005208D01*
X215416850Y-82009010D01*
X215416846Y-82009020D01*
X215384307Y-82102009D01*
X215349694Y-82194233D01*
X215349689Y-82194251D01*
X215348909Y-82198551D01*
X215343952Y-82217332D01*
X215342503Y-82221472D01*
X215342502Y-82221478D01*
X215327089Y-82318790D01*
X215309500Y-82415711D01*
X215309500Y-82420090D01*
X215307973Y-82439492D01*
X215307289Y-82443803D01*
X215309500Y-82542284D01*
X215309500Y-89740293D01*
X215309110Y-89747231D01*
X215306792Y-89767804D01*
X215304762Y-89785823D01*
X215304761Y-89785831D01*
X215309359Y-89854013D01*
X215309500Y-89858186D01*
X215309500Y-89870156D01*
X215313277Y-89912124D01*
X215319903Y-90010407D01*
X215319903Y-90010412D01*
X215320972Y-90014652D01*
X215324230Y-90033824D01*
X215324623Y-90038190D01*
X215350835Y-90133165D01*
X215374903Y-90228681D01*
X215376715Y-90232670D01*
X215383340Y-90250944D01*
X215384504Y-90255162D01*
X215384507Y-90255170D01*
X215427253Y-90343935D01*
X215467993Y-90433626D01*
X215467994Y-90433629D01*
X215470483Y-90437221D01*
X215480269Y-90454026D01*
X215482166Y-90457965D01*
X215482174Y-90457979D01*
X215540078Y-90537676D01*
X215596180Y-90618655D01*
X215599273Y-90621748D01*
X215611907Y-90636539D01*
X215614478Y-90640078D01*
X215614481Y-90640081D01*
X215685679Y-90708153D01*
X217661181Y-92683655D01*
X217694666Y-92744978D01*
X217697500Y-92771336D01*
X217697500Y-96169883D01*
X217677815Y-96236922D01*
X217625011Y-96282677D01*
X217555853Y-96292621D01*
X217541407Y-96289658D01*
X217396610Y-96250860D01*
X217396599Y-96250858D01*
X217170002Y-96231034D01*
X217169998Y-96231034D01*
X216943400Y-96250858D01*
X216943389Y-96250860D01*
X216723682Y-96309730D01*
X216723673Y-96309734D01*
X216517513Y-96405868D01*
X216444526Y-96456973D01*
X217125599Y-97138046D01*
X217044852Y-97150835D01*
X216931955Y-97208359D01*
X216842359Y-97297955D01*
X216784835Y-97410852D01*
X216772046Y-97491599D01*
X216090973Y-96810526D01*
X216090972Y-96810527D01*
X216039868Y-96883513D01*
X215943734Y-97089673D01*
X215943730Y-97089682D01*
X215884860Y-97309389D01*
X215884858Y-97309400D01*
X215865034Y-97535997D01*
X215865034Y-97536002D01*
X215884858Y-97762599D01*
X215884860Y-97762610D01*
X215943730Y-97982317D01*
X215943734Y-97982326D01*
X216039865Y-98188481D01*
X216039866Y-98188483D01*
X216090973Y-98261471D01*
X216090974Y-98261472D01*
X216772046Y-97580399D01*
X216784835Y-97661148D01*
X216842359Y-97774045D01*
X216931955Y-97863641D01*
X217044852Y-97921165D01*
X217125597Y-97933953D01*
X216444526Y-98615025D01*
X216444526Y-98615026D01*
X216517512Y-98666131D01*
X216517515Y-98666132D01*
X216532974Y-98673341D01*
X216585414Y-98719513D01*
X216604567Y-98786706D01*
X216584352Y-98853587D01*
X216532978Y-98898105D01*
X216517269Y-98905430D01*
X216517265Y-98905432D01*
X216330858Y-99035954D01*
X216169954Y-99196858D01*
X216039432Y-99383265D01*
X216039431Y-99383267D01*
X215943261Y-99589502D01*
X215943258Y-99589511D01*
X215884366Y-99809302D01*
X215884364Y-99809313D01*
X215864532Y-100035998D01*
X215864532Y-100036001D01*
X215884364Y-100262686D01*
X215884366Y-100262697D01*
X215943258Y-100482488D01*
X215943261Y-100482497D01*
X216039431Y-100688732D01*
X216039432Y-100688734D01*
X216169954Y-100875141D01*
X216330858Y-101036045D01*
X216330861Y-101036047D01*
X216517266Y-101166568D01*
X216723504Y-101262739D01*
X216943308Y-101321635D01*
X216969513Y-101323927D01*
X217034581Y-101349378D01*
X217075561Y-101405968D01*
X217079440Y-101475730D01*
X217046388Y-101535136D01*
X209428343Y-109153181D01*
X209367020Y-109186666D01*
X209340662Y-109189500D01*
X208212129Y-109189500D01*
X208212123Y-109189501D01*
X208152516Y-109195908D01*
X208017671Y-109246202D01*
X208017664Y-109246206D01*
X207902455Y-109332452D01*
X207902452Y-109332455D01*
X207816206Y-109447664D01*
X207816202Y-109447671D01*
X207765908Y-109582517D01*
X207759501Y-109642116D01*
X207759500Y-109642135D01*
X207759500Y-112137870D01*
X207759501Y-112137876D01*
X207765908Y-112197483D01*
X207816202Y-112332328D01*
X207816206Y-112332335D01*
X207902452Y-112447544D01*
X207902455Y-112447547D01*
X208017664Y-112533793D01*
X208017671Y-112533797D01*
X208152517Y-112584091D01*
X208152516Y-112584091D01*
X208159444Y-112584835D01*
X208212127Y-112590500D01*
X209561664Y-112590499D01*
X209628703Y-112610184D01*
X209674458Y-112662987D01*
X209684402Y-112732146D01*
X209655377Y-112795702D01*
X209649345Y-112802180D01*
X209388345Y-113063181D01*
X209327022Y-113096666D01*
X209300664Y-113099500D01*
X206645554Y-113099500D01*
X206578515Y-113079815D01*
X206532760Y-113027011D01*
X206522816Y-112957853D01*
X206524663Y-112947908D01*
X206538960Y-112885267D01*
X206554191Y-112818537D01*
X206564290Y-112593670D01*
X206534075Y-112370613D01*
X206464517Y-112156536D01*
X206454473Y-112137872D01*
X206357853Y-111958321D01*
X206357851Y-111958318D01*
X206217510Y-111782336D01*
X206217508Y-111782334D01*
X206047996Y-111634235D01*
X205854764Y-111518785D01*
X205736786Y-111474507D01*
X205644023Y-111439692D01*
X205422550Y-111399500D01*
X205422547Y-111399500D01*
X204053845Y-111399500D01*
X204015399Y-111402960D01*
X203885813Y-111414622D01*
X203885806Y-111414623D01*
X203787489Y-111441758D01*
X203717628Y-111440618D01*
X203659474Y-111401890D01*
X203631491Y-111337869D01*
X203630500Y-111322227D01*
X203630500Y-110282435D01*
X203650185Y-110215396D01*
X203702989Y-110169641D01*
X203772147Y-110159697D01*
X203776642Y-110160428D01*
X203997450Y-110200500D01*
X203997453Y-110200500D01*
X205366148Y-110200500D01*
X205366155Y-110200500D01*
X205534188Y-110185377D01*
X205534192Y-110185376D01*
X205751160Y-110125496D01*
X205751162Y-110125495D01*
X205751170Y-110125493D01*
X205953973Y-110027829D01*
X206136078Y-109895522D01*
X206291632Y-109732825D01*
X206415635Y-109544968D01*
X206504103Y-109337988D01*
X206554191Y-109118537D01*
X206564290Y-108893670D01*
X206534075Y-108670613D01*
X206464517Y-108456536D01*
X206357852Y-108258319D01*
X206284436Y-108166259D01*
X206217510Y-108082336D01*
X206207993Y-108074021D01*
X206047996Y-107934235D01*
X205854764Y-107818785D01*
X205736786Y-107774507D01*
X205644023Y-107739692D01*
X205422550Y-107699500D01*
X205422547Y-107699500D01*
X204053845Y-107699500D01*
X204015399Y-107702960D01*
X203885813Y-107714622D01*
X203885806Y-107714623D01*
X203787489Y-107741758D01*
X203717628Y-107740618D01*
X203659474Y-107701890D01*
X203631491Y-107637869D01*
X203630500Y-107622227D01*
X203630500Y-105379336D01*
X203650185Y-105312297D01*
X203666819Y-105291655D01*
X204007974Y-104950500D01*
X204363944Y-104594530D01*
X204472068Y-104465019D01*
X204583153Y-104269245D01*
X204657498Y-104056783D01*
X204668075Y-103990000D01*
X204692710Y-103834463D01*
X204690814Y-103750000D01*
X207314357Y-103750000D01*
X207334884Y-103971535D01*
X207334885Y-103971537D01*
X207395769Y-104185523D01*
X207395775Y-104185538D01*
X207494938Y-104384683D01*
X207494943Y-104384691D01*
X207629020Y-104562238D01*
X207793437Y-104712123D01*
X207793439Y-104712125D01*
X207982595Y-104829245D01*
X207982596Y-104829245D01*
X207982599Y-104829247D01*
X208190060Y-104909618D01*
X208408757Y-104950500D01*
X208408759Y-104950500D01*
X208631241Y-104950500D01*
X208631243Y-104950500D01*
X208849940Y-104909618D01*
X209057401Y-104829247D01*
X209246562Y-104712124D01*
X209410981Y-104562236D01*
X209545058Y-104384689D01*
X209644229Y-104185528D01*
X209705115Y-103971536D01*
X209725643Y-103750000D01*
X209705115Y-103528464D01*
X209644229Y-103314472D01*
X209619595Y-103265000D01*
X209545061Y-103115316D01*
X209545056Y-103115308D01*
X209410979Y-102937761D01*
X209246562Y-102787876D01*
X209246560Y-102787874D01*
X209057404Y-102670754D01*
X209057398Y-102670752D01*
X208849940Y-102590382D01*
X208631243Y-102549500D01*
X208408757Y-102549500D01*
X208190060Y-102590382D01*
X208058864Y-102641207D01*
X207982601Y-102670752D01*
X207982595Y-102670754D01*
X207793439Y-102787874D01*
X207793437Y-102787876D01*
X207629020Y-102937761D01*
X207494943Y-103115308D01*
X207494938Y-103115316D01*
X207395775Y-103314461D01*
X207395769Y-103314476D01*
X207334885Y-103528462D01*
X207334884Y-103528464D01*
X207314357Y-103749999D01*
X207314357Y-103750000D01*
X204690814Y-103750000D01*
X204690814Y-103749999D01*
X204687659Y-103609422D01*
X204642508Y-103388904D01*
X204558707Y-103179991D01*
X204438949Y-102989398D01*
X204438948Y-102989397D01*
X204438947Y-102989395D01*
X204287087Y-102823253D01*
X204287081Y-102823248D01*
X204107994Y-102686891D01*
X204107990Y-102686889D01*
X203907434Y-102584701D01*
X203907430Y-102584699D01*
X203691851Y-102519964D01*
X203468178Y-102494763D01*
X203468167Y-102494762D01*
X203243589Y-102509903D01*
X203243586Y-102509903D01*
X203025320Y-102564902D01*
X203025317Y-102564903D01*
X202820377Y-102657991D01*
X202820375Y-102657992D01*
X202635341Y-102786183D01*
X201547885Y-103873639D01*
X201542699Y-103878274D01*
X201512337Y-103902488D01*
X201512333Y-103902492D01*
X201467365Y-103953960D01*
X201464521Y-103957003D01*
X201456064Y-103965461D01*
X201456054Y-103965472D01*
X201429049Y-103997818D01*
X201364234Y-104072004D01*
X201364230Y-104072010D01*
X201361981Y-104075774D01*
X201350746Y-104091608D01*
X201347934Y-104094977D01*
X201347932Y-104094981D01*
X201299316Y-104180659D01*
X201278799Y-104215000D01*
X201248783Y-104265238D01*
X201247247Y-104269332D01*
X201239008Y-104286945D01*
X201236850Y-104290747D01*
X201236846Y-104290757D01*
X201204307Y-104383746D01*
X201169694Y-104475970D01*
X201169689Y-104475988D01*
X201168909Y-104480288D01*
X201163952Y-104499069D01*
X201162503Y-104503209D01*
X201162502Y-104503215D01*
X201147089Y-104600527D01*
X201129500Y-104697448D01*
X201129500Y-104701827D01*
X201127973Y-104721229D01*
X201127289Y-104725540D01*
X201129500Y-104824021D01*
X201129500Y-113250456D01*
X201129110Y-113257394D01*
X201127631Y-113270527D01*
X201124762Y-113295986D01*
X201124761Y-113295994D01*
X201129359Y-113364176D01*
X201129500Y-113368349D01*
X201129500Y-113380319D01*
X201133277Y-113422287D01*
X201139903Y-113520570D01*
X201139903Y-113520575D01*
X201140972Y-113524815D01*
X201144230Y-113543987D01*
X201144623Y-113548353D01*
X201170835Y-113643328D01*
X201194903Y-113738844D01*
X201196715Y-113742833D01*
X201203340Y-113761107D01*
X201204504Y-113765325D01*
X201204507Y-113765333D01*
X201247253Y-113854098D01*
X201287993Y-113943789D01*
X201287994Y-113943792D01*
X201290483Y-113947384D01*
X201300269Y-113964189D01*
X201302166Y-113968128D01*
X201302174Y-113968142D01*
X201360078Y-114047839D01*
X201416180Y-114128818D01*
X201419273Y-114131911D01*
X201431907Y-114146702D01*
X201434478Y-114150241D01*
X201434481Y-114150244D01*
X201505679Y-114218316D01*
X202469479Y-115182116D01*
X202474116Y-115187304D01*
X202498329Y-115217666D01*
X202549804Y-115262639D01*
X202552837Y-115265474D01*
X202561306Y-115273943D01*
X202561315Y-115273951D01*
X202587153Y-115295522D01*
X202593656Y-115300951D01*
X202667841Y-115365765D01*
X202671590Y-115368005D01*
X202687459Y-115379264D01*
X202690817Y-115382067D01*
X202690820Y-115382070D01*
X202771455Y-115427823D01*
X202776510Y-115430691D01*
X202861073Y-115481215D01*
X202865159Y-115482748D01*
X202882793Y-115490997D01*
X202886593Y-115493154D01*
X202979592Y-115525695D01*
X203071813Y-115560307D01*
X203076103Y-115561085D01*
X203094931Y-115566055D01*
X203099055Y-115567498D01*
X203196376Y-115582912D01*
X203216935Y-115586643D01*
X203293288Y-115600500D01*
X203293290Y-115600500D01*
X203297659Y-115600500D01*
X203317057Y-115602026D01*
X203321378Y-115602711D01*
X203419885Y-115600500D01*
X203486879Y-115600500D01*
X203553918Y-115620185D01*
X203599673Y-115672989D01*
X203609617Y-115742147D01*
X203580592Y-115805703D01*
X203540680Y-115836220D01*
X203466033Y-115872167D01*
X203466025Y-115872171D01*
X203283927Y-116004473D01*
X203283925Y-116004474D01*
X203128366Y-116167176D01*
X203004363Y-116355033D01*
X202915899Y-116562004D01*
X202915895Y-116562017D01*
X202865810Y-116781457D01*
X202865808Y-116781468D01*
X202860769Y-116893674D01*
X202855710Y-117006330D01*
X202885925Y-117229387D01*
X202885926Y-117229390D01*
X202955483Y-117443465D01*
X203062146Y-117641678D01*
X203062148Y-117641681D01*
X203202489Y-117817663D01*
X203202491Y-117817664D01*
X203202492Y-117817666D01*
X203372004Y-117965765D01*
X203565236Y-118081215D01*
X203775976Y-118160307D01*
X203997450Y-118200500D01*
X203997453Y-118200500D01*
X205366148Y-118200500D01*
X205366155Y-118200500D01*
X205534188Y-118185377D01*
X205534192Y-118185376D01*
X205751160Y-118125496D01*
X205751162Y-118125495D01*
X205751170Y-118125493D01*
X205953973Y-118027829D01*
X206136078Y-117895522D01*
X206291632Y-117732825D01*
X206415635Y-117544968D01*
X206504103Y-117337988D01*
X206554191Y-117118537D01*
X206564290Y-116893670D01*
X206534075Y-116670613D01*
X206464517Y-116456536D01*
X206357852Y-116258319D01*
X206285167Y-116167175D01*
X206217510Y-116082336D01*
X206047999Y-115934237D01*
X206033414Y-115925523D01*
X205875120Y-115830947D01*
X205827668Y-115779665D01*
X205815473Y-115710868D01*
X205842408Y-115646399D01*
X205899922Y-115606726D01*
X205938721Y-115600500D01*
X209796293Y-115600500D01*
X209803231Y-115600889D01*
X209841827Y-115605238D01*
X209841829Y-115605237D01*
X209841830Y-115605238D01*
X209859586Y-115604040D01*
X209910032Y-115600639D01*
X209914188Y-115600500D01*
X209926147Y-115600500D01*
X209926155Y-115600500D01*
X209968123Y-115596722D01*
X210066412Y-115590096D01*
X210070646Y-115589028D01*
X210089841Y-115585767D01*
X210094188Y-115585377D01*
X210189165Y-115559164D01*
X210284683Y-115535096D01*
X210288655Y-115533291D01*
X210306962Y-115526654D01*
X210311170Y-115525493D01*
X210399935Y-115482746D01*
X210489626Y-115442007D01*
X210493220Y-115439516D01*
X210510035Y-115429724D01*
X210513973Y-115427829D01*
X210593676Y-115369921D01*
X210674654Y-115313820D01*
X210677743Y-115310730D01*
X210692545Y-115298088D01*
X210696078Y-115295522D01*
X210764153Y-115224320D01*
X212103945Y-113884529D01*
X224162127Y-101826345D01*
X224167287Y-101821733D01*
X224197666Y-101797508D01*
X224242645Y-101746023D01*
X224245462Y-101743010D01*
X224253945Y-101734529D01*
X224280945Y-101702187D01*
X224345765Y-101627996D01*
X224348002Y-101624250D01*
X224359269Y-101608369D01*
X224362068Y-101605018D01*
X224410685Y-101519336D01*
X224461215Y-101434764D01*
X224462749Y-101430675D01*
X224470998Y-101413044D01*
X224473154Y-101409245D01*
X224505698Y-101316237D01*
X224540307Y-101224024D01*
X224541085Y-101219730D01*
X224546054Y-101200906D01*
X224547498Y-101196782D01*
X224562913Y-101099457D01*
X224568775Y-101067153D01*
X224580500Y-101002549D01*
X224580500Y-100998176D01*
X224582027Y-100978778D01*
X224582710Y-100974465D01*
X224582711Y-100974460D01*
X224580500Y-100875952D01*
X224580500Y-93664758D01*
X224600185Y-93597719D01*
X224652989Y-93551964D01*
X224722147Y-93542020D01*
X224785703Y-93571045D01*
X224792181Y-93577077D01*
X224958599Y-93743495D01*
X225036610Y-93798119D01*
X225152165Y-93879032D01*
X225152167Y-93879033D01*
X225152170Y-93879035D01*
X225366337Y-93978903D01*
X225366343Y-93978904D01*
X225366344Y-93978905D01*
X225387408Y-93984549D01*
X225594592Y-94040063D01*
X225782918Y-94056539D01*
X225829999Y-94060659D01*
X225830000Y-94060659D01*
X225830001Y-94060659D01*
X225869234Y-94057226D01*
X226065408Y-94040063D01*
X226293663Y-93978903D01*
X226507829Y-93879035D01*
X226701401Y-93743495D01*
X226868495Y-93576401D01*
X227004035Y-93382829D01*
X227103903Y-93168663D01*
X227165063Y-92940408D01*
X227180500Y-92763966D01*
X227180500Y-92396034D01*
X227165063Y-92219592D01*
X227118626Y-92046285D01*
X227103905Y-91991344D01*
X227103904Y-91991343D01*
X227103903Y-91991337D01*
X227004035Y-91777171D01*
X227002132Y-91774452D01*
X226868494Y-91583597D01*
X226701402Y-91416506D01*
X226701395Y-91416501D01*
X226507834Y-91280967D01*
X226507830Y-91280965D01*
X226413995Y-91237209D01*
X226293663Y-91181097D01*
X226293659Y-91181096D01*
X226293655Y-91181094D01*
X226065413Y-91119938D01*
X226065403Y-91119936D01*
X225830001Y-91099341D01*
X225829999Y-91099341D01*
X225594596Y-91119936D01*
X225594586Y-91119938D01*
X225366344Y-91181094D01*
X225366335Y-91181098D01*
X225152171Y-91280964D01*
X225152169Y-91280965D01*
X224958597Y-91416505D01*
X224791505Y-91583597D01*
X224681575Y-91740595D01*
X224626998Y-91784220D01*
X224557500Y-91791414D01*
X224495145Y-91759891D01*
X224478425Y-91740595D01*
X224368494Y-91583597D01*
X224201402Y-91416506D01*
X224201395Y-91416501D01*
X224007834Y-91280967D01*
X224007830Y-91280965D01*
X223913995Y-91237209D01*
X223793663Y-91181097D01*
X223793659Y-91181096D01*
X223793655Y-91181094D01*
X223565413Y-91119938D01*
X223565403Y-91119936D01*
X223330001Y-91099341D01*
X223329999Y-91099341D01*
X223094596Y-91119936D01*
X223094586Y-91119938D01*
X222866344Y-91181094D01*
X222866335Y-91181098D01*
X222652171Y-91280964D01*
X222652169Y-91280965D01*
X222458597Y-91416505D01*
X222311035Y-91564068D01*
X222249712Y-91597553D01*
X222180020Y-91592569D01*
X222124087Y-91550697D01*
X222117815Y-91541484D01*
X222022315Y-91386654D01*
X221898345Y-91262684D01*
X221749124Y-91170643D01*
X221749119Y-91170641D01*
X221582697Y-91115494D01*
X221582690Y-91115493D01*
X221479986Y-91105000D01*
X221080000Y-91105000D01*
X221080000Y-92171981D01*
X220965199Y-92119554D01*
X220863975Y-92105000D01*
X220796025Y-92105000D01*
X220694801Y-92119554D01*
X220580000Y-92171981D01*
X220580000Y-91105000D01*
X220180028Y-91105000D01*
X220180012Y-91105001D01*
X220077302Y-91115494D01*
X219910880Y-91170641D01*
X219910871Y-91170645D01*
X219854691Y-91205298D01*
X219787299Y-91223738D01*
X219720635Y-91202815D01*
X219701914Y-91187440D01*
X217846819Y-89332345D01*
X217813334Y-89271022D01*
X217810500Y-89244664D01*
X217810500Y-88050000D01*
X219524357Y-88050000D01*
X219544884Y-88271535D01*
X219544885Y-88271537D01*
X219605769Y-88485523D01*
X219605775Y-88485538D01*
X219704938Y-88684683D01*
X219704943Y-88684691D01*
X219839020Y-88862238D01*
X220003437Y-89012123D01*
X220003439Y-89012125D01*
X220192595Y-89129245D01*
X220192596Y-89129245D01*
X220192599Y-89129247D01*
X220400060Y-89209618D01*
X220618757Y-89250500D01*
X220618759Y-89250500D01*
X220841241Y-89250500D01*
X220841243Y-89250500D01*
X221059940Y-89209618D01*
X221267401Y-89129247D01*
X221456562Y-89012124D01*
X221620981Y-88862236D01*
X221755058Y-88684689D01*
X221854229Y-88485528D01*
X221907016Y-88300000D01*
X224633505Y-88300000D01*
X224686239Y-88485349D01*
X224785368Y-88684425D01*
X224919391Y-88861900D01*
X225083738Y-89011721D01*
X225272820Y-89128797D01*
X225272822Y-89128798D01*
X225480195Y-89209135D01*
X225560000Y-89224052D01*
X225560000Y-88300000D01*
X224633505Y-88300000D01*
X221907016Y-88300000D01*
X221915115Y-88271536D01*
X221932928Y-88079302D01*
X225456372Y-88079302D01*
X225485047Y-88192538D01*
X225548936Y-88290327D01*
X225641115Y-88362072D01*
X225751595Y-88400000D01*
X225839005Y-88400000D01*
X225925216Y-88385614D01*
X226027947Y-88330019D01*
X226055581Y-88300000D01*
X226060000Y-88300000D01*
X226060000Y-89224052D01*
X226139804Y-89209135D01*
X226347177Y-89128798D01*
X226347179Y-89128797D01*
X226536261Y-89011721D01*
X226700608Y-88861900D01*
X226834631Y-88684425D01*
X226933760Y-88485349D01*
X226986495Y-88300000D01*
X226060000Y-88300000D01*
X226055581Y-88300000D01*
X226107060Y-88244079D01*
X226153982Y-88137108D01*
X226163628Y-88020698D01*
X226134953Y-87907462D01*
X226071064Y-87809673D01*
X225978885Y-87737928D01*
X225868405Y-87700000D01*
X225780995Y-87700000D01*
X225694784Y-87714386D01*
X225592053Y-87769981D01*
X225512940Y-87855921D01*
X225466018Y-87962892D01*
X225456372Y-88079302D01*
X221932928Y-88079302D01*
X221935643Y-88050000D01*
X221915115Y-87828464D01*
X221907016Y-87800000D01*
X224633505Y-87800000D01*
X225560000Y-87800000D01*
X225560000Y-86875946D01*
X225480200Y-86890864D01*
X225272822Y-86971201D01*
X225272820Y-86971202D01*
X225083738Y-87088278D01*
X224919391Y-87238099D01*
X224785368Y-87415574D01*
X224686239Y-87614650D01*
X224633505Y-87800000D01*
X221907016Y-87800000D01*
X221854229Y-87614472D01*
X221854224Y-87614461D01*
X221755061Y-87415316D01*
X221755056Y-87415308D01*
X221620979Y-87237761D01*
X221456562Y-87087876D01*
X221456560Y-87087874D01*
X221267404Y-86970754D01*
X221267398Y-86970752D01*
X221059940Y-86890382D01*
X220841243Y-86849500D01*
X220618757Y-86849500D01*
X220400060Y-86890382D01*
X220268864Y-86941207D01*
X220192601Y-86970752D01*
X220192595Y-86970754D01*
X220003439Y-87087874D01*
X220003437Y-87087876D01*
X219839020Y-87237761D01*
X219704943Y-87415308D01*
X219704938Y-87415316D01*
X219605775Y-87614461D01*
X219605769Y-87614476D01*
X219544885Y-87828462D01*
X219544884Y-87828464D01*
X219524357Y-88049999D01*
X219524357Y-88050000D01*
X217810500Y-88050000D01*
X217810500Y-85225429D01*
X217830185Y-85158390D01*
X217882989Y-85112635D01*
X217952147Y-85102691D01*
X217966587Y-85105652D01*
X218007253Y-85116549D01*
X218159215Y-85129844D01*
X218219998Y-85135162D01*
X218220000Y-85135162D01*
X218220002Y-85135162D01*
X218273186Y-85130508D01*
X218432747Y-85116549D01*
X218639030Y-85061276D01*
X218832581Y-84971021D01*
X219007519Y-84848529D01*
X219158529Y-84697519D01*
X219281021Y-84522581D01*
X219371276Y-84329030D01*
X219371280Y-84329013D01*
X219373130Y-84323936D01*
X219375253Y-84324709D01*
X219406576Y-84273305D01*
X219469419Y-84242766D01*
X219538796Y-84251050D01*
X219592680Y-84295528D01*
X219605827Y-84324315D01*
X219606870Y-84323936D01*
X219608722Y-84329023D01*
X219608724Y-84329030D01*
X219643434Y-84403465D01*
X219698977Y-84522578D01*
X219821472Y-84697521D01*
X219972478Y-84848527D01*
X219972481Y-84848529D01*
X220147419Y-84971021D01*
X220147421Y-84971022D01*
X220147420Y-84971022D01*
X220211936Y-85001106D01*
X220340970Y-85061276D01*
X220547253Y-85116549D01*
X220699215Y-85129844D01*
X220759998Y-85135162D01*
X220760000Y-85135162D01*
X220760002Y-85135162D01*
X220813186Y-85130508D01*
X220972747Y-85116549D01*
X221179030Y-85061276D01*
X221372581Y-84971021D01*
X221547519Y-84848529D01*
X221698529Y-84697519D01*
X221821021Y-84522581D01*
X221902016Y-84348887D01*
X221948187Y-84296450D01*
X222015381Y-84277298D01*
X222082262Y-84297514D01*
X222127596Y-84350679D01*
X222132325Y-84362969D01*
X222139420Y-84384804D01*
X222145483Y-84403465D01*
X222252146Y-84601678D01*
X222252148Y-84601681D01*
X222392489Y-84777663D01*
X222392491Y-84777664D01*
X222392492Y-84777666D01*
X222562004Y-84925765D01*
X222755236Y-85041215D01*
X222945534Y-85112635D01*
X222965976Y-85120307D01*
X223187450Y-85160500D01*
X223187453Y-85160500D01*
X224448898Y-85160500D01*
X224515937Y-85180185D01*
X224536579Y-85196819D01*
X226048885Y-86709125D01*
X226082370Y-86770448D01*
X226077386Y-86840140D01*
X226060000Y-86864627D01*
X226060000Y-87800000D01*
X227002131Y-87800000D01*
X227022669Y-87784759D01*
X227092381Y-87780065D01*
X227153199Y-87813439D01*
X227973181Y-88633421D01*
X228006666Y-88694744D01*
X228009500Y-88721102D01*
X228009500Y-107170663D01*
X227989815Y-107237702D01*
X227973181Y-107258344D01*
X222687885Y-112543639D01*
X222682699Y-112548274D01*
X222652337Y-112572488D01*
X222652333Y-112572492D01*
X222607365Y-112623960D01*
X222604521Y-112627003D01*
X222596064Y-112635461D01*
X222596054Y-112635472D01*
X222569049Y-112667818D01*
X222504234Y-112742004D01*
X222504230Y-112742010D01*
X222501981Y-112745774D01*
X222490746Y-112761608D01*
X222487934Y-112764977D01*
X222487932Y-112764981D01*
X222439316Y-112850659D01*
X222411321Y-112897514D01*
X222388783Y-112935238D01*
X222387247Y-112939332D01*
X222379008Y-112956945D01*
X222376850Y-112960747D01*
X222376846Y-112960757D01*
X222344307Y-113053746D01*
X222309694Y-113145970D01*
X222309689Y-113145988D01*
X222308909Y-113150288D01*
X222303952Y-113169069D01*
X222302503Y-113173209D01*
X222302502Y-113173215D01*
X222287089Y-113270527D01*
X222269500Y-113367448D01*
X222269500Y-113371827D01*
X222267973Y-113391229D01*
X222267289Y-113395540D01*
X222269500Y-113494021D01*
X222269500Y-115526155D01*
X222270305Y-115535095D01*
X222284622Y-115694186D01*
X222284623Y-115694192D01*
X222344503Y-115911160D01*
X222344508Y-115911173D01*
X222442167Y-116113966D01*
X222442171Y-116113974D01*
X222574473Y-116296072D01*
X222574474Y-116296074D01*
X222737176Y-116451633D01*
X222925033Y-116575636D01*
X223132004Y-116664100D01*
X223132007Y-116664101D01*
X223132012Y-116664103D01*
X223351463Y-116714191D01*
X223576330Y-116724290D01*
X223799387Y-116694075D01*
X223914975Y-116656517D01*
X223984814Y-116654523D01*
X224044647Y-116690603D01*
X224075476Y-116753304D01*
X224067512Y-116822718D01*
X224038772Y-116864278D01*
X222529999Y-118300000D01*
X226789604Y-122551444D01*
X226823148Y-122612735D01*
X226818230Y-122682431D01*
X226790462Y-122726109D01*
X220812486Y-128811080D01*
X220810148Y-128813338D01*
X220722549Y-128893621D01*
X220575523Y-129027250D01*
X220570698Y-129031211D01*
X220451961Y-129119069D01*
X220311862Y-129220134D01*
X220307048Y-129223278D01*
X220174080Y-129301582D01*
X220028836Y-129383217D01*
X220024156Y-129385593D01*
X219881163Y-129450723D01*
X219729769Y-129514583D01*
X219725325Y-129516260D01*
X219574853Y-129566555D01*
X219418202Y-129612669D01*
X219414087Y-129613729D01*
X219258263Y-129648208D01*
X219097780Y-129676320D01*
X219094068Y-129676855D01*
X218936558Y-129694719D01*
X218933321Y-129695001D01*
X218772257Y-129704762D01*
X218769009Y-129704874D01*
X218610489Y-129706160D01*
X218606741Y-129706077D01*
X218444040Y-129697552D01*
X218285187Y-129682143D01*
X218280974Y-129681588D01*
X218119920Y-129654732D01*
X217964442Y-129622968D01*
X217959829Y-129621840D01*
X217801852Y-129576735D01*
X217652055Y-129529356D01*
X217647122Y-129527562D01*
X217515490Y-129473302D01*
X217493026Y-129464042D01*
X217351632Y-129402394D01*
X217346473Y-129399854D01*
X217195146Y-129316420D01*
X217066725Y-129243577D01*
X217061458Y-129240228D01*
X216894020Y-129121510D01*
X216803317Y-129056647D01*
X216800711Y-129054677D01*
X216761977Y-129023769D01*
X216761675Y-129023571D01*
X216486430Y-128804091D01*
X216486420Y-128804083D01*
X215833400Y-128332105D01*
X215425406Y-128065701D01*
X215381810Y-128035900D01*
X215376914Y-128034037D01*
X215158756Y-127891589D01*
X214990372Y-127792687D01*
X214706423Y-127625908D01*
X214679071Y-127609118D01*
X214676281Y-127608205D01*
X214463998Y-127483519D01*
X213962626Y-127220149D01*
X213956518Y-127216801D01*
X213955962Y-127216648D01*
X213750710Y-127108829D01*
X213750706Y-127108827D01*
X213750702Y-127108825D01*
X213387464Y-126939460D01*
X213020450Y-126768334D01*
X212366707Y-126500441D01*
X212274893Y-126462817D01*
X211515699Y-126192958D01*
X211515692Y-126192956D01*
X211515684Y-126192953D01*
X211133205Y-126077090D01*
X210744575Y-125959363D01*
X210402673Y-125873242D01*
X209963255Y-125762557D01*
X209963254Y-125762557D01*
X209173490Y-125602982D01*
X209173491Y-125602982D01*
X208377038Y-125480993D01*
X208377039Y-125480993D01*
X207684423Y-125408282D01*
X207575718Y-125396870D01*
X207119594Y-125370745D01*
X206771296Y-125350797D01*
X206079880Y-125344002D01*
X205965617Y-125342880D01*
X205965613Y-125342880D01*
X205965602Y-125342880D01*
X205454115Y-125362100D01*
X205160457Y-125373135D01*
X205160450Y-125373135D01*
X205160439Y-125373136D01*
X205160438Y-125373136D01*
X204357621Y-125441495D01*
X203807323Y-125514744D01*
X203558949Y-125547805D01*
X203558943Y-125547806D01*
X203558936Y-125547807D01*
X203558935Y-125547807D01*
X203255243Y-125602981D01*
X202766197Y-125691829D01*
X201981157Y-125873242D01*
X201981150Y-125873244D01*
X201981149Y-125873244D01*
X201205590Y-126091637D01*
X201205591Y-126091637D01*
X200441240Y-126346523D01*
X200311790Y-126396620D01*
X200308754Y-126397796D01*
X200239129Y-126403634D01*
X200177400Y-126370903D01*
X200143166Y-126309995D01*
X200140000Y-126282154D01*
X200140000Y-125190143D01*
X216183011Y-125190143D01*
X216184009Y-125204097D01*
X216184010Y-125204105D01*
X216240257Y-125462671D01*
X216332741Y-125710630D01*
X216459558Y-125942878D01*
X216459559Y-125942879D01*
X216618148Y-126154728D01*
X216618158Y-126154740D01*
X216805259Y-126341841D01*
X216805271Y-126341851D01*
X217017120Y-126500440D01*
X217017121Y-126500441D01*
X217249370Y-126627258D01*
X217249369Y-126627258D01*
X217497328Y-126719742D01*
X217755894Y-126775989D01*
X217755902Y-126775990D01*
X217769856Y-126776988D01*
X217769857Y-126776988D01*
X217769857Y-125755462D01*
X217927414Y-125790143D01*
X218065941Y-125790143D01*
X218203659Y-125775165D01*
X218269857Y-125752860D01*
X218269857Y-126776988D01*
X218283811Y-126775990D01*
X218283819Y-126775989D01*
X218542385Y-126719742D01*
X218790344Y-126627258D01*
X219022592Y-126500441D01*
X219022593Y-126500440D01*
X219234442Y-126341851D01*
X219234454Y-126341841D01*
X219421555Y-126154740D01*
X219421565Y-126154728D01*
X219580154Y-125942879D01*
X219580155Y-125942878D01*
X219706972Y-125710630D01*
X219799456Y-125462671D01*
X219855703Y-125204105D01*
X219855704Y-125204097D01*
X219856702Y-125190143D01*
X218835233Y-125190143D01*
X218843704Y-125168883D01*
X218873615Y-124986432D01*
X218863606Y-124801817D01*
X218832599Y-124690143D01*
X219856703Y-124690143D01*
X219856702Y-124690142D01*
X219855704Y-124676188D01*
X219855703Y-124676180D01*
X219799456Y-124417614D01*
X219706972Y-124169655D01*
X219580155Y-123937407D01*
X219580154Y-123937406D01*
X219421565Y-123725557D01*
X219421555Y-123725545D01*
X219234454Y-123538444D01*
X219234442Y-123538434D01*
X219022593Y-123379845D01*
X219022592Y-123379844D01*
X218790343Y-123253027D01*
X218790344Y-123253027D01*
X218542385Y-123160543D01*
X218283817Y-123104296D01*
X218283807Y-123104294D01*
X218269857Y-123103295D01*
X218269857Y-124124823D01*
X218112300Y-124090143D01*
X217973773Y-124090143D01*
X217836055Y-124105121D01*
X217769857Y-124127425D01*
X217769857Y-123103296D01*
X217769856Y-123103295D01*
X217755906Y-123104294D01*
X217755896Y-123104296D01*
X217497328Y-123160543D01*
X217249369Y-123253027D01*
X217017121Y-123379844D01*
X217017120Y-123379845D01*
X216805271Y-123538434D01*
X216805259Y-123538444D01*
X216618158Y-123725545D01*
X216618148Y-123725557D01*
X216459559Y-123937406D01*
X216459558Y-123937407D01*
X216332741Y-124169655D01*
X216240257Y-124417614D01*
X216184010Y-124676180D01*
X216184009Y-124676188D01*
X216183011Y-124690142D01*
X216183011Y-124690143D01*
X217204481Y-124690143D01*
X217196010Y-124711403D01*
X217166099Y-124893854D01*
X217176108Y-125078469D01*
X217207115Y-125190143D01*
X216183011Y-125190143D01*
X200140000Y-125190143D01*
X200140000Y-122340000D01*
X186873672Y-122340000D01*
X186806633Y-122320315D01*
X186760878Y-122267511D01*
X186757483Y-122259315D01*
X186743695Y-122222328D01*
X186495492Y-121517663D01*
X186343638Y-121086539D01*
X186210424Y-120706330D01*
X202855710Y-120706330D01*
X202885925Y-120929387D01*
X202885926Y-120929390D01*
X202955483Y-121143465D01*
X203062146Y-121341678D01*
X203062148Y-121341681D01*
X203202489Y-121517663D01*
X203202491Y-121517664D01*
X203202492Y-121517666D01*
X203372004Y-121665765D01*
X203565236Y-121781215D01*
X203775976Y-121860307D01*
X203997450Y-121900500D01*
X203997453Y-121900500D01*
X205366148Y-121900500D01*
X205366155Y-121900500D01*
X205534188Y-121885377D01*
X205547993Y-121881567D01*
X205751160Y-121825496D01*
X205751162Y-121825495D01*
X205751170Y-121825493D01*
X205953973Y-121727829D01*
X206136078Y-121595522D01*
X206291632Y-121432825D01*
X206379309Y-121300000D01*
X207773968Y-121300000D01*
X207774274Y-121304079D01*
X207774275Y-121304086D01*
X207830967Y-121552475D01*
X207830973Y-121552494D01*
X207924058Y-121789671D01*
X207924057Y-121789671D01*
X208051455Y-122010328D01*
X208210320Y-122209540D01*
X208397097Y-122382842D01*
X208607616Y-122526371D01*
X208607624Y-122526376D01*
X208837176Y-122636921D01*
X208837174Y-122636921D01*
X209080652Y-122712024D01*
X209080660Y-122712026D01*
X209210000Y-122731520D01*
X209210000Y-121595881D01*
X209303369Y-121634556D01*
X209420677Y-121650000D01*
X209499323Y-121650000D01*
X209616631Y-121634556D01*
X209710000Y-121595881D01*
X209710000Y-122731519D01*
X209839339Y-122712026D01*
X209839347Y-122712024D01*
X210082824Y-122636921D01*
X210312376Y-122526376D01*
X210312377Y-122526375D01*
X210522905Y-122382840D01*
X210690084Y-122227721D01*
X218513866Y-122227721D01*
X218535811Y-122320315D01*
X218554325Y-122398434D01*
X218593694Y-122476824D01*
X218633063Y-122555215D01*
X218698320Y-122635323D01*
X220324677Y-124261680D01*
X220404785Y-124326937D01*
X220561567Y-124405675D01*
X220732279Y-124446134D01*
X220732281Y-124446134D01*
X220907719Y-124446134D01*
X220907721Y-124446134D01*
X221078433Y-124405675D01*
X221235215Y-124326937D01*
X221315323Y-124261680D01*
X222941680Y-122635323D01*
X223006937Y-122555215D01*
X223085675Y-122398433D01*
X223126134Y-122227721D01*
X223126134Y-122052279D01*
X223085675Y-121881567D01*
X223006937Y-121724785D01*
X222941680Y-121644677D01*
X221315323Y-120018320D01*
X221235215Y-119953063D01*
X221110559Y-119890459D01*
X221078434Y-119874325D01*
X221021529Y-119860838D01*
X220907721Y-119833866D01*
X220732279Y-119833866D01*
X220646923Y-119854095D01*
X220561565Y-119874325D01*
X220404785Y-119953063D01*
X220324676Y-120018320D01*
X218698320Y-121644676D01*
X218633063Y-121724785D01*
X218554325Y-121881565D01*
X218527352Y-121995375D01*
X218513866Y-122052279D01*
X218513866Y-122227721D01*
X210690084Y-122227721D01*
X210709679Y-122209540D01*
X210868544Y-122010328D01*
X210995941Y-121789671D01*
X211089026Y-121552494D01*
X211089032Y-121552475D01*
X211145724Y-121304086D01*
X211145725Y-121304079D01*
X211146032Y-121300000D01*
X210005882Y-121300000D01*
X210044556Y-121206631D01*
X210065177Y-121050000D01*
X210044556Y-120893369D01*
X210005882Y-120800000D01*
X211146031Y-120800000D01*
X211145725Y-120795920D01*
X211145724Y-120795913D01*
X211089032Y-120547524D01*
X211089026Y-120547505D01*
X210995941Y-120310328D01*
X210995942Y-120310328D01*
X210868544Y-120089671D01*
X210709679Y-119890459D01*
X210522905Y-119717159D01*
X210312377Y-119573624D01*
X210312376Y-119573623D01*
X210082823Y-119463078D01*
X210082825Y-119463078D01*
X209839354Y-119387977D01*
X209839348Y-119387976D01*
X209710000Y-119368479D01*
X209710000Y-120504118D01*
X209616631Y-120465444D01*
X209499323Y-120450000D01*
X209420677Y-120450000D01*
X209303369Y-120465444D01*
X209210000Y-120504118D01*
X209210000Y-119368479D01*
X209080651Y-119387976D01*
X209080645Y-119387977D01*
X208837175Y-119463078D01*
X208607624Y-119573623D01*
X208607616Y-119573628D01*
X208397097Y-119717157D01*
X208210320Y-119890459D01*
X208051455Y-120089671D01*
X207924058Y-120310328D01*
X207830973Y-120547505D01*
X207830967Y-120547524D01*
X207774275Y-120795913D01*
X207774274Y-120795920D01*
X207773968Y-120800000D01*
X208914118Y-120800000D01*
X208875444Y-120893369D01*
X208854823Y-121050000D01*
X208875444Y-121206631D01*
X208914118Y-121300000D01*
X207773968Y-121300000D01*
X206379309Y-121300000D01*
X206415635Y-121244968D01*
X206504103Y-121037988D01*
X206554191Y-120818537D01*
X206564290Y-120593670D01*
X206534075Y-120370613D01*
X206464517Y-120156536D01*
X206357852Y-119958319D01*
X206217508Y-119782334D01*
X206047996Y-119634235D01*
X205854764Y-119518785D01*
X205736775Y-119474503D01*
X205644023Y-119439692D01*
X205422550Y-119399500D01*
X205422547Y-119399500D01*
X204053845Y-119399500D01*
X204015399Y-119402960D01*
X203885813Y-119414622D01*
X203885807Y-119414623D01*
X203668839Y-119474503D01*
X203668826Y-119474508D01*
X203466033Y-119572167D01*
X203466025Y-119572171D01*
X203283927Y-119704473D01*
X203283925Y-119704474D01*
X203128366Y-119867176D01*
X203004363Y-120055033D01*
X202915899Y-120262004D01*
X202915895Y-120262017D01*
X202865810Y-120481457D01*
X202865808Y-120481468D01*
X202860769Y-120593674D01*
X202855710Y-120706330D01*
X186210424Y-120706330D01*
X186068364Y-120300874D01*
X185701294Y-119190622D01*
X185430783Y-118366558D01*
X185091859Y-117270731D01*
X184831199Y-116420134D01*
X184517761Y-115332584D01*
X184269859Y-114462405D01*
X184247062Y-114377139D01*
X183980340Y-113379527D01*
X183978311Y-113371827D01*
X183746965Y-112494090D01*
X183611324Y-111944335D01*
X192049500Y-111944335D01*
X192051834Y-111958321D01*
X192090429Y-112189616D01*
X192171169Y-112424802D01*
X192171172Y-112424811D01*
X192289524Y-112643506D01*
X192289526Y-112643509D01*
X192442262Y-112839744D01*
X192573715Y-112960755D01*
X192625217Y-113008166D01*
X192833393Y-113144173D01*
X193061118Y-113244063D01*
X193165622Y-113270527D01*
X193302179Y-113305108D01*
X193302181Y-113305108D01*
X193302186Y-113305109D01*
X193435376Y-113316145D01*
X193487933Y-113320500D01*
X193487935Y-113320500D01*
X195612065Y-113320500D01*
X195612067Y-113320500D01*
X195673284Y-113315427D01*
X195797813Y-113305109D01*
X195797816Y-113305108D01*
X195797821Y-113305108D01*
X196038881Y-113244063D01*
X196266607Y-113144173D01*
X196474785Y-113008164D01*
X196657738Y-112839744D01*
X196810474Y-112643509D01*
X196928828Y-112424810D01*
X197009571Y-112189614D01*
X197050500Y-111944335D01*
X197050500Y-111695665D01*
X197009571Y-111450386D01*
X196928828Y-111215190D01*
X196810474Y-110996491D01*
X196657738Y-110800256D01*
X196474785Y-110631836D01*
X196474782Y-110631833D01*
X196266606Y-110495826D01*
X196038881Y-110395936D01*
X195797824Y-110334892D01*
X195797813Y-110334890D01*
X195632548Y-110321197D01*
X195612067Y-110319500D01*
X193487933Y-110319500D01*
X193468521Y-110321108D01*
X193302186Y-110334890D01*
X193302175Y-110334892D01*
X193061118Y-110395936D01*
X192833393Y-110495826D01*
X192625217Y-110631833D01*
X192442261Y-110800257D01*
X192289524Y-110996493D01*
X192171172Y-111215188D01*
X192171169Y-111215197D01*
X192090429Y-111450383D01*
X192086404Y-111474507D01*
X192049500Y-111695665D01*
X192049500Y-111944335D01*
X183611324Y-111944335D01*
X183480452Y-111413909D01*
X183262712Y-110515931D01*
X183244296Y-110434550D01*
X183018516Y-109436824D01*
X182817308Y-108528790D01*
X182595040Y-107450022D01*
X182410882Y-106533247D01*
X182301378Y-105944334D01*
X192049500Y-105944334D01*
X192090429Y-106189616D01*
X192171169Y-106424802D01*
X192171172Y-106424811D01*
X192229809Y-106533162D01*
X192289526Y-106643509D01*
X192442262Y-106839744D01*
X192601744Y-106986557D01*
X192625217Y-107008166D01*
X192833393Y-107144173D01*
X193061118Y-107244063D01*
X193151015Y-107266828D01*
X193302179Y-107305108D01*
X193302181Y-107305108D01*
X193302186Y-107305109D01*
X193435376Y-107316145D01*
X193487933Y-107320500D01*
X193487935Y-107320500D01*
X195612065Y-107320500D01*
X195612067Y-107320500D01*
X195673284Y-107315427D01*
X195797813Y-107305109D01*
X195797816Y-107305108D01*
X195797821Y-107305108D01*
X196038881Y-107244063D01*
X196266607Y-107144173D01*
X196474785Y-107008164D01*
X196657738Y-106839744D01*
X196810474Y-106643509D01*
X196928828Y-106424810D01*
X197009571Y-106189614D01*
X197050500Y-105944335D01*
X197050500Y-105695665D01*
X197009571Y-105450386D01*
X196928828Y-105215190D01*
X196810474Y-104996491D01*
X196657738Y-104800256D01*
X196474785Y-104631836D01*
X196474782Y-104631833D01*
X196266606Y-104495826D01*
X196038881Y-104395936D01*
X195797824Y-104334892D01*
X195797813Y-104334890D01*
X195632548Y-104321197D01*
X195612067Y-104319500D01*
X193487933Y-104319500D01*
X193468521Y-104321108D01*
X193302186Y-104334890D01*
X193302175Y-104334892D01*
X193061118Y-104395936D01*
X192833393Y-104495826D01*
X192625217Y-104631833D01*
X192442261Y-104800257D01*
X192289524Y-104996493D01*
X192171172Y-105215188D01*
X192171169Y-105215197D01*
X192090429Y-105450383D01*
X192049500Y-105695665D01*
X192049500Y-105944334D01*
X182301378Y-105944334D01*
X182210281Y-105454414D01*
X182194806Y-105368597D01*
X182043622Y-104530241D01*
X181864473Y-103450965D01*
X181836571Y-103276507D01*
X181715634Y-102520340D01*
X181557792Y-101440457D01*
X181556997Y-101434765D01*
X181427086Y-100504602D01*
X181290414Y-99423810D01*
X181285569Y-99383265D01*
X181178056Y-98483621D01*
X181169421Y-98402795D01*
X181062502Y-97402052D01*
X180968642Y-96458210D01*
X180874168Y-95376091D01*
X180798920Y-94429130D01*
X180725477Y-93346468D01*
X180668956Y-92397197D01*
X180616510Y-91313988D01*
X180616185Y-91305778D01*
X180578796Y-90363264D01*
X180547330Y-89279587D01*
X180528464Y-88328047D01*
X180517978Y-87244259D01*
X180517978Y-86292235D01*
X180521773Y-85899991D01*
X180528464Y-85208536D01*
X180540496Y-84601678D01*
X180547333Y-84256794D01*
X180578794Y-83173295D01*
X180616512Y-82222474D01*
X180668958Y-81139265D01*
X180725469Y-80190168D01*
X180798922Y-79107343D01*
X180874159Y-78160520D01*
X180968640Y-77078311D01*
X180978747Y-76976679D01*
X181062518Y-76134298D01*
X181178058Y-75052859D01*
X181205889Y-74819981D01*
X181290414Y-74112691D01*
X181427090Y-73031861D01*
X181557783Y-72096099D01*
X181715636Y-71016147D01*
X181864459Y-70085615D01*
X182043628Y-69006228D01*
X182210236Y-68082333D01*
X182410893Y-67003198D01*
X182595028Y-66086539D01*
X182714052Y-65508859D01*
X182746859Y-65447175D01*
X182807810Y-65413017D01*
X182877552Y-65417234D01*
G37*
%TD.AperFunction*%
%TA.AperFunction,Conductor*%
G36*
X218770901Y-43831633D02*
G01*
X218774044Y-43831741D01*
X218931531Y-43841286D01*
X218934714Y-43841563D01*
X219095676Y-43859820D01*
X219099328Y-43860347D01*
X219256115Y-43887812D01*
X219415472Y-43923074D01*
X219419562Y-43924127D01*
X219572289Y-43969088D01*
X219692531Y-44009282D01*
X219726530Y-44020647D01*
X219730971Y-44022324D01*
X219845257Y-44070535D01*
X219878029Y-44084359D01*
X220025167Y-44151380D01*
X220029849Y-44153757D01*
X220169953Y-44232508D01*
X220307916Y-44313759D01*
X220312724Y-44316898D01*
X220378792Y-44364563D01*
X220445573Y-44412742D01*
X220571410Y-44505860D01*
X220576241Y-44509827D01*
X220709790Y-44631245D01*
X220810914Y-44723931D01*
X220813230Y-44726170D01*
X227066077Y-51090932D01*
X227099017Y-51152550D01*
X227093415Y-51222194D01*
X227063102Y-51267661D01*
X222709999Y-55410000D01*
X226334678Y-59027735D01*
X226368222Y-59089026D01*
X226363304Y-59158722D01*
X226321487Y-59214696D01*
X226256046Y-59239176D01*
X226247081Y-59239500D01*
X224877129Y-59239500D01*
X224877123Y-59239501D01*
X224817516Y-59245908D01*
X224682671Y-59296202D01*
X224682664Y-59296206D01*
X224567455Y-59382452D01*
X224567452Y-59382455D01*
X224481206Y-59497664D01*
X224481202Y-59497671D01*
X224430908Y-59632517D01*
X224427056Y-59668352D01*
X224400318Y-59732903D01*
X224342926Y-59772752D01*
X224273101Y-59775245D01*
X224213012Y-59739593D01*
X224202192Y-59726221D01*
X224184657Y-59701179D01*
X224023820Y-59540342D01*
X223837482Y-59409865D01*
X223631328Y-59313734D01*
X223435000Y-59261127D01*
X223435000Y-60224314D01*
X223423045Y-60212359D01*
X223310148Y-60154835D01*
X223216481Y-60140000D01*
X223153519Y-60140000D01*
X223059852Y-60154835D01*
X222946955Y-60212359D01*
X222935000Y-60224314D01*
X222935000Y-59261127D01*
X222738671Y-59313734D01*
X222532517Y-59409865D01*
X222346179Y-59540342D01*
X222185342Y-59701179D01*
X222054865Y-59887517D01*
X221958734Y-60093673D01*
X221958730Y-60093682D01*
X221906127Y-60289999D01*
X221906128Y-60290000D01*
X222869314Y-60290000D01*
X222857359Y-60301955D01*
X222799835Y-60414852D01*
X222780014Y-60540000D01*
X222799835Y-60665148D01*
X222857359Y-60778045D01*
X222869314Y-60790000D01*
X221906128Y-60790000D01*
X221958730Y-60986317D01*
X221958734Y-60986326D01*
X222054865Y-61192482D01*
X222185342Y-61378820D01*
X222346179Y-61539657D01*
X222532517Y-61670134D01*
X222738673Y-61766265D01*
X222738682Y-61766269D01*
X222934999Y-61818872D01*
X222935000Y-61818871D01*
X222935000Y-60855686D01*
X222946955Y-60867641D01*
X223059852Y-60925165D01*
X223153519Y-60940000D01*
X223216481Y-60940000D01*
X223310148Y-60925165D01*
X223423045Y-60867641D01*
X223435000Y-60855686D01*
X223435000Y-61818872D01*
X223631317Y-61766269D01*
X223631326Y-61766265D01*
X223837482Y-61670134D01*
X224023820Y-61539657D01*
X224184658Y-61378819D01*
X224202190Y-61353781D01*
X224256766Y-61310155D01*
X224326264Y-61302961D01*
X224388619Y-61334482D01*
X224424034Y-61394712D01*
X224427055Y-61411647D01*
X224430907Y-61447480D01*
X224481202Y-61582328D01*
X224481206Y-61582335D01*
X224567452Y-61697544D01*
X224567455Y-61697547D01*
X224682664Y-61783793D01*
X224682671Y-61783797D01*
X224817517Y-61834091D01*
X224817516Y-61834091D01*
X224824444Y-61834835D01*
X224877127Y-61840500D01*
X226572872Y-61840499D01*
X226632483Y-61834091D01*
X226767331Y-61783796D01*
X226882546Y-61697546D01*
X226968796Y-61582331D01*
X227019091Y-61447483D01*
X227025500Y-61387873D01*
X227025499Y-60016187D01*
X227045184Y-59949149D01*
X227097987Y-59903394D01*
X227167146Y-59893450D01*
X227230702Y-59922475D01*
X227237096Y-59928423D01*
X227929999Y-60620000D01*
X227930000Y-60620000D01*
X232119974Y-56414123D01*
X232181232Y-56380523D01*
X232250933Y-56385375D01*
X232296274Y-56414738D01*
X232872876Y-57001660D01*
X239169616Y-63411101D01*
X239169645Y-63411144D01*
X239185840Y-63427615D01*
X239188151Y-63430099D01*
X239247980Y-63498023D01*
X239407704Y-63681356D01*
X239411655Y-63686395D01*
X239495653Y-63805743D01*
X239602995Y-63963678D01*
X239605993Y-63968559D01*
X239681498Y-64105326D01*
X239764826Y-64266476D01*
X239766965Y-64271063D01*
X239828777Y-64419078D01*
X239891090Y-64585892D01*
X239892466Y-64590017D01*
X239896244Y-64602827D01*
X239937978Y-64744360D01*
X239938764Y-64747289D01*
X239975654Y-64899500D01*
X239980095Y-64917824D01*
X239980861Y-64921457D01*
X240009419Y-65080288D01*
X240009966Y-65083958D01*
X240030633Y-65258209D01*
X240030914Y-65261208D01*
X240037510Y-65356558D01*
X240042019Y-65421741D01*
X240042167Y-65426125D01*
X240041868Y-65604173D01*
X240035489Y-65764457D01*
X240035082Y-65769503D01*
X240013108Y-65949596D01*
X239989978Y-66104075D01*
X239988868Y-66109703D01*
X239943268Y-66295135D01*
X239906104Y-66436280D01*
X239904153Y-66442388D01*
X239818590Y-66669111D01*
X239785858Y-66754436D01*
X239784520Y-66757651D01*
X239765062Y-66800934D01*
X239764770Y-66801806D01*
X239511729Y-67367374D01*
X238998221Y-68604731D01*
X238518728Y-69855663D01*
X238073609Y-71119234D01*
X237663195Y-72394501D01*
X237287795Y-73680510D01*
X236947687Y-74976299D01*
X236643128Y-76280902D01*
X236374343Y-77593341D01*
X236141535Y-78912638D01*
X235944877Y-80237806D01*
X235784515Y-81567854D01*
X235660571Y-82901789D01*
X235573135Y-84238613D01*
X235522275Y-85577327D01*
X235508028Y-86916932D01*
X235530404Y-88256426D01*
X235589386Y-89594807D01*
X235684932Y-90931076D01*
X235816968Y-92264234D01*
X235985397Y-93593285D01*
X236190093Y-94917235D01*
X236430903Y-96235094D01*
X236707646Y-97545879D01*
X237020117Y-98848609D01*
X237368081Y-100142311D01*
X237751278Y-101426018D01*
X238169422Y-102698771D01*
X238622200Y-103959618D01*
X239109275Y-105207617D01*
X239630282Y-106441836D01*
X239901848Y-107039057D01*
X239901858Y-107039086D01*
X239906889Y-107050144D01*
X239908124Y-107053054D01*
X239948217Y-107154636D01*
X240012593Y-107319924D01*
X240020895Y-107341238D01*
X240022808Y-107346958D01*
X240062590Y-107488414D01*
X240078269Y-107547285D01*
X240105407Y-107649187D01*
X240106574Y-107654499D01*
X240132774Y-107804960D01*
X240156745Y-107964353D01*
X240157280Y-107969199D01*
X240168234Y-108124012D01*
X240172162Y-108226617D01*
X240173556Y-108263033D01*
X240174329Y-108283209D01*
X240174344Y-108287511D01*
X240169475Y-108443934D01*
X240157943Y-108602191D01*
X240157560Y-108605900D01*
X240136941Y-108760163D01*
X240136444Y-108763279D01*
X240107736Y-108917742D01*
X240107081Y-108920828D01*
X240070898Y-109072195D01*
X240069923Y-109075792D01*
X240023833Y-109227605D01*
X239972169Y-109375349D01*
X239970609Y-109379357D01*
X239907724Y-109525738D01*
X239841878Y-109666280D01*
X239839637Y-109670611D01*
X239760014Y-109810719D01*
X239681490Y-109941745D01*
X239678487Y-109946291D01*
X239580775Y-110080932D01*
X239492810Y-110198669D01*
X239488975Y-110203313D01*
X239357931Y-110347180D01*
X239279688Y-110432284D01*
X239277503Y-110434542D01*
X238200137Y-111492965D01*
X233688244Y-115925523D01*
X233626626Y-115958463D01*
X233556982Y-115952861D01*
X233501422Y-115910495D01*
X233477586Y-115844817D01*
X233488963Y-115784662D01*
X233504148Y-115752098D01*
X233504153Y-115752084D01*
X233556756Y-115555767D01*
X232593570Y-115555767D01*
X232605525Y-115543812D01*
X232663049Y-115430915D01*
X232682870Y-115305767D01*
X232663049Y-115180619D01*
X232605525Y-115067722D01*
X232593570Y-115055767D01*
X233556756Y-115055767D01*
X233556756Y-115055766D01*
X233504153Y-114859449D01*
X233504149Y-114859440D01*
X233408018Y-114653284D01*
X233277541Y-114466946D01*
X233116704Y-114306109D01*
X232930366Y-114175632D01*
X232724212Y-114079501D01*
X232527884Y-114026894D01*
X232527884Y-114990081D01*
X232515929Y-114978126D01*
X232403032Y-114920602D01*
X232309365Y-114905767D01*
X232246403Y-114905767D01*
X232152736Y-114920602D01*
X232039839Y-114978126D01*
X232027884Y-114990081D01*
X232027884Y-114026894D01*
X231909562Y-114058599D01*
X231839712Y-114056936D01*
X231781850Y-114017774D01*
X231754345Y-113953546D01*
X231757693Y-113906731D01*
X231795582Y-113765325D01*
X231795752Y-113764692D01*
X231815585Y-113538000D01*
X231814431Y-113524815D01*
X231802744Y-113391229D01*
X231795752Y-113311308D01*
X231736856Y-113091504D01*
X231640685Y-112885266D01*
X231510164Y-112698861D01*
X231510162Y-112698858D01*
X231349258Y-112537954D01*
X231162851Y-112407432D01*
X231162849Y-112407431D01*
X230956614Y-112311261D01*
X230956605Y-112311258D01*
X230736814Y-112252366D01*
X230736810Y-112252365D01*
X230736809Y-112252365D01*
X230736808Y-112252364D01*
X230736803Y-112252364D01*
X230510119Y-112232532D01*
X230510115Y-112232532D01*
X230283430Y-112252364D01*
X230283419Y-112252366D01*
X230063628Y-112311258D01*
X230063619Y-112311261D01*
X229857384Y-112407431D01*
X229857382Y-112407432D01*
X229670975Y-112537954D01*
X229510071Y-112698858D01*
X229379549Y-112885265D01*
X229379548Y-112885267D01*
X229283378Y-113091502D01*
X229283375Y-113091511D01*
X229224483Y-113311302D01*
X229224481Y-113311313D01*
X229204649Y-113537998D01*
X229204649Y-113538001D01*
X229224481Y-113764686D01*
X229224483Y-113764697D01*
X229283375Y-113984488D01*
X229283378Y-113984497D01*
X229379548Y-114190732D01*
X229379549Y-114190734D01*
X229510071Y-114377141D01*
X229670975Y-114538045D01*
X229670978Y-114538047D01*
X229857383Y-114668568D01*
X230063621Y-114764739D01*
X230283425Y-114823635D01*
X230445347Y-114837801D01*
X230510115Y-114843468D01*
X230510117Y-114843468D01*
X230510119Y-114843468D01*
X230566790Y-114838509D01*
X230736809Y-114823635D01*
X230878848Y-114785576D01*
X230948698Y-114787239D01*
X231006560Y-114826402D01*
X231034064Y-114890630D01*
X231030716Y-114937444D01*
X230999011Y-115055766D01*
X230999012Y-115055767D01*
X231962198Y-115055767D01*
X231950243Y-115067722D01*
X231892719Y-115180619D01*
X231872898Y-115305767D01*
X231892719Y-115430915D01*
X231950243Y-115543812D01*
X231962198Y-115555767D01*
X230999012Y-115555767D01*
X231051614Y-115752084D01*
X231051618Y-115752093D01*
X231147749Y-115958249D01*
X231278226Y-116144587D01*
X231439063Y-116305424D01*
X231625401Y-116435901D01*
X231831557Y-116532032D01*
X231831566Y-116532036D01*
X232027883Y-116584639D01*
X232027884Y-116584638D01*
X232027884Y-115621453D01*
X232039839Y-115633408D01*
X232152736Y-115690932D01*
X232246403Y-115705767D01*
X232309365Y-115705767D01*
X232403032Y-115690932D01*
X232515929Y-115633408D01*
X232527884Y-115621453D01*
X232527884Y-116584639D01*
X232724201Y-116532036D01*
X232724214Y-116532031D01*
X232729789Y-116529432D01*
X232798866Y-116518937D01*
X232862651Y-116547455D01*
X232900892Y-116605930D01*
X232901449Y-116675798D01*
X232869097Y-116730267D01*
X232273253Y-117315634D01*
X232211635Y-117348574D01*
X232141991Y-117342972D01*
X232099453Y-117315634D01*
X230448999Y-115694192D01*
X227900000Y-113190000D01*
X227899999Y-113190000D01*
X224886933Y-116057182D01*
X224824798Y-116089136D01*
X224755251Y-116082424D01*
X224700373Y-116039179D01*
X224677588Y-115973129D01*
X224685359Y-115923787D01*
X224730307Y-115804024D01*
X224766382Y-115605238D01*
X224770500Y-115582549D01*
X224770500Y-114049335D01*
X224790185Y-113982296D01*
X224806814Y-113961659D01*
X230092127Y-108676345D01*
X230097287Y-108671733D01*
X230127666Y-108647508D01*
X230172645Y-108596023D01*
X230175462Y-108593010D01*
X230183945Y-108584529D01*
X230210945Y-108552187D01*
X230275765Y-108477996D01*
X230278002Y-108474250D01*
X230289269Y-108458369D01*
X230292068Y-108455018D01*
X230340676Y-108369351D01*
X230391215Y-108284764D01*
X230392747Y-108280679D01*
X230401003Y-108263033D01*
X230403153Y-108259245D01*
X230435690Y-108166259D01*
X230470307Y-108074024D01*
X230471085Y-108069734D01*
X230476055Y-108050904D01*
X230477498Y-108046782D01*
X230492909Y-107949476D01*
X230510500Y-107852547D01*
X230510500Y-107848169D01*
X230512027Y-107828770D01*
X230512710Y-107824460D01*
X230510500Y-107725978D01*
X230510500Y-106240000D01*
X230959341Y-106240000D01*
X230979936Y-106475403D01*
X230979938Y-106475413D01*
X231041094Y-106703655D01*
X231041096Y-106703659D01*
X231041097Y-106703663D01*
X231071428Y-106768707D01*
X231140964Y-106917828D01*
X231140965Y-106917830D01*
X231276505Y-107111402D01*
X231423704Y-107258601D01*
X231457189Y-107319924D01*
X231452205Y-107389616D01*
X231410333Y-107445549D01*
X231401120Y-107451820D01*
X231246347Y-107547285D01*
X231246343Y-107547288D01*
X231122289Y-107671342D01*
X231030187Y-107820663D01*
X231030185Y-107820668D01*
X231019621Y-107852549D01*
X230975001Y-107987203D01*
X230975001Y-107987204D01*
X230975000Y-107987204D01*
X230964500Y-108089983D01*
X230964500Y-109390001D01*
X230964501Y-109390018D01*
X230975000Y-109492796D01*
X230975001Y-109492799D01*
X231030185Y-109659331D01*
X231030187Y-109659336D01*
X231056634Y-109702213D01*
X231122288Y-109808656D01*
X231246344Y-109932712D01*
X231395666Y-110024814D01*
X231562203Y-110079999D01*
X231664991Y-110090500D01*
X233215008Y-110090499D01*
X233317797Y-110079999D01*
X233484334Y-110024814D01*
X233633656Y-109932712D01*
X233757712Y-109808656D01*
X233849814Y-109659334D01*
X233904999Y-109492797D01*
X233915500Y-109390009D01*
X233915499Y-108089992D01*
X233914596Y-108081157D01*
X233904999Y-107987203D01*
X233904998Y-107987200D01*
X233885916Y-107929615D01*
X233849814Y-107820666D01*
X233757712Y-107671344D01*
X233633656Y-107547288D01*
X233552658Y-107497328D01*
X233478879Y-107451821D01*
X233432155Y-107399873D01*
X233420932Y-107330910D01*
X233448776Y-107266828D01*
X233456295Y-107258601D01*
X233524619Y-107190277D01*
X233603495Y-107111401D01*
X233739035Y-106917830D01*
X233838903Y-106703663D01*
X233900063Y-106475408D01*
X233920659Y-106240000D01*
X233900063Y-106004592D01*
X233838903Y-105776337D01*
X233739035Y-105562171D01*
X233739034Y-105562169D01*
X233603494Y-105368597D01*
X233436403Y-105201506D01*
X233278967Y-105091269D01*
X233235342Y-105036692D01*
X233228148Y-104967194D01*
X233259671Y-104904839D01*
X233278967Y-104888119D01*
X233436073Y-104778113D01*
X233436079Y-104778108D01*
X233603105Y-104611082D01*
X233738600Y-104417578D01*
X233838429Y-104203492D01*
X233838432Y-104203486D01*
X233895636Y-103990000D01*
X232843969Y-103990000D01*
X232876519Y-103939351D01*
X232915000Y-103808295D01*
X232915000Y-103671705D01*
X232876519Y-103540649D01*
X232843969Y-103490000D01*
X233895636Y-103490000D01*
X233895635Y-103489999D01*
X233838432Y-103276513D01*
X233838429Y-103276507D01*
X233738600Y-103062422D01*
X233738599Y-103062420D01*
X233603113Y-102868926D01*
X233603108Y-102868920D01*
X233436079Y-102701891D01*
X233436073Y-102701886D01*
X233242579Y-102566400D01*
X233242577Y-102566399D01*
X233028492Y-102466570D01*
X233028483Y-102466566D01*
X232800326Y-102405432D01*
X232800316Y-102405430D01*
X232690000Y-102395778D01*
X232690000Y-103331981D01*
X232575199Y-103279554D01*
X232473975Y-103265000D01*
X232406025Y-103265000D01*
X232304801Y-103279554D01*
X232190000Y-103331981D01*
X232190000Y-102395778D01*
X232079683Y-102405430D01*
X232079673Y-102405432D01*
X231851516Y-102466566D01*
X231851507Y-102466570D01*
X231637422Y-102566399D01*
X231637420Y-102566400D01*
X231443926Y-102701886D01*
X231443920Y-102701891D01*
X231276894Y-102868917D01*
X231141399Y-103062421D01*
X231041570Y-103276507D01*
X231041567Y-103276513D01*
X230984364Y-103489999D01*
X230984364Y-103490000D01*
X232036031Y-103490000D01*
X232003481Y-103540649D01*
X231965000Y-103671705D01*
X231965000Y-103808295D01*
X232003481Y-103939351D01*
X232036031Y-103990000D01*
X230984364Y-103990000D01*
X231041567Y-104203486D01*
X231041570Y-104203492D01*
X231141399Y-104417577D01*
X231141400Y-104417579D01*
X231276886Y-104611073D01*
X231276891Y-104611079D01*
X231443920Y-104778108D01*
X231443926Y-104778113D01*
X231601031Y-104888119D01*
X231644656Y-104942696D01*
X231651850Y-105012194D01*
X231620327Y-105074549D01*
X231601032Y-105091269D01*
X231443594Y-105201508D01*
X231276506Y-105368597D01*
X231276501Y-105368604D01*
X231140967Y-105562165D01*
X231140965Y-105562169D01*
X231041098Y-105776335D01*
X231041094Y-105776344D01*
X230979938Y-106004586D01*
X230979936Y-106004596D01*
X230959341Y-106239999D01*
X230959341Y-106240000D01*
X230510500Y-106240000D01*
X230510500Y-95150000D01*
X230959341Y-95150000D01*
X230979936Y-95385403D01*
X230979938Y-95385413D01*
X231041094Y-95613655D01*
X231041096Y-95613659D01*
X231041097Y-95613663D01*
X231069671Y-95674939D01*
X231140964Y-95827828D01*
X231140965Y-95827830D01*
X231276505Y-96021402D01*
X231423704Y-96168601D01*
X231457189Y-96229924D01*
X231452205Y-96299616D01*
X231410333Y-96355549D01*
X231401120Y-96361820D01*
X231246347Y-96457285D01*
X231246343Y-96457288D01*
X231122289Y-96581342D01*
X231030187Y-96730663D01*
X231030186Y-96730666D01*
X230975001Y-96897203D01*
X230975001Y-96897204D01*
X230975000Y-96897204D01*
X230964500Y-96999983D01*
X230964500Y-98300001D01*
X230964501Y-98300018D01*
X230975000Y-98402796D01*
X230975001Y-98402799D01*
X231001783Y-98483621D01*
X231030186Y-98569334D01*
X231122288Y-98718656D01*
X231246344Y-98842712D01*
X231395666Y-98934814D01*
X231562203Y-98989999D01*
X231664991Y-99000500D01*
X233215008Y-99000499D01*
X233317797Y-98989999D01*
X233484334Y-98934814D01*
X233633656Y-98842712D01*
X233757712Y-98718656D01*
X233849814Y-98569334D01*
X233904999Y-98402797D01*
X233915500Y-98300009D01*
X233915499Y-96999992D01*
X233912297Y-96968651D01*
X233904999Y-96897203D01*
X233904998Y-96897200D01*
X233885966Y-96839766D01*
X233849814Y-96730666D01*
X233757712Y-96581344D01*
X233633656Y-96457288D01*
X233514464Y-96383770D01*
X233478879Y-96361821D01*
X233432155Y-96309873D01*
X233420932Y-96240910D01*
X233448776Y-96176828D01*
X233456295Y-96168601D01*
X233508997Y-96115899D01*
X233603495Y-96021401D01*
X233739035Y-95827830D01*
X233838903Y-95613663D01*
X233900063Y-95385408D01*
X233920659Y-95150000D01*
X233900063Y-94914592D01*
X233838903Y-94686337D01*
X233739035Y-94472171D01*
X233739034Y-94472169D01*
X233603494Y-94278597D01*
X233436403Y-94111506D01*
X233278967Y-94001269D01*
X233235342Y-93946692D01*
X233228148Y-93877194D01*
X233259671Y-93814839D01*
X233278967Y-93798119D01*
X233436073Y-93688113D01*
X233436079Y-93688108D01*
X233603105Y-93521082D01*
X233738600Y-93327578D01*
X233838429Y-93113492D01*
X233838432Y-93113486D01*
X233895636Y-92900000D01*
X232843969Y-92900000D01*
X232876519Y-92849351D01*
X232915000Y-92718295D01*
X232915000Y-92581705D01*
X232876519Y-92450649D01*
X232843969Y-92400000D01*
X233895636Y-92400000D01*
X233895635Y-92399999D01*
X233838432Y-92186513D01*
X233838429Y-92186507D01*
X233738600Y-91972422D01*
X233738599Y-91972420D01*
X233603113Y-91778926D01*
X233603108Y-91778920D01*
X233436079Y-91611891D01*
X233436073Y-91611886D01*
X233242579Y-91476400D01*
X233242577Y-91476399D01*
X233028492Y-91376570D01*
X233028483Y-91376566D01*
X232800326Y-91315432D01*
X232800316Y-91315430D01*
X232690000Y-91305778D01*
X232690000Y-92241981D01*
X232575199Y-92189554D01*
X232473975Y-92175000D01*
X232406025Y-92175000D01*
X232304801Y-92189554D01*
X232190000Y-92241981D01*
X232190000Y-91305778D01*
X232079683Y-91315430D01*
X232079673Y-91315432D01*
X231851516Y-91376566D01*
X231851507Y-91376570D01*
X231637422Y-91476399D01*
X231637420Y-91476400D01*
X231443926Y-91611886D01*
X231443920Y-91611891D01*
X231276894Y-91778917D01*
X231141399Y-91972421D01*
X231041570Y-92186507D01*
X231041567Y-92186513D01*
X230984364Y-92399999D01*
X230984364Y-92400000D01*
X232036031Y-92400000D01*
X232003481Y-92450649D01*
X231965000Y-92581705D01*
X231965000Y-92718295D01*
X232003481Y-92849351D01*
X232036031Y-92900000D01*
X230984364Y-92900000D01*
X231041567Y-93113486D01*
X231041570Y-93113492D01*
X231141399Y-93327577D01*
X231141400Y-93327579D01*
X231276886Y-93521073D01*
X231276891Y-93521079D01*
X231443920Y-93688108D01*
X231443926Y-93688113D01*
X231601031Y-93798119D01*
X231644656Y-93852696D01*
X231651850Y-93922194D01*
X231620327Y-93984549D01*
X231601032Y-94001269D01*
X231443594Y-94111508D01*
X231276506Y-94278597D01*
X231276501Y-94278604D01*
X231140967Y-94472165D01*
X231140965Y-94472169D01*
X231041098Y-94686335D01*
X231041094Y-94686344D01*
X230979938Y-94914586D01*
X230979936Y-94914596D01*
X230959341Y-95149999D01*
X230959341Y-95150000D01*
X230510500Y-95150000D01*
X230510500Y-88225473D01*
X230510889Y-88218534D01*
X230515238Y-88179940D01*
X230510639Y-88111729D01*
X230510500Y-88107574D01*
X230510500Y-88095619D01*
X230510500Y-88095612D01*
X230506725Y-88053668D01*
X230504502Y-88020698D01*
X230500098Y-87955363D01*
X230500096Y-87955351D01*
X230499028Y-87951112D01*
X230495768Y-87931922D01*
X230495377Y-87927580D01*
X230469169Y-87832619D01*
X230468122Y-87828464D01*
X230445096Y-87737084D01*
X230443289Y-87733106D01*
X230436653Y-87714801D01*
X230436538Y-87714386D01*
X230435493Y-87710597D01*
X230392741Y-87621822D01*
X230352007Y-87532142D01*
X230349518Y-87528549D01*
X230339728Y-87511737D01*
X230337829Y-87507794D01*
X230337827Y-87507791D01*
X230337825Y-87507787D01*
X230303129Y-87460034D01*
X230279914Y-87428081D01*
X230223820Y-87347113D01*
X230220729Y-87344022D01*
X230208093Y-87329228D01*
X230205521Y-87325688D01*
X230205519Y-87325686D01*
X230134321Y-87257614D01*
X229123847Y-86247140D01*
X225954576Y-83077867D01*
X225949949Y-83072688D01*
X225925741Y-83042332D01*
X225874273Y-82997366D01*
X225871239Y-82994530D01*
X225862764Y-82986055D01*
X225862763Y-82986054D01*
X225862759Y-82986050D01*
X225862755Y-82986047D01*
X225830400Y-82959036D01*
X225756231Y-82894235D01*
X225752464Y-82891984D01*
X225736619Y-82880741D01*
X225733257Y-82877934D01*
X225647574Y-82829316D01*
X225562995Y-82778783D01*
X225558903Y-82777248D01*
X225541278Y-82769002D01*
X225537479Y-82766846D01*
X225444487Y-82734307D01*
X225352263Y-82699694D01*
X225352253Y-82699691D01*
X225347957Y-82698912D01*
X225329152Y-82693949D01*
X225325018Y-82692502D01*
X225325013Y-82692501D01*
X225227706Y-82677089D01*
X225130784Y-82659500D01*
X225130781Y-82659500D01*
X225126406Y-82659500D01*
X225107003Y-82657972D01*
X225102694Y-82657289D01*
X225004212Y-82659500D01*
X223243845Y-82659500D01*
X223205399Y-82662960D01*
X223075813Y-82674622D01*
X223075807Y-82674623D01*
X222858839Y-82734503D01*
X222858826Y-82734508D01*
X222656033Y-82832167D01*
X222656025Y-82832171D01*
X222473927Y-82964473D01*
X222473925Y-82964474D01*
X222318366Y-83127176D01*
X222194363Y-83315033D01*
X222128837Y-83468339D01*
X222084388Y-83522247D01*
X222017851Y-83543567D01*
X221950350Y-83525529D01*
X221903316Y-83473861D01*
X221902434Y-83472009D01*
X221821022Y-83297421D01*
X221698527Y-83122478D01*
X221547521Y-82971472D01*
X221372578Y-82848977D01*
X221372579Y-82848977D01*
X221243547Y-82788809D01*
X221179030Y-82758724D01*
X221179026Y-82758723D01*
X221179022Y-82758721D01*
X220972752Y-82703452D01*
X220972748Y-82703451D01*
X220972747Y-82703451D01*
X220972746Y-82703450D01*
X220972741Y-82703450D01*
X220760002Y-82684838D01*
X220759998Y-82684838D01*
X220547258Y-82703450D01*
X220547247Y-82703452D01*
X220340977Y-82758721D01*
X220340968Y-82758725D01*
X220147421Y-82848977D01*
X219972478Y-82971472D01*
X219821472Y-83122478D01*
X219698977Y-83297421D01*
X219608725Y-83490968D01*
X219606870Y-83496064D01*
X219604749Y-83495292D01*
X219573406Y-83546710D01*
X219510558Y-83577237D01*
X219441183Y-83568939D01*
X219387307Y-83524452D01*
X219374169Y-83495685D01*
X219373130Y-83496064D01*
X219371279Y-83490983D01*
X219371276Y-83490970D01*
X219281021Y-83297419D01*
X219183124Y-83157607D01*
X219158527Y-83122478D01*
X219007521Y-82971472D01*
X218832578Y-82848977D01*
X218832579Y-82848977D01*
X218703547Y-82788809D01*
X218639030Y-82758724D01*
X218639026Y-82758723D01*
X218639022Y-82758721D01*
X218462357Y-82711384D01*
X218432747Y-82703451D01*
X218432746Y-82703450D01*
X218432739Y-82703449D01*
X218429746Y-82702921D01*
X218428543Y-82702324D01*
X218427518Y-82702050D01*
X218427573Y-82701843D01*
X218367147Y-82671889D01*
X218331262Y-82611938D01*
X218333485Y-82542104D01*
X218363607Y-82493128D01*
X221683868Y-79172867D01*
X221745189Y-79139384D01*
X221814881Y-79144368D01*
X221870814Y-79186240D01*
X221873122Y-79189427D01*
X221984954Y-79349141D01*
X222145858Y-79510045D01*
X222145861Y-79510047D01*
X222332266Y-79640568D01*
X222538504Y-79736739D01*
X222758308Y-79795635D01*
X222920230Y-79809801D01*
X222984998Y-79815468D01*
X222985000Y-79815468D01*
X222985002Y-79815468D01*
X223041673Y-79810509D01*
X223211692Y-79795635D01*
X223431496Y-79736739D01*
X223637734Y-79640568D01*
X223824139Y-79510047D01*
X223985047Y-79349139D01*
X224115568Y-79162734D01*
X224142618Y-79104724D01*
X224188790Y-79052285D01*
X224255983Y-79033133D01*
X224322865Y-79053348D01*
X224367381Y-79104724D01*
X224377851Y-79127177D01*
X224394429Y-79162728D01*
X224394432Y-79162734D01*
X224524954Y-79349141D01*
X224685858Y-79510045D01*
X224685861Y-79510047D01*
X224872266Y-79640568D01*
X225078504Y-79736739D01*
X225298308Y-79795635D01*
X225460230Y-79809801D01*
X225524998Y-79815468D01*
X225525000Y-79815468D01*
X225525002Y-79815468D01*
X225581673Y-79810509D01*
X225751692Y-79795635D01*
X225971496Y-79736739D01*
X226177734Y-79640568D01*
X226364139Y-79510047D01*
X226525047Y-79349139D01*
X226655568Y-79162734D01*
X226751739Y-78956496D01*
X226810635Y-78736692D01*
X226830468Y-78510000D01*
X226810635Y-78283308D01*
X226751739Y-78063504D01*
X226655568Y-77857266D01*
X226655567Y-77857264D01*
X226653280Y-77852360D01*
X226655355Y-77851392D01*
X226641176Y-77792999D01*
X226664014Y-77726967D01*
X226718926Y-77683765D01*
X226788478Y-77677109D01*
X226850588Y-77709112D01*
X226852718Y-77711192D01*
X231003161Y-81861635D01*
X231035255Y-81917222D01*
X231061095Y-82013657D01*
X231061097Y-82013663D01*
X231102294Y-82102009D01*
X231160964Y-82227828D01*
X231160965Y-82227830D01*
X231296505Y-82421402D01*
X231463597Y-82588494D01*
X231621031Y-82698730D01*
X231664656Y-82753307D01*
X231671850Y-82822805D01*
X231640327Y-82885160D01*
X231621032Y-82901880D01*
X231463922Y-83011890D01*
X231463920Y-83011891D01*
X231296894Y-83178917D01*
X231161399Y-83372421D01*
X231061570Y-83586507D01*
X231061567Y-83586513D01*
X231004364Y-83799999D01*
X231004364Y-83800000D01*
X232056031Y-83800000D01*
X232023481Y-83850649D01*
X231985000Y-83981705D01*
X231985000Y-84118295D01*
X232023481Y-84249351D01*
X232056031Y-84300000D01*
X231004364Y-84300000D01*
X231061567Y-84513486D01*
X231061570Y-84513492D01*
X231161399Y-84727577D01*
X231161400Y-84727579D01*
X231296886Y-84921073D01*
X231444143Y-85068331D01*
X231477627Y-85129654D01*
X231472643Y-85199346D01*
X231430771Y-85255279D01*
X231421558Y-85261550D01*
X231266347Y-85357285D01*
X231266343Y-85357288D01*
X231142289Y-85481342D01*
X231050187Y-85630663D01*
X231050186Y-85630666D01*
X230995001Y-85797203D01*
X230995001Y-85797204D01*
X230995000Y-85797204D01*
X230984500Y-85899983D01*
X230984500Y-87200001D01*
X230984501Y-87200018D01*
X230995000Y-87302796D01*
X230995001Y-87302799D01*
X231036516Y-87428081D01*
X231050186Y-87469334D01*
X231142288Y-87618656D01*
X231266344Y-87742712D01*
X231415666Y-87834814D01*
X231582203Y-87889999D01*
X231684991Y-87900500D01*
X233235008Y-87900499D01*
X233337797Y-87889999D01*
X233504334Y-87834814D01*
X233653656Y-87742712D01*
X233777712Y-87618656D01*
X233869814Y-87469334D01*
X233924999Y-87302797D01*
X233935500Y-87200009D01*
X233935499Y-85899992D01*
X233924999Y-85797203D01*
X233869814Y-85630666D01*
X233777712Y-85481344D01*
X233653656Y-85357288D01*
X233504334Y-85265186D01*
X233498441Y-85261551D01*
X233451717Y-85209603D01*
X233440494Y-85140640D01*
X233468338Y-85076558D01*
X233475857Y-85068331D01*
X233623105Y-84921082D01*
X233758600Y-84727578D01*
X233858429Y-84513492D01*
X233858432Y-84513486D01*
X233915636Y-84300000D01*
X232863969Y-84300000D01*
X232896519Y-84249351D01*
X232935000Y-84118295D01*
X232935000Y-83981705D01*
X232896519Y-83850649D01*
X232863969Y-83800000D01*
X233915636Y-83800000D01*
X233915635Y-83799999D01*
X233858432Y-83586513D01*
X233858429Y-83586507D01*
X233758600Y-83372422D01*
X233758599Y-83372420D01*
X233623113Y-83178926D01*
X233623108Y-83178920D01*
X233456079Y-83011891D01*
X233456073Y-83011886D01*
X233298967Y-82901880D01*
X233255342Y-82847303D01*
X233248148Y-82777805D01*
X233279671Y-82715450D01*
X233298960Y-82698735D01*
X233456401Y-82588495D01*
X233623495Y-82421401D01*
X233759035Y-82227830D01*
X233858903Y-82013663D01*
X233920063Y-81785408D01*
X233940659Y-81550000D01*
X233920063Y-81314592D01*
X233858903Y-81086337D01*
X233759035Y-80872171D01*
X233748474Y-80857087D01*
X233623494Y-80678597D01*
X233456402Y-80511505D01*
X233262830Y-80375965D01*
X233262828Y-80375964D01*
X233155746Y-80326031D01*
X233048663Y-80276097D01*
X233048659Y-80276096D01*
X233048657Y-80276095D01*
X232952222Y-80250255D01*
X232896635Y-80218161D01*
X228798475Y-76120001D01*
X230969500Y-76120001D01*
X230969501Y-76120018D01*
X230980000Y-76222796D01*
X230980001Y-76222799D01*
X231035185Y-76389331D01*
X231035187Y-76389336D01*
X231040318Y-76397654D01*
X231127288Y-76538656D01*
X231251344Y-76662712D01*
X231400666Y-76754814D01*
X231567203Y-76809999D01*
X231669991Y-76820500D01*
X233270008Y-76820499D01*
X233372797Y-76809999D01*
X233539334Y-76754814D01*
X233688656Y-76662712D01*
X233812712Y-76538656D01*
X233904814Y-76389334D01*
X233959999Y-76222797D01*
X233970500Y-76120009D01*
X233970499Y-74819992D01*
X233959999Y-74717203D01*
X233904814Y-74550666D01*
X233812712Y-74401344D01*
X233688656Y-74277288D01*
X233584906Y-74213295D01*
X233533441Y-74181551D01*
X233486717Y-74129603D01*
X233475494Y-74060640D01*
X233503338Y-73996558D01*
X233510857Y-73988331D01*
X233658105Y-73841082D01*
X233793600Y-73647578D01*
X233893429Y-73433492D01*
X233893432Y-73433486D01*
X233950636Y-73220000D01*
X232903686Y-73220000D01*
X232929493Y-73179844D01*
X232970000Y-73041889D01*
X232970000Y-72898111D01*
X232929493Y-72760156D01*
X232903686Y-72720000D01*
X233950636Y-72720000D01*
X233950635Y-72719999D01*
X233893432Y-72506513D01*
X233893429Y-72506507D01*
X233793600Y-72292422D01*
X233793599Y-72292420D01*
X233658113Y-72098926D01*
X233658108Y-72098920D01*
X233491079Y-71931891D01*
X233491073Y-71931886D01*
X233297579Y-71796400D01*
X233297577Y-71796399D01*
X233083492Y-71696570D01*
X233083483Y-71696566D01*
X232855326Y-71635432D01*
X232855316Y-71635430D01*
X232720000Y-71623590D01*
X232720000Y-72534498D01*
X232612315Y-72485320D01*
X232505763Y-72470000D01*
X232434237Y-72470000D01*
X232327685Y-72485320D01*
X232220000Y-72534498D01*
X232220000Y-71623591D01*
X232219999Y-71623590D01*
X232084683Y-71635430D01*
X232084673Y-71635432D01*
X231856516Y-71696566D01*
X231856507Y-71696570D01*
X231642422Y-71796399D01*
X231642420Y-71796400D01*
X231448926Y-71931886D01*
X231448920Y-71931891D01*
X231281894Y-72098917D01*
X231146399Y-72292421D01*
X231046570Y-72506507D01*
X231046567Y-72506513D01*
X230989364Y-72719999D01*
X230989364Y-72720000D01*
X232036314Y-72720000D01*
X232010507Y-72760156D01*
X231970000Y-72898111D01*
X231970000Y-73041889D01*
X232010507Y-73179844D01*
X232036314Y-73220000D01*
X230989364Y-73220000D01*
X231046567Y-73433486D01*
X231046570Y-73433492D01*
X231146399Y-73647577D01*
X231146400Y-73647579D01*
X231281886Y-73841073D01*
X231429143Y-73988331D01*
X231462627Y-74049654D01*
X231457643Y-74119346D01*
X231415771Y-74175279D01*
X231406558Y-74181550D01*
X231251347Y-74277285D01*
X231251343Y-74277288D01*
X231127289Y-74401342D01*
X231035187Y-74550663D01*
X231035186Y-74550666D01*
X230980001Y-74717203D01*
X230980001Y-74717204D01*
X230980000Y-74717204D01*
X230969500Y-74819983D01*
X230969500Y-76120001D01*
X228798475Y-76120001D01*
X226522356Y-73843882D01*
X226517719Y-73838693D01*
X226493507Y-73808332D01*
X226442031Y-73763359D01*
X226438997Y-73760523D01*
X226430529Y-73752055D01*
X226426594Y-73748770D01*
X226398181Y-73725049D01*
X226324002Y-73660240D01*
X226323997Y-73660236D01*
X226323996Y-73660235D01*
X226320241Y-73657991D01*
X226304373Y-73646732D01*
X226301019Y-73643932D01*
X226301018Y-73643931D01*
X226301013Y-73643927D01*
X226233614Y-73605685D01*
X226215340Y-73595316D01*
X226130764Y-73544785D01*
X226130761Y-73544783D01*
X226126669Y-73543248D01*
X226109044Y-73535002D01*
X226105245Y-73532846D01*
X226012253Y-73500307D01*
X225920029Y-73465694D01*
X225920019Y-73465691D01*
X225915723Y-73464912D01*
X225896918Y-73459949D01*
X225892784Y-73458502D01*
X225892779Y-73458501D01*
X225795472Y-73443089D01*
X225698550Y-73425500D01*
X225698547Y-73425500D01*
X225694172Y-73425500D01*
X225674769Y-73423972D01*
X225670460Y-73423289D01*
X225571978Y-73425500D01*
X223209845Y-73425500D01*
X223171399Y-73428960D01*
X223041813Y-73440622D01*
X223041807Y-73440623D01*
X222824839Y-73500503D01*
X222824826Y-73500508D01*
X222622033Y-73598167D01*
X222622025Y-73598171D01*
X222439923Y-73730476D01*
X222436081Y-73733833D01*
X222372644Y-73763114D01*
X222303445Y-73753451D01*
X222250457Y-73707910D01*
X222230501Y-73640951D01*
X222230500Y-73640449D01*
X222230500Y-72167203D01*
X222250185Y-72100164D01*
X222302989Y-72054409D01*
X222372147Y-72044465D01*
X222406905Y-72054821D01*
X222538673Y-72116266D01*
X222538682Y-72116269D01*
X222734999Y-72168872D01*
X222735000Y-72168871D01*
X222735000Y-71205686D01*
X222746955Y-71217641D01*
X222859852Y-71275165D01*
X222953519Y-71290000D01*
X223016481Y-71290000D01*
X223110148Y-71275165D01*
X223223045Y-71217641D01*
X223235000Y-71205686D01*
X223235000Y-72168872D01*
X223431317Y-72116269D01*
X223431326Y-72116265D01*
X223637482Y-72020134D01*
X223823820Y-71889657D01*
X223984658Y-71728819D01*
X224002190Y-71703781D01*
X224056766Y-71660155D01*
X224126264Y-71652961D01*
X224188619Y-71684482D01*
X224224034Y-71744712D01*
X224227055Y-71761647D01*
X224230907Y-71797480D01*
X224281202Y-71932328D01*
X224281206Y-71932335D01*
X224367452Y-72047544D01*
X224367455Y-72047547D01*
X224482664Y-72133793D01*
X224482671Y-72133797D01*
X224617517Y-72184091D01*
X224617516Y-72184091D01*
X224624444Y-72184835D01*
X224677127Y-72190500D01*
X226372872Y-72190499D01*
X226432483Y-72184091D01*
X226567331Y-72133796D01*
X226682546Y-72047546D01*
X226768796Y-71932331D01*
X226819091Y-71797483D01*
X226825500Y-71737873D01*
X226825499Y-70042128D01*
X226819091Y-69982517D01*
X226777918Y-69872127D01*
X226768797Y-69847671D01*
X226768793Y-69847664D01*
X226682547Y-69732455D01*
X226682544Y-69732452D01*
X226567335Y-69646206D01*
X226567328Y-69646202D01*
X226432482Y-69595908D01*
X226432483Y-69595908D01*
X226372883Y-69589501D01*
X226372881Y-69589500D01*
X226372873Y-69589500D01*
X226372865Y-69589500D01*
X226296000Y-69589500D01*
X226228961Y-69569815D01*
X226183206Y-69517011D01*
X226173262Y-69447853D01*
X226202287Y-69384297D01*
X226243593Y-69353119D01*
X226377734Y-69290568D01*
X226564139Y-69160047D01*
X226725047Y-68999139D01*
X226855568Y-68812734D01*
X226951739Y-68606496D01*
X227010635Y-68386692D01*
X227027634Y-68192384D01*
X227030468Y-68160001D01*
X227030468Y-68159998D01*
X227018457Y-68022712D01*
X227010635Y-67933308D01*
X226951739Y-67713504D01*
X226855568Y-67507266D01*
X226836477Y-67480001D01*
X230969500Y-67480001D01*
X230969501Y-67480018D01*
X230980000Y-67582796D01*
X230980001Y-67582799D01*
X231023312Y-67713502D01*
X231035186Y-67749334D01*
X231127288Y-67898656D01*
X231251344Y-68022712D01*
X231400666Y-68114814D01*
X231567203Y-68169999D01*
X231669991Y-68180500D01*
X233270008Y-68180499D01*
X233372797Y-68169999D01*
X233539334Y-68114814D01*
X233688656Y-68022712D01*
X233812712Y-67898656D01*
X233904814Y-67749334D01*
X233959999Y-67582797D01*
X233970500Y-67480009D01*
X233970499Y-66179992D01*
X233959999Y-66077203D01*
X233904814Y-65910666D01*
X233812712Y-65761344D01*
X233688656Y-65637288D01*
X233539334Y-65545186D01*
X233533441Y-65541551D01*
X233486717Y-65489603D01*
X233475494Y-65420640D01*
X233503338Y-65356558D01*
X233510857Y-65348331D01*
X233658105Y-65201082D01*
X233793600Y-65007578D01*
X233893429Y-64793492D01*
X233893432Y-64793486D01*
X233950636Y-64580000D01*
X232903686Y-64580000D01*
X232929493Y-64539844D01*
X232970000Y-64401889D01*
X232970000Y-64258111D01*
X232929493Y-64120156D01*
X232903686Y-64080000D01*
X233950636Y-64080000D01*
X233950635Y-64079999D01*
X233893432Y-63866513D01*
X233893429Y-63866507D01*
X233793600Y-63652422D01*
X233793599Y-63652420D01*
X233658113Y-63458926D01*
X233658108Y-63458920D01*
X233491079Y-63291891D01*
X233491073Y-63291886D01*
X233297579Y-63156400D01*
X233297577Y-63156399D01*
X233083492Y-63056570D01*
X233083483Y-63056566D01*
X232855326Y-62995432D01*
X232855316Y-62995430D01*
X232720000Y-62983590D01*
X232720000Y-63894498D01*
X232612315Y-63845320D01*
X232505763Y-63830000D01*
X232434237Y-63830000D01*
X232327685Y-63845320D01*
X232220000Y-63894498D01*
X232220000Y-62983591D01*
X232219999Y-62983590D01*
X232084683Y-62995430D01*
X232084673Y-62995432D01*
X231856516Y-63056566D01*
X231856507Y-63056570D01*
X231642422Y-63156399D01*
X231642420Y-63156400D01*
X231448926Y-63291886D01*
X231448920Y-63291891D01*
X231281894Y-63458917D01*
X231146399Y-63652421D01*
X231046570Y-63866507D01*
X231046567Y-63866513D01*
X230989364Y-64079999D01*
X230989364Y-64080000D01*
X232036314Y-64080000D01*
X232010507Y-64120156D01*
X231970000Y-64258111D01*
X231970000Y-64401889D01*
X232010507Y-64539844D01*
X232036314Y-64580000D01*
X230989364Y-64580000D01*
X231046567Y-64793486D01*
X231046570Y-64793492D01*
X231146399Y-65007577D01*
X231146400Y-65007579D01*
X231281886Y-65201073D01*
X231429143Y-65348331D01*
X231462627Y-65409654D01*
X231457643Y-65479346D01*
X231415771Y-65535279D01*
X231406558Y-65541550D01*
X231251347Y-65637285D01*
X231251343Y-65637288D01*
X231127289Y-65761342D01*
X231035187Y-65910663D01*
X231035186Y-65910666D01*
X230980001Y-66077203D01*
X230980001Y-66077204D01*
X230980000Y-66077204D01*
X230969500Y-66179983D01*
X230969500Y-67480001D01*
X226836477Y-67480001D01*
X226725047Y-67320861D01*
X226725045Y-67320858D01*
X226564141Y-67159954D01*
X226377734Y-67029432D01*
X226377732Y-67029431D01*
X226171497Y-66933261D01*
X226171488Y-66933258D01*
X225951697Y-66874366D01*
X225951693Y-66874365D01*
X225951692Y-66874365D01*
X225951691Y-66874364D01*
X225951686Y-66874364D01*
X225725002Y-66854532D01*
X225724998Y-66854532D01*
X225498313Y-66874364D01*
X225498302Y-66874366D01*
X225278511Y-66933258D01*
X225278502Y-66933261D01*
X225072267Y-67029431D01*
X225072265Y-67029432D01*
X224885858Y-67159954D01*
X224724954Y-67320858D01*
X224594432Y-67507265D01*
X224594431Y-67507267D01*
X224567382Y-67565275D01*
X224521209Y-67617714D01*
X224454016Y-67636866D01*
X224387135Y-67616650D01*
X224342618Y-67565275D01*
X224334252Y-67547334D01*
X224315568Y-67507266D01*
X224185047Y-67320861D01*
X224185045Y-67320858D01*
X224024141Y-67159954D01*
X223837734Y-67029432D01*
X223837732Y-67029431D01*
X223631497Y-66933261D01*
X223631488Y-66933258D01*
X223411697Y-66874366D01*
X223411693Y-66874365D01*
X223411692Y-66874365D01*
X223411691Y-66874364D01*
X223411686Y-66874364D01*
X223185002Y-66854532D01*
X223184998Y-66854532D01*
X222958313Y-66874364D01*
X222958302Y-66874366D01*
X222738511Y-66933258D01*
X222738502Y-66933261D01*
X222532267Y-67029431D01*
X222532265Y-67029432D01*
X222345858Y-67159954D01*
X222184953Y-67320859D01*
X222184493Y-67321517D01*
X222184215Y-67321739D01*
X222181474Y-67325006D01*
X222180817Y-67324454D01*
X222129913Y-67365139D01*
X222060414Y-67372328D01*
X221998062Y-67340802D01*
X221980997Y-67321008D01*
X221943820Y-67267346D01*
X221940729Y-67264255D01*
X221928093Y-67249461D01*
X221925521Y-67245921D01*
X221925519Y-67245919D01*
X221854320Y-67177846D01*
X220138356Y-65461882D01*
X220133719Y-65456693D01*
X220109507Y-65426332D01*
X220058031Y-65381359D01*
X220054997Y-65378523D01*
X220046529Y-65370055D01*
X220014181Y-65343049D01*
X219939996Y-65278235D01*
X219936241Y-65275991D01*
X219920373Y-65264732D01*
X219917019Y-65261932D01*
X219917018Y-65261931D01*
X219917013Y-65261927D01*
X219836380Y-65216176D01*
X219831340Y-65213316D01*
X219746764Y-65162785D01*
X219746761Y-65162783D01*
X219742669Y-65161248D01*
X219725044Y-65153002D01*
X219721245Y-65150846D01*
X219628253Y-65118307D01*
X219536029Y-65083694D01*
X219536019Y-65083691D01*
X219531723Y-65082912D01*
X219512918Y-65077949D01*
X219508784Y-65076502D01*
X219508779Y-65076501D01*
X219411472Y-65061089D01*
X219314550Y-65043500D01*
X219314547Y-65043500D01*
X219310172Y-65043500D01*
X219290769Y-65041972D01*
X219286460Y-65041289D01*
X219187978Y-65043500D01*
X215810677Y-65043500D01*
X215743638Y-65023815D01*
X215697883Y-64971011D01*
X215687939Y-64901853D01*
X215716964Y-64838297D01*
X215756875Y-64807780D01*
X215810935Y-64781746D01*
X215814317Y-64780210D01*
X215900626Y-64741007D01*
X215904220Y-64738516D01*
X215921035Y-64728724D01*
X215924973Y-64726829D01*
X216004676Y-64668921D01*
X216085654Y-64612820D01*
X216088743Y-64609730D01*
X216103545Y-64597088D01*
X216107078Y-64594522D01*
X216175153Y-64523320D01*
X218001655Y-62696819D01*
X218062978Y-62663334D01*
X218089336Y-62660500D01*
X218097435Y-62660500D01*
X218349458Y-62622513D01*
X218593004Y-62547389D01*
X218774458Y-62460005D01*
X218822626Y-62436809D01*
X218822626Y-62436808D01*
X218822634Y-62436805D01*
X219033217Y-62293232D01*
X219220050Y-62119877D01*
X219378959Y-61920612D01*
X219506393Y-61699888D01*
X219599508Y-61462637D01*
X219656222Y-61214157D01*
X219668587Y-61049152D01*
X219675268Y-60960004D01*
X219675268Y-60959995D01*
X219656222Y-60705845D01*
X219654334Y-60697575D01*
X219599508Y-60457363D01*
X219506393Y-60220112D01*
X219378959Y-59999388D01*
X219220050Y-59800123D01*
X219033217Y-59626768D01*
X218822634Y-59483195D01*
X218822630Y-59483193D01*
X218822627Y-59483191D01*
X218822626Y-59483190D01*
X218593006Y-59372612D01*
X218593008Y-59372612D01*
X218349466Y-59297489D01*
X218349462Y-59297488D01*
X218349458Y-59297487D01*
X218228231Y-59279214D01*
X218097440Y-59259500D01*
X218097435Y-59259500D01*
X217842565Y-59259500D01*
X217842559Y-59259500D01*
X217685609Y-59283157D01*
X217590542Y-59297487D01*
X217590539Y-59297488D01*
X217590533Y-59297489D01*
X217346992Y-59372612D01*
X217117373Y-59483190D01*
X217117372Y-59483191D01*
X216906782Y-59626768D01*
X216719952Y-59800121D01*
X216719950Y-59800123D01*
X216561041Y-59999388D01*
X216433608Y-60220109D01*
X216340492Y-60457362D01*
X216340490Y-60457369D01*
X216283777Y-60705845D01*
X216273290Y-60845791D01*
X216248651Y-60911172D01*
X216237318Y-60924206D01*
X214799345Y-62362181D01*
X214738022Y-62395666D01*
X214711664Y-62398500D01*
X210662209Y-62398500D01*
X210595170Y-62378815D01*
X210549415Y-62326011D01*
X210539471Y-62256853D01*
X210542004Y-62244059D01*
X210596131Y-62030317D01*
X210596131Y-62030316D01*
X210596134Y-62030305D01*
X210596135Y-62030297D01*
X210615300Y-61799006D01*
X210615300Y-61798993D01*
X210596135Y-61567702D01*
X210596133Y-61567691D01*
X210539157Y-61342699D01*
X210445924Y-61130151D01*
X210318983Y-60935852D01*
X210318980Y-60935849D01*
X210318979Y-60935847D01*
X210161784Y-60765087D01*
X210161779Y-60765083D01*
X210161777Y-60765081D01*
X209978634Y-60622535D01*
X209978628Y-60622531D01*
X209839394Y-60547181D01*
X209789804Y-60497961D01*
X209774696Y-60429744D01*
X209798867Y-60364189D01*
X209810724Y-60350452D01*
X210711176Y-59450000D01*
X212963179Y-59450000D01*
X212982424Y-59669976D01*
X212982426Y-59669986D01*
X213039575Y-59883270D01*
X213039580Y-59883284D01*
X213132899Y-60083407D01*
X213132900Y-60083409D01*
X213178258Y-60148187D01*
X213845096Y-59481349D01*
X213845051Y-59481898D01*
X213876266Y-59605162D01*
X213945813Y-59711612D01*
X214046157Y-59789713D01*
X214166422Y-59831000D01*
X214202553Y-59831000D01*
X213531811Y-60501741D01*
X213596582Y-60547094D01*
X213596592Y-60547100D01*
X213796715Y-60640419D01*
X213796729Y-60640424D01*
X214010013Y-60697573D01*
X214010023Y-60697575D01*
X214229999Y-60716821D01*
X214230001Y-60716821D01*
X214449976Y-60697575D01*
X214449986Y-60697573D01*
X214663270Y-60640424D01*
X214663284Y-60640419D01*
X214863408Y-60547100D01*
X214863420Y-60547093D01*
X214928186Y-60501742D01*
X214928187Y-60501740D01*
X214257448Y-59831000D01*
X214261569Y-59831000D01*
X214355421Y-59815339D01*
X214467251Y-59754820D01*
X214553371Y-59661269D01*
X214604448Y-59544823D01*
X214610105Y-59476552D01*
X215281740Y-60148187D01*
X215281742Y-60148186D01*
X215327093Y-60083420D01*
X215327100Y-60083408D01*
X215420419Y-59883284D01*
X215420424Y-59883270D01*
X215477573Y-59669986D01*
X215477575Y-59669976D01*
X215496821Y-59450000D01*
X215496821Y-59449999D01*
X215477575Y-59230023D01*
X215477573Y-59230013D01*
X215420424Y-59016729D01*
X215420420Y-59016720D01*
X215327098Y-58816590D01*
X215281740Y-58751811D01*
X214614903Y-59418648D01*
X214614949Y-59418102D01*
X214583734Y-59294838D01*
X214514187Y-59188388D01*
X214413843Y-59110287D01*
X214293578Y-59069000D01*
X214257447Y-59069000D01*
X214928187Y-58398258D01*
X214863409Y-58352900D01*
X214863407Y-58352899D01*
X214663284Y-58259580D01*
X214663270Y-58259575D01*
X214449986Y-58202426D01*
X214449976Y-58202424D01*
X214230001Y-58183179D01*
X214229999Y-58183179D01*
X214010023Y-58202424D01*
X214010013Y-58202426D01*
X213796729Y-58259575D01*
X213796720Y-58259579D01*
X213596586Y-58352903D01*
X213531812Y-58398257D01*
X213531811Y-58398258D01*
X214202554Y-59069000D01*
X214198431Y-59069000D01*
X214104579Y-59084661D01*
X213992749Y-59145180D01*
X213906629Y-59238731D01*
X213855552Y-59355177D01*
X213849894Y-59423447D01*
X213178258Y-58751811D01*
X213178257Y-58751812D01*
X213132903Y-58816586D01*
X213039579Y-59016720D01*
X213039575Y-59016729D01*
X212982426Y-59230013D01*
X212982424Y-59230023D01*
X212963179Y-59449999D01*
X212963179Y-59450000D01*
X210711176Y-59450000D01*
X217214867Y-52946311D01*
X217276190Y-52912826D01*
X217302548Y-52909992D01*
X222212335Y-52909992D01*
X222219273Y-52910381D01*
X222257869Y-52914730D01*
X222257871Y-52914729D01*
X222257872Y-52914730D01*
X222275628Y-52913532D01*
X222326074Y-52910131D01*
X222330230Y-52909992D01*
X222342189Y-52909992D01*
X222342197Y-52909992D01*
X222384165Y-52906214D01*
X222482454Y-52899588D01*
X222486688Y-52898520D01*
X222505883Y-52895259D01*
X222510230Y-52894869D01*
X222605207Y-52868656D01*
X222700725Y-52844588D01*
X222704697Y-52842783D01*
X222723004Y-52836146D01*
X222727212Y-52834985D01*
X222815977Y-52792238D01*
X222905668Y-52751499D01*
X222909262Y-52749008D01*
X222926077Y-52739216D01*
X222930015Y-52737321D01*
X223009718Y-52679413D01*
X223081200Y-52629891D01*
X223109408Y-52615296D01*
X223144627Y-52602478D01*
X223349275Y-52484324D01*
X223430096Y-52416507D01*
X223484949Y-52370480D01*
X223484948Y-52370480D01*
X223484953Y-52370476D01*
X223780476Y-52074953D01*
X223894324Y-51939274D01*
X224012478Y-51734627D01*
X224093299Y-51512572D01*
X224134333Y-51279854D01*
X224134333Y-51043548D01*
X224093299Y-50810831D01*
X224012478Y-50588775D01*
X223894324Y-50384127D01*
X223847502Y-50328326D01*
X223742429Y-50203104D01*
X223561408Y-50051211D01*
X223561407Y-50051210D01*
X223493191Y-50011825D01*
X223356763Y-49933058D01*
X223356760Y-49933057D01*
X223356759Y-49933056D01*
X223328720Y-49922851D01*
X223134703Y-49852234D01*
X222901988Y-49811201D01*
X222901986Y-49811201D01*
X222693813Y-49811201D01*
X222626774Y-49791516D01*
X222581019Y-49738712D01*
X222571075Y-49669554D01*
X222573156Y-49658603D01*
X222606398Y-49518348D01*
X222615095Y-49481655D01*
X222615095Y-49306213D01*
X222587753Y-49190852D01*
X222574635Y-49135503D01*
X222495894Y-48978716D01*
X222430647Y-48898622D01*
X222430639Y-48898612D01*
X221511388Y-47979362D01*
X221511380Y-47979355D01*
X221511374Y-47979350D01*
X221431288Y-47914109D01*
X221431282Y-47914105D01*
X221431281Y-47914104D01*
X221352538Y-47874558D01*
X221274496Y-47835364D01*
X221103794Y-47794906D01*
X221103789Y-47794905D01*
X221103787Y-47794905D01*
X220928345Y-47794905D01*
X220928343Y-47794905D01*
X220928337Y-47794906D01*
X220757633Y-47835365D01*
X220757632Y-47835365D01*
X220600856Y-47914101D01*
X220600855Y-47914102D01*
X220600853Y-47914103D01*
X220600852Y-47914104D01*
X220577008Y-47933528D01*
X220520743Y-47979361D01*
X220520737Y-47979367D01*
X219389369Y-49110736D01*
X219389361Y-49110745D01*
X219324105Y-49190849D01*
X219324100Y-49190857D01*
X219245365Y-49347632D01*
X219245365Y-49347633D01*
X219204906Y-49518337D01*
X219204905Y-49518348D01*
X219204905Y-49693783D01*
X219204906Y-49693794D01*
X219245364Y-49864496D01*
X219245366Y-49864499D01*
X219324104Y-50021281D01*
X219348485Y-50051210D01*
X219389357Y-50101383D01*
X219389363Y-50101390D01*
X219485284Y-50197311D01*
X219518769Y-50258634D01*
X219513785Y-50328326D01*
X219471913Y-50384259D01*
X219406449Y-50408676D01*
X219397603Y-50408992D01*
X216806919Y-50408992D01*
X216799980Y-50408602D01*
X216776689Y-50405978D01*
X216761388Y-50404254D01*
X216761381Y-50404253D01*
X216714436Y-50407419D01*
X216693179Y-50408852D01*
X216689024Y-50408992D01*
X216677053Y-50408992D01*
X216635087Y-50412769D01*
X216536802Y-50419395D01*
X216532561Y-50420464D01*
X216513388Y-50423722D01*
X216509020Y-50424115D01*
X216414046Y-50450327D01*
X216318531Y-50474394D01*
X216314534Y-50476210D01*
X216296271Y-50482831D01*
X216292046Y-50483997D01*
X216203276Y-50526745D01*
X216113581Y-50567487D01*
X216109987Y-50569978D01*
X216093183Y-50579763D01*
X216089243Y-50581660D01*
X216089240Y-50581662D01*
X216009535Y-50639570D01*
X215928561Y-50695669D01*
X215928555Y-50695674D01*
X215925451Y-50698778D01*
X215910677Y-50711395D01*
X215907140Y-50713965D01*
X215907133Y-50713970D01*
X215839058Y-50785171D01*
X206132806Y-60491422D01*
X206104143Y-60512795D01*
X205901380Y-60622525D01*
X205901365Y-60622535D01*
X205718222Y-60765081D01*
X205718219Y-60765084D01*
X205718216Y-60765086D01*
X205718216Y-60765087D01*
X205570855Y-60925165D01*
X205561015Y-60935854D01*
X205503509Y-61023874D01*
X205450363Y-61069230D01*
X205381132Y-61078654D01*
X205317796Y-61049152D01*
X205295892Y-61023873D01*
X205281186Y-61001364D01*
X204613076Y-61669474D01*
X204589493Y-61589156D01*
X204511761Y-61468202D01*
X204403100Y-61374048D01*
X204272315Y-61314320D01*
X204262534Y-61312913D01*
X204928799Y-60646648D01*
X204928799Y-60646647D01*
X204898349Y-60622949D01*
X204694302Y-60512523D01*
X204694293Y-60512520D01*
X204474860Y-60437188D01*
X204246007Y-60399000D01*
X204013993Y-60399000D01*
X203785139Y-60437188D01*
X203565706Y-60512520D01*
X203565698Y-60512523D01*
X203361644Y-60622952D01*
X203331200Y-60646646D01*
X203331200Y-60646647D01*
X203997466Y-61312913D01*
X203987685Y-61314320D01*
X203856900Y-61374048D01*
X203748239Y-61468202D01*
X203670507Y-61589156D01*
X203646923Y-61669476D01*
X202978812Y-61001365D01*
X202894516Y-61130391D01*
X202894514Y-61130395D01*
X202801317Y-61342864D01*
X202744361Y-61567781D01*
X202725202Y-61798994D01*
X202725202Y-61799005D01*
X202744361Y-62030218D01*
X202798513Y-62244060D01*
X202795888Y-62313880D01*
X202755932Y-62371198D01*
X202691330Y-62397814D01*
X202678307Y-62398500D01*
X201218336Y-62398500D01*
X201151297Y-62378815D01*
X201130655Y-62362181D01*
X197468137Y-58699663D01*
X197454242Y-58683104D01*
X197420826Y-58635380D01*
X197420823Y-58635377D01*
X197264620Y-58479174D01*
X197264616Y-58479171D01*
X197264615Y-58479170D01*
X197083666Y-58352468D01*
X197083662Y-58352466D01*
X197083660Y-58352465D01*
X196883450Y-58259106D01*
X196883447Y-58259105D01*
X196883445Y-58259104D01*
X196670070Y-58201930D01*
X196670062Y-58201929D01*
X196450002Y-58182677D01*
X196449998Y-58182677D01*
X196229937Y-58201929D01*
X196229929Y-58201930D01*
X196016554Y-58259104D01*
X196016548Y-58259107D01*
X195816340Y-58352465D01*
X195816338Y-58352466D01*
X195635377Y-58479175D01*
X195479175Y-58635377D01*
X195352466Y-58816338D01*
X195352465Y-58816340D01*
X195259107Y-59016548D01*
X195259104Y-59016554D01*
X195201930Y-59229929D01*
X195201929Y-59229937D01*
X195182677Y-59449997D01*
X195182677Y-59450002D01*
X195201929Y-59670062D01*
X195201930Y-59670070D01*
X195259104Y-59883445D01*
X195259105Y-59883447D01*
X195259106Y-59883450D01*
X195352347Y-60083407D01*
X195352466Y-60083662D01*
X195352468Y-60083666D01*
X195442580Y-60212359D01*
X195479174Y-60264620D01*
X195564999Y-60350445D01*
X195635381Y-60420827D01*
X195683106Y-60454244D01*
X195699664Y-60468138D01*
X199712642Y-64481116D01*
X199717279Y-64486304D01*
X199741492Y-64516666D01*
X199792967Y-64561639D01*
X199796000Y-64564474D01*
X199804471Y-64572945D01*
X199804475Y-64572949D01*
X199804479Y-64572952D01*
X199819979Y-64585892D01*
X199833381Y-64597081D01*
X199836811Y-64599944D01*
X199911002Y-64664764D01*
X199914755Y-64667006D01*
X199930626Y-64678266D01*
X199933982Y-64681068D01*
X199933984Y-64681069D01*
X200019663Y-64729685D01*
X200104227Y-64780210D01*
X200104230Y-64780211D01*
X200104236Y-64780215D01*
X200108327Y-64781750D01*
X200125946Y-64789992D01*
X200129755Y-64792154D01*
X200222762Y-64824698D01*
X200314976Y-64859307D01*
X200319266Y-64860085D01*
X200338094Y-64865055D01*
X200342218Y-64866498D01*
X200439539Y-64881912D01*
X200453122Y-64884377D01*
X200536451Y-64899500D01*
X200536453Y-64899500D01*
X200540822Y-64899500D01*
X200560220Y-64901026D01*
X200564541Y-64901711D01*
X200663048Y-64899500D01*
X207503322Y-64899500D01*
X207570361Y-64919185D01*
X207616116Y-64971989D01*
X207626060Y-65041147D01*
X207597035Y-65104703D01*
X207557123Y-65135220D01*
X207503055Y-65161258D01*
X207413376Y-65201991D01*
X207409772Y-65204488D01*
X207392980Y-65214267D01*
X207389029Y-65216170D01*
X207389018Y-65216176D01*
X207309314Y-65274085D01*
X207228347Y-65330178D01*
X207225239Y-65333286D01*
X207210465Y-65345903D01*
X207206928Y-65348473D01*
X207206921Y-65348478D01*
X207138846Y-65419679D01*
X199750844Y-72807681D01*
X199689521Y-72841166D01*
X199663163Y-72844000D01*
X197411000Y-72844000D01*
X197411000Y-74094000D01*
X198165163Y-74094000D01*
X198232202Y-74113685D01*
X198277957Y-74166489D01*
X198287901Y-74235647D01*
X198258876Y-74299203D01*
X198252844Y-74305681D01*
X196929344Y-75629181D01*
X196868021Y-75662666D01*
X196841663Y-75665500D01*
X195333560Y-75665500D01*
X195266521Y-75645815D01*
X195220766Y-75593011D01*
X195209560Y-75541500D01*
X195209560Y-74218000D01*
X195229245Y-74150961D01*
X195282049Y-74105206D01*
X195333560Y-74094000D01*
X196911000Y-74094000D01*
X196911000Y-71094000D01*
X197411000Y-71094000D01*
X197411000Y-72344000D01*
X199661000Y-72344000D01*
X199661000Y-71546172D01*
X199660999Y-71546155D01*
X199654598Y-71486627D01*
X199654596Y-71486620D01*
X199604354Y-71351913D01*
X199604350Y-71351906D01*
X199518190Y-71236812D01*
X199518187Y-71236809D01*
X199403093Y-71150649D01*
X199403086Y-71150645D01*
X199268379Y-71100403D01*
X199268372Y-71100401D01*
X199208844Y-71094000D01*
X197411000Y-71094000D01*
X196911000Y-71094000D01*
X195333560Y-71094000D01*
X195266521Y-71074315D01*
X195220766Y-71021511D01*
X195209560Y-70970000D01*
X195209560Y-63444759D01*
X195209588Y-63444616D01*
X195209584Y-63444616D01*
X195209599Y-63420002D01*
X195209601Y-63420000D01*
X195209522Y-63419808D01*
X195209444Y-63419618D01*
X195209442Y-63419616D01*
X195209159Y-63419500D01*
X195209060Y-63419459D01*
X195184506Y-63419459D01*
X195184300Y-63419500D01*
X185352651Y-63419500D01*
X185285612Y-63399815D01*
X185239857Y-63347011D01*
X185229913Y-63277853D01*
X185258938Y-63214297D01*
X185264970Y-63207819D01*
X194625970Y-53846819D01*
X194687293Y-53813334D01*
X194713651Y-53810500D01*
X198523130Y-53810500D01*
X198590169Y-53830185D01*
X198635924Y-53882989D01*
X198640836Y-53895495D01*
X198675749Y-54000856D01*
X198685186Y-54029333D01*
X198685187Y-54029336D01*
X198698598Y-54051079D01*
X198777288Y-54178656D01*
X198901344Y-54302712D01*
X199050666Y-54394814D01*
X199217203Y-54449999D01*
X199319991Y-54460500D01*
X200620008Y-54460499D01*
X200722797Y-54449999D01*
X200889334Y-54394814D01*
X201038656Y-54302712D01*
X201162712Y-54178656D01*
X201254814Y-54029334D01*
X201254814Y-54029333D01*
X201258448Y-54023442D01*
X201310396Y-53976717D01*
X201379358Y-53965494D01*
X201443441Y-53993337D01*
X201451668Y-54000856D01*
X201598921Y-54148108D01*
X201792421Y-54283600D01*
X202006507Y-54383429D01*
X202006516Y-54383433D01*
X202220000Y-54440634D01*
X202220000Y-53395501D01*
X202327685Y-53444680D01*
X202434237Y-53460000D01*
X202505763Y-53460000D01*
X202612315Y-53444680D01*
X202720000Y-53395501D01*
X202720000Y-54440633D01*
X202933483Y-54383433D01*
X202933492Y-54383429D01*
X203147577Y-54283600D01*
X203147579Y-54283599D01*
X203341073Y-54148113D01*
X203341079Y-54148108D01*
X203508108Y-53981079D01*
X203508113Y-53981073D01*
X203613895Y-53830001D01*
X207209500Y-53830001D01*
X207209501Y-53830018D01*
X207220000Y-53932796D01*
X207220001Y-53932799D01*
X207250038Y-54023442D01*
X207275186Y-54099334D01*
X207367288Y-54248656D01*
X207491344Y-54372712D01*
X207640666Y-54464814D01*
X207807203Y-54519999D01*
X207909991Y-54530500D01*
X209210008Y-54530499D01*
X209312797Y-54519999D01*
X209479334Y-54464814D01*
X209628656Y-54372712D01*
X209752712Y-54248656D01*
X209844814Y-54099334D01*
X209844814Y-54099333D01*
X209848448Y-54093442D01*
X209900396Y-54046717D01*
X209969358Y-54035494D01*
X210033441Y-54063337D01*
X210041668Y-54070856D01*
X210188921Y-54218108D01*
X210382421Y-54353600D01*
X210596507Y-54453429D01*
X210596516Y-54453433D01*
X210810000Y-54510634D01*
X210810000Y-53465501D01*
X210917685Y-53514680D01*
X211024237Y-53530000D01*
X211095763Y-53530000D01*
X211202315Y-53514680D01*
X211310000Y-53465501D01*
X211310000Y-54510633D01*
X211523483Y-54453433D01*
X211523492Y-54453429D01*
X211737577Y-54353600D01*
X211737579Y-54353599D01*
X211931073Y-54218113D01*
X211931079Y-54218108D01*
X212098108Y-54051079D01*
X212098113Y-54051073D01*
X212233599Y-53857579D01*
X212233600Y-53857577D01*
X212333429Y-53643492D01*
X212333433Y-53643483D01*
X212394567Y-53415326D01*
X212394569Y-53415315D01*
X212406407Y-53280000D01*
X211493686Y-53280000D01*
X211519493Y-53239844D01*
X211560000Y-53101889D01*
X211560000Y-52958111D01*
X211519493Y-52820156D01*
X211493686Y-52780000D01*
X212406407Y-52780000D01*
X212406407Y-52779999D01*
X212394569Y-52644684D01*
X212394567Y-52644673D01*
X212333433Y-52416516D01*
X212333429Y-52416507D01*
X212233600Y-52202422D01*
X212233599Y-52202420D01*
X212098113Y-52008926D01*
X212098108Y-52008920D01*
X211931082Y-51841894D01*
X211737578Y-51706399D01*
X211523492Y-51606570D01*
X211523486Y-51606567D01*
X211310000Y-51549364D01*
X211310000Y-52594498D01*
X211202315Y-52545320D01*
X211095763Y-52530000D01*
X211024237Y-52530000D01*
X210917685Y-52545320D01*
X210810000Y-52594498D01*
X210810000Y-51549364D01*
X210809999Y-51549364D01*
X210596513Y-51606567D01*
X210596507Y-51606570D01*
X210382422Y-51706399D01*
X210382420Y-51706400D01*
X210188926Y-51841886D01*
X210041668Y-51989144D01*
X209980345Y-52022628D01*
X209910653Y-52017644D01*
X209854720Y-51975772D01*
X209848448Y-51966558D01*
X209831620Y-51939276D01*
X209752712Y-51811344D01*
X209628656Y-51687288D01*
X209479334Y-51595186D01*
X209312797Y-51540001D01*
X209312795Y-51540000D01*
X209210010Y-51529500D01*
X207909998Y-51529500D01*
X207909981Y-51529501D01*
X207807203Y-51540000D01*
X207807200Y-51540001D01*
X207640668Y-51595185D01*
X207640663Y-51595187D01*
X207491342Y-51687289D01*
X207367289Y-51811342D01*
X207275187Y-51960663D01*
X207275185Y-51960668D01*
X207270180Y-51975772D01*
X207220001Y-52127203D01*
X207220001Y-52127204D01*
X207220000Y-52127204D01*
X207209500Y-52229983D01*
X207209500Y-53830001D01*
X203613895Y-53830001D01*
X203643599Y-53787579D01*
X203643600Y-53787577D01*
X203743429Y-53573492D01*
X203743433Y-53573483D01*
X203804567Y-53345326D01*
X203804569Y-53345315D01*
X203816407Y-53210000D01*
X202903686Y-53210000D01*
X202929493Y-53169844D01*
X202970000Y-53031889D01*
X202970000Y-52888111D01*
X202929493Y-52750156D01*
X202903686Y-52710000D01*
X203816407Y-52710000D01*
X203816407Y-52709999D01*
X203804569Y-52574684D01*
X203804567Y-52574673D01*
X203743433Y-52346516D01*
X203743429Y-52346507D01*
X203643600Y-52132422D01*
X203643599Y-52132420D01*
X203508113Y-51938926D01*
X203508108Y-51938920D01*
X203341082Y-51771894D01*
X203147578Y-51636399D01*
X202933492Y-51536570D01*
X202933486Y-51536567D01*
X202720000Y-51479364D01*
X202720000Y-52524498D01*
X202612315Y-52475320D01*
X202505763Y-52460000D01*
X202434237Y-52460000D01*
X202327685Y-52475320D01*
X202220000Y-52524498D01*
X202220000Y-51479364D01*
X202219999Y-51479364D01*
X202006513Y-51536567D01*
X202006507Y-51536570D01*
X201792422Y-51636399D01*
X201792420Y-51636400D01*
X201598926Y-51771886D01*
X201451668Y-51919144D01*
X201390345Y-51952628D01*
X201320653Y-51947644D01*
X201264720Y-51905772D01*
X201258448Y-51896558D01*
X201162712Y-51741344D01*
X201038657Y-51617289D01*
X201038656Y-51617288D01*
X200913353Y-51540001D01*
X200889336Y-51525187D01*
X200889331Y-51525185D01*
X200887862Y-51524698D01*
X200722797Y-51470001D01*
X200722795Y-51470000D01*
X200620010Y-51459500D01*
X199319998Y-51459500D01*
X199319981Y-51459501D01*
X199217203Y-51470000D01*
X199217200Y-51470001D01*
X199050668Y-51525185D01*
X199050663Y-51525187D01*
X198901342Y-51617289D01*
X198777289Y-51741342D01*
X198685187Y-51890663D01*
X198685185Y-51890668D01*
X198680180Y-51905772D01*
X198640835Y-52024505D01*
X198601064Y-52081949D01*
X198536549Y-52108772D01*
X198523131Y-52109500D01*
X194347087Y-52109500D01*
X194342052Y-52109295D01*
X194286835Y-52104798D01*
X194286828Y-52104799D01*
X194206607Y-52115729D01*
X194126092Y-52124485D01*
X194125131Y-52124697D01*
X194104471Y-52129538D01*
X194103534Y-52129771D01*
X194027513Y-52157700D01*
X193950784Y-52183553D01*
X193949920Y-52183953D01*
X193930721Y-52193152D01*
X193929881Y-52193569D01*
X193861659Y-52237176D01*
X193792268Y-52278927D01*
X193791489Y-52279519D01*
X193774764Y-52292595D01*
X193774013Y-52293198D01*
X193716769Y-52350441D01*
X193657956Y-52406153D01*
X193657346Y-52406871D01*
X193643091Y-52424119D01*
X183644122Y-62423086D01*
X183582799Y-62456571D01*
X183513107Y-62451587D01*
X183457174Y-62409715D01*
X183432757Y-62344251D01*
X183435932Y-62306194D01*
X183480420Y-62122718D01*
X183746972Y-61042377D01*
X183757783Y-61001364D01*
X183980274Y-60157217D01*
X184269875Y-59074032D01*
X184517686Y-58204173D01*
X184831220Y-57116294D01*
X184914149Y-56845680D01*
X185091806Y-56265939D01*
X185430779Y-55169951D01*
X185701256Y-54345990D01*
X186068372Y-53235603D01*
X186343601Y-52450067D01*
X186743710Y-51314128D01*
X186853103Y-51020684D01*
X186894964Y-50964746D01*
X186960424Y-50940317D01*
X186969291Y-50940000D01*
X199940000Y-50940000D01*
X199940000Y-47176955D01*
X199959685Y-47109916D01*
X200012489Y-47064161D01*
X200081647Y-47054217D01*
X200108747Y-47061311D01*
X200441235Y-47189987D01*
X201205586Y-47444874D01*
X201205585Y-47444874D01*
X201981144Y-47663267D01*
X201981145Y-47663267D01*
X201981152Y-47663269D01*
X202766193Y-47844682D01*
X203242924Y-47931292D01*
X203558932Y-47988704D01*
X203558933Y-47988704D01*
X203558940Y-47988704D01*
X203558946Y-47988706D01*
X203807325Y-48021767D01*
X204357620Y-48095016D01*
X205160437Y-48163375D01*
X205160438Y-48163375D01*
X205160449Y-48163375D01*
X205160456Y-48163376D01*
X205454116Y-48174410D01*
X205965602Y-48193631D01*
X205965613Y-48193630D01*
X205965617Y-48193631D01*
X206079880Y-48192508D01*
X206771297Y-48185714D01*
X207161309Y-48163376D01*
X207575719Y-48139641D01*
X207575729Y-48139640D01*
X207575730Y-48139640D01*
X208377041Y-48055517D01*
X208377040Y-48055517D01*
X209173494Y-47933528D01*
X209173493Y-47933528D01*
X209963258Y-47773954D01*
X209963259Y-47773954D01*
X210432050Y-47655869D01*
X210744580Y-47577147D01*
X211515704Y-47343552D01*
X212274899Y-47073692D01*
X212649870Y-46920035D01*
X213020457Y-46768175D01*
X213505469Y-46542030D01*
X213750709Y-46427684D01*
X213955966Y-46319861D01*
X213956405Y-46319773D01*
X213962602Y-46316375D01*
X214204099Y-46189517D01*
X214464005Y-46052989D01*
X214541195Y-46007650D01*
X214676291Y-45928301D01*
X214678485Y-45927751D01*
X214706356Y-45910642D01*
X215158765Y-45644919D01*
X215376940Y-45502458D01*
X215380825Y-45501287D01*
X215425386Y-45470825D01*
X215833409Y-45204402D01*
X215833408Y-45204403D01*
X216005895Y-45079735D01*
X216486430Y-44732423D01*
X216754787Y-44518433D01*
X216754860Y-44518403D01*
X216800132Y-44482278D01*
X216802738Y-44480309D01*
X216897217Y-44412742D01*
X216906516Y-44406091D01*
X216954776Y-44371859D01*
X217060663Y-44296750D01*
X217065916Y-44293408D01*
X217202218Y-44216088D01*
X217345553Y-44137057D01*
X217350622Y-44134560D01*
X217497473Y-44070528D01*
X217646041Y-44009282D01*
X217650948Y-44007498D01*
X217805126Y-43958729D01*
X217958636Y-43914897D01*
X217963209Y-43913779D01*
X218103410Y-43885136D01*
X218122521Y-43881232D01*
X218136611Y-43878882D01*
X218279602Y-43855036D01*
X218283772Y-43854487D01*
X218446218Y-43838729D01*
X218605181Y-43830399D01*
X218608855Y-43830317D01*
X218770901Y-43831633D01*
G37*
%TD.AperFunction*%
%TA.AperFunction,Conductor*%
G36*
X221080000Y-94054999D02*
G01*
X221479972Y-94054999D01*
X221479986Y-94054998D01*
X221582697Y-94044505D01*
X221749119Y-93989358D01*
X221749130Y-93989353D01*
X221890403Y-93902215D01*
X221957795Y-93883774D01*
X222024459Y-93904696D01*
X222069229Y-93958338D01*
X222079500Y-94007753D01*
X222079500Y-100320663D01*
X222059815Y-100387702D01*
X222043181Y-100408344D01*
X220153890Y-102297635D01*
X220092567Y-102331120D01*
X220022875Y-102326136D01*
X219966942Y-102284264D01*
X219942525Y-102218800D01*
X219957377Y-102150527D01*
X219960978Y-102144835D01*
X219960901Y-102144789D01*
X219963760Y-102140000D01*
X219963765Y-102139996D01*
X219966006Y-102136243D01*
X219977274Y-102120364D01*
X219980068Y-102117019D01*
X220028683Y-102031340D01*
X220079215Y-101946764D01*
X220080747Y-101942679D01*
X220089003Y-101925033D01*
X220091153Y-101921245D01*
X220123692Y-101828253D01*
X220158307Y-101736024D01*
X220159085Y-101731737D01*
X220164056Y-101712902D01*
X220165498Y-101708783D01*
X220180910Y-101611472D01*
X220182082Y-101605015D01*
X220198500Y-101514549D01*
X220198500Y-101510169D01*
X220200027Y-101490770D01*
X220200710Y-101486460D01*
X220198500Y-101387997D01*
X220198500Y-94178999D01*
X220218185Y-94111960D01*
X220270989Y-94066205D01*
X220322500Y-94054999D01*
X220580000Y-94054999D01*
X220580000Y-92988018D01*
X220694801Y-93040446D01*
X220796025Y-93055000D01*
X220863975Y-93055000D01*
X220965199Y-93040446D01*
X221080000Y-92988018D01*
X221080000Y-94054999D01*
G37*
%TD.AperFunction*%
%TA.AperFunction,Conductor*%
G36*
X203249495Y-92250185D02*
G01*
X203270137Y-92266819D01*
X207119217Y-96115899D01*
X207152702Y-96177222D01*
X207147718Y-96246914D01*
X207105846Y-96302847D01*
X207040382Y-96327264D01*
X206991277Y-96320863D01*
X206984981Y-96318702D01*
X206932839Y-96310001D01*
X206756049Y-96280500D01*
X206523951Y-96280500D01*
X206478164Y-96288140D01*
X206295015Y-96318702D01*
X206075504Y-96394061D01*
X206075495Y-96394064D01*
X205871371Y-96504531D01*
X205871365Y-96504535D01*
X205688222Y-96647081D01*
X205688219Y-96647084D01*
X205688216Y-96647086D01*
X205688216Y-96647087D01*
X205682961Y-96652796D01*
X205531016Y-96817852D01*
X205473809Y-96905416D01*
X205420662Y-96950773D01*
X205351431Y-96960197D01*
X205288095Y-96930695D01*
X205266191Y-96905416D01*
X205208983Y-96817852D01*
X205208980Y-96817849D01*
X205208979Y-96817847D01*
X205051784Y-96647087D01*
X205051779Y-96647083D01*
X205051777Y-96647081D01*
X204868634Y-96504535D01*
X204868628Y-96504531D01*
X204664504Y-96394064D01*
X204664495Y-96394061D01*
X204444984Y-96318702D01*
X204270930Y-96289658D01*
X204216049Y-96280500D01*
X203983951Y-96280500D01*
X203938164Y-96288140D01*
X203755015Y-96318702D01*
X203535504Y-96394061D01*
X203535495Y-96394064D01*
X203331371Y-96504531D01*
X203331365Y-96504535D01*
X203148222Y-96647081D01*
X203148219Y-96647084D01*
X203148216Y-96647086D01*
X203148216Y-96647087D01*
X203142961Y-96652796D01*
X202991016Y-96817852D01*
X202864075Y-97012151D01*
X202770842Y-97224699D01*
X202713866Y-97449691D01*
X202713864Y-97449702D01*
X202694700Y-97680993D01*
X202694700Y-97681006D01*
X202713864Y-97912297D01*
X202713866Y-97912308D01*
X202770842Y-98137300D01*
X202864075Y-98349848D01*
X202991016Y-98544147D01*
X202991019Y-98544151D01*
X202991021Y-98544153D01*
X203148216Y-98714913D01*
X203148219Y-98714915D01*
X203148222Y-98714918D01*
X203331365Y-98857464D01*
X203331371Y-98857468D01*
X203331374Y-98857470D01*
X203535497Y-98967936D01*
X203616706Y-98995815D01*
X203755017Y-99043298D01*
X203774870Y-99046610D01*
X203791552Y-99049394D01*
X203854438Y-99079843D01*
X203890879Y-99139457D01*
X203889305Y-99209309D01*
X203858826Y-99259384D01*
X202603030Y-100515181D01*
X202541707Y-100548666D01*
X202515349Y-100551500D01*
X197794978Y-100551500D01*
X197727939Y-100531815D01*
X197682184Y-100479011D01*
X197672240Y-100409853D01*
X197675201Y-100395414D01*
X197698070Y-100310068D01*
X197717323Y-100090000D01*
X197714532Y-100058102D01*
X197703748Y-99934838D01*
X197698070Y-99869932D01*
X197640894Y-99656550D01*
X197547534Y-99456339D01*
X197420826Y-99275380D01*
X197264620Y-99119174D01*
X197264616Y-99119171D01*
X197264615Y-99119170D01*
X197083666Y-98992468D01*
X197083662Y-98992466D01*
X196960026Y-98934814D01*
X196883450Y-98899106D01*
X196883447Y-98899105D01*
X196883445Y-98899104D01*
X196670070Y-98841930D01*
X196670062Y-98841929D01*
X196450002Y-98822677D01*
X196449998Y-98822677D01*
X196229937Y-98841929D01*
X196229929Y-98841930D01*
X196016554Y-98899104D01*
X196016548Y-98899107D01*
X195816340Y-98992465D01*
X195816338Y-98992466D01*
X195635377Y-99119175D01*
X195479175Y-99275377D01*
X195352466Y-99456338D01*
X195352465Y-99456340D01*
X195259107Y-99656548D01*
X195259104Y-99656554D01*
X195201930Y-99869929D01*
X195201929Y-99869937D01*
X195182677Y-100089997D01*
X195182677Y-100090002D01*
X195201922Y-100309986D01*
X195201930Y-100310068D01*
X195224796Y-100395407D01*
X195223134Y-100465256D01*
X195183972Y-100523119D01*
X195119744Y-100550623D01*
X195105022Y-100551500D01*
X190135651Y-100551500D01*
X190068612Y-100531815D01*
X190047970Y-100515181D01*
X186994970Y-97462181D01*
X186961485Y-97400858D01*
X186966469Y-97331166D01*
X187008341Y-97275233D01*
X187073805Y-97250816D01*
X187082651Y-97250500D01*
X189260003Y-97250500D01*
X189260008Y-97250500D01*
X189362797Y-97239999D01*
X189529334Y-97184814D01*
X189678655Y-97092711D01*
X189802711Y-96968655D01*
X189894814Y-96819334D01*
X189949999Y-96652797D01*
X189960500Y-96550008D01*
X189960500Y-95369335D01*
X189980185Y-95302296D01*
X189996814Y-95281659D01*
X190006137Y-95272336D01*
X190067458Y-95238853D01*
X190137150Y-95243837D01*
X190193083Y-95285709D01*
X190217500Y-95351173D01*
X190217500Y-95368863D01*
X190215274Y-95399995D01*
X190215274Y-95400001D01*
X190234152Y-95663960D01*
X190290400Y-95922528D01*
X190382884Y-96170487D01*
X190509701Y-96402735D01*
X190509706Y-96402743D01*
X190597038Y-96519406D01*
X190597039Y-96519406D01*
X191318766Y-95797679D01*
X191362316Y-95879822D01*
X191482009Y-96020735D01*
X191629195Y-96132623D01*
X191671402Y-96152150D01*
X190950592Y-96872959D01*
X190950593Y-96872960D01*
X191067256Y-96960293D01*
X191067264Y-96960298D01*
X191299513Y-97087115D01*
X191299512Y-97087115D01*
X191547471Y-97179599D01*
X191806039Y-97235847D01*
X192069999Y-97254726D01*
X192070001Y-97254726D01*
X192333960Y-97235847D01*
X192592528Y-97179599D01*
X192840487Y-97087115D01*
X193072735Y-96960298D01*
X193072736Y-96960297D01*
X193189406Y-96872959D01*
X192468609Y-96152161D01*
X192587431Y-96080669D01*
X192721658Y-95953523D01*
X192824861Y-95801308D01*
X193542959Y-96519406D01*
X193630297Y-96402736D01*
X193630298Y-96402735D01*
X193757115Y-96170487D01*
X193849599Y-95922528D01*
X193905847Y-95663960D01*
X193924726Y-95400001D01*
X193924726Y-95399998D01*
X193905847Y-95136039D01*
X193849599Y-94877471D01*
X193757115Y-94629512D01*
X193630298Y-94397264D01*
X193630293Y-94397256D01*
X193542960Y-94280593D01*
X193542959Y-94280592D01*
X192821232Y-95002319D01*
X192777684Y-94920178D01*
X192657991Y-94779265D01*
X192510805Y-94667377D01*
X192468596Y-94647849D01*
X193189406Y-93927039D01*
X193189406Y-93927038D01*
X193072743Y-93839706D01*
X193072735Y-93839701D01*
X192840486Y-93712884D01*
X192840487Y-93712884D01*
X192592528Y-93620400D01*
X192333960Y-93564152D01*
X192070001Y-93545274D01*
X192069994Y-93545274D01*
X192038860Y-93547500D01*
X191970587Y-93532647D01*
X191921183Y-93483240D01*
X191906333Y-93414967D01*
X191930752Y-93349503D01*
X191942320Y-93336152D01*
X192872127Y-92406345D01*
X192877287Y-92401733D01*
X192907666Y-92377508D01*
X192952632Y-92326039D01*
X192955478Y-92322995D01*
X192963929Y-92314545D01*
X192963929Y-92314544D01*
X192963944Y-92314530D01*
X192990947Y-92282185D01*
X192999050Y-92272911D01*
X193057983Y-92235380D01*
X193092427Y-92230500D01*
X203182456Y-92230500D01*
X203249495Y-92250185D01*
G37*
%TD.AperFunction*%
%TA.AperFunction,Conductor*%
G36*
X218699703Y-67564185D02*
G01*
X218720345Y-67580819D01*
X219693181Y-68553655D01*
X219726666Y-68614978D01*
X219729500Y-68641336D01*
X219729500Y-69465914D01*
X219709815Y-69532953D01*
X219657011Y-69578708D01*
X219587853Y-69588652D01*
X219531189Y-69565181D01*
X219466842Y-69517011D01*
X219412331Y-69476204D01*
X219412329Y-69476203D01*
X219412328Y-69476202D01*
X219277482Y-69425908D01*
X219277483Y-69425908D01*
X219217883Y-69419501D01*
X219217881Y-69419500D01*
X219217873Y-69419500D01*
X219217864Y-69419500D01*
X216722129Y-69419500D01*
X216722123Y-69419501D01*
X216662516Y-69425908D01*
X216527671Y-69476202D01*
X216527664Y-69476206D01*
X216412455Y-69562452D01*
X216412452Y-69562455D01*
X216326206Y-69677664D01*
X216326202Y-69677671D01*
X216275908Y-69812517D01*
X216269501Y-69872116D01*
X216269500Y-69872135D01*
X216269500Y-71000663D01*
X216249815Y-71067702D01*
X216233181Y-71088344D01*
X215387334Y-71934192D01*
X215384224Y-71937301D01*
X215369468Y-71949901D01*
X215365926Y-71952474D01*
X215365921Y-71952478D01*
X215297846Y-72023679D01*
X214352345Y-72969181D01*
X214117334Y-73204192D01*
X214114224Y-73207301D01*
X214099468Y-73219901D01*
X214095926Y-73222474D01*
X214095921Y-73222478D01*
X214027846Y-73293679D01*
X212847339Y-74474186D01*
X212844238Y-74477286D01*
X212829468Y-74489901D01*
X212825926Y-74492474D01*
X212825921Y-74492478D01*
X212757846Y-74563679D01*
X212447346Y-74874180D01*
X211558348Y-75763177D01*
X211558333Y-75763192D01*
X211555222Y-75766302D01*
X211540470Y-75778899D01*
X211536928Y-75781472D01*
X211536921Y-75781478D01*
X211468867Y-75852657D01*
X210434334Y-76887192D01*
X210431224Y-76890301D01*
X210416468Y-76902901D01*
X210412926Y-76905474D01*
X210412921Y-76905478D01*
X210344846Y-76976679D01*
X210161346Y-77160180D01*
X209399334Y-77922192D01*
X209396224Y-77925301D01*
X209381468Y-77937901D01*
X209377926Y-77940474D01*
X209377921Y-77940478D01*
X209309846Y-78011679D01*
X208372251Y-78949273D01*
X208357465Y-78961903D01*
X208353922Y-78964477D01*
X208353920Y-78964478D01*
X208337299Y-78981863D01*
X208331140Y-78987493D01*
X208312338Y-79002487D01*
X208312327Y-79002498D01*
X208267366Y-79053959D01*
X208264522Y-79057002D01*
X208256069Y-79065455D01*
X208256057Y-79065469D01*
X208248379Y-79074663D01*
X208245603Y-79077769D01*
X208198368Y-79127175D01*
X208198367Y-79127177D01*
X208185114Y-79147252D01*
X208180061Y-79153888D01*
X208172335Y-79162732D01*
X208164233Y-79172006D01*
X208164231Y-79172008D01*
X208161986Y-79175766D01*
X208150741Y-79191615D01*
X208147931Y-79194980D01*
X208114200Y-79254428D01*
X208112019Y-79257986D01*
X208074370Y-79315023D01*
X208074362Y-79315038D01*
X208064909Y-79337152D01*
X208061121Y-79344586D01*
X208048784Y-79365237D01*
X208048783Y-79365238D01*
X208047244Y-79369340D01*
X208039011Y-79386939D01*
X208036851Y-79390746D01*
X208036847Y-79390754D01*
X208014274Y-79455262D01*
X208012764Y-79459152D01*
X207985897Y-79522009D01*
X207985894Y-79522019D01*
X207980542Y-79545466D01*
X207978143Y-79553456D01*
X207969692Y-79575978D01*
X207968912Y-79580278D01*
X207963949Y-79599080D01*
X207962502Y-79603214D01*
X207951808Y-79670733D01*
X207951017Y-79674826D01*
X207936888Y-79736738D01*
X207935809Y-79741464D01*
X207935809Y-79741467D01*
X207934730Y-79765491D01*
X207933796Y-79773778D01*
X207931061Y-79788845D01*
X207929500Y-79797451D01*
X207929500Y-79801827D01*
X207927973Y-79821229D01*
X207927289Y-79825541D01*
X207928823Y-79893878D01*
X207928776Y-79898051D01*
X207925709Y-79966326D01*
X207925710Y-79966330D01*
X207928938Y-79990164D01*
X207929500Y-79998495D01*
X207929500Y-85906664D01*
X207909815Y-85973703D01*
X207893181Y-85994345D01*
X207036345Y-86851181D01*
X206975022Y-86884666D01*
X206948664Y-86887500D01*
X195795707Y-86887500D01*
X195788768Y-86887110D01*
X195765477Y-86884486D01*
X195750176Y-86882762D01*
X195750169Y-86882761D01*
X195703224Y-86885927D01*
X195681967Y-86887360D01*
X195677812Y-86887500D01*
X195665841Y-86887500D01*
X195623875Y-86891277D01*
X195528020Y-86897739D01*
X195497538Y-86896027D01*
X195450551Y-86887500D01*
X195450547Y-86887500D01*
X195446172Y-86887500D01*
X195426769Y-86885972D01*
X195422460Y-86885289D01*
X195323978Y-86887500D01*
X191589697Y-86887500D01*
X191582758Y-86887110D01*
X191555907Y-86884085D01*
X191544174Y-86882763D01*
X191544168Y-86882762D01*
X191498704Y-86885828D01*
X191475976Y-86887360D01*
X191471823Y-86887500D01*
X191459840Y-86887500D01*
X191417857Y-86891278D01*
X191319589Y-86897903D01*
X191315348Y-86898972D01*
X191296175Y-86902230D01*
X191291812Y-86902622D01*
X191291806Y-86902624D01*
X191196844Y-86928832D01*
X191101315Y-86952903D01*
X191101312Y-86952904D01*
X191097319Y-86954718D01*
X191079059Y-86961338D01*
X191074850Y-86962500D01*
X191074835Y-86962505D01*
X191074830Y-86962507D01*
X191074826Y-86962509D01*
X190986070Y-87005250D01*
X190896375Y-87045991D01*
X190892775Y-87048486D01*
X190875971Y-87058271D01*
X190872031Y-87060168D01*
X190872028Y-87060170D01*
X190792323Y-87118078D01*
X190711349Y-87174177D01*
X190711343Y-87174182D01*
X190708239Y-87177286D01*
X190693465Y-87189903D01*
X190689928Y-87192473D01*
X190689921Y-87192478D01*
X190621846Y-87263679D01*
X189441339Y-88444186D01*
X189438238Y-88447286D01*
X189423468Y-88459901D01*
X189419926Y-88462474D01*
X189419921Y-88462478D01*
X189351846Y-88533679D01*
X188933334Y-88952192D01*
X188930224Y-88955301D01*
X188915468Y-88967901D01*
X188911926Y-88970474D01*
X188911921Y-88970478D01*
X188843846Y-89041679D01*
X187617845Y-90267681D01*
X187590378Y-90295145D01*
X187585194Y-90299778D01*
X187554837Y-90323988D01*
X187554833Y-90323992D01*
X187509859Y-90375467D01*
X187507009Y-90378515D01*
X187277885Y-90607639D01*
X187272699Y-90612274D01*
X187242337Y-90636488D01*
X187242333Y-90636492D01*
X187197365Y-90687960D01*
X187194521Y-90691003D01*
X187186064Y-90699461D01*
X187186054Y-90699472D01*
X187159049Y-90731818D01*
X187094234Y-90806004D01*
X187094230Y-90806010D01*
X187091981Y-90809774D01*
X187080746Y-90825608D01*
X187077934Y-90828977D01*
X187077932Y-90828981D01*
X187029316Y-90914659D01*
X187019508Y-90931076D01*
X186978783Y-90999238D01*
X186977247Y-91003332D01*
X186969008Y-91020945D01*
X186966850Y-91024747D01*
X186966846Y-91024757D01*
X186934307Y-91117746D01*
X186899694Y-91209970D01*
X186899689Y-91209988D01*
X186898909Y-91214288D01*
X186893952Y-91233069D01*
X186892503Y-91237209D01*
X186892502Y-91237215D01*
X186877089Y-91334527D01*
X186859500Y-91431448D01*
X186859500Y-91435827D01*
X186857973Y-91455229D01*
X186857289Y-91459540D01*
X186859500Y-91558021D01*
X186859500Y-93469698D01*
X186839815Y-93536737D01*
X186787011Y-93582492D01*
X186774505Y-93587404D01*
X186690663Y-93615187D01*
X186690662Y-93615187D01*
X186541348Y-93707286D01*
X186541344Y-93707289D01*
X186417289Y-93831344D01*
X186417286Y-93831348D01*
X186325187Y-93980662D01*
X186325186Y-93980664D01*
X186270001Y-94147203D01*
X186270000Y-94147204D01*
X186259500Y-94249984D01*
X186259500Y-96427349D01*
X186239815Y-96494388D01*
X186187011Y-96540143D01*
X186117853Y-96550087D01*
X186054297Y-96521062D01*
X186047819Y-96515030D01*
X184696819Y-95164030D01*
X184663334Y-95102707D01*
X184660500Y-95076349D01*
X184660500Y-86468480D01*
X184680185Y-86401441D01*
X184732989Y-86355686D01*
X184802147Y-86345742D01*
X184865703Y-86374767D01*
X184872162Y-86383743D01*
X184873044Y-86382862D01*
X184890557Y-86400384D01*
X184890747Y-86400462D01*
X184890939Y-86400541D01*
X184890941Y-86400539D01*
X184915555Y-86400524D01*
X184915555Y-86400528D01*
X184915699Y-86400500D01*
X195184300Y-86400500D01*
X195184443Y-86400528D01*
X195184444Y-86400524D01*
X195209057Y-86400539D01*
X195209060Y-86400541D01*
X195209443Y-86400383D01*
X195209560Y-86400099D01*
X195209601Y-86400000D01*
X195209600Y-86399997D01*
X195209643Y-86375889D01*
X195209560Y-86375467D01*
X195209560Y-78790499D01*
X195229245Y-78723460D01*
X195282049Y-78677705D01*
X195333560Y-78666499D01*
X199208871Y-78666499D01*
X199208872Y-78666499D01*
X199268483Y-78660091D01*
X199403331Y-78609796D01*
X199518546Y-78523546D01*
X199604796Y-78408331D01*
X199655091Y-78273483D01*
X199661500Y-78213873D01*
X199661499Y-76485334D01*
X199681184Y-76418296D01*
X199697813Y-76397659D01*
X205016444Y-71079030D01*
X208514655Y-67580819D01*
X208575978Y-67547334D01*
X208602336Y-67544500D01*
X218632664Y-67544500D01*
X218699703Y-67564185D01*
G37*
%TD.AperFunction*%
%TD*%
M02*
