%TF.GenerationSoftware,KiCad,Pcbnew,7.0.7*%
%TF.CreationDate,2025-05-02T18:34:42+09:00*%
%TF.ProjectId,LINE_Main,4c494e45-5f4d-4616-996e-2e6b69636164,rev?*%
%TF.SameCoordinates,Original*%
%TF.FileFunction,Soldermask,Top*%
%TF.FilePolarity,Negative*%
%FSLAX46Y46*%
G04 Gerber Fmt 4.6, Leading zero omitted, Abs format (unit mm)*
G04 Created by KiCad (PCBNEW 7.0.7) date 2025-05-02 18:34:42*
%MOMM*%
%LPD*%
G01*
G04 APERTURE LIST*
G04 Aperture macros list*
%AMRoundRect*
0 Rectangle with rounded corners*
0 $1 Rounding radius*
0 $2 $3 $4 $5 $6 $7 $8 $9 X,Y pos of 4 corners*
0 Add a 4 corners polygon primitive as box body*
4,1,4,$2,$3,$4,$5,$6,$7,$8,$9,$2,$3,0*
0 Add four circle primitives for the rounded corners*
1,1,$1+$1,$2,$3*
1,1,$1+$1,$4,$5*
1,1,$1+$1,$6,$7*
1,1,$1+$1,$8,$9*
0 Add four rect primitives between the rounded corners*
20,1,$1+$1,$2,$3,$4,$5,0*
20,1,$1+$1,$4,$5,$6,$7,0*
20,1,$1+$1,$6,$7,$8,$9,0*
20,1,$1+$1,$8,$9,$2,$3,0*%
%AMRotRect*
0 Rectangle, with rotation*
0 The origin of the aperture is its center*
0 $1 length*
0 $2 width*
0 $3 Rotation angle, in degrees counterclockwise*
0 Add horizontal line*
21,1,$1,$2,0,0,$3*%
G04 Aperture macros list end*
%ADD10RotRect,1.800000X1.800000X225.000000*%
%ADD11C,1.800000*%
%ADD12RotRect,1.800000X1.800000X247.500000*%
%ADD13RotRect,1.800000X1.800000X22.500000*%
%ADD14RotRect,1.800000X1.800000X56.250000*%
%ADD15RotRect,1.800000X1.800000X298.125000*%
%ADD16R,1.700000X1.700000*%
%ADD17O,1.700000X1.700000*%
%ADD18C,1.700000*%
%ADD19RoundRect,0.250000X0.450000X-0.262500X0.450000X0.262500X-0.450000X0.262500X-0.450000X-0.262500X0*%
%ADD20RotRect,2.000000X1.300000X225.000000*%
%ADD21RotRect,2.000000X2.000000X225.000000*%
%ADD22RotRect,1.800000X1.800000X112.500000*%
%ADD23RotRect,2.000000X1.300000X67.500000*%
%ADD24RotRect,2.000000X2.000000X67.500000*%
%ADD25RotRect,1.800000X1.800000X185.625000*%
%ADD26RoundRect,0.250000X0.315291X-0.414726X0.516200X0.070311X-0.315291X0.414726X-0.516200X-0.070311X0*%
%ADD27RotRect,1.800000X1.800000X95.625000*%
%ADD28RoundRect,0.250000X0.414726X0.315291X-0.070311X0.516200X-0.414726X-0.315291X0.070311X-0.516200X0*%
%ADD29RoundRect,0.250000X0.228324X-0.468267X0.519999X-0.031746X-0.228324X0.468267X-0.519999X0.031746X0*%
%ADD30RotRect,1.800000X1.800000X33.750000*%
%ADD31RotRect,1.800000X1.800000X174.375000*%
%ADD32RotRect,1.800000X1.800000X39.375000*%
%ADD33R,2.000000X1.300000*%
%ADD34R,2.000000X2.000000*%
%ADD35RoundRect,0.250000X-0.450000X0.262500X-0.450000X-0.262500X0.450000X-0.262500X0.450000X0.262500X0*%
%ADD36RoundRect,0.250000X-0.228324X0.468267X-0.519999X0.031746X0.228324X-0.468267X0.519999X-0.031746X0*%
%ADD37RoundRect,0.250000X-0.132583X0.503814X-0.503814X0.132583X0.132583X-0.503814X0.503814X-0.132583X0*%
%ADD38RotRect,1.800000X1.800000X337.500000*%
%ADD39RotRect,1.800000X1.800000X157.500000*%
%ADD40RotRect,2.000000X1.300000X135.000000*%
%ADD41RotRect,2.000000X2.000000X135.000000*%
%ADD42RotRect,1.800000X1.800000X236.250000*%
%ADD43RoundRect,0.250000X-0.390142X0.345247X-0.492565X-0.169665X0.390142X-0.345247X0.492565X0.169665X0*%
%ADD44RotRect,1.800000X1.800000X264.375000*%
%ADD45RotRect,1.800000X1.800000X275.625000*%
%ADD46RoundRect,0.250000X-0.516200X0.070311X-0.315291X-0.414726X0.516200X-0.070311X0.315291X0.414726X0*%
%ADD47RotRect,1.800000X1.800000X348.750000*%
%ADD48R,1.300000X2.000000*%
%ADD49RotRect,2.000000X1.300000X112.500000*%
%ADD50RotRect,2.000000X2.000000X112.500000*%
%ADD51RoundRect,0.250000X-0.031746X0.519999X-0.468267X0.228324X0.031746X-0.519999X0.468267X-0.228324X0*%
%ADD52RoundRect,0.250000X-0.070311X-0.516200X0.414726X-0.315291X0.070311X0.516200X-0.414726X0.315291X0*%
%ADD53RoundRect,0.250000X-0.519999X-0.031746X-0.228324X-0.468267X0.519999X0.031746X0.228324X0.468267X0*%
%ADD54RotRect,1.800000X1.800000X45.000000*%
%ADD55RotRect,1.800000X1.800000X28.125000*%
%ADD56RotRect,1.800000X1.800000X331.875000*%
%ADD57RotRect,1.800000X1.800000X303.750000*%
%ADD58RoundRect,0.250000X-0.315291X0.414726X-0.516200X-0.070311X0.315291X-0.414726X0.516200X0.070311X0*%
%ADD59RoundRect,0.250000X0.516200X-0.070311X0.315291X0.414726X-0.516200X0.070311X-0.315291X-0.414726X0*%
%ADD60RoundRect,0.250000X0.262500X0.450000X-0.262500X0.450000X-0.262500X-0.450000X0.262500X-0.450000X0*%
%ADD61RoundRect,0.250000X0.031746X-0.519999X0.468267X-0.228324X-0.031746X0.519999X-0.468267X0.228324X0*%
%ADD62RotRect,1.800000X1.800000X202.500000*%
%ADD63RotRect,1.800000X1.800000X151.875000*%
%ADD64RotRect,1.800000X1.800000X146.250000*%
%ADD65R,1.800000X1.800000*%
%ADD66RotRect,1.800000X1.800000X16.875000*%
%ADD67RotRect,1.800000X1.800000X129.375000*%
%ADD68RotRect,1.800000X1.800000X50.625000*%
%ADD69RotRect,1.800000X1.800000X61.875000*%
%ADD70RotRect,1.800000X1.800000X135.000000*%
%ADD71RotRect,1.800000X1.800000X309.375000*%
%ADD72RotRect,2.000000X1.300000X292.500000*%
%ADD73RotRect,2.000000X2.000000X292.500000*%
%ADD74RotRect,1.800000X1.800000X219.375000*%
%ADD75RotRect,1.800000X1.800000X315.000000*%
%ADD76RoundRect,0.250000X0.503814X0.132583X0.132583X0.503814X-0.503814X-0.132583X-0.132583X-0.503814X0*%
%ADD77RotRect,2.000000X1.300000X315.000000*%
%ADD78RotRect,2.000000X2.000000X315.000000*%
%ADD79RoundRect,0.250000X-0.492565X0.169665X-0.390142X-0.345247X0.492565X-0.169665X0.390142X0.345247X0*%
%ADD80RotRect,2.000000X1.300000X337.500000*%
%ADD81RotRect,2.000000X2.000000X337.500000*%
%ADD82R,1.750000X0.450000*%
%ADD83RoundRect,0.250000X-0.262500X-0.450000X0.262500X-0.450000X0.262500X0.450000X-0.262500X0.450000X0*%
%ADD84RotRect,1.800000X1.800000X140.625000*%
%ADD85RotRect,1.800000X1.800000X163.125000*%
%ADD86RotRect,1.800000X1.800000X196.875000*%
%ADD87RotRect,1.800000X1.800000X326.250000*%
%ADD88RotRect,2.000000X1.300000X202.500000*%
%ADD89RotRect,2.000000X2.000000X202.500000*%
%ADD90RotRect,1.800000X1.800000X118.125000*%
%ADD91RoundRect,0.250000X0.345247X0.390142X-0.169665X0.492565X-0.345247X-0.390142X0.169665X-0.492565X0*%
%ADD92RoundRect,0.250000X0.070311X0.516200X-0.414726X0.315291X-0.070311X-0.516200X0.414726X-0.315291X0*%
%ADD93RotRect,1.800000X1.800000X320.625000*%
%ADD94RoundRect,0.250000X0.468267X0.228324X0.031746X0.519999X-0.468267X-0.228324X-0.031746X-0.519999X0*%
%ADD95RotRect,1.800000X1.800000X168.750000*%
%ADD96RotRect,2.000000X1.300000X22.500000*%
%ADD97RotRect,2.000000X2.000000X22.500000*%
%ADD98RotRect,1.800000X1.800000X208.125000*%
%ADD99RotRect,1.800000X1.800000X258.750000*%
%ADD100RoundRect,0.250000X0.390142X-0.345247X0.492565X0.169665X-0.390142X0.345247X-0.492565X-0.169665X0*%
%ADD101RotRect,1.800000X1.800000X84.375000*%
%ADD102RoundRect,0.250000X-0.414726X-0.315291X0.070311X-0.516200X0.414726X0.315291X-0.070311X0.516200X0*%
%ADD103RoundRect,0.250000X-0.345247X-0.390142X0.169665X-0.492565X0.345247X0.390142X-0.169665X0.492565X0*%
%ADD104RotRect,1.800000X1.800000X78.750000*%
%ADD105RotRect,1.800000X1.800000X292.500000*%
%ADD106RotRect,1.800000X1.800000X11.250000*%
%ADD107RotRect,1.800000X1.800000X253.125000*%
%ADD108RotRect,1.800000X1.800000X67.500000*%
%ADD109RotRect,1.800000X1.800000X286.875000*%
%ADD110RotRect,1.800000X1.800000X73.125000*%
%ADD111RotRect,2.000000X1.300000X247.500000*%
%ADD112RotRect,2.000000X2.000000X247.500000*%
%ADD113RoundRect,0.250000X-0.169665X-0.492565X0.345247X-0.390142X0.169665X0.492565X-0.345247X0.390142X0*%
%ADD114RotRect,1.800000X1.800000X241.875000*%
%ADD115RoundRect,0.250000X0.132583X-0.503814X0.503814X-0.132583X-0.132583X0.503814X-0.503814X0.132583X0*%
%ADD116RotRect,1.800000X1.800000X106.875000*%
%ADD117RotRect,1.800000X1.800000X123.750000*%
%ADD118RoundRect,0.250000X-0.503814X-0.132583X-0.132583X-0.503814X0.503814X0.132583X0.132583X0.503814X0*%
%ADD119RotRect,1.800000X1.800000X343.125000*%
%ADD120RotRect,1.800000X1.800000X213.750000*%
%ADD121RotRect,2.000000X1.300000X45.000000*%
%ADD122RotRect,2.000000X2.000000X45.000000*%
%ADD123RotRect,1.800000X1.800000X354.375000*%
%ADD124RotRect,2.000000X1.300000X157.500000*%
%ADD125RotRect,2.000000X2.000000X157.500000*%
%ADD126RoundRect,0.250000X0.169665X0.492565X-0.345247X0.390142X-0.169665X-0.492565X0.345247X-0.390142X0*%
%ADD127RotRect,1.800000X1.800000X230.625000*%
%ADD128RoundRect,0.250000X-0.468267X-0.228324X-0.031746X-0.519999X0.468267X0.228324X0.031746X0.519999X0*%
%ADD129RotRect,1.800000X1.800000X5.625000*%
%ADD130RotRect,1.800000X1.800000X101.250000*%
%ADD131RotRect,1.800000X1.800000X281.250000*%
%ADD132RotRect,1.800000X1.800000X191.250000*%
%ADD133RoundRect,0.250000X0.492565X-0.169665X0.390142X0.345247X-0.492565X0.169665X-0.390142X-0.345247X0*%
%ADD134RoundRect,0.250000X0.519999X0.031746X0.228324X0.468267X-0.519999X-0.031746X-0.228324X-0.468267X0*%
%ADD135O,1.700000X1.950000*%
%ADD136RoundRect,0.250000X0.600000X0.725000X-0.600000X0.725000X-0.600000X-0.725000X0.600000X-0.725000X0*%
G04 APERTURE END LIST*
D10*
%TO.C,D5*%
X216256134Y-54702488D03*
D11*
X214460083Y-56498539D03*
%TD*%
D12*
%TO.C,D3*%
X198074893Y-42557680D03*
D11*
X197102877Y-44904334D03*
%TD*%
D13*
%TO.C,D23*%
X124869161Y-115782954D03*
D11*
X127215815Y-114810938D03*
%TD*%
D14*
%TO.C,D20*%
X145511362Y-140928705D03*
D11*
X146922510Y-138816772D03*
%TD*%
D15*
%TO.C,Q31*%
X150215356Y-44915269D03*
D11*
X151412704Y-47155349D03*
%TD*%
D16*
%TO.C,C2*%
X191260000Y-65830000D03*
D17*
X193800000Y-65830000D03*
%TD*%
D16*
%TO.C,C1*%
X156330000Y-59660000D03*
D17*
X153790000Y-59660000D03*
%TD*%
D18*
%TO.C,U2*%
X184300000Y-65550000D03*
X184300000Y-63010000D03*
X184300000Y-60470000D03*
X184300000Y-57930000D03*
X184300000Y-55390000D03*
X184300000Y-52850000D03*
X184300000Y-50310000D03*
X169060000Y-50310000D03*
X169060000Y-52850000D03*
X169060000Y-55390000D03*
X169060000Y-57930000D03*
X169060000Y-60470000D03*
X169060000Y-63010000D03*
X169060000Y-65550000D03*
%TD*%
D16*
%TO.C,J3*%
X135760000Y-90430000D03*
D17*
X135760000Y-92970000D03*
X135760000Y-95510000D03*
X135760000Y-98050000D03*
%TD*%
D19*
%TO.C,R17*%
X172410000Y-46182500D03*
X172410000Y-44357500D03*
%TD*%
D20*
%TO.C,RV7*%
X210691170Y-131203268D03*
D21*
X212706425Y-127561668D03*
D20*
X209064825Y-129576923D03*
%TD*%
D22*
%TO.C,D15*%
X198088710Y-146100036D03*
D11*
X197116694Y-143753382D03*
%TD*%
D23*
%TO.C,RV14*%
X131065834Y-73298636D03*
D24*
X130597562Y-77434240D03*
D23*
X133190757Y-74178808D03*
%TD*%
D25*
%TO.C,Q9*%
X232403632Y-88831719D03*
D11*
X229875863Y-89080683D03*
%TD*%
D26*
%TO.C,R10*%
X153643609Y-138888231D03*
X154342007Y-137202151D03*
%TD*%
D27*
%TO.C,Q17*%
X182137478Y-150097874D03*
D11*
X181888514Y-147570105D03*
%TD*%
D28*
%TO.C,R6*%
X221193988Y-117325587D03*
X219507908Y-116627189D03*
%TD*%
D29*
%TO.C,R20*%
X203348198Y-54342841D03*
X204362114Y-52825409D03*
%TD*%
D30*
%TO.C,D22*%
X130048803Y-125470272D03*
D11*
X132160736Y-124059124D03*
%TD*%
D31*
%TO.C,Q10*%
X232405098Y-99816837D03*
D11*
X229877329Y-99567873D03*
%TD*%
D32*
%TO.C,Q22*%
X133325252Y-129886820D03*
D11*
X135288699Y-128275461D03*
%TD*%
D33*
%TO.C,RV9*%
X174644953Y-144483440D03*
D34*
X178644953Y-143333440D03*
D33*
X174644953Y-142183440D03*
%TD*%
D35*
%TO.C,R1*%
X180830000Y-44367500D03*
X180830000Y-46192500D03*
%TD*%
D36*
%TO.C,R36*%
X149926755Y-134320599D03*
X148912839Y-135838031D03*
%TD*%
D37*
%TO.C,R3*%
X214932077Y-61966243D03*
X213641607Y-63256713D03*
%TD*%
D38*
%TO.C,D27*%
X124863437Y-72894306D03*
D11*
X127210091Y-73866322D03*
%TD*%
D39*
%TO.C,D11*%
X228411517Y-115769135D03*
D11*
X226064863Y-114797119D03*
%TD*%
D40*
%TO.C,RV11*%
X139765928Y-128385414D03*
D41*
X143407528Y-130400669D03*
D40*
X141392273Y-126759069D03*
%TD*%
D42*
%TO.C,D4*%
X207763593Y-47734736D03*
D11*
X206352445Y-49846669D03*
%TD*%
D43*
%TO.C,R34*%
X167263070Y-141498378D03*
X166907030Y-143288312D03*
%TD*%
D44*
%TO.C,Q2*%
X182122595Y-38564099D03*
D11*
X181873631Y-41091868D03*
%TD*%
D45*
%TO.C,Q1*%
X171137477Y-38565565D03*
D11*
X171386441Y-41093334D03*
%TD*%
D46*
%TO.C,R16*%
X161390383Y-46566390D03*
X162088781Y-48252470D03*
%TD*%
D47*
%TO.C,D26*%
X121676029Y-83406834D03*
D11*
X124167224Y-83902363D03*
%TD*%
D48*
%TO.C,RV5*%
X226789196Y-96324243D03*
D34*
X225639196Y-92324243D03*
D48*
X224489196Y-96324243D03*
%TD*%
D49*
%TO.C,RV12*%
X131665746Y-110802929D03*
D50*
X132134018Y-114938533D03*
D49*
X129540823Y-111683101D03*
%TD*%
D51*
%TO.C,R38*%
X136656906Y-121054877D03*
X135139474Y-122068793D03*
%TD*%
D52*
%TO.C,R23*%
X219503768Y-72000134D03*
X221189848Y-71301736D03*
%TD*%
D53*
%TO.C,R30*%
X203360633Y-134312290D03*
X204374549Y-135829722D03*
%TD*%
D54*
%TO.C,D21*%
X137018821Y-133960953D03*
D11*
X138814872Y-132164902D03*
%TD*%
D55*
%TO.C,Q23*%
X127221028Y-120753843D03*
D11*
X129461108Y-119556495D03*
%TD*%
D56*
%TO.C,Q28*%
X127213977Y-67922790D03*
D11*
X129454057Y-69120138D03*
%TD*%
D57*
%TO.C,D30*%
X145498925Y-47743047D03*
D11*
X146910073Y-49854980D03*
%TD*%
D58*
%TO.C,R35*%
X162117244Y-140433580D03*
X161418846Y-142119660D03*
%TD*%
D59*
%TO.C,R8*%
X191884569Y-142097051D03*
X191186171Y-140410971D03*
%TD*%
D60*
%TO.C,R5*%
X226601697Y-98524244D03*
X224776697Y-98524244D03*
%TD*%
D61*
%TO.C,R22*%
X216618047Y-67608565D03*
X218135479Y-66594649D03*
%TD*%
D62*
%TO.C,D7*%
X228405794Y-72880487D03*
D11*
X226059140Y-73852503D03*
%TD*%
D63*
%TO.C,Q12*%
X226060977Y-120740651D03*
D11*
X223820897Y-119543303D03*
%TD*%
D64*
%TO.C,D12*%
X223234461Y-125457835D03*
D11*
X221122528Y-124046687D03*
%TD*%
D65*
%TO.C,D1*%
X176630000Y-38295000D03*
D11*
X176630000Y-40835000D03*
%TD*%
D66*
%TO.C,Q24*%
X123015851Y-110605478D03*
D11*
X125446479Y-109868155D03*
%TD*%
D67*
%TO.C,Q14*%
X212192576Y-137643945D03*
D11*
X210581217Y-135680498D03*
%TD*%
D33*
%TO.C,RV1*%
X178630000Y-44180000D03*
D34*
X174630000Y-45330000D03*
D33*
X178630000Y-46480000D03*
%TD*%
D68*
%TO.C,Q21*%
X141093940Y-137653435D03*
D11*
X142705299Y-135689988D03*
%TD*%
D69*
%TO.C,Q20*%
X150228546Y-143755220D03*
D11*
X151425894Y-141515140D03*
%TD*%
D70*
%TO.C,D13*%
X216266709Y-133950376D03*
D11*
X214470658Y-132154325D03*
%TD*%
%TO.C,Q30*%
X142693737Y-52982939D03*
D71*
X141082378Y-51019492D03*
%TD*%
D72*
%TO.C,RV4*%
X223734129Y-76980339D03*
D73*
X221140934Y-73724907D03*
D72*
X221609206Y-77860511D03*
%TD*%
D74*
%TO.C,Q6*%
X219949703Y-58776621D03*
D11*
X217986256Y-60387980D03*
%TD*%
%TO.C,D29*%
X138804295Y-56509116D03*
D75*
X137008244Y-54713065D03*
%TD*%
D76*
%TO.C,R45*%
X139601564Y-63274355D03*
X138311094Y-61983885D03*
%TD*%
D77*
%TO.C,RV3*%
X211882679Y-61904371D03*
D78*
X209867424Y-58262771D03*
D77*
X213509024Y-60278026D03*
%TD*%
D58*
%TO.C,R2*%
X199631343Y-49775209D03*
X198932945Y-51461289D03*
%TD*%
D79*
%TO.C,R32*%
X186026553Y-141495460D03*
X186382593Y-143285394D03*
%TD*%
D80*
%TO.C,RV2*%
X197670560Y-48760078D03*
D81*
X193534956Y-48291806D03*
D80*
X196790388Y-50885001D03*
%TD*%
D82*
%TO.C,U1*%
X180330000Y-61065000D03*
X180330000Y-60415000D03*
X180330000Y-59765000D03*
X180330000Y-59115000D03*
X180330000Y-58465000D03*
X180330000Y-57815000D03*
X180330000Y-57165000D03*
X180330000Y-56515000D03*
X180330000Y-55865000D03*
X180330000Y-55215000D03*
X180330000Y-54565000D03*
X180330000Y-53915000D03*
X173130000Y-53915000D03*
X173130000Y-54565000D03*
X173130000Y-55215000D03*
X173130000Y-55865000D03*
X173130000Y-56515000D03*
X173130000Y-57165000D03*
X173130000Y-57815000D03*
X173130000Y-58465000D03*
X173130000Y-59115000D03*
X173130000Y-59765000D03*
X173130000Y-60415000D03*
X173130000Y-61065000D03*
%TD*%
D83*
%TO.C,R25*%
X224786694Y-90104245D03*
X226611694Y-90104245D03*
%TD*%
D84*
%TO.C,Q13*%
X219959191Y-129875257D03*
D11*
X217995744Y-128263898D03*
%TD*%
D85*
%TO.C,Q11*%
X230263445Y-110591165D03*
D11*
X227832817Y-109853842D03*
%TD*%
D65*
%TO.C,D9*%
X232674197Y-94324242D03*
D11*
X230134197Y-94324242D03*
%TD*%
D86*
%TO.C,Q8*%
X230259104Y-78057963D03*
D11*
X227828476Y-78795286D03*
%TD*%
D65*
%TO.C,D17*%
X176644955Y-150368439D03*
D11*
X176644955Y-147828439D03*
%TD*%
D87*
%TO.C,D28*%
X130040492Y-63205606D03*
D11*
X132152425Y-64616754D03*
%TD*%
D88*
%TO.C,RV8*%
X194053930Y-141391465D03*
D89*
X197309362Y-138798270D03*
D88*
X193173758Y-139266542D03*
%TD*%
D90*
%TO.C,Q15*%
X203059599Y-143748169D03*
D11*
X201862251Y-141508089D03*
%TD*%
D91*
%TO.C,R42*%
X129470818Y-84957314D03*
X127680884Y-84601274D03*
%TD*%
D60*
%TO.C,R41*%
X128488259Y-98559192D03*
X126663259Y-98559192D03*
%TD*%
D46*
%TO.C,R31*%
X198969060Y-137198012D03*
X199667458Y-138884092D03*
%TD*%
D92*
%TO.C,R4*%
X224402807Y-79084627D03*
X222716727Y-79783025D03*
%TD*%
D93*
%TO.C,Q29*%
X133315762Y-58788184D03*
D11*
X135279209Y-60399543D03*
%TD*%
D94*
%TO.C,R44*%
X136648597Y-67620999D03*
X135131165Y-66607083D03*
%TD*%
D95*
%TO.C,D10*%
X231598926Y-105256607D03*
D11*
X229107731Y-104761078D03*
%TD*%
D96*
%TO.C,RV16*%
X159286095Y-47235067D03*
D97*
X156030663Y-49828262D03*
D96*
X160166267Y-49359990D03*
%TD*%
D98*
%TO.C,Q7*%
X226053927Y-67909598D03*
D11*
X223813847Y-69106946D03*
%TD*%
D99*
%TO.C,D2*%
X187562365Y-39370271D03*
D11*
X187066836Y-41861466D03*
%TD*%
D100*
%TO.C,R18*%
X186011885Y-47165063D03*
X186367925Y-45375129D03*
%TD*%
D48*
%TO.C,RV13*%
X126485756Y-92339197D03*
D34*
X127635756Y-96339197D03*
D48*
X128785756Y-92339197D03*
%TD*%
D101*
%TO.C,Q18*%
X171152360Y-150099340D03*
D11*
X171401324Y-147571571D03*
%TD*%
D19*
%TO.C,R9*%
X172444952Y-144295940D03*
X172444952Y-142470940D03*
%TD*%
D102*
%TO.C,R14*%
X132080965Y-71337853D03*
X133767045Y-72036251D03*
%TD*%
%TO.C,R27*%
X222739337Y-108851950D03*
X224425417Y-109550348D03*
%TD*%
D103*
%TO.C,R26*%
X223804133Y-103706130D03*
X225594067Y-104062170D03*
%TD*%
D104*
%TO.C,D18*%
X165712590Y-149293168D03*
D11*
X166208119Y-146801973D03*
%TD*%
D105*
%TO.C,D31*%
X155186243Y-42563405D03*
D11*
X156158259Y-44910059D03*
%TD*%
D106*
%TO.C,D24*%
X121678947Y-105271277D03*
D11*
X124170142Y-104775748D03*
%TD*%
D107*
%TO.C,Q3*%
X192896923Y-40705752D03*
D11*
X192159600Y-43136380D03*
%TD*%
D108*
%TO.C,D19*%
X155200062Y-146105760D03*
D11*
X156172078Y-143759106D03*
%TD*%
D52*
%TO.C,R12*%
X128872146Y-109578813D03*
X130558226Y-108880415D03*
%TD*%
D65*
%TO.C,D25*%
X120600758Y-94339199D03*
D11*
X123140758Y-94339199D03*
%TD*%
D109*
%TO.C,Q32*%
X160363722Y-40710093D03*
D11*
X161101045Y-43140721D03*
%TD*%
D76*
%TO.C,R7*%
X209002954Y-132626322D03*
X207712484Y-131335852D03*
%TD*%
D110*
%TO.C,Q19*%
X160378032Y-147957688D03*
D11*
X161115355Y-145527060D03*
%TD*%
D111*
%TO.C,RV6*%
X220084195Y-114484632D03*
D112*
X222677390Y-111229200D03*
D111*
X222209118Y-115364804D03*
%TD*%
D113*
%TO.C,R24*%
X223801216Y-84942645D03*
X225591150Y-84586605D03*
%TD*%
D59*
%TO.C,R47*%
X154305894Y-51465426D03*
X153607496Y-49779346D03*
%TD*%
D114*
%TO.C,Q4*%
X203046409Y-44908220D03*
D11*
X201849061Y-47148300D03*
%TD*%
D115*
%TO.C,R21*%
X207694839Y-57295803D03*
X208985309Y-56005333D03*
%TD*%
D28*
%TO.C,R43*%
X130535616Y-79811487D03*
X128849536Y-79113089D03*
%TD*%
D116*
%TO.C,Q16*%
X192911234Y-147953346D03*
D11*
X192173911Y-145522718D03*
%TD*%
D117*
%TO.C,D14*%
X207776028Y-140920394D03*
D11*
X206364880Y-138808461D03*
%TD*%
D92*
%TO.C,R39*%
X133771183Y-116663302D03*
X132085103Y-117361700D03*
%TD*%
D118*
%TO.C,R15*%
X144271999Y-56037119D03*
X145562469Y-57327589D03*
%TD*%
D119*
%TO.C,Q27*%
X123011509Y-78072276D03*
D11*
X125442137Y-78809599D03*
%TD*%
D120*
%TO.C,D6*%
X223226152Y-63193169D03*
D11*
X221114219Y-64604317D03*
%TD*%
D121*
%TO.C,RV15*%
X142583782Y-57460172D03*
D122*
X140568527Y-61101772D03*
D121*
X144210127Y-59086517D03*
%TD*%
D123*
%TO.C,Q26*%
X120869857Y-88846604D03*
D11*
X123397626Y-89095568D03*
%TD*%
D124*
%TO.C,RV10*%
X155604392Y-139903362D03*
D125*
X159739996Y-140371634D03*
D124*
X156484564Y-137778439D03*
%TD*%
D26*
%TO.C,R19*%
X191166659Y-48225532D03*
X191865057Y-46539452D03*
%TD*%
D83*
%TO.C,R13*%
X126673256Y-90139196D03*
X128498256Y-90139196D03*
%TD*%
D35*
%TO.C,R33*%
X180864949Y-142480937D03*
X180864949Y-144305937D03*
%TD*%
D126*
%TO.C,R40*%
X129473736Y-103720797D03*
X127683802Y-104076837D03*
%TD*%
D127*
%TO.C,Q5*%
X212181015Y-51010006D03*
D11*
X210569656Y-52973453D03*
%TD*%
D115*
%TO.C,R11*%
X138342875Y-126697197D03*
X139633345Y-125406727D03*
%TD*%
D128*
%TO.C,R28*%
X216626355Y-121042441D03*
X218143787Y-122056357D03*
%TD*%
D129*
%TO.C,Q25*%
X120871323Y-99831722D03*
D11*
X123399092Y-99582758D03*
%TD*%
%TO.C,D16*%
X187081504Y-146799055D03*
D130*
X187577033Y-149290250D03*
%TD*%
D37*
%TO.C,R37*%
X145580112Y-131367632D03*
X144289642Y-132658102D03*
%TD*%
D131*
%TO.C,D32*%
X165697920Y-39373191D03*
D11*
X166193449Y-41864386D03*
%TD*%
D132*
%TO.C,D8*%
X231596008Y-83392164D03*
D11*
X229104813Y-83887693D03*
%TD*%
D118*
%TO.C,R29*%
X213673390Y-125389082D03*
X214963860Y-126679552D03*
%TD*%
D133*
%TO.C,R48*%
X167248399Y-47167980D03*
X166892359Y-45378046D03*
%TD*%
D134*
%TO.C,R46*%
X149914319Y-54351150D03*
X148900403Y-52833718D03*
%TD*%
D16*
%TO.C,J4*%
X217450000Y-90480000D03*
D17*
X217450000Y-93020000D03*
X217450000Y-95560000D03*
X217450000Y-98100000D03*
%TD*%
D135*
%TO.C,J1*%
X151450000Y-64310000D03*
X153950000Y-64310000D03*
X156450000Y-64310000D03*
D136*
X158950000Y-64310000D03*
%TD*%
D16*
%TO.C,J2*%
X172790000Y-135100000D03*
D17*
X175330000Y-135100000D03*
X177870000Y-135100000D03*
X180410000Y-135100000D03*
%TD*%
M02*
