M48
; DRILL file {KiCad 7.0.7} date Fri May  2 18:35:23 2025
; FORMAT={-:-/ absolute / metric / decimal}
; #@! TF.CreationDate,2025-05-02T18:35:23+09:00
; #@! TF.GenerationSoftware,Kicad,Pcbnew,7.0.7
; #@! TF.FileFunction,Plated,1,2,PTH
FMAT,2
METRIC
; #@! TA.AperFunction,Plated,PTH,ViaDrill
T1C0.400
; #@! TA.AperFunction,Plated,PTH,ComponentDrill
T2C0.900
; #@! TA.AperFunction,Plated,PTH,ComponentDrill
T3C0.950
; #@! TA.AperFunction,Plated,PTH,ComponentDrill
T4C1.000
%
G90
G05
T1
X120.08Y-91.73
X120.13Y-96.63
X120.61Y-85.74
X120.78Y-102.75
X121.82Y-107.78
X121.89Y-80.82
X123.61Y-113.79
X125.28Y-118.35
X125.78Y-101.07
X127.1Y-87.78
X127.14Y-107.67
X128.48Y-123.35
X129.44Y-100.63
X129.474Y-105.66
X129.77Y-88.23
X129.77Y-97.277
X130.96Y-127.65
X131.08Y-82.07
X131.82Y-119.89
X132.12Y-78.84
X132.34Y-112.69
X133.51Y-97.06
X133.56Y-90.81
X133.79Y-107.87
X134.01Y-114.77
X134.92Y-69.42
X135.2Y-132.6
X136.14Y-124.91
X137.18Y-122.4
X138.07Y-136.23
X139.15Y-65.63
X141.13Y-63.36
X142.36Y-128.56
X143.33Y-139.96
X144.16Y-63.51
X145.49Y-129.63
X145.57Y-134.83
X146.94Y-142.57
X147.15Y-65.52
X147.73Y-131.64
X148.7Y-56.65
X150.16Y-57.72
X151.13Y-138.19
X151.29Y-135.66
X152.74Y-54.08
X152.98Y-145.21
X156.19Y-51.79
X157.52Y-147.24
X158.08Y-139.04
X158.84Y-55.51
X158.89Y-58.51
X161.433Y-139.372
X163.14Y-144.05
X163.63Y-57.67
X163.81Y-50.15
X165.05Y-47.77
X168.15Y-150.07
X169.21Y-141.55
X169.64Y-144.03
X170.25Y-47.28
X170.81Y-52.04
X171.07Y-50.01
X172.06Y-53.19
X173.28Y-64.62
X174.6Y-150.86
X174.98Y-46.96
X175.31Y-55.42
X175.78Y-60.33
X176.49Y-56.15
X176.67Y-54.1
X176.7Y-139.2
X177.31Y-61.36
X177.61Y-66.0
X177.98Y-51.13
X178.68Y-141.734
X178.96Y-150.76
X178.99Y-62.88
X180.47Y-66.12
X181.88Y-140.83
X181.98Y-138.54
X182.19Y-48.48
X183.34Y-144.31
X183.8Y-46.98
X185.44Y-150.08
X186.79Y-49.12
X188.08Y-141.23
X189.17Y-60.45
X189.49Y-138.52
X189.89Y-149.31
X190.1Y-45.49
X190.27Y-143.84
X191.01Y-55.48
X191.04Y-52.82
X191.735Y-49.545
X193.93Y-52.86
X195.41Y-139.35
X196.18Y-147.31
X196.79Y-57.93
X196.87Y-63.42
X196.91Y-67.21
X197.37Y-55.96
X197.455Y-136.885
X200.29Y-145.56
X201.6Y-50.98
X201.63Y-139.26
X202.478Y-53.472
X204.84Y-57.05
X205.48Y-132.09
X206.34Y-142.59
X206.93Y-134.5
X208.13Y-53.54
X208.39Y-59.93
X208.47Y-67.37
X209.9Y-140.06
X210.82Y-128.57
X211.39Y-126.18
X211.97Y-63.67
X214.05Y-123.12
X214.36Y-136.63
X215.25Y-52.4
X216.03Y-64.39
X216.66Y-131.52
X216.95Y-124.54
X217.38Y-70.24
X218.28Y-118.89
X218.58Y-56.07
X218.66Y-72.5
X219.92Y-119.9
X220.03Y-95.96
X220.04Y-99.55
X220.23Y-106.28
X220.72Y-68.9
X221.19Y-109.27
X221.56Y-112.88
X221.79Y-61.06
X222.15Y-127.71
X223.51Y-88.04
X223.556Y-98.41
X223.68Y-83.29
X223.87Y-91.69
X224.84Y-123.66
X225.15Y-94.29
X225.45Y-81.05
X225.85Y-107.65
X226.57Y-101.0
X227.17Y-87.51
X227.61Y-117.83
X228.09Y-70.62
X229.59Y-113.52
X229.65Y-74.82
X231.58Y-80.79
X231.63Y-107.44
X232.38Y-103.06
X232.59Y-85.56
X232.69Y-96.56
X233.06Y-91.6
T2
X120.601Y-94.339
X120.87Y-88.847
X120.871Y-99.832
X121.676Y-83.407
X121.679Y-105.271
X123.012Y-78.072
X123.016Y-110.605
X123.141Y-94.339
X123.398Y-89.096
X123.399Y-99.583
X124.167Y-83.902
X124.17Y-104.776
X124.863Y-72.894
X124.869Y-115.783
X125.442Y-78.81
X125.446Y-109.868
X127.21Y-73.866
X127.214Y-67.923
X127.216Y-114.811
X127.221Y-120.754
X129.454Y-69.12
X129.461Y-119.556
X130.04Y-63.206
X130.049Y-125.47
X132.152Y-64.617
X132.161Y-124.059
X133.316Y-58.788
X133.325Y-129.887
X135.279Y-60.4
X135.289Y-128.275
X137.008Y-54.713
X137.019Y-133.961
X138.804Y-56.509
X138.815Y-132.165
X141.082Y-51.019
X141.094Y-137.653
X142.694Y-52.983
X142.705Y-135.69
X145.499Y-47.743
X145.511Y-140.929
X146.91Y-49.855
X146.923Y-138.817
X150.215Y-44.915
X150.229Y-143.755
X151.413Y-47.155
X151.426Y-141.515
X155.186Y-42.563
X155.2Y-146.106
X156.158Y-44.91
X156.172Y-143.759
X160.364Y-40.71
X160.378Y-147.958
X161.101Y-43.141
X161.115Y-145.527
X165.698Y-39.373
X165.713Y-149.293
X166.193Y-41.864
X166.208Y-146.802
X171.137Y-38.566
X171.152Y-150.099
X171.386Y-41.093
X171.401Y-147.572
X176.63Y-38.295
X176.63Y-40.835
X176.645Y-147.828
X176.645Y-150.368
X181.874Y-41.092
X181.889Y-147.57
X182.123Y-38.564
X182.137Y-150.098
X187.067Y-41.861
X187.082Y-146.799
X187.562Y-39.37
X187.577Y-149.29
X192.16Y-43.136
X192.174Y-145.523
X192.897Y-40.706
X192.911Y-147.953
X197.103Y-44.904
X197.117Y-143.753
X198.075Y-42.558
X198.089Y-146.1
X201.849Y-47.148
X201.862Y-141.508
X203.046Y-44.908
X203.06Y-143.748
X206.352Y-49.847
X206.365Y-138.808
X207.764Y-47.735
X207.776Y-140.92
X210.57Y-52.973
X210.581Y-135.68
X212.181Y-51.01
X212.193Y-137.644
X214.46Y-56.499
X214.471Y-132.154
X216.256Y-54.702
X216.267Y-133.95
X217.986Y-60.388
X217.996Y-128.264
X219.95Y-58.777
X219.959Y-129.875
X221.114Y-64.604
X221.123Y-124.047
X223.226Y-63.193
X223.234Y-125.458
X223.814Y-69.107
X223.821Y-119.543
X226.054Y-67.91
X226.059Y-73.853
X226.061Y-120.741
X226.065Y-114.797
X227.828Y-78.795
X227.833Y-109.854
X228.406Y-72.88
X228.412Y-115.769
X229.105Y-83.888
X229.108Y-104.761
X229.876Y-89.081
X229.877Y-99.568
X230.134Y-94.324
X230.259Y-78.058
X230.263Y-110.591
X231.596Y-83.392
X231.599Y-105.257
X232.404Y-88.832
X232.405Y-99.817
X232.674Y-94.324
T3
X151.45Y-64.31
X153.95Y-64.31
X156.45Y-64.31
X158.95Y-64.31
T4
X135.76Y-90.43
X135.76Y-92.97
X135.76Y-95.51
X135.76Y-98.05
X153.79Y-59.66
X156.33Y-59.66
X169.06Y-50.31
X169.06Y-52.85
X169.06Y-55.39
X169.06Y-57.93
X169.06Y-60.47
X169.06Y-63.01
X169.06Y-65.55
X172.79Y-135.1
X175.33Y-135.1
X177.87Y-135.1
X180.41Y-135.1
X184.3Y-50.31
X184.3Y-52.85
X184.3Y-55.39
X184.3Y-57.93
X184.3Y-60.47
X184.3Y-63.01
X184.3Y-65.55
X191.26Y-65.83
X193.8Y-65.83
X217.45Y-90.48
X217.45Y-93.02
X217.45Y-95.56
X217.45Y-98.1
T0
M30
