%TF.GenerationSoftware,KiCad,Pcbnew,7.0.9*%
%TF.CreationDate,2024-12-17T14:24:58+09:00*%
%TF.ProjectId,line_main_robot2,6c696e65-5f6d-4616-996e-5f726f626f74,rev?*%
%TF.SameCoordinates,Original*%
%TF.FileFunction,Copper,L2,Bot*%
%TF.FilePolarity,Positive*%
%FSLAX46Y46*%
G04 Gerber Fmt 4.6, Leading zero omitted, Abs format (unit mm)*
G04 Created by KiCad (PCBNEW 7.0.9) date 2024-12-17 14:24:58*
%MOMM*%
%LPD*%
G01*
G04 APERTURE LIST*
G04 Aperture macros list*
%AMRoundRect*
0 Rectangle with rounded corners*
0 $1 Rounding radius*
0 $2 $3 $4 $5 $6 $7 $8 $9 X,Y pos of 4 corners*
0 Add a 4 corners polygon primitive as box body*
4,1,4,$2,$3,$4,$5,$6,$7,$8,$9,$2,$3,0*
0 Add four circle primitives for the rounded corners*
1,1,$1+$1,$2,$3*
1,1,$1+$1,$4,$5*
1,1,$1+$1,$6,$7*
1,1,$1+$1,$8,$9*
0 Add four rect primitives between the rounded corners*
20,1,$1+$1,$2,$3,$4,$5,0*
20,1,$1+$1,$4,$5,$6,$7,0*
20,1,$1+$1,$6,$7,$8,$9,0*
20,1,$1+$1,$8,$9,$2,$3,0*%
%AMHorizOval*
0 Thick line with rounded ends*
0 $1 width*
0 $2 $3 position (X,Y) of the first rounded end (center of the circle)*
0 $4 $5 position (X,Y) of the second rounded end (center of the circle)*
0 Add line between two ends*
20,1,$1,$2,$3,$4,$5,0*
0 Add two circle primitives to create the rounded ends*
1,1,$1,$2,$3*
1,1,$1,$4,$5*%
%AMRotRect*
0 Rectangle, with rotation*
0 The origin of the aperture is its center*
0 $1 length*
0 $2 width*
0 $3 Rotation angle, in degrees counterclockwise*
0 Add horizontal line*
21,1,$1,$2,0,0,$3*%
G04 Aperture macros list end*
%TA.AperFunction,ComponentPad*%
%ADD10RotRect,1.700000X1.700000X45.000000*%
%TD*%
%TA.AperFunction,ComponentPad*%
%ADD11HorizOval,1.700000X0.000000X0.000000X0.000000X0.000000X0*%
%TD*%
%TA.AperFunction,ComponentPad*%
%ADD12R,1.700000X1.700000*%
%TD*%
%TA.AperFunction,ComponentPad*%
%ADD13O,1.700000X1.700000*%
%TD*%
%TA.AperFunction,ComponentPad*%
%ADD14RotRect,1.700000X1.700000X225.000000*%
%TD*%
%TA.AperFunction,ComponentPad*%
%ADD15HorizOval,1.700000X0.000000X0.000000X0.000000X0.000000X0*%
%TD*%
%TA.AperFunction,ComponentPad*%
%ADD16RotRect,1.700000X1.700000X315.000000*%
%TD*%
%TA.AperFunction,ComponentPad*%
%ADD17HorizOval,1.700000X0.000000X0.000000X0.000000X0.000000X0*%
%TD*%
%TA.AperFunction,ComponentPad*%
%ADD18RotRect,1.700000X1.700000X135.000000*%
%TD*%
%TA.AperFunction,ComponentPad*%
%ADD19HorizOval,1.700000X0.000000X0.000000X0.000000X0.000000X0*%
%TD*%
%TA.AperFunction,ComponentPad*%
%ADD20C,1.700000*%
%TD*%
%TA.AperFunction,ComponentPad*%
%ADD21RoundRect,0.250000X0.600000X0.725000X-0.600000X0.725000X-0.600000X-0.725000X0.600000X-0.725000X0*%
%TD*%
%TA.AperFunction,ComponentPad*%
%ADD22O,1.700000X1.950000*%
%TD*%
%TA.AperFunction,ViaPad*%
%ADD23C,0.800000*%
%TD*%
%TA.AperFunction,Conductor*%
%ADD24C,0.250000*%
%TD*%
G04 APERTURE END LIST*
D10*
%TO.P,J5,1,Pin_1*%
%TO.N,+5V*%
X156392773Y-142661336D03*
D11*
%TO.P,J5,2,Pin_2*%
%TO.N,/PWM*%
X158188824Y-144457387D03*
%TO.P,J5,3,Pin_3*%
%TO.N,+3.3V*%
X159984875Y-146253438D03*
%TO.P,J5,4,Pin_4*%
%TO.N,GND*%
X161780927Y-148049490D03*
%TO.P,J5,5,Pin_5*%
%TO.N,/5*%
X163576978Y-149845541D03*
%TD*%
D12*
%TO.P,J6,1,Pin_1*%
%TO.N,+5V*%
X150328680Y-115328962D03*
D13*
%TO.P,J6,2,Pin_2*%
%TO.N,/PWM*%
X150328680Y-117868962D03*
%TO.P,J6,3,Pin_3*%
%TO.N,+3.3V*%
X150328680Y-120408962D03*
%TO.P,J6,4,Pin_4*%
%TO.N,GND*%
X150328680Y-122948962D03*
%TO.P,J6,5,Pin_5*%
%TO.N,/6*%
X150328680Y-125488962D03*
%TD*%
D12*
%TO.P,J8,1,Pin_1*%
%TO.N,+5V*%
X192700000Y-85650000D03*
D13*
%TO.P,J8,2,Pin_2*%
%TO.N,/PWM*%
X190160000Y-85650000D03*
%TO.P,J8,3,Pin_3*%
%TO.N,+3.3V*%
X187620000Y-85650000D03*
%TO.P,J8,4,Pin_4*%
%TO.N,GND*%
X185080000Y-85650000D03*
%TO.P,J8,5,Pin_5*%
%TO.N,/8*%
X182540000Y-85650000D03*
%TD*%
D12*
%TO.P,J4,1,Pin_1*%
%TO.N,+5V*%
X180007642Y-157700282D03*
D13*
%TO.P,J4,2,Pin_2*%
%TO.N,/PWM*%
X182547642Y-157700282D03*
%TO.P,J4,3,Pin_3*%
%TO.N,+3.3V*%
X185087642Y-157700282D03*
%TO.P,J4,4,Pin_4*%
%TO.N,GND*%
X187627642Y-157700282D03*
%TO.P,J4,5,Pin_5*%
%TO.N,/4*%
X190167642Y-157700282D03*
%TD*%
D12*
%TO.P,J2,1,Pin_1*%
%TO.N,+5V*%
X222378962Y-128021320D03*
D13*
%TO.P,J2,2,Pin_2*%
%TO.N,/PWM*%
X222378962Y-125481320D03*
%TO.P,J2,3,Pin_3*%
%TO.N,+3.3V*%
X222378962Y-122941320D03*
%TO.P,J2,4,Pin_4*%
%TO.N,GND*%
X222378962Y-120401320D03*
%TO.P,J2,5,Pin_5*%
%TO.N,/2*%
X222378962Y-117861320D03*
%TD*%
D14*
%TO.P,J1,1,Pin_1*%
%TO.N,+5V*%
X216314869Y-100688946D03*
D15*
%TO.P,J1,2,Pin_2*%
%TO.N,/PWM*%
X214518818Y-98892895D03*
%TO.P,J1,3,Pin_3*%
%TO.N,+3.3V*%
X212722767Y-97096844D03*
%TO.P,J1,4,Pin_4*%
%TO.N,GND*%
X210926715Y-95300792D03*
%TO.P,J1,5,Pin_5*%
%TO.N,/1*%
X209130664Y-93504741D03*
%TD*%
D16*
%TO.P,J7,1,Pin_1*%
%TO.N,+5V*%
X165367626Y-91714093D03*
D17*
%TO.P,J7,2,Pin_2*%
%TO.N,/PWM*%
X163571575Y-93510144D03*
%TO.P,J7,3,Pin_3*%
%TO.N,+3.3V*%
X161775524Y-95306195D03*
%TO.P,J7,4,Pin_4*%
%TO.N,GND*%
X159979472Y-97102247D03*
%TO.P,J7,5,Pin_5*%
%TO.N,/7*%
X158183421Y-98898298D03*
%TD*%
D18*
%TO.P,J3,1,Pin_1*%
%TO.N,+5V*%
X207340016Y-151636189D03*
D19*
%TO.P,J3,2,Pin_2*%
%TO.N,/PWM*%
X209136067Y-149840138D03*
%TO.P,J3,3,Pin_3*%
%TO.N,+3.3V*%
X210932118Y-148044087D03*
%TO.P,J3,4,Pin_4*%
%TO.N,GND*%
X212728170Y-146248035D03*
%TO.P,J3,5,Pin_5*%
%TO.N,/3*%
X214524221Y-144451984D03*
%TD*%
D20*
%TO.P,U1,1,DAC*%
%TO.N,/1*%
X178750000Y-103975000D03*
%TO.P,U1,2*%
%TO.N,/2*%
X178750000Y-101435000D03*
%TO.P,U1,3*%
%TO.N,/3*%
X178750000Y-98895000D03*
%TO.P,U1,4*%
%TO.N,/4*%
X178750000Y-96355000D03*
%TO.P,U1,5,SDA*%
%TO.N,/5*%
X178750000Y-93815000D03*
%TO.P,U1,6,SCL*%
%TO.N,/6*%
X178750000Y-91275000D03*
%TO.P,U1,7,TX*%
%TO.N,/TX*%
X178750000Y-88735000D03*
%TO.P,U1,8,RX*%
%TO.N,/RX*%
X193990000Y-88735000D03*
%TO.P,U1,9,SCK*%
%TO.N,/PWM*%
X193990000Y-91275000D03*
%TO.P,U1,10,MISO*%
%TO.N,/7*%
X193990000Y-93815000D03*
%TO.P,U1,11,MOSI*%
%TO.N,/8*%
X193990000Y-96355000D03*
%TO.P,U1,12,3V3*%
%TO.N,+3.3V*%
X193990000Y-98895000D03*
%TO.P,U1,13,GND*%
%TO.N,GND*%
X193990000Y-101435000D03*
%TO.P,U1,14,5V*%
%TO.N,+5V*%
X193990000Y-103975000D03*
%TD*%
D21*
%TO.P,J9,1,Pin_1*%
%TO.N,GND*%
X208500000Y-105825000D03*
D22*
%TO.P,J9,2,Pin_2*%
%TO.N,/RX*%
X206000000Y-105825000D03*
%TO.P,J9,3,Pin_3*%
%TO.N,+5V*%
X203500000Y-105825000D03*
%TO.P,J9,4,Pin_4*%
%TO.N,/TX*%
X201000000Y-105825000D03*
%TD*%
D23*
%TO.N,GND*%
X224650000Y-128075000D03*
X199675000Y-160850000D03*
X146725000Y-132775000D03*
X189575000Y-92175000D03*
X185700000Y-81350000D03*
X211750000Y-151000000D03*
X163725000Y-97700000D03*
X225175000Y-125200000D03*
X213075000Y-109375000D03*
X168175000Y-146150000D03*
X216300000Y-138500000D03*
X156800000Y-130675000D03*
X153100000Y-135375000D03*
X174125000Y-156800000D03*
X186895500Y-87625000D03*
X179125000Y-83350000D03*
X206325000Y-99850000D03*
X153675000Y-106500000D03*
X171325000Y-153400000D03*
X170525000Y-148375000D03*
X157975000Y-101875000D03*
X166950000Y-94375000D03*
X217300000Y-107175000D03*
X182825000Y-161275000D03*
X208350000Y-156425000D03*
X169750000Y-84500000D03*
X160725000Y-112925000D03*
X168000000Y-87700000D03*
X158100000Y-111450000D03*
X216250000Y-120025000D03*
X221300000Y-102800000D03*
X200750000Y-154250000D03*
X219275000Y-105575000D03*
X186500000Y-95200000D03*
X203725000Y-87925000D03*
X199325000Y-156900000D03*
X165750000Y-101475000D03*
X197275000Y-89550000D03*
X152500000Y-127425000D03*
X146575000Y-113025000D03*
X158100000Y-108150000D03*
X166450000Y-149650000D03*
X188150000Y-101225000D03*
X222150000Y-141125000D03*
X167825000Y-158025000D03*
X153525000Y-141275000D03*
X163225000Y-88550000D03*
X155425000Y-127525000D03*
X184075000Y-102825000D03*
X208575000Y-154575000D03*
X171925000Y-111100000D03*
X147250000Y-118925000D03*
X197625000Y-159500000D03*
X150100000Y-103275000D03*
X153125000Y-144825000D03*
X198925000Y-99300000D03*
X152600000Y-103975000D03*
X204775000Y-156675000D03*
X174775000Y-149225000D03*
X204425000Y-158850000D03*
X218100000Y-140325000D03*
X150000000Y-128875000D03*
X182775000Y-108775000D03*
X222775000Y-137975000D03*
X220075000Y-129025000D03*
X181575000Y-100050000D03*
X189750000Y-89300000D03*
X195950000Y-82700000D03*
X204350000Y-90850000D03*
%TD*%
D24*
%TO.N,+5V*%
X203500000Y-105825000D02*
X208636054Y-100688946D01*
X208636054Y-100688946D02*
X216314869Y-100688946D01*
%TO.N,/PWM*%
X193990000Y-91275000D02*
X190160000Y-87445000D01*
X190160000Y-87445000D02*
X190160000Y-85650000D01*
%TO.N,+3.3V*%
X187620000Y-92525000D02*
X187620000Y-85650000D01*
X193990000Y-98895000D02*
X187620000Y-92525000D01*
%TD*%
%TA.AperFunction,Conductor*%
%TO.N,GND*%
G36*
X188974855Y-86316546D02*
G01*
X188991575Y-86335842D01*
X189121500Y-86521395D01*
X189121505Y-86521401D01*
X189288599Y-86688495D01*
X189481624Y-86823653D01*
X189525248Y-86878228D01*
X189534500Y-86925226D01*
X189534500Y-87362255D01*
X189532775Y-87377872D01*
X189533061Y-87377899D01*
X189532326Y-87385665D01*
X189534500Y-87454814D01*
X189534500Y-87484343D01*
X189534501Y-87484360D01*
X189535368Y-87491231D01*
X189535826Y-87497050D01*
X189537290Y-87543624D01*
X189537291Y-87543627D01*
X189542880Y-87562867D01*
X189546824Y-87581911D01*
X189548472Y-87594954D01*
X189549336Y-87601791D01*
X189566490Y-87645119D01*
X189568382Y-87650647D01*
X189581382Y-87695390D01*
X189582041Y-87696505D01*
X189591580Y-87712634D01*
X189600138Y-87730103D01*
X189607514Y-87748732D01*
X189634898Y-87786423D01*
X189638106Y-87791307D01*
X189661827Y-87831416D01*
X189661833Y-87831424D01*
X189675990Y-87845580D01*
X189688628Y-87860376D01*
X189700405Y-87876586D01*
X189700406Y-87876587D01*
X189736309Y-87906288D01*
X189740620Y-87910210D01*
X191931374Y-90100965D01*
X192649761Y-90819352D01*
X192683246Y-90880675D01*
X192681855Y-90939124D01*
X192654937Y-91039589D01*
X192654937Y-91039590D01*
X192634341Y-91274999D01*
X192634341Y-91275000D01*
X192654936Y-91510403D01*
X192654938Y-91510413D01*
X192716094Y-91738655D01*
X192716096Y-91738659D01*
X192716097Y-91738663D01*
X192771068Y-91856548D01*
X192815965Y-91952830D01*
X192815967Y-91952834D01*
X192951501Y-92146395D01*
X192951506Y-92146402D01*
X193118597Y-92313493D01*
X193118603Y-92313498D01*
X193304158Y-92443425D01*
X193347783Y-92498002D01*
X193354977Y-92567500D01*
X193323454Y-92629855D01*
X193304158Y-92646575D01*
X193118597Y-92776505D01*
X192951505Y-92943597D01*
X192815965Y-93137169D01*
X192815964Y-93137171D01*
X192716098Y-93351335D01*
X192716094Y-93351344D01*
X192654938Y-93579586D01*
X192654936Y-93579596D01*
X192634341Y-93814999D01*
X192634341Y-93815000D01*
X192654936Y-94050403D01*
X192654938Y-94050413D01*
X192716094Y-94278655D01*
X192716096Y-94278659D01*
X192716097Y-94278663D01*
X192788902Y-94434794D01*
X192815965Y-94492830D01*
X192815967Y-94492834D01*
X192855045Y-94548642D01*
X192949948Y-94684178D01*
X192951501Y-94686395D01*
X192951506Y-94686402D01*
X193118597Y-94853493D01*
X193118603Y-94853498D01*
X193304158Y-94983425D01*
X193347783Y-95038002D01*
X193354977Y-95107500D01*
X193323454Y-95169855D01*
X193304158Y-95186575D01*
X193118597Y-95316505D01*
X192951505Y-95483597D01*
X192815965Y-95677169D01*
X192815964Y-95677171D01*
X192716098Y-95891335D01*
X192716094Y-95891344D01*
X192654938Y-96119586D01*
X192654936Y-96119596D01*
X192634341Y-96354999D01*
X192634341Y-96355388D01*
X192634292Y-96355553D01*
X192633869Y-96360394D01*
X192632896Y-96360308D01*
X192614656Y-96422427D01*
X192561852Y-96468182D01*
X192492694Y-96478126D01*
X192429138Y-96449101D01*
X192422660Y-96443069D01*
X188281819Y-92302228D01*
X188248334Y-92240905D01*
X188245500Y-92214547D01*
X188245500Y-86925226D01*
X188265185Y-86858187D01*
X188298374Y-86823654D01*
X188491401Y-86688495D01*
X188658495Y-86521401D01*
X188788425Y-86335842D01*
X188843002Y-86292217D01*
X188912500Y-86285023D01*
X188974855Y-86316546D01*
G37*
%TD.AperFunction*%
%TA.AperFunction,Conductor*%
G36*
X187345222Y-79690740D02*
G01*
X187937784Y-79709063D01*
X188632218Y-79740811D01*
X189223847Y-79777435D01*
X189917022Y-79830318D01*
X190507085Y-79885195D01*
X191198592Y-79959190D01*
X191786373Y-80032240D01*
X192475620Y-80127303D01*
X193060465Y-80218423D01*
X193746932Y-80334504D01*
X194083015Y-80397563D01*
X194328242Y-80443575D01*
X194440476Y-80466088D01*
X195011314Y-80580598D01*
X195588378Y-80707451D01*
X196267602Y-80865363D01*
X196725319Y-80980919D01*
X196839788Y-81009819D01*
X197065386Y-81069564D01*
X197514556Y-81188517D01*
X198081233Y-81350368D01*
X198751030Y-81549766D01*
X199293107Y-81722882D01*
X199311603Y-81728788D01*
X199975899Y-81948782D01*
X200529624Y-82144675D01*
X201101193Y-82353482D01*
X201187932Y-82385170D01*
X201734224Y-82597649D01*
X202386068Y-82858545D01*
X202924217Y-83087248D01*
X203569127Y-83368446D01*
X204098511Y-83613008D01*
X204735995Y-83914393D01*
X205255950Y-84174391D01*
X205825855Y-84465382D01*
X205885583Y-84495879D01*
X206395436Y-84770842D01*
X206410145Y-84778926D01*
X207016839Y-85112372D01*
X207515889Y-85401767D01*
X208128618Y-85763251D01*
X208261063Y-85845627D01*
X208616276Y-86066557D01*
X209041818Y-86335406D01*
X209219956Y-86447950D01*
X209695218Y-86764325D01*
X210052620Y-87005659D01*
X210289811Y-87165821D01*
X210752054Y-87494592D01*
X211337140Y-87916166D01*
X211785532Y-88256434D01*
X212360963Y-88698283D01*
X212697441Y-88970413D01*
X212794598Y-89048990D01*
X213360339Y-89511454D01*
X213778197Y-89871321D01*
X213877879Y-89958002D01*
X214334303Y-90354895D01*
X214735261Y-90722393D01*
X215281949Y-91227823D01*
X215452396Y-91394027D01*
X215664668Y-91601016D01*
X216202398Y-92129432D01*
X216564939Y-92505499D01*
X217094725Y-93058813D01*
X217285472Y-93269327D01*
X217423646Y-93421820D01*
X217435002Y-93434352D01*
X217942799Y-93998111D01*
X217958149Y-94015152D01*
X217988168Y-94050413D01*
X218272700Y-94384636D01*
X218791859Y-94997557D01*
X218846151Y-95065476D01*
X219075252Y-95352080D01*
X219407810Y-95769859D01*
X219595051Y-96005082D01*
X219837685Y-96328635D01*
X220366944Y-97036748D01*
X220548379Y-97294949D01*
X221106865Y-98091657D01*
X221165558Y-98180926D01*
X221691260Y-98981684D01*
X221810237Y-99162911D01*
X222467238Y-100233361D01*
X222478673Y-100251991D01*
X222479332Y-100253100D01*
X222479332Y-100253101D01*
X222527023Y-100333402D01*
X222527024Y-100333404D01*
X222527026Y-100333406D01*
X222650381Y-100473650D01*
X222650385Y-100473653D01*
X222650388Y-100473657D01*
X222793433Y-100585413D01*
X222797586Y-100588657D01*
X222836992Y-100609024D01*
X222963519Y-100674420D01*
X223021653Y-100691823D01*
X223142457Y-100727988D01*
X223142461Y-100727988D01*
X223142463Y-100727989D01*
X223328231Y-100747510D01*
X223514401Y-100732309D01*
X223694541Y-100682911D01*
X223765757Y-100648233D01*
X223765837Y-100648206D01*
X223778422Y-100642068D01*
X225597437Y-99754874D01*
X225601821Y-99754130D01*
X225640154Y-99734099D01*
X225643566Y-99732447D01*
X225827593Y-99650241D01*
X225920945Y-99608817D01*
X225927923Y-99606211D01*
X226092877Y-99555702D01*
X226220720Y-99517587D01*
X226227668Y-99515945D01*
X226391561Y-99487108D01*
X226529508Y-99464582D01*
X226536297Y-99463856D01*
X226700016Y-99455466D01*
X226842449Y-99450624D01*
X226848981Y-99450747D01*
X227011235Y-99462413D01*
X227154632Y-99475919D01*
X227160799Y-99476815D01*
X227248835Y-99494179D01*
X227319617Y-99508141D01*
X227461171Y-99540062D01*
X227466905Y-99541647D01*
X227620232Y-99592069D01*
X227757241Y-99642032D01*
X227762405Y-99644186D01*
X227908189Y-99712939D01*
X227964326Y-99741991D01*
X228038165Y-99780206D01*
X228042794Y-99782860D01*
X228095394Y-99816104D01*
X228178903Y-99868886D01*
X228272248Y-99933498D01*
X228299599Y-99952430D01*
X228303610Y-99955454D01*
X228426999Y-100056592D01*
X228429116Y-100058412D01*
X228537400Y-100155971D01*
X228540770Y-100159249D01*
X228650704Y-100274635D01*
X228652831Y-100276986D01*
X228731746Y-100368880D01*
X228747829Y-100387607D01*
X228750589Y-100391063D01*
X228811860Y-100473660D01*
X228845470Y-100518967D01*
X228847478Y-100521841D01*
X228879937Y-100571204D01*
X228927622Y-100643721D01*
X228929768Y-100647234D01*
X229008227Y-100785780D01*
X229010002Y-100789152D01*
X229042051Y-100854862D01*
X229073961Y-100920286D01*
X229075526Y-100923763D01*
X229136392Y-101070872D01*
X229137839Y-101074727D01*
X229184541Y-101212919D01*
X229185569Y-101216272D01*
X229227944Y-101369785D01*
X229228968Y-101374087D01*
X229257655Y-101517064D01*
X229258204Y-101520219D01*
X229281438Y-101677832D01*
X229281949Y-101682531D01*
X229292157Y-101827868D01*
X229292292Y-101830762D01*
X229296023Y-101990203D01*
X229295936Y-101995234D01*
X229287462Y-102141782D01*
X229271455Y-102301986D01*
X229270697Y-102307269D01*
X229243681Y-102451113D01*
X229208113Y-102608284D01*
X229206619Y-102613725D01*
X229161644Y-102752439D01*
X229106979Y-102904304D01*
X229104699Y-102909797D01*
X229042713Y-103040978D01*
X228969612Y-103185425D01*
X228966512Y-103190854D01*
X228888871Y-103312167D01*
X228798188Y-103447179D01*
X228794249Y-103452423D01*
X228702733Y-103561693D01*
X228595360Y-103685500D01*
X228590584Y-103690428D01*
X228487863Y-103785303D01*
X228364296Y-103896642D01*
X228358704Y-103901125D01*
X228249829Y-103978494D01*
X228108621Y-104077278D01*
X228102256Y-104081183D01*
X228015513Y-104127453D01*
X227833688Y-104223845D01*
X227830245Y-104225536D01*
X227799054Y-104239674D01*
X227788630Y-104245908D01*
X226015608Y-105110668D01*
X226015232Y-105110731D01*
X225885143Y-105174305D01*
X225735325Y-105285863D01*
X225735316Y-105285871D01*
X225608742Y-105423217D01*
X225608738Y-105423222D01*
X225509764Y-105581635D01*
X225441817Y-105755623D01*
X225441816Y-105755629D01*
X225424498Y-105847584D01*
X225407244Y-105939194D01*
X225407243Y-105939197D01*
X225407241Y-106125980D01*
X225407241Y-106125987D01*
X225426585Y-106228705D01*
X225440011Y-106300000D01*
X225441810Y-106309550D01*
X225471351Y-106385352D01*
X225471377Y-106385443D01*
X225475722Y-106396568D01*
X225562092Y-106627830D01*
X225754237Y-107142315D01*
X225757833Y-107151942D01*
X225809112Y-107289506D01*
X225916427Y-107577396D01*
X226145242Y-108250590D01*
X226326339Y-108786669D01*
X226528481Y-109445132D01*
X226699296Y-110007763D01*
X226879294Y-110663055D01*
X227034973Y-111239605D01*
X227194150Y-111894923D01*
X227333072Y-112481104D01*
X227471971Y-113137602D01*
X227593301Y-113731036D01*
X227712209Y-114389285D01*
X227815423Y-114988239D01*
X227914458Y-115648301D01*
X227999242Y-116251593D01*
X228078453Y-116913278D01*
X228144585Y-117519867D01*
X228203996Y-118182963D01*
X228251328Y-118791957D01*
X228290933Y-119455994D01*
X228319373Y-120066631D01*
X228339177Y-120731325D01*
X228348662Y-121342675D01*
X228348662Y-122007606D01*
X228339177Y-122618936D01*
X228319371Y-123283699D01*
X228290936Y-123894228D01*
X228251328Y-124558324D01*
X228203992Y-125167351D01*
X228144584Y-125830414D01*
X228078459Y-126436941D01*
X227999235Y-127098735D01*
X227914468Y-127701910D01*
X227815422Y-128362048D01*
X227712209Y-128960996D01*
X227593301Y-129619245D01*
X227471971Y-130212679D01*
X227333073Y-130869172D01*
X227194127Y-131455456D01*
X227034982Y-132110638D01*
X226879232Y-132687449D01*
X226699304Y-133342486D01*
X226528479Y-133905155D01*
X226326329Y-134563642D01*
X226145279Y-135099578D01*
X225916433Y-135772866D01*
X225757908Y-136198136D01*
X225475683Y-136953815D01*
X225456936Y-137001815D01*
X225456751Y-137002502D01*
X225441849Y-137040736D01*
X225441844Y-137040753D01*
X225407273Y-137224298D01*
X225407272Y-137224306D01*
X225407272Y-137411081D01*
X225407272Y-137411085D01*
X225424525Y-137502690D01*
X225441842Y-137594638D01*
X225441844Y-137594646D01*
X225509790Y-137768628D01*
X225608764Y-137927027D01*
X225636354Y-137956962D01*
X225735353Y-138064376D01*
X225885172Y-138175920D01*
X225959776Y-138212372D01*
X225959851Y-138212417D01*
X225968815Y-138216789D01*
X225968993Y-138216876D01*
X225968994Y-138216877D01*
X227789578Y-139104834D01*
X227792997Y-139107952D01*
X227830596Y-139124906D01*
X227834152Y-139126649D01*
X227944077Y-139184926D01*
X228012145Y-139221012D01*
X228102258Y-139269070D01*
X228108619Y-139272973D01*
X228150542Y-139302301D01*
X228249998Y-139371879D01*
X228354035Y-139445811D01*
X228358694Y-139449122D01*
X228364287Y-139453605D01*
X228403181Y-139488651D01*
X228487887Y-139564979D01*
X228590562Y-139659811D01*
X228595338Y-139664739D01*
X228702728Y-139788570D01*
X228794221Y-139897815D01*
X228798159Y-139903058D01*
X228888835Y-140038061D01*
X228937500Y-140114098D01*
X228966493Y-140159401D01*
X228969588Y-140164820D01*
X229042686Y-140309269D01*
X229104657Y-140440420D01*
X229106938Y-140445913D01*
X229161613Y-140597809D01*
X229206579Y-140736495D01*
X229208073Y-140741936D01*
X229243643Y-140899122D01*
X229270653Y-141042934D01*
X229271412Y-141048218D01*
X229287419Y-141208446D01*
X229295891Y-141354968D01*
X229295978Y-141360000D01*
X229292248Y-141519438D01*
X229292113Y-141522333D01*
X229281906Y-141667655D01*
X229281395Y-141672355D01*
X229258156Y-141829997D01*
X229257607Y-141833152D01*
X229228926Y-141976097D01*
X229227902Y-141980400D01*
X229185526Y-142133913D01*
X229184498Y-142137266D01*
X229137800Y-142275447D01*
X229136353Y-142279302D01*
X229075480Y-142426427D01*
X229073915Y-142429903D01*
X229009968Y-142561014D01*
X229008192Y-142564388D01*
X228929729Y-142702942D01*
X228927583Y-142706455D01*
X228847447Y-142828323D01*
X228845438Y-142831198D01*
X228750556Y-142959105D01*
X228747796Y-142962560D01*
X228652824Y-143073152D01*
X228650676Y-143075526D01*
X228540742Y-143190912D01*
X228537353Y-143194208D01*
X228429141Y-143291705D01*
X228426943Y-143293593D01*
X228303582Y-143394709D01*
X228299564Y-143397738D01*
X228178889Y-143481269D01*
X228042786Y-143567292D01*
X228038157Y-143569947D01*
X227908181Y-143637215D01*
X227762431Y-143705953D01*
X227757223Y-143708125D01*
X227620221Y-143758086D01*
X227466898Y-143808507D01*
X227461166Y-143810092D01*
X227319641Y-143842008D01*
X227160829Y-143873333D01*
X227154641Y-143874232D01*
X227011238Y-143887740D01*
X226849004Y-143899405D01*
X226842448Y-143899529D01*
X226700079Y-143894691D01*
X226536339Y-143886302D01*
X226529515Y-143885572D01*
X226391626Y-143863057D01*
X226227720Y-143834219D01*
X226220743Y-143832571D01*
X226092859Y-143794444D01*
X225927945Y-143743950D01*
X225920967Y-143741346D01*
X225898520Y-143731395D01*
X225841175Y-143705974D01*
X225644287Y-143618028D01*
X225641918Y-143616970D01*
X225641900Y-143616962D01*
X225638473Y-143615303D01*
X225609942Y-143600395D01*
X225598531Y-143595940D01*
X223767934Y-142703098D01*
X223767211Y-142702829D01*
X223710857Y-142675393D01*
X223694516Y-142667437D01*
X223694514Y-142667436D01*
X223694509Y-142667434D01*
X223694506Y-142667433D01*
X223514386Y-142618048D01*
X223328226Y-142602849D01*
X223328220Y-142602850D01*
X223142472Y-142622368D01*
X222963537Y-142675929D01*
X222797609Y-142761680D01*
X222797604Y-142761683D01*
X222650413Y-142876663D01*
X222650412Y-142876664D01*
X222527044Y-143016900D01*
X222479351Y-143097186D01*
X221810237Y-144187371D01*
X221165558Y-145169356D01*
X221106865Y-145258625D01*
X220548379Y-146055332D01*
X220366944Y-146313533D01*
X219837685Y-147021646D01*
X219595051Y-147345199D01*
X219075228Y-147998232D01*
X218791859Y-148352724D01*
X218272700Y-148965645D01*
X217958159Y-149335118D01*
X217435040Y-149915887D01*
X217094725Y-150291468D01*
X216564939Y-150844782D01*
X216202398Y-151220849D01*
X215664572Y-151749360D01*
X215281949Y-152122458D01*
X214735261Y-152627888D01*
X214334303Y-152995386D01*
X213778217Y-153478942D01*
X213360339Y-153838827D01*
X212794598Y-154301291D01*
X212360969Y-154651994D01*
X211785532Y-155093847D01*
X211337140Y-155434115D01*
X210752054Y-155855689D01*
X210289811Y-156184460D01*
X209695290Y-156585907D01*
X209219961Y-156902328D01*
X208616236Y-157283750D01*
X208128618Y-157587030D01*
X207515889Y-157948514D01*
X207016832Y-158237913D01*
X206395436Y-158579439D01*
X205885583Y-158854402D01*
X205255984Y-159175873D01*
X204735980Y-159435895D01*
X204098502Y-159737278D01*
X203569127Y-159981835D01*
X202924226Y-160263029D01*
X202386044Y-160491746D01*
X201734243Y-160752625D01*
X201187932Y-160965111D01*
X200529641Y-161205600D01*
X199975868Y-161401509D01*
X199311601Y-161621493D01*
X198751026Y-161800517D01*
X198081238Y-161999911D01*
X197514550Y-162161765D01*
X196839788Y-162340462D01*
X196267565Y-162484927D01*
X195588435Y-162642817D01*
X195011284Y-162769689D01*
X194328242Y-162906706D01*
X193746917Y-163015779D01*
X193060506Y-163131851D01*
X192475625Y-163222977D01*
X191786374Y-163318040D01*
X191198583Y-163391092D01*
X190507114Y-163465083D01*
X189917012Y-163519964D01*
X189223873Y-163572844D01*
X188632166Y-163609473D01*
X187937838Y-163641216D01*
X187345182Y-163659541D01*
X186650342Y-163670124D01*
X186057300Y-163670124D01*
X185362459Y-163659541D01*
X184769803Y-163641216D01*
X184075475Y-163609473D01*
X183483768Y-163572844D01*
X182790629Y-163519964D01*
X182200527Y-163465083D01*
X181509058Y-163391092D01*
X180921267Y-163318040D01*
X180232016Y-163222977D01*
X179647135Y-163131851D01*
X178960724Y-163015779D01*
X178379399Y-162906706D01*
X177696357Y-162769689D01*
X177119206Y-162642817D01*
X176440076Y-162484927D01*
X175867853Y-162340462D01*
X175193091Y-162161765D01*
X174626403Y-161999911D01*
X173956622Y-161800519D01*
X173847158Y-161765561D01*
X173396040Y-161621493D01*
X172731773Y-161401509D01*
X172178000Y-161205600D01*
X171519709Y-160965111D01*
X170973398Y-160752625D01*
X170321597Y-160491746D01*
X169783415Y-160263029D01*
X169138514Y-159981835D01*
X168609139Y-159737278D01*
X167971661Y-159435895D01*
X167451657Y-159175873D01*
X166822058Y-158854402D01*
X166346904Y-158598152D01*
X178657142Y-158598152D01*
X178657143Y-158598158D01*
X178663550Y-158657765D01*
X178713844Y-158792610D01*
X178713848Y-158792617D01*
X178800094Y-158907826D01*
X178800097Y-158907829D01*
X178915306Y-158994075D01*
X178915313Y-158994079D01*
X179050159Y-159044373D01*
X179050158Y-159044373D01*
X179057086Y-159045117D01*
X179109769Y-159050782D01*
X180905514Y-159050781D01*
X180965125Y-159044373D01*
X181099973Y-158994078D01*
X181215188Y-158907828D01*
X181301438Y-158792613D01*
X181350452Y-158661198D01*
X181392323Y-158605266D01*
X181457787Y-158580848D01*
X181526060Y-158595699D01*
X181554315Y-158616851D01*
X181676241Y-158738777D01*
X181773026Y-158806547D01*
X181869807Y-158874314D01*
X181869809Y-158874315D01*
X181869812Y-158874317D01*
X182083979Y-158974185D01*
X182312234Y-159035345D01*
X182488676Y-159050782D01*
X182547641Y-159055941D01*
X182547642Y-159055941D01*
X182547643Y-159055941D01*
X182606608Y-159050782D01*
X182783050Y-159035345D01*
X183011305Y-158974185D01*
X183225472Y-158874317D01*
X183419043Y-158738777D01*
X183586137Y-158571683D01*
X183716067Y-158386124D01*
X183770644Y-158342499D01*
X183840142Y-158335305D01*
X183902497Y-158366828D01*
X183919217Y-158386124D01*
X184049142Y-158571677D01*
X184049147Y-158571683D01*
X184216241Y-158738777D01*
X184313026Y-158806547D01*
X184409807Y-158874314D01*
X184409809Y-158874315D01*
X184409812Y-158874317D01*
X184623979Y-158974185D01*
X184852234Y-159035345D01*
X185028676Y-159050782D01*
X185087641Y-159055941D01*
X185087642Y-159055941D01*
X185087643Y-159055941D01*
X185146608Y-159050782D01*
X185323050Y-159035345D01*
X185551305Y-158974185D01*
X185765472Y-158874317D01*
X185959043Y-158738777D01*
X186126137Y-158571683D01*
X186256372Y-158385687D01*
X186310949Y-158342063D01*
X186380447Y-158334869D01*
X186442802Y-158366392D01*
X186459521Y-158385687D01*
X186589532Y-158571360D01*
X186756559Y-158738387D01*
X186950063Y-158873882D01*
X187164149Y-158973711D01*
X187164158Y-158973715D01*
X187377642Y-159030916D01*
X187377642Y-158135783D01*
X187485327Y-158184962D01*
X187591879Y-158200282D01*
X187663405Y-158200282D01*
X187769957Y-158184962D01*
X187877642Y-158135783D01*
X187877642Y-159030915D01*
X188091125Y-158973715D01*
X188091134Y-158973711D01*
X188305220Y-158873882D01*
X188498724Y-158738387D01*
X188665747Y-158571364D01*
X188795761Y-158385687D01*
X188850338Y-158342063D01*
X188919837Y-158334870D01*
X188982191Y-158366392D01*
X188998911Y-158385687D01*
X189129147Y-158571683D01*
X189296241Y-158738777D01*
X189393026Y-158806547D01*
X189489807Y-158874314D01*
X189489809Y-158874315D01*
X189489812Y-158874317D01*
X189703979Y-158974185D01*
X189932234Y-159035345D01*
X190108676Y-159050782D01*
X190167641Y-159055941D01*
X190167642Y-159055941D01*
X190167643Y-159055941D01*
X190226608Y-159050782D01*
X190403050Y-159035345D01*
X190631305Y-158974185D01*
X190845472Y-158874317D01*
X191039043Y-158738777D01*
X191206137Y-158571683D01*
X191341677Y-158378112D01*
X191441545Y-158163945D01*
X191502705Y-157935690D01*
X191523301Y-157700282D01*
X191502705Y-157464874D01*
X191441545Y-157236619D01*
X191341677Y-157022453D01*
X191336373Y-157014877D01*
X191206136Y-156828879D01*
X191039044Y-156661788D01*
X191039037Y-156661783D01*
X190845476Y-156526249D01*
X190845472Y-156526247D01*
X190845470Y-156526246D01*
X190631305Y-156426379D01*
X190631301Y-156426378D01*
X190631297Y-156426376D01*
X190403055Y-156365220D01*
X190403045Y-156365218D01*
X190167643Y-156344623D01*
X190167641Y-156344623D01*
X189932238Y-156365218D01*
X189932228Y-156365220D01*
X189703986Y-156426376D01*
X189703977Y-156426380D01*
X189489813Y-156526246D01*
X189489811Y-156526247D01*
X189296239Y-156661787D01*
X189129150Y-156828876D01*
X188998911Y-157014877D01*
X188944334Y-157058501D01*
X188874835Y-157065694D01*
X188812481Y-157034172D01*
X188795761Y-157014876D01*
X188665755Y-156829208D01*
X188665750Y-156829202D01*
X188498724Y-156662176D01*
X188305220Y-156526681D01*
X188091134Y-156426852D01*
X188091128Y-156426849D01*
X187877642Y-156369646D01*
X187877642Y-157264780D01*
X187769957Y-157215602D01*
X187663405Y-157200282D01*
X187591879Y-157200282D01*
X187485327Y-157215602D01*
X187377642Y-157264780D01*
X187377642Y-156369646D01*
X187377641Y-156369646D01*
X187164155Y-156426849D01*
X187164149Y-156426852D01*
X186950064Y-156526681D01*
X186950062Y-156526682D01*
X186756568Y-156662168D01*
X186756562Y-156662173D01*
X186589533Y-156829202D01*
X186589532Y-156829204D01*
X186459522Y-157014877D01*
X186404945Y-157058501D01*
X186335446Y-157065694D01*
X186273092Y-157034172D01*
X186256372Y-157014876D01*
X186126136Y-156828879D01*
X185959044Y-156661788D01*
X185959037Y-156661783D01*
X185765476Y-156526249D01*
X185765472Y-156526247D01*
X185765470Y-156526246D01*
X185551305Y-156426379D01*
X185551301Y-156426378D01*
X185551297Y-156426376D01*
X185323055Y-156365220D01*
X185323045Y-156365218D01*
X185087643Y-156344623D01*
X185087641Y-156344623D01*
X184852238Y-156365218D01*
X184852228Y-156365220D01*
X184623986Y-156426376D01*
X184623977Y-156426380D01*
X184409813Y-156526246D01*
X184409811Y-156526247D01*
X184216239Y-156661787D01*
X184049147Y-156828879D01*
X183919217Y-157014440D01*
X183864640Y-157058065D01*
X183795142Y-157065259D01*
X183732787Y-157033736D01*
X183716067Y-157014440D01*
X183586136Y-156828879D01*
X183419044Y-156661788D01*
X183419037Y-156661783D01*
X183225476Y-156526249D01*
X183225472Y-156526247D01*
X183225470Y-156526246D01*
X183011305Y-156426379D01*
X183011301Y-156426378D01*
X183011297Y-156426376D01*
X182783055Y-156365220D01*
X182783045Y-156365218D01*
X182547643Y-156344623D01*
X182547641Y-156344623D01*
X182312238Y-156365218D01*
X182312228Y-156365220D01*
X182083986Y-156426376D01*
X182083977Y-156426380D01*
X181869813Y-156526246D01*
X181869811Y-156526247D01*
X181676242Y-156661785D01*
X181554315Y-156783712D01*
X181492992Y-156817196D01*
X181423300Y-156812212D01*
X181367367Y-156770340D01*
X181350452Y-156739363D01*
X181301439Y-156607953D01*
X181301435Y-156607946D01*
X181215189Y-156492737D01*
X181215186Y-156492734D01*
X181099977Y-156406488D01*
X181099970Y-156406484D01*
X180965124Y-156356190D01*
X180965125Y-156356190D01*
X180905525Y-156349783D01*
X180905523Y-156349782D01*
X180905515Y-156349782D01*
X180905506Y-156349782D01*
X179109771Y-156349782D01*
X179109765Y-156349783D01*
X179050158Y-156356190D01*
X178915313Y-156406484D01*
X178915306Y-156406488D01*
X178800097Y-156492734D01*
X178800094Y-156492737D01*
X178713848Y-156607946D01*
X178713844Y-156607953D01*
X178663550Y-156742799D01*
X178657143Y-156802398D01*
X178657142Y-156802417D01*
X178657142Y-158598152D01*
X166346904Y-158598152D01*
X166312205Y-158579439D01*
X165690809Y-158237913D01*
X165191752Y-157948514D01*
X164579023Y-157587030D01*
X164292448Y-157408791D01*
X164091427Y-157283763D01*
X163487680Y-156902328D01*
X163012351Y-156585907D01*
X162417830Y-156184460D01*
X161955587Y-155855689D01*
X161370501Y-155434115D01*
X160922109Y-155093847D01*
X160346672Y-154651994D01*
X159913043Y-154301291D01*
X159347302Y-153838827D01*
X158929424Y-153478942D01*
X158373338Y-152995386D01*
X157972380Y-152627888D01*
X157425692Y-152122458D01*
X157073101Y-151778644D01*
X157043118Y-151749407D01*
X156927904Y-151636189D01*
X205632288Y-151636189D01*
X205652768Y-151778644D01*
X205652769Y-151778648D01*
X205712555Y-151909559D01*
X205712556Y-151909560D01*
X205712557Y-151909562D01*
X205750176Y-151956245D01*
X205750179Y-151956248D01*
X205750184Y-151956254D01*
X207019948Y-153226015D01*
X207019960Y-153226027D01*
X207019964Y-153226030D01*
X207019966Y-153226032D01*
X207066642Y-153263648D01*
X207197556Y-153323435D01*
X207197557Y-153323435D01*
X207197559Y-153323436D01*
X207340016Y-153343917D01*
X207482473Y-153323436D01*
X207613389Y-153263648D01*
X207660072Y-153226029D01*
X208929854Y-151956245D01*
X208967475Y-151909562D01*
X209027263Y-151778646D01*
X209047744Y-151636189D01*
X209027263Y-151493732D01*
X208969418Y-151367070D01*
X208959474Y-151297912D01*
X208988499Y-151234356D01*
X209047277Y-151196581D01*
X209093016Y-151192030D01*
X209136067Y-151195797D01*
X209371475Y-151175201D01*
X209599730Y-151114041D01*
X209813897Y-151014173D01*
X210007468Y-150878633D01*
X210174562Y-150711539D01*
X210310102Y-150517968D01*
X210409970Y-150303801D01*
X210471130Y-150075546D01*
X210491726Y-149840138D01*
X210471130Y-149604730D01*
X210444150Y-149504038D01*
X210445813Y-149434188D01*
X210484976Y-149376326D01*
X210549204Y-149348822D01*
X210596018Y-149352170D01*
X210696710Y-149379150D01*
X210885036Y-149395626D01*
X210932117Y-149399746D01*
X210932118Y-149399746D01*
X210932119Y-149399746D01*
X210971352Y-149396313D01*
X211167526Y-149379150D01*
X211395781Y-149317990D01*
X211609948Y-149218122D01*
X211803519Y-149082582D01*
X211970613Y-148915488D01*
X212106153Y-148721917D01*
X212206021Y-148507750D01*
X212267181Y-148279495D01*
X212287777Y-148044087D01*
X212267181Y-147808679D01*
X212240051Y-147707427D01*
X212241714Y-147637578D01*
X212280877Y-147579716D01*
X212345105Y-147552212D01*
X212391919Y-147555560D01*
X212492843Y-147582602D01*
X212492854Y-147582604D01*
X212728168Y-147603192D01*
X212728172Y-147603192D01*
X212963485Y-147582604D01*
X212963496Y-147582602D01*
X213191653Y-147521468D01*
X213191662Y-147521464D01*
X213405748Y-147421635D01*
X213405752Y-147421633D01*
X213489543Y-147362961D01*
X213489543Y-147362960D01*
X212860703Y-146734121D01*
X212870485Y-146732715D01*
X213001270Y-146672987D01*
X213109931Y-146578833D01*
X213187663Y-146457879D01*
X213211246Y-146377559D01*
X213843095Y-147009408D01*
X213843096Y-147009408D01*
X213901768Y-146925617D01*
X213901770Y-146925613D01*
X214001599Y-146711527D01*
X214001603Y-146711518D01*
X214062737Y-146483361D01*
X214062739Y-146483350D01*
X214083327Y-146248036D01*
X214083327Y-146248033D01*
X214062739Y-146012719D01*
X214062738Y-146012712D01*
X214035695Y-145911786D01*
X214037358Y-145841936D01*
X214076520Y-145784073D01*
X214140749Y-145756569D01*
X214187560Y-145759916D01*
X214288813Y-145787047D01*
X214477139Y-145803523D01*
X214524220Y-145807643D01*
X214524221Y-145807643D01*
X214524222Y-145807643D01*
X214563455Y-145804210D01*
X214759629Y-145787047D01*
X214987884Y-145725887D01*
X215202051Y-145626019D01*
X215395622Y-145490479D01*
X215562716Y-145323385D01*
X215698256Y-145129814D01*
X215798124Y-144915647D01*
X215859284Y-144687392D01*
X215879880Y-144451984D01*
X215859284Y-144216576D01*
X215798124Y-143988321D01*
X215698256Y-143774155D01*
X215687005Y-143758086D01*
X215562715Y-143580581D01*
X215395623Y-143413490D01*
X215395616Y-143413485D01*
X215202055Y-143277951D01*
X215202051Y-143277949D01*
X215107577Y-143233895D01*
X214987884Y-143178081D01*
X214987880Y-143178080D01*
X214987876Y-143178078D01*
X214759634Y-143116922D01*
X214759624Y-143116920D01*
X214524222Y-143096325D01*
X214524220Y-143096325D01*
X214288817Y-143116920D01*
X214288807Y-143116922D01*
X214060565Y-143178078D01*
X214060556Y-143178082D01*
X213846392Y-143277948D01*
X213846390Y-143277949D01*
X213652818Y-143413489D01*
X213485726Y-143580581D01*
X213350186Y-143774153D01*
X213350185Y-143774155D01*
X213250319Y-143988319D01*
X213250315Y-143988328D01*
X213189159Y-144216570D01*
X213189157Y-144216580D01*
X213168562Y-144451983D01*
X213168562Y-144451984D01*
X213189157Y-144687387D01*
X213189159Y-144687397D01*
X213216287Y-144788641D01*
X213214624Y-144858491D01*
X213175461Y-144916353D01*
X213111232Y-144943857D01*
X213064419Y-144940509D01*
X212963496Y-144913467D01*
X212963485Y-144913465D01*
X212728172Y-144892878D01*
X212728168Y-144892878D01*
X212492854Y-144913465D01*
X212492843Y-144913467D01*
X212264686Y-144974601D01*
X212264677Y-144974605D01*
X212050589Y-145074436D01*
X211966795Y-145133107D01*
X212595636Y-145761948D01*
X212585855Y-145763355D01*
X212455070Y-145823083D01*
X212346409Y-145917237D01*
X212268677Y-146038191D01*
X212245093Y-146118511D01*
X211613242Y-145486660D01*
X211554571Y-145570454D01*
X211454740Y-145784542D01*
X211454736Y-145784551D01*
X211393602Y-146012708D01*
X211393600Y-146012719D01*
X211373013Y-146248033D01*
X211373013Y-146248036D01*
X211393600Y-146483350D01*
X211393602Y-146483361D01*
X211420644Y-146584285D01*
X211418981Y-146654135D01*
X211379818Y-146711998D01*
X211315589Y-146739501D01*
X211268776Y-146736153D01*
X211167531Y-146709025D01*
X211167521Y-146709023D01*
X210932119Y-146688428D01*
X210932117Y-146688428D01*
X210696714Y-146709023D01*
X210696704Y-146709025D01*
X210468462Y-146770181D01*
X210468453Y-146770185D01*
X210254289Y-146870051D01*
X210254287Y-146870052D01*
X210060715Y-147005592D01*
X209893623Y-147172684D01*
X209758083Y-147366256D01*
X209758082Y-147366258D01*
X209658216Y-147580422D01*
X209658212Y-147580431D01*
X209597056Y-147808673D01*
X209597054Y-147808683D01*
X209576459Y-148044086D01*
X209576459Y-148044087D01*
X209597054Y-148279490D01*
X209597057Y-148279503D01*
X209624034Y-148380187D01*
X209622371Y-148450037D01*
X209583208Y-148507899D01*
X209518979Y-148535402D01*
X209472167Y-148532054D01*
X209371483Y-148505077D01*
X209371479Y-148505076D01*
X209371475Y-148505075D01*
X209371473Y-148505074D01*
X209371470Y-148505074D01*
X209136068Y-148484479D01*
X209136066Y-148484479D01*
X208900663Y-148505074D01*
X208900653Y-148505076D01*
X208672411Y-148566232D01*
X208672402Y-148566236D01*
X208458238Y-148666102D01*
X208458236Y-148666103D01*
X208264664Y-148801643D01*
X208097572Y-148968735D01*
X207962032Y-149162307D01*
X207962031Y-149162309D01*
X207889437Y-149317988D01*
X207862234Y-149376326D01*
X207862165Y-149376473D01*
X207862161Y-149376482D01*
X207801005Y-149604724D01*
X207801003Y-149604734D01*
X207780408Y-149840137D01*
X207780408Y-149840139D01*
X207784174Y-149883185D01*
X207770407Y-149951685D01*
X207721792Y-150001868D01*
X207653764Y-150017801D01*
X207609134Y-150006786D01*
X207482476Y-149948942D01*
X207482471Y-149948941D01*
X207340016Y-149928461D01*
X207197560Y-149948941D01*
X207197556Y-149948942D01*
X207066645Y-150008728D01*
X207019950Y-150046357D01*
X205750181Y-151316129D01*
X205750172Y-151316139D01*
X205712556Y-151362815D01*
X205652769Y-151493729D01*
X205652768Y-151493733D01*
X205632288Y-151636189D01*
X156927904Y-151636189D01*
X156583664Y-151297912D01*
X156505243Y-151220849D01*
X156142702Y-150844782D01*
X155612916Y-150291468D01*
X155364946Y-150017801D01*
X155272547Y-149915827D01*
X154749469Y-149335103D01*
X154534490Y-149082580D01*
X154434941Y-148965645D01*
X153915782Y-148352724D01*
X153854150Y-148275623D01*
X153632414Y-147998232D01*
X153112590Y-147345199D01*
X152947342Y-147124840D01*
X152869956Y-147021646D01*
X152340697Y-146313533D01*
X152159262Y-146055332D01*
X151600776Y-145258624D01*
X151542083Y-145169355D01*
X150897405Y-144187371D01*
X150228269Y-143097150D01*
X150202380Y-143053494D01*
X150202017Y-143053005D01*
X150180579Y-143016907D01*
X150177486Y-143013391D01*
X150057221Y-142876656D01*
X150057220Y-142876655D01*
X150057219Y-142876654D01*
X149910031Y-142761657D01*
X149910027Y-142761655D01*
X149910024Y-142761653D01*
X149744101Y-142675890D01*
X149695489Y-142661336D01*
X154685045Y-142661336D01*
X154705525Y-142803791D01*
X154705526Y-142803795D01*
X154765312Y-142934706D01*
X154765313Y-142934707D01*
X154765314Y-142934709D01*
X154802933Y-142981392D01*
X154802936Y-142981395D01*
X154802941Y-142981401D01*
X155890889Y-144069346D01*
X156072717Y-144251174D01*
X156072721Y-144251177D01*
X156072723Y-144251179D01*
X156119399Y-144288795D01*
X156250313Y-144348582D01*
X156250314Y-144348582D01*
X156250316Y-144348583D01*
X156392773Y-144369064D01*
X156535230Y-144348583D01*
X156661891Y-144290737D01*
X156731049Y-144280794D01*
X156794605Y-144309818D01*
X156832380Y-144368596D01*
X156836931Y-144414339D01*
X156833165Y-144457384D01*
X156833165Y-144457387D01*
X156853760Y-144692785D01*
X156853762Y-144692800D01*
X156914918Y-144921042D01*
X156914920Y-144921046D01*
X156914921Y-144921050D01*
X157012270Y-145129814D01*
X157014789Y-145135217D01*
X157014791Y-145135221D01*
X157101200Y-145258625D01*
X157150329Y-145328788D01*
X157317423Y-145495882D01*
X157365552Y-145529582D01*
X157510989Y-145631419D01*
X157510991Y-145631420D01*
X157510994Y-145631422D01*
X157725161Y-145731290D01*
X157953416Y-145792450D01*
X158127069Y-145807643D01*
X158188823Y-145813046D01*
X158188824Y-145813046D01*
X158188825Y-145813046D01*
X158250579Y-145807643D01*
X158424232Y-145792450D01*
X158524923Y-145765470D01*
X158594773Y-145767133D01*
X158652635Y-145806296D01*
X158680139Y-145870524D01*
X158676791Y-145917337D01*
X158649814Y-146018021D01*
X158649811Y-146018034D01*
X158629216Y-146253437D01*
X158629216Y-146253438D01*
X158649811Y-146488841D01*
X158649813Y-146488851D01*
X158710969Y-146717093D01*
X158710971Y-146717097D01*
X158710972Y-146717101D01*
X158785017Y-146875890D01*
X158810840Y-146931268D01*
X158810842Y-146931272D01*
X158819600Y-146943779D01*
X158946380Y-147124839D01*
X159113474Y-147291933D01*
X159165944Y-147328673D01*
X159307040Y-147427470D01*
X159307042Y-147427471D01*
X159307045Y-147427473D01*
X159521212Y-147527341D01*
X159749467Y-147588501D01*
X159937793Y-147604977D01*
X159984874Y-147609097D01*
X159984875Y-147609097D01*
X159984876Y-147609097D01*
X160024109Y-147605664D01*
X160220283Y-147588501D01*
X160321534Y-147561371D01*
X160391382Y-147563034D01*
X160449245Y-147602196D01*
X160476749Y-147666425D01*
X160473401Y-147713238D01*
X160446360Y-147814160D01*
X160446357Y-147814174D01*
X160425770Y-148049488D01*
X160425770Y-148049491D01*
X160446357Y-148284805D01*
X160446359Y-148284816D01*
X160507493Y-148512973D01*
X160507496Y-148512980D01*
X160607327Y-148727069D01*
X160607329Y-148727073D01*
X160665999Y-148810863D01*
X160666000Y-148810863D01*
X161297849Y-148179013D01*
X161321434Y-148259334D01*
X161399166Y-148380288D01*
X161507827Y-148474442D01*
X161638612Y-148534170D01*
X161648393Y-148535576D01*
X161019552Y-149164415D01*
X161103348Y-149223089D01*
X161317434Y-149322919D01*
X161317443Y-149322923D01*
X161545600Y-149384057D01*
X161545611Y-149384059D01*
X161780925Y-149404647D01*
X161780929Y-149404647D01*
X162016242Y-149384059D01*
X162016249Y-149384058D01*
X162117175Y-149357015D01*
X162187025Y-149358678D01*
X162244888Y-149397840D01*
X162272392Y-149462068D01*
X162269044Y-149508883D01*
X162241916Y-149610127D01*
X162241914Y-149610137D01*
X162221319Y-149845540D01*
X162221319Y-149845541D01*
X162241914Y-150080939D01*
X162241916Y-150080954D01*
X162303072Y-150309196D01*
X162303074Y-150309200D01*
X162303075Y-150309204D01*
X162400424Y-150517968D01*
X162402943Y-150523371D01*
X162402945Y-150523375D01*
X162499346Y-150661049D01*
X162538483Y-150716942D01*
X162705577Y-150884036D01*
X162802362Y-150951806D01*
X162899143Y-151019573D01*
X162899145Y-151019574D01*
X162899148Y-151019576D01*
X163113315Y-151119444D01*
X163341570Y-151180604D01*
X163515223Y-151195797D01*
X163576977Y-151201200D01*
X163576978Y-151201200D01*
X163576979Y-151201200D01*
X163638733Y-151195797D01*
X163812386Y-151180604D01*
X164040641Y-151119444D01*
X164254808Y-151019576D01*
X164448379Y-150884036D01*
X164615473Y-150716942D01*
X164751013Y-150523371D01*
X164850881Y-150309204D01*
X164912041Y-150080949D01*
X164915068Y-150046357D01*
X164932637Y-149845541D01*
X164932637Y-149845540D01*
X164912041Y-149610137D01*
X164912041Y-149610133D01*
X164855158Y-149397840D01*
X164850883Y-149381885D01*
X164850882Y-149381884D01*
X164850881Y-149381878D01*
X164751013Y-149167712D01*
X164748705Y-149164415D01*
X164615472Y-148974138D01*
X164448380Y-148807047D01*
X164448373Y-148807042D01*
X164440662Y-148801643D01*
X164334166Y-148727073D01*
X164254812Y-148671508D01*
X164254808Y-148671506D01*
X164138638Y-148617335D01*
X164040641Y-148571638D01*
X164040637Y-148571637D01*
X164040633Y-148571635D01*
X163812391Y-148510479D01*
X163812381Y-148510477D01*
X163576979Y-148489882D01*
X163576977Y-148489882D01*
X163341574Y-148510477D01*
X163341564Y-148510479D01*
X163240320Y-148537607D01*
X163170470Y-148535944D01*
X163112607Y-148496781D01*
X163085104Y-148432552D01*
X163088452Y-148385738D01*
X163115495Y-148284812D01*
X163115496Y-148284805D01*
X163136084Y-148049491D01*
X163136084Y-148049488D01*
X163115496Y-147814174D01*
X163115494Y-147814163D01*
X163054360Y-147586006D01*
X163054356Y-147585997D01*
X162954527Y-147371913D01*
X162954526Y-147371911D01*
X162895852Y-147288116D01*
X162895852Y-147288115D01*
X162264003Y-147919965D01*
X162240420Y-147839646D01*
X162162688Y-147718692D01*
X162054027Y-147624538D01*
X161923242Y-147564810D01*
X161913459Y-147563403D01*
X162542300Y-146934563D01*
X162542300Y-146934562D01*
X162458510Y-146875892D01*
X162458506Y-146875890D01*
X162244419Y-146776060D01*
X162244410Y-146776056D01*
X162016253Y-146714922D01*
X162016242Y-146714920D01*
X161780929Y-146694333D01*
X161780925Y-146694333D01*
X161545611Y-146714920D01*
X161545597Y-146714923D01*
X161444675Y-146741964D01*
X161374825Y-146740301D01*
X161316963Y-146701138D01*
X161289460Y-146636909D01*
X161292807Y-146590098D01*
X161319938Y-146488846D01*
X161340534Y-146253438D01*
X161319938Y-146018030D01*
X161258778Y-145789775D01*
X161158910Y-145575609D01*
X161155301Y-145570454D01*
X161023369Y-145382035D01*
X160856277Y-145214944D01*
X160856270Y-145214939D01*
X160662709Y-145079405D01*
X160662705Y-145079403D01*
X160558124Y-145030636D01*
X160448538Y-144979535D01*
X160448534Y-144979534D01*
X160448530Y-144979532D01*
X160220288Y-144918376D01*
X160220278Y-144918374D01*
X159984876Y-144897779D01*
X159984874Y-144897779D01*
X159749471Y-144918374D01*
X159749458Y-144918377D01*
X159648774Y-144945354D01*
X159578924Y-144943691D01*
X159521062Y-144904527D01*
X159493559Y-144840299D01*
X159496907Y-144793486D01*
X159498205Y-144788641D01*
X159523887Y-144692795D01*
X159544483Y-144457387D01*
X159523887Y-144221979D01*
X159462727Y-143993724D01*
X159362859Y-143779558D01*
X159359075Y-143774153D01*
X159227318Y-143585984D01*
X159060226Y-143418893D01*
X159060219Y-143418888D01*
X159052508Y-143413489D01*
X159021345Y-143391668D01*
X158866658Y-143283354D01*
X158866654Y-143283352D01*
X158652487Y-143183484D01*
X158652483Y-143183483D01*
X158652479Y-143183481D01*
X158424237Y-143122325D01*
X158424227Y-143122323D01*
X158188825Y-143101728D01*
X158188822Y-143101728D01*
X158145776Y-143105494D01*
X158077276Y-143091727D01*
X158027093Y-143043112D01*
X158011160Y-142975083D01*
X158022175Y-142930454D01*
X158038643Y-142894396D01*
X158080020Y-142803793D01*
X158100501Y-142661336D01*
X158080020Y-142518879D01*
X158072308Y-142501993D01*
X158020233Y-142387965D01*
X158020232Y-142387964D01*
X158020232Y-142387963D01*
X157982613Y-142341280D01*
X157982608Y-142341275D01*
X157982604Y-142341270D01*
X156712832Y-141071501D01*
X156712826Y-141071496D01*
X156712822Y-141071492D01*
X156666146Y-141033876D01*
X156535232Y-140974089D01*
X156535228Y-140974088D01*
X156392773Y-140953608D01*
X156250317Y-140974088D01*
X156250313Y-140974089D01*
X156119402Y-141033875D01*
X156072707Y-141071504D01*
X154802938Y-142341276D01*
X154802929Y-142341286D01*
X154765313Y-142387962D01*
X154705526Y-142518876D01*
X154705525Y-142518880D01*
X154685045Y-142661336D01*
X149695489Y-142661336D01*
X149565166Y-142622319D01*
X149565168Y-142622319D01*
X149481141Y-142613487D01*
X149379403Y-142602793D01*
X149379400Y-142602793D01*
X149379398Y-142602793D01*
X149193231Y-142617987D01*
X149013101Y-142667376D01*
X149013097Y-142667377D01*
X148929221Y-142708213D01*
X148929219Y-142708214D01*
X147111183Y-143594928D01*
X147106707Y-143595687D01*
X147067471Y-143616189D01*
X147064044Y-143617848D01*
X146880644Y-143699766D01*
X146786687Y-143741454D01*
X146779686Y-143744068D01*
X146614933Y-143794510D01*
X146486926Y-143832670D01*
X146479951Y-143834318D01*
X146316144Y-143863136D01*
X146178135Y-143885668D01*
X146171311Y-143886397D01*
X146007672Y-143894779D01*
X145865193Y-143899618D01*
X145858637Y-143899494D01*
X145696470Y-143887832D01*
X145553010Y-143874317D01*
X145546823Y-143873418D01*
X145388029Y-143842095D01*
X145246475Y-143810171D01*
X145240747Y-143808587D01*
X145152471Y-143779556D01*
X145087410Y-143758159D01*
X144950416Y-143708199D01*
X144945222Y-143706033D01*
X144821975Y-143647906D01*
X144799477Y-143637295D01*
X144717614Y-143594928D01*
X144669462Y-143570007D01*
X144664838Y-143567355D01*
X144528763Y-143481347D01*
X144408053Y-143397791D01*
X144404042Y-143394767D01*
X144336366Y-143339295D01*
X144280691Y-143293659D01*
X144278513Y-143291787D01*
X144269153Y-143283354D01*
X144257977Y-143273284D01*
X144170252Y-143194244D01*
X144166863Y-143190948D01*
X144056987Y-143075622D01*
X144054838Y-143073247D01*
X143959809Y-142962587D01*
X143957049Y-142959132D01*
X143938932Y-142934709D01*
X143862169Y-142831227D01*
X143860185Y-142828387D01*
X143860143Y-142828323D01*
X143780022Y-142706477D01*
X143777884Y-142702977D01*
X143721182Y-142602850D01*
X143699433Y-142564445D01*
X143697659Y-142561074D01*
X143633690Y-142429916D01*
X143632125Y-142426440D01*
X143604475Y-142359611D01*
X143571264Y-142279342D01*
X143569821Y-142275498D01*
X143566374Y-142265299D01*
X143523117Y-142137299D01*
X143522088Y-142133946D01*
X143479711Y-141980429D01*
X143478687Y-141976127D01*
X143450003Y-141833169D01*
X143449455Y-141830015D01*
X143446533Y-141810195D01*
X143426209Y-141672334D01*
X143425708Y-141667731D01*
X143415493Y-141522303D01*
X143415362Y-141519503D01*
X143412608Y-141401842D01*
X144252485Y-141401842D01*
X144260441Y-141502935D01*
X144260632Y-141507801D01*
X144260632Y-141531506D01*
X144264338Y-141554910D01*
X144264910Y-141559741D01*
X144270755Y-141633996D01*
X144272868Y-141660837D01*
X144272868Y-141660840D01*
X144272869Y-141660842D01*
X144296539Y-141759439D01*
X144297489Y-141764212D01*
X144301198Y-141787626D01*
X144308521Y-141810165D01*
X144309842Y-141814846D01*
X144333516Y-141913453D01*
X144359042Y-141975079D01*
X144372320Y-142007135D01*
X144374004Y-142011701D01*
X144381330Y-142034244D01*
X144381333Y-142034252D01*
X144392087Y-142055356D01*
X144394126Y-142059779D01*
X144432934Y-142153471D01*
X144485923Y-142239940D01*
X144488303Y-142244191D01*
X144499054Y-142265293D01*
X144499060Y-142265303D01*
X144512988Y-142284473D01*
X144515693Y-142288521D01*
X144568673Y-142374978D01*
X144568674Y-142374979D01*
X144568675Y-142374981D01*
X144568677Y-142374983D01*
X144634547Y-142452107D01*
X144637539Y-142455902D01*
X144651479Y-142475089D01*
X144668244Y-142491854D01*
X144671531Y-142495409D01*
X144737400Y-142572532D01*
X144795752Y-142622369D01*
X144814512Y-142638392D01*
X144818084Y-142641694D01*
X144834843Y-142658453D01*
X144854029Y-142672392D01*
X144857824Y-142675384D01*
X144934949Y-142741255D01*
X144934951Y-142741256D01*
X144934952Y-142741257D01*
X144934953Y-142741258D01*
X145021414Y-142794241D01*
X145025457Y-142796942D01*
X145044633Y-142810874D01*
X145065743Y-142821630D01*
X145065749Y-142821633D01*
X145069984Y-142824004D01*
X145130887Y-142861325D01*
X145156452Y-142876992D01*
X145156461Y-142876997D01*
X145250158Y-142915807D01*
X145254535Y-142917824D01*
X145275685Y-142928601D01*
X145298211Y-142935920D01*
X145298226Y-142935925D01*
X145302785Y-142937606D01*
X145396479Y-142976416D01*
X145396486Y-142976417D01*
X145396490Y-142976419D01*
X145416747Y-142981282D01*
X145495110Y-143000095D01*
X145499758Y-143001406D01*
X145508302Y-143004182D01*
X145522295Y-143008730D01*
X145522299Y-143008731D01*
X145522309Y-143008734D01*
X145545738Y-143012444D01*
X145550486Y-143013390D01*
X145649095Y-143037064D01*
X145750199Y-143045020D01*
X145755014Y-143045591D01*
X145778431Y-143049300D01*
X145802130Y-143049300D01*
X145806996Y-143049491D01*
X145815028Y-143050123D01*
X145908089Y-143057447D01*
X146001149Y-143050123D01*
X146009182Y-143049491D01*
X146014048Y-143049300D01*
X146037745Y-143049300D01*
X146037747Y-143049300D01*
X146061160Y-143045591D01*
X146065975Y-143045021D01*
X146167083Y-143037064D01*
X146265700Y-143013387D01*
X146270439Y-143012444D01*
X146293869Y-143008734D01*
X146316441Y-143001399D01*
X146321054Y-143000098D01*
X146399501Y-142981265D01*
X146419684Y-142976420D01*
X146419687Y-142976418D01*
X146419699Y-142976416D01*
X146513399Y-142937603D01*
X146517930Y-142935932D01*
X146540493Y-142928601D01*
X146561659Y-142917815D01*
X146565988Y-142915820D01*
X146659717Y-142876997D01*
X146659722Y-142876993D01*
X146659726Y-142876992D01*
X146680608Y-142864195D01*
X146746214Y-142823991D01*
X146750388Y-142821653D01*
X146771545Y-142810874D01*
X146790729Y-142796935D01*
X146794748Y-142794250D01*
X146881229Y-142741255D01*
X146958372Y-142675368D01*
X146962138Y-142672400D01*
X146981335Y-142658453D01*
X146998118Y-142641669D01*
X147001648Y-142638407D01*
X147078778Y-142572532D01*
X147144653Y-142495402D01*
X147147915Y-142491872D01*
X147164699Y-142475089D01*
X147178646Y-142455892D01*
X147181614Y-142452126D01*
X147247501Y-142374983D01*
X147300496Y-142288502D01*
X147303181Y-142284483D01*
X147317120Y-142265299D01*
X147327899Y-142244142D01*
X147330237Y-142239968D01*
X147372007Y-142171804D01*
X147383238Y-142153480D01*
X147383239Y-142153476D01*
X147383243Y-142153471D01*
X147422066Y-142059742D01*
X147424061Y-142055413D01*
X147434847Y-142034247D01*
X147442178Y-142011684D01*
X147443853Y-142007145D01*
X147482662Y-141913453D01*
X147506344Y-141814808D01*
X147507645Y-141810195D01*
X147514980Y-141787623D01*
X147518690Y-141764193D01*
X147519633Y-141759454D01*
X147543310Y-141660837D01*
X147551266Y-141559732D01*
X147551839Y-141554903D01*
X147555546Y-141531501D01*
X147556193Y-141498495D01*
X147556369Y-141494894D01*
X147563693Y-141401843D01*
X147556370Y-141308795D01*
X147556193Y-141305186D01*
X147555546Y-141272185D01*
X147551838Y-141248774D01*
X147551266Y-141243945D01*
X147548472Y-141208446D01*
X147543310Y-141142849D01*
X147519636Y-141044240D01*
X147518690Y-141039492D01*
X147514980Y-141016063D01*
X147514977Y-141016053D01*
X147514976Y-141016049D01*
X147507655Y-140993520D01*
X147506341Y-140988864D01*
X147482662Y-140890233D01*
X147443852Y-140796539D01*
X147442171Y-140791980D01*
X147437188Y-140776645D01*
X147434847Y-140769439D01*
X147424070Y-140748289D01*
X147422049Y-140743901D01*
X147383243Y-140650215D01*
X147330250Y-140563738D01*
X147327879Y-140559503D01*
X147317120Y-140538387D01*
X147303190Y-140519214D01*
X147300487Y-140515168D01*
X147247504Y-140428707D01*
X147247503Y-140428706D01*
X147247502Y-140428705D01*
X147247501Y-140428703D01*
X147181630Y-140351578D01*
X147178638Y-140347783D01*
X147164699Y-140328597D01*
X147147944Y-140311842D01*
X147144638Y-140308266D01*
X147141718Y-140304847D01*
X147078778Y-140231154D01*
X147001655Y-140165285D01*
X146998097Y-140161995D01*
X146981335Y-140145233D01*
X146962148Y-140131293D01*
X146958353Y-140128301D01*
X146881229Y-140062431D01*
X146881227Y-140062429D01*
X146881225Y-140062428D01*
X146881224Y-140062427D01*
X146794767Y-140009447D01*
X146790719Y-140006742D01*
X146771549Y-139992814D01*
X146771539Y-139992808D01*
X146750437Y-139982057D01*
X146746186Y-139979677D01*
X146659717Y-139926688D01*
X146566025Y-139887880D01*
X146561610Y-139885844D01*
X146552494Y-139881199D01*
X146540498Y-139875087D01*
X146540490Y-139875084D01*
X146517947Y-139867758D01*
X146513381Y-139866074D01*
X146481325Y-139852796D01*
X146419699Y-139827270D01*
X146419693Y-139827268D01*
X146419692Y-139827268D01*
X146321096Y-139803597D01*
X146316411Y-139802275D01*
X146293872Y-139794952D01*
X146270458Y-139791243D01*
X146265685Y-139790293D01*
X146167088Y-139766623D01*
X146167089Y-139766623D01*
X146167086Y-139766622D01*
X146167083Y-139766622D01*
X146142893Y-139764718D01*
X146065987Y-139758664D01*
X146061156Y-139758092D01*
X146037752Y-139754386D01*
X146037747Y-139754386D01*
X146014048Y-139754386D01*
X146009182Y-139754195D01*
X145908089Y-139746239D01*
X145806996Y-139754195D01*
X145802130Y-139754386D01*
X145778432Y-139754386D01*
X145778431Y-139754386D01*
X145776376Y-139754711D01*
X145755022Y-139758092D01*
X145750191Y-139758664D01*
X145673284Y-139764718D01*
X145649095Y-139766622D01*
X145649091Y-139766622D01*
X145649089Y-139766623D01*
X145550493Y-139790293D01*
X145545720Y-139791243D01*
X145522311Y-139794951D01*
X145499777Y-139802273D01*
X145495091Y-139803594D01*
X145396484Y-139827268D01*
X145396472Y-139827272D01*
X145302792Y-139866076D01*
X145298224Y-139867761D01*
X145275694Y-139875081D01*
X145275679Y-139875087D01*
X145254569Y-139885844D01*
X145250147Y-139887882D01*
X145156468Y-139926685D01*
X145156465Y-139926687D01*
X145156463Y-139926688D01*
X145156461Y-139926689D01*
X145142337Y-139935343D01*
X145069998Y-139979671D01*
X145065754Y-139982048D01*
X145044630Y-139992813D01*
X145044629Y-139992814D01*
X145025460Y-140006740D01*
X145021413Y-140009444D01*
X144934951Y-140062428D01*
X144934947Y-140062431D01*
X144857843Y-140128284D01*
X144854021Y-140131297D01*
X144834849Y-140145227D01*
X144834839Y-140145236D01*
X144818078Y-140161995D01*
X144814506Y-140165297D01*
X144737399Y-140231153D01*
X144671543Y-140308260D01*
X144668241Y-140311832D01*
X144651482Y-140328593D01*
X144651473Y-140328603D01*
X144637543Y-140347775D01*
X144634530Y-140351597D01*
X144568677Y-140428701D01*
X144568674Y-140428705D01*
X144515690Y-140515167D01*
X144512986Y-140519214D01*
X144499060Y-140538383D01*
X144499059Y-140538384D01*
X144488294Y-140559508D01*
X144485917Y-140563752D01*
X144441589Y-140636091D01*
X144432940Y-140650208D01*
X144432933Y-140650219D01*
X144432931Y-140650222D01*
X144394128Y-140743901D01*
X144392090Y-140748323D01*
X144381333Y-140769433D01*
X144381327Y-140769448D01*
X144374007Y-140791978D01*
X144372322Y-140796546D01*
X144333518Y-140890226D01*
X144333514Y-140890238D01*
X144309840Y-140988845D01*
X144308519Y-140993531D01*
X144301197Y-141016065D01*
X144297489Y-141039474D01*
X144296539Y-141044247D01*
X144272869Y-141142843D01*
X144272868Y-141142849D01*
X144272868Y-141142853D01*
X144264910Y-141243945D01*
X144264338Y-141248776D01*
X144260632Y-141272185D01*
X144260632Y-141295883D01*
X144260441Y-141300749D01*
X144252485Y-141401842D01*
X143412608Y-141401842D01*
X143411628Y-141359980D01*
X143411714Y-141355014D01*
X143420189Y-141208440D01*
X143436196Y-141048196D01*
X143436941Y-141043008D01*
X143463963Y-140899120D01*
X143499538Y-140741906D01*
X143501021Y-140736510D01*
X143545994Y-140597797D01*
X143600666Y-140445904D01*
X143602932Y-140440442D01*
X143664913Y-140309266D01*
X143738020Y-140164795D01*
X143741108Y-140159387D01*
X143818773Y-140038033D01*
X143837974Y-140009444D01*
X143909460Y-139903006D01*
X143913361Y-139897815D01*
X144004851Y-139788570D01*
X144112284Y-139664685D01*
X144117024Y-139659794D01*
X144219674Y-139564981D01*
X144343335Y-139453548D01*
X144348881Y-139449103D01*
X144457698Y-139371770D01*
X144598993Y-139272919D01*
X144605312Y-139269043D01*
X144705053Y-139215874D01*
X144872536Y-139127077D01*
X144876058Y-139125351D01*
X144909938Y-139110056D01*
X144920164Y-139103809D01*
X146692727Y-138239273D01*
X146692890Y-138239245D01*
X146738564Y-138216931D01*
X146738565Y-138216932D01*
X146822481Y-138175935D01*
X146972311Y-138064393D01*
X147098906Y-137927046D01*
X147197890Y-137768639D01*
X147243808Y-137651067D01*
X147265842Y-137594652D01*
X147265842Y-137594651D01*
X147265845Y-137594638D01*
X147300416Y-137411086D01*
X147300414Y-137224296D01*
X147265838Y-137040734D01*
X147255858Y-137015133D01*
X147255845Y-137014975D01*
X147231920Y-136953714D01*
X147135790Y-136696319D01*
X146949370Y-136197166D01*
X146791220Y-135772901D01*
X146562248Y-135099246D01*
X146381316Y-134563659D01*
X146179106Y-133904975D01*
X146008336Y-133342486D01*
X145889474Y-132909764D01*
X145828380Y-132687350D01*
X145672665Y-132110665D01*
X145513514Y-131455456D01*
X145374570Y-130869185D01*
X145235648Y-130212579D01*
X145114339Y-129619245D01*
X144995432Y-128960996D01*
X144892213Y-128362010D01*
X144793182Y-127701978D01*
X144793172Y-127701910D01*
X144708408Y-127098763D01*
X144629176Y-126436903D01*
X144624881Y-126397504D01*
X144563060Y-125830457D01*
X144532463Y-125488962D01*
X148973021Y-125488962D01*
X148993616Y-125724365D01*
X148993618Y-125724375D01*
X149054774Y-125952617D01*
X149054776Y-125952621D01*
X149054777Y-125952625D01*
X149098168Y-126045676D01*
X149154645Y-126166792D01*
X149154647Y-126166796D01*
X149233670Y-126279651D01*
X149290185Y-126360363D01*
X149457279Y-126527457D01*
X149519712Y-126571173D01*
X149650845Y-126662994D01*
X149650847Y-126662995D01*
X149650850Y-126662997D01*
X149865017Y-126762865D01*
X150093272Y-126824025D01*
X150281598Y-126840501D01*
X150328679Y-126844621D01*
X150328680Y-126844621D01*
X150328681Y-126844621D01*
X150367914Y-126841188D01*
X150564088Y-126824025D01*
X150792343Y-126762865D01*
X151006510Y-126662997D01*
X151200081Y-126527457D01*
X151367175Y-126360363D01*
X151502715Y-126166792D01*
X151602583Y-125952625D01*
X151663743Y-125724370D01*
X151684339Y-125488962D01*
X151663743Y-125253554D01*
X151602583Y-125025299D01*
X151502715Y-124811133D01*
X151494727Y-124799724D01*
X151367174Y-124617559D01*
X151200082Y-124450468D01*
X151200081Y-124450467D01*
X151014085Y-124320231D01*
X150970461Y-124265654D01*
X150963268Y-124196155D01*
X150994790Y-124133801D01*
X151014085Y-124117081D01*
X151199762Y-123987067D01*
X151366785Y-123820044D01*
X151502280Y-123626540D01*
X151602109Y-123412454D01*
X151602112Y-123412448D01*
X151659316Y-123198962D01*
X150762366Y-123198962D01*
X150788173Y-123158806D01*
X150828680Y-123020851D01*
X150828680Y-122877073D01*
X150788173Y-122739118D01*
X150762366Y-122698962D01*
X151659316Y-122698962D01*
X151659315Y-122698961D01*
X151602112Y-122485475D01*
X151602109Y-122485469D01*
X151502280Y-122271384D01*
X151502279Y-122271382D01*
X151366793Y-122077888D01*
X151366788Y-122077882D01*
X151199758Y-121910852D01*
X151014085Y-121780841D01*
X150970460Y-121726264D01*
X150963268Y-121656766D01*
X150994790Y-121594411D01*
X151014086Y-121577692D01*
X151103090Y-121515371D01*
X157348866Y-121515371D01*
X157362497Y-122578511D01*
X157415083Y-123640437D01*
X157506553Y-124699722D01*
X157636785Y-125754944D01*
X157805603Y-126804683D01*
X158012781Y-127847530D01*
X158258040Y-128882084D01*
X158541050Y-129906953D01*
X158861432Y-130920762D01*
X159218755Y-131922147D01*
X159612539Y-132909764D01*
X160042254Y-133882285D01*
X160507323Y-134838404D01*
X161007122Y-135776836D01*
X161540979Y-136696319D01*
X162108176Y-137595620D01*
X162547912Y-138239274D01*
X162707951Y-138473527D01*
X163339498Y-139328863D01*
X164001970Y-140160478D01*
X164694475Y-140967255D01*
X165416083Y-141748110D01*
X166165825Y-142501993D01*
X166942693Y-143227892D01*
X167745644Y-143924830D01*
X168573597Y-144591872D01*
X169425442Y-145228122D01*
X170300032Y-145832724D01*
X171196194Y-146404866D01*
X172112723Y-146943779D01*
X173048387Y-147448739D01*
X174001930Y-147919068D01*
X174972069Y-148354134D01*
X175957502Y-148753352D01*
X176956904Y-149116185D01*
X177968933Y-149442146D01*
X178992228Y-149730798D01*
X180025414Y-149981752D01*
X181067104Y-150194671D01*
X182115898Y-150369268D01*
X183170386Y-150505311D01*
X184229152Y-150602614D01*
X185290772Y-150661049D01*
X186353821Y-150680536D01*
X187416870Y-150661049D01*
X188478490Y-150602614D01*
X189537256Y-150505311D01*
X190591744Y-150369268D01*
X191640538Y-150194671D01*
X192682228Y-149981752D01*
X193715414Y-149730798D01*
X194738709Y-149442146D01*
X195750738Y-149116185D01*
X196750140Y-148753352D01*
X197735573Y-148354134D01*
X198705712Y-147919068D01*
X199659255Y-147448739D01*
X200594919Y-146943779D01*
X201511448Y-146404866D01*
X202407610Y-145832724D01*
X203282200Y-145228122D01*
X204134045Y-144591872D01*
X204961998Y-143924830D01*
X205764949Y-143227892D01*
X206541817Y-142501993D01*
X207291559Y-141748110D01*
X207611554Y-141401842D01*
X225143949Y-141401842D01*
X225151905Y-141502935D01*
X225152096Y-141507801D01*
X225152096Y-141531506D01*
X225155802Y-141554910D01*
X225156374Y-141559741D01*
X225162219Y-141633996D01*
X225164332Y-141660837D01*
X225164332Y-141660840D01*
X225164333Y-141660842D01*
X225188003Y-141759439D01*
X225188953Y-141764212D01*
X225192662Y-141787626D01*
X225199985Y-141810165D01*
X225201306Y-141814846D01*
X225224980Y-141913453D01*
X225250506Y-141975079D01*
X225263784Y-142007135D01*
X225265468Y-142011701D01*
X225272794Y-142034244D01*
X225272797Y-142034252D01*
X225283551Y-142055356D01*
X225285590Y-142059779D01*
X225324398Y-142153471D01*
X225377387Y-142239940D01*
X225379767Y-142244191D01*
X225390518Y-142265293D01*
X225390524Y-142265303D01*
X225404452Y-142284473D01*
X225407157Y-142288521D01*
X225460137Y-142374978D01*
X225460138Y-142374979D01*
X225460139Y-142374981D01*
X225460141Y-142374983D01*
X225526011Y-142452107D01*
X225529003Y-142455902D01*
X225542943Y-142475089D01*
X225559708Y-142491854D01*
X225562995Y-142495409D01*
X225628864Y-142572532D01*
X225687216Y-142622369D01*
X225705976Y-142638392D01*
X225709548Y-142641694D01*
X225726307Y-142658453D01*
X225745493Y-142672392D01*
X225749288Y-142675384D01*
X225826413Y-142741255D01*
X225826415Y-142741256D01*
X225826416Y-142741257D01*
X225826417Y-142741258D01*
X225912878Y-142794241D01*
X225916921Y-142796942D01*
X225936097Y-142810874D01*
X225957207Y-142821630D01*
X225957213Y-142821633D01*
X225961448Y-142824004D01*
X226022351Y-142861325D01*
X226047916Y-142876992D01*
X226047925Y-142876997D01*
X226141622Y-142915807D01*
X226145999Y-142917824D01*
X226167149Y-142928601D01*
X226189675Y-142935920D01*
X226189690Y-142935925D01*
X226194249Y-142937606D01*
X226287943Y-142976416D01*
X226287950Y-142976417D01*
X226287954Y-142976419D01*
X226308211Y-142981282D01*
X226386574Y-143000095D01*
X226391222Y-143001406D01*
X226399766Y-143004182D01*
X226413759Y-143008730D01*
X226413763Y-143008731D01*
X226413773Y-143008734D01*
X226437202Y-143012444D01*
X226441950Y-143013390D01*
X226540559Y-143037064D01*
X226641663Y-143045020D01*
X226646478Y-143045591D01*
X226669895Y-143049300D01*
X226693594Y-143049300D01*
X226698460Y-143049491D01*
X226706492Y-143050123D01*
X226799553Y-143057447D01*
X226892613Y-143050123D01*
X226900646Y-143049491D01*
X226905512Y-143049300D01*
X226929209Y-143049300D01*
X226929211Y-143049300D01*
X226952624Y-143045591D01*
X226957439Y-143045021D01*
X227058547Y-143037064D01*
X227157164Y-143013387D01*
X227161903Y-143012444D01*
X227185333Y-143008734D01*
X227207905Y-143001399D01*
X227212518Y-143000098D01*
X227290965Y-142981265D01*
X227311148Y-142976420D01*
X227311151Y-142976418D01*
X227311163Y-142976416D01*
X227404863Y-142937603D01*
X227409394Y-142935932D01*
X227431957Y-142928601D01*
X227453123Y-142917815D01*
X227457452Y-142915820D01*
X227551181Y-142876997D01*
X227551186Y-142876993D01*
X227551190Y-142876992D01*
X227572072Y-142864195D01*
X227637678Y-142823991D01*
X227641852Y-142821653D01*
X227663009Y-142810874D01*
X227682193Y-142796935D01*
X227686212Y-142794250D01*
X227772693Y-142741255D01*
X227849836Y-142675368D01*
X227853602Y-142672400D01*
X227872799Y-142658453D01*
X227889582Y-142641669D01*
X227893112Y-142638407D01*
X227970242Y-142572532D01*
X228036117Y-142495402D01*
X228039379Y-142491872D01*
X228056163Y-142475089D01*
X228070110Y-142455892D01*
X228073078Y-142452126D01*
X228138965Y-142374983D01*
X228191960Y-142288502D01*
X228194645Y-142284483D01*
X228208584Y-142265299D01*
X228219363Y-142244142D01*
X228221701Y-142239968D01*
X228263471Y-142171804D01*
X228274702Y-142153480D01*
X228274703Y-142153476D01*
X228274707Y-142153471D01*
X228313530Y-142059742D01*
X228315525Y-142055413D01*
X228326311Y-142034247D01*
X228333642Y-142011684D01*
X228335317Y-142007145D01*
X228374126Y-141913453D01*
X228397808Y-141814808D01*
X228399109Y-141810195D01*
X228406444Y-141787623D01*
X228410154Y-141764193D01*
X228411097Y-141759454D01*
X228434774Y-141660837D01*
X228442730Y-141559732D01*
X228443303Y-141554903D01*
X228447010Y-141531501D01*
X228447657Y-141498495D01*
X228447833Y-141494894D01*
X228455157Y-141401843D01*
X228447834Y-141308795D01*
X228447657Y-141305186D01*
X228447010Y-141272185D01*
X228443302Y-141248774D01*
X228442730Y-141243945D01*
X228439936Y-141208446D01*
X228434774Y-141142849D01*
X228411100Y-141044240D01*
X228410154Y-141039492D01*
X228406444Y-141016063D01*
X228406441Y-141016053D01*
X228406440Y-141016049D01*
X228399119Y-140993520D01*
X228397805Y-140988864D01*
X228374126Y-140890233D01*
X228335316Y-140796539D01*
X228333635Y-140791980D01*
X228328652Y-140776645D01*
X228326311Y-140769439D01*
X228315534Y-140748289D01*
X228313513Y-140743901D01*
X228274707Y-140650215D01*
X228221714Y-140563738D01*
X228219343Y-140559503D01*
X228208584Y-140538387D01*
X228194654Y-140519214D01*
X228191951Y-140515168D01*
X228138968Y-140428707D01*
X228138967Y-140428706D01*
X228138966Y-140428705D01*
X228138965Y-140428703D01*
X228073094Y-140351578D01*
X228070102Y-140347783D01*
X228056163Y-140328597D01*
X228039408Y-140311842D01*
X228036102Y-140308266D01*
X228033182Y-140304847D01*
X227970242Y-140231154D01*
X227893119Y-140165285D01*
X227889561Y-140161995D01*
X227872799Y-140145233D01*
X227853612Y-140131293D01*
X227849817Y-140128301D01*
X227772693Y-140062431D01*
X227772691Y-140062429D01*
X227772689Y-140062428D01*
X227772688Y-140062427D01*
X227686231Y-140009447D01*
X227682183Y-140006742D01*
X227663013Y-139992814D01*
X227663003Y-139992808D01*
X227641901Y-139982057D01*
X227637650Y-139979677D01*
X227551181Y-139926688D01*
X227457489Y-139887880D01*
X227453074Y-139885844D01*
X227443958Y-139881199D01*
X227431962Y-139875087D01*
X227431954Y-139875084D01*
X227409411Y-139867758D01*
X227404845Y-139866074D01*
X227372789Y-139852796D01*
X227311163Y-139827270D01*
X227311157Y-139827268D01*
X227311156Y-139827268D01*
X227212560Y-139803597D01*
X227207875Y-139802275D01*
X227185336Y-139794952D01*
X227161922Y-139791243D01*
X227157149Y-139790293D01*
X227058552Y-139766623D01*
X227058553Y-139766623D01*
X227058550Y-139766622D01*
X227058547Y-139766622D01*
X227034357Y-139764718D01*
X226957451Y-139758664D01*
X226952620Y-139758092D01*
X226929216Y-139754386D01*
X226929211Y-139754386D01*
X226905512Y-139754386D01*
X226900646Y-139754195D01*
X226799553Y-139746239D01*
X226698460Y-139754195D01*
X226693594Y-139754386D01*
X226669896Y-139754386D01*
X226669895Y-139754386D01*
X226667840Y-139754711D01*
X226646486Y-139758092D01*
X226641655Y-139758664D01*
X226564748Y-139764718D01*
X226540559Y-139766622D01*
X226540555Y-139766622D01*
X226540553Y-139766623D01*
X226441957Y-139790293D01*
X226437184Y-139791243D01*
X226413775Y-139794951D01*
X226391241Y-139802273D01*
X226386555Y-139803594D01*
X226287948Y-139827268D01*
X226287936Y-139827272D01*
X226194256Y-139866076D01*
X226189688Y-139867761D01*
X226167158Y-139875081D01*
X226167143Y-139875087D01*
X226146033Y-139885844D01*
X226141611Y-139887882D01*
X226047932Y-139926685D01*
X226047929Y-139926687D01*
X226047927Y-139926688D01*
X226047925Y-139926689D01*
X226033801Y-139935343D01*
X225961462Y-139979671D01*
X225957218Y-139982048D01*
X225936094Y-139992813D01*
X225936093Y-139992814D01*
X225916924Y-140006740D01*
X225912877Y-140009444D01*
X225826415Y-140062428D01*
X225826411Y-140062431D01*
X225749307Y-140128284D01*
X225745485Y-140131297D01*
X225726313Y-140145227D01*
X225726303Y-140145236D01*
X225709542Y-140161995D01*
X225705970Y-140165297D01*
X225628863Y-140231153D01*
X225563007Y-140308260D01*
X225559705Y-140311832D01*
X225542946Y-140328593D01*
X225542937Y-140328603D01*
X225529007Y-140347775D01*
X225525994Y-140351597D01*
X225460141Y-140428701D01*
X225460138Y-140428705D01*
X225407154Y-140515167D01*
X225404450Y-140519214D01*
X225390524Y-140538383D01*
X225390523Y-140538384D01*
X225379758Y-140559508D01*
X225377381Y-140563752D01*
X225333053Y-140636091D01*
X225324404Y-140650208D01*
X225324397Y-140650219D01*
X225324395Y-140650222D01*
X225285592Y-140743901D01*
X225283554Y-140748323D01*
X225272797Y-140769433D01*
X225272791Y-140769448D01*
X225265471Y-140791978D01*
X225263786Y-140796546D01*
X225224982Y-140890226D01*
X225224978Y-140890238D01*
X225201304Y-140988845D01*
X225199983Y-140993531D01*
X225192661Y-141016065D01*
X225188953Y-141039474D01*
X225188003Y-141044247D01*
X225164333Y-141142843D01*
X225164332Y-141142849D01*
X225164332Y-141142853D01*
X225156374Y-141243945D01*
X225155802Y-141248776D01*
X225152096Y-141272185D01*
X225152096Y-141295883D01*
X225151905Y-141300749D01*
X225143949Y-141401842D01*
X207611554Y-141401842D01*
X208013167Y-140967255D01*
X208705672Y-140160478D01*
X209368144Y-139328863D01*
X209999691Y-138473527D01*
X210159730Y-138239274D01*
X210599466Y-137595620D01*
X211166663Y-136696319D01*
X211700520Y-135776836D01*
X212200319Y-134838404D01*
X212665388Y-133882285D01*
X213095103Y-132909764D01*
X213488887Y-131922147D01*
X213846210Y-130920762D01*
X214166592Y-129906953D01*
X214449602Y-128882084D01*
X214694861Y-127847530D01*
X214902039Y-126804683D01*
X215070857Y-125754944D01*
X215104627Y-125481320D01*
X221023303Y-125481320D01*
X221043898Y-125716723D01*
X221043900Y-125716733D01*
X221105056Y-125944975D01*
X221105058Y-125944979D01*
X221105059Y-125944983D01*
X221152013Y-126045676D01*
X221204927Y-126159150D01*
X221204929Y-126159154D01*
X221289303Y-126279651D01*
X221340463Y-126352716D01*
X221340468Y-126352722D01*
X221462392Y-126474646D01*
X221495877Y-126535969D01*
X221490893Y-126605661D01*
X221449021Y-126661594D01*
X221418045Y-126678509D01*
X221286631Y-126727523D01*
X221286626Y-126727526D01*
X221171417Y-126813772D01*
X221171414Y-126813775D01*
X221085168Y-126928984D01*
X221085164Y-126928991D01*
X221034870Y-127063837D01*
X221028463Y-127123436D01*
X221028463Y-127123443D01*
X221028462Y-127123455D01*
X221028462Y-128919190D01*
X221028463Y-128919196D01*
X221034870Y-128978803D01*
X221085164Y-129113648D01*
X221085168Y-129113655D01*
X221171414Y-129228864D01*
X221171417Y-129228867D01*
X221286626Y-129315113D01*
X221286633Y-129315117D01*
X221421479Y-129365411D01*
X221421478Y-129365411D01*
X221428406Y-129366155D01*
X221481089Y-129371820D01*
X223276834Y-129371819D01*
X223336445Y-129365411D01*
X223471293Y-129315116D01*
X223586508Y-129228866D01*
X223672758Y-129113651D01*
X223723053Y-128978803D01*
X223729462Y-128919193D01*
X223729461Y-127123448D01*
X223723053Y-127063837D01*
X223672758Y-126928989D01*
X223672757Y-126928988D01*
X223672755Y-126928984D01*
X223586509Y-126813775D01*
X223586506Y-126813772D01*
X223471297Y-126727526D01*
X223471290Y-126727522D01*
X223339879Y-126678509D01*
X223283945Y-126636638D01*
X223259528Y-126571173D01*
X223274380Y-126502900D01*
X223295525Y-126474652D01*
X223417457Y-126352721D01*
X223552997Y-126159150D01*
X223652865Y-125944983D01*
X223714025Y-125716728D01*
X223734621Y-125481320D01*
X223714025Y-125245912D01*
X223652865Y-125017657D01*
X223552997Y-124803491D01*
X223550360Y-124799724D01*
X223417456Y-124609917D01*
X223250364Y-124442826D01*
X223250358Y-124442821D01*
X223064804Y-124312895D01*
X223021179Y-124258318D01*
X223013985Y-124188820D01*
X223045508Y-124126465D01*
X223064804Y-124109745D01*
X223086988Y-124094211D01*
X223250363Y-123979815D01*
X223417457Y-123812721D01*
X223552997Y-123619150D01*
X223652865Y-123404983D01*
X223714025Y-123176728D01*
X223734621Y-122941320D01*
X223714025Y-122705912D01*
X223652865Y-122477657D01*
X223552997Y-122263491D01*
X223417457Y-122069919D01*
X223417456Y-122069917D01*
X223250364Y-121902826D01*
X223250363Y-121902825D01*
X223064367Y-121772589D01*
X223020743Y-121718012D01*
X223013550Y-121648513D01*
X223045072Y-121586159D01*
X223064367Y-121569439D01*
X223250044Y-121439425D01*
X223417067Y-121272402D01*
X223552562Y-121078898D01*
X223652391Y-120864812D01*
X223652394Y-120864806D01*
X223709598Y-120651320D01*
X222812648Y-120651320D01*
X222838455Y-120611164D01*
X222878962Y-120473209D01*
X222878962Y-120329431D01*
X222838455Y-120191476D01*
X222812648Y-120151320D01*
X223709598Y-120151320D01*
X223709597Y-120151319D01*
X223652394Y-119937833D01*
X223652391Y-119937827D01*
X223552562Y-119723742D01*
X223552561Y-119723740D01*
X223417075Y-119530246D01*
X223417070Y-119530240D01*
X223250040Y-119363210D01*
X223064367Y-119233199D01*
X223020742Y-119178622D01*
X223013550Y-119109124D01*
X223045072Y-119046769D01*
X223064368Y-119030050D01*
X223250363Y-118899815D01*
X223417457Y-118732721D01*
X223552997Y-118539150D01*
X223652865Y-118324983D01*
X223714025Y-118096728D01*
X223734621Y-117861320D01*
X223714025Y-117625912D01*
X223652865Y-117397657D01*
X223552997Y-117183491D01*
X223417457Y-116989919D01*
X223417456Y-116989917D01*
X223250364Y-116822826D01*
X223250357Y-116822821D01*
X223238206Y-116814313D01*
X223154202Y-116755492D01*
X223056796Y-116687287D01*
X223056792Y-116687285D01*
X223046192Y-116682342D01*
X222842625Y-116587417D01*
X222842621Y-116587416D01*
X222842617Y-116587414D01*
X222614375Y-116526258D01*
X222614365Y-116526256D01*
X222378963Y-116505661D01*
X222378961Y-116505661D01*
X222143558Y-116526256D01*
X222143548Y-116526258D01*
X221915306Y-116587414D01*
X221915297Y-116587418D01*
X221701133Y-116687284D01*
X221701131Y-116687285D01*
X221507559Y-116822825D01*
X221340467Y-116989917D01*
X221204927Y-117183489D01*
X221204926Y-117183491D01*
X221105060Y-117397655D01*
X221105056Y-117397664D01*
X221043900Y-117625906D01*
X221043898Y-117625916D01*
X221023303Y-117861319D01*
X221023303Y-117861320D01*
X221043898Y-118096723D01*
X221043900Y-118096733D01*
X221105056Y-118324975D01*
X221105058Y-118324979D01*
X221105059Y-118324983D01*
X221108774Y-118332949D01*
X221204927Y-118539150D01*
X221204929Y-118539154D01*
X221340463Y-118732715D01*
X221340468Y-118732722D01*
X221507559Y-118899813D01*
X221507565Y-118899818D01*
X221693556Y-119030050D01*
X221737181Y-119084627D01*
X221744375Y-119154125D01*
X221712852Y-119216480D01*
X221693557Y-119233200D01*
X221507884Y-119363210D01*
X221507882Y-119363211D01*
X221340853Y-119530240D01*
X221340848Y-119530246D01*
X221205362Y-119723740D01*
X221205361Y-119723742D01*
X221105532Y-119937827D01*
X221105529Y-119937833D01*
X221048326Y-120151319D01*
X221048326Y-120151320D01*
X221945276Y-120151320D01*
X221919469Y-120191476D01*
X221878962Y-120329431D01*
X221878962Y-120473209D01*
X221919469Y-120611164D01*
X221945276Y-120651320D01*
X221048326Y-120651320D01*
X221105529Y-120864806D01*
X221105532Y-120864812D01*
X221205361Y-121078898D01*
X221340856Y-121272402D01*
X221507879Y-121439425D01*
X221693557Y-121569439D01*
X221737181Y-121624016D01*
X221744374Y-121693515D01*
X221712852Y-121755869D01*
X221693557Y-121772589D01*
X221507556Y-121902828D01*
X221340467Y-122069917D01*
X221204927Y-122263489D01*
X221204926Y-122263491D01*
X221105060Y-122477655D01*
X221105056Y-122477664D01*
X221043900Y-122705906D01*
X221043898Y-122705916D01*
X221023303Y-122941319D01*
X221023303Y-122941320D01*
X221043898Y-123176723D01*
X221043900Y-123176733D01*
X221105056Y-123404975D01*
X221105058Y-123404979D01*
X221105059Y-123404983D01*
X221108543Y-123412454D01*
X221204927Y-123619150D01*
X221204929Y-123619154D01*
X221340463Y-123812715D01*
X221340468Y-123812722D01*
X221507559Y-123979813D01*
X221507565Y-123979818D01*
X221693120Y-124109745D01*
X221736745Y-124164322D01*
X221743939Y-124233820D01*
X221712416Y-124296175D01*
X221693120Y-124312895D01*
X221507559Y-124442825D01*
X221340467Y-124609917D01*
X221204927Y-124803489D01*
X221204926Y-124803491D01*
X221105060Y-125017655D01*
X221105056Y-125017664D01*
X221043900Y-125245906D01*
X221043898Y-125245916D01*
X221023303Y-125481319D01*
X221023303Y-125481320D01*
X215104627Y-125481320D01*
X215201089Y-124699722D01*
X215292559Y-123640437D01*
X215345145Y-122578511D01*
X215358776Y-121515371D01*
X215333434Y-120452445D01*
X215269152Y-119391163D01*
X215166018Y-118332949D01*
X215024169Y-117279227D01*
X214843797Y-116231411D01*
X214625144Y-115190909D01*
X214574723Y-114988239D01*
X214500657Y-114690525D01*
X214499545Y-114681107D01*
X214497551Y-114675059D01*
X214494171Y-114673026D01*
X214481025Y-114674641D01*
X158226616Y-114674641D01*
X158213475Y-114673026D01*
X158210178Y-114675004D01*
X158208208Y-114681014D01*
X158207107Y-114690025D01*
X158082498Y-115190909D01*
X157863845Y-116231411D01*
X157683473Y-117279227D01*
X157541624Y-118332949D01*
X157438490Y-119391163D01*
X157374208Y-120452445D01*
X157348866Y-121515371D01*
X151103090Y-121515371D01*
X151200081Y-121447457D01*
X151367175Y-121280363D01*
X151502715Y-121086792D01*
X151602583Y-120872625D01*
X151663743Y-120644370D01*
X151684339Y-120408962D01*
X151663743Y-120173554D01*
X151602583Y-119945299D01*
X151502715Y-119731133D01*
X151497539Y-119723740D01*
X151367174Y-119537559D01*
X151200082Y-119370468D01*
X151200076Y-119370463D01*
X151014522Y-119240537D01*
X150970897Y-119185960D01*
X150963703Y-119116462D01*
X150995226Y-119054107D01*
X151014522Y-119037387D01*
X151036706Y-119021853D01*
X151200081Y-118907457D01*
X151367175Y-118740363D01*
X151502715Y-118546792D01*
X151602583Y-118332625D01*
X151663743Y-118104370D01*
X151684339Y-117868962D01*
X151663743Y-117633554D01*
X151602583Y-117405299D01*
X151502715Y-117191133D01*
X151367175Y-116997561D01*
X151245247Y-116875633D01*
X151211764Y-116814313D01*
X151216748Y-116744621D01*
X151258619Y-116688687D01*
X151289595Y-116671772D01*
X151421011Y-116622758D01*
X151536226Y-116536508D01*
X151622476Y-116421293D01*
X151672771Y-116286445D01*
X151679180Y-116226835D01*
X151679179Y-114431090D01*
X151672771Y-114371479D01*
X151622476Y-114236631D01*
X151622475Y-114236630D01*
X151622473Y-114236626D01*
X151536227Y-114121417D01*
X151536224Y-114121414D01*
X151421015Y-114035168D01*
X151421008Y-114035164D01*
X151286162Y-113984870D01*
X151286163Y-113984870D01*
X151226563Y-113978463D01*
X151226561Y-113978462D01*
X151226553Y-113978462D01*
X151226544Y-113978462D01*
X149430809Y-113978462D01*
X149430803Y-113978463D01*
X149371196Y-113984870D01*
X149236351Y-114035164D01*
X149236344Y-114035168D01*
X149121135Y-114121414D01*
X149121132Y-114121417D01*
X149034886Y-114236626D01*
X149034882Y-114236633D01*
X148984588Y-114371479D01*
X148978181Y-114431078D01*
X148978181Y-114431085D01*
X148978180Y-114431097D01*
X148978180Y-116226832D01*
X148978181Y-116226838D01*
X148984588Y-116286445D01*
X149034882Y-116421290D01*
X149034886Y-116421297D01*
X149121132Y-116536506D01*
X149121135Y-116536509D01*
X149236344Y-116622755D01*
X149236351Y-116622759D01*
X149367761Y-116671772D01*
X149423695Y-116713643D01*
X149448112Y-116779107D01*
X149433260Y-116847380D01*
X149412110Y-116875635D01*
X149290183Y-116997562D01*
X149154645Y-117191131D01*
X149154644Y-117191133D01*
X149101731Y-117304606D01*
X149058342Y-117397655D01*
X149054778Y-117405297D01*
X149054774Y-117405306D01*
X148993618Y-117633548D01*
X148993616Y-117633558D01*
X148973021Y-117868961D01*
X148973021Y-117868962D01*
X148993616Y-118104365D01*
X148993618Y-118104375D01*
X149054774Y-118332617D01*
X149054776Y-118332621D01*
X149054777Y-118332625D01*
X149151081Y-118539150D01*
X149154645Y-118546792D01*
X149154647Y-118546796D01*
X149290181Y-118740357D01*
X149290186Y-118740364D01*
X149457277Y-118907455D01*
X149457283Y-118907460D01*
X149642838Y-119037387D01*
X149686463Y-119091964D01*
X149693657Y-119161462D01*
X149662134Y-119223817D01*
X149642838Y-119240537D01*
X149457277Y-119370467D01*
X149290185Y-119537559D01*
X149154645Y-119731131D01*
X149154644Y-119731133D01*
X149075285Y-119901320D01*
X149058259Y-119937833D01*
X149054778Y-119945297D01*
X149054774Y-119945306D01*
X148993618Y-120173548D01*
X148993616Y-120173558D01*
X148973021Y-120408961D01*
X148973021Y-120408962D01*
X148993616Y-120644365D01*
X148993618Y-120644375D01*
X149054774Y-120872617D01*
X149054776Y-120872621D01*
X149054777Y-120872625D01*
X149137018Y-121048991D01*
X149154645Y-121086792D01*
X149154647Y-121086796D01*
X149290181Y-121280357D01*
X149290186Y-121280364D01*
X149457277Y-121447455D01*
X149457283Y-121447460D01*
X149643274Y-121577692D01*
X149686899Y-121632269D01*
X149694093Y-121701767D01*
X149662570Y-121764122D01*
X149643275Y-121780842D01*
X149457602Y-121910852D01*
X149457600Y-121910853D01*
X149290571Y-122077882D01*
X149290566Y-122077888D01*
X149155080Y-122271382D01*
X149155079Y-122271384D01*
X149055250Y-122485469D01*
X149055247Y-122485475D01*
X148998044Y-122698961D01*
X148998044Y-122698962D01*
X149894994Y-122698962D01*
X149869187Y-122739118D01*
X149828680Y-122877073D01*
X149828680Y-123020851D01*
X149869187Y-123158806D01*
X149894994Y-123198962D01*
X148998044Y-123198962D01*
X149055247Y-123412448D01*
X149055250Y-123412454D01*
X149155079Y-123626540D01*
X149290574Y-123820044D01*
X149457597Y-123987067D01*
X149643275Y-124117081D01*
X149686899Y-124171658D01*
X149694092Y-124241157D01*
X149662570Y-124303511D01*
X149643275Y-124320231D01*
X149457274Y-124450470D01*
X149290185Y-124617559D01*
X149154645Y-124811131D01*
X149154644Y-124811133D01*
X149061081Y-125011778D01*
X149058342Y-125017655D01*
X149054778Y-125025297D01*
X149054774Y-125025306D01*
X148993618Y-125253548D01*
X148993616Y-125253558D01*
X148973021Y-125488961D01*
X148973021Y-125488962D01*
X144532463Y-125488962D01*
X144503647Y-125167341D01*
X144492013Y-125017655D01*
X144456312Y-124558324D01*
X144416703Y-123894211D01*
X144388270Y-123283729D01*
X144368462Y-122618909D01*
X144366392Y-122485469D01*
X144358979Y-122007606D01*
X144358979Y-121342675D01*
X144363535Y-121048991D01*
X144368462Y-120731361D01*
X144388269Y-120066573D01*
X144416706Y-119456018D01*
X144456314Y-118791918D01*
X144503651Y-118182893D01*
X144510686Y-118104375D01*
X144563056Y-117519867D01*
X144629188Y-116913275D01*
X144708401Y-116251569D01*
X144793167Y-115648400D01*
X144892224Y-114988191D01*
X144995432Y-114389285D01*
X145114348Y-113730988D01*
X145235644Y-113137721D01*
X145374573Y-112481082D01*
X145513490Y-111894923D01*
X145672668Y-111239604D01*
X145828347Y-110663055D01*
X146008348Y-110007749D01*
X146179142Y-109445187D01*
X146381306Y-108786653D01*
X146562399Y-108250590D01*
X146791214Y-107577396D01*
X146950076Y-107151224D01*
X147231702Y-106397145D01*
X147231927Y-106396570D01*
X147265844Y-106309551D01*
X147300417Y-106125990D01*
X147300417Y-106008966D01*
X199649500Y-106008966D01*
X199664936Y-106185403D01*
X199664938Y-106185413D01*
X199726094Y-106413655D01*
X199726096Y-106413659D01*
X199726097Y-106413663D01*
X199750000Y-106464922D01*
X199825964Y-106627828D01*
X199825965Y-106627830D01*
X199961505Y-106821402D01*
X200119003Y-106978899D01*
X200128599Y-106988495D01*
X200225384Y-107056265D01*
X200322165Y-107124032D01*
X200322167Y-107124033D01*
X200322170Y-107124035D01*
X200536337Y-107223903D01*
X200536343Y-107223904D01*
X200536344Y-107223905D01*
X200575356Y-107234358D01*
X200764592Y-107285063D01*
X200952918Y-107301539D01*
X200999999Y-107305659D01*
X201000000Y-107305659D01*
X201000001Y-107305659D01*
X201039234Y-107302226D01*
X201235408Y-107285063D01*
X201463663Y-107223903D01*
X201677829Y-107124035D01*
X201871401Y-106988495D01*
X202038495Y-106821401D01*
X202148426Y-106664401D01*
X202203001Y-106620778D01*
X202272500Y-106613584D01*
X202334855Y-106645106D01*
X202351571Y-106664398D01*
X202378383Y-106702690D01*
X202461506Y-106821403D01*
X202619003Y-106978899D01*
X202628599Y-106988495D01*
X202725384Y-107056265D01*
X202822165Y-107124032D01*
X202822167Y-107124033D01*
X202822170Y-107124035D01*
X203036337Y-107223903D01*
X203036343Y-107223904D01*
X203036344Y-107223905D01*
X203075356Y-107234358D01*
X203264592Y-107285063D01*
X203452918Y-107301539D01*
X203499999Y-107305659D01*
X203500000Y-107305659D01*
X203500001Y-107305659D01*
X203539234Y-107302226D01*
X203735408Y-107285063D01*
X203963663Y-107223903D01*
X204177829Y-107124035D01*
X204371401Y-106988495D01*
X204538495Y-106821401D01*
X204648426Y-106664401D01*
X204703001Y-106620778D01*
X204772500Y-106613584D01*
X204834855Y-106645106D01*
X204851571Y-106664398D01*
X204878383Y-106702690D01*
X204961506Y-106821403D01*
X205119003Y-106978899D01*
X205128599Y-106988495D01*
X205225384Y-107056265D01*
X205322165Y-107124032D01*
X205322167Y-107124033D01*
X205322170Y-107124035D01*
X205536337Y-107223903D01*
X205536343Y-107223904D01*
X205536344Y-107223905D01*
X205575356Y-107234358D01*
X205764592Y-107285063D01*
X205952918Y-107301539D01*
X205999999Y-107305659D01*
X206000000Y-107305659D01*
X206000001Y-107305659D01*
X206039234Y-107302226D01*
X206235408Y-107285063D01*
X206463663Y-107223903D01*
X206677829Y-107124035D01*
X206871401Y-106988495D01*
X207018965Y-106840930D01*
X207080287Y-106807447D01*
X207149978Y-106812431D01*
X207205912Y-106854302D01*
X207212183Y-106863516D01*
X207307680Y-107018340D01*
X207307683Y-107018344D01*
X207431654Y-107142315D01*
X207580875Y-107234356D01*
X207580880Y-107234358D01*
X207747302Y-107289505D01*
X207747309Y-107289506D01*
X207850019Y-107299999D01*
X208249999Y-107299999D01*
X208250000Y-107299998D01*
X208250000Y-106233018D01*
X208364801Y-106285446D01*
X208466025Y-106300000D01*
X208533975Y-106300000D01*
X208635199Y-106285446D01*
X208750000Y-106233018D01*
X208750000Y-107299999D01*
X209149972Y-107299999D01*
X209149986Y-107299998D01*
X209252697Y-107289505D01*
X209419119Y-107234358D01*
X209419124Y-107234356D01*
X209568345Y-107142315D01*
X209692315Y-107018345D01*
X209784356Y-106869124D01*
X209784358Y-106869119D01*
X209839505Y-106702697D01*
X209839506Y-106702690D01*
X209849999Y-106599986D01*
X209850000Y-106599973D01*
X209850000Y-106075000D01*
X208903969Y-106075000D01*
X208936519Y-106024351D01*
X208975000Y-105893295D01*
X208975000Y-105756705D01*
X208936519Y-105625649D01*
X208903969Y-105575000D01*
X209849999Y-105575000D01*
X209849999Y-105050028D01*
X209849998Y-105050013D01*
X209839505Y-104947302D01*
X209784358Y-104780880D01*
X209784356Y-104780875D01*
X209692315Y-104631654D01*
X209568345Y-104507684D01*
X209419124Y-104415643D01*
X209419119Y-104415641D01*
X209252697Y-104360494D01*
X209252690Y-104360493D01*
X209149986Y-104350000D01*
X208750000Y-104350000D01*
X208750000Y-105416981D01*
X208635199Y-105364554D01*
X208533975Y-105350000D01*
X208466025Y-105350000D01*
X208364801Y-105364554D01*
X208250000Y-105416981D01*
X208250000Y-104350000D01*
X207850028Y-104350000D01*
X207850012Y-104350001D01*
X207747302Y-104360494D01*
X207580880Y-104415641D01*
X207580875Y-104415643D01*
X207431654Y-104507684D01*
X207307683Y-104631655D01*
X207307680Y-104631659D01*
X207212183Y-104786483D01*
X207160235Y-104833208D01*
X207091272Y-104844429D01*
X207027190Y-104816586D01*
X207018964Y-104809068D01*
X206990771Y-104780875D01*
X206871401Y-104661505D01*
X206871397Y-104661502D01*
X206871396Y-104661501D01*
X206677834Y-104525967D01*
X206677830Y-104525965D01*
X206498204Y-104442204D01*
X206463663Y-104426097D01*
X206463659Y-104426096D01*
X206463655Y-104426094D01*
X206235413Y-104364938D01*
X206235404Y-104364936D01*
X206140993Y-104356676D01*
X206075925Y-104331223D01*
X206034947Y-104274632D01*
X206031070Y-104204870D01*
X206064119Y-104145469D01*
X208858826Y-101350765D01*
X208920149Y-101317280D01*
X208946507Y-101314446D01*
X214979111Y-101314446D01*
X215046150Y-101334131D01*
X215066792Y-101350765D01*
X215765560Y-102049531D01*
X215994813Y-102278784D01*
X215994817Y-102278787D01*
X215994819Y-102278789D01*
X216041495Y-102316405D01*
X216172409Y-102376192D01*
X216172410Y-102376192D01*
X216172412Y-102376193D01*
X216314869Y-102396674D01*
X216457326Y-102376193D01*
X216588242Y-102316405D01*
X216634925Y-102278786D01*
X216965272Y-101948438D01*
X225143949Y-101948438D01*
X225151905Y-102049531D01*
X225152096Y-102054397D01*
X225152096Y-102078102D01*
X225155802Y-102101506D01*
X225156374Y-102106337D01*
X225162219Y-102180592D01*
X225164332Y-102207433D01*
X225164332Y-102207436D01*
X225164333Y-102207438D01*
X225188003Y-102306035D01*
X225188953Y-102310808D01*
X225192662Y-102334222D01*
X225199985Y-102356761D01*
X225201307Y-102361446D01*
X225224527Y-102458163D01*
X225224980Y-102460049D01*
X225250506Y-102521675D01*
X225263784Y-102553731D01*
X225265468Y-102558297D01*
X225272794Y-102580840D01*
X225272797Y-102580848D01*
X225283551Y-102601952D01*
X225285590Y-102606375D01*
X225324398Y-102700067D01*
X225377387Y-102786536D01*
X225379767Y-102790787D01*
X225390518Y-102811889D01*
X225390524Y-102811899D01*
X225404452Y-102831069D01*
X225407157Y-102835117D01*
X225460137Y-102921574D01*
X225460138Y-102921575D01*
X225460139Y-102921577D01*
X225460141Y-102921579D01*
X225526011Y-102998703D01*
X225529003Y-103002498D01*
X225542943Y-103021685D01*
X225559708Y-103038450D01*
X225562995Y-103042005D01*
X225628864Y-103119128D01*
X225702557Y-103182068D01*
X225705976Y-103184988D01*
X225709548Y-103188290D01*
X225726307Y-103205049D01*
X225745493Y-103218988D01*
X225749288Y-103221980D01*
X225826413Y-103287851D01*
X225826415Y-103287852D01*
X225826416Y-103287853D01*
X225826417Y-103287854D01*
X225912878Y-103340837D01*
X225916921Y-103343538D01*
X225936097Y-103357470D01*
X225957207Y-103368226D01*
X225957213Y-103368229D01*
X225961448Y-103370600D01*
X226022351Y-103407921D01*
X226047916Y-103423588D01*
X226047925Y-103423593D01*
X226141622Y-103462403D01*
X226145999Y-103464420D01*
X226167149Y-103475197D01*
X226189675Y-103482516D01*
X226189690Y-103482521D01*
X226194249Y-103484202D01*
X226287943Y-103523012D01*
X226287950Y-103523013D01*
X226287954Y-103523015D01*
X226308211Y-103527878D01*
X226386574Y-103546691D01*
X226391222Y-103548002D01*
X226399766Y-103550778D01*
X226413759Y-103555326D01*
X226413763Y-103555327D01*
X226413773Y-103555330D01*
X226437202Y-103559040D01*
X226441950Y-103559986D01*
X226540559Y-103583660D01*
X226641663Y-103591616D01*
X226646478Y-103592187D01*
X226669895Y-103595896D01*
X226693594Y-103595896D01*
X226698460Y-103596087D01*
X226706492Y-103596719D01*
X226799553Y-103604043D01*
X226892613Y-103596719D01*
X226900646Y-103596087D01*
X226905512Y-103595896D01*
X226929209Y-103595896D01*
X226929211Y-103595896D01*
X226952624Y-103592187D01*
X226957439Y-103591617D01*
X227058547Y-103583660D01*
X227157164Y-103559983D01*
X227161903Y-103559040D01*
X227185333Y-103555330D01*
X227207905Y-103547995D01*
X227212518Y-103546694D01*
X227290965Y-103527861D01*
X227311148Y-103523016D01*
X227311151Y-103523014D01*
X227311163Y-103523012D01*
X227404863Y-103484199D01*
X227409394Y-103482528D01*
X227431957Y-103475197D01*
X227453123Y-103464411D01*
X227457452Y-103462416D01*
X227551181Y-103423593D01*
X227551186Y-103423589D01*
X227551190Y-103423588D01*
X227569514Y-103412357D01*
X227637678Y-103370587D01*
X227641852Y-103368249D01*
X227663009Y-103357470D01*
X227682193Y-103343531D01*
X227686212Y-103340846D01*
X227772693Y-103287851D01*
X227849836Y-103221964D01*
X227853602Y-103218996D01*
X227872799Y-103205049D01*
X227889582Y-103188265D01*
X227893112Y-103185003D01*
X227970242Y-103119128D01*
X228036117Y-103041998D01*
X228039379Y-103038468D01*
X228056163Y-103021685D01*
X228070110Y-103002488D01*
X228073078Y-102998722D01*
X228138965Y-102921579D01*
X228191960Y-102835098D01*
X228194645Y-102831079D01*
X228208584Y-102811895D01*
X228219363Y-102790738D01*
X228221701Y-102786564D01*
X228274076Y-102701097D01*
X228274702Y-102700076D01*
X228274703Y-102700072D01*
X228274707Y-102700067D01*
X228313530Y-102606338D01*
X228315525Y-102602009D01*
X228326311Y-102580843D01*
X228333642Y-102558280D01*
X228335317Y-102553741D01*
X228374126Y-102460049D01*
X228376265Y-102451142D01*
X228378975Y-102439851D01*
X228397808Y-102361404D01*
X228399109Y-102356791D01*
X228406444Y-102334219D01*
X228410154Y-102310789D01*
X228411097Y-102306050D01*
X228434774Y-102207433D01*
X228442730Y-102106328D01*
X228443303Y-102101499D01*
X228447010Y-102078097D01*
X228447657Y-102045091D01*
X228447833Y-102041490D01*
X228455157Y-101948439D01*
X228447834Y-101855391D01*
X228447657Y-101851782D01*
X228447010Y-101818781D01*
X228443302Y-101795370D01*
X228442730Y-101790541D01*
X228438479Y-101736529D01*
X228434774Y-101689445D01*
X228411100Y-101590836D01*
X228410154Y-101586088D01*
X228406444Y-101562659D01*
X228406441Y-101562649D01*
X228406440Y-101562645D01*
X228399119Y-101540116D01*
X228397805Y-101535460D01*
X228374126Y-101436829D01*
X228335316Y-101343135D01*
X228333635Y-101338576D01*
X228332191Y-101334131D01*
X228326311Y-101316035D01*
X228315534Y-101294885D01*
X228313513Y-101290497D01*
X228274707Y-101196811D01*
X228221714Y-101110334D01*
X228219343Y-101106099D01*
X228208584Y-101084983D01*
X228194654Y-101065810D01*
X228191951Y-101061764D01*
X228138968Y-100975303D01*
X228138967Y-100975302D01*
X228138966Y-100975301D01*
X228138965Y-100975299D01*
X228073094Y-100898174D01*
X228070102Y-100894379D01*
X228056163Y-100875193D01*
X228039408Y-100858438D01*
X228036102Y-100854862D01*
X228033182Y-100851443D01*
X227970242Y-100777750D01*
X227893119Y-100711881D01*
X227889561Y-100708591D01*
X227872799Y-100691829D01*
X227853612Y-100677889D01*
X227849817Y-100674897D01*
X227772693Y-100609027D01*
X227772691Y-100609025D01*
X227772689Y-100609024D01*
X227772688Y-100609023D01*
X227686231Y-100556043D01*
X227682183Y-100553338D01*
X227663013Y-100539410D01*
X227663003Y-100539404D01*
X227641901Y-100528653D01*
X227637650Y-100526273D01*
X227551181Y-100473284D01*
X227457489Y-100434476D01*
X227453074Y-100432440D01*
X227443958Y-100427795D01*
X227431962Y-100421683D01*
X227431954Y-100421680D01*
X227409411Y-100414354D01*
X227404845Y-100412670D01*
X227372789Y-100399392D01*
X227311163Y-100373866D01*
X227311157Y-100373864D01*
X227311156Y-100373864D01*
X227212560Y-100350193D01*
X227207875Y-100348871D01*
X227185336Y-100341548D01*
X227161922Y-100337839D01*
X227157149Y-100336889D01*
X227058552Y-100313219D01*
X227058553Y-100313219D01*
X227058550Y-100313218D01*
X227058547Y-100313218D01*
X227034357Y-100311314D01*
X226957451Y-100305260D01*
X226952620Y-100304688D01*
X226929216Y-100300982D01*
X226929211Y-100300982D01*
X226905512Y-100300982D01*
X226900646Y-100300791D01*
X226799553Y-100292835D01*
X226698460Y-100300791D01*
X226693594Y-100300982D01*
X226669896Y-100300982D01*
X226669895Y-100300982D01*
X226667840Y-100301307D01*
X226646486Y-100304688D01*
X226641655Y-100305260D01*
X226564748Y-100311314D01*
X226540559Y-100313218D01*
X226540555Y-100313218D01*
X226540553Y-100313219D01*
X226441957Y-100336889D01*
X226437184Y-100337839D01*
X226413775Y-100341547D01*
X226391241Y-100348869D01*
X226386555Y-100350190D01*
X226287948Y-100373864D01*
X226287936Y-100373868D01*
X226194256Y-100412672D01*
X226189688Y-100414357D01*
X226167158Y-100421677D01*
X226167143Y-100421683D01*
X226146033Y-100432440D01*
X226141611Y-100434478D01*
X226047932Y-100473281D01*
X226047929Y-100473283D01*
X226047927Y-100473284D01*
X226047925Y-100473285D01*
X226033801Y-100481939D01*
X225961462Y-100526267D01*
X225957218Y-100528644D01*
X225936094Y-100539409D01*
X225936093Y-100539410D01*
X225916924Y-100553336D01*
X225912877Y-100556040D01*
X225826415Y-100609024D01*
X225826411Y-100609027D01*
X225749307Y-100674880D01*
X225745485Y-100677893D01*
X225726313Y-100691823D01*
X225726303Y-100691832D01*
X225709542Y-100708591D01*
X225705970Y-100711893D01*
X225628863Y-100777749D01*
X225563007Y-100854856D01*
X225559705Y-100858428D01*
X225542946Y-100875189D01*
X225542937Y-100875199D01*
X225529007Y-100894371D01*
X225525994Y-100898193D01*
X225460141Y-100975297D01*
X225460138Y-100975301D01*
X225407154Y-101061763D01*
X225404450Y-101065810D01*
X225390524Y-101084979D01*
X225390523Y-101084980D01*
X225379758Y-101106104D01*
X225377381Y-101110348D01*
X225333053Y-101182687D01*
X225324404Y-101196804D01*
X225324397Y-101196815D01*
X225324395Y-101196818D01*
X225285592Y-101290497D01*
X225283554Y-101294919D01*
X225272797Y-101316029D01*
X225272791Y-101316044D01*
X225265471Y-101338574D01*
X225263786Y-101343142D01*
X225224982Y-101436822D01*
X225224978Y-101436834D01*
X225201304Y-101535441D01*
X225199983Y-101540127D01*
X225192661Y-101562661D01*
X225188953Y-101586070D01*
X225188003Y-101590843D01*
X225164333Y-101689439D01*
X225164332Y-101689445D01*
X225164332Y-101689449D01*
X225156374Y-101790541D01*
X225155802Y-101795372D01*
X225152096Y-101818781D01*
X225152096Y-101842479D01*
X225151905Y-101847345D01*
X225143949Y-101948438D01*
X216965272Y-101948438D01*
X217904707Y-101009002D01*
X217942328Y-100962319D01*
X218002116Y-100831403D01*
X218022597Y-100688946D01*
X218002116Y-100546489D01*
X217998880Y-100539404D01*
X217942329Y-100415575D01*
X217942328Y-100415574D01*
X217942328Y-100415573D01*
X217904709Y-100368890D01*
X217904704Y-100368885D01*
X217904700Y-100368880D01*
X216634928Y-99099111D01*
X216634922Y-99099106D01*
X216634918Y-99099102D01*
X216588242Y-99061486D01*
X216457328Y-99001699D01*
X216457324Y-99001698D01*
X216314869Y-98981218D01*
X216172413Y-99001698D01*
X216172405Y-99001700D01*
X216045749Y-99059543D01*
X215976591Y-99069487D01*
X215913035Y-99040462D01*
X215875261Y-98981684D01*
X215870710Y-98935944D01*
X215874477Y-98892895D01*
X215853881Y-98657487D01*
X215793285Y-98431337D01*
X215792723Y-98429239D01*
X215792722Y-98429238D01*
X215792721Y-98429232D01*
X215692853Y-98215066D01*
X215637027Y-98135337D01*
X215557312Y-98021492D01*
X215390220Y-97854401D01*
X215390213Y-97854396D01*
X215196652Y-97718862D01*
X215196648Y-97718860D01*
X215043616Y-97647500D01*
X214982481Y-97618992D01*
X214982477Y-97618991D01*
X214982473Y-97618989D01*
X214754231Y-97557833D01*
X214754221Y-97557831D01*
X214518819Y-97537236D01*
X214518817Y-97537236D01*
X214283414Y-97557831D01*
X214283401Y-97557834D01*
X214182717Y-97584811D01*
X214112867Y-97583148D01*
X214055005Y-97543984D01*
X214027502Y-97479756D01*
X214030850Y-97432943D01*
X214041420Y-97393495D01*
X214057830Y-97332252D01*
X214078426Y-97096844D01*
X214057830Y-96861436D01*
X213996670Y-96633181D01*
X213896802Y-96419015D01*
X213855756Y-96360394D01*
X213761261Y-96225441D01*
X213594169Y-96058350D01*
X213594162Y-96058345D01*
X213400601Y-95922811D01*
X213400597Y-95922809D01*
X213333101Y-95891335D01*
X213186430Y-95822941D01*
X213186426Y-95822940D01*
X213186422Y-95822938D01*
X212958180Y-95761782D01*
X212958170Y-95761780D01*
X212722768Y-95741185D01*
X212722766Y-95741185D01*
X212487363Y-95761780D01*
X212487350Y-95761783D01*
X212386107Y-95788910D01*
X212316257Y-95787247D01*
X212258395Y-95748084D01*
X212230892Y-95683855D01*
X212234240Y-95637041D01*
X212261283Y-95536114D01*
X212261284Y-95536107D01*
X212281872Y-95300793D01*
X212281872Y-95300790D01*
X212261284Y-95065476D01*
X212261282Y-95065465D01*
X212200148Y-94837308D01*
X212200144Y-94837299D01*
X212100315Y-94623215D01*
X212100314Y-94623213D01*
X212041640Y-94539418D01*
X212041640Y-94539417D01*
X211409791Y-95171267D01*
X211386208Y-95090948D01*
X211308476Y-94969994D01*
X211199815Y-94875840D01*
X211069030Y-94816112D01*
X211059247Y-94814705D01*
X211688088Y-94185865D01*
X211688088Y-94185864D01*
X211604298Y-94127194D01*
X211604294Y-94127192D01*
X211390207Y-94027362D01*
X211390198Y-94027358D01*
X211162041Y-93966224D01*
X211162030Y-93966222D01*
X210926717Y-93945635D01*
X210926713Y-93945635D01*
X210691399Y-93966222D01*
X210691388Y-93966224D01*
X210590465Y-93993266D01*
X210520615Y-93991603D01*
X210462752Y-93952440D01*
X210435249Y-93888211D01*
X210438596Y-93841402D01*
X210465727Y-93740149D01*
X210486323Y-93504741D01*
X210465727Y-93269333D01*
X210404567Y-93041078D01*
X210304699Y-92826912D01*
X210292930Y-92810103D01*
X210169158Y-92633338D01*
X210002066Y-92466247D01*
X210002059Y-92466242D01*
X209987353Y-92455945D01*
X209963185Y-92439022D01*
X209808498Y-92330708D01*
X209808494Y-92330706D01*
X209747423Y-92302228D01*
X209594327Y-92230838D01*
X209594323Y-92230837D01*
X209594319Y-92230835D01*
X209366077Y-92169679D01*
X209366067Y-92169677D01*
X209130665Y-92149082D01*
X209130663Y-92149082D01*
X208895260Y-92169677D01*
X208895250Y-92169679D01*
X208667008Y-92230835D01*
X208666999Y-92230839D01*
X208452835Y-92330705D01*
X208452833Y-92330706D01*
X208259261Y-92466246D01*
X208092169Y-92633338D01*
X207956629Y-92826910D01*
X207956628Y-92826912D01*
X207856762Y-93041076D01*
X207856758Y-93041085D01*
X207795602Y-93269327D01*
X207795600Y-93269337D01*
X207775005Y-93504740D01*
X207775005Y-93504741D01*
X207795600Y-93740144D01*
X207795602Y-93740154D01*
X207856758Y-93968396D01*
X207856760Y-93968400D01*
X207856761Y-93968404D01*
X207933122Y-94132160D01*
X207956629Y-94182571D01*
X207956631Y-94182575D01*
X208016237Y-94267700D01*
X208092169Y-94376142D01*
X208259263Y-94543236D01*
X208266984Y-94548642D01*
X208452829Y-94678773D01*
X208452831Y-94678774D01*
X208452834Y-94678776D01*
X208667001Y-94778644D01*
X208667007Y-94778645D01*
X208667008Y-94778646D01*
X208687173Y-94784049D01*
X208895256Y-94839804D01*
X209083582Y-94856280D01*
X209130663Y-94860400D01*
X209130664Y-94860400D01*
X209130665Y-94860400D01*
X209169898Y-94856967D01*
X209366072Y-94839804D01*
X209467323Y-94812674D01*
X209537170Y-94814337D01*
X209595033Y-94853499D01*
X209622537Y-94917728D01*
X209619189Y-94964542D01*
X209592147Y-95065465D01*
X209592145Y-95065476D01*
X209571558Y-95300790D01*
X209571558Y-95300793D01*
X209592145Y-95536107D01*
X209592147Y-95536118D01*
X209653281Y-95764275D01*
X209653285Y-95764284D01*
X209753115Y-95978371D01*
X209753117Y-95978375D01*
X209811787Y-96062165D01*
X209811788Y-96062165D01*
X210443637Y-95430315D01*
X210467222Y-95510636D01*
X210544954Y-95631590D01*
X210653615Y-95725744D01*
X210784400Y-95785472D01*
X210794181Y-95786878D01*
X210165340Y-96415717D01*
X210249136Y-96474391D01*
X210463222Y-96574221D01*
X210463231Y-96574225D01*
X210691388Y-96635359D01*
X210691399Y-96635361D01*
X210926713Y-96655949D01*
X210926717Y-96655949D01*
X211162030Y-96635361D01*
X211162037Y-96635360D01*
X211262964Y-96608317D01*
X211332814Y-96609980D01*
X211390677Y-96649142D01*
X211418181Y-96713371D01*
X211414833Y-96760184D01*
X211387706Y-96861427D01*
X211387703Y-96861440D01*
X211367108Y-97096843D01*
X211367108Y-97096844D01*
X211387703Y-97332247D01*
X211387705Y-97332257D01*
X211448861Y-97560499D01*
X211448863Y-97560503D01*
X211448864Y-97560507D01*
X211525225Y-97724263D01*
X211548732Y-97774674D01*
X211548734Y-97774678D01*
X211657048Y-97929365D01*
X211684272Y-97968245D01*
X211851366Y-98135339D01*
X211916471Y-98180926D01*
X212044932Y-98270876D01*
X212044934Y-98270877D01*
X212044937Y-98270879D01*
X212259104Y-98370747D01*
X212259110Y-98370748D01*
X212259111Y-98370749D01*
X212277514Y-98375680D01*
X212487359Y-98431907D01*
X212675685Y-98448383D01*
X212722766Y-98452503D01*
X212722767Y-98452503D01*
X212722768Y-98452503D01*
X212762001Y-98449070D01*
X212958175Y-98431907D01*
X213058866Y-98404927D01*
X213128716Y-98406590D01*
X213186578Y-98445753D01*
X213214082Y-98509981D01*
X213210734Y-98556794D01*
X213183757Y-98657478D01*
X213183754Y-98657491D01*
X213163159Y-98892894D01*
X213163159Y-98892895D01*
X213183754Y-99128298D01*
X213183756Y-99128308D01*
X213244912Y-99356550D01*
X213244914Y-99356554D01*
X213244915Y-99356558D01*
X213320194Y-99517994D01*
X213344783Y-99570725D01*
X213344785Y-99570729D01*
X213423080Y-99682545D01*
X213475559Y-99757493D01*
X213480319Y-99764290D01*
X213480324Y-99764297D01*
X213567792Y-99851765D01*
X213601277Y-99913088D01*
X213596293Y-99982780D01*
X213554421Y-100038713D01*
X213488957Y-100063130D01*
X213480111Y-100063446D01*
X208718791Y-100063446D01*
X208703174Y-100061722D01*
X208703147Y-100062008D01*
X208695385Y-100061273D01*
X208626257Y-100063446D01*
X208596704Y-100063446D01*
X208595983Y-100063536D01*
X208589811Y-100064315D01*
X208583999Y-100064772D01*
X208537427Y-100066236D01*
X208537426Y-100066236D01*
X208518183Y-100071827D01*
X208499133Y-100075771D01*
X208479265Y-100078280D01*
X208479263Y-100078281D01*
X208435938Y-100095434D01*
X208430411Y-100097326D01*
X208385664Y-100110327D01*
X208385663Y-100110328D01*
X208368421Y-100120525D01*
X208350953Y-100129083D01*
X208332323Y-100136459D01*
X208332321Y-100136460D01*
X208294630Y-100163844D01*
X208289748Y-100167051D01*
X208249633Y-100190776D01*
X208235462Y-100204946D01*
X208220677Y-100217574D01*
X208204466Y-100229353D01*
X208174763Y-100265256D01*
X208170831Y-100269577D01*
X204054230Y-104386177D01*
X203992907Y-104419662D01*
X203934456Y-104418271D01*
X203735413Y-104364938D01*
X203735403Y-104364936D01*
X203500001Y-104344341D01*
X203499999Y-104344341D01*
X203264596Y-104364936D01*
X203264586Y-104364938D01*
X203036344Y-104426094D01*
X203036335Y-104426098D01*
X202822171Y-104525964D01*
X202822169Y-104525965D01*
X202628597Y-104661505D01*
X202461505Y-104828597D01*
X202351575Y-104985595D01*
X202296998Y-105029220D01*
X202227500Y-105036414D01*
X202165145Y-105004891D01*
X202148425Y-104985595D01*
X202038494Y-104828597D01*
X201871402Y-104661506D01*
X201871395Y-104661501D01*
X201859017Y-104652834D01*
X201828769Y-104631654D01*
X201677834Y-104525967D01*
X201677830Y-104525965D01*
X201498204Y-104442204D01*
X201463663Y-104426097D01*
X201463659Y-104426096D01*
X201463655Y-104426094D01*
X201235413Y-104364938D01*
X201235403Y-104364936D01*
X201000001Y-104344341D01*
X200999999Y-104344341D01*
X200764596Y-104364936D01*
X200764586Y-104364938D01*
X200536344Y-104426094D01*
X200536335Y-104426098D01*
X200322171Y-104525964D01*
X200322169Y-104525965D01*
X200128597Y-104661505D01*
X199961505Y-104828597D01*
X199825965Y-105022169D01*
X199825964Y-105022171D01*
X199726098Y-105236335D01*
X199726094Y-105236344D01*
X199664938Y-105464586D01*
X199664936Y-105464596D01*
X199649500Y-105641034D01*
X199649500Y-106008966D01*
X147300417Y-106008966D01*
X147300417Y-105939200D01*
X147265841Y-105755639D01*
X147197886Y-105581649D01*
X147098901Y-105423244D01*
X147098898Y-105423240D01*
X147098897Y-105423239D01*
X146972306Y-105285900D01*
X146972257Y-105285863D01*
X146822474Y-105174359D01*
X146738648Y-105133405D01*
X146150190Y-104846395D01*
X144921247Y-104246999D01*
X144917831Y-104243884D01*
X144876929Y-104225326D01*
X144873518Y-104223649D01*
X144695929Y-104129498D01*
X144605380Y-104081206D01*
X144599009Y-104077298D01*
X144457827Y-103978527D01*
X144452864Y-103975000D01*
X177394341Y-103975000D01*
X177414936Y-104210403D01*
X177414938Y-104210413D01*
X177476094Y-104438655D01*
X177476096Y-104438659D01*
X177476097Y-104438663D01*
X177516807Y-104525965D01*
X177575965Y-104652830D01*
X177575967Y-104652834D01*
X177665623Y-104780875D01*
X177711505Y-104846401D01*
X177878599Y-105013495D01*
X177975384Y-105081265D01*
X178072165Y-105149032D01*
X178072167Y-105149033D01*
X178072170Y-105149035D01*
X178286337Y-105248903D01*
X178514592Y-105310063D01*
X178702918Y-105326539D01*
X178749999Y-105330659D01*
X178750000Y-105330659D01*
X178750001Y-105330659D01*
X178789234Y-105327226D01*
X178985408Y-105310063D01*
X179213663Y-105248903D01*
X179427830Y-105149035D01*
X179621401Y-105013495D01*
X179788495Y-104846401D01*
X179924035Y-104652830D01*
X180023903Y-104438663D01*
X180085063Y-104210408D01*
X180105659Y-103975000D01*
X180085063Y-103739592D01*
X180023903Y-103511337D01*
X179924035Y-103297171D01*
X179917512Y-103287854D01*
X179788494Y-103103597D01*
X179621402Y-102936506D01*
X179621396Y-102936501D01*
X179435842Y-102806575D01*
X179392217Y-102751998D01*
X179385023Y-102682500D01*
X179416546Y-102620145D01*
X179435842Y-102603425D01*
X179500291Y-102558297D01*
X179621401Y-102473495D01*
X179788495Y-102306401D01*
X179924035Y-102112830D01*
X180023903Y-101898663D01*
X180085063Y-101670408D01*
X180105659Y-101435000D01*
X180085063Y-101199592D01*
X180033993Y-101008995D01*
X180023905Y-100971344D01*
X180023904Y-100971343D01*
X180023903Y-100971337D01*
X179924035Y-100757171D01*
X179917271Y-100747510D01*
X179788494Y-100563597D01*
X179621402Y-100396506D01*
X179621396Y-100396501D01*
X179435842Y-100266575D01*
X179392217Y-100211998D01*
X179385023Y-100142500D01*
X179416546Y-100080145D01*
X179435842Y-100063425D01*
X179510908Y-100010863D01*
X179621401Y-99933495D01*
X179788495Y-99766401D01*
X179924035Y-99572830D01*
X180023903Y-99358663D01*
X180085063Y-99130408D01*
X180105659Y-98895000D01*
X180085063Y-98659592D01*
X180023903Y-98431337D01*
X179924035Y-98217171D01*
X179866735Y-98135337D01*
X179788494Y-98023597D01*
X179621402Y-97856506D01*
X179621396Y-97856501D01*
X179435842Y-97726575D01*
X179392217Y-97671998D01*
X179385023Y-97602500D01*
X179416546Y-97540145D01*
X179435842Y-97523425D01*
X179458026Y-97507891D01*
X179621401Y-97393495D01*
X179788495Y-97226401D01*
X179924035Y-97032830D01*
X180023903Y-96818663D01*
X180085063Y-96590408D01*
X180105659Y-96355000D01*
X180085063Y-96119592D01*
X180023903Y-95891337D01*
X179924035Y-95677171D01*
X179908053Y-95654345D01*
X179788494Y-95483597D01*
X179621402Y-95316506D01*
X179621396Y-95316501D01*
X179435842Y-95186575D01*
X179392217Y-95131998D01*
X179385023Y-95062500D01*
X179416546Y-95000145D01*
X179435842Y-94983425D01*
X179554635Y-94900245D01*
X179621401Y-94853495D01*
X179788495Y-94686401D01*
X179924035Y-94492830D01*
X180023903Y-94278663D01*
X180085063Y-94050408D01*
X180105659Y-93815000D01*
X180085063Y-93579592D01*
X180023903Y-93351337D01*
X179924035Y-93137171D01*
X179894041Y-93094334D01*
X179788494Y-92943597D01*
X179621402Y-92776506D01*
X179621396Y-92776501D01*
X179435842Y-92646575D01*
X179392217Y-92591998D01*
X179385023Y-92522500D01*
X179416546Y-92460145D01*
X179435842Y-92443425D01*
X179458026Y-92427891D01*
X179621401Y-92313495D01*
X179788495Y-92146401D01*
X179924035Y-91952830D01*
X180023903Y-91738663D01*
X180085063Y-91510408D01*
X180105659Y-91275000D01*
X180085063Y-91039592D01*
X180023903Y-90811337D01*
X179924035Y-90597171D01*
X179789833Y-90405509D01*
X179788494Y-90403597D01*
X179621402Y-90236506D01*
X179621396Y-90236501D01*
X179435842Y-90106575D01*
X179392217Y-90051998D01*
X179385023Y-89982500D01*
X179416546Y-89920145D01*
X179435842Y-89903425D01*
X179481665Y-89871339D01*
X179621401Y-89773495D01*
X179788495Y-89606401D01*
X179924035Y-89412830D01*
X180023903Y-89198663D01*
X180085063Y-88970408D01*
X180105659Y-88735000D01*
X180085063Y-88499592D01*
X180023903Y-88271337D01*
X179924035Y-88057171D01*
X179868296Y-87977566D01*
X179788494Y-87863597D01*
X179621402Y-87696506D01*
X179621395Y-87696501D01*
X179619808Y-87695390D01*
X179551896Y-87647837D01*
X179427834Y-87560967D01*
X179427830Y-87560965D01*
X179427828Y-87560964D01*
X179213663Y-87461097D01*
X179213659Y-87461096D01*
X179213655Y-87461094D01*
X178985413Y-87399938D01*
X178985403Y-87399936D01*
X178750001Y-87379341D01*
X178749999Y-87379341D01*
X178514596Y-87399936D01*
X178514586Y-87399938D01*
X178286344Y-87461094D01*
X178286335Y-87461098D01*
X178072171Y-87560964D01*
X178072169Y-87560965D01*
X177878597Y-87696505D01*
X177711505Y-87863597D01*
X177575965Y-88057169D01*
X177575964Y-88057171D01*
X177476098Y-88271335D01*
X177476094Y-88271344D01*
X177414938Y-88499586D01*
X177414936Y-88499596D01*
X177394341Y-88734999D01*
X177394341Y-88735000D01*
X177414936Y-88970403D01*
X177414938Y-88970413D01*
X177476094Y-89198655D01*
X177476096Y-89198659D01*
X177476097Y-89198663D01*
X177575965Y-89412830D01*
X177575967Y-89412834D01*
X177711501Y-89606395D01*
X177711506Y-89606402D01*
X177878597Y-89773493D01*
X177878603Y-89773498D01*
X178064158Y-89903425D01*
X178107783Y-89958002D01*
X178114977Y-90027500D01*
X178083454Y-90089855D01*
X178064158Y-90106575D01*
X177878597Y-90236505D01*
X177711505Y-90403597D01*
X177575965Y-90597169D01*
X177575964Y-90597171D01*
X177476098Y-90811335D01*
X177476094Y-90811344D01*
X177414938Y-91039586D01*
X177414936Y-91039596D01*
X177394341Y-91274999D01*
X177394341Y-91275000D01*
X177414936Y-91510403D01*
X177414938Y-91510413D01*
X177476094Y-91738655D01*
X177476096Y-91738659D01*
X177476097Y-91738663D01*
X177531068Y-91856548D01*
X177575965Y-91952830D01*
X177575967Y-91952834D01*
X177711501Y-92146395D01*
X177711506Y-92146402D01*
X177878597Y-92313493D01*
X177878603Y-92313498D01*
X178064158Y-92443425D01*
X178107783Y-92498002D01*
X178114977Y-92567500D01*
X178083454Y-92629855D01*
X178064158Y-92646575D01*
X177878597Y-92776505D01*
X177711505Y-92943597D01*
X177575965Y-93137169D01*
X177575964Y-93137171D01*
X177476098Y-93351335D01*
X177476094Y-93351344D01*
X177414938Y-93579586D01*
X177414936Y-93579596D01*
X177394341Y-93814999D01*
X177394341Y-93815000D01*
X177414936Y-94050403D01*
X177414938Y-94050413D01*
X177476094Y-94278655D01*
X177476096Y-94278659D01*
X177476097Y-94278663D01*
X177548902Y-94434794D01*
X177575965Y-94492830D01*
X177575967Y-94492834D01*
X177615045Y-94548642D01*
X177709948Y-94684178D01*
X177711501Y-94686395D01*
X177711506Y-94686402D01*
X177878597Y-94853493D01*
X177878603Y-94853498D01*
X178064158Y-94983425D01*
X178107783Y-95038002D01*
X178114977Y-95107500D01*
X178083454Y-95169855D01*
X178064158Y-95186575D01*
X177878597Y-95316505D01*
X177711505Y-95483597D01*
X177575965Y-95677169D01*
X177575964Y-95677171D01*
X177476098Y-95891335D01*
X177476094Y-95891344D01*
X177414938Y-96119586D01*
X177414936Y-96119596D01*
X177394341Y-96354999D01*
X177394341Y-96355000D01*
X177414936Y-96590403D01*
X177414938Y-96590413D01*
X177476094Y-96818655D01*
X177476096Y-96818659D01*
X177476097Y-96818663D01*
X177498600Y-96866920D01*
X177575965Y-97032830D01*
X177575967Y-97032834D01*
X177711501Y-97226395D01*
X177711506Y-97226402D01*
X177878597Y-97393493D01*
X177878603Y-97393498D01*
X178064158Y-97523425D01*
X178107783Y-97578002D01*
X178114977Y-97647500D01*
X178083454Y-97709855D01*
X178064158Y-97726575D01*
X177878597Y-97856505D01*
X177711505Y-98023597D01*
X177575965Y-98217169D01*
X177575964Y-98217171D01*
X177476098Y-98431335D01*
X177476094Y-98431344D01*
X177414938Y-98659586D01*
X177414936Y-98659596D01*
X177394341Y-98894999D01*
X177394341Y-98895000D01*
X177414936Y-99130403D01*
X177414938Y-99130413D01*
X177476094Y-99358655D01*
X177476096Y-99358659D01*
X177476097Y-99358663D01*
X177573965Y-99568541D01*
X177575965Y-99572830D01*
X177575967Y-99572834D01*
X177630314Y-99650449D01*
X177703434Y-99754875D01*
X177711501Y-99766395D01*
X177711506Y-99766402D01*
X177878597Y-99933493D01*
X177878603Y-99933498D01*
X178064158Y-100063425D01*
X178107783Y-100118002D01*
X178114977Y-100187500D01*
X178083454Y-100249855D01*
X178064158Y-100266575D01*
X177878597Y-100396505D01*
X177711505Y-100563597D01*
X177575965Y-100757169D01*
X177575964Y-100757171D01*
X177476098Y-100971335D01*
X177476094Y-100971344D01*
X177414938Y-101199586D01*
X177414936Y-101199596D01*
X177394341Y-101434999D01*
X177394341Y-101435000D01*
X177414936Y-101670403D01*
X177414938Y-101670413D01*
X177476094Y-101898655D01*
X177476096Y-101898659D01*
X177476097Y-101898663D01*
X177543676Y-102043586D01*
X177575965Y-102112830D01*
X177575967Y-102112834D01*
X177642210Y-102207438D01*
X177692162Y-102278777D01*
X177711501Y-102306395D01*
X177711506Y-102306402D01*
X177878597Y-102473493D01*
X177878603Y-102473498D01*
X178064158Y-102603425D01*
X178107783Y-102658002D01*
X178114977Y-102727500D01*
X178083454Y-102789855D01*
X178064158Y-102806575D01*
X177878597Y-102936505D01*
X177711505Y-103103597D01*
X177575965Y-103297169D01*
X177575964Y-103297171D01*
X177476098Y-103511335D01*
X177476094Y-103511344D01*
X177414938Y-103739586D01*
X177414936Y-103739596D01*
X177394341Y-103974999D01*
X177394341Y-103975000D01*
X144452864Y-103975000D01*
X144348928Y-103901138D01*
X144343335Y-103896655D01*
X144279628Y-103839249D01*
X144219758Y-103785300D01*
X144117070Y-103690454D01*
X144112295Y-103685527D01*
X144004918Y-103561710D01*
X143999571Y-103555326D01*
X143938594Y-103482516D01*
X143913400Y-103452433D01*
X143909461Y-103447190D01*
X143893612Y-103423593D01*
X143818811Y-103312222D01*
X143803216Y-103287854D01*
X143741133Y-103190847D01*
X143738040Y-103185431D01*
X143737813Y-103184983D01*
X143684486Y-103079601D01*
X143664958Y-103041011D01*
X143644961Y-102998690D01*
X143602958Y-102909797D01*
X143600685Y-102904320D01*
X143546019Y-102752445D01*
X143501043Y-102613725D01*
X143499561Y-102608332D01*
X143463984Y-102451109D01*
X143436969Y-102307259D01*
X143436219Y-102302036D01*
X143420212Y-102141810D01*
X143418537Y-102112830D01*
X143411736Y-101995213D01*
X143411650Y-101990254D01*
X143412629Y-101948438D01*
X144252485Y-101948438D01*
X144260441Y-102049531D01*
X144260632Y-102054397D01*
X144260632Y-102078102D01*
X144264338Y-102101506D01*
X144264910Y-102106337D01*
X144270755Y-102180592D01*
X144272868Y-102207433D01*
X144272868Y-102207436D01*
X144272869Y-102207438D01*
X144296539Y-102306035D01*
X144297489Y-102310808D01*
X144301198Y-102334222D01*
X144308521Y-102356761D01*
X144309843Y-102361446D01*
X144333063Y-102458163D01*
X144333516Y-102460049D01*
X144359042Y-102521675D01*
X144372320Y-102553731D01*
X144374004Y-102558297D01*
X144381330Y-102580840D01*
X144381333Y-102580848D01*
X144392087Y-102601952D01*
X144394126Y-102606375D01*
X144432934Y-102700067D01*
X144485923Y-102786536D01*
X144488303Y-102790787D01*
X144499054Y-102811889D01*
X144499060Y-102811899D01*
X144512988Y-102831069D01*
X144515693Y-102835117D01*
X144568673Y-102921574D01*
X144568674Y-102921575D01*
X144568675Y-102921577D01*
X144568677Y-102921579D01*
X144634547Y-102998703D01*
X144637539Y-103002498D01*
X144651479Y-103021685D01*
X144668244Y-103038450D01*
X144671531Y-103042005D01*
X144737400Y-103119128D01*
X144811093Y-103182068D01*
X144814512Y-103184988D01*
X144818084Y-103188290D01*
X144834843Y-103205049D01*
X144854029Y-103218988D01*
X144857824Y-103221980D01*
X144934949Y-103287851D01*
X144934951Y-103287852D01*
X144934952Y-103287853D01*
X144934953Y-103287854D01*
X145021414Y-103340837D01*
X145025457Y-103343538D01*
X145044633Y-103357470D01*
X145065743Y-103368226D01*
X145065749Y-103368229D01*
X145069984Y-103370600D01*
X145130887Y-103407921D01*
X145156452Y-103423588D01*
X145156461Y-103423593D01*
X145250158Y-103462403D01*
X145254535Y-103464420D01*
X145275685Y-103475197D01*
X145298211Y-103482516D01*
X145298226Y-103482521D01*
X145302785Y-103484202D01*
X145396479Y-103523012D01*
X145396486Y-103523013D01*
X145396490Y-103523015D01*
X145416747Y-103527878D01*
X145495110Y-103546691D01*
X145499758Y-103548002D01*
X145508302Y-103550778D01*
X145522295Y-103555326D01*
X145522299Y-103555327D01*
X145522309Y-103555330D01*
X145545738Y-103559040D01*
X145550486Y-103559986D01*
X145649095Y-103583660D01*
X145750199Y-103591616D01*
X145755014Y-103592187D01*
X145778431Y-103595896D01*
X145802130Y-103595896D01*
X145806996Y-103596087D01*
X145815028Y-103596719D01*
X145908089Y-103604043D01*
X146001149Y-103596719D01*
X146009182Y-103596087D01*
X146014048Y-103595896D01*
X146037745Y-103595896D01*
X146037747Y-103595896D01*
X146061160Y-103592187D01*
X146065975Y-103591617D01*
X146167083Y-103583660D01*
X146265700Y-103559983D01*
X146270439Y-103559040D01*
X146293869Y-103555330D01*
X146316441Y-103547995D01*
X146321054Y-103546694D01*
X146399501Y-103527861D01*
X146419684Y-103523016D01*
X146419687Y-103523014D01*
X146419699Y-103523012D01*
X146513399Y-103484199D01*
X146517930Y-103482528D01*
X146540493Y-103475197D01*
X146561659Y-103464411D01*
X146565988Y-103462416D01*
X146659717Y-103423593D01*
X146659722Y-103423589D01*
X146659726Y-103423588D01*
X146678050Y-103412357D01*
X146746214Y-103370587D01*
X146750388Y-103368249D01*
X146771545Y-103357470D01*
X146790729Y-103343531D01*
X146794748Y-103340846D01*
X146881229Y-103287851D01*
X146958372Y-103221964D01*
X146962138Y-103218996D01*
X146981335Y-103205049D01*
X146998118Y-103188265D01*
X147001648Y-103185003D01*
X147078778Y-103119128D01*
X147144653Y-103041998D01*
X147147915Y-103038468D01*
X147164699Y-103021685D01*
X147178646Y-103002488D01*
X147181614Y-102998722D01*
X147247501Y-102921579D01*
X147300496Y-102835098D01*
X147303181Y-102831079D01*
X147317120Y-102811895D01*
X147327899Y-102790738D01*
X147330237Y-102786564D01*
X147382612Y-102701097D01*
X147383238Y-102700076D01*
X147383239Y-102700072D01*
X147383243Y-102700067D01*
X147422066Y-102606338D01*
X147424061Y-102602009D01*
X147434847Y-102580843D01*
X147442178Y-102558280D01*
X147443853Y-102553741D01*
X147482662Y-102460049D01*
X147484801Y-102451142D01*
X147487511Y-102439851D01*
X147506344Y-102361404D01*
X147507645Y-102356791D01*
X147514980Y-102334219D01*
X147518690Y-102310789D01*
X147519633Y-102306050D01*
X147543310Y-102207433D01*
X147551266Y-102106328D01*
X147551839Y-102101499D01*
X147555546Y-102078097D01*
X147556193Y-102045091D01*
X147556369Y-102041490D01*
X147563693Y-101948439D01*
X147556370Y-101855391D01*
X147556193Y-101851782D01*
X147555546Y-101818781D01*
X147551838Y-101795370D01*
X147551266Y-101790541D01*
X147547015Y-101736529D01*
X147543310Y-101689445D01*
X147519636Y-101590836D01*
X147518690Y-101586088D01*
X147514980Y-101562659D01*
X147514977Y-101562649D01*
X147514976Y-101562645D01*
X147507655Y-101540116D01*
X147506341Y-101535460D01*
X147482662Y-101436829D01*
X147443852Y-101343135D01*
X147442171Y-101338576D01*
X147440727Y-101334131D01*
X147434847Y-101316035D01*
X147424070Y-101294885D01*
X147422049Y-101290497D01*
X147383243Y-101196811D01*
X147330250Y-101110334D01*
X147327879Y-101106099D01*
X147317120Y-101084983D01*
X147303190Y-101065810D01*
X147300487Y-101061764D01*
X147247504Y-100975303D01*
X147247503Y-100975302D01*
X147247502Y-100975301D01*
X147247501Y-100975299D01*
X147181630Y-100898174D01*
X147178638Y-100894379D01*
X147164699Y-100875193D01*
X147147944Y-100858438D01*
X147144638Y-100854862D01*
X147141718Y-100851443D01*
X147078778Y-100777750D01*
X147001655Y-100711881D01*
X146998097Y-100708591D01*
X146981335Y-100691829D01*
X146962148Y-100677889D01*
X146958353Y-100674897D01*
X146881229Y-100609027D01*
X146881227Y-100609025D01*
X146881225Y-100609024D01*
X146881224Y-100609023D01*
X146794767Y-100556043D01*
X146790719Y-100553338D01*
X146771549Y-100539410D01*
X146771539Y-100539404D01*
X146750437Y-100528653D01*
X146746186Y-100526273D01*
X146659717Y-100473284D01*
X146566025Y-100434476D01*
X146561610Y-100432440D01*
X146552494Y-100427795D01*
X146540498Y-100421683D01*
X146540490Y-100421680D01*
X146517947Y-100414354D01*
X146513381Y-100412670D01*
X146481325Y-100399392D01*
X146419699Y-100373866D01*
X146419693Y-100373864D01*
X146419692Y-100373864D01*
X146321096Y-100350193D01*
X146316411Y-100348871D01*
X146293872Y-100341548D01*
X146270458Y-100337839D01*
X146265685Y-100336889D01*
X146167088Y-100313219D01*
X146167089Y-100313219D01*
X146167086Y-100313218D01*
X146167083Y-100313218D01*
X146142893Y-100311314D01*
X146065987Y-100305260D01*
X146061156Y-100304688D01*
X146037752Y-100300982D01*
X146037747Y-100300982D01*
X146014048Y-100300982D01*
X146009182Y-100300791D01*
X145908089Y-100292835D01*
X145806996Y-100300791D01*
X145802130Y-100300982D01*
X145778432Y-100300982D01*
X145778431Y-100300982D01*
X145776376Y-100301307D01*
X145755022Y-100304688D01*
X145750191Y-100305260D01*
X145673284Y-100311314D01*
X145649095Y-100313218D01*
X145649091Y-100313218D01*
X145649089Y-100313219D01*
X145550493Y-100336889D01*
X145545720Y-100337839D01*
X145522311Y-100341547D01*
X145499777Y-100348869D01*
X145495091Y-100350190D01*
X145396484Y-100373864D01*
X145396472Y-100373868D01*
X145302792Y-100412672D01*
X145298224Y-100414357D01*
X145275694Y-100421677D01*
X145275679Y-100421683D01*
X145254569Y-100432440D01*
X145250147Y-100434478D01*
X145156468Y-100473281D01*
X145156465Y-100473283D01*
X145156463Y-100473284D01*
X145156461Y-100473285D01*
X145142337Y-100481939D01*
X145069998Y-100526267D01*
X145065754Y-100528644D01*
X145044630Y-100539409D01*
X145044629Y-100539410D01*
X145025460Y-100553336D01*
X145021413Y-100556040D01*
X144934951Y-100609024D01*
X144934947Y-100609027D01*
X144857843Y-100674880D01*
X144854021Y-100677893D01*
X144834849Y-100691823D01*
X144834839Y-100691832D01*
X144818078Y-100708591D01*
X144814506Y-100711893D01*
X144737399Y-100777749D01*
X144671543Y-100854856D01*
X144668241Y-100858428D01*
X144651482Y-100875189D01*
X144651473Y-100875199D01*
X144637543Y-100894371D01*
X144634530Y-100898193D01*
X144568677Y-100975297D01*
X144568674Y-100975301D01*
X144515690Y-101061763D01*
X144512986Y-101065810D01*
X144499060Y-101084979D01*
X144499059Y-101084980D01*
X144488294Y-101106104D01*
X144485917Y-101110348D01*
X144441589Y-101182687D01*
X144432940Y-101196804D01*
X144432933Y-101196815D01*
X144432931Y-101196818D01*
X144394128Y-101290497D01*
X144392090Y-101294919D01*
X144381333Y-101316029D01*
X144381327Y-101316044D01*
X144374007Y-101338574D01*
X144372322Y-101343142D01*
X144333518Y-101436822D01*
X144333514Y-101436834D01*
X144309840Y-101535441D01*
X144308519Y-101540127D01*
X144301197Y-101562661D01*
X144297489Y-101586070D01*
X144296539Y-101590843D01*
X144272869Y-101689439D01*
X144272868Y-101689445D01*
X144272868Y-101689449D01*
X144264910Y-101790541D01*
X144264338Y-101795372D01*
X144260632Y-101818781D01*
X144260632Y-101842479D01*
X144260441Y-101847345D01*
X144252485Y-101948438D01*
X143412629Y-101948438D01*
X143415384Y-101830762D01*
X143415514Y-101827964D01*
X143425731Y-101682510D01*
X143426234Y-101677882D01*
X143449480Y-101520197D01*
X143450011Y-101517147D01*
X143478716Y-101374082D01*
X143479730Y-101369821D01*
X143522117Y-101216272D01*
X143523117Y-101213011D01*
X143569857Y-101074705D01*
X143571273Y-101070933D01*
X143632165Y-100923763D01*
X143633682Y-100920391D01*
X143697707Y-100789120D01*
X143699429Y-100785848D01*
X143777911Y-100647261D01*
X143780022Y-100643805D01*
X143860231Y-100521825D01*
X143862166Y-100519055D01*
X143957095Y-100391086D01*
X143959821Y-100387672D01*
X144054854Y-100277010D01*
X144056990Y-100274650D01*
X144064393Y-100266880D01*
X144166901Y-100159287D01*
X144170265Y-100156015D01*
X144278571Y-100058435D01*
X144280677Y-100056625D01*
X144404083Y-99955472D01*
X144408033Y-99952494D01*
X144528767Y-99868921D01*
X144664875Y-99782893D01*
X144669474Y-99780257D01*
X144799478Y-99712974D01*
X144945235Y-99644231D01*
X144950402Y-99642076D01*
X145087426Y-99592105D01*
X145240788Y-99541670D01*
X145246454Y-99540103D01*
X145388042Y-99508172D01*
X145546860Y-99476845D01*
X145552988Y-99475954D01*
X145696463Y-99462439D01*
X145858671Y-99450774D01*
X145865190Y-99450651D01*
X146007642Y-99455491D01*
X146171350Y-99463877D01*
X146178132Y-99464603D01*
X146316052Y-99487121D01*
X146479976Y-99515960D01*
X146486912Y-99517598D01*
X146614798Y-99555724D01*
X146759038Y-99599887D01*
X146779706Y-99606216D01*
X146786707Y-99608830D01*
X146880501Y-99650449D01*
X147064023Y-99732422D01*
X147067452Y-99734081D01*
X147102079Y-99752174D01*
X147112194Y-99755845D01*
X148883921Y-100619974D01*
X148884100Y-100620138D01*
X148929116Y-100642054D01*
X148929116Y-100642055D01*
X149013088Y-100682939D01*
X149013090Y-100682939D01*
X149013091Y-100682940D01*
X149193221Y-100732329D01*
X149193224Y-100732329D01*
X149193230Y-100732331D01*
X149379402Y-100747526D01*
X149565170Y-100727999D01*
X149744113Y-100674424D01*
X149910048Y-100588654D01*
X150057241Y-100473652D01*
X150180603Y-100333393D01*
X150228293Y-100253091D01*
X150228294Y-100253091D01*
X150897405Y-99162911D01*
X151071125Y-98898298D01*
X156827762Y-98898298D01*
X156848357Y-99133696D01*
X156848359Y-99133711D01*
X156909515Y-99361953D01*
X156909517Y-99361957D01*
X156909518Y-99361961D01*
X156969480Y-99490549D01*
X157009386Y-99576128D01*
X157009388Y-99576132D01*
X157117702Y-99730819D01*
X157144926Y-99769699D01*
X157312020Y-99936793D01*
X157377696Y-99982780D01*
X157505586Y-100072330D01*
X157505588Y-100072331D01*
X157505591Y-100072333D01*
X157719758Y-100172201D01*
X157948013Y-100233361D01*
X158136339Y-100249837D01*
X158183420Y-100253957D01*
X158183421Y-100253957D01*
X158183422Y-100253957D01*
X158230306Y-100249855D01*
X158418829Y-100233361D01*
X158647084Y-100172201D01*
X158861251Y-100072333D01*
X159054822Y-99936793D01*
X159221916Y-99769699D01*
X159357456Y-99576128D01*
X159457324Y-99361961D01*
X159518484Y-99133706D01*
X159524803Y-99061487D01*
X159539080Y-98898298D01*
X159539080Y-98898297D01*
X159518484Y-98662894D01*
X159518484Y-98662890D01*
X159491354Y-98561638D01*
X159493017Y-98491791D01*
X159532179Y-98433928D01*
X159596408Y-98406424D01*
X159643223Y-98409772D01*
X159744149Y-98436815D01*
X159744156Y-98436816D01*
X159979470Y-98457404D01*
X159979474Y-98457404D01*
X160214787Y-98436816D01*
X160214798Y-98436814D01*
X160442955Y-98375680D01*
X160442964Y-98375676D01*
X160657050Y-98275847D01*
X160657054Y-98275845D01*
X160740845Y-98217173D01*
X160740845Y-98217172D01*
X160112005Y-97588333D01*
X160121787Y-97586927D01*
X160252572Y-97527199D01*
X160361233Y-97433045D01*
X160438965Y-97312091D01*
X160462548Y-97231771D01*
X161094397Y-97863620D01*
X161094398Y-97863620D01*
X161153070Y-97779829D01*
X161153072Y-97779825D01*
X161252903Y-97565737D01*
X161252905Y-97565730D01*
X161314039Y-97337573D01*
X161314041Y-97337562D01*
X161334629Y-97102248D01*
X161334629Y-97102245D01*
X161314041Y-96866931D01*
X161314039Y-96866920D01*
X161286997Y-96765996D01*
X161288660Y-96696146D01*
X161327823Y-96638284D01*
X161392051Y-96610780D01*
X161438863Y-96614127D01*
X161540116Y-96641258D01*
X161728442Y-96657734D01*
X161775523Y-96661854D01*
X161775524Y-96661854D01*
X161775525Y-96661854D01*
X161814758Y-96658421D01*
X162010932Y-96641258D01*
X162239187Y-96580098D01*
X162453354Y-96480230D01*
X162646925Y-96344690D01*
X162814019Y-96177596D01*
X162949559Y-95984025D01*
X163049427Y-95769858D01*
X163110587Y-95541603D01*
X163131183Y-95306195D01*
X163110587Y-95070787D01*
X163083607Y-94970095D01*
X163085270Y-94900245D01*
X163124433Y-94842383D01*
X163188661Y-94814879D01*
X163235475Y-94818227D01*
X163336167Y-94845207D01*
X163509820Y-94860400D01*
X163571574Y-94865803D01*
X163571575Y-94865803D01*
X163571576Y-94865803D01*
X163633330Y-94860400D01*
X163806983Y-94845207D01*
X164035238Y-94784047D01*
X164249405Y-94684179D01*
X164442976Y-94548639D01*
X164610070Y-94381545D01*
X164745610Y-94187974D01*
X164845478Y-93973807D01*
X164906638Y-93745552D01*
X164927234Y-93510144D01*
X164923467Y-93467095D01*
X164937233Y-93398598D01*
X164985847Y-93348415D01*
X165053875Y-93332480D01*
X165098507Y-93343495D01*
X165225166Y-93401339D01*
X165225167Y-93401339D01*
X165225169Y-93401340D01*
X165367626Y-93421821D01*
X165510083Y-93401340D01*
X165640999Y-93341552D01*
X165687682Y-93303933D01*
X166957464Y-92034149D01*
X166995085Y-91987466D01*
X167054873Y-91856550D01*
X167075354Y-91714093D01*
X167054873Y-91571636D01*
X166995085Y-91440720D01*
X166957466Y-91394037D01*
X166957461Y-91394032D01*
X166957457Y-91394027D01*
X165687685Y-90124258D01*
X165687679Y-90124253D01*
X165687675Y-90124249D01*
X165640999Y-90086633D01*
X165510085Y-90026846D01*
X165510081Y-90026845D01*
X165367626Y-90006365D01*
X165225170Y-90026845D01*
X165225166Y-90026846D01*
X165094255Y-90086632D01*
X165047560Y-90124261D01*
X163777791Y-91394033D01*
X163777782Y-91394043D01*
X163740166Y-91440719D01*
X163680379Y-91571633D01*
X163680378Y-91571637D01*
X163659898Y-91714093D01*
X163680378Y-91856548D01*
X163680379Y-91856553D01*
X163738223Y-91983211D01*
X163748167Y-92052370D01*
X163719142Y-92115926D01*
X163660364Y-92153700D01*
X163614622Y-92158251D01*
X163571577Y-92154485D01*
X163571574Y-92154485D01*
X163336171Y-92175080D01*
X163336161Y-92175082D01*
X163107919Y-92236238D01*
X163107910Y-92236242D01*
X162893746Y-92336108D01*
X162893744Y-92336109D01*
X162700172Y-92471649D01*
X162533080Y-92638741D01*
X162397540Y-92832313D01*
X162397539Y-92832315D01*
X162303976Y-93032960D01*
X162300192Y-93041078D01*
X162297673Y-93046479D01*
X162297669Y-93046488D01*
X162236513Y-93274730D01*
X162236511Y-93274740D01*
X162215916Y-93510143D01*
X162215916Y-93510144D01*
X162221991Y-93579586D01*
X162236512Y-93745552D01*
X162236513Y-93745558D01*
X162236514Y-93745560D01*
X162263491Y-93846244D01*
X162261828Y-93916094D01*
X162222665Y-93973956D01*
X162158436Y-94001459D01*
X162111624Y-93998111D01*
X162010940Y-93971134D01*
X162010936Y-93971133D01*
X162010932Y-93971132D01*
X162010930Y-93971131D01*
X162010927Y-93971131D01*
X161775525Y-93950536D01*
X161775523Y-93950536D01*
X161540120Y-93971131D01*
X161540110Y-93971133D01*
X161311868Y-94032289D01*
X161311859Y-94032293D01*
X161097695Y-94132159D01*
X161097693Y-94132160D01*
X160904121Y-94267700D01*
X160737029Y-94434792D01*
X160601489Y-94628364D01*
X160601488Y-94628366D01*
X160531412Y-94778646D01*
X160501691Y-94842383D01*
X160501622Y-94842530D01*
X160501618Y-94842539D01*
X160440462Y-95070781D01*
X160440460Y-95070791D01*
X160419865Y-95306194D01*
X160419865Y-95306195D01*
X160440460Y-95541598D01*
X160440462Y-95541608D01*
X160467590Y-95642853D01*
X160465927Y-95712703D01*
X160426764Y-95770566D01*
X160362535Y-95798069D01*
X160315722Y-95794721D01*
X160214798Y-95767679D01*
X160214787Y-95767677D01*
X159979474Y-95747090D01*
X159979470Y-95747090D01*
X159744156Y-95767677D01*
X159744145Y-95767679D01*
X159515988Y-95828813D01*
X159515979Y-95828817D01*
X159301891Y-95928648D01*
X159218097Y-95987319D01*
X159846938Y-96616160D01*
X159837157Y-96617567D01*
X159706372Y-96677295D01*
X159597711Y-96771449D01*
X159519979Y-96892403D01*
X159496395Y-96972723D01*
X158864544Y-96340872D01*
X158805873Y-96424666D01*
X158706042Y-96638754D01*
X158706038Y-96638763D01*
X158644904Y-96866920D01*
X158644902Y-96866931D01*
X158624315Y-97102245D01*
X158624315Y-97102248D01*
X158644902Y-97337562D01*
X158644904Y-97337573D01*
X158671946Y-97438496D01*
X158670283Y-97508346D01*
X158631120Y-97566208D01*
X158566891Y-97593712D01*
X158520078Y-97590364D01*
X158418834Y-97563236D01*
X158418824Y-97563234D01*
X158183422Y-97542639D01*
X158183420Y-97542639D01*
X157948017Y-97563234D01*
X157948007Y-97563236D01*
X157719765Y-97624392D01*
X157719756Y-97624396D01*
X157505592Y-97724262D01*
X157505590Y-97724263D01*
X157312018Y-97859803D01*
X157144926Y-98026895D01*
X157009386Y-98220467D01*
X157009385Y-98220469D01*
X156939309Y-98370749D01*
X156912038Y-98429232D01*
X156909519Y-98434633D01*
X156909515Y-98434642D01*
X156848359Y-98662884D01*
X156848357Y-98662894D01*
X156827762Y-98898297D01*
X156827762Y-98898298D01*
X151071125Y-98898298D01*
X151542265Y-98180649D01*
X151600763Y-98091674D01*
X152159436Y-97294701D01*
X152340694Y-97036752D01*
X152870412Y-96328025D01*
X153112578Y-96005097D01*
X153632625Y-95351784D01*
X153915762Y-94997580D01*
X154434977Y-94384592D01*
X154437578Y-94381539D01*
X154749466Y-94015181D01*
X155272708Y-93434276D01*
X155612906Y-93058823D01*
X156142748Y-92505450D01*
X156505222Y-92129452D01*
X157043213Y-91600781D01*
X157425668Y-91227844D01*
X157972521Y-90722263D01*
X158373318Y-90354913D01*
X158929523Y-89871253D01*
X159347285Y-89511468D01*
X159913137Y-89048913D01*
X160346632Y-88698318D01*
X160922216Y-88256352D01*
X161370484Y-87916178D01*
X161955689Y-87494518D01*
X162417807Y-87165836D01*
X163012416Y-86764330D01*
X163487655Y-86447969D01*
X164091472Y-86066489D01*
X164579001Y-85763264D01*
X164770988Y-85650000D01*
X181184341Y-85650000D01*
X181204936Y-85885403D01*
X181204938Y-85885413D01*
X181266094Y-86113655D01*
X181266096Y-86113659D01*
X181266097Y-86113663D01*
X181345801Y-86284588D01*
X181365965Y-86327830D01*
X181365967Y-86327834D01*
X181450065Y-86447937D01*
X181501505Y-86521401D01*
X181668599Y-86688495D01*
X181765384Y-86756265D01*
X181862165Y-86824032D01*
X181862167Y-86824033D01*
X181862170Y-86824035D01*
X182076337Y-86923903D01*
X182076343Y-86923904D01*
X182076344Y-86923905D01*
X182131285Y-86938626D01*
X182304592Y-86985063D01*
X182481034Y-87000500D01*
X182539999Y-87005659D01*
X182540000Y-87005659D01*
X182540001Y-87005659D01*
X182598966Y-87000500D01*
X182775408Y-86985063D01*
X183003663Y-86923903D01*
X183217830Y-86824035D01*
X183411401Y-86688495D01*
X183578495Y-86521401D01*
X183708730Y-86335405D01*
X183763307Y-86291781D01*
X183832805Y-86284587D01*
X183895160Y-86316110D01*
X183911879Y-86335405D01*
X184041890Y-86521078D01*
X184208917Y-86688105D01*
X184402421Y-86823600D01*
X184616507Y-86923429D01*
X184616516Y-86923433D01*
X184830000Y-86980634D01*
X184830000Y-86085501D01*
X184937685Y-86134680D01*
X185044237Y-86150000D01*
X185115763Y-86150000D01*
X185222315Y-86134680D01*
X185330000Y-86085501D01*
X185330000Y-86980633D01*
X185543483Y-86923433D01*
X185543492Y-86923429D01*
X185757578Y-86823600D01*
X185951082Y-86688105D01*
X186118105Y-86521082D01*
X186248119Y-86335405D01*
X186302696Y-86291781D01*
X186372195Y-86284588D01*
X186434549Y-86316110D01*
X186451269Y-86335405D01*
X186581505Y-86521401D01*
X186748599Y-86688495D01*
X186941624Y-86823653D01*
X186985248Y-86878228D01*
X186994500Y-86925226D01*
X186994500Y-92442255D01*
X186992775Y-92457872D01*
X186993061Y-92457899D01*
X186992326Y-92465665D01*
X186994500Y-92534814D01*
X186994500Y-92564343D01*
X186994501Y-92564360D01*
X186995368Y-92571231D01*
X186995826Y-92577050D01*
X186997290Y-92623624D01*
X186997291Y-92623627D01*
X187002880Y-92642867D01*
X187006824Y-92661911D01*
X187009336Y-92681791D01*
X187026490Y-92725119D01*
X187028382Y-92730647D01*
X187041382Y-92775390D01*
X187042041Y-92776505D01*
X187051580Y-92792634D01*
X187060138Y-92810103D01*
X187067514Y-92828732D01*
X187094898Y-92866423D01*
X187098106Y-92871307D01*
X187121827Y-92911416D01*
X187121833Y-92911424D01*
X187135990Y-92925580D01*
X187148628Y-92940376D01*
X187160405Y-92956586D01*
X187160406Y-92956587D01*
X187196309Y-92986288D01*
X187200620Y-92990210D01*
X191307252Y-97096843D01*
X192649761Y-98439352D01*
X192683246Y-98500675D01*
X192681855Y-98559124D01*
X192654937Y-98659589D01*
X192654937Y-98659590D01*
X192634341Y-98894999D01*
X192634341Y-98895000D01*
X192654936Y-99130403D01*
X192654938Y-99130413D01*
X192716094Y-99358655D01*
X192716096Y-99358659D01*
X192716097Y-99358663D01*
X192813965Y-99568541D01*
X192815965Y-99572830D01*
X192815967Y-99572834D01*
X192870314Y-99650449D01*
X192951505Y-99766401D01*
X193118599Y-99933495D01*
X193303737Y-100063130D01*
X193304594Y-100063730D01*
X193348218Y-100118307D01*
X193355411Y-100187806D01*
X193323889Y-100250160D01*
X193304593Y-100266880D01*
X193228626Y-100320072D01*
X193228625Y-100320072D01*
X193857466Y-100948913D01*
X193847685Y-100950320D01*
X193716900Y-101010048D01*
X193608239Y-101104202D01*
X193530507Y-101225156D01*
X193506923Y-101305476D01*
X192875072Y-100673625D01*
X192816401Y-100757419D01*
X192716570Y-100971507D01*
X192716566Y-100971516D01*
X192655432Y-101199673D01*
X192655430Y-101199684D01*
X192634843Y-101434998D01*
X192634843Y-101435001D01*
X192655430Y-101670315D01*
X192655432Y-101670326D01*
X192716566Y-101898483D01*
X192716570Y-101898492D01*
X192816400Y-102112579D01*
X192816402Y-102112583D01*
X192875072Y-102196373D01*
X192875073Y-102196373D01*
X193506923Y-101564523D01*
X193530507Y-101644844D01*
X193608239Y-101765798D01*
X193716900Y-101859952D01*
X193847685Y-101919680D01*
X193857466Y-101921086D01*
X193228625Y-102549925D01*
X193304594Y-102603119D01*
X193348219Y-102657696D01*
X193355413Y-102727194D01*
X193323890Y-102789549D01*
X193304595Y-102806269D01*
X193118594Y-102936508D01*
X192951505Y-103103597D01*
X192815965Y-103297169D01*
X192815964Y-103297171D01*
X192716098Y-103511335D01*
X192716094Y-103511344D01*
X192654938Y-103739586D01*
X192654936Y-103739596D01*
X192634341Y-103974999D01*
X192634341Y-103975000D01*
X192654936Y-104210403D01*
X192654938Y-104210413D01*
X192716094Y-104438655D01*
X192716096Y-104438659D01*
X192716097Y-104438663D01*
X192756807Y-104525965D01*
X192815965Y-104652830D01*
X192815967Y-104652834D01*
X192905623Y-104780875D01*
X192951505Y-104846401D01*
X193118599Y-105013495D01*
X193215384Y-105081265D01*
X193312165Y-105149032D01*
X193312167Y-105149033D01*
X193312170Y-105149035D01*
X193526337Y-105248903D01*
X193754592Y-105310063D01*
X193942918Y-105326539D01*
X193989999Y-105330659D01*
X193990000Y-105330659D01*
X193990001Y-105330659D01*
X194029234Y-105327226D01*
X194225408Y-105310063D01*
X194453663Y-105248903D01*
X194667830Y-105149035D01*
X194861401Y-105013495D01*
X195028495Y-104846401D01*
X195164035Y-104652830D01*
X195263903Y-104438663D01*
X195325063Y-104210408D01*
X195345659Y-103975000D01*
X195325063Y-103739592D01*
X195263903Y-103511337D01*
X195164035Y-103297171D01*
X195157512Y-103287854D01*
X195028494Y-103103597D01*
X194861402Y-102936506D01*
X194861401Y-102936505D01*
X194675405Y-102806269D01*
X194631781Y-102751692D01*
X194624588Y-102682193D01*
X194656110Y-102619839D01*
X194675405Y-102603119D01*
X194751373Y-102549925D01*
X194122533Y-101921086D01*
X194132315Y-101919680D01*
X194263100Y-101859952D01*
X194371761Y-101765798D01*
X194449493Y-101644844D01*
X194473076Y-101564524D01*
X195104925Y-102196373D01*
X195104926Y-102196373D01*
X195163598Y-102112582D01*
X195163600Y-102112578D01*
X195263429Y-101898492D01*
X195263433Y-101898483D01*
X195324567Y-101670326D01*
X195324569Y-101670315D01*
X195345157Y-101435001D01*
X195345157Y-101434998D01*
X195324569Y-101199684D01*
X195324567Y-101199673D01*
X195263433Y-100971516D01*
X195263429Y-100971507D01*
X195163600Y-100757423D01*
X195163599Y-100757421D01*
X195104925Y-100673626D01*
X195104925Y-100673625D01*
X194473076Y-101305475D01*
X194449493Y-101225156D01*
X194371761Y-101104202D01*
X194263100Y-101010048D01*
X194132315Y-100950320D01*
X194122533Y-100948913D01*
X194751373Y-100320073D01*
X194751373Y-100320072D01*
X194675405Y-100266880D01*
X194631780Y-100212304D01*
X194624586Y-100142805D01*
X194656108Y-100080451D01*
X194675399Y-100063734D01*
X194861401Y-99933495D01*
X195028495Y-99766401D01*
X195164035Y-99572830D01*
X195263903Y-99358663D01*
X195325063Y-99130408D01*
X195345659Y-98895000D01*
X195325063Y-98659592D01*
X195263903Y-98431337D01*
X195164035Y-98217171D01*
X195106735Y-98135337D01*
X195028494Y-98023597D01*
X194861402Y-97856506D01*
X194861396Y-97856501D01*
X194675842Y-97726575D01*
X194632217Y-97671998D01*
X194625023Y-97602500D01*
X194656546Y-97540145D01*
X194675842Y-97523425D01*
X194698026Y-97507891D01*
X194861401Y-97393495D01*
X195028495Y-97226401D01*
X195164035Y-97032830D01*
X195263903Y-96818663D01*
X195325063Y-96590408D01*
X195345659Y-96355000D01*
X195325063Y-96119592D01*
X195263903Y-95891337D01*
X195164035Y-95677171D01*
X195148053Y-95654345D01*
X195028494Y-95483597D01*
X194861402Y-95316506D01*
X194861396Y-95316501D01*
X194675842Y-95186575D01*
X194632217Y-95131998D01*
X194625023Y-95062500D01*
X194656546Y-95000145D01*
X194675842Y-94983425D01*
X194794635Y-94900245D01*
X194861401Y-94853495D01*
X195028495Y-94686401D01*
X195164035Y-94492830D01*
X195263903Y-94278663D01*
X195325063Y-94050408D01*
X195345659Y-93815000D01*
X195325063Y-93579592D01*
X195263903Y-93351337D01*
X195164035Y-93137171D01*
X195134041Y-93094334D01*
X195028494Y-92943597D01*
X194861402Y-92776506D01*
X194861396Y-92776501D01*
X194675842Y-92646575D01*
X194632217Y-92591998D01*
X194625023Y-92522500D01*
X194656546Y-92460145D01*
X194675842Y-92443425D01*
X194698026Y-92427891D01*
X194861401Y-92313495D01*
X195028495Y-92146401D01*
X195164035Y-91952830D01*
X195263903Y-91738663D01*
X195325063Y-91510408D01*
X195345659Y-91275000D01*
X195325063Y-91039592D01*
X195263903Y-90811337D01*
X195164035Y-90597171D01*
X195029833Y-90405509D01*
X195028494Y-90403597D01*
X194861402Y-90236506D01*
X194861396Y-90236501D01*
X194675842Y-90106575D01*
X194632217Y-90051998D01*
X194625023Y-89982500D01*
X194656546Y-89920145D01*
X194675842Y-89903425D01*
X194721665Y-89871339D01*
X194861401Y-89773495D01*
X195028495Y-89606401D01*
X195164035Y-89412830D01*
X195263903Y-89198663D01*
X195325063Y-88970408D01*
X195345659Y-88735000D01*
X195325063Y-88499592D01*
X195263903Y-88271337D01*
X195164035Y-88057171D01*
X195108296Y-87977566D01*
X195028494Y-87863597D01*
X194861402Y-87696506D01*
X194861395Y-87696501D01*
X194859808Y-87695390D01*
X194791896Y-87647837D01*
X194667834Y-87560967D01*
X194667830Y-87560965D01*
X194667828Y-87560964D01*
X194453663Y-87461097D01*
X194453659Y-87461096D01*
X194453655Y-87461094D01*
X194225413Y-87399938D01*
X194225403Y-87399936D01*
X193990001Y-87379341D01*
X193989999Y-87379341D01*
X193754596Y-87399936D01*
X193754586Y-87399938D01*
X193526344Y-87461094D01*
X193526335Y-87461098D01*
X193312171Y-87560964D01*
X193312169Y-87560965D01*
X193118597Y-87696505D01*
X192951505Y-87863597D01*
X192815965Y-88057169D01*
X192815964Y-88057171D01*
X192716098Y-88271335D01*
X192716094Y-88271344D01*
X192654938Y-88499586D01*
X192654936Y-88499596D01*
X192634341Y-88734999D01*
X192634341Y-88735388D01*
X192634292Y-88735553D01*
X192633869Y-88740394D01*
X192632896Y-88740308D01*
X192614656Y-88802427D01*
X192561852Y-88848182D01*
X192492694Y-88858126D01*
X192429138Y-88829101D01*
X192422660Y-88823069D01*
X190821819Y-87222228D01*
X190788334Y-87160905D01*
X190785500Y-87134547D01*
X190785500Y-86925226D01*
X190805185Y-86858187D01*
X190838374Y-86823654D01*
X191031401Y-86688495D01*
X191153329Y-86566566D01*
X191214648Y-86533084D01*
X191284340Y-86538068D01*
X191340274Y-86579939D01*
X191357189Y-86610917D01*
X191406202Y-86742328D01*
X191406206Y-86742335D01*
X191492452Y-86857544D01*
X191492455Y-86857547D01*
X191607664Y-86943793D01*
X191607671Y-86943797D01*
X191742517Y-86994091D01*
X191742516Y-86994091D01*
X191749444Y-86994835D01*
X191802127Y-87000500D01*
X193597872Y-87000499D01*
X193657483Y-86994091D01*
X193792331Y-86943796D01*
X193907546Y-86857546D01*
X193993796Y-86742331D01*
X194044091Y-86607483D01*
X194050500Y-86547873D01*
X194050499Y-84752128D01*
X194044091Y-84692517D01*
X194042810Y-84689083D01*
X193993797Y-84557671D01*
X193993793Y-84557664D01*
X193907547Y-84442455D01*
X193907544Y-84442452D01*
X193792335Y-84356206D01*
X193792328Y-84356202D01*
X193657482Y-84305908D01*
X193657483Y-84305908D01*
X193597883Y-84299501D01*
X193597881Y-84299500D01*
X193597873Y-84299500D01*
X193597864Y-84299500D01*
X191802129Y-84299500D01*
X191802123Y-84299501D01*
X191742516Y-84305908D01*
X191607671Y-84356202D01*
X191607664Y-84356206D01*
X191492455Y-84442452D01*
X191492452Y-84442455D01*
X191406206Y-84557664D01*
X191406203Y-84557669D01*
X191357189Y-84689083D01*
X191315317Y-84745016D01*
X191249853Y-84769433D01*
X191181580Y-84754581D01*
X191153326Y-84733430D01*
X191031402Y-84611506D01*
X191031395Y-84611501D01*
X190837834Y-84475967D01*
X190837830Y-84475965D01*
X190837828Y-84475964D01*
X190623663Y-84376097D01*
X190623659Y-84376096D01*
X190623655Y-84376094D01*
X190395413Y-84314938D01*
X190395403Y-84314936D01*
X190160001Y-84294341D01*
X190159999Y-84294341D01*
X189924596Y-84314936D01*
X189924586Y-84314938D01*
X189696344Y-84376094D01*
X189696335Y-84376098D01*
X189482171Y-84475964D01*
X189482169Y-84475965D01*
X189288597Y-84611505D01*
X189121505Y-84778597D01*
X188991575Y-84964158D01*
X188936998Y-85007783D01*
X188867500Y-85014977D01*
X188805145Y-84983454D01*
X188788425Y-84964158D01*
X188658494Y-84778597D01*
X188491402Y-84611506D01*
X188491395Y-84611501D01*
X188297834Y-84475967D01*
X188297830Y-84475965D01*
X188297828Y-84475964D01*
X188083663Y-84376097D01*
X188083659Y-84376096D01*
X188083655Y-84376094D01*
X187855413Y-84314938D01*
X187855403Y-84314936D01*
X187620001Y-84294341D01*
X187619999Y-84294341D01*
X187384596Y-84314936D01*
X187384586Y-84314938D01*
X187156344Y-84376094D01*
X187156335Y-84376098D01*
X186942171Y-84475964D01*
X186942169Y-84475965D01*
X186748597Y-84611505D01*
X186581508Y-84778594D01*
X186451269Y-84964595D01*
X186396692Y-85008219D01*
X186327193Y-85015412D01*
X186264839Y-84983890D01*
X186248119Y-84964594D01*
X186118113Y-84778926D01*
X186118108Y-84778920D01*
X185951082Y-84611894D01*
X185757578Y-84476399D01*
X185543492Y-84376570D01*
X185543486Y-84376567D01*
X185330000Y-84319364D01*
X185330000Y-85214498D01*
X185222315Y-85165320D01*
X185115763Y-85150000D01*
X185044237Y-85150000D01*
X184937685Y-85165320D01*
X184830000Y-85214498D01*
X184830000Y-84319364D01*
X184829999Y-84319364D01*
X184616513Y-84376567D01*
X184616507Y-84376570D01*
X184402422Y-84476399D01*
X184402420Y-84476400D01*
X184208926Y-84611886D01*
X184208920Y-84611891D01*
X184041891Y-84778920D01*
X184041890Y-84778922D01*
X183911880Y-84964595D01*
X183857303Y-85008219D01*
X183787804Y-85015412D01*
X183725450Y-84983890D01*
X183708730Y-84964594D01*
X183578494Y-84778597D01*
X183411402Y-84611506D01*
X183411395Y-84611501D01*
X183217834Y-84475967D01*
X183217830Y-84475965D01*
X183217828Y-84475964D01*
X183003663Y-84376097D01*
X183003659Y-84376096D01*
X183003655Y-84376094D01*
X182775413Y-84314938D01*
X182775403Y-84314936D01*
X182540001Y-84294341D01*
X182539999Y-84294341D01*
X182304596Y-84314936D01*
X182304586Y-84314938D01*
X182076344Y-84376094D01*
X182076335Y-84376098D01*
X181862171Y-84475964D01*
X181862169Y-84475965D01*
X181668597Y-84611505D01*
X181501505Y-84778597D01*
X181365965Y-84972169D01*
X181365964Y-84972171D01*
X181266098Y-85186335D01*
X181266094Y-85186344D01*
X181204938Y-85414586D01*
X181204936Y-85414596D01*
X181184341Y-85649999D01*
X181184341Y-85650000D01*
X164770988Y-85650000D01*
X165191850Y-85401709D01*
X165690764Y-85112393D01*
X166312251Y-84770816D01*
X166822045Y-84495885D01*
X167451738Y-84174367D01*
X167971627Y-83914402D01*
X168609203Y-83612973D01*
X169138490Y-83368457D01*
X169783460Y-83087232D01*
X170321548Y-82858555D01*
X170973452Y-82597635D01*
X171519694Y-82385175D01*
X172178076Y-82144654D01*
X172731740Y-81948783D01*
X173396063Y-81728780D01*
X173956572Y-81549777D01*
X174626455Y-81350354D01*
X175193057Y-81188525D01*
X175867931Y-81009798D01*
X176440028Y-80865365D01*
X177119277Y-80707448D01*
X177696326Y-80580598D01*
X178379399Y-80443575D01*
X178406718Y-80438449D01*
X178960682Y-80334509D01*
X179647189Y-80218421D01*
X180231961Y-80127311D01*
X180921295Y-80032237D01*
X181509028Y-79959192D01*
X182200544Y-79885196D01*
X182790581Y-79830321D01*
X183483820Y-79777433D01*
X184075430Y-79740810D01*
X184769865Y-79709063D01*
X185362419Y-79690740D01*
X186057300Y-79680158D01*
X186650342Y-79680158D01*
X187345222Y-79690740D01*
G37*
%TD.AperFunction*%
%TD*%
M02*
