M48
; DRILL file {KiCad 7.0.9} date Tue Dec 17 14:25:01 2024
; FORMAT={-:-/ absolute / metric / decimal}
; #@! TF.CreationDate,2024-12-17T14:25:01+09:00
; #@! TF.GenerationSoftware,Kicad,Pcbnew,7.0.9
; #@! TF.FileFunction,Plated,1,2,PTH
FMAT,2
METRIC
; #@! TA.AperFunction,Plated,PTH,ViaDrill
T1C0.400
; #@! TA.AperFunction,Plated,PTH,ComponentDrill
T2C0.950
; #@! TA.AperFunction,Plated,PTH,ComponentDrill
T3C1.000
%
G90
G05
T1
X146.575Y-113.025
X146.725Y-132.775
X147.25Y-118.925
X150.0Y-128.875
X150.1Y-103.275
X152.5Y-127.425
X152.6Y-103.975
X153.1Y-135.375
X153.125Y-144.825
X153.525Y-141.275
X153.675Y-106.5
X155.425Y-127.525
X156.8Y-130.675
X157.975Y-101.875
X158.1Y-108.15
X158.1Y-111.45
X160.725Y-112.925
X163.225Y-88.55
X163.725Y-97.7
X165.75Y-101.475
X166.45Y-149.65
X166.95Y-94.375
X167.825Y-158.025
X168.0Y-87.7
X168.175Y-146.15
X169.75Y-84.5
X170.525Y-148.375
X171.325Y-153.4
X171.925Y-111.1
X174.125Y-156.8
X174.775Y-149.225
X179.125Y-83.35
X181.575Y-100.05
X182.775Y-108.775
X182.825Y-161.275
X184.075Y-102.825
X185.7Y-81.35
X186.5Y-95.2
X186.895Y-87.625
X188.15Y-101.225
X189.575Y-92.175
X189.75Y-89.3
X195.95Y-82.7
X197.275Y-89.55
X197.625Y-159.5
X198.925Y-99.3
X199.325Y-156.9
X199.675Y-160.85
X200.75Y-154.25
X203.725Y-87.925
X204.35Y-90.85
X204.425Y-158.85
X204.775Y-156.675
X206.325Y-99.85
X208.35Y-156.425
X208.575Y-154.575
X211.75Y-151.0
X213.075Y-109.375
X216.25Y-120.025
X216.3Y-138.5
X217.3Y-107.175
X218.1Y-140.325
X219.275Y-105.575
X220.075Y-129.025
X221.3Y-102.8
X222.15Y-141.125
X222.775Y-137.975
X224.65Y-128.075
X225.175Y-125.2
T2
X201.0Y-105.825
X203.5Y-105.825
X206.0Y-105.825
X208.5Y-105.825
T3
X150.329Y-115.329
X150.329Y-117.869
X150.329Y-120.409
X150.329Y-122.949
X150.329Y-125.489
X156.393Y-142.661
X158.183Y-98.898
X158.189Y-144.457
X159.979Y-97.102
X159.985Y-146.253
X161.776Y-95.306
X161.781Y-148.049
X163.572Y-93.51
X163.577Y-149.846
X165.368Y-91.714
X178.75Y-88.735
X178.75Y-91.275
X178.75Y-93.815
X178.75Y-96.355
X178.75Y-98.895
X178.75Y-101.435
X178.75Y-103.975
X180.008Y-157.7
X182.54Y-85.65
X182.548Y-157.7
X185.08Y-85.65
X185.088Y-157.7
X187.62Y-85.65
X187.628Y-157.7
X190.16Y-85.65
X190.168Y-157.7
X192.7Y-85.65
X193.99Y-88.735
X193.99Y-91.275
X193.99Y-93.815
X193.99Y-96.355
X193.99Y-98.895
X193.99Y-101.435
X193.99Y-103.975
X207.34Y-151.636
X209.131Y-93.505
X209.136Y-149.84
X210.927Y-95.301
X210.932Y-148.044
X212.723Y-97.097
X212.728Y-146.248
X214.519Y-98.893
X214.524Y-144.452
X216.315Y-100.689
X222.379Y-117.861
X222.379Y-120.401
X222.379Y-122.941
X222.379Y-125.481
X222.379Y-128.021
T0
M30
