%TF.GenerationSoftware,KiCad,Pcbnew,7.0.9*%
%TF.CreationDate,2024-12-17T14:24:58+09:00*%
%TF.ProjectId,line_main_robot2,6c696e65-5f6d-4616-996e-5f726f626f74,rev?*%
%TF.SameCoordinates,Original*%
%TF.FileFunction,Legend,Top*%
%TF.FilePolarity,Positive*%
%FSLAX46Y46*%
G04 Gerber Fmt 4.6, Leading zero omitted, Abs format (unit mm)*
G04 Created by KiCad (PCBNEW 7.0.9) date 2024-12-17 14:24:58*
%MOMM*%
%LPD*%
G01*
G04 APERTURE LIST*
%ADD10C,0.300000*%
%ADD11C,0.250000*%
%ADD12C,0.120000*%
%ADD13C,0.010000*%
G04 APERTURE END LIST*
D10*
X205992738Y-153512625D02*
X207053398Y-154573286D01*
X207053398Y-154573286D02*
X206800860Y-154825824D01*
X206800860Y-154825824D02*
X206598829Y-154926839D01*
X206598829Y-154926839D02*
X206396799Y-154926839D01*
X206396799Y-154926839D02*
X206245276Y-154876331D01*
X206245276Y-154876331D02*
X205992738Y-154724808D01*
X205992738Y-154724808D02*
X205841215Y-154573286D01*
X205841215Y-154573286D02*
X205689692Y-154320747D01*
X205689692Y-154320747D02*
X205639184Y-154169225D01*
X205639184Y-154169225D02*
X205639184Y-153967194D01*
X205639184Y-153967194D02*
X205740199Y-153765163D01*
X205740199Y-153765163D02*
X205992738Y-153512625D01*
X205942230Y-155482423D02*
X205942230Y-155583438D01*
X205942230Y-155583438D02*
X205891722Y-155734961D01*
X205891722Y-155734961D02*
X205639184Y-155987499D01*
X205639184Y-155987499D02*
X205487661Y-156038007D01*
X205487661Y-156038007D02*
X205386646Y-156038007D01*
X205386646Y-156038007D02*
X205235123Y-155987499D01*
X205235123Y-155987499D02*
X205134108Y-155886484D01*
X205134108Y-155886484D02*
X205033093Y-155684453D01*
X205033093Y-155684453D02*
X205033093Y-154472270D01*
X205033093Y-154472270D02*
X204376494Y-155128869D01*
D11*
X208062238Y-109548622D02*
X208014619Y-109643860D01*
X208014619Y-109643860D02*
X208014619Y-109786717D01*
X208014619Y-109786717D02*
X208062238Y-109929574D01*
X208062238Y-109929574D02*
X208157476Y-110024812D01*
X208157476Y-110024812D02*
X208252714Y-110072431D01*
X208252714Y-110072431D02*
X208443190Y-110120050D01*
X208443190Y-110120050D02*
X208586047Y-110120050D01*
X208586047Y-110120050D02*
X208776523Y-110072431D01*
X208776523Y-110072431D02*
X208871761Y-110024812D01*
X208871761Y-110024812D02*
X208967000Y-109929574D01*
X208967000Y-109929574D02*
X209014619Y-109786717D01*
X209014619Y-109786717D02*
X209014619Y-109691479D01*
X209014619Y-109691479D02*
X208967000Y-109548622D01*
X208967000Y-109548622D02*
X208919380Y-109501003D01*
X208919380Y-109501003D02*
X208586047Y-109501003D01*
X208586047Y-109501003D02*
X208586047Y-109691479D01*
X209014619Y-109072431D02*
X208014619Y-109072431D01*
X208014619Y-109072431D02*
X209014619Y-108501003D01*
X209014619Y-108501003D02*
X208014619Y-108501003D01*
X209014619Y-108024812D02*
X208014619Y-108024812D01*
X208014619Y-108024812D02*
X208014619Y-107786717D01*
X208014619Y-107786717D02*
X208062238Y-107643860D01*
X208062238Y-107643860D02*
X208157476Y-107548622D01*
X208157476Y-107548622D02*
X208252714Y-107501003D01*
X208252714Y-107501003D02*
X208443190Y-107453384D01*
X208443190Y-107453384D02*
X208586047Y-107453384D01*
X208586047Y-107453384D02*
X208776523Y-107501003D01*
X208776523Y-107501003D02*
X208871761Y-107548622D01*
X208871761Y-107548622D02*
X208967000Y-107643860D01*
X208967000Y-107643860D02*
X209014619Y-107786717D01*
X209014619Y-107786717D02*
X209014619Y-108024812D01*
D10*
X194979510Y-85300828D02*
X194979510Y-83800828D01*
X194979510Y-83800828D02*
X195336653Y-83800828D01*
X195336653Y-83800828D02*
X195550939Y-83872257D01*
X195550939Y-83872257D02*
X195693796Y-84015114D01*
X195693796Y-84015114D02*
X195765225Y-84157971D01*
X195765225Y-84157971D02*
X195836653Y-84443685D01*
X195836653Y-84443685D02*
X195836653Y-84657971D01*
X195836653Y-84657971D02*
X195765225Y-84943685D01*
X195765225Y-84943685D02*
X195693796Y-85086542D01*
X195693796Y-85086542D02*
X195550939Y-85229400D01*
X195550939Y-85229400D02*
X195336653Y-85300828D01*
X195336653Y-85300828D02*
X194979510Y-85300828D01*
X197265225Y-85300828D02*
X196408082Y-85300828D01*
X196836653Y-85300828D02*
X196836653Y-83800828D01*
X196836653Y-83800828D02*
X196693796Y-84015114D01*
X196693796Y-84015114D02*
X196550939Y-84157971D01*
X196550939Y-84157971D02*
X196408082Y-84229400D01*
X198193796Y-83800828D02*
X198336653Y-83800828D01*
X198336653Y-83800828D02*
X198479510Y-83872257D01*
X198479510Y-83872257D02*
X198550939Y-83943685D01*
X198550939Y-83943685D02*
X198622367Y-84086542D01*
X198622367Y-84086542D02*
X198693796Y-84372257D01*
X198693796Y-84372257D02*
X198693796Y-84729400D01*
X198693796Y-84729400D02*
X198622367Y-85015114D01*
X198622367Y-85015114D02*
X198550939Y-85157971D01*
X198550939Y-85157971D02*
X198479510Y-85229400D01*
X198479510Y-85229400D02*
X198336653Y-85300828D01*
X198336653Y-85300828D02*
X198193796Y-85300828D01*
X198193796Y-85300828D02*
X198050939Y-85229400D01*
X198050939Y-85229400D02*
X197979510Y-85157971D01*
X197979510Y-85157971D02*
X197908081Y-85015114D01*
X197908081Y-85015114D02*
X197836653Y-84729400D01*
X197836653Y-84729400D02*
X197836653Y-84372257D01*
X197836653Y-84372257D02*
X197908081Y-84086542D01*
X197908081Y-84086542D02*
X197979510Y-83943685D01*
X197979510Y-83943685D02*
X198050939Y-83872257D01*
X198050939Y-83872257D02*
X198193796Y-83800828D01*
X149979508Y-113049451D02*
X148479508Y-113049451D01*
X148479508Y-113049451D02*
X148479508Y-112692308D01*
X148479508Y-112692308D02*
X148550937Y-112478022D01*
X148550937Y-112478022D02*
X148693794Y-112335165D01*
X148693794Y-112335165D02*
X148836651Y-112263736D01*
X148836651Y-112263736D02*
X149122365Y-112192308D01*
X149122365Y-112192308D02*
X149336651Y-112192308D01*
X149336651Y-112192308D02*
X149622365Y-112263736D01*
X149622365Y-112263736D02*
X149765222Y-112335165D01*
X149765222Y-112335165D02*
X149908080Y-112478022D01*
X149908080Y-112478022D02*
X149979508Y-112692308D01*
X149979508Y-112692308D02*
X149979508Y-113049451D01*
X148479508Y-110835165D02*
X148479508Y-111549451D01*
X148479508Y-111549451D02*
X149193794Y-111620879D01*
X149193794Y-111620879D02*
X149122365Y-111549451D01*
X149122365Y-111549451D02*
X149050937Y-111406594D01*
X149050937Y-111406594D02*
X149050937Y-111049451D01*
X149050937Y-111049451D02*
X149122365Y-110906594D01*
X149122365Y-110906594D02*
X149193794Y-110835165D01*
X149193794Y-110835165D02*
X149336651Y-110763736D01*
X149336651Y-110763736D02*
X149693794Y-110763736D01*
X149693794Y-110763736D02*
X149836651Y-110835165D01*
X149836651Y-110835165D02*
X149908080Y-110906594D01*
X149908080Y-110906594D02*
X149979508Y-111049451D01*
X149979508Y-111049451D02*
X149979508Y-111406594D01*
X149979508Y-111406594D02*
X149908080Y-111549451D01*
X149908080Y-111549451D02*
X149836651Y-111620879D01*
X166697226Y-89855334D02*
X165636566Y-88794673D01*
X165636566Y-88794673D02*
X165889104Y-88542135D01*
X165889104Y-88542135D02*
X166091135Y-88441120D01*
X166091135Y-88441120D02*
X166293165Y-88441120D01*
X166293165Y-88441120D02*
X166444688Y-88491628D01*
X166444688Y-88491628D02*
X166697226Y-88643151D01*
X166697226Y-88643151D02*
X166848749Y-88794673D01*
X166848749Y-88794673D02*
X167000272Y-89047212D01*
X167000272Y-89047212D02*
X167050780Y-89198734D01*
X167050780Y-89198734D02*
X167050780Y-89400765D01*
X167050780Y-89400765D02*
X166949765Y-89602796D01*
X166949765Y-89602796D02*
X166697226Y-89855334D01*
X167808394Y-88744166D02*
X168010425Y-88542135D01*
X168010425Y-88542135D02*
X168060932Y-88390612D01*
X168060932Y-88390612D02*
X168060932Y-88289597D01*
X168060932Y-88289597D02*
X168010425Y-88037059D01*
X168010425Y-88037059D02*
X167858902Y-87784521D01*
X167858902Y-87784521D02*
X167454841Y-87380460D01*
X167454841Y-87380460D02*
X167303318Y-87329952D01*
X167303318Y-87329952D02*
X167202303Y-87329952D01*
X167202303Y-87329952D02*
X167050780Y-87380460D01*
X167050780Y-87380460D02*
X166848749Y-87582490D01*
X166848749Y-87582490D02*
X166798242Y-87734013D01*
X166798242Y-87734013D02*
X166798242Y-87835029D01*
X166798242Y-87835029D02*
X166848749Y-87986551D01*
X166848749Y-87986551D02*
X167101287Y-88239090D01*
X167101287Y-88239090D02*
X167252810Y-88289597D01*
X167252810Y-88289597D02*
X167353826Y-88289597D01*
X167353826Y-88289597D02*
X167505348Y-88239090D01*
X167505348Y-88239090D02*
X167707379Y-88037059D01*
X167707379Y-88037059D02*
X167757887Y-87885536D01*
X167757887Y-87885536D02*
X167757887Y-87784521D01*
X167757887Y-87784521D02*
X167707379Y-87632998D01*
D11*
X189707330Y-98464619D02*
X190326377Y-98464619D01*
X190326377Y-98464619D02*
X189993044Y-98845571D01*
X189993044Y-98845571D02*
X190135901Y-98845571D01*
X190135901Y-98845571D02*
X190231139Y-98893190D01*
X190231139Y-98893190D02*
X190278758Y-98940809D01*
X190278758Y-98940809D02*
X190326377Y-99036047D01*
X190326377Y-99036047D02*
X190326377Y-99274142D01*
X190326377Y-99274142D02*
X190278758Y-99369380D01*
X190278758Y-99369380D02*
X190231139Y-99417000D01*
X190231139Y-99417000D02*
X190135901Y-99464619D01*
X190135901Y-99464619D02*
X189850187Y-99464619D01*
X189850187Y-99464619D02*
X189754949Y-99417000D01*
X189754949Y-99417000D02*
X189707330Y-99369380D01*
X190754949Y-99369380D02*
X190802568Y-99417000D01*
X190802568Y-99417000D02*
X190754949Y-99464619D01*
X190754949Y-99464619D02*
X190707330Y-99417000D01*
X190707330Y-99417000D02*
X190754949Y-99369380D01*
X190754949Y-99369380D02*
X190754949Y-99464619D01*
X191135901Y-98464619D02*
X191754948Y-98464619D01*
X191754948Y-98464619D02*
X191421615Y-98845571D01*
X191421615Y-98845571D02*
X191564472Y-98845571D01*
X191564472Y-98845571D02*
X191659710Y-98893190D01*
X191659710Y-98893190D02*
X191707329Y-98940809D01*
X191707329Y-98940809D02*
X191754948Y-99036047D01*
X191754948Y-99036047D02*
X191754948Y-99274142D01*
X191754948Y-99274142D02*
X191707329Y-99369380D01*
X191707329Y-99369380D02*
X191659710Y-99417000D01*
X191659710Y-99417000D02*
X191564472Y-99464619D01*
X191564472Y-99464619D02*
X191278758Y-99464619D01*
X191278758Y-99464619D02*
X191183520Y-99417000D01*
X191183520Y-99417000D02*
X191135901Y-99369380D01*
X192040663Y-98464619D02*
X192373996Y-99464619D01*
X192373996Y-99464619D02*
X192707329Y-98464619D01*
X179389619Y-155171241D02*
X179389619Y-155647431D01*
X179389619Y-155647431D02*
X179865809Y-155695050D01*
X179865809Y-155695050D02*
X179818190Y-155647431D01*
X179818190Y-155647431D02*
X179770571Y-155552193D01*
X179770571Y-155552193D02*
X179770571Y-155314098D01*
X179770571Y-155314098D02*
X179818190Y-155218860D01*
X179818190Y-155218860D02*
X179865809Y-155171241D01*
X179865809Y-155171241D02*
X179961047Y-155123622D01*
X179961047Y-155123622D02*
X180199142Y-155123622D01*
X180199142Y-155123622D02*
X180294380Y-155171241D01*
X180294380Y-155171241D02*
X180342000Y-155218860D01*
X180342000Y-155218860D02*
X180389619Y-155314098D01*
X180389619Y-155314098D02*
X180389619Y-155552193D01*
X180389619Y-155552193D02*
X180342000Y-155647431D01*
X180342000Y-155647431D02*
X180294380Y-155695050D01*
X179389619Y-154837907D02*
X180389619Y-154504574D01*
X180389619Y-154504574D02*
X179389619Y-154171241D01*
X200439619Y-112892669D02*
X201439619Y-112226003D01*
X200439619Y-112226003D02*
X201439619Y-112892669D01*
X201439619Y-111845050D02*
X200772952Y-111845050D01*
X200439619Y-111845050D02*
X200487238Y-111892669D01*
X200487238Y-111892669D02*
X200534857Y-111845050D01*
X200534857Y-111845050D02*
X200487238Y-111797431D01*
X200487238Y-111797431D02*
X200439619Y-111845050D01*
X200439619Y-111845050D02*
X200534857Y-111845050D01*
X201439619Y-110940289D02*
X200915809Y-110940289D01*
X200915809Y-110940289D02*
X200820571Y-110987908D01*
X200820571Y-110987908D02*
X200772952Y-111083146D01*
X200772952Y-111083146D02*
X200772952Y-111273622D01*
X200772952Y-111273622D02*
X200820571Y-111368860D01*
X201392000Y-110940289D02*
X201439619Y-111035527D01*
X201439619Y-111035527D02*
X201439619Y-111273622D01*
X201439619Y-111273622D02*
X201392000Y-111368860D01*
X201392000Y-111368860D02*
X201296761Y-111416479D01*
X201296761Y-111416479D02*
X201201523Y-111416479D01*
X201201523Y-111416479D02*
X201106285Y-111368860D01*
X201106285Y-111368860D02*
X201058666Y-111273622D01*
X201058666Y-111273622D02*
X201058666Y-111035527D01*
X201058666Y-111035527D02*
X201011047Y-110940289D01*
X201439619Y-110321241D02*
X201392000Y-110416479D01*
X201392000Y-110416479D02*
X201344380Y-110464098D01*
X201344380Y-110464098D02*
X201249142Y-110511717D01*
X201249142Y-110511717D02*
X200963428Y-110511717D01*
X200963428Y-110511717D02*
X200868190Y-110464098D01*
X200868190Y-110464098D02*
X200820571Y-110416479D01*
X200820571Y-110416479D02*
X200772952Y-110321241D01*
X200772952Y-110321241D02*
X200772952Y-110178384D01*
X200772952Y-110178384D02*
X200820571Y-110083146D01*
X200820571Y-110083146D02*
X200868190Y-110035527D01*
X200868190Y-110035527D02*
X200963428Y-109987908D01*
X200963428Y-109987908D02*
X201249142Y-109987908D01*
X201249142Y-109987908D02*
X201344380Y-110035527D01*
X201344380Y-110035527D02*
X201392000Y-110083146D01*
X201392000Y-110083146D02*
X201439619Y-110178384D01*
X201439619Y-110178384D02*
X201439619Y-110321241D01*
X201534857Y-109797432D02*
X201534857Y-109035527D01*
X200439619Y-108940288D02*
X200439619Y-108368860D01*
X201439619Y-108654574D02*
X200439619Y-108654574D01*
X200439619Y-108130764D02*
X201439619Y-107464098D01*
X200439619Y-107464098D02*
X201439619Y-108130764D01*
D10*
X218173627Y-102053901D02*
X219234288Y-100993241D01*
X219234288Y-100993241D02*
X219486826Y-101245779D01*
X219486826Y-101245779D02*
X219587841Y-101447810D01*
X219587841Y-101447810D02*
X219587841Y-101649840D01*
X219587841Y-101649840D02*
X219537333Y-101801363D01*
X219537333Y-101801363D02*
X219385810Y-102053901D01*
X219385810Y-102053901D02*
X219234288Y-102205424D01*
X219234288Y-102205424D02*
X218981749Y-102356947D01*
X218981749Y-102356947D02*
X218830227Y-102407455D01*
X218830227Y-102407455D02*
X218628196Y-102407455D01*
X218628196Y-102407455D02*
X218426165Y-102306440D01*
X218426165Y-102306440D02*
X218173627Y-102053901D01*
X220496978Y-102255932D02*
X220597993Y-102356947D01*
X220597993Y-102356947D02*
X220648501Y-102508470D01*
X220648501Y-102508470D02*
X220648501Y-102609485D01*
X220648501Y-102609485D02*
X220597993Y-102761008D01*
X220597993Y-102761008D02*
X220446471Y-103013546D01*
X220446471Y-103013546D02*
X220193932Y-103266084D01*
X220193932Y-103266084D02*
X219941394Y-103417607D01*
X219941394Y-103417607D02*
X219789871Y-103468115D01*
X219789871Y-103468115D02*
X219688856Y-103468115D01*
X219688856Y-103468115D02*
X219537333Y-103417607D01*
X219537333Y-103417607D02*
X219436318Y-103316592D01*
X219436318Y-103316592D02*
X219385810Y-103165069D01*
X219385810Y-103165069D02*
X219385810Y-103064054D01*
X219385810Y-103064054D02*
X219436318Y-102912531D01*
X219436318Y-102912531D02*
X219587841Y-102659993D01*
X219587841Y-102659993D02*
X219840379Y-102407455D01*
X219840379Y-102407455D02*
X220092917Y-102255932D01*
X220092917Y-102255932D02*
X220244440Y-102205424D01*
X220244440Y-102205424D02*
X220345455Y-102205424D01*
X220345455Y-102205424D02*
X220496978Y-102255932D01*
D11*
X202989619Y-108421241D02*
X202989619Y-108897431D01*
X202989619Y-108897431D02*
X203465809Y-108945050D01*
X203465809Y-108945050D02*
X203418190Y-108897431D01*
X203418190Y-108897431D02*
X203370571Y-108802193D01*
X203370571Y-108802193D02*
X203370571Y-108564098D01*
X203370571Y-108564098D02*
X203418190Y-108468860D01*
X203418190Y-108468860D02*
X203465809Y-108421241D01*
X203465809Y-108421241D02*
X203561047Y-108373622D01*
X203561047Y-108373622D02*
X203799142Y-108373622D01*
X203799142Y-108373622D02*
X203894380Y-108421241D01*
X203894380Y-108421241D02*
X203942000Y-108468860D01*
X203942000Y-108468860D02*
X203989619Y-108564098D01*
X203989619Y-108564098D02*
X203989619Y-108802193D01*
X203989619Y-108802193D02*
X203942000Y-108897431D01*
X203942000Y-108897431D02*
X203894380Y-108945050D01*
X202989619Y-108087907D02*
X203989619Y-107754574D01*
X203989619Y-107754574D02*
X202989619Y-107421241D01*
X190551377Y-100937238D02*
X190456139Y-100889619D01*
X190456139Y-100889619D02*
X190313282Y-100889619D01*
X190313282Y-100889619D02*
X190170425Y-100937238D01*
X190170425Y-100937238D02*
X190075187Y-101032476D01*
X190075187Y-101032476D02*
X190027568Y-101127714D01*
X190027568Y-101127714D02*
X189979949Y-101318190D01*
X189979949Y-101318190D02*
X189979949Y-101461047D01*
X189979949Y-101461047D02*
X190027568Y-101651523D01*
X190027568Y-101651523D02*
X190075187Y-101746761D01*
X190075187Y-101746761D02*
X190170425Y-101842000D01*
X190170425Y-101842000D02*
X190313282Y-101889619D01*
X190313282Y-101889619D02*
X190408520Y-101889619D01*
X190408520Y-101889619D02*
X190551377Y-101842000D01*
X190551377Y-101842000D02*
X190598996Y-101794380D01*
X190598996Y-101794380D02*
X190598996Y-101461047D01*
X190598996Y-101461047D02*
X190408520Y-101461047D01*
X191027568Y-101889619D02*
X191027568Y-100889619D01*
X191027568Y-100889619D02*
X191598996Y-101889619D01*
X191598996Y-101889619D02*
X191598996Y-100889619D01*
X192075187Y-101889619D02*
X192075187Y-100889619D01*
X192075187Y-100889619D02*
X192313282Y-100889619D01*
X192313282Y-100889619D02*
X192456139Y-100937238D01*
X192456139Y-100937238D02*
X192551377Y-101032476D01*
X192551377Y-101032476D02*
X192598996Y-101127714D01*
X192598996Y-101127714D02*
X192646615Y-101318190D01*
X192646615Y-101318190D02*
X192646615Y-101461047D01*
X192646615Y-101461047D02*
X192598996Y-101651523D01*
X192598996Y-101651523D02*
X192551377Y-101746761D01*
X192551377Y-101746761D02*
X192456139Y-101842000D01*
X192456139Y-101842000D02*
X192313282Y-101889619D01*
X192313282Y-101889619D02*
X192075187Y-101889619D01*
D10*
X222753133Y-130300830D02*
X224253133Y-130300830D01*
X224253133Y-130300830D02*
X224253133Y-130657973D01*
X224253133Y-130657973D02*
X224181704Y-130872259D01*
X224181704Y-130872259D02*
X224038847Y-131015116D01*
X224038847Y-131015116D02*
X223895990Y-131086545D01*
X223895990Y-131086545D02*
X223610276Y-131157973D01*
X223610276Y-131157973D02*
X223395990Y-131157973D01*
X223395990Y-131157973D02*
X223110276Y-131086545D01*
X223110276Y-131086545D02*
X222967419Y-131015116D01*
X222967419Y-131015116D02*
X222824562Y-130872259D01*
X222824562Y-130872259D02*
X222753133Y-130657973D01*
X222753133Y-130657973D02*
X222753133Y-130300830D01*
X222753133Y-132586545D02*
X222753133Y-131729402D01*
X222753133Y-132157973D02*
X224253133Y-132157973D01*
X224253133Y-132157973D02*
X224038847Y-132015116D01*
X224038847Y-132015116D02*
X223895990Y-131872259D01*
X223895990Y-131872259D02*
X223824562Y-131729402D01*
D11*
X191698996Y-89314619D02*
X191365663Y-88838428D01*
X191127568Y-89314619D02*
X191127568Y-88314619D01*
X191127568Y-88314619D02*
X191508520Y-88314619D01*
X191508520Y-88314619D02*
X191603758Y-88362238D01*
X191603758Y-88362238D02*
X191651377Y-88409857D01*
X191651377Y-88409857D02*
X191698996Y-88505095D01*
X191698996Y-88505095D02*
X191698996Y-88647952D01*
X191698996Y-88647952D02*
X191651377Y-88743190D01*
X191651377Y-88743190D02*
X191603758Y-88790809D01*
X191603758Y-88790809D02*
X191508520Y-88838428D01*
X191508520Y-88838428D02*
X191127568Y-88838428D01*
X192032330Y-88314619D02*
X192698996Y-89314619D01*
X192698996Y-88314619D02*
X192032330Y-89314619D01*
D10*
X177728131Y-158049453D02*
X177728131Y-159549453D01*
X177728131Y-159549453D02*
X177370988Y-159549453D01*
X177370988Y-159549453D02*
X177156702Y-159478024D01*
X177156702Y-159478024D02*
X177013845Y-159335167D01*
X177013845Y-159335167D02*
X176942416Y-159192310D01*
X176942416Y-159192310D02*
X176870988Y-158906596D01*
X176870988Y-158906596D02*
X176870988Y-158692310D01*
X176870988Y-158692310D02*
X176942416Y-158406596D01*
X176942416Y-158406596D02*
X177013845Y-158263739D01*
X177013845Y-158263739D02*
X177156702Y-158120882D01*
X177156702Y-158120882D02*
X177370988Y-158049453D01*
X177370988Y-158049453D02*
X177728131Y-158049453D01*
X176370988Y-159549453D02*
X175442416Y-159549453D01*
X175442416Y-159549453D02*
X175942416Y-158978024D01*
X175942416Y-158978024D02*
X175728131Y-158978024D01*
X175728131Y-158978024D02*
X175585274Y-158906596D01*
X175585274Y-158906596D02*
X175513845Y-158835167D01*
X175513845Y-158835167D02*
X175442416Y-158692310D01*
X175442416Y-158692310D02*
X175442416Y-158335167D01*
X175442416Y-158335167D02*
X175513845Y-158192310D01*
X175513845Y-158192310D02*
X175585274Y-158120882D01*
X175585274Y-158120882D02*
X175728131Y-158049453D01*
X175728131Y-158049453D02*
X176156702Y-158049453D01*
X176156702Y-158049453D02*
X176299559Y-158120882D01*
X176299559Y-158120882D02*
X176370988Y-158192310D01*
D11*
X180109711Y-88314619D02*
X180681139Y-88314619D01*
X180395425Y-89314619D02*
X180395425Y-88314619D01*
X180919235Y-88314619D02*
X181585901Y-89314619D01*
X181585901Y-88314619D02*
X180919235Y-89314619D01*
X205489619Y-113117669D02*
X206489619Y-112451003D01*
X205489619Y-112451003D02*
X206489619Y-113117669D01*
X206489619Y-112070050D02*
X205822952Y-112070050D01*
X205489619Y-112070050D02*
X205537238Y-112117669D01*
X205537238Y-112117669D02*
X205584857Y-112070050D01*
X205584857Y-112070050D02*
X205537238Y-112022431D01*
X205537238Y-112022431D02*
X205489619Y-112070050D01*
X205489619Y-112070050D02*
X205584857Y-112070050D01*
X206489619Y-111165289D02*
X205965809Y-111165289D01*
X205965809Y-111165289D02*
X205870571Y-111212908D01*
X205870571Y-111212908D02*
X205822952Y-111308146D01*
X205822952Y-111308146D02*
X205822952Y-111498622D01*
X205822952Y-111498622D02*
X205870571Y-111593860D01*
X206442000Y-111165289D02*
X206489619Y-111260527D01*
X206489619Y-111260527D02*
X206489619Y-111498622D01*
X206489619Y-111498622D02*
X206442000Y-111593860D01*
X206442000Y-111593860D02*
X206346761Y-111641479D01*
X206346761Y-111641479D02*
X206251523Y-111641479D01*
X206251523Y-111641479D02*
X206156285Y-111593860D01*
X206156285Y-111593860D02*
X206108666Y-111498622D01*
X206108666Y-111498622D02*
X206108666Y-111260527D01*
X206108666Y-111260527D02*
X206061047Y-111165289D01*
X206489619Y-110546241D02*
X206442000Y-110641479D01*
X206442000Y-110641479D02*
X206394380Y-110689098D01*
X206394380Y-110689098D02*
X206299142Y-110736717D01*
X206299142Y-110736717D02*
X206013428Y-110736717D01*
X206013428Y-110736717D02*
X205918190Y-110689098D01*
X205918190Y-110689098D02*
X205870571Y-110641479D01*
X205870571Y-110641479D02*
X205822952Y-110546241D01*
X205822952Y-110546241D02*
X205822952Y-110403384D01*
X205822952Y-110403384D02*
X205870571Y-110308146D01*
X205870571Y-110308146D02*
X205918190Y-110260527D01*
X205918190Y-110260527D02*
X206013428Y-110212908D01*
X206013428Y-110212908D02*
X206299142Y-110212908D01*
X206299142Y-110212908D02*
X206394380Y-110260527D01*
X206394380Y-110260527D02*
X206442000Y-110308146D01*
X206442000Y-110308146D02*
X206489619Y-110403384D01*
X206489619Y-110403384D02*
X206489619Y-110546241D01*
X206584857Y-110022432D02*
X206584857Y-109260527D01*
X206489619Y-108451003D02*
X206013428Y-108784336D01*
X206489619Y-109022431D02*
X205489619Y-109022431D01*
X205489619Y-109022431D02*
X205489619Y-108641479D01*
X205489619Y-108641479D02*
X205537238Y-108546241D01*
X205537238Y-108546241D02*
X205584857Y-108498622D01*
X205584857Y-108498622D02*
X205680095Y-108451003D01*
X205680095Y-108451003D02*
X205822952Y-108451003D01*
X205822952Y-108451003D02*
X205918190Y-108498622D01*
X205918190Y-108498622D02*
X205965809Y-108546241D01*
X205965809Y-108546241D02*
X206013428Y-108641479D01*
X206013428Y-108641479D02*
X206013428Y-109022431D01*
X205489619Y-108117669D02*
X206489619Y-107451003D01*
X205489619Y-107451003D02*
X206489619Y-108117669D01*
X191503758Y-103539619D02*
X191027568Y-103539619D01*
X191027568Y-103539619D02*
X190979949Y-104015809D01*
X190979949Y-104015809D02*
X191027568Y-103968190D01*
X191027568Y-103968190D02*
X191122806Y-103920571D01*
X191122806Y-103920571D02*
X191360901Y-103920571D01*
X191360901Y-103920571D02*
X191456139Y-103968190D01*
X191456139Y-103968190D02*
X191503758Y-104015809D01*
X191503758Y-104015809D02*
X191551377Y-104111047D01*
X191551377Y-104111047D02*
X191551377Y-104349142D01*
X191551377Y-104349142D02*
X191503758Y-104444380D01*
X191503758Y-104444380D02*
X191456139Y-104492000D01*
X191456139Y-104492000D02*
X191360901Y-104539619D01*
X191360901Y-104539619D02*
X191122806Y-104539619D01*
X191122806Y-104539619D02*
X191027568Y-104492000D01*
X191027568Y-104492000D02*
X190979949Y-104444380D01*
X191837092Y-103539619D02*
X192170425Y-104539619D01*
X192170425Y-104539619D02*
X192503758Y-103539619D01*
X184564619Y-156192669D02*
X184564619Y-155573622D01*
X184564619Y-155573622D02*
X184945571Y-155906955D01*
X184945571Y-155906955D02*
X184945571Y-155764098D01*
X184945571Y-155764098D02*
X184993190Y-155668860D01*
X184993190Y-155668860D02*
X185040809Y-155621241D01*
X185040809Y-155621241D02*
X185136047Y-155573622D01*
X185136047Y-155573622D02*
X185374142Y-155573622D01*
X185374142Y-155573622D02*
X185469380Y-155621241D01*
X185469380Y-155621241D02*
X185517000Y-155668860D01*
X185517000Y-155668860D02*
X185564619Y-155764098D01*
X185564619Y-155764098D02*
X185564619Y-156049812D01*
X185564619Y-156049812D02*
X185517000Y-156145050D01*
X185517000Y-156145050D02*
X185469380Y-156192669D01*
X185469380Y-155145050D02*
X185517000Y-155097431D01*
X185517000Y-155097431D02*
X185564619Y-155145050D01*
X185564619Y-155145050D02*
X185517000Y-155192669D01*
X185517000Y-155192669D02*
X185469380Y-155145050D01*
X185469380Y-155145050D02*
X185564619Y-155145050D01*
X184564619Y-154764098D02*
X184564619Y-154145051D01*
X184564619Y-154145051D02*
X184945571Y-154478384D01*
X184945571Y-154478384D02*
X184945571Y-154335527D01*
X184945571Y-154335527D02*
X184993190Y-154240289D01*
X184993190Y-154240289D02*
X185040809Y-154192670D01*
X185040809Y-154192670D02*
X185136047Y-154145051D01*
X185136047Y-154145051D02*
X185374142Y-154145051D01*
X185374142Y-154145051D02*
X185469380Y-154192670D01*
X185469380Y-154192670D02*
X185517000Y-154240289D01*
X185517000Y-154240289D02*
X185564619Y-154335527D01*
X185564619Y-154335527D02*
X185564619Y-154621241D01*
X185564619Y-154621241D02*
X185517000Y-154716479D01*
X185517000Y-154716479D02*
X185469380Y-154764098D01*
X184564619Y-153859336D02*
X185564619Y-153526003D01*
X185564619Y-153526003D02*
X184564619Y-153192670D01*
X183014619Y-155697431D02*
X182014619Y-155697431D01*
X182014619Y-155697431D02*
X182014619Y-155316479D01*
X182014619Y-155316479D02*
X182062238Y-155221241D01*
X182062238Y-155221241D02*
X182109857Y-155173622D01*
X182109857Y-155173622D02*
X182205095Y-155126003D01*
X182205095Y-155126003D02*
X182347952Y-155126003D01*
X182347952Y-155126003D02*
X182443190Y-155173622D01*
X182443190Y-155173622D02*
X182490809Y-155221241D01*
X182490809Y-155221241D02*
X182538428Y-155316479D01*
X182538428Y-155316479D02*
X182538428Y-155697431D01*
X182014619Y-154792669D02*
X183014619Y-154554574D01*
X183014619Y-154554574D02*
X182300333Y-154364098D01*
X182300333Y-154364098D02*
X183014619Y-154173622D01*
X183014619Y-154173622D02*
X182014619Y-153935527D01*
X183014619Y-153554574D02*
X182014619Y-153554574D01*
X182014619Y-153554574D02*
X182728904Y-153221241D01*
X182728904Y-153221241D02*
X182014619Y-152887908D01*
X182014619Y-152887908D02*
X183014619Y-152887908D01*
X190592000Y-155970050D02*
X190639619Y-155827193D01*
X190639619Y-155827193D02*
X190639619Y-155589098D01*
X190639619Y-155589098D02*
X190592000Y-155493860D01*
X190592000Y-155493860D02*
X190544380Y-155446241D01*
X190544380Y-155446241D02*
X190449142Y-155398622D01*
X190449142Y-155398622D02*
X190353904Y-155398622D01*
X190353904Y-155398622D02*
X190258666Y-155446241D01*
X190258666Y-155446241D02*
X190211047Y-155493860D01*
X190211047Y-155493860D02*
X190163428Y-155589098D01*
X190163428Y-155589098D02*
X190115809Y-155779574D01*
X190115809Y-155779574D02*
X190068190Y-155874812D01*
X190068190Y-155874812D02*
X190020571Y-155922431D01*
X190020571Y-155922431D02*
X189925333Y-155970050D01*
X189925333Y-155970050D02*
X189830095Y-155970050D01*
X189830095Y-155970050D02*
X189734857Y-155922431D01*
X189734857Y-155922431D02*
X189687238Y-155874812D01*
X189687238Y-155874812D02*
X189639619Y-155779574D01*
X189639619Y-155779574D02*
X189639619Y-155541479D01*
X189639619Y-155541479D02*
X189687238Y-155398622D01*
D10*
X154534014Y-141296380D02*
X153473353Y-142357040D01*
X153473353Y-142357040D02*
X153220815Y-142104502D01*
X153220815Y-142104502D02*
X153119800Y-141902471D01*
X153119800Y-141902471D02*
X153119800Y-141700441D01*
X153119800Y-141700441D02*
X153170308Y-141548918D01*
X153170308Y-141548918D02*
X153321831Y-141296380D01*
X153321831Y-141296380D02*
X153473353Y-141144857D01*
X153473353Y-141144857D02*
X153725892Y-140993334D01*
X153725892Y-140993334D02*
X153877414Y-140942826D01*
X153877414Y-140942826D02*
X154079445Y-140942826D01*
X154079445Y-140942826D02*
X154281476Y-141043841D01*
X154281476Y-141043841D02*
X154534014Y-141296380D01*
X152311678Y-140488258D02*
X153018785Y-139781151D01*
X152160155Y-141144857D02*
X153170308Y-140639780D01*
X153170308Y-140639780D02*
X152513709Y-139983181D01*
D11*
X187162238Y-155498622D02*
X187114619Y-155593860D01*
X187114619Y-155593860D02*
X187114619Y-155736717D01*
X187114619Y-155736717D02*
X187162238Y-155879574D01*
X187162238Y-155879574D02*
X187257476Y-155974812D01*
X187257476Y-155974812D02*
X187352714Y-156022431D01*
X187352714Y-156022431D02*
X187543190Y-156070050D01*
X187543190Y-156070050D02*
X187686047Y-156070050D01*
X187686047Y-156070050D02*
X187876523Y-156022431D01*
X187876523Y-156022431D02*
X187971761Y-155974812D01*
X187971761Y-155974812D02*
X188067000Y-155879574D01*
X188067000Y-155879574D02*
X188114619Y-155736717D01*
X188114619Y-155736717D02*
X188114619Y-155641479D01*
X188114619Y-155641479D02*
X188067000Y-155498622D01*
X188067000Y-155498622D02*
X188019380Y-155451003D01*
X188019380Y-155451003D02*
X187686047Y-155451003D01*
X187686047Y-155451003D02*
X187686047Y-155641479D01*
X188114619Y-155022431D02*
X187114619Y-155022431D01*
X187114619Y-155022431D02*
X188114619Y-154451003D01*
X188114619Y-154451003D02*
X187114619Y-154451003D01*
X188114619Y-153974812D02*
X187114619Y-153974812D01*
X187114619Y-153974812D02*
X187114619Y-153736717D01*
X187114619Y-153736717D02*
X187162238Y-153593860D01*
X187162238Y-153593860D02*
X187257476Y-153498622D01*
X187257476Y-153498622D02*
X187352714Y-153451003D01*
X187352714Y-153451003D02*
X187543190Y-153403384D01*
X187543190Y-153403384D02*
X187686047Y-153403384D01*
X187686047Y-153403384D02*
X187876523Y-153451003D01*
X187876523Y-153451003D02*
X187971761Y-153498622D01*
X187971761Y-153498622D02*
X188067000Y-153593860D01*
X188067000Y-153593860D02*
X188114619Y-153736717D01*
X188114619Y-153736717D02*
X188114619Y-153974812D01*
X198164619Y-107222431D02*
X198974142Y-107222431D01*
X198974142Y-107222431D02*
X199069380Y-107174812D01*
X199069380Y-107174812D02*
X199117000Y-107127193D01*
X199117000Y-107127193D02*
X199164619Y-107031955D01*
X199164619Y-107031955D02*
X199164619Y-106841479D01*
X199164619Y-106841479D02*
X199117000Y-106746241D01*
X199117000Y-106746241D02*
X199069380Y-106698622D01*
X199069380Y-106698622D02*
X198974142Y-106651003D01*
X198974142Y-106651003D02*
X198164619Y-106651003D01*
X199164619Y-105603384D02*
X198688428Y-105936717D01*
X199164619Y-106174812D02*
X198164619Y-106174812D01*
X198164619Y-106174812D02*
X198164619Y-105793860D01*
X198164619Y-105793860D02*
X198212238Y-105698622D01*
X198212238Y-105698622D02*
X198259857Y-105651003D01*
X198259857Y-105651003D02*
X198355095Y-105603384D01*
X198355095Y-105603384D02*
X198497952Y-105603384D01*
X198497952Y-105603384D02*
X198593190Y-105651003D01*
X198593190Y-105651003D02*
X198640809Y-105698622D01*
X198640809Y-105698622D02*
X198688428Y-105793860D01*
X198688428Y-105793860D02*
X198688428Y-106174812D01*
X198878904Y-105222431D02*
X198878904Y-104746241D01*
X199164619Y-105317669D02*
X198164619Y-104984336D01*
X198164619Y-104984336D02*
X199164619Y-104651003D01*
X198164619Y-104460526D02*
X198164619Y-103889098D01*
X199164619Y-104174812D02*
X198164619Y-104174812D01*
D10*
X181123808Y-96484638D02*
X180171427Y-96484638D01*
X180171427Y-96484638D02*
X180171427Y-94484638D01*
X181790475Y-96484638D02*
X181790475Y-95151304D01*
X181790475Y-94484638D02*
X181695237Y-94579876D01*
X181695237Y-94579876D02*
X181790475Y-94675114D01*
X181790475Y-94675114D02*
X181885713Y-94579876D01*
X181885713Y-94579876D02*
X181790475Y-94484638D01*
X181790475Y-94484638D02*
X181790475Y-94675114D01*
X182742856Y-95151304D02*
X182742856Y-96484638D01*
X182742856Y-95341780D02*
X182838094Y-95246542D01*
X182838094Y-95246542D02*
X183028570Y-95151304D01*
X183028570Y-95151304D02*
X183314285Y-95151304D01*
X183314285Y-95151304D02*
X183504761Y-95246542D01*
X183504761Y-95246542D02*
X183599999Y-95437019D01*
X183599999Y-95437019D02*
X183599999Y-96484638D01*
X185314285Y-96389400D02*
X185123809Y-96484638D01*
X185123809Y-96484638D02*
X184742856Y-96484638D01*
X184742856Y-96484638D02*
X184552380Y-96389400D01*
X184552380Y-96389400D02*
X184457142Y-96198923D01*
X184457142Y-96198923D02*
X184457142Y-95437019D01*
X184457142Y-95437019D02*
X184552380Y-95246542D01*
X184552380Y-95246542D02*
X184742856Y-95151304D01*
X184742856Y-95151304D02*
X185123809Y-95151304D01*
X185123809Y-95151304D02*
X185314285Y-95246542D01*
X185314285Y-95246542D02*
X185409523Y-95437019D01*
X185409523Y-95437019D02*
X185409523Y-95627495D01*
X185409523Y-95627495D02*
X184457142Y-95817971D01*
X185790476Y-96675114D02*
X187314285Y-96675114D01*
X187600000Y-96484638D02*
X188647619Y-95151304D01*
X187600000Y-95151304D02*
X188647619Y-96484638D01*
X189409524Y-96484638D02*
X189409524Y-95151304D01*
X189409524Y-94484638D02*
X189314286Y-94579876D01*
X189314286Y-94579876D02*
X189409524Y-94675114D01*
X189409524Y-94675114D02*
X189504762Y-94579876D01*
X189504762Y-94579876D02*
X189409524Y-94484638D01*
X189409524Y-94484638D02*
X189409524Y-94675114D01*
X191219048Y-96484638D02*
X191219048Y-95437019D01*
X191219048Y-95437019D02*
X191123810Y-95246542D01*
X191123810Y-95246542D02*
X190933334Y-95151304D01*
X190933334Y-95151304D02*
X190552381Y-95151304D01*
X190552381Y-95151304D02*
X190361905Y-95246542D01*
X191219048Y-96389400D02*
X191028572Y-96484638D01*
X191028572Y-96484638D02*
X190552381Y-96484638D01*
X190552381Y-96484638D02*
X190361905Y-96389400D01*
X190361905Y-96389400D02*
X190266667Y-96198923D01*
X190266667Y-96198923D02*
X190266667Y-96008447D01*
X190266667Y-96008447D02*
X190361905Y-95817971D01*
X190361905Y-95817971D02*
X190552381Y-95722733D01*
X190552381Y-95722733D02*
X191028572Y-95722733D01*
X191028572Y-95722733D02*
X191219048Y-95627495D01*
X192457143Y-96484638D02*
X192266667Y-96389400D01*
X192266667Y-96389400D02*
X192171429Y-96294161D01*
X192171429Y-96294161D02*
X192076191Y-96103685D01*
X192076191Y-96103685D02*
X192076191Y-95532257D01*
X192076191Y-95532257D02*
X192171429Y-95341780D01*
X192171429Y-95341780D02*
X192266667Y-95246542D01*
X192266667Y-95246542D02*
X192457143Y-95151304D01*
X192457143Y-95151304D02*
X192742858Y-95151304D01*
X192742858Y-95151304D02*
X192933334Y-95246542D01*
X192933334Y-95246542D02*
X193028572Y-95341780D01*
X193028572Y-95341780D02*
X193123810Y-95532257D01*
X193123810Y-95532257D02*
X193123810Y-96103685D01*
X193123810Y-96103685D02*
X193028572Y-96294161D01*
X193028572Y-96294161D02*
X192933334Y-96389400D01*
X192933334Y-96389400D02*
X192742858Y-96484638D01*
X192742858Y-96484638D02*
X192457143Y-96484638D01*
D12*
%TO.C,J5*%
X148317614Y-148855591D02*
X157382722Y-157920700D01*
X148317614Y-148855591D02*
X154419945Y-142753260D01*
X148402466Y-148940444D02*
X154504798Y-142838113D01*
X148485972Y-149023950D02*
X154588304Y-142921618D01*
X148569478Y-149107456D02*
X154671809Y-143005124D01*
X148652984Y-149190962D02*
X154755315Y-143088630D01*
X148736489Y-149274467D02*
X154838821Y-143172136D01*
X148819995Y-149357973D02*
X154922327Y-143255642D01*
X148903501Y-149441479D02*
X155005833Y-143339147D01*
X148987007Y-149524985D02*
X155089338Y-143422653D01*
X149070513Y-149608490D02*
X155172844Y-143506159D01*
X149154018Y-149691996D02*
X155256350Y-143589665D01*
X149237524Y-149775502D02*
X155339856Y-143673170D01*
X149321030Y-149859008D02*
X155423361Y-143756676D01*
X149404536Y-149942514D02*
X155506867Y-143840182D01*
X149488041Y-150026019D02*
X155590373Y-143923688D01*
X149571547Y-150109525D02*
X155673879Y-144007194D01*
X149655053Y-150193031D02*
X155757385Y-144090699D01*
X149738559Y-150276537D02*
X155840890Y-144174205D01*
X149822065Y-150360042D02*
X155924396Y-144257711D01*
X149905570Y-150443548D02*
X156007902Y-144341217D01*
X149989076Y-150527054D02*
X156091408Y-144424722D01*
X150072582Y-150610560D02*
X156174913Y-144508228D01*
X150156091Y-150694069D02*
X156258423Y-144591738D01*
X151952142Y-152490120D02*
X158054474Y-146387789D01*
X153748194Y-154286171D02*
X159850525Y-148183840D01*
X155544245Y-156082223D02*
X161646576Y-149979891D01*
X157382722Y-157920700D02*
X163485054Y-151818369D01*
X154419945Y-142753260D02*
X163485054Y-151818369D01*
X155105839Y-143439153D02*
X155353326Y-143191666D01*
X155614956Y-143948270D02*
X155862443Y-143700783D01*
X156901890Y-145235205D02*
X157191804Y-144945291D01*
X157411007Y-145744322D02*
X157700921Y-145454408D01*
X158697941Y-147031256D02*
X158987855Y-146741342D01*
X159207058Y-147540373D02*
X159496972Y-147250459D01*
X160493992Y-148827307D02*
X160783906Y-148537393D01*
X161003109Y-149336424D02*
X161293023Y-149046510D01*
X162290044Y-150623358D02*
X162579957Y-150333445D01*
X162799160Y-151132475D02*
X163089074Y-150842561D01*
X155452321Y-141720884D02*
X156237210Y-140935995D01*
X156237210Y-140935995D02*
X157177662Y-141876447D01*
%TO.C,G\u002A\u002A\u002A*%
D13*
X178919417Y-111368763D02*
X178923000Y-111378500D01*
X178905855Y-111397279D01*
X178891250Y-111399667D01*
X178863082Y-111388237D01*
X178859500Y-111378500D01*
X178876644Y-111359722D01*
X178891250Y-111357334D01*
X178919417Y-111368763D01*
G36*
X178919417Y-111368763D02*
G01*
X178923000Y-111378500D01*
X178905855Y-111397279D01*
X178891250Y-111399667D01*
X178863082Y-111388237D01*
X178859500Y-111378500D01*
X178876644Y-111359722D01*
X178891250Y-111357334D01*
X178919417Y-111368763D01*
G37*
X179490812Y-112242110D02*
X179494500Y-112256917D01*
X179477556Y-112284979D01*
X179462750Y-112288667D01*
X179434687Y-112271724D01*
X179431000Y-112256917D01*
X179447943Y-112228855D01*
X179462750Y-112225167D01*
X179490812Y-112242110D01*
G36*
X179490812Y-112242110D02*
G01*
X179494500Y-112256917D01*
X179477556Y-112284979D01*
X179462750Y-112288667D01*
X179434687Y-112271724D01*
X179431000Y-112256917D01*
X179447943Y-112228855D01*
X179462750Y-112225167D01*
X179490812Y-112242110D01*
G37*
X179617812Y-111924610D02*
X179621500Y-111939417D01*
X179604556Y-111967479D01*
X179589750Y-111971167D01*
X179561687Y-111954224D01*
X179558000Y-111939417D01*
X179574943Y-111911355D01*
X179589750Y-111907667D01*
X179617812Y-111924610D01*
G36*
X179617812Y-111924610D02*
G01*
X179621500Y-111939417D01*
X179604556Y-111967479D01*
X179589750Y-111971167D01*
X179561687Y-111954224D01*
X179558000Y-111939417D01*
X179574943Y-111911355D01*
X179589750Y-111907667D01*
X179617812Y-111924610D01*
G37*
X179617812Y-112178610D02*
X179621500Y-112193417D01*
X179604556Y-112221479D01*
X179589750Y-112225167D01*
X179561687Y-112208224D01*
X179558000Y-112193417D01*
X179574943Y-112165355D01*
X179589750Y-112161667D01*
X179617812Y-112178610D01*
G36*
X179617812Y-112178610D02*
G01*
X179621500Y-112193417D01*
X179604556Y-112221479D01*
X179589750Y-112225167D01*
X179561687Y-112208224D01*
X179558000Y-112193417D01*
X179574943Y-112165355D01*
X179589750Y-112161667D01*
X179617812Y-112178610D01*
G37*
X179323177Y-111275732D02*
X179405469Y-111282506D01*
X179464214Y-111294983D01*
X179490077Y-111312316D01*
X179514614Y-111329426D01*
X179559763Y-111336167D01*
X179608876Y-111345859D01*
X179621500Y-111367917D01*
X179638443Y-111395979D01*
X179653250Y-111399667D01*
X179681312Y-111416610D01*
X179685000Y-111431417D01*
X179701943Y-111459479D01*
X179716750Y-111463167D01*
X179733497Y-111471483D01*
X179743327Y-111501534D01*
X179747772Y-111560976D01*
X179748500Y-111621917D01*
X179746836Y-111705653D01*
X179740826Y-111754806D01*
X179728938Y-111777030D01*
X179716750Y-111780667D01*
X179688687Y-111797610D01*
X179685000Y-111812417D01*
X179668056Y-111840479D01*
X179653250Y-111844167D01*
X179628043Y-111825235D01*
X179621500Y-111780667D01*
X179630966Y-111730254D01*
X179653250Y-111717167D01*
X179674176Y-111704701D01*
X179683709Y-111662316D01*
X179685000Y-111621917D01*
X179680844Y-111559136D01*
X179666716Y-111530540D01*
X179653250Y-111526667D01*
X179628043Y-111507735D01*
X179621500Y-111463167D01*
X179616255Y-111418190D01*
X179591515Y-111401612D01*
X179558000Y-111399667D01*
X179507586Y-111390201D01*
X179494500Y-111367917D01*
X179488131Y-111354228D01*
X179464708Y-111345019D01*
X179417755Y-111339480D01*
X179340795Y-111336801D01*
X179240500Y-111336167D01*
X179127072Y-111334109D01*
X179046475Y-111328484D01*
X179000472Y-111320115D01*
X178990825Y-111309824D01*
X179019296Y-111298433D01*
X179087647Y-111286766D01*
X179125201Y-111282349D01*
X179226651Y-111275424D01*
X179323177Y-111275732D01*
G36*
X179323177Y-111275732D02*
G01*
X179405469Y-111282506D01*
X179464214Y-111294983D01*
X179490077Y-111312316D01*
X179514614Y-111329426D01*
X179559763Y-111336167D01*
X179608876Y-111345859D01*
X179621500Y-111367917D01*
X179638443Y-111395979D01*
X179653250Y-111399667D01*
X179681312Y-111416610D01*
X179685000Y-111431417D01*
X179701943Y-111459479D01*
X179716750Y-111463167D01*
X179733497Y-111471483D01*
X179743327Y-111501534D01*
X179747772Y-111560976D01*
X179748500Y-111621917D01*
X179746836Y-111705653D01*
X179740826Y-111754806D01*
X179728938Y-111777030D01*
X179716750Y-111780667D01*
X179688687Y-111797610D01*
X179685000Y-111812417D01*
X179668056Y-111840479D01*
X179653250Y-111844167D01*
X179628043Y-111825235D01*
X179621500Y-111780667D01*
X179630966Y-111730254D01*
X179653250Y-111717167D01*
X179674176Y-111704701D01*
X179683709Y-111662316D01*
X179685000Y-111621917D01*
X179680844Y-111559136D01*
X179666716Y-111530540D01*
X179653250Y-111526667D01*
X179628043Y-111507735D01*
X179621500Y-111463167D01*
X179616255Y-111418190D01*
X179591515Y-111401612D01*
X179558000Y-111399667D01*
X179507586Y-111390201D01*
X179494500Y-111367917D01*
X179488131Y-111354228D01*
X179464708Y-111345019D01*
X179417755Y-111339480D01*
X179340795Y-111336801D01*
X179240500Y-111336167D01*
X179127072Y-111334109D01*
X179046475Y-111328484D01*
X179000472Y-111320115D01*
X178990825Y-111309824D01*
X179019296Y-111298433D01*
X179087647Y-111286766D01*
X179125201Y-111282349D01*
X179226651Y-111275424D01*
X179323177Y-111275732D01*
G37*
X180266743Y-111148105D02*
X180306335Y-111156749D01*
X180319749Y-111173591D01*
X180320000Y-111177417D01*
X180303056Y-111205479D01*
X180288250Y-111209167D01*
X180271502Y-111217483D01*
X180261672Y-111247534D01*
X180257227Y-111306976D01*
X180256500Y-111367917D01*
X180254836Y-111451653D01*
X180248826Y-111500806D01*
X180236938Y-111523030D01*
X180224750Y-111526667D01*
X180208002Y-111534983D01*
X180198172Y-111565034D01*
X180193727Y-111624476D01*
X180193000Y-111685417D01*
X180191336Y-111769153D01*
X180185326Y-111818306D01*
X180173438Y-111840530D01*
X180161250Y-111844167D01*
X180140323Y-111856632D01*
X180130790Y-111899018D01*
X180129500Y-111939417D01*
X180129500Y-112034667D01*
X180383500Y-112034667D01*
X180493010Y-112035463D01*
X180566683Y-112038391D01*
X180610997Y-112044260D01*
X180632426Y-112053880D01*
X180637500Y-112066417D01*
X180620556Y-112094479D01*
X180605750Y-112098167D01*
X180580543Y-112117099D01*
X180574000Y-112161667D01*
X180574000Y-112225167D01*
X180256500Y-112225167D01*
X180132236Y-112224591D01*
X180044411Y-112222471D01*
X179987140Y-112218218D01*
X179954539Y-112211245D01*
X179940724Y-112200962D01*
X179939000Y-112193417D01*
X179922056Y-112165355D01*
X179907250Y-112161667D01*
X179886323Y-112149201D01*
X179876790Y-112106816D01*
X179875500Y-112066417D01*
X179879655Y-112003636D01*
X179893783Y-111975040D01*
X179907250Y-111971167D01*
X179923997Y-111962851D01*
X179933827Y-111932800D01*
X179938272Y-111873357D01*
X179939000Y-111812417D01*
X179940663Y-111728681D01*
X179946673Y-111679528D01*
X179958561Y-111657304D01*
X179970750Y-111653667D01*
X179987497Y-111645351D01*
X179997327Y-111615300D01*
X180001772Y-111555857D01*
X180002500Y-111494917D01*
X180004163Y-111411181D01*
X180010173Y-111362028D01*
X180022061Y-111339804D01*
X180034250Y-111336167D01*
X180055176Y-111323701D01*
X180064709Y-111281316D01*
X180066000Y-111240917D01*
X180066000Y-111145667D01*
X180193000Y-111145667D01*
X180266743Y-111148105D01*
G36*
X180266743Y-111148105D02*
G01*
X180306335Y-111156749D01*
X180319749Y-111173591D01*
X180320000Y-111177417D01*
X180303056Y-111205479D01*
X180288250Y-111209167D01*
X180271502Y-111217483D01*
X180261672Y-111247534D01*
X180257227Y-111306976D01*
X180256500Y-111367917D01*
X180254836Y-111451653D01*
X180248826Y-111500806D01*
X180236938Y-111523030D01*
X180224750Y-111526667D01*
X180208002Y-111534983D01*
X180198172Y-111565034D01*
X180193727Y-111624476D01*
X180193000Y-111685417D01*
X180191336Y-111769153D01*
X180185326Y-111818306D01*
X180173438Y-111840530D01*
X180161250Y-111844167D01*
X180140323Y-111856632D01*
X180130790Y-111899018D01*
X180129500Y-111939417D01*
X180129500Y-112034667D01*
X180383500Y-112034667D01*
X180493010Y-112035463D01*
X180566683Y-112038391D01*
X180610997Y-112044260D01*
X180632426Y-112053880D01*
X180637500Y-112066417D01*
X180620556Y-112094479D01*
X180605750Y-112098167D01*
X180580543Y-112117099D01*
X180574000Y-112161667D01*
X180574000Y-112225167D01*
X180256500Y-112225167D01*
X180132236Y-112224591D01*
X180044411Y-112222471D01*
X179987140Y-112218218D01*
X179954539Y-112211245D01*
X179940724Y-112200962D01*
X179939000Y-112193417D01*
X179922056Y-112165355D01*
X179907250Y-112161667D01*
X179886323Y-112149201D01*
X179876790Y-112106816D01*
X179875500Y-112066417D01*
X179879655Y-112003636D01*
X179893783Y-111975040D01*
X179907250Y-111971167D01*
X179923997Y-111962851D01*
X179933827Y-111932800D01*
X179938272Y-111873357D01*
X179939000Y-111812417D01*
X179940663Y-111728681D01*
X179946673Y-111679528D01*
X179958561Y-111657304D01*
X179970750Y-111653667D01*
X179987497Y-111645351D01*
X179997327Y-111615300D01*
X180001772Y-111555857D01*
X180002500Y-111494917D01*
X180004163Y-111411181D01*
X180010173Y-111362028D01*
X180022061Y-111339804D01*
X180034250Y-111336167D01*
X180055176Y-111323701D01*
X180064709Y-111281316D01*
X180066000Y-111240917D01*
X180066000Y-111145667D01*
X180193000Y-111145667D01*
X180266743Y-111148105D01*
G37*
X178478500Y-111209167D02*
X178469033Y-111259580D01*
X178446750Y-111272667D01*
X178430002Y-111280983D01*
X178420172Y-111311034D01*
X178415727Y-111370476D01*
X178415000Y-111431417D01*
X178413336Y-111515153D01*
X178407326Y-111564306D01*
X178395438Y-111586530D01*
X178383250Y-111590167D01*
X178366502Y-111598483D01*
X178356672Y-111628534D01*
X178352227Y-111687976D01*
X178351500Y-111748917D01*
X178349836Y-111832653D01*
X178343826Y-111881806D01*
X178331938Y-111904030D01*
X178319750Y-111907667D01*
X178294543Y-111926599D01*
X178288000Y-111971167D01*
X178278533Y-112021580D01*
X178256250Y-112034667D01*
X178228187Y-112051610D01*
X178224500Y-112066417D01*
X178207556Y-112094479D01*
X178192750Y-112098167D01*
X178164687Y-112115110D01*
X178161000Y-112129917D01*
X178142067Y-112155123D01*
X178097500Y-112161667D01*
X178047086Y-112171133D01*
X178034000Y-112193417D01*
X178024246Y-112211853D01*
X177989671Y-112221751D01*
X177922302Y-112225104D01*
X177907000Y-112225167D01*
X177833256Y-112222728D01*
X177793664Y-112214085D01*
X177780250Y-112197242D01*
X177780000Y-112193417D01*
X177761067Y-112168210D01*
X177716500Y-112161667D01*
X177666086Y-112152201D01*
X177653000Y-112129917D01*
X177636056Y-112101855D01*
X177621250Y-112098167D01*
X177593906Y-112083281D01*
X177588148Y-112049118D01*
X177601776Y-112011424D01*
X177632593Y-111985940D01*
X177637125Y-111984508D01*
X177711135Y-111971882D01*
X177761211Y-111978141D01*
X177779993Y-112002335D01*
X177780000Y-112002917D01*
X177789753Y-112021353D01*
X177824328Y-112031251D01*
X177891697Y-112034604D01*
X177907000Y-112034667D01*
X177980743Y-112032228D01*
X178020335Y-112023585D01*
X178033749Y-112006742D01*
X178034000Y-112002917D01*
X178050943Y-111974855D01*
X178065750Y-111971167D01*
X178084185Y-111961413D01*
X178094083Y-111926838D01*
X178097437Y-111859469D01*
X178097500Y-111844167D01*
X178099938Y-111770424D01*
X178108582Y-111730831D01*
X178125424Y-111717417D01*
X178129250Y-111717167D01*
X178145997Y-111708851D01*
X178155827Y-111678800D01*
X178160272Y-111619357D01*
X178161000Y-111558417D01*
X178162663Y-111474681D01*
X178168673Y-111425528D01*
X178180561Y-111403304D01*
X178192750Y-111399667D01*
X178211185Y-111389913D01*
X178221083Y-111355338D01*
X178224437Y-111287969D01*
X178224500Y-111272667D01*
X178224500Y-111145667D01*
X178478500Y-111145667D01*
X178478500Y-111209167D01*
G36*
X178478500Y-111209167D02*
G01*
X178469033Y-111259580D01*
X178446750Y-111272667D01*
X178430002Y-111280983D01*
X178420172Y-111311034D01*
X178415727Y-111370476D01*
X178415000Y-111431417D01*
X178413336Y-111515153D01*
X178407326Y-111564306D01*
X178395438Y-111586530D01*
X178383250Y-111590167D01*
X178366502Y-111598483D01*
X178356672Y-111628534D01*
X178352227Y-111687976D01*
X178351500Y-111748917D01*
X178349836Y-111832653D01*
X178343826Y-111881806D01*
X178331938Y-111904030D01*
X178319750Y-111907667D01*
X178294543Y-111926599D01*
X178288000Y-111971167D01*
X178278533Y-112021580D01*
X178256250Y-112034667D01*
X178228187Y-112051610D01*
X178224500Y-112066417D01*
X178207556Y-112094479D01*
X178192750Y-112098167D01*
X178164687Y-112115110D01*
X178161000Y-112129917D01*
X178142067Y-112155123D01*
X178097500Y-112161667D01*
X178047086Y-112171133D01*
X178034000Y-112193417D01*
X178024246Y-112211853D01*
X177989671Y-112221751D01*
X177922302Y-112225104D01*
X177907000Y-112225167D01*
X177833256Y-112222728D01*
X177793664Y-112214085D01*
X177780250Y-112197242D01*
X177780000Y-112193417D01*
X177761067Y-112168210D01*
X177716500Y-112161667D01*
X177666086Y-112152201D01*
X177653000Y-112129917D01*
X177636056Y-112101855D01*
X177621250Y-112098167D01*
X177593906Y-112083281D01*
X177588148Y-112049118D01*
X177601776Y-112011424D01*
X177632593Y-111985940D01*
X177637125Y-111984508D01*
X177711135Y-111971882D01*
X177761211Y-111978141D01*
X177779993Y-112002335D01*
X177780000Y-112002917D01*
X177789753Y-112021353D01*
X177824328Y-112031251D01*
X177891697Y-112034604D01*
X177907000Y-112034667D01*
X177980743Y-112032228D01*
X178020335Y-112023585D01*
X178033749Y-112006742D01*
X178034000Y-112002917D01*
X178050943Y-111974855D01*
X178065750Y-111971167D01*
X178084185Y-111961413D01*
X178094083Y-111926838D01*
X178097437Y-111859469D01*
X178097500Y-111844167D01*
X178099938Y-111770424D01*
X178108582Y-111730831D01*
X178125424Y-111717417D01*
X178129250Y-111717167D01*
X178145997Y-111708851D01*
X178155827Y-111678800D01*
X178160272Y-111619357D01*
X178161000Y-111558417D01*
X178162663Y-111474681D01*
X178168673Y-111425528D01*
X178180561Y-111403304D01*
X178192750Y-111399667D01*
X178211185Y-111389913D01*
X178221083Y-111355338D01*
X178224437Y-111287969D01*
X178224500Y-111272667D01*
X178224500Y-111145667D01*
X178478500Y-111145667D01*
X178478500Y-111209167D01*
G37*
X178792417Y-111432263D02*
X178796000Y-111442000D01*
X178778855Y-111460779D01*
X178764250Y-111463167D01*
X178736187Y-111480110D01*
X178732500Y-111494917D01*
X178715556Y-111522979D01*
X178700750Y-111526667D01*
X178675543Y-111545599D01*
X178669000Y-111590167D01*
X178659533Y-111640580D01*
X178637250Y-111653667D01*
X178612043Y-111672599D01*
X178605500Y-111717167D01*
X178596033Y-111767580D01*
X178573750Y-111780667D01*
X178557002Y-111788983D01*
X178547172Y-111819034D01*
X178542727Y-111878476D01*
X178542000Y-111939417D01*
X178543663Y-112023153D01*
X178549673Y-112072306D01*
X178561561Y-112094530D01*
X178573750Y-112098167D01*
X178601812Y-112115110D01*
X178605500Y-112129917D01*
X178622443Y-112157979D01*
X178637250Y-112161667D01*
X178665312Y-112178610D01*
X178669000Y-112193417D01*
X178685943Y-112221479D01*
X178700750Y-112225167D01*
X178728831Y-112241246D01*
X178732500Y-112255232D01*
X178752494Y-112274929D01*
X178808011Y-112290823D01*
X178892350Y-112302173D01*
X178998812Y-112308240D01*
X179120696Y-112308283D01*
X179188764Y-112305637D01*
X179279743Y-112302369D01*
X179335333Y-112304667D01*
X179362196Y-112313223D01*
X179367500Y-112324211D01*
X179358598Y-112335426D01*
X179328436Y-112343372D01*
X179271826Y-112348506D01*
X179183582Y-112351284D01*
X179058517Y-112352164D01*
X179050000Y-112352167D01*
X178925736Y-112351591D01*
X178837911Y-112349471D01*
X178780640Y-112345218D01*
X178748039Y-112338245D01*
X178734224Y-112327962D01*
X178732500Y-112320417D01*
X178713567Y-112295210D01*
X178669000Y-112288667D01*
X178618586Y-112279201D01*
X178605500Y-112256917D01*
X178588556Y-112228855D01*
X178573750Y-112225167D01*
X178548543Y-112206235D01*
X178542000Y-112161667D01*
X178532533Y-112111254D01*
X178510250Y-112098167D01*
X178493502Y-112089851D01*
X178483672Y-112059800D01*
X178479227Y-112000357D01*
X178478500Y-111939417D01*
X178480163Y-111855681D01*
X178486173Y-111806528D01*
X178498061Y-111784304D01*
X178510250Y-111780667D01*
X178535456Y-111761735D01*
X178542000Y-111717167D01*
X178551466Y-111666754D01*
X178573750Y-111653667D01*
X178598956Y-111634735D01*
X178605500Y-111590167D01*
X178614966Y-111539754D01*
X178637250Y-111526667D01*
X178665312Y-111509724D01*
X178669000Y-111494917D01*
X178685943Y-111466855D01*
X178700750Y-111463167D01*
X178728917Y-111451737D01*
X178732500Y-111442000D01*
X178749644Y-111423222D01*
X178764250Y-111420834D01*
X178792417Y-111432263D01*
G36*
X178792417Y-111432263D02*
G01*
X178796000Y-111442000D01*
X178778855Y-111460779D01*
X178764250Y-111463167D01*
X178736187Y-111480110D01*
X178732500Y-111494917D01*
X178715556Y-111522979D01*
X178700750Y-111526667D01*
X178675543Y-111545599D01*
X178669000Y-111590167D01*
X178659533Y-111640580D01*
X178637250Y-111653667D01*
X178612043Y-111672599D01*
X178605500Y-111717167D01*
X178596033Y-111767580D01*
X178573750Y-111780667D01*
X178557002Y-111788983D01*
X178547172Y-111819034D01*
X178542727Y-111878476D01*
X178542000Y-111939417D01*
X178543663Y-112023153D01*
X178549673Y-112072306D01*
X178561561Y-112094530D01*
X178573750Y-112098167D01*
X178601812Y-112115110D01*
X178605500Y-112129917D01*
X178622443Y-112157979D01*
X178637250Y-112161667D01*
X178665312Y-112178610D01*
X178669000Y-112193417D01*
X178685943Y-112221479D01*
X178700750Y-112225167D01*
X178728831Y-112241246D01*
X178732500Y-112255232D01*
X178752494Y-112274929D01*
X178808011Y-112290823D01*
X178892350Y-112302173D01*
X178998812Y-112308240D01*
X179120696Y-112308283D01*
X179188764Y-112305637D01*
X179279743Y-112302369D01*
X179335333Y-112304667D01*
X179362196Y-112313223D01*
X179367500Y-112324211D01*
X179358598Y-112335426D01*
X179328436Y-112343372D01*
X179271826Y-112348506D01*
X179183582Y-112351284D01*
X179058517Y-112352164D01*
X179050000Y-112352167D01*
X178925736Y-112351591D01*
X178837911Y-112349471D01*
X178780640Y-112345218D01*
X178748039Y-112338245D01*
X178734224Y-112327962D01*
X178732500Y-112320417D01*
X178713567Y-112295210D01*
X178669000Y-112288667D01*
X178618586Y-112279201D01*
X178605500Y-112256917D01*
X178588556Y-112228855D01*
X178573750Y-112225167D01*
X178548543Y-112206235D01*
X178542000Y-112161667D01*
X178532533Y-112111254D01*
X178510250Y-112098167D01*
X178493502Y-112089851D01*
X178483672Y-112059800D01*
X178479227Y-112000357D01*
X178478500Y-111939417D01*
X178480163Y-111855681D01*
X178486173Y-111806528D01*
X178498061Y-111784304D01*
X178510250Y-111780667D01*
X178535456Y-111761735D01*
X178542000Y-111717167D01*
X178551466Y-111666754D01*
X178573750Y-111653667D01*
X178598956Y-111634735D01*
X178605500Y-111590167D01*
X178614966Y-111539754D01*
X178637250Y-111526667D01*
X178665312Y-111509724D01*
X178669000Y-111494917D01*
X178685943Y-111466855D01*
X178700750Y-111463167D01*
X178728917Y-111451737D01*
X178732500Y-111442000D01*
X178749644Y-111423222D01*
X178764250Y-111420834D01*
X178792417Y-111432263D01*
G37*
X179481413Y-111536133D02*
X179494500Y-111558417D01*
X179477556Y-111586479D01*
X179462750Y-111590167D01*
X179437543Y-111609099D01*
X179431000Y-111653667D01*
X179421533Y-111704080D01*
X179399250Y-111717167D01*
X179374043Y-111736099D01*
X179367500Y-111780667D01*
X179358033Y-111831080D01*
X179335750Y-111844167D01*
X179314823Y-111856632D01*
X179305290Y-111899018D01*
X179304000Y-111939417D01*
X179305840Y-111997988D01*
X179316469Y-112025729D01*
X179343543Y-112034128D01*
X179367500Y-112034667D01*
X179412085Y-112028536D01*
X179430995Y-112013764D01*
X179431000Y-112013500D01*
X179448144Y-111994722D01*
X179462750Y-111992334D01*
X179490917Y-112003763D01*
X179494500Y-112013500D01*
X179477355Y-112032279D01*
X179462750Y-112034667D01*
X179434687Y-112051610D01*
X179431000Y-112066417D01*
X179421246Y-112084853D01*
X179386671Y-112094751D01*
X179319302Y-112098104D01*
X179304000Y-112098167D01*
X179230256Y-112095728D01*
X179190664Y-112087085D01*
X179177250Y-112070242D01*
X179177000Y-112066417D01*
X179160056Y-112038355D01*
X179145250Y-112034667D01*
X179117187Y-112017724D01*
X179113500Y-112002917D01*
X179130443Y-111974855D01*
X179145250Y-111971167D01*
X179173312Y-111954224D01*
X179177000Y-111939417D01*
X179193943Y-111911355D01*
X179208750Y-111907667D01*
X179225497Y-111899351D01*
X179235327Y-111869300D01*
X179239772Y-111809857D01*
X179240500Y-111748917D01*
X179240500Y-111590167D01*
X179113500Y-111590167D01*
X179039756Y-111592605D01*
X179000164Y-111601249D01*
X178986750Y-111618091D01*
X178986500Y-111621917D01*
X178969556Y-111649979D01*
X178954750Y-111653667D01*
X178929543Y-111672599D01*
X178923000Y-111717167D01*
X178913533Y-111767580D01*
X178891250Y-111780667D01*
X178872656Y-111790570D01*
X178862763Y-111825601D01*
X178859536Y-111893740D01*
X178859500Y-111905198D01*
X178863742Y-111983482D01*
X178882098Y-112028699D01*
X178923013Y-112049736D01*
X178994931Y-112055479D01*
X179002375Y-112055544D01*
X179039554Y-112063747D01*
X179050000Y-112077000D01*
X179030720Y-112088275D01*
X178980354Y-112095919D01*
X178923000Y-112098167D01*
X178849256Y-112095728D01*
X178809664Y-112087085D01*
X178796250Y-112070242D01*
X178796000Y-112066417D01*
X178779056Y-112038355D01*
X178764250Y-112034667D01*
X178745814Y-112024913D01*
X178735916Y-111990338D01*
X178732562Y-111922969D01*
X178732500Y-111907667D01*
X178734938Y-111833924D01*
X178743582Y-111794331D01*
X178760424Y-111780917D01*
X178764250Y-111780667D01*
X178792312Y-111763724D01*
X178796000Y-111748917D01*
X178812943Y-111720855D01*
X178827750Y-111717167D01*
X178855812Y-111700224D01*
X178859500Y-111685417D01*
X178876443Y-111657355D01*
X178891250Y-111653667D01*
X178919312Y-111636724D01*
X178923000Y-111621917D01*
X178939038Y-111593834D01*
X178952986Y-111590167D01*
X178985687Y-111574362D01*
X178991791Y-111563709D01*
X179018867Y-111547148D01*
X179086715Y-111538587D01*
X179145250Y-111537250D01*
X179237093Y-111541193D01*
X179287860Y-111553082D01*
X179298708Y-111563709D01*
X179321540Y-111587261D01*
X179351493Y-111585618D01*
X179367448Y-111560404D01*
X179367500Y-111558417D01*
X179386432Y-111533210D01*
X179431000Y-111526667D01*
X179481413Y-111536133D01*
G36*
X179481413Y-111536133D02*
G01*
X179494500Y-111558417D01*
X179477556Y-111586479D01*
X179462750Y-111590167D01*
X179437543Y-111609099D01*
X179431000Y-111653667D01*
X179421533Y-111704080D01*
X179399250Y-111717167D01*
X179374043Y-111736099D01*
X179367500Y-111780667D01*
X179358033Y-111831080D01*
X179335750Y-111844167D01*
X179314823Y-111856632D01*
X179305290Y-111899018D01*
X179304000Y-111939417D01*
X179305840Y-111997988D01*
X179316469Y-112025729D01*
X179343543Y-112034128D01*
X179367500Y-112034667D01*
X179412085Y-112028536D01*
X179430995Y-112013764D01*
X179431000Y-112013500D01*
X179448144Y-111994722D01*
X179462750Y-111992334D01*
X179490917Y-112003763D01*
X179494500Y-112013500D01*
X179477355Y-112032279D01*
X179462750Y-112034667D01*
X179434687Y-112051610D01*
X179431000Y-112066417D01*
X179421246Y-112084853D01*
X179386671Y-112094751D01*
X179319302Y-112098104D01*
X179304000Y-112098167D01*
X179230256Y-112095728D01*
X179190664Y-112087085D01*
X179177250Y-112070242D01*
X179177000Y-112066417D01*
X179160056Y-112038355D01*
X179145250Y-112034667D01*
X179117187Y-112017724D01*
X179113500Y-112002917D01*
X179130443Y-111974855D01*
X179145250Y-111971167D01*
X179173312Y-111954224D01*
X179177000Y-111939417D01*
X179193943Y-111911355D01*
X179208750Y-111907667D01*
X179225497Y-111899351D01*
X179235327Y-111869300D01*
X179239772Y-111809857D01*
X179240500Y-111748917D01*
X179240500Y-111590167D01*
X179113500Y-111590167D01*
X179039756Y-111592605D01*
X179000164Y-111601249D01*
X178986750Y-111618091D01*
X178986500Y-111621917D01*
X178969556Y-111649979D01*
X178954750Y-111653667D01*
X178929543Y-111672599D01*
X178923000Y-111717167D01*
X178913533Y-111767580D01*
X178891250Y-111780667D01*
X178872656Y-111790570D01*
X178862763Y-111825601D01*
X178859536Y-111893740D01*
X178859500Y-111905198D01*
X178863742Y-111983482D01*
X178882098Y-112028699D01*
X178923013Y-112049736D01*
X178994931Y-112055479D01*
X179002375Y-112055544D01*
X179039554Y-112063747D01*
X179050000Y-112077000D01*
X179030720Y-112088275D01*
X178980354Y-112095919D01*
X178923000Y-112098167D01*
X178849256Y-112095728D01*
X178809664Y-112087085D01*
X178796250Y-112070242D01*
X178796000Y-112066417D01*
X178779056Y-112038355D01*
X178764250Y-112034667D01*
X178745814Y-112024913D01*
X178735916Y-111990338D01*
X178732562Y-111922969D01*
X178732500Y-111907667D01*
X178734938Y-111833924D01*
X178743582Y-111794331D01*
X178760424Y-111780917D01*
X178764250Y-111780667D01*
X178792312Y-111763724D01*
X178796000Y-111748917D01*
X178812943Y-111720855D01*
X178827750Y-111717167D01*
X178855812Y-111700224D01*
X178859500Y-111685417D01*
X178876443Y-111657355D01*
X178891250Y-111653667D01*
X178919312Y-111636724D01*
X178923000Y-111621917D01*
X178939038Y-111593834D01*
X178952986Y-111590167D01*
X178985687Y-111574362D01*
X178991791Y-111563709D01*
X179018867Y-111547148D01*
X179086715Y-111538587D01*
X179145250Y-111537250D01*
X179237093Y-111541193D01*
X179287860Y-111553082D01*
X179298708Y-111563709D01*
X179321540Y-111587261D01*
X179351493Y-111585618D01*
X179367448Y-111560404D01*
X179367500Y-111558417D01*
X179386432Y-111533210D01*
X179431000Y-111526667D01*
X179481413Y-111536133D01*
G37*
X184681278Y-111020337D02*
X184766583Y-111023431D01*
X184828390Y-111028929D01*
X184844375Y-111032008D01*
X184881952Y-111050304D01*
X184890625Y-111070603D01*
X184866919Y-111081922D01*
X184860250Y-111082167D01*
X184841814Y-111091920D01*
X184831916Y-111126495D01*
X184828562Y-111193865D01*
X184828500Y-111209167D01*
X184826061Y-111282910D01*
X184817417Y-111322502D01*
X184800575Y-111335916D01*
X184796750Y-111336167D01*
X184778314Y-111345920D01*
X184768416Y-111380495D01*
X184765062Y-111447865D01*
X184765000Y-111463167D01*
X184762561Y-111536910D01*
X184753917Y-111576502D01*
X184737075Y-111589916D01*
X184733250Y-111590167D01*
X184714814Y-111599920D01*
X184704916Y-111634495D01*
X184701562Y-111701865D01*
X184701500Y-111717167D01*
X184699061Y-111790910D01*
X184690417Y-111830502D01*
X184673575Y-111843916D01*
X184669750Y-111844167D01*
X184651314Y-111853920D01*
X184641416Y-111888495D01*
X184638062Y-111955865D01*
X184638000Y-111971167D01*
X184635561Y-112044910D01*
X184626917Y-112084502D01*
X184610075Y-112097916D01*
X184606250Y-112098167D01*
X184588440Y-112107352D01*
X184578542Y-112140172D01*
X184574732Y-112204526D01*
X184574500Y-112235750D01*
X184574500Y-112373334D01*
X185400000Y-112373334D01*
X185400000Y-112426250D01*
X185388959Y-112468810D01*
X185368250Y-112479167D01*
X185347323Y-112491632D01*
X185337790Y-112534018D01*
X185336500Y-112574417D01*
X185332344Y-112637197D01*
X185318216Y-112665794D01*
X185304750Y-112669667D01*
X185276687Y-112686610D01*
X185273000Y-112701417D01*
X185268499Y-112710356D01*
X185252220Y-112717478D01*
X185219998Y-112722980D01*
X185167670Y-112727062D01*
X185091070Y-112729920D01*
X184986034Y-112731755D01*
X184848399Y-112732764D01*
X184673998Y-112733145D01*
X184606250Y-112733167D01*
X183939500Y-112733167D01*
X183939500Y-112637917D01*
X183943655Y-112575136D01*
X183957783Y-112546540D01*
X183971250Y-112542667D01*
X183989685Y-112532913D01*
X183999583Y-112498338D01*
X184002937Y-112430969D01*
X184003000Y-112415667D01*
X184005438Y-112341924D01*
X184014082Y-112302331D01*
X184030924Y-112288917D01*
X184034750Y-112288667D01*
X184053185Y-112278913D01*
X184063083Y-112244338D01*
X184066437Y-112176969D01*
X184066500Y-112161667D01*
X184068938Y-112087924D01*
X184077582Y-112048331D01*
X184094424Y-112034917D01*
X184098250Y-112034667D01*
X184116685Y-112024913D01*
X184126583Y-111990338D01*
X184129937Y-111922969D01*
X184130000Y-111907667D01*
X184132438Y-111833924D01*
X184141082Y-111794331D01*
X184157924Y-111780917D01*
X184161750Y-111780667D01*
X184180185Y-111770913D01*
X184190083Y-111736338D01*
X184193437Y-111668969D01*
X184193500Y-111653667D01*
X184195938Y-111579924D01*
X184204582Y-111540331D01*
X184221424Y-111526917D01*
X184225250Y-111526667D01*
X184243685Y-111516913D01*
X184253583Y-111482338D01*
X184256937Y-111414969D01*
X184257000Y-111399667D01*
X184259438Y-111325924D01*
X184268082Y-111286331D01*
X184284924Y-111272917D01*
X184288750Y-111272667D01*
X184308077Y-111262029D01*
X184317917Y-111224804D01*
X184320500Y-111158719D01*
X184322644Y-111091371D01*
X184331979Y-111054678D01*
X184352858Y-111037057D01*
X184368125Y-111032008D01*
X184415897Y-111025483D01*
X184492782Y-111021363D01*
X184585627Y-111019648D01*
X184681278Y-111020337D01*
G36*
X184681278Y-111020337D02*
G01*
X184766583Y-111023431D01*
X184828390Y-111028929D01*
X184844375Y-111032008D01*
X184881952Y-111050304D01*
X184890625Y-111070603D01*
X184866919Y-111081922D01*
X184860250Y-111082167D01*
X184841814Y-111091920D01*
X184831916Y-111126495D01*
X184828562Y-111193865D01*
X184828500Y-111209167D01*
X184826061Y-111282910D01*
X184817417Y-111322502D01*
X184800575Y-111335916D01*
X184796750Y-111336167D01*
X184778314Y-111345920D01*
X184768416Y-111380495D01*
X184765062Y-111447865D01*
X184765000Y-111463167D01*
X184762561Y-111536910D01*
X184753917Y-111576502D01*
X184737075Y-111589916D01*
X184733250Y-111590167D01*
X184714814Y-111599920D01*
X184704916Y-111634495D01*
X184701562Y-111701865D01*
X184701500Y-111717167D01*
X184699061Y-111790910D01*
X184690417Y-111830502D01*
X184673575Y-111843916D01*
X184669750Y-111844167D01*
X184651314Y-111853920D01*
X184641416Y-111888495D01*
X184638062Y-111955865D01*
X184638000Y-111971167D01*
X184635561Y-112044910D01*
X184626917Y-112084502D01*
X184610075Y-112097916D01*
X184606250Y-112098167D01*
X184588440Y-112107352D01*
X184578542Y-112140172D01*
X184574732Y-112204526D01*
X184574500Y-112235750D01*
X184574500Y-112373334D01*
X185400000Y-112373334D01*
X185400000Y-112426250D01*
X185388959Y-112468810D01*
X185368250Y-112479167D01*
X185347323Y-112491632D01*
X185337790Y-112534018D01*
X185336500Y-112574417D01*
X185332344Y-112637197D01*
X185318216Y-112665794D01*
X185304750Y-112669667D01*
X185276687Y-112686610D01*
X185273000Y-112701417D01*
X185268499Y-112710356D01*
X185252220Y-112717478D01*
X185219998Y-112722980D01*
X185167670Y-112727062D01*
X185091070Y-112729920D01*
X184986034Y-112731755D01*
X184848399Y-112732764D01*
X184673998Y-112733145D01*
X184606250Y-112733167D01*
X183939500Y-112733167D01*
X183939500Y-112637917D01*
X183943655Y-112575136D01*
X183957783Y-112546540D01*
X183971250Y-112542667D01*
X183989685Y-112532913D01*
X183999583Y-112498338D01*
X184002937Y-112430969D01*
X184003000Y-112415667D01*
X184005438Y-112341924D01*
X184014082Y-112302331D01*
X184030924Y-112288917D01*
X184034750Y-112288667D01*
X184053185Y-112278913D01*
X184063083Y-112244338D01*
X184066437Y-112176969D01*
X184066500Y-112161667D01*
X184068938Y-112087924D01*
X184077582Y-112048331D01*
X184094424Y-112034917D01*
X184098250Y-112034667D01*
X184116685Y-112024913D01*
X184126583Y-111990338D01*
X184129937Y-111922969D01*
X184130000Y-111907667D01*
X184132438Y-111833924D01*
X184141082Y-111794331D01*
X184157924Y-111780917D01*
X184161750Y-111780667D01*
X184180185Y-111770913D01*
X184190083Y-111736338D01*
X184193437Y-111668969D01*
X184193500Y-111653667D01*
X184195938Y-111579924D01*
X184204582Y-111540331D01*
X184221424Y-111526917D01*
X184225250Y-111526667D01*
X184243685Y-111516913D01*
X184253583Y-111482338D01*
X184256937Y-111414969D01*
X184257000Y-111399667D01*
X184259438Y-111325924D01*
X184268082Y-111286331D01*
X184284924Y-111272917D01*
X184288750Y-111272667D01*
X184308077Y-111262029D01*
X184317917Y-111224804D01*
X184320500Y-111158719D01*
X184322644Y-111091371D01*
X184331979Y-111054678D01*
X184352858Y-111037057D01*
X184368125Y-111032008D01*
X184415897Y-111025483D01*
X184492782Y-111021363D01*
X184585627Y-111019648D01*
X184681278Y-111020337D01*
G37*
X180138698Y-110342661D02*
X180226028Y-110346302D01*
X180288529Y-110351740D01*
X180318490Y-110358460D01*
X180320000Y-110360422D01*
X180339176Y-110372702D01*
X180389032Y-110385404D01*
X180447000Y-110394250D01*
X180513885Y-110404473D01*
X180559895Y-110416211D01*
X180574000Y-110425291D01*
X180592770Y-110437858D01*
X180639862Y-110449911D01*
X180661717Y-110453358D01*
X180719442Y-110465376D01*
X180757228Y-110481130D01*
X180762470Y-110486217D01*
X180791004Y-110506519D01*
X180833503Y-110521867D01*
X180875452Y-110538269D01*
X180891500Y-110555295D01*
X180908677Y-110572048D01*
X180923250Y-110574167D01*
X180951331Y-110590247D01*
X180955000Y-110604235D01*
X180973329Y-110629342D01*
X181017514Y-110648030D01*
X181018500Y-110648250D01*
X181062937Y-110663609D01*
X181081988Y-110681300D01*
X181082000Y-110681682D01*
X181099169Y-110698977D01*
X181113750Y-110701167D01*
X181141812Y-110718110D01*
X181145500Y-110732917D01*
X181162443Y-110760979D01*
X181177250Y-110764667D01*
X181205312Y-110781610D01*
X181209000Y-110796417D01*
X181225943Y-110824479D01*
X181240750Y-110828167D01*
X181268812Y-110845110D01*
X181272500Y-110859917D01*
X181289443Y-110887979D01*
X181304250Y-110891667D01*
X181332312Y-110908610D01*
X181336000Y-110923417D01*
X181330794Y-110934492D01*
X181311694Y-110942714D01*
X181273476Y-110948483D01*
X181210915Y-110952202D01*
X181118786Y-110954272D01*
X180991865Y-110955096D01*
X180923250Y-110955167D01*
X180779268Y-110954766D01*
X180672390Y-110953297D01*
X180597391Y-110950357D01*
X180549046Y-110945545D01*
X180522132Y-110938458D01*
X180511424Y-110928695D01*
X180510500Y-110923417D01*
X180493556Y-110895355D01*
X180478750Y-110891667D01*
X180453543Y-110872735D01*
X180447000Y-110828167D01*
X180441755Y-110783190D01*
X180417015Y-110766612D01*
X180383500Y-110764667D01*
X180333086Y-110755201D01*
X180320000Y-110732917D01*
X180303056Y-110704855D01*
X180288250Y-110701167D01*
X180260187Y-110684224D01*
X180256500Y-110669417D01*
X180237567Y-110644210D01*
X180193000Y-110637667D01*
X180142586Y-110628201D01*
X180129500Y-110605917D01*
X180119746Y-110587481D01*
X180085171Y-110577583D01*
X180017802Y-110574229D01*
X180002500Y-110574167D01*
X179928756Y-110571728D01*
X179889164Y-110563085D01*
X179875750Y-110546242D01*
X179875500Y-110542417D01*
X179869959Y-110530497D01*
X179849579Y-110521913D01*
X179808720Y-110516151D01*
X179741743Y-110512698D01*
X179643010Y-110511044D01*
X179526250Y-110510667D01*
X179395134Y-110511171D01*
X179300704Y-110513023D01*
X179237322Y-110516738D01*
X179199348Y-110522827D01*
X179181144Y-110531802D01*
X179177000Y-110542417D01*
X179164534Y-110563344D01*
X179122149Y-110572876D01*
X179081750Y-110574167D01*
X179015730Y-110569220D01*
X178989611Y-110557111D01*
X179004030Y-110541934D01*
X179059621Y-110527786D01*
X179074217Y-110525642D01*
X179131877Y-110513825D01*
X179169548Y-110498565D01*
X179174758Y-110493667D01*
X179201362Y-110479867D01*
X179256273Y-110465747D01*
X179304000Y-110457750D01*
X179370164Y-110446065D01*
X179417391Y-110432589D01*
X179431905Y-110423994D01*
X179457212Y-110413325D01*
X179513153Y-110402072D01*
X179588127Y-110392515D01*
X179595947Y-110391766D01*
X179670107Y-110382572D01*
X179724360Y-110371460D01*
X179748185Y-110360656D01*
X179748500Y-110359461D01*
X179768379Y-110352835D01*
X179822876Y-110347295D01*
X179904279Y-110343330D01*
X180004876Y-110341429D01*
X180034250Y-110341334D01*
X180138698Y-110342661D01*
G36*
X180138698Y-110342661D02*
G01*
X180226028Y-110346302D01*
X180288529Y-110351740D01*
X180318490Y-110358460D01*
X180320000Y-110360422D01*
X180339176Y-110372702D01*
X180389032Y-110385404D01*
X180447000Y-110394250D01*
X180513885Y-110404473D01*
X180559895Y-110416211D01*
X180574000Y-110425291D01*
X180592770Y-110437858D01*
X180639862Y-110449911D01*
X180661717Y-110453358D01*
X180719442Y-110465376D01*
X180757228Y-110481130D01*
X180762470Y-110486217D01*
X180791004Y-110506519D01*
X180833503Y-110521867D01*
X180875452Y-110538269D01*
X180891500Y-110555295D01*
X180908677Y-110572048D01*
X180923250Y-110574167D01*
X180951331Y-110590247D01*
X180955000Y-110604235D01*
X180973329Y-110629342D01*
X181017514Y-110648030D01*
X181018500Y-110648250D01*
X181062937Y-110663609D01*
X181081988Y-110681300D01*
X181082000Y-110681682D01*
X181099169Y-110698977D01*
X181113750Y-110701167D01*
X181141812Y-110718110D01*
X181145500Y-110732917D01*
X181162443Y-110760979D01*
X181177250Y-110764667D01*
X181205312Y-110781610D01*
X181209000Y-110796417D01*
X181225943Y-110824479D01*
X181240750Y-110828167D01*
X181268812Y-110845110D01*
X181272500Y-110859917D01*
X181289443Y-110887979D01*
X181304250Y-110891667D01*
X181332312Y-110908610D01*
X181336000Y-110923417D01*
X181330794Y-110934492D01*
X181311694Y-110942714D01*
X181273476Y-110948483D01*
X181210915Y-110952202D01*
X181118786Y-110954272D01*
X180991865Y-110955096D01*
X180923250Y-110955167D01*
X180779268Y-110954766D01*
X180672390Y-110953297D01*
X180597391Y-110950357D01*
X180549046Y-110945545D01*
X180522132Y-110938458D01*
X180511424Y-110928695D01*
X180510500Y-110923417D01*
X180493556Y-110895355D01*
X180478750Y-110891667D01*
X180453543Y-110872735D01*
X180447000Y-110828167D01*
X180441755Y-110783190D01*
X180417015Y-110766612D01*
X180383500Y-110764667D01*
X180333086Y-110755201D01*
X180320000Y-110732917D01*
X180303056Y-110704855D01*
X180288250Y-110701167D01*
X180260187Y-110684224D01*
X180256500Y-110669417D01*
X180237567Y-110644210D01*
X180193000Y-110637667D01*
X180142586Y-110628201D01*
X180129500Y-110605917D01*
X180119746Y-110587481D01*
X180085171Y-110577583D01*
X180017802Y-110574229D01*
X180002500Y-110574167D01*
X179928756Y-110571728D01*
X179889164Y-110563085D01*
X179875750Y-110546242D01*
X179875500Y-110542417D01*
X179869959Y-110530497D01*
X179849579Y-110521913D01*
X179808720Y-110516151D01*
X179741743Y-110512698D01*
X179643010Y-110511044D01*
X179526250Y-110510667D01*
X179395134Y-110511171D01*
X179300704Y-110513023D01*
X179237322Y-110516738D01*
X179199348Y-110522827D01*
X179181144Y-110531802D01*
X179177000Y-110542417D01*
X179164534Y-110563344D01*
X179122149Y-110572876D01*
X179081750Y-110574167D01*
X179015730Y-110569220D01*
X178989611Y-110557111D01*
X179004030Y-110541934D01*
X179059621Y-110527786D01*
X179074217Y-110525642D01*
X179131877Y-110513825D01*
X179169548Y-110498565D01*
X179174758Y-110493667D01*
X179201362Y-110479867D01*
X179256273Y-110465747D01*
X179304000Y-110457750D01*
X179370164Y-110446065D01*
X179417391Y-110432589D01*
X179431905Y-110423994D01*
X179457212Y-110413325D01*
X179513153Y-110402072D01*
X179588127Y-110392515D01*
X179595947Y-110391766D01*
X179670107Y-110382572D01*
X179724360Y-110371460D01*
X179748185Y-110360656D01*
X179748500Y-110359461D01*
X179768379Y-110352835D01*
X179822876Y-110347295D01*
X179904279Y-110343330D01*
X180004876Y-110341429D01*
X180034250Y-110341334D01*
X180138698Y-110342661D01*
G37*
X181507596Y-111108661D02*
X181526495Y-111121495D01*
X181526500Y-111121713D01*
X181545300Y-111135472D01*
X181592569Y-111148312D01*
X181616003Y-111152098D01*
X181672777Y-111164318D01*
X181708311Y-111180638D01*
X181713017Y-111186635D01*
X181737727Y-111207226D01*
X181750513Y-111209167D01*
X181777036Y-111226149D01*
X181780500Y-111240917D01*
X181763556Y-111268979D01*
X181748750Y-111272667D01*
X181720687Y-111289610D01*
X181717000Y-111304417D01*
X181698067Y-111329623D01*
X181653500Y-111336167D01*
X181603086Y-111326701D01*
X181590000Y-111304417D01*
X181580246Y-111285981D01*
X181545671Y-111276083D01*
X181478302Y-111272729D01*
X181463000Y-111272667D01*
X181389256Y-111275105D01*
X181349664Y-111283749D01*
X181336250Y-111300591D01*
X181336000Y-111304417D01*
X181317067Y-111329623D01*
X181272500Y-111336167D01*
X181222086Y-111345633D01*
X181209000Y-111367917D01*
X181192056Y-111395979D01*
X181177250Y-111399667D01*
X181149187Y-111416610D01*
X181145500Y-111431417D01*
X181128556Y-111459479D01*
X181113750Y-111463167D01*
X181100061Y-111469535D01*
X181090852Y-111492958D01*
X181085312Y-111539911D01*
X181082634Y-111616872D01*
X181082000Y-111717167D01*
X181082796Y-111826677D01*
X181085723Y-111900351D01*
X181091593Y-111944664D01*
X181101213Y-111966094D01*
X181113750Y-111971167D01*
X181141812Y-111988110D01*
X181145500Y-112002917D01*
X181165076Y-112028658D01*
X181214291Y-112038372D01*
X181299058Y-112039624D01*
X181376560Y-112035064D01*
X181435146Y-112025872D01*
X181463168Y-112013227D01*
X181463211Y-112013158D01*
X181489863Y-111995632D01*
X181532003Y-111981134D01*
X181574687Y-111975833D01*
X181589466Y-111992362D01*
X181590000Y-112000622D01*
X181605964Y-112030130D01*
X181621750Y-112034667D01*
X181649812Y-112051610D01*
X181653500Y-112066417D01*
X181634567Y-112091623D01*
X181590000Y-112098167D01*
X181539586Y-112107633D01*
X181526500Y-112129917D01*
X181507567Y-112155123D01*
X181463000Y-112161667D01*
X181412586Y-112171133D01*
X181399500Y-112193417D01*
X181389746Y-112211853D01*
X181355171Y-112221751D01*
X181287802Y-112225104D01*
X181272500Y-112225167D01*
X181198756Y-112222728D01*
X181159164Y-112214085D01*
X181145750Y-112197242D01*
X181145500Y-112193417D01*
X181133034Y-112172490D01*
X181090649Y-112162958D01*
X181050250Y-112161667D01*
X180987469Y-112157512D01*
X180958872Y-112143383D01*
X180955000Y-112129917D01*
X180938056Y-112101855D01*
X180923250Y-112098167D01*
X180898043Y-112079235D01*
X180891500Y-112034667D01*
X180882033Y-111984254D01*
X180859750Y-111971167D01*
X180845251Y-111964353D01*
X180835819Y-111939356D01*
X180830478Y-111889342D01*
X180828251Y-111807477D01*
X180828000Y-111748917D01*
X180828973Y-111647425D01*
X180832544Y-111581402D01*
X180839689Y-111544014D01*
X180851384Y-111528426D01*
X180859750Y-111526667D01*
X180884956Y-111507735D01*
X180891500Y-111463167D01*
X180900966Y-111412754D01*
X180923250Y-111399667D01*
X180951312Y-111382724D01*
X180955000Y-111367917D01*
X180971943Y-111339855D01*
X180986750Y-111336167D01*
X181014812Y-111319224D01*
X181018500Y-111304417D01*
X181035443Y-111276355D01*
X181050250Y-111272667D01*
X181078435Y-111262456D01*
X181082000Y-111253795D01*
X181100049Y-111235614D01*
X181139996Y-111220367D01*
X181187012Y-111202752D01*
X181211029Y-111184717D01*
X181238566Y-111168928D01*
X181291562Y-111155075D01*
X181311782Y-111151858D01*
X181365864Y-111140669D01*
X181396733Y-111126658D01*
X181399500Y-111121713D01*
X181417904Y-111108805D01*
X181462244Y-111103335D01*
X181463000Y-111103334D01*
X181507596Y-111108661D01*
G36*
X181507596Y-111108661D02*
G01*
X181526495Y-111121495D01*
X181526500Y-111121713D01*
X181545300Y-111135472D01*
X181592569Y-111148312D01*
X181616003Y-111152098D01*
X181672777Y-111164318D01*
X181708311Y-111180638D01*
X181713017Y-111186635D01*
X181737727Y-111207226D01*
X181750513Y-111209167D01*
X181777036Y-111226149D01*
X181780500Y-111240917D01*
X181763556Y-111268979D01*
X181748750Y-111272667D01*
X181720687Y-111289610D01*
X181717000Y-111304417D01*
X181698067Y-111329623D01*
X181653500Y-111336167D01*
X181603086Y-111326701D01*
X181590000Y-111304417D01*
X181580246Y-111285981D01*
X181545671Y-111276083D01*
X181478302Y-111272729D01*
X181463000Y-111272667D01*
X181389256Y-111275105D01*
X181349664Y-111283749D01*
X181336250Y-111300591D01*
X181336000Y-111304417D01*
X181317067Y-111329623D01*
X181272500Y-111336167D01*
X181222086Y-111345633D01*
X181209000Y-111367917D01*
X181192056Y-111395979D01*
X181177250Y-111399667D01*
X181149187Y-111416610D01*
X181145500Y-111431417D01*
X181128556Y-111459479D01*
X181113750Y-111463167D01*
X181100061Y-111469535D01*
X181090852Y-111492958D01*
X181085312Y-111539911D01*
X181082634Y-111616872D01*
X181082000Y-111717167D01*
X181082796Y-111826677D01*
X181085723Y-111900351D01*
X181091593Y-111944664D01*
X181101213Y-111966094D01*
X181113750Y-111971167D01*
X181141812Y-111988110D01*
X181145500Y-112002917D01*
X181165076Y-112028658D01*
X181214291Y-112038372D01*
X181299058Y-112039624D01*
X181376560Y-112035064D01*
X181435146Y-112025872D01*
X181463168Y-112013227D01*
X181463211Y-112013158D01*
X181489863Y-111995632D01*
X181532003Y-111981134D01*
X181574687Y-111975833D01*
X181589466Y-111992362D01*
X181590000Y-112000622D01*
X181605964Y-112030130D01*
X181621750Y-112034667D01*
X181649812Y-112051610D01*
X181653500Y-112066417D01*
X181634567Y-112091623D01*
X181590000Y-112098167D01*
X181539586Y-112107633D01*
X181526500Y-112129917D01*
X181507567Y-112155123D01*
X181463000Y-112161667D01*
X181412586Y-112171133D01*
X181399500Y-112193417D01*
X181389746Y-112211853D01*
X181355171Y-112221751D01*
X181287802Y-112225104D01*
X181272500Y-112225167D01*
X181198756Y-112222728D01*
X181159164Y-112214085D01*
X181145750Y-112197242D01*
X181145500Y-112193417D01*
X181133034Y-112172490D01*
X181090649Y-112162958D01*
X181050250Y-112161667D01*
X180987469Y-112157512D01*
X180958872Y-112143383D01*
X180955000Y-112129917D01*
X180938056Y-112101855D01*
X180923250Y-112098167D01*
X180898043Y-112079235D01*
X180891500Y-112034667D01*
X180882033Y-111984254D01*
X180859750Y-111971167D01*
X180845251Y-111964353D01*
X180835819Y-111939356D01*
X180830478Y-111889342D01*
X180828251Y-111807477D01*
X180828000Y-111748917D01*
X180828973Y-111647425D01*
X180832544Y-111581402D01*
X180839689Y-111544014D01*
X180851384Y-111528426D01*
X180859750Y-111526667D01*
X180884956Y-111507735D01*
X180891500Y-111463167D01*
X180900966Y-111412754D01*
X180923250Y-111399667D01*
X180951312Y-111382724D01*
X180955000Y-111367917D01*
X180971943Y-111339855D01*
X180986750Y-111336167D01*
X181014812Y-111319224D01*
X181018500Y-111304417D01*
X181035443Y-111276355D01*
X181050250Y-111272667D01*
X181078435Y-111262456D01*
X181082000Y-111253795D01*
X181100049Y-111235614D01*
X181139996Y-111220367D01*
X181187012Y-111202752D01*
X181211029Y-111184717D01*
X181238566Y-111168928D01*
X181291562Y-111155075D01*
X181311782Y-111151858D01*
X181365864Y-111140669D01*
X181396733Y-111126658D01*
X181399500Y-111121713D01*
X181417904Y-111108805D01*
X181462244Y-111103335D01*
X181463000Y-111103334D01*
X181507596Y-111108661D01*
G37*
X183876000Y-111082167D02*
X183866533Y-111132580D01*
X183844250Y-111145667D01*
X183825814Y-111155420D01*
X183815916Y-111189995D01*
X183812562Y-111257365D01*
X183812500Y-111272667D01*
X183810061Y-111346410D01*
X183801417Y-111386002D01*
X183784575Y-111399416D01*
X183780750Y-111399667D01*
X183762314Y-111409420D01*
X183752416Y-111443995D01*
X183749062Y-111511365D01*
X183749000Y-111526667D01*
X183746561Y-111600410D01*
X183737917Y-111640002D01*
X183721075Y-111653416D01*
X183717250Y-111653667D01*
X183698814Y-111663420D01*
X183688916Y-111697995D01*
X183685562Y-111765365D01*
X183685500Y-111780667D01*
X183683061Y-111854410D01*
X183674417Y-111894002D01*
X183657575Y-111907416D01*
X183653750Y-111907667D01*
X183632823Y-111920132D01*
X183623290Y-111962518D01*
X183622000Y-112002917D01*
X183617844Y-112065697D01*
X183603716Y-112094294D01*
X183590250Y-112098167D01*
X183569323Y-112110632D01*
X183559790Y-112153018D01*
X183558500Y-112193417D01*
X183554344Y-112256197D01*
X183540216Y-112284794D01*
X183526750Y-112288667D01*
X183501543Y-112307599D01*
X183495000Y-112352167D01*
X183485533Y-112402580D01*
X183463250Y-112415667D01*
X183435187Y-112432610D01*
X183431500Y-112447417D01*
X183414556Y-112475479D01*
X183399750Y-112479167D01*
X183371687Y-112496110D01*
X183368000Y-112510917D01*
X183351056Y-112538979D01*
X183336250Y-112542667D01*
X183308187Y-112559610D01*
X183304500Y-112574417D01*
X183287556Y-112602479D01*
X183272750Y-112606167D01*
X183244687Y-112623110D01*
X183241000Y-112637917D01*
X183228534Y-112658844D01*
X183186149Y-112668376D01*
X183145750Y-112669667D01*
X183082969Y-112673822D01*
X183054372Y-112687950D01*
X183050500Y-112701417D01*
X183045141Y-112712890D01*
X183025451Y-112721288D01*
X182986009Y-112727061D01*
X182921395Y-112730663D01*
X182826189Y-112732544D01*
X182694970Y-112733156D01*
X182669500Y-112733167D01*
X182288500Y-112733167D01*
X182288500Y-112606167D01*
X182290938Y-112532424D01*
X182299582Y-112492831D01*
X182316424Y-112479417D01*
X182320250Y-112479167D01*
X182345581Y-112460441D01*
X182352000Y-112419870D01*
X182352000Y-112360574D01*
X182630598Y-112361662D01*
X182753986Y-112360922D01*
X182839652Y-112357311D01*
X182892136Y-112350430D01*
X182915978Y-112339877D01*
X182918112Y-112336292D01*
X182944194Y-112312082D01*
X182957013Y-112309834D01*
X182981327Y-112292203D01*
X182987000Y-112267500D01*
X183000234Y-112233024D01*
X183018750Y-112225167D01*
X183043956Y-112206235D01*
X183050500Y-112161667D01*
X183059966Y-112111254D01*
X183082250Y-112098167D01*
X183100685Y-112088413D01*
X183110583Y-112053838D01*
X183113937Y-111986469D01*
X183114000Y-111971167D01*
X183116438Y-111897424D01*
X183125082Y-111857831D01*
X183141924Y-111844417D01*
X183145750Y-111844167D01*
X183164185Y-111834413D01*
X183174083Y-111799838D01*
X183177437Y-111732469D01*
X183177500Y-111717167D01*
X183179938Y-111643424D01*
X183188582Y-111603831D01*
X183205424Y-111590417D01*
X183209250Y-111590167D01*
X183227685Y-111580413D01*
X183237583Y-111545838D01*
X183240937Y-111478469D01*
X183241000Y-111463167D01*
X183241000Y-111336167D01*
X183050500Y-111336167D01*
X183050500Y-111209167D01*
X183052938Y-111135424D01*
X183061582Y-111095831D01*
X183078424Y-111082417D01*
X183082250Y-111082167D01*
X183110312Y-111065224D01*
X183114000Y-111050417D01*
X183119358Y-111038944D01*
X183139048Y-111030546D01*
X183178490Y-111024772D01*
X183243104Y-111021171D01*
X183338310Y-111019290D01*
X183469529Y-111018677D01*
X183495000Y-111018667D01*
X183876000Y-111018667D01*
X183876000Y-111082167D01*
G36*
X183876000Y-111082167D02*
G01*
X183866533Y-111132580D01*
X183844250Y-111145667D01*
X183825814Y-111155420D01*
X183815916Y-111189995D01*
X183812562Y-111257365D01*
X183812500Y-111272667D01*
X183810061Y-111346410D01*
X183801417Y-111386002D01*
X183784575Y-111399416D01*
X183780750Y-111399667D01*
X183762314Y-111409420D01*
X183752416Y-111443995D01*
X183749062Y-111511365D01*
X183749000Y-111526667D01*
X183746561Y-111600410D01*
X183737917Y-111640002D01*
X183721075Y-111653416D01*
X183717250Y-111653667D01*
X183698814Y-111663420D01*
X183688916Y-111697995D01*
X183685562Y-111765365D01*
X183685500Y-111780667D01*
X183683061Y-111854410D01*
X183674417Y-111894002D01*
X183657575Y-111907416D01*
X183653750Y-111907667D01*
X183632823Y-111920132D01*
X183623290Y-111962518D01*
X183622000Y-112002917D01*
X183617844Y-112065697D01*
X183603716Y-112094294D01*
X183590250Y-112098167D01*
X183569323Y-112110632D01*
X183559790Y-112153018D01*
X183558500Y-112193417D01*
X183554344Y-112256197D01*
X183540216Y-112284794D01*
X183526750Y-112288667D01*
X183501543Y-112307599D01*
X183495000Y-112352167D01*
X183485533Y-112402580D01*
X183463250Y-112415667D01*
X183435187Y-112432610D01*
X183431500Y-112447417D01*
X183414556Y-112475479D01*
X183399750Y-112479167D01*
X183371687Y-112496110D01*
X183368000Y-112510917D01*
X183351056Y-112538979D01*
X183336250Y-112542667D01*
X183308187Y-112559610D01*
X183304500Y-112574417D01*
X183287556Y-112602479D01*
X183272750Y-112606167D01*
X183244687Y-112623110D01*
X183241000Y-112637917D01*
X183228534Y-112658844D01*
X183186149Y-112668376D01*
X183145750Y-112669667D01*
X183082969Y-112673822D01*
X183054372Y-112687950D01*
X183050500Y-112701417D01*
X183045141Y-112712890D01*
X183025451Y-112721288D01*
X182986009Y-112727061D01*
X182921395Y-112730663D01*
X182826189Y-112732544D01*
X182694970Y-112733156D01*
X182669500Y-112733167D01*
X182288500Y-112733167D01*
X182288500Y-112606167D01*
X182290938Y-112532424D01*
X182299582Y-112492831D01*
X182316424Y-112479417D01*
X182320250Y-112479167D01*
X182345581Y-112460441D01*
X182352000Y-112419870D01*
X182352000Y-112360574D01*
X182630598Y-112361662D01*
X182753986Y-112360922D01*
X182839652Y-112357311D01*
X182892136Y-112350430D01*
X182915978Y-112339877D01*
X182918112Y-112336292D01*
X182944194Y-112312082D01*
X182957013Y-112309834D01*
X182981327Y-112292203D01*
X182987000Y-112267500D01*
X183000234Y-112233024D01*
X183018750Y-112225167D01*
X183043956Y-112206235D01*
X183050500Y-112161667D01*
X183059966Y-112111254D01*
X183082250Y-112098167D01*
X183100685Y-112088413D01*
X183110583Y-112053838D01*
X183113937Y-111986469D01*
X183114000Y-111971167D01*
X183116438Y-111897424D01*
X183125082Y-111857831D01*
X183141924Y-111844417D01*
X183145750Y-111844167D01*
X183164185Y-111834413D01*
X183174083Y-111799838D01*
X183177437Y-111732469D01*
X183177500Y-111717167D01*
X183179938Y-111643424D01*
X183188582Y-111603831D01*
X183205424Y-111590417D01*
X183209250Y-111590167D01*
X183227685Y-111580413D01*
X183237583Y-111545838D01*
X183240937Y-111478469D01*
X183241000Y-111463167D01*
X183241000Y-111336167D01*
X183050500Y-111336167D01*
X183050500Y-111209167D01*
X183052938Y-111135424D01*
X183061582Y-111095831D01*
X183078424Y-111082417D01*
X183082250Y-111082167D01*
X183110312Y-111065224D01*
X183114000Y-111050417D01*
X183119358Y-111038944D01*
X183139048Y-111030546D01*
X183178490Y-111024772D01*
X183243104Y-111021171D01*
X183338310Y-111019290D01*
X183469529Y-111018677D01*
X183495000Y-111018667D01*
X183876000Y-111018667D01*
X183876000Y-111082167D01*
G37*
X188268047Y-111018687D02*
X188402614Y-111020206D01*
X188533963Y-111022238D01*
X188722346Y-111026169D01*
X188869639Y-111031137D01*
X188977073Y-111037215D01*
X189045883Y-111044477D01*
X189077299Y-111052996D01*
X189079217Y-111054880D01*
X189109234Y-111077371D01*
X189152003Y-111093367D01*
X189193934Y-111109235D01*
X189210000Y-111125113D01*
X189228226Y-111141140D01*
X189272202Y-111155962D01*
X189273500Y-111156250D01*
X189320470Y-111175000D01*
X189336512Y-111209821D01*
X189337000Y-111221432D01*
X189348344Y-111262729D01*
X189368750Y-111272667D01*
X189393956Y-111291599D01*
X189400500Y-111336167D01*
X189409966Y-111386580D01*
X189432250Y-111399667D01*
X189457456Y-111418599D01*
X189464000Y-111463167D01*
X189454533Y-111513580D01*
X189432250Y-111526667D01*
X189413814Y-111536420D01*
X189403916Y-111570995D01*
X189400562Y-111638365D01*
X189400500Y-111653667D01*
X189398061Y-111727410D01*
X189389417Y-111767002D01*
X189372575Y-111780416D01*
X189368750Y-111780667D01*
X189340687Y-111797610D01*
X189337000Y-111812417D01*
X189320056Y-111840479D01*
X189305250Y-111844167D01*
X189277187Y-111861110D01*
X189273500Y-111875917D01*
X189256556Y-111903979D01*
X189241750Y-111907667D01*
X189213687Y-111924610D01*
X189210000Y-111939417D01*
X189193056Y-111967479D01*
X189178250Y-111971167D01*
X189150187Y-111988110D01*
X189146500Y-112002917D01*
X189127567Y-112028123D01*
X189083000Y-112034667D01*
X189032586Y-112044133D01*
X189019500Y-112066417D01*
X189009746Y-112084853D01*
X188975171Y-112094751D01*
X188907802Y-112098104D01*
X188892500Y-112098167D01*
X188818756Y-112100605D01*
X188779164Y-112109249D01*
X188765750Y-112126091D01*
X188765500Y-112129917D01*
X188759471Y-112142926D01*
X188737279Y-112151917D01*
X188692762Y-112157575D01*
X188619757Y-112160585D01*
X188512105Y-112161632D01*
X188479750Y-112161667D01*
X188194000Y-112161667D01*
X188194000Y-112256917D01*
X188189844Y-112319697D01*
X188175716Y-112348294D01*
X188162250Y-112352167D01*
X188143814Y-112361920D01*
X188133916Y-112396495D01*
X188130562Y-112463865D01*
X188130500Y-112479167D01*
X188128061Y-112552910D01*
X188119417Y-112592502D01*
X188102575Y-112605916D01*
X188098750Y-112606167D01*
X188073543Y-112625099D01*
X188067000Y-112669667D01*
X188067000Y-112733167D01*
X187559000Y-112733167D01*
X187559000Y-112637917D01*
X187563155Y-112575136D01*
X187577283Y-112546540D01*
X187590750Y-112542667D01*
X187609185Y-112532913D01*
X187619083Y-112498338D01*
X187622437Y-112430969D01*
X187622500Y-112415667D01*
X187624938Y-112341924D01*
X187633582Y-112302331D01*
X187650424Y-112288917D01*
X187654250Y-112288667D01*
X187672685Y-112278913D01*
X187682583Y-112244338D01*
X187685937Y-112176969D01*
X187686000Y-112161667D01*
X187688438Y-112087924D01*
X187697082Y-112048331D01*
X187713924Y-112034917D01*
X187717750Y-112034667D01*
X187736185Y-112024913D01*
X187746083Y-111990338D01*
X187749437Y-111922969D01*
X187749500Y-111907667D01*
X187751938Y-111833924D01*
X187760582Y-111794331D01*
X187777424Y-111780917D01*
X187781250Y-111780667D01*
X187799685Y-111770913D01*
X187809583Y-111736338D01*
X187810537Y-111717167D01*
X188321000Y-111717167D01*
X188321000Y-111844167D01*
X188448000Y-111844167D01*
X188515647Y-111840954D01*
X188561510Y-111832559D01*
X188575000Y-111823000D01*
X188592947Y-111806367D01*
X188622625Y-111801544D01*
X188696123Y-111793736D01*
X188747035Y-111773839D01*
X188765500Y-111746448D01*
X188782496Y-111720542D01*
X188797250Y-111717167D01*
X188825312Y-111700224D01*
X188829000Y-111685417D01*
X188845943Y-111657355D01*
X188860750Y-111653667D01*
X188881676Y-111641201D01*
X188891209Y-111598816D01*
X188892500Y-111558417D01*
X188888344Y-111495636D01*
X188874216Y-111467040D01*
X188860750Y-111463167D01*
X188832687Y-111446224D01*
X188829000Y-111431417D01*
X188812056Y-111403355D01*
X188797250Y-111399667D01*
X188769187Y-111382724D01*
X188765500Y-111367917D01*
X188758076Y-111352427D01*
X188730981Y-111342779D01*
X188676982Y-111337766D01*
X188588843Y-111336184D01*
X188575000Y-111336167D01*
X188384500Y-111336167D01*
X188384500Y-111463167D01*
X188382061Y-111536910D01*
X188373417Y-111576502D01*
X188356575Y-111589916D01*
X188352750Y-111590167D01*
X188334314Y-111599920D01*
X188324416Y-111634495D01*
X188321062Y-111701865D01*
X188321000Y-111717167D01*
X187810537Y-111717167D01*
X187812937Y-111668969D01*
X187813000Y-111653667D01*
X187815438Y-111579924D01*
X187824082Y-111540331D01*
X187840924Y-111526917D01*
X187844750Y-111526667D01*
X187865676Y-111514201D01*
X187875209Y-111471816D01*
X187876500Y-111431417D01*
X187880655Y-111368636D01*
X187894783Y-111340040D01*
X187908250Y-111336167D01*
X187926685Y-111326413D01*
X187936583Y-111291838D01*
X187939937Y-111224469D01*
X187940000Y-111209167D01*
X187942438Y-111135424D01*
X187951082Y-111095831D01*
X187967924Y-111082417D01*
X187971750Y-111082167D01*
X187999205Y-111065029D01*
X188003500Y-111047846D01*
X188006865Y-111037276D01*
X188020147Y-111029298D01*
X188048127Y-111023681D01*
X188095583Y-111020194D01*
X188167297Y-111018606D01*
X188268047Y-111018687D01*
G36*
X188268047Y-111018687D02*
G01*
X188402614Y-111020206D01*
X188533963Y-111022238D01*
X188722346Y-111026169D01*
X188869639Y-111031137D01*
X188977073Y-111037215D01*
X189045883Y-111044477D01*
X189077299Y-111052996D01*
X189079217Y-111054880D01*
X189109234Y-111077371D01*
X189152003Y-111093367D01*
X189193934Y-111109235D01*
X189210000Y-111125113D01*
X189228226Y-111141140D01*
X189272202Y-111155962D01*
X189273500Y-111156250D01*
X189320470Y-111175000D01*
X189336512Y-111209821D01*
X189337000Y-111221432D01*
X189348344Y-111262729D01*
X189368750Y-111272667D01*
X189393956Y-111291599D01*
X189400500Y-111336167D01*
X189409966Y-111386580D01*
X189432250Y-111399667D01*
X189457456Y-111418599D01*
X189464000Y-111463167D01*
X189454533Y-111513580D01*
X189432250Y-111526667D01*
X189413814Y-111536420D01*
X189403916Y-111570995D01*
X189400562Y-111638365D01*
X189400500Y-111653667D01*
X189398061Y-111727410D01*
X189389417Y-111767002D01*
X189372575Y-111780416D01*
X189368750Y-111780667D01*
X189340687Y-111797610D01*
X189337000Y-111812417D01*
X189320056Y-111840479D01*
X189305250Y-111844167D01*
X189277187Y-111861110D01*
X189273500Y-111875917D01*
X189256556Y-111903979D01*
X189241750Y-111907667D01*
X189213687Y-111924610D01*
X189210000Y-111939417D01*
X189193056Y-111967479D01*
X189178250Y-111971167D01*
X189150187Y-111988110D01*
X189146500Y-112002917D01*
X189127567Y-112028123D01*
X189083000Y-112034667D01*
X189032586Y-112044133D01*
X189019500Y-112066417D01*
X189009746Y-112084853D01*
X188975171Y-112094751D01*
X188907802Y-112098104D01*
X188892500Y-112098167D01*
X188818756Y-112100605D01*
X188779164Y-112109249D01*
X188765750Y-112126091D01*
X188765500Y-112129917D01*
X188759471Y-112142926D01*
X188737279Y-112151917D01*
X188692762Y-112157575D01*
X188619757Y-112160585D01*
X188512105Y-112161632D01*
X188479750Y-112161667D01*
X188194000Y-112161667D01*
X188194000Y-112256917D01*
X188189844Y-112319697D01*
X188175716Y-112348294D01*
X188162250Y-112352167D01*
X188143814Y-112361920D01*
X188133916Y-112396495D01*
X188130562Y-112463865D01*
X188130500Y-112479167D01*
X188128061Y-112552910D01*
X188119417Y-112592502D01*
X188102575Y-112605916D01*
X188098750Y-112606167D01*
X188073543Y-112625099D01*
X188067000Y-112669667D01*
X188067000Y-112733167D01*
X187559000Y-112733167D01*
X187559000Y-112637917D01*
X187563155Y-112575136D01*
X187577283Y-112546540D01*
X187590750Y-112542667D01*
X187609185Y-112532913D01*
X187619083Y-112498338D01*
X187622437Y-112430969D01*
X187622500Y-112415667D01*
X187624938Y-112341924D01*
X187633582Y-112302331D01*
X187650424Y-112288917D01*
X187654250Y-112288667D01*
X187672685Y-112278913D01*
X187682583Y-112244338D01*
X187685937Y-112176969D01*
X187686000Y-112161667D01*
X187688438Y-112087924D01*
X187697082Y-112048331D01*
X187713924Y-112034917D01*
X187717750Y-112034667D01*
X187736185Y-112024913D01*
X187746083Y-111990338D01*
X187749437Y-111922969D01*
X187749500Y-111907667D01*
X187751938Y-111833924D01*
X187760582Y-111794331D01*
X187777424Y-111780917D01*
X187781250Y-111780667D01*
X187799685Y-111770913D01*
X187809583Y-111736338D01*
X187810537Y-111717167D01*
X188321000Y-111717167D01*
X188321000Y-111844167D01*
X188448000Y-111844167D01*
X188515647Y-111840954D01*
X188561510Y-111832559D01*
X188575000Y-111823000D01*
X188592947Y-111806367D01*
X188622625Y-111801544D01*
X188696123Y-111793736D01*
X188747035Y-111773839D01*
X188765500Y-111746448D01*
X188782496Y-111720542D01*
X188797250Y-111717167D01*
X188825312Y-111700224D01*
X188829000Y-111685417D01*
X188845943Y-111657355D01*
X188860750Y-111653667D01*
X188881676Y-111641201D01*
X188891209Y-111598816D01*
X188892500Y-111558417D01*
X188888344Y-111495636D01*
X188874216Y-111467040D01*
X188860750Y-111463167D01*
X188832687Y-111446224D01*
X188829000Y-111431417D01*
X188812056Y-111403355D01*
X188797250Y-111399667D01*
X188769187Y-111382724D01*
X188765500Y-111367917D01*
X188758076Y-111352427D01*
X188730981Y-111342779D01*
X188676982Y-111337766D01*
X188588843Y-111336184D01*
X188575000Y-111336167D01*
X188384500Y-111336167D01*
X188384500Y-111463167D01*
X188382061Y-111536910D01*
X188373417Y-111576502D01*
X188356575Y-111589916D01*
X188352750Y-111590167D01*
X188334314Y-111599920D01*
X188324416Y-111634495D01*
X188321062Y-111701865D01*
X188321000Y-111717167D01*
X187810537Y-111717167D01*
X187812937Y-111668969D01*
X187813000Y-111653667D01*
X187815438Y-111579924D01*
X187824082Y-111540331D01*
X187840924Y-111526917D01*
X187844750Y-111526667D01*
X187865676Y-111514201D01*
X187875209Y-111471816D01*
X187876500Y-111431417D01*
X187880655Y-111368636D01*
X187894783Y-111340040D01*
X187908250Y-111336167D01*
X187926685Y-111326413D01*
X187936583Y-111291838D01*
X187939937Y-111224469D01*
X187940000Y-111209167D01*
X187942438Y-111135424D01*
X187951082Y-111095831D01*
X187967924Y-111082417D01*
X187971750Y-111082167D01*
X187999205Y-111065029D01*
X188003500Y-111047846D01*
X188006865Y-111037276D01*
X188020147Y-111029298D01*
X188048127Y-111023681D01*
X188095583Y-111020194D01*
X188167297Y-111018606D01*
X188268047Y-111018687D01*
G37*
X190817889Y-110978197D02*
X190882930Y-110983190D01*
X190919680Y-110990413D01*
X190924500Y-110994461D01*
X190943866Y-111005073D01*
X190994952Y-111016267D01*
X191067236Y-111025816D01*
X191077052Y-111026766D01*
X191153291Y-111036155D01*
X191211653Y-111047646D01*
X191240514Y-111058896D01*
X191241306Y-111059877D01*
X191268716Y-111078522D01*
X191311003Y-111093367D01*
X191352952Y-111109769D01*
X191369000Y-111126795D01*
X191386177Y-111143548D01*
X191400750Y-111145667D01*
X191428812Y-111162610D01*
X191432500Y-111177417D01*
X191415556Y-111205479D01*
X191400750Y-111209167D01*
X191382314Y-111218920D01*
X191372416Y-111253495D01*
X191369062Y-111320865D01*
X191369000Y-111336167D01*
X191366561Y-111409910D01*
X191357917Y-111449502D01*
X191341075Y-111462916D01*
X191337250Y-111463167D01*
X191312043Y-111482099D01*
X191305500Y-111526667D01*
X191296033Y-111577080D01*
X191273750Y-111590167D01*
X191245687Y-111573224D01*
X191242000Y-111558417D01*
X191225056Y-111530355D01*
X191210250Y-111526667D01*
X191182187Y-111509724D01*
X191178500Y-111494917D01*
X191159567Y-111469710D01*
X191115000Y-111463167D01*
X191064586Y-111453701D01*
X191051500Y-111431417D01*
X191032567Y-111406210D01*
X190988000Y-111399667D01*
X190937586Y-111390201D01*
X190924500Y-111367917D01*
X190917076Y-111352427D01*
X190889981Y-111342779D01*
X190835982Y-111337766D01*
X190747843Y-111336184D01*
X190734000Y-111336167D01*
X190641062Y-111337404D01*
X190583173Y-111341920D01*
X190553097Y-111350920D01*
X190543600Y-111365610D01*
X190543500Y-111367917D01*
X190524567Y-111393123D01*
X190480000Y-111399667D01*
X190429586Y-111409133D01*
X190416500Y-111431417D01*
X190397567Y-111456623D01*
X190353000Y-111463167D01*
X190302586Y-111472633D01*
X190289500Y-111494917D01*
X190272556Y-111522979D01*
X190257750Y-111526667D01*
X190232543Y-111545599D01*
X190226000Y-111590167D01*
X190216533Y-111640580D01*
X190194250Y-111653667D01*
X190169043Y-111672599D01*
X190162500Y-111717167D01*
X190153033Y-111767580D01*
X190130750Y-111780667D01*
X190116251Y-111787481D01*
X190106819Y-111812477D01*
X190101478Y-111862491D01*
X190099251Y-111944356D01*
X190099000Y-112002917D01*
X190099973Y-112104408D01*
X190103544Y-112170431D01*
X190110689Y-112207820D01*
X190122384Y-112223408D01*
X190130750Y-112225167D01*
X190158812Y-112242110D01*
X190162500Y-112256917D01*
X190179443Y-112284979D01*
X190194250Y-112288667D01*
X190222331Y-112304747D01*
X190226000Y-112318735D01*
X190244329Y-112343842D01*
X190288514Y-112362530D01*
X190289500Y-112362750D01*
X190333937Y-112378109D01*
X190352988Y-112395800D01*
X190353000Y-112396182D01*
X190372227Y-112406458D01*
X190422205Y-112413519D01*
X190480000Y-112415667D01*
X190546980Y-112412777D01*
X190592998Y-112405265D01*
X190607000Y-112396578D01*
X190626176Y-112384298D01*
X190676032Y-112371596D01*
X190734000Y-112362750D01*
X190813625Y-112349413D01*
X190854146Y-112331936D01*
X190861000Y-112318339D01*
X190880077Y-112295357D01*
X190924500Y-112288667D01*
X190974913Y-112279201D01*
X190988000Y-112256917D01*
X191004943Y-112228855D01*
X191019750Y-112225167D01*
X191047917Y-112213737D01*
X191051500Y-112204000D01*
X191068644Y-112185222D01*
X191083250Y-112182834D01*
X191100500Y-112191547D01*
X191110373Y-112222879D01*
X191114537Y-112284614D01*
X191115000Y-112331000D01*
X191113132Y-112411502D01*
X191106418Y-112457575D01*
X191093189Y-112477007D01*
X191083250Y-112479167D01*
X191058043Y-112498099D01*
X191051500Y-112542667D01*
X191046255Y-112587644D01*
X191021515Y-112604221D01*
X190988000Y-112606167D01*
X190937586Y-112615633D01*
X190924500Y-112637917D01*
X190912034Y-112658844D01*
X190869649Y-112668376D01*
X190829250Y-112669667D01*
X190766469Y-112673822D01*
X190737872Y-112687950D01*
X190734000Y-112701417D01*
X190728459Y-112713336D01*
X190708079Y-112721921D01*
X190667220Y-112727683D01*
X190600243Y-112731135D01*
X190501510Y-112732790D01*
X190384750Y-112733167D01*
X190253634Y-112732663D01*
X190159204Y-112730810D01*
X190095822Y-112727096D01*
X190057848Y-112721007D01*
X190039644Y-112712031D01*
X190035500Y-112701417D01*
X190016567Y-112676210D01*
X189972000Y-112669667D01*
X189921586Y-112660201D01*
X189908500Y-112637917D01*
X189889567Y-112612710D01*
X189845000Y-112606167D01*
X189794586Y-112596701D01*
X189781500Y-112574417D01*
X189764556Y-112546355D01*
X189749750Y-112542667D01*
X189721687Y-112525724D01*
X189718000Y-112510917D01*
X189701056Y-112482855D01*
X189686250Y-112479167D01*
X189661043Y-112460235D01*
X189654500Y-112415667D01*
X189645033Y-112365254D01*
X189622750Y-112352167D01*
X189610323Y-112346408D01*
X189601541Y-112325208D01*
X189595814Y-112282683D01*
X189592553Y-112212949D01*
X189591172Y-112110121D01*
X189591000Y-112034667D01*
X189591575Y-111910403D01*
X189593695Y-111822578D01*
X189597948Y-111765307D01*
X189604921Y-111732706D01*
X189615204Y-111718891D01*
X189622750Y-111717167D01*
X189647956Y-111698235D01*
X189654500Y-111653667D01*
X189663966Y-111603254D01*
X189686250Y-111590167D01*
X189711456Y-111571235D01*
X189718000Y-111526667D01*
X189727466Y-111476254D01*
X189749750Y-111463167D01*
X189777812Y-111446224D01*
X189781500Y-111431417D01*
X189798443Y-111403355D01*
X189813250Y-111399667D01*
X189841312Y-111382724D01*
X189845000Y-111367917D01*
X189861943Y-111339855D01*
X189876750Y-111336167D01*
X189904812Y-111319224D01*
X189908500Y-111304417D01*
X189925443Y-111276355D01*
X189940250Y-111272667D01*
X189968312Y-111255724D01*
X189972000Y-111240917D01*
X189988943Y-111212855D01*
X190003750Y-111209167D01*
X190031931Y-111198630D01*
X190035500Y-111189682D01*
X190053747Y-111172039D01*
X190097765Y-111156525D01*
X190099000Y-111156250D01*
X190143421Y-111141382D01*
X190162487Y-111124862D01*
X190162500Y-111124500D01*
X190180732Y-111108041D01*
X190224719Y-111093035D01*
X190226000Y-111092750D01*
X190270418Y-111077997D01*
X190289486Y-111061754D01*
X190289500Y-111061397D01*
X190308671Y-111050004D01*
X190358517Y-111037912D01*
X190416500Y-111029250D01*
X190483397Y-111018604D01*
X190529408Y-111005770D01*
X190543500Y-110995422D01*
X190563087Y-110987016D01*
X190615555Y-110980499D01*
X190691461Y-110976816D01*
X190734000Y-110976334D01*
X190817889Y-110978197D01*
G36*
X190817889Y-110978197D02*
G01*
X190882930Y-110983190D01*
X190919680Y-110990413D01*
X190924500Y-110994461D01*
X190943866Y-111005073D01*
X190994952Y-111016267D01*
X191067236Y-111025816D01*
X191077052Y-111026766D01*
X191153291Y-111036155D01*
X191211653Y-111047646D01*
X191240514Y-111058896D01*
X191241306Y-111059877D01*
X191268716Y-111078522D01*
X191311003Y-111093367D01*
X191352952Y-111109769D01*
X191369000Y-111126795D01*
X191386177Y-111143548D01*
X191400750Y-111145667D01*
X191428812Y-111162610D01*
X191432500Y-111177417D01*
X191415556Y-111205479D01*
X191400750Y-111209167D01*
X191382314Y-111218920D01*
X191372416Y-111253495D01*
X191369062Y-111320865D01*
X191369000Y-111336167D01*
X191366561Y-111409910D01*
X191357917Y-111449502D01*
X191341075Y-111462916D01*
X191337250Y-111463167D01*
X191312043Y-111482099D01*
X191305500Y-111526667D01*
X191296033Y-111577080D01*
X191273750Y-111590167D01*
X191245687Y-111573224D01*
X191242000Y-111558417D01*
X191225056Y-111530355D01*
X191210250Y-111526667D01*
X191182187Y-111509724D01*
X191178500Y-111494917D01*
X191159567Y-111469710D01*
X191115000Y-111463167D01*
X191064586Y-111453701D01*
X191051500Y-111431417D01*
X191032567Y-111406210D01*
X190988000Y-111399667D01*
X190937586Y-111390201D01*
X190924500Y-111367917D01*
X190917076Y-111352427D01*
X190889981Y-111342779D01*
X190835982Y-111337766D01*
X190747843Y-111336184D01*
X190734000Y-111336167D01*
X190641062Y-111337404D01*
X190583173Y-111341920D01*
X190553097Y-111350920D01*
X190543600Y-111365610D01*
X190543500Y-111367917D01*
X190524567Y-111393123D01*
X190480000Y-111399667D01*
X190429586Y-111409133D01*
X190416500Y-111431417D01*
X190397567Y-111456623D01*
X190353000Y-111463167D01*
X190302586Y-111472633D01*
X190289500Y-111494917D01*
X190272556Y-111522979D01*
X190257750Y-111526667D01*
X190232543Y-111545599D01*
X190226000Y-111590167D01*
X190216533Y-111640580D01*
X190194250Y-111653667D01*
X190169043Y-111672599D01*
X190162500Y-111717167D01*
X190153033Y-111767580D01*
X190130750Y-111780667D01*
X190116251Y-111787481D01*
X190106819Y-111812477D01*
X190101478Y-111862491D01*
X190099251Y-111944356D01*
X190099000Y-112002917D01*
X190099973Y-112104408D01*
X190103544Y-112170431D01*
X190110689Y-112207820D01*
X190122384Y-112223408D01*
X190130750Y-112225167D01*
X190158812Y-112242110D01*
X190162500Y-112256917D01*
X190179443Y-112284979D01*
X190194250Y-112288667D01*
X190222331Y-112304747D01*
X190226000Y-112318735D01*
X190244329Y-112343842D01*
X190288514Y-112362530D01*
X190289500Y-112362750D01*
X190333937Y-112378109D01*
X190352988Y-112395800D01*
X190353000Y-112396182D01*
X190372227Y-112406458D01*
X190422205Y-112413519D01*
X190480000Y-112415667D01*
X190546980Y-112412777D01*
X190592998Y-112405265D01*
X190607000Y-112396578D01*
X190626176Y-112384298D01*
X190676032Y-112371596D01*
X190734000Y-112362750D01*
X190813625Y-112349413D01*
X190854146Y-112331936D01*
X190861000Y-112318339D01*
X190880077Y-112295357D01*
X190924500Y-112288667D01*
X190974913Y-112279201D01*
X190988000Y-112256917D01*
X191004943Y-112228855D01*
X191019750Y-112225167D01*
X191047917Y-112213737D01*
X191051500Y-112204000D01*
X191068644Y-112185222D01*
X191083250Y-112182834D01*
X191100500Y-112191547D01*
X191110373Y-112222879D01*
X191114537Y-112284614D01*
X191115000Y-112331000D01*
X191113132Y-112411502D01*
X191106418Y-112457575D01*
X191093189Y-112477007D01*
X191083250Y-112479167D01*
X191058043Y-112498099D01*
X191051500Y-112542667D01*
X191046255Y-112587644D01*
X191021515Y-112604221D01*
X190988000Y-112606167D01*
X190937586Y-112615633D01*
X190924500Y-112637917D01*
X190912034Y-112658844D01*
X190869649Y-112668376D01*
X190829250Y-112669667D01*
X190766469Y-112673822D01*
X190737872Y-112687950D01*
X190734000Y-112701417D01*
X190728459Y-112713336D01*
X190708079Y-112721921D01*
X190667220Y-112727683D01*
X190600243Y-112731135D01*
X190501510Y-112732790D01*
X190384750Y-112733167D01*
X190253634Y-112732663D01*
X190159204Y-112730810D01*
X190095822Y-112727096D01*
X190057848Y-112721007D01*
X190039644Y-112712031D01*
X190035500Y-112701417D01*
X190016567Y-112676210D01*
X189972000Y-112669667D01*
X189921586Y-112660201D01*
X189908500Y-112637917D01*
X189889567Y-112612710D01*
X189845000Y-112606167D01*
X189794586Y-112596701D01*
X189781500Y-112574417D01*
X189764556Y-112546355D01*
X189749750Y-112542667D01*
X189721687Y-112525724D01*
X189718000Y-112510917D01*
X189701056Y-112482855D01*
X189686250Y-112479167D01*
X189661043Y-112460235D01*
X189654500Y-112415667D01*
X189645033Y-112365254D01*
X189622750Y-112352167D01*
X189610323Y-112346408D01*
X189601541Y-112325208D01*
X189595814Y-112282683D01*
X189592553Y-112212949D01*
X189591172Y-112110121D01*
X189591000Y-112034667D01*
X189591575Y-111910403D01*
X189593695Y-111822578D01*
X189597948Y-111765307D01*
X189604921Y-111732706D01*
X189615204Y-111718891D01*
X189622750Y-111717167D01*
X189647956Y-111698235D01*
X189654500Y-111653667D01*
X189663966Y-111603254D01*
X189686250Y-111590167D01*
X189711456Y-111571235D01*
X189718000Y-111526667D01*
X189727466Y-111476254D01*
X189749750Y-111463167D01*
X189777812Y-111446224D01*
X189781500Y-111431417D01*
X189798443Y-111403355D01*
X189813250Y-111399667D01*
X189841312Y-111382724D01*
X189845000Y-111367917D01*
X189861943Y-111339855D01*
X189876750Y-111336167D01*
X189904812Y-111319224D01*
X189908500Y-111304417D01*
X189925443Y-111276355D01*
X189940250Y-111272667D01*
X189968312Y-111255724D01*
X189972000Y-111240917D01*
X189988943Y-111212855D01*
X190003750Y-111209167D01*
X190031931Y-111198630D01*
X190035500Y-111189682D01*
X190053747Y-111172039D01*
X190097765Y-111156525D01*
X190099000Y-111156250D01*
X190143421Y-111141382D01*
X190162487Y-111124862D01*
X190162500Y-111124500D01*
X190180732Y-111108041D01*
X190224719Y-111093035D01*
X190226000Y-111092750D01*
X190270418Y-111077997D01*
X190289486Y-111061754D01*
X190289500Y-111061397D01*
X190308671Y-111050004D01*
X190358517Y-111037912D01*
X190416500Y-111029250D01*
X190483397Y-111018604D01*
X190529408Y-111005770D01*
X190543500Y-110995422D01*
X190563087Y-110987016D01*
X190615555Y-110980499D01*
X190691461Y-110976816D01*
X190734000Y-110976334D01*
X190817889Y-110978197D01*
G37*
X192239120Y-111018721D02*
X192365665Y-111020536D01*
X192493047Y-111023662D01*
X192614012Y-111027922D01*
X192721309Y-111033140D01*
X192807685Y-111039139D01*
X192865888Y-111045744D01*
X192888490Y-111052435D01*
X192917530Y-111070260D01*
X192971060Y-111085875D01*
X192988083Y-111088978D01*
X193043005Y-111102287D01*
X193076337Y-111119091D01*
X193079805Y-111124001D01*
X193104233Y-111143796D01*
X193117013Y-111145667D01*
X193143536Y-111162649D01*
X193147000Y-111177417D01*
X193163943Y-111205479D01*
X193178750Y-111209167D01*
X193203956Y-111228099D01*
X193210500Y-111272667D01*
X193219966Y-111323080D01*
X193242250Y-111336167D01*
X193267456Y-111355099D01*
X193274000Y-111399667D01*
X193264533Y-111450080D01*
X193242250Y-111463167D01*
X193221323Y-111475632D01*
X193211790Y-111518018D01*
X193210500Y-111558417D01*
X193206344Y-111621197D01*
X193192216Y-111649794D01*
X193178750Y-111653667D01*
X193150687Y-111670610D01*
X193147000Y-111685417D01*
X193128067Y-111710623D01*
X193083500Y-111717167D01*
X193033086Y-111726633D01*
X193020000Y-111748917D01*
X193003056Y-111776979D01*
X192988250Y-111780667D01*
X192960187Y-111797610D01*
X192956500Y-111812417D01*
X192973443Y-111840479D01*
X192988250Y-111844167D01*
X193016312Y-111861110D01*
X193020000Y-111875917D01*
X193036943Y-111903979D01*
X193051750Y-111907667D01*
X193079812Y-111924610D01*
X193083500Y-111939417D01*
X193100443Y-111967479D01*
X193115250Y-111971167D01*
X193140456Y-111990099D01*
X193147000Y-112034667D01*
X193156466Y-112085080D01*
X193178750Y-112098167D01*
X193206812Y-112115110D01*
X193210500Y-112129917D01*
X193193556Y-112157979D01*
X193178750Y-112161667D01*
X193157823Y-112174132D01*
X193148290Y-112216518D01*
X193147000Y-112256917D01*
X193142844Y-112319697D01*
X193128716Y-112348294D01*
X193115250Y-112352167D01*
X193090043Y-112371099D01*
X193083500Y-112415667D01*
X193074033Y-112466080D01*
X193051750Y-112479167D01*
X193023687Y-112496110D01*
X193020000Y-112510917D01*
X193001067Y-112536123D01*
X192956500Y-112542667D01*
X192906086Y-112552133D01*
X192893000Y-112574417D01*
X192874067Y-112599623D01*
X192829500Y-112606167D01*
X192779086Y-112615633D01*
X192766000Y-112637917D01*
X192756246Y-112656353D01*
X192721671Y-112666251D01*
X192654302Y-112669604D01*
X192639000Y-112669667D01*
X192565256Y-112672105D01*
X192525664Y-112680749D01*
X192512250Y-112697591D01*
X192512000Y-112701417D01*
X192507227Y-112711247D01*
X192489840Y-112718859D01*
X192455230Y-112724522D01*
X192398790Y-112728508D01*
X192315915Y-112731089D01*
X192201995Y-112732534D01*
X192052426Y-112733115D01*
X191972250Y-112733167D01*
X191432500Y-112733167D01*
X191432500Y-112637917D01*
X191436655Y-112575136D01*
X191450783Y-112546540D01*
X191464250Y-112542667D01*
X191482685Y-112532913D01*
X191492583Y-112498338D01*
X191495937Y-112430969D01*
X191496000Y-112415667D01*
X191498438Y-112341924D01*
X191501014Y-112330122D01*
X192007292Y-112330122D01*
X192030516Y-112355509D01*
X192041041Y-112359667D01*
X192087867Y-112366330D01*
X192159348Y-112368977D01*
X192244612Y-112368114D01*
X192332791Y-112364247D01*
X192413015Y-112357880D01*
X192474413Y-112349519D01*
X192506117Y-112339670D01*
X192507719Y-112337970D01*
X192538159Y-112314822D01*
X192581003Y-112298634D01*
X192613459Y-112287578D01*
X192630807Y-112267748D01*
X192637752Y-112227847D01*
X192639000Y-112159372D01*
X192639000Y-112034667D01*
X192543750Y-112034667D01*
X192480969Y-112030512D01*
X192452372Y-112016383D01*
X192448500Y-112002917D01*
X192440184Y-111986170D01*
X192410132Y-111976339D01*
X192350690Y-111971894D01*
X192289750Y-111971167D01*
X192206013Y-111972830D01*
X192156861Y-111978840D01*
X192134637Y-111990729D01*
X192131000Y-112002917D01*
X192114056Y-112030979D01*
X192099250Y-112034667D01*
X192080814Y-112044420D01*
X192070916Y-112078995D01*
X192067562Y-112146365D01*
X192067500Y-112161667D01*
X192065061Y-112235410D01*
X192056417Y-112275002D01*
X192039575Y-112288416D01*
X192035750Y-112288667D01*
X192008599Y-112301967D01*
X192007292Y-112330122D01*
X191501014Y-112330122D01*
X191507082Y-112302331D01*
X191523924Y-112288917D01*
X191527750Y-112288667D01*
X191546185Y-112278913D01*
X191556083Y-112244338D01*
X191559437Y-112176969D01*
X191559500Y-112161667D01*
X191561938Y-112087924D01*
X191570582Y-112048331D01*
X191587424Y-112034917D01*
X191591250Y-112034667D01*
X191609685Y-112024913D01*
X191619583Y-111990338D01*
X191622937Y-111922969D01*
X191623000Y-111907667D01*
X191625438Y-111833924D01*
X191634082Y-111794331D01*
X191650924Y-111780917D01*
X191654750Y-111780667D01*
X191673185Y-111770913D01*
X191683083Y-111736338D01*
X191686437Y-111668969D01*
X191686500Y-111653667D01*
X191688879Y-111581693D01*
X192193183Y-111581693D01*
X192200037Y-111624871D01*
X192221580Y-111655735D01*
X192231541Y-111660243D01*
X192299687Y-111669719D01*
X192392513Y-111671904D01*
X192492986Y-111666737D01*
X192540795Y-111661373D01*
X192607132Y-111646322D01*
X192637580Y-111625254D01*
X192639000Y-111619040D01*
X192656004Y-111593491D01*
X192670750Y-111590167D01*
X192691676Y-111577701D01*
X192701209Y-111535316D01*
X192702500Y-111494917D01*
X192698344Y-111432136D01*
X192684216Y-111403540D01*
X192670750Y-111399667D01*
X192642687Y-111382724D01*
X192639000Y-111367917D01*
X192631576Y-111352427D01*
X192604481Y-111342779D01*
X192550482Y-111337766D01*
X192462343Y-111336184D01*
X192448500Y-111336167D01*
X192258000Y-111336167D01*
X192258000Y-111431417D01*
X192253844Y-111494197D01*
X192239716Y-111522794D01*
X192226250Y-111526667D01*
X192201695Y-111543268D01*
X192193183Y-111581693D01*
X191688879Y-111581693D01*
X191688938Y-111579924D01*
X191697582Y-111540331D01*
X191714424Y-111526917D01*
X191718250Y-111526667D01*
X191736685Y-111516913D01*
X191746583Y-111482338D01*
X191749937Y-111414969D01*
X191750000Y-111399667D01*
X191752438Y-111325924D01*
X191761082Y-111286331D01*
X191777924Y-111272917D01*
X191781750Y-111272667D01*
X191800966Y-111262144D01*
X191810817Y-111225259D01*
X191813500Y-111157209D01*
X191814676Y-111090770D01*
X191822610Y-111054948D01*
X191843912Y-111038031D01*
X191885190Y-111028303D01*
X191886349Y-111028085D01*
X191937025Y-111022898D01*
X192017547Y-111019725D01*
X192120663Y-111018392D01*
X192239120Y-111018721D01*
G36*
X192239120Y-111018721D02*
G01*
X192365665Y-111020536D01*
X192493047Y-111023662D01*
X192614012Y-111027922D01*
X192721309Y-111033140D01*
X192807685Y-111039139D01*
X192865888Y-111045744D01*
X192888490Y-111052435D01*
X192917530Y-111070260D01*
X192971060Y-111085875D01*
X192988083Y-111088978D01*
X193043005Y-111102287D01*
X193076337Y-111119091D01*
X193079805Y-111124001D01*
X193104233Y-111143796D01*
X193117013Y-111145667D01*
X193143536Y-111162649D01*
X193147000Y-111177417D01*
X193163943Y-111205479D01*
X193178750Y-111209167D01*
X193203956Y-111228099D01*
X193210500Y-111272667D01*
X193219966Y-111323080D01*
X193242250Y-111336167D01*
X193267456Y-111355099D01*
X193274000Y-111399667D01*
X193264533Y-111450080D01*
X193242250Y-111463167D01*
X193221323Y-111475632D01*
X193211790Y-111518018D01*
X193210500Y-111558417D01*
X193206344Y-111621197D01*
X193192216Y-111649794D01*
X193178750Y-111653667D01*
X193150687Y-111670610D01*
X193147000Y-111685417D01*
X193128067Y-111710623D01*
X193083500Y-111717167D01*
X193033086Y-111726633D01*
X193020000Y-111748917D01*
X193003056Y-111776979D01*
X192988250Y-111780667D01*
X192960187Y-111797610D01*
X192956500Y-111812417D01*
X192973443Y-111840479D01*
X192988250Y-111844167D01*
X193016312Y-111861110D01*
X193020000Y-111875917D01*
X193036943Y-111903979D01*
X193051750Y-111907667D01*
X193079812Y-111924610D01*
X193083500Y-111939417D01*
X193100443Y-111967479D01*
X193115250Y-111971167D01*
X193140456Y-111990099D01*
X193147000Y-112034667D01*
X193156466Y-112085080D01*
X193178750Y-112098167D01*
X193206812Y-112115110D01*
X193210500Y-112129917D01*
X193193556Y-112157979D01*
X193178750Y-112161667D01*
X193157823Y-112174132D01*
X193148290Y-112216518D01*
X193147000Y-112256917D01*
X193142844Y-112319697D01*
X193128716Y-112348294D01*
X193115250Y-112352167D01*
X193090043Y-112371099D01*
X193083500Y-112415667D01*
X193074033Y-112466080D01*
X193051750Y-112479167D01*
X193023687Y-112496110D01*
X193020000Y-112510917D01*
X193001067Y-112536123D01*
X192956500Y-112542667D01*
X192906086Y-112552133D01*
X192893000Y-112574417D01*
X192874067Y-112599623D01*
X192829500Y-112606167D01*
X192779086Y-112615633D01*
X192766000Y-112637917D01*
X192756246Y-112656353D01*
X192721671Y-112666251D01*
X192654302Y-112669604D01*
X192639000Y-112669667D01*
X192565256Y-112672105D01*
X192525664Y-112680749D01*
X192512250Y-112697591D01*
X192512000Y-112701417D01*
X192507227Y-112711247D01*
X192489840Y-112718859D01*
X192455230Y-112724522D01*
X192398790Y-112728508D01*
X192315915Y-112731089D01*
X192201995Y-112732534D01*
X192052426Y-112733115D01*
X191972250Y-112733167D01*
X191432500Y-112733167D01*
X191432500Y-112637917D01*
X191436655Y-112575136D01*
X191450783Y-112546540D01*
X191464250Y-112542667D01*
X191482685Y-112532913D01*
X191492583Y-112498338D01*
X191495937Y-112430969D01*
X191496000Y-112415667D01*
X191498438Y-112341924D01*
X191501014Y-112330122D01*
X192007292Y-112330122D01*
X192030516Y-112355509D01*
X192041041Y-112359667D01*
X192087867Y-112366330D01*
X192159348Y-112368977D01*
X192244612Y-112368114D01*
X192332791Y-112364247D01*
X192413015Y-112357880D01*
X192474413Y-112349519D01*
X192506117Y-112339670D01*
X192507719Y-112337970D01*
X192538159Y-112314822D01*
X192581003Y-112298634D01*
X192613459Y-112287578D01*
X192630807Y-112267748D01*
X192637752Y-112227847D01*
X192639000Y-112159372D01*
X192639000Y-112034667D01*
X192543750Y-112034667D01*
X192480969Y-112030512D01*
X192452372Y-112016383D01*
X192448500Y-112002917D01*
X192440184Y-111986170D01*
X192410132Y-111976339D01*
X192350690Y-111971894D01*
X192289750Y-111971167D01*
X192206013Y-111972830D01*
X192156861Y-111978840D01*
X192134637Y-111990729D01*
X192131000Y-112002917D01*
X192114056Y-112030979D01*
X192099250Y-112034667D01*
X192080814Y-112044420D01*
X192070916Y-112078995D01*
X192067562Y-112146365D01*
X192067500Y-112161667D01*
X192065061Y-112235410D01*
X192056417Y-112275002D01*
X192039575Y-112288416D01*
X192035750Y-112288667D01*
X192008599Y-112301967D01*
X192007292Y-112330122D01*
X191501014Y-112330122D01*
X191507082Y-112302331D01*
X191523924Y-112288917D01*
X191527750Y-112288667D01*
X191546185Y-112278913D01*
X191556083Y-112244338D01*
X191559437Y-112176969D01*
X191559500Y-112161667D01*
X191561938Y-112087924D01*
X191570582Y-112048331D01*
X191587424Y-112034917D01*
X191591250Y-112034667D01*
X191609685Y-112024913D01*
X191619583Y-111990338D01*
X191622937Y-111922969D01*
X191623000Y-111907667D01*
X191625438Y-111833924D01*
X191634082Y-111794331D01*
X191650924Y-111780917D01*
X191654750Y-111780667D01*
X191673185Y-111770913D01*
X191683083Y-111736338D01*
X191686437Y-111668969D01*
X191686500Y-111653667D01*
X191688879Y-111581693D01*
X192193183Y-111581693D01*
X192200037Y-111624871D01*
X192221580Y-111655735D01*
X192231541Y-111660243D01*
X192299687Y-111669719D01*
X192392513Y-111671904D01*
X192492986Y-111666737D01*
X192540795Y-111661373D01*
X192607132Y-111646322D01*
X192637580Y-111625254D01*
X192639000Y-111619040D01*
X192656004Y-111593491D01*
X192670750Y-111590167D01*
X192691676Y-111577701D01*
X192701209Y-111535316D01*
X192702500Y-111494917D01*
X192698344Y-111432136D01*
X192684216Y-111403540D01*
X192670750Y-111399667D01*
X192642687Y-111382724D01*
X192639000Y-111367917D01*
X192631576Y-111352427D01*
X192604481Y-111342779D01*
X192550482Y-111337766D01*
X192462343Y-111336184D01*
X192448500Y-111336167D01*
X192258000Y-111336167D01*
X192258000Y-111431417D01*
X192253844Y-111494197D01*
X192239716Y-111522794D01*
X192226250Y-111526667D01*
X192201695Y-111543268D01*
X192193183Y-111581693D01*
X191688879Y-111581693D01*
X191688938Y-111579924D01*
X191697582Y-111540331D01*
X191714424Y-111526917D01*
X191718250Y-111526667D01*
X191736685Y-111516913D01*
X191746583Y-111482338D01*
X191749937Y-111414969D01*
X191750000Y-111399667D01*
X191752438Y-111325924D01*
X191761082Y-111286331D01*
X191777924Y-111272917D01*
X191781750Y-111272667D01*
X191800966Y-111262144D01*
X191810817Y-111225259D01*
X191813500Y-111157209D01*
X191814676Y-111090770D01*
X191822610Y-111054948D01*
X191843912Y-111038031D01*
X191885190Y-111028303D01*
X191886349Y-111028085D01*
X191937025Y-111022898D01*
X192017547Y-111019725D01*
X192120663Y-111018392D01*
X192239120Y-111018721D01*
G37*
X187007888Y-110978296D02*
X187072929Y-110983554D01*
X187109680Y-110991159D01*
X187114500Y-110995422D01*
X187133676Y-111007702D01*
X187183532Y-111020404D01*
X187241500Y-111029250D01*
X187308397Y-111039897D01*
X187354408Y-111052730D01*
X187368500Y-111063078D01*
X187386461Y-111078094D01*
X187416125Y-111082456D01*
X187493682Y-111088818D01*
X187537896Y-111110708D01*
X187556663Y-111154095D01*
X187559000Y-111190469D01*
X187553434Y-111248406D01*
X187535124Y-111271562D01*
X187527250Y-111272667D01*
X187506323Y-111285132D01*
X187496790Y-111327518D01*
X187495500Y-111367917D01*
X187491344Y-111430697D01*
X187477216Y-111459294D01*
X187463750Y-111463167D01*
X187435687Y-111480110D01*
X187432000Y-111494917D01*
X187413067Y-111520123D01*
X187368500Y-111526667D01*
X187318086Y-111517201D01*
X187305000Y-111494917D01*
X187288056Y-111466855D01*
X187273250Y-111463167D01*
X187245187Y-111446224D01*
X187241500Y-111431417D01*
X187222567Y-111406210D01*
X187178000Y-111399667D01*
X187127586Y-111390201D01*
X187114500Y-111367917D01*
X187107686Y-111353418D01*
X187082689Y-111343986D01*
X187032675Y-111338645D01*
X186950810Y-111336418D01*
X186892250Y-111336167D01*
X186790758Y-111337140D01*
X186724735Y-111340711D01*
X186687346Y-111347856D01*
X186671759Y-111359551D01*
X186670000Y-111367917D01*
X186651067Y-111393123D01*
X186606500Y-111399667D01*
X186556086Y-111409133D01*
X186543000Y-111431417D01*
X186526056Y-111459479D01*
X186511250Y-111463167D01*
X186483187Y-111480110D01*
X186479500Y-111494917D01*
X186462556Y-111522979D01*
X186447750Y-111526667D01*
X186419687Y-111543610D01*
X186416000Y-111558417D01*
X186399056Y-111586479D01*
X186384250Y-111590167D01*
X186356187Y-111607110D01*
X186352500Y-111621917D01*
X186335556Y-111649979D01*
X186320750Y-111653667D01*
X186302314Y-111663420D01*
X186292416Y-111697995D01*
X186289062Y-111765365D01*
X186289000Y-111780667D01*
X186286561Y-111854410D01*
X186277917Y-111894002D01*
X186261075Y-111907416D01*
X186257250Y-111907667D01*
X186238814Y-111917420D01*
X186228916Y-111951995D01*
X186225562Y-112019365D01*
X186225500Y-112034667D01*
X186227938Y-112108410D01*
X186236582Y-112148002D01*
X186253424Y-112161416D01*
X186257250Y-112161667D01*
X186282456Y-112180599D01*
X186289000Y-112225167D01*
X186298466Y-112275580D01*
X186320750Y-112288667D01*
X186348831Y-112304747D01*
X186352500Y-112318735D01*
X186370829Y-112343842D01*
X186415014Y-112362530D01*
X186416000Y-112362750D01*
X186460437Y-112378109D01*
X186479488Y-112395800D01*
X186479500Y-112396182D01*
X186498727Y-112406458D01*
X186548705Y-112413519D01*
X186606500Y-112415667D01*
X186673480Y-112412777D01*
X186719498Y-112405265D01*
X186733500Y-112396578D01*
X186752676Y-112384298D01*
X186802532Y-112371596D01*
X186860500Y-112362750D01*
X186927389Y-112352359D01*
X186973400Y-112340187D01*
X186987500Y-112330604D01*
X187005728Y-112314424D01*
X187049708Y-112299537D01*
X187051000Y-112299250D01*
X187095520Y-112280793D01*
X187114492Y-112255703D01*
X187114500Y-112255235D01*
X187131479Y-112228641D01*
X187146250Y-112225167D01*
X187174417Y-112213737D01*
X187178000Y-112204000D01*
X187195144Y-112185222D01*
X187209750Y-112182834D01*
X187237917Y-112194263D01*
X187241500Y-112204000D01*
X187258644Y-112222779D01*
X187273250Y-112225167D01*
X187301312Y-112242110D01*
X187305000Y-112256917D01*
X187288056Y-112284979D01*
X187273250Y-112288667D01*
X187252323Y-112301132D01*
X187242790Y-112343518D01*
X187241500Y-112383917D01*
X187237344Y-112446697D01*
X187223216Y-112475294D01*
X187209750Y-112479167D01*
X187184543Y-112498099D01*
X187178000Y-112542667D01*
X187168533Y-112593080D01*
X187146250Y-112606167D01*
X187118187Y-112623110D01*
X187114500Y-112637917D01*
X187102034Y-112658844D01*
X187059649Y-112668376D01*
X187019250Y-112669667D01*
X186956469Y-112673822D01*
X186927872Y-112687950D01*
X186924000Y-112701417D01*
X186918641Y-112712890D01*
X186898951Y-112721288D01*
X186859509Y-112727061D01*
X186794895Y-112730663D01*
X186699689Y-112732544D01*
X186568470Y-112733156D01*
X186543000Y-112733167D01*
X186405322Y-112732720D01*
X186304551Y-112731079D01*
X186235266Y-112727793D01*
X186192047Y-112722408D01*
X186169473Y-112714474D01*
X186162125Y-112703539D01*
X186162000Y-112701417D01*
X186143067Y-112676210D01*
X186098500Y-112669667D01*
X186048086Y-112660201D01*
X186035000Y-112637917D01*
X186016067Y-112612710D01*
X185971500Y-112606167D01*
X185921086Y-112596701D01*
X185908000Y-112574417D01*
X185891056Y-112546355D01*
X185876250Y-112542667D01*
X185848187Y-112525724D01*
X185844500Y-112510917D01*
X185827556Y-112482855D01*
X185812750Y-112479167D01*
X185787543Y-112460235D01*
X185781000Y-112415667D01*
X185771533Y-112365254D01*
X185749250Y-112352167D01*
X185736241Y-112346139D01*
X185727249Y-112323946D01*
X185721591Y-112279429D01*
X185718581Y-112206425D01*
X185717535Y-112098772D01*
X185717500Y-112066417D01*
X185718169Y-111949338D01*
X185720635Y-111868416D01*
X185725581Y-111817491D01*
X185733693Y-111790400D01*
X185745654Y-111780982D01*
X185749250Y-111780667D01*
X185770176Y-111768201D01*
X185779709Y-111725816D01*
X185781000Y-111685417D01*
X185785155Y-111622636D01*
X185799283Y-111594040D01*
X185812750Y-111590167D01*
X185840812Y-111573224D01*
X185844500Y-111558417D01*
X185861443Y-111530355D01*
X185876250Y-111526667D01*
X185901456Y-111507735D01*
X185908000Y-111463167D01*
X185917466Y-111412754D01*
X185939750Y-111399667D01*
X185967812Y-111382724D01*
X185971500Y-111367917D01*
X185988443Y-111339855D01*
X186003250Y-111336167D01*
X186031312Y-111319224D01*
X186035000Y-111304417D01*
X186051943Y-111276355D01*
X186066750Y-111272667D01*
X186094931Y-111262130D01*
X186098500Y-111253182D01*
X186116747Y-111235539D01*
X186160765Y-111220025D01*
X186162000Y-111219750D01*
X186206520Y-111201293D01*
X186225492Y-111176203D01*
X186225500Y-111175735D01*
X186242296Y-111148751D01*
X186255486Y-111145667D01*
X186287359Y-111132257D01*
X186292982Y-111123135D01*
X186316761Y-111106678D01*
X186367447Y-111092304D01*
X186389996Y-111088598D01*
X186444707Y-111077837D01*
X186476360Y-111064985D01*
X186479500Y-111060291D01*
X186498668Y-111049481D01*
X186548506Y-111037791D01*
X186606500Y-111029250D01*
X186673397Y-111018604D01*
X186719408Y-111005770D01*
X186733500Y-110995422D01*
X186753087Y-110987016D01*
X186805555Y-110980499D01*
X186881461Y-110976816D01*
X186924000Y-110976334D01*
X187007888Y-110978296D01*
G36*
X187007888Y-110978296D02*
G01*
X187072929Y-110983554D01*
X187109680Y-110991159D01*
X187114500Y-110995422D01*
X187133676Y-111007702D01*
X187183532Y-111020404D01*
X187241500Y-111029250D01*
X187308397Y-111039897D01*
X187354408Y-111052730D01*
X187368500Y-111063078D01*
X187386461Y-111078094D01*
X187416125Y-111082456D01*
X187493682Y-111088818D01*
X187537896Y-111110708D01*
X187556663Y-111154095D01*
X187559000Y-111190469D01*
X187553434Y-111248406D01*
X187535124Y-111271562D01*
X187527250Y-111272667D01*
X187506323Y-111285132D01*
X187496790Y-111327518D01*
X187495500Y-111367917D01*
X187491344Y-111430697D01*
X187477216Y-111459294D01*
X187463750Y-111463167D01*
X187435687Y-111480110D01*
X187432000Y-111494917D01*
X187413067Y-111520123D01*
X187368500Y-111526667D01*
X187318086Y-111517201D01*
X187305000Y-111494917D01*
X187288056Y-111466855D01*
X187273250Y-111463167D01*
X187245187Y-111446224D01*
X187241500Y-111431417D01*
X187222567Y-111406210D01*
X187178000Y-111399667D01*
X187127586Y-111390201D01*
X187114500Y-111367917D01*
X187107686Y-111353418D01*
X187082689Y-111343986D01*
X187032675Y-111338645D01*
X186950810Y-111336418D01*
X186892250Y-111336167D01*
X186790758Y-111337140D01*
X186724735Y-111340711D01*
X186687346Y-111347856D01*
X186671759Y-111359551D01*
X186670000Y-111367917D01*
X186651067Y-111393123D01*
X186606500Y-111399667D01*
X186556086Y-111409133D01*
X186543000Y-111431417D01*
X186526056Y-111459479D01*
X186511250Y-111463167D01*
X186483187Y-111480110D01*
X186479500Y-111494917D01*
X186462556Y-111522979D01*
X186447750Y-111526667D01*
X186419687Y-111543610D01*
X186416000Y-111558417D01*
X186399056Y-111586479D01*
X186384250Y-111590167D01*
X186356187Y-111607110D01*
X186352500Y-111621917D01*
X186335556Y-111649979D01*
X186320750Y-111653667D01*
X186302314Y-111663420D01*
X186292416Y-111697995D01*
X186289062Y-111765365D01*
X186289000Y-111780667D01*
X186286561Y-111854410D01*
X186277917Y-111894002D01*
X186261075Y-111907416D01*
X186257250Y-111907667D01*
X186238814Y-111917420D01*
X186228916Y-111951995D01*
X186225562Y-112019365D01*
X186225500Y-112034667D01*
X186227938Y-112108410D01*
X186236582Y-112148002D01*
X186253424Y-112161416D01*
X186257250Y-112161667D01*
X186282456Y-112180599D01*
X186289000Y-112225167D01*
X186298466Y-112275580D01*
X186320750Y-112288667D01*
X186348831Y-112304747D01*
X186352500Y-112318735D01*
X186370829Y-112343842D01*
X186415014Y-112362530D01*
X186416000Y-112362750D01*
X186460437Y-112378109D01*
X186479488Y-112395800D01*
X186479500Y-112396182D01*
X186498727Y-112406458D01*
X186548705Y-112413519D01*
X186606500Y-112415667D01*
X186673480Y-112412777D01*
X186719498Y-112405265D01*
X186733500Y-112396578D01*
X186752676Y-112384298D01*
X186802532Y-112371596D01*
X186860500Y-112362750D01*
X186927389Y-112352359D01*
X186973400Y-112340187D01*
X186987500Y-112330604D01*
X187005728Y-112314424D01*
X187049708Y-112299537D01*
X187051000Y-112299250D01*
X187095520Y-112280793D01*
X187114492Y-112255703D01*
X187114500Y-112255235D01*
X187131479Y-112228641D01*
X187146250Y-112225167D01*
X187174417Y-112213737D01*
X187178000Y-112204000D01*
X187195144Y-112185222D01*
X187209750Y-112182834D01*
X187237917Y-112194263D01*
X187241500Y-112204000D01*
X187258644Y-112222779D01*
X187273250Y-112225167D01*
X187301312Y-112242110D01*
X187305000Y-112256917D01*
X187288056Y-112284979D01*
X187273250Y-112288667D01*
X187252323Y-112301132D01*
X187242790Y-112343518D01*
X187241500Y-112383917D01*
X187237344Y-112446697D01*
X187223216Y-112475294D01*
X187209750Y-112479167D01*
X187184543Y-112498099D01*
X187178000Y-112542667D01*
X187168533Y-112593080D01*
X187146250Y-112606167D01*
X187118187Y-112623110D01*
X187114500Y-112637917D01*
X187102034Y-112658844D01*
X187059649Y-112668376D01*
X187019250Y-112669667D01*
X186956469Y-112673822D01*
X186927872Y-112687950D01*
X186924000Y-112701417D01*
X186918641Y-112712890D01*
X186898951Y-112721288D01*
X186859509Y-112727061D01*
X186794895Y-112730663D01*
X186699689Y-112732544D01*
X186568470Y-112733156D01*
X186543000Y-112733167D01*
X186405322Y-112732720D01*
X186304551Y-112731079D01*
X186235266Y-112727793D01*
X186192047Y-112722408D01*
X186169473Y-112714474D01*
X186162125Y-112703539D01*
X186162000Y-112701417D01*
X186143067Y-112676210D01*
X186098500Y-112669667D01*
X186048086Y-112660201D01*
X186035000Y-112637917D01*
X186016067Y-112612710D01*
X185971500Y-112606167D01*
X185921086Y-112596701D01*
X185908000Y-112574417D01*
X185891056Y-112546355D01*
X185876250Y-112542667D01*
X185848187Y-112525724D01*
X185844500Y-112510917D01*
X185827556Y-112482855D01*
X185812750Y-112479167D01*
X185787543Y-112460235D01*
X185781000Y-112415667D01*
X185771533Y-112365254D01*
X185749250Y-112352167D01*
X185736241Y-112346139D01*
X185727249Y-112323946D01*
X185721591Y-112279429D01*
X185718581Y-112206425D01*
X185717535Y-112098772D01*
X185717500Y-112066417D01*
X185718169Y-111949338D01*
X185720635Y-111868416D01*
X185725581Y-111817491D01*
X185733693Y-111790400D01*
X185745654Y-111780982D01*
X185749250Y-111780667D01*
X185770176Y-111768201D01*
X185779709Y-111725816D01*
X185781000Y-111685417D01*
X185785155Y-111622636D01*
X185799283Y-111594040D01*
X185812750Y-111590167D01*
X185840812Y-111573224D01*
X185844500Y-111558417D01*
X185861443Y-111530355D01*
X185876250Y-111526667D01*
X185901456Y-111507735D01*
X185908000Y-111463167D01*
X185917466Y-111412754D01*
X185939750Y-111399667D01*
X185967812Y-111382724D01*
X185971500Y-111367917D01*
X185988443Y-111339855D01*
X186003250Y-111336167D01*
X186031312Y-111319224D01*
X186035000Y-111304417D01*
X186051943Y-111276355D01*
X186066750Y-111272667D01*
X186094931Y-111262130D01*
X186098500Y-111253182D01*
X186116747Y-111235539D01*
X186160765Y-111220025D01*
X186162000Y-111219750D01*
X186206520Y-111201293D01*
X186225492Y-111176203D01*
X186225500Y-111175735D01*
X186242296Y-111148751D01*
X186255486Y-111145667D01*
X186287359Y-111132257D01*
X186292982Y-111123135D01*
X186316761Y-111106678D01*
X186367447Y-111092304D01*
X186389996Y-111088598D01*
X186444707Y-111077837D01*
X186476360Y-111064985D01*
X186479500Y-111060291D01*
X186498668Y-111049481D01*
X186548506Y-111037791D01*
X186606500Y-111029250D01*
X186673397Y-111018604D01*
X186719408Y-111005770D01*
X186733500Y-110995422D01*
X186753087Y-110987016D01*
X186805555Y-110980499D01*
X186881461Y-110976816D01*
X186924000Y-110976334D01*
X187007888Y-110978296D01*
G37*
X181003731Y-112352567D02*
X181110609Y-112354036D01*
X181185608Y-112356976D01*
X181233953Y-112361789D01*
X181260867Y-112368876D01*
X181271575Y-112378639D01*
X181272500Y-112383917D01*
X181255556Y-112411979D01*
X181240750Y-112415667D01*
X181212687Y-112432610D01*
X181209000Y-112447417D01*
X181192056Y-112475479D01*
X181177250Y-112479167D01*
X181149187Y-112496110D01*
X181145500Y-112510917D01*
X181128556Y-112538979D01*
X181113750Y-112542667D01*
X181088543Y-112561599D01*
X181082000Y-112606167D01*
X181072533Y-112656580D01*
X181050250Y-112669667D01*
X181022187Y-112686610D01*
X181018500Y-112701417D01*
X181001556Y-112729479D01*
X180986750Y-112733167D01*
X180958687Y-112750110D01*
X180955000Y-112764917D01*
X180938056Y-112792979D01*
X180923250Y-112796667D01*
X180895187Y-112813610D01*
X180891500Y-112828417D01*
X180872567Y-112853623D01*
X180828000Y-112860167D01*
X180777586Y-112869633D01*
X180764500Y-112891917D01*
X180747556Y-112919979D01*
X180732750Y-112923667D01*
X180704687Y-112940610D01*
X180701000Y-112955417D01*
X180684056Y-112983479D01*
X180669250Y-112987167D01*
X180641187Y-113004110D01*
X180637500Y-113018917D01*
X180618567Y-113044123D01*
X180574000Y-113050667D01*
X180523586Y-113060133D01*
X180510500Y-113082417D01*
X180491567Y-113107623D01*
X180447000Y-113114167D01*
X180396586Y-113123633D01*
X180383500Y-113145917D01*
X180366556Y-113173979D01*
X180351750Y-113177667D01*
X180323687Y-113194610D01*
X180320000Y-113209417D01*
X180307534Y-113230344D01*
X180265149Y-113239876D01*
X180224750Y-113241167D01*
X180161969Y-113245322D01*
X180133372Y-113259450D01*
X180129500Y-113272917D01*
X180110567Y-113298123D01*
X180066000Y-113304667D01*
X180015586Y-113314133D01*
X180002500Y-113336417D01*
X179990034Y-113357344D01*
X179947649Y-113366876D01*
X179907250Y-113368167D01*
X179844469Y-113372322D01*
X179815872Y-113386450D01*
X179812000Y-113399917D01*
X179802246Y-113418353D01*
X179767671Y-113428251D01*
X179700302Y-113431604D01*
X179685000Y-113431667D01*
X179611256Y-113434105D01*
X179571664Y-113442749D01*
X179558250Y-113459591D01*
X179558000Y-113463417D01*
X179551631Y-113477106D01*
X179528208Y-113486315D01*
X179481255Y-113491854D01*
X179404295Y-113494533D01*
X179304000Y-113495167D01*
X179194489Y-113495963D01*
X179120816Y-113498891D01*
X179076502Y-113504760D01*
X179055073Y-113514380D01*
X179050000Y-113526917D01*
X179033056Y-113554979D01*
X179018250Y-113558667D01*
X178990187Y-113541724D01*
X178986500Y-113526917D01*
X178979686Y-113512418D01*
X178954689Y-113502986D01*
X178904675Y-113497645D01*
X178822810Y-113495418D01*
X178764250Y-113495167D01*
X178662758Y-113494193D01*
X178596735Y-113490622D01*
X178559346Y-113483478D01*
X178543759Y-113471783D01*
X178542000Y-113463417D01*
X178532246Y-113444981D01*
X178497671Y-113435083D01*
X178430302Y-113431729D01*
X178415000Y-113431667D01*
X178341256Y-113429228D01*
X178301664Y-113420585D01*
X178288250Y-113403742D01*
X178288000Y-113399917D01*
X178269067Y-113374710D01*
X178224500Y-113368167D01*
X178174086Y-113358701D01*
X178161000Y-113336417D01*
X178142067Y-113311210D01*
X178097500Y-113304667D01*
X178047086Y-113295201D01*
X178034000Y-113272917D01*
X178017056Y-113244855D01*
X178002250Y-113241167D01*
X177974187Y-113224224D01*
X177970500Y-113209417D01*
X177951567Y-113184210D01*
X177907000Y-113177667D01*
X177856586Y-113168201D01*
X177843500Y-113145917D01*
X177826556Y-113117855D01*
X177811750Y-113114167D01*
X177783687Y-113097224D01*
X177780000Y-113082417D01*
X177763056Y-113054355D01*
X177748250Y-113050667D01*
X177723043Y-113031735D01*
X177716500Y-112987167D01*
X177707033Y-112936754D01*
X177684750Y-112923667D01*
X177656687Y-112906724D01*
X177653000Y-112891917D01*
X177636056Y-112863855D01*
X177621250Y-112860167D01*
X177596043Y-112841235D01*
X177589500Y-112796667D01*
X177580033Y-112746254D01*
X177557750Y-112733167D01*
X177532543Y-112714235D01*
X177526000Y-112669667D01*
X177535466Y-112619254D01*
X177557750Y-112606167D01*
X177582956Y-112625099D01*
X177589500Y-112669667D01*
X177598966Y-112720080D01*
X177621250Y-112733167D01*
X177649312Y-112750110D01*
X177653000Y-112764917D01*
X177669943Y-112792979D01*
X177684750Y-112796667D01*
X177712812Y-112813610D01*
X177716500Y-112828417D01*
X177733443Y-112856479D01*
X177748250Y-112860167D01*
X177776331Y-112876247D01*
X177779999Y-112890235D01*
X177798329Y-112915342D01*
X177842514Y-112934030D01*
X177843499Y-112934250D01*
X177887916Y-112948940D01*
X177906986Y-112965033D01*
X177907000Y-112965387D01*
X177925030Y-112982341D01*
X177964996Y-112997134D01*
X178011787Y-113014443D01*
X178035500Y-113031928D01*
X178062782Y-113047913D01*
X178114966Y-113062413D01*
X178130962Y-113065273D01*
X178186828Y-113077985D01*
X178222356Y-113093249D01*
X178226230Y-113097052D01*
X178251605Y-113106868D01*
X178308776Y-113117049D01*
X178387257Y-113125901D01*
X178422022Y-113128673D01*
X178504168Y-113136390D01*
X178567310Y-113145975D01*
X178601840Y-113155806D01*
X178605500Y-113159644D01*
X178624424Y-113170394D01*
X178672303Y-113176841D01*
X178700750Y-113177667D01*
X178757563Y-113174102D01*
X178791635Y-113165084D01*
X178796000Y-113159726D01*
X178815769Y-113151592D01*
X178869563Y-113142795D01*
X178949106Y-113134407D01*
X179043666Y-113127640D01*
X179141771Y-113120584D01*
X179223583Y-113111960D01*
X179280304Y-113102883D01*
X179302958Y-113094813D01*
X179328764Y-113082266D01*
X179383439Y-113069193D01*
X179436291Y-113060960D01*
X179501569Y-113050242D01*
X179545743Y-113038049D01*
X179558000Y-113029356D01*
X179576022Y-113012954D01*
X179615996Y-112998367D01*
X179663012Y-112980752D01*
X179687029Y-112962717D01*
X179714566Y-112946928D01*
X179767562Y-112933075D01*
X179787782Y-112929858D01*
X179848211Y-112915177D01*
X179874846Y-112893453D01*
X179875500Y-112889130D01*
X179892503Y-112863502D01*
X179907250Y-112860167D01*
X179935431Y-112849630D01*
X179939000Y-112840682D01*
X179957247Y-112823039D01*
X180001265Y-112807525D01*
X180002500Y-112807250D01*
X180047020Y-112788793D01*
X180065992Y-112763703D01*
X180066000Y-112763235D01*
X180082979Y-112736641D01*
X180097750Y-112733167D01*
X180125917Y-112721737D01*
X180129500Y-112712000D01*
X180146644Y-112693222D01*
X180161250Y-112690834D01*
X180189312Y-112673890D01*
X180193000Y-112659084D01*
X180209943Y-112631021D01*
X180224750Y-112627334D01*
X180252812Y-112610390D01*
X180256500Y-112595584D01*
X180273443Y-112567521D01*
X180288250Y-112563834D01*
X180316312Y-112546890D01*
X180320000Y-112532084D01*
X180336943Y-112504021D01*
X180351750Y-112500334D01*
X180377607Y-112482687D01*
X180383500Y-112458000D01*
X180396734Y-112423524D01*
X180415250Y-112415667D01*
X180443312Y-112398724D01*
X180447000Y-112383917D01*
X180452205Y-112372841D01*
X180471305Y-112364620D01*
X180509523Y-112358851D01*
X180572084Y-112355132D01*
X180664213Y-112353062D01*
X180791134Y-112352238D01*
X180859750Y-112352167D01*
X181003731Y-112352567D01*
G36*
X181003731Y-112352567D02*
G01*
X181110609Y-112354036D01*
X181185608Y-112356976D01*
X181233953Y-112361789D01*
X181260867Y-112368876D01*
X181271575Y-112378639D01*
X181272500Y-112383917D01*
X181255556Y-112411979D01*
X181240750Y-112415667D01*
X181212687Y-112432610D01*
X181209000Y-112447417D01*
X181192056Y-112475479D01*
X181177250Y-112479167D01*
X181149187Y-112496110D01*
X181145500Y-112510917D01*
X181128556Y-112538979D01*
X181113750Y-112542667D01*
X181088543Y-112561599D01*
X181082000Y-112606167D01*
X181072533Y-112656580D01*
X181050250Y-112669667D01*
X181022187Y-112686610D01*
X181018500Y-112701417D01*
X181001556Y-112729479D01*
X180986750Y-112733167D01*
X180958687Y-112750110D01*
X180955000Y-112764917D01*
X180938056Y-112792979D01*
X180923250Y-112796667D01*
X180895187Y-112813610D01*
X180891500Y-112828417D01*
X180872567Y-112853623D01*
X180828000Y-112860167D01*
X180777586Y-112869633D01*
X180764500Y-112891917D01*
X180747556Y-112919979D01*
X180732750Y-112923667D01*
X180704687Y-112940610D01*
X180701000Y-112955417D01*
X180684056Y-112983479D01*
X180669250Y-112987167D01*
X180641187Y-113004110D01*
X180637500Y-113018917D01*
X180618567Y-113044123D01*
X180574000Y-113050667D01*
X180523586Y-113060133D01*
X180510500Y-113082417D01*
X180491567Y-113107623D01*
X180447000Y-113114167D01*
X180396586Y-113123633D01*
X180383500Y-113145917D01*
X180366556Y-113173979D01*
X180351750Y-113177667D01*
X180323687Y-113194610D01*
X180320000Y-113209417D01*
X180307534Y-113230344D01*
X180265149Y-113239876D01*
X180224750Y-113241167D01*
X180161969Y-113245322D01*
X180133372Y-113259450D01*
X180129500Y-113272917D01*
X180110567Y-113298123D01*
X180066000Y-113304667D01*
X180015586Y-113314133D01*
X180002500Y-113336417D01*
X179990034Y-113357344D01*
X179947649Y-113366876D01*
X179907250Y-113368167D01*
X179844469Y-113372322D01*
X179815872Y-113386450D01*
X179812000Y-113399917D01*
X179802246Y-113418353D01*
X179767671Y-113428251D01*
X179700302Y-113431604D01*
X179685000Y-113431667D01*
X179611256Y-113434105D01*
X179571664Y-113442749D01*
X179558250Y-113459591D01*
X179558000Y-113463417D01*
X179551631Y-113477106D01*
X179528208Y-113486315D01*
X179481255Y-113491854D01*
X179404295Y-113494533D01*
X179304000Y-113495167D01*
X179194489Y-113495963D01*
X179120816Y-113498891D01*
X179076502Y-113504760D01*
X179055073Y-113514380D01*
X179050000Y-113526917D01*
X179033056Y-113554979D01*
X179018250Y-113558667D01*
X178990187Y-113541724D01*
X178986500Y-113526917D01*
X178979686Y-113512418D01*
X178954689Y-113502986D01*
X178904675Y-113497645D01*
X178822810Y-113495418D01*
X178764250Y-113495167D01*
X178662758Y-113494193D01*
X178596735Y-113490622D01*
X178559346Y-113483478D01*
X178543759Y-113471783D01*
X178542000Y-113463417D01*
X178532246Y-113444981D01*
X178497671Y-113435083D01*
X178430302Y-113431729D01*
X178415000Y-113431667D01*
X178341256Y-113429228D01*
X178301664Y-113420585D01*
X178288250Y-113403742D01*
X178288000Y-113399917D01*
X178269067Y-113374710D01*
X178224500Y-113368167D01*
X178174086Y-113358701D01*
X178161000Y-113336417D01*
X178142067Y-113311210D01*
X178097500Y-113304667D01*
X178047086Y-113295201D01*
X178034000Y-113272917D01*
X178017056Y-113244855D01*
X178002250Y-113241167D01*
X177974187Y-113224224D01*
X177970500Y-113209417D01*
X177951567Y-113184210D01*
X177907000Y-113177667D01*
X177856586Y-113168201D01*
X177843500Y-113145917D01*
X177826556Y-113117855D01*
X177811750Y-113114167D01*
X177783687Y-113097224D01*
X177780000Y-113082417D01*
X177763056Y-113054355D01*
X177748250Y-113050667D01*
X177723043Y-113031735D01*
X177716500Y-112987167D01*
X177707033Y-112936754D01*
X177684750Y-112923667D01*
X177656687Y-112906724D01*
X177653000Y-112891917D01*
X177636056Y-112863855D01*
X177621250Y-112860167D01*
X177596043Y-112841235D01*
X177589500Y-112796667D01*
X177580033Y-112746254D01*
X177557750Y-112733167D01*
X177532543Y-112714235D01*
X177526000Y-112669667D01*
X177535466Y-112619254D01*
X177557750Y-112606167D01*
X177582956Y-112625099D01*
X177589500Y-112669667D01*
X177598966Y-112720080D01*
X177621250Y-112733167D01*
X177649312Y-112750110D01*
X177653000Y-112764917D01*
X177669943Y-112792979D01*
X177684750Y-112796667D01*
X177712812Y-112813610D01*
X177716500Y-112828417D01*
X177733443Y-112856479D01*
X177748250Y-112860167D01*
X177776331Y-112876247D01*
X177779999Y-112890235D01*
X177798329Y-112915342D01*
X177842514Y-112934030D01*
X177843499Y-112934250D01*
X177887916Y-112948940D01*
X177906986Y-112965033D01*
X177907000Y-112965387D01*
X177925030Y-112982341D01*
X177964996Y-112997134D01*
X178011787Y-113014443D01*
X178035500Y-113031928D01*
X178062782Y-113047913D01*
X178114966Y-113062413D01*
X178130962Y-113065273D01*
X178186828Y-113077985D01*
X178222356Y-113093249D01*
X178226230Y-113097052D01*
X178251605Y-113106868D01*
X178308776Y-113117049D01*
X178387257Y-113125901D01*
X178422022Y-113128673D01*
X178504168Y-113136390D01*
X178567310Y-113145975D01*
X178601840Y-113155806D01*
X178605500Y-113159644D01*
X178624424Y-113170394D01*
X178672303Y-113176841D01*
X178700750Y-113177667D01*
X178757563Y-113174102D01*
X178791635Y-113165084D01*
X178796000Y-113159726D01*
X178815769Y-113151592D01*
X178869563Y-113142795D01*
X178949106Y-113134407D01*
X179043666Y-113127640D01*
X179141771Y-113120584D01*
X179223583Y-113111960D01*
X179280304Y-113102883D01*
X179302958Y-113094813D01*
X179328764Y-113082266D01*
X179383439Y-113069193D01*
X179436291Y-113060960D01*
X179501569Y-113050242D01*
X179545743Y-113038049D01*
X179558000Y-113029356D01*
X179576022Y-113012954D01*
X179615996Y-112998367D01*
X179663012Y-112980752D01*
X179687029Y-112962717D01*
X179714566Y-112946928D01*
X179767562Y-112933075D01*
X179787782Y-112929858D01*
X179848211Y-112915177D01*
X179874846Y-112893453D01*
X179875500Y-112889130D01*
X179892503Y-112863502D01*
X179907250Y-112860167D01*
X179935431Y-112849630D01*
X179939000Y-112840682D01*
X179957247Y-112823039D01*
X180001265Y-112807525D01*
X180002500Y-112807250D01*
X180047020Y-112788793D01*
X180065992Y-112763703D01*
X180066000Y-112763235D01*
X180082979Y-112736641D01*
X180097750Y-112733167D01*
X180125917Y-112721737D01*
X180129500Y-112712000D01*
X180146644Y-112693222D01*
X180161250Y-112690834D01*
X180189312Y-112673890D01*
X180193000Y-112659084D01*
X180209943Y-112631021D01*
X180224750Y-112627334D01*
X180252812Y-112610390D01*
X180256500Y-112595584D01*
X180273443Y-112567521D01*
X180288250Y-112563834D01*
X180316312Y-112546890D01*
X180320000Y-112532084D01*
X180336943Y-112504021D01*
X180351750Y-112500334D01*
X180377607Y-112482687D01*
X180383500Y-112458000D01*
X180396734Y-112423524D01*
X180415250Y-112415667D01*
X180443312Y-112398724D01*
X180447000Y-112383917D01*
X180452205Y-112372841D01*
X180471305Y-112364620D01*
X180509523Y-112358851D01*
X180572084Y-112355132D01*
X180664213Y-112353062D01*
X180791134Y-112352238D01*
X180859750Y-112352167D01*
X181003731Y-112352567D01*
G37*
G36*
X161367687Y-111692790D02*
G01*
X161341662Y-111727585D01*
X161315637Y-111692790D01*
X161341662Y-111657996D01*
X161367687Y-111692790D01*
G37*
G36*
X161627932Y-111484023D02*
G01*
X161601908Y-111518818D01*
X161575883Y-111484023D01*
X161601908Y-111449229D01*
X161627932Y-111484023D01*
G37*
G36*
X162304572Y-110092242D02*
G01*
X162278547Y-110127037D01*
X162252523Y-110092242D01*
X162278547Y-110057448D01*
X162304572Y-110092242D01*
G37*
G36*
X173443096Y-111346932D02*
G01*
X173443096Y-112980187D01*
X173103742Y-112980187D01*
X172764387Y-112980187D01*
X172778434Y-111501908D01*
X172792482Y-110023628D01*
X173117789Y-109868652D01*
X173443096Y-109713677D01*
X173443096Y-111346932D01*
G37*
G36*
X162199676Y-110240297D02*
G01*
X162159216Y-110365149D01*
X162067040Y-110424898D01*
X161990531Y-110402478D01*
X161955741Y-110349062D01*
X162015999Y-110334030D01*
X162066902Y-110340412D01*
X162044326Y-110370598D01*
X162070350Y-110405393D01*
X162096375Y-110370598D01*
X162074510Y-110341366D01*
X162077543Y-110341747D01*
X162130603Y-110297134D01*
X162154820Y-110254761D01*
X162192564Y-110209576D01*
X162199676Y-110240297D01*
G37*
G36*
X161124764Y-110883341D02*
G01*
X161140989Y-110900865D01*
X161192048Y-110974202D01*
X161156899Y-111017798D01*
X161101337Y-111040944D01*
X160956464Y-111086376D01*
X160885402Y-111077784D01*
X160864748Y-111010926D01*
X160864544Y-110998005D01*
X160884650Y-110933983D01*
X160927865Y-110964986D01*
X160991623Y-110986908D01*
X161020924Y-110927311D01*
X161055391Y-110927311D01*
X161081416Y-110962105D01*
X161107441Y-110927311D01*
X161081416Y-110892516D01*
X161055391Y-110927311D01*
X161020924Y-110927311D01*
X161023904Y-110921249D01*
X161062050Y-110846076D01*
X161124764Y-110883341D01*
G37*
G36*
X162406320Y-111072177D02*
G01*
X162434916Y-111195717D01*
X162451525Y-111406762D01*
X162453130Y-111679589D01*
X162450628Y-111759781D01*
X162430784Y-112019531D01*
X162393922Y-112159985D01*
X162356621Y-112197111D01*
X162304947Y-112209672D01*
X162340450Y-112166900D01*
X162356621Y-112151482D01*
X162397555Y-112091207D01*
X162380986Y-112076595D01*
X162334861Y-112017564D01*
X162317223Y-111880202D01*
X162329410Y-111720541D01*
X162369585Y-111599653D01*
X162400799Y-111531152D01*
X162382646Y-111533612D01*
X162351565Y-111503344D01*
X162334720Y-111387437D01*
X162333656Y-111238389D01*
X162349919Y-111108702D01*
X162368755Y-111061863D01*
X162406320Y-111072177D01*
G37*
G36*
X160617260Y-110981403D02*
G01*
X160724211Y-111018720D01*
X160777098Y-111083760D01*
X160761964Y-111143633D01*
X160695385Y-111165508D01*
X160597769Y-111173946D01*
X160440539Y-111189860D01*
X160342807Y-111200420D01*
X160184298Y-111211192D01*
X160109159Y-111194087D01*
X160098006Y-111143536D01*
X160101142Y-111130997D01*
X160153943Y-111042688D01*
X160207417Y-111051225D01*
X160223402Y-111118681D01*
X160235567Y-111168417D01*
X160263812Y-111122354D01*
X160335010Y-111077575D01*
X160375406Y-111098518D01*
X160481885Y-111130559D01*
X160521531Y-111119955D01*
X160568109Y-111075687D01*
X160526251Y-111023911D01*
X160513828Y-110986400D01*
X160598908Y-110979843D01*
X160617260Y-110981403D01*
G37*
G36*
X162212205Y-111039688D02*
G01*
X162144857Y-111141155D01*
X162043631Y-111257845D01*
X161960467Y-111309874D01*
X161957179Y-111310050D01*
X161893920Y-111349072D01*
X161888178Y-111374901D01*
X161850914Y-111462016D01*
X161762763Y-111560810D01*
X161659191Y-111641424D01*
X161575663Y-111673999D01*
X161550441Y-111659255D01*
X161560840Y-111597704D01*
X161594424Y-111588407D01*
X161676835Y-111541024D01*
X161786282Y-111423279D01*
X161815635Y-111383748D01*
X161917478Y-111264864D01*
X161996041Y-111216968D01*
X162011065Y-111221191D01*
X162039483Y-111208821D01*
X162028780Y-111147494D01*
X162017988Y-111048007D01*
X162032947Y-111026370D01*
X162111262Y-111010109D01*
X162166942Y-110996653D01*
X162223556Y-110992128D01*
X162212205Y-111039688D01*
G37*
G36*
X161912984Y-110538801D02*
G01*
X161843375Y-110618735D01*
X161659078Y-110752078D01*
X161510822Y-110761579D01*
X161474102Y-110807524D01*
X161471785Y-110834525D01*
X161450892Y-110881315D01*
X161437537Y-110869924D01*
X161374584Y-110866880D01*
X161338072Y-110896499D01*
X161266140Y-110930236D01*
X161239126Y-110895895D01*
X161250042Y-110834165D01*
X161289613Y-110822927D01*
X161348095Y-110794466D01*
X161346184Y-110763120D01*
X161367937Y-110725129D01*
X161447210Y-110722198D01*
X161543852Y-110715452D01*
X161575883Y-110679805D01*
X161614803Y-110648691D01*
X161662495Y-110662964D01*
X161721245Y-110672770D01*
X161711473Y-110625986D01*
X161705170Y-110579365D01*
X161784080Y-110579365D01*
X161810105Y-110614160D01*
X161836129Y-110579365D01*
X161810105Y-110544571D01*
X161784080Y-110579365D01*
X161705170Y-110579365D01*
X161701211Y-110550085D01*
X161715947Y-110539247D01*
X161798104Y-110523562D01*
X161862154Y-110509027D01*
X161925674Y-110500941D01*
X161912984Y-110538801D01*
G37*
G36*
X175681211Y-110228809D02*
G01*
X175681211Y-110678526D01*
X175199756Y-110698535D01*
X174966143Y-110712530D01*
X174819476Y-110733960D01*
X174742630Y-110767250D01*
X174718478Y-110816825D01*
X174718301Y-110822927D01*
X174755575Y-110895934D01*
X174876146Y-110944304D01*
X174981610Y-110962783D01*
X175168072Y-111009132D01*
X175334441Y-111085189D01*
X175387476Y-111123139D01*
X175576569Y-111365199D01*
X175694233Y-111676601D01*
X175734747Y-112020975D01*
X175692387Y-112361953D01*
X175615112Y-112569759D01*
X175499595Y-112761770D01*
X175363271Y-112896958D01*
X175186702Y-112984077D01*
X174950451Y-113031876D01*
X174635077Y-113049108D01*
X174549141Y-113049668D01*
X173963588Y-113049776D01*
X173963588Y-112597448D01*
X173963588Y-112145119D01*
X174510105Y-112145119D01*
X174753913Y-112143374D01*
X174912037Y-112135014D01*
X175002882Y-112115352D01*
X175044851Y-112079702D01*
X175056350Y-112023376D01*
X175056621Y-112005941D01*
X175037434Y-111911919D01*
X174961478Y-111872544D01*
X174864857Y-111866763D01*
X174590815Y-111808248D01*
X174359791Y-111648375D01*
X174181740Y-111410646D01*
X174066616Y-111118566D01*
X174024374Y-110795639D01*
X174064970Y-110465369D01*
X174163830Y-110211561D01*
X174287139Y-110027547D01*
X174440493Y-109900935D01*
X174643443Y-109823200D01*
X174915540Y-109785817D01*
X175155573Y-109779092D01*
X175681211Y-109779092D01*
X175681211Y-110228809D01*
G37*
G36*
X166350416Y-110683749D02*
G01*
X166495587Y-111192394D01*
X166629549Y-111662852D01*
X166747562Y-112078394D01*
X166844888Y-112422292D01*
X166916786Y-112677814D01*
X166958518Y-112828232D01*
X166966495Y-112858407D01*
X166970932Y-112922854D01*
X166931719Y-112959651D01*
X166828802Y-112976271D01*
X166642124Y-112980187D01*
X166639650Y-112980187D01*
X166283288Y-112980187D01*
X166153515Y-112510461D01*
X166023742Y-112040735D01*
X165459607Y-112040735D01*
X164895472Y-112040735D01*
X164775491Y-112483751D01*
X164708664Y-112714410D01*
X164649718Y-112889912D01*
X164612111Y-112971090D01*
X164540733Y-112989161D01*
X164398944Y-112991453D01*
X164248141Y-112980402D01*
X163927572Y-112945393D01*
X164395182Y-111310050D01*
X164459787Y-111083886D01*
X165170318Y-111083886D01*
X165210078Y-111137987D01*
X165339392Y-111165813D01*
X165478263Y-111170872D01*
X165789248Y-111170872D01*
X165634410Y-110609413D01*
X165563924Y-110349844D01*
X165509460Y-110141744D01*
X165479621Y-110018284D01*
X165476530Y-110000509D01*
X165459080Y-110030623D01*
X165416949Y-110158305D01*
X165359708Y-110349696D01*
X165296929Y-110570934D01*
X165238181Y-110788159D01*
X165193035Y-110967511D01*
X165171062Y-111075129D01*
X165170318Y-111083886D01*
X164459787Y-111083886D01*
X164533102Y-110827234D01*
X164667347Y-110356407D01*
X164790652Y-109923117D01*
X164895751Y-109552913D01*
X164975378Y-109271345D01*
X165008684Y-109152790D01*
X165154577Y-108630872D01*
X165459216Y-108630872D01*
X165763855Y-108630872D01*
X166350416Y-110683749D01*
G37*
G36*
X168550416Y-109881769D02*
G01*
X168845959Y-110019043D01*
X169106357Y-110258411D01*
X169310845Y-110594628D01*
X169396482Y-110833473D01*
X169466527Y-111113460D01*
X169514202Y-111393741D01*
X169532728Y-111633466D01*
X169515327Y-111791788D01*
X169511184Y-111801931D01*
X169451427Y-111824247D01*
X169306039Y-111843545D01*
X169093481Y-111858361D01*
X168832214Y-111867231D01*
X168664512Y-111869078D01*
X167847809Y-111871393D01*
X167971502Y-112009139D01*
X168158997Y-112161293D01*
X168347526Y-112184700D01*
X168547220Y-112093685D01*
X168752708Y-111957757D01*
X168965432Y-112247548D01*
X169082346Y-112412480D01*
X169134272Y-112512925D01*
X169130969Y-112581263D01*
X169085524Y-112645989D01*
X168842055Y-112854037D01*
X168551573Y-112984290D01*
X168253506Y-113023642D01*
X168056006Y-112988215D01*
X167723142Y-112804197D01*
X167448631Y-112513002D01*
X167244778Y-112132273D01*
X167123887Y-111679653D01*
X167118614Y-111644062D01*
X167115959Y-111338577D01*
X167174194Y-110987391D01*
X167180839Y-110966051D01*
X167873834Y-110966051D01*
X167921886Y-110995714D01*
X168050114Y-111018401D01*
X168234627Y-111030567D01*
X168316252Y-111031694D01*
X168524446Y-111024262D01*
X168677316Y-111004118D01*
X168753778Y-110974494D01*
X168758670Y-110963892D01*
X168712883Y-110876935D01*
X168598065Y-110788194D01*
X168448037Y-110717394D01*
X168296614Y-110684261D01*
X168278369Y-110683749D01*
X168128591Y-110715705D01*
X167988913Y-110795253D01*
X167894415Y-110897911D01*
X167873834Y-110966051D01*
X167180839Y-110966051D01*
X167281138Y-110643931D01*
X167403540Y-110394244D01*
X167646290Y-110102826D01*
X167931244Y-109921629D01*
X168239065Y-109848621D01*
X168550416Y-109881769D01*
G37*
G36*
X171235620Y-109852407D02*
G01*
X171537688Y-110002344D01*
X171804308Y-110267244D01*
X171836642Y-110312033D01*
X171958787Y-110500956D01*
X172046771Y-110679865D01*
X172106090Y-110876906D01*
X172142236Y-111120223D01*
X172160706Y-111437961D01*
X172166993Y-111858265D01*
X172167323Y-112005941D01*
X172166072Y-112411845D01*
X172160179Y-112706373D01*
X172147228Y-112917295D01*
X172124804Y-113072379D01*
X172090491Y-113199396D01*
X172055342Y-113293338D01*
X171852117Y-113672405D01*
X171594734Y-113960687D01*
X171301381Y-114146743D01*
X170990247Y-114219129D01*
X170679522Y-114166402D01*
X170672209Y-114163499D01*
X170542130Y-114094055D01*
X170396351Y-113992373D01*
X170265551Y-113883169D01*
X170180408Y-113791155D01*
X170163998Y-113754114D01*
X170198355Y-113681852D01*
X170286888Y-113548186D01*
X170370653Y-113434530D01*
X170494473Y-113281707D01*
X170578109Y-113214304D01*
X170652016Y-113215511D01*
X170711421Y-113246434D01*
X170941815Y-113323068D01*
X171161030Y-113278500D01*
X171258462Y-113210385D01*
X171388647Y-113071092D01*
X171455863Y-112958775D01*
X171455485Y-112892251D01*
X171382890Y-112890336D01*
X171331716Y-112912321D01*
X171112365Y-112971316D01*
X170852352Y-112965441D01*
X170601531Y-112898564D01*
X170502318Y-112847979D01*
X170216732Y-112601616D01*
X170001731Y-112274918D01*
X169861605Y-111891976D01*
X169800644Y-111476882D01*
X169813495Y-111235134D01*
X170451144Y-111235134D01*
X170452882Y-111508592D01*
X170531580Y-111773180D01*
X170668752Y-111978695D01*
X170747603Y-112040276D01*
X170884584Y-112114776D01*
X170977669Y-112134342D01*
X171078302Y-112099917D01*
X171173826Y-112048086D01*
X171374694Y-111872489D01*
X171489175Y-111630112D01*
X171511909Y-111341552D01*
X171438664Y-111030301D01*
X171316492Y-110814807D01*
X171147108Y-110705861D01*
X170978176Y-110683749D01*
X170783224Y-110744104D01*
X170606367Y-110901073D01*
X170482153Y-111118508D01*
X170451144Y-111235134D01*
X169813495Y-111235134D01*
X169823139Y-111053726D01*
X169933379Y-110646600D01*
X170063864Y-110385976D01*
X170312226Y-110084217D01*
X170603339Y-109894159D01*
X170917654Y-109816617D01*
X171235620Y-109852407D01*
G37*
G36*
X160001396Y-111187499D02*
G01*
X159934472Y-111393383D01*
X159910309Y-111585958D01*
X159897871Y-111733642D01*
X159867855Y-111797127D01*
X159866935Y-111797174D01*
X159828419Y-111853703D01*
X159823561Y-111901557D01*
X159847738Y-111994238D01*
X159868223Y-112005941D01*
X159917623Y-112063332D01*
X159962359Y-112179913D01*
X160012410Y-112310727D01*
X160052156Y-112359210D01*
X160134378Y-112375955D01*
X160179969Y-112387141D01*
X160268787Y-112359255D01*
X160295109Y-112313401D01*
X160358448Y-112248872D01*
X160397542Y-112255420D01*
X160482825Y-112248629D01*
X160507207Y-112218317D01*
X160569475Y-112173360D01*
X160590545Y-112182885D01*
X160636038Y-112178367D01*
X160638998Y-112158795D01*
X160682967Y-112117292D01*
X160769121Y-112113766D01*
X160866528Y-112110349D01*
X160899244Y-112080572D01*
X160942833Y-112015312D01*
X161049330Y-111932899D01*
X161104908Y-111901557D01*
X161159490Y-111901557D01*
X161185514Y-111936352D01*
X161211539Y-111901557D01*
X161185514Y-111866763D01*
X161159490Y-111901557D01*
X161104908Y-111901557D01*
X161182332Y-111857895D01*
X161287353Y-111818721D01*
X161389001Y-111762998D01*
X161423982Y-111718398D01*
X161472407Y-111685951D01*
X161489187Y-111708931D01*
X161466755Y-111778395D01*
X161375109Y-111879032D01*
X161313521Y-111929581D01*
X161191767Y-112013125D01*
X161117793Y-112048563D01*
X161107441Y-112043584D01*
X161070622Y-112046589D01*
X160986175Y-112108964D01*
X160887088Y-112171476D01*
X160830028Y-112168559D01*
X160798578Y-112176916D01*
X160795146Y-112210555D01*
X160758023Y-112267613D01*
X160717072Y-112259132D01*
X160649950Y-112265821D01*
X160638201Y-112303878D01*
X160619715Y-112336672D01*
X160588952Y-112286247D01*
X160544910Y-112223799D01*
X160510354Y-112289226D01*
X160505597Y-112305421D01*
X160458566Y-112384919D01*
X160404777Y-112353886D01*
X160339892Y-112326307D01*
X160307124Y-112391315D01*
X160257186Y-112466053D01*
X160226569Y-112461545D01*
X160159384Y-112469977D01*
X160145056Y-112491929D01*
X160072174Y-112559132D01*
X159983833Y-112491833D01*
X159971742Y-112473386D01*
X159964656Y-112458270D01*
X160066457Y-112458270D01*
X160092482Y-112493064D01*
X160118506Y-112458270D01*
X160092482Y-112423475D01*
X160066457Y-112458270D01*
X159964656Y-112458270D01*
X159932036Y-112388681D01*
X159962359Y-112388681D01*
X159988383Y-112423475D01*
X160014408Y-112388681D01*
X159988383Y-112353886D01*
X159962359Y-112388681D01*
X159932036Y-112388681D01*
X159909327Y-112340237D01*
X159849558Y-112161003D01*
X159800348Y-111970713D01*
X159769609Y-111804395D01*
X159765252Y-111697075D01*
X159792944Y-111681827D01*
X159817968Y-111647831D01*
X159821311Y-111517021D01*
X159819957Y-111496539D01*
X159828798Y-111314838D01*
X159905474Y-111181117D01*
X159947945Y-111137755D01*
X160092482Y-111000255D01*
X160001396Y-111187499D01*
G37*
G36*
X162356319Y-112342057D02*
G01*
X162356621Y-112353886D01*
X162316608Y-112420801D01*
X162301500Y-112423475D01*
X162271440Y-112466717D01*
X162280712Y-112497748D01*
X162266504Y-112570099D01*
X162206296Y-112610043D01*
X162131122Y-112661683D01*
X162124025Y-112705347D01*
X162103752Y-112778925D01*
X162021650Y-112894013D01*
X161905598Y-113021519D01*
X161783478Y-113132347D01*
X161715249Y-113176596D01*
X161732031Y-113154160D01*
X161706006Y-113119365D01*
X161679982Y-113154160D01*
X161702801Y-113184669D01*
X161683168Y-113197403D01*
X161647088Y-113203048D01*
X161590339Y-113231268D01*
X161588072Y-113270985D01*
X161555478Y-113348310D01*
X161484025Y-113383648D01*
X161404574Y-113425090D01*
X161396011Y-113472286D01*
X161382053Y-113527719D01*
X161344734Y-113536900D01*
X161273544Y-113575335D01*
X161263588Y-113610596D01*
X161231701Y-113652157D01*
X161211539Y-113641283D01*
X161163577Y-113646801D01*
X161159490Y-113671971D01*
X161131996Y-113741695D01*
X161054484Y-113698912D01*
X161007632Y-113641283D01*
X161055391Y-113641283D01*
X161081416Y-113676078D01*
X161107441Y-113641283D01*
X161081416Y-113606489D01*
X161055391Y-113641283D01*
X161007632Y-113641283D01*
X160952800Y-113573839D01*
X160860334Y-113467457D01*
X160794026Y-113434731D01*
X160789282Y-113437361D01*
X160733129Y-113413956D01*
X160680229Y-113330833D01*
X160642775Y-113278491D01*
X160699437Y-113278491D01*
X160712102Y-113317381D01*
X160764509Y-113392087D01*
X160794639Y-113376762D01*
X160795146Y-113367034D01*
X160758176Y-113308175D01*
X160735054Y-113286693D01*
X160699437Y-113278491D01*
X160642775Y-113278491D01*
X160600906Y-113219980D01*
X160541027Y-113188955D01*
X160466595Y-113146309D01*
X160369082Y-113043026D01*
X160275993Y-112916086D01*
X160214829Y-112802470D01*
X160209262Y-112742866D01*
X160189769Y-112711840D01*
X160114169Y-112700766D01*
X160032969Y-112689994D01*
X160045841Y-112650779D01*
X160066457Y-112631577D01*
X160152239Y-112611038D01*
X160222605Y-112688219D01*
X160327858Y-112811557D01*
X160397165Y-112862377D01*
X160465173Y-112945056D01*
X160465228Y-113010800D01*
X160472481Y-113084565D01*
X160530236Y-113085772D01*
X160626809Y-113114493D01*
X160746696Y-113216034D01*
X160771518Y-113245010D01*
X160880627Y-113366957D01*
X160963253Y-113436455D01*
X160974368Y-113441084D01*
X161068062Y-113476795D01*
X161117247Y-113501182D01*
X161223785Y-113488719D01*
X161294061Y-113409633D01*
X161389563Y-113317362D01*
X161461953Y-113311275D01*
X161514144Y-113315521D01*
X161503276Y-113270369D01*
X161497786Y-113197951D01*
X161517044Y-113188955D01*
X161591733Y-113144378D01*
X161650239Y-113079600D01*
X161714113Y-113021556D01*
X161732031Y-113049776D01*
X161759355Y-113076784D01*
X161810105Y-113024923D01*
X161873816Y-112913465D01*
X161888178Y-112858529D01*
X161892279Y-112848455D01*
X161940228Y-112848455D01*
X161958374Y-112906799D01*
X162017590Y-112847311D01*
X162045315Y-112804622D01*
X162083291Y-112729177D01*
X162042167Y-112734281D01*
X162025663Y-112742478D01*
X161952342Y-112810440D01*
X161940228Y-112848455D01*
X161892279Y-112848455D01*
X161921900Y-112775690D01*
X162000336Y-112667771D01*
X162089396Y-112574120D01*
X162154985Y-112534089D01*
X162165240Y-112538743D01*
X162198301Y-112511053D01*
X162225253Y-112428719D01*
X162272904Y-112318352D01*
X162327202Y-112283422D01*
X162356319Y-112342057D01*
G37*
G36*
X161243651Y-109136202D02*
G01*
X161342425Y-109182336D01*
X161469606Y-109263243D01*
X161616138Y-109323299D01*
X161726157Y-109377395D01*
X161752453Y-109442580D01*
X161750468Y-109447561D01*
X161748415Y-109488885D01*
X161778318Y-109470702D01*
X161865526Y-109466029D01*
X161916483Y-109503265D01*
X161978306Y-109552495D01*
X161992277Y-109541602D01*
X162030455Y-109536174D01*
X162109387Y-109582660D01*
X162210352Y-109643789D01*
X162261898Y-109656318D01*
X162307643Y-109703125D01*
X162349047Y-109855418D01*
X162380849Y-110079512D01*
X162397789Y-110341720D01*
X162398039Y-110528054D01*
X162387850Y-110740416D01*
X162373095Y-110873634D01*
X162358298Y-110899356D01*
X162290193Y-110860761D01*
X162234005Y-110862501D01*
X162174074Y-110866486D01*
X162183225Y-110822024D01*
X162185645Y-110818396D01*
X162265284Y-110818396D01*
X162272404Y-110822927D01*
X162319903Y-110773938D01*
X162330596Y-110753338D01*
X162343860Y-110688280D01*
X162336740Y-110683749D01*
X162289241Y-110732738D01*
X162278547Y-110753338D01*
X162265284Y-110818396D01*
X162185645Y-110818396D01*
X162247017Y-110726379D01*
X162336779Y-110546083D01*
X162349842Y-110387915D01*
X162299015Y-110296418D01*
X162272229Y-110235363D01*
X162304585Y-110196615D01*
X162343821Y-110097444D01*
X162319482Y-109962346D01*
X162246846Y-109846251D01*
X162197811Y-109812756D01*
X162115132Y-109751181D01*
X162096375Y-109706997D01*
X162058877Y-109670350D01*
X162027891Y-109679417D01*
X161937543Y-109673869D01*
X161812766Y-109612250D01*
X161806682Y-109608073D01*
X161801716Y-109605119D01*
X161992277Y-109605119D01*
X162018301Y-109639913D01*
X162044326Y-109605119D01*
X162018301Y-109570324D01*
X161992277Y-109605119D01*
X161801716Y-109605119D01*
X161681700Y-109533727D01*
X161590749Y-109501216D01*
X161588896Y-109501164D01*
X161528421Y-109456776D01*
X161523834Y-109431146D01*
X161494506Y-109369941D01*
X161484797Y-109369798D01*
X161419736Y-109364474D01*
X161334334Y-109331917D01*
X161214025Y-109295407D01*
X161131891Y-109276292D01*
X161061706Y-109297465D01*
X160921616Y-109360406D01*
X160737726Y-109453090D01*
X160670924Y-109488669D01*
X160479715Y-109584830D01*
X160324498Y-109649813D01*
X160230666Y-109673464D01*
X160217068Y-109670133D01*
X160173129Y-109680248D01*
X160170555Y-109700706D01*
X160127983Y-109777126D01*
X160079469Y-109808412D01*
X160031351Y-109853175D01*
X160000817Y-109956664D01*
X159982628Y-110147445D01*
X159973302Y-110387211D01*
X159957993Y-110758125D01*
X159935333Y-111003374D01*
X159903514Y-111136275D01*
X159866950Y-111170872D01*
X159853599Y-111107040D01*
X159850219Y-110937380D01*
X159857152Y-110694642D01*
X159861155Y-110614999D01*
X159879552Y-110349181D01*
X159901122Y-110139618D01*
X159921883Y-110022977D01*
X159926580Y-110012497D01*
X159928952Y-109927876D01*
X159905265Y-109875348D01*
X159886642Y-109800568D01*
X159956358Y-109749545D01*
X159983430Y-109739741D01*
X160071251Y-109683822D01*
X160084080Y-109621738D01*
X160083566Y-109582160D01*
X160110464Y-109598474D01*
X160163821Y-109598049D01*
X160170555Y-109565911D01*
X160189301Y-109519090D01*
X160242551Y-109563580D01*
X160309388Y-109601613D01*
X160344071Y-109535530D01*
X160378752Y-109535530D01*
X160404777Y-109570324D01*
X160430801Y-109535530D01*
X160404777Y-109500735D01*
X160378752Y-109535530D01*
X160344071Y-109535530D01*
X160347282Y-109529411D01*
X160417681Y-109446544D01*
X160481704Y-109450909D01*
X160561643Y-109461157D01*
X160579006Y-109441407D01*
X160586584Y-109330221D01*
X160644548Y-109340721D01*
X160675014Y-109370434D01*
X160729772Y-109415983D01*
X160728695Y-109389130D01*
X160733471Y-109326763D01*
X160795146Y-109326763D01*
X160821170Y-109361557D01*
X160847195Y-109326763D01*
X160821170Y-109291968D01*
X160795146Y-109326763D01*
X160733471Y-109326763D01*
X160735504Y-109300214D01*
X160780564Y-109257174D01*
X160899244Y-109257174D01*
X160925268Y-109291968D01*
X160951293Y-109257174D01*
X160925268Y-109222379D01*
X160899244Y-109257174D01*
X160780564Y-109257174D01*
X160818408Y-109221027D01*
X160949403Y-109161006D01*
X161100485Y-109129586D01*
X161243651Y-109136202D01*
G37*
D12*
%TO.C,J6*%
X140238680Y-113998962D02*
X140238680Y-126818962D01*
X140238680Y-113998962D02*
X148868680Y-113998962D01*
X140238680Y-114118962D02*
X148868680Y-114118962D01*
X140238680Y-114237057D02*
X148868680Y-114237057D01*
X140238680Y-114355152D02*
X148868680Y-114355152D01*
X140238680Y-114473247D02*
X148868680Y-114473247D01*
X140238680Y-114591342D02*
X148868680Y-114591342D01*
X140238680Y-114709437D02*
X148868680Y-114709437D01*
X140238680Y-114827532D02*
X148868680Y-114827532D01*
X140238680Y-114945627D02*
X148868680Y-114945627D01*
X140238680Y-115063722D02*
X148868680Y-115063722D01*
X140238680Y-115181817D02*
X148868680Y-115181817D01*
X140238680Y-115299912D02*
X148868680Y-115299912D01*
X140238680Y-115418007D02*
X148868680Y-115418007D01*
X140238680Y-115536102D02*
X148868680Y-115536102D01*
X140238680Y-115654197D02*
X148868680Y-115654197D01*
X140238680Y-115772292D02*
X148868680Y-115772292D01*
X140238680Y-115890387D02*
X148868680Y-115890387D01*
X140238680Y-116008482D02*
X148868680Y-116008482D01*
X140238680Y-116126577D02*
X148868680Y-116126577D01*
X140238680Y-116244672D02*
X148868680Y-116244672D01*
X140238680Y-116362767D02*
X148868680Y-116362767D01*
X140238680Y-116480862D02*
X148868680Y-116480862D01*
X140238680Y-116598962D02*
X148868680Y-116598962D01*
X140238680Y-119138962D02*
X148868680Y-119138962D01*
X140238680Y-121678962D02*
X148868680Y-121678962D01*
X140238680Y-124218962D02*
X148868680Y-124218962D01*
X140238680Y-126818962D02*
X148868680Y-126818962D01*
X148868680Y-113998962D02*
X148868680Y-126818962D01*
X148868680Y-114968962D02*
X149218680Y-114968962D01*
X148868680Y-115688962D02*
X149218680Y-115688962D01*
X148868680Y-117508962D02*
X149278680Y-117508962D01*
X148868680Y-118228962D02*
X149278680Y-118228962D01*
X148868680Y-120048962D02*
X149278680Y-120048962D01*
X148868680Y-120768962D02*
X149278680Y-120768962D01*
X148868680Y-122588962D02*
X149278680Y-122588962D01*
X148868680Y-123308962D02*
X149278680Y-123308962D01*
X148868680Y-125128962D02*
X149278680Y-125128962D01*
X148868680Y-125848962D02*
X149278680Y-125848962D01*
X150328680Y-113998962D02*
X151438680Y-113998962D01*
X151438680Y-113998962D02*
X151438680Y-115328962D01*
%TO.C,J8*%
X194030000Y-75560000D02*
X181210000Y-75560000D01*
X194030000Y-75560000D02*
X194030000Y-84190000D01*
X193910000Y-75560000D02*
X193910000Y-84190000D01*
X193791905Y-75560000D02*
X193791905Y-84190000D01*
X193673810Y-75560000D02*
X193673810Y-84190000D01*
X193555715Y-75560000D02*
X193555715Y-84190000D01*
X193437620Y-75560000D02*
X193437620Y-84190000D01*
X193319525Y-75560000D02*
X193319525Y-84190000D01*
X193201430Y-75560000D02*
X193201430Y-84190000D01*
X193083335Y-75560000D02*
X193083335Y-84190000D01*
X192965240Y-75560000D02*
X192965240Y-84190000D01*
X192847145Y-75560000D02*
X192847145Y-84190000D01*
X192729050Y-75560000D02*
X192729050Y-84190000D01*
X192610955Y-75560000D02*
X192610955Y-84190000D01*
X192492860Y-75560000D02*
X192492860Y-84190000D01*
X192374765Y-75560000D02*
X192374765Y-84190000D01*
X192256670Y-75560000D02*
X192256670Y-84190000D01*
X192138575Y-75560000D02*
X192138575Y-84190000D01*
X192020480Y-75560000D02*
X192020480Y-84190000D01*
X191902385Y-75560000D02*
X191902385Y-84190000D01*
X191784290Y-75560000D02*
X191784290Y-84190000D01*
X191666195Y-75560000D02*
X191666195Y-84190000D01*
X191548100Y-75560000D02*
X191548100Y-84190000D01*
X191430000Y-75560000D02*
X191430000Y-84190000D01*
X188890000Y-75560000D02*
X188890000Y-84190000D01*
X186350000Y-75560000D02*
X186350000Y-84190000D01*
X183810000Y-75560000D02*
X183810000Y-84190000D01*
X181210000Y-75560000D02*
X181210000Y-84190000D01*
X194030000Y-84190000D02*
X181210000Y-84190000D01*
X193060000Y-84190000D02*
X193060000Y-84540000D01*
X192340000Y-84190000D02*
X192340000Y-84540000D01*
X190520000Y-84190000D02*
X190520000Y-84600000D01*
X189800000Y-84190000D02*
X189800000Y-84600000D01*
X187980000Y-84190000D02*
X187980000Y-84600000D01*
X187260000Y-84190000D02*
X187260000Y-84600000D01*
X185440000Y-84190000D02*
X185440000Y-84600000D01*
X184720000Y-84190000D02*
X184720000Y-84600000D01*
X182900000Y-84190000D02*
X182900000Y-84600000D01*
X182180000Y-84190000D02*
X182180000Y-84600000D01*
X194030000Y-85650000D02*
X194030000Y-86760000D01*
X194030000Y-86760000D02*
X192700000Y-86760000D01*
%TO.C,J4*%
X178677642Y-167790282D02*
X191497642Y-167790282D01*
X178677642Y-167790282D02*
X178677642Y-159160282D01*
X178797642Y-167790282D02*
X178797642Y-159160282D01*
X178915737Y-167790282D02*
X178915737Y-159160282D01*
X179033832Y-167790282D02*
X179033832Y-159160282D01*
X179151927Y-167790282D02*
X179151927Y-159160282D01*
X179270022Y-167790282D02*
X179270022Y-159160282D01*
X179388117Y-167790282D02*
X179388117Y-159160282D01*
X179506212Y-167790282D02*
X179506212Y-159160282D01*
X179624307Y-167790282D02*
X179624307Y-159160282D01*
X179742402Y-167790282D02*
X179742402Y-159160282D01*
X179860497Y-167790282D02*
X179860497Y-159160282D01*
X179978592Y-167790282D02*
X179978592Y-159160282D01*
X180096687Y-167790282D02*
X180096687Y-159160282D01*
X180214782Y-167790282D02*
X180214782Y-159160282D01*
X180332877Y-167790282D02*
X180332877Y-159160282D01*
X180450972Y-167790282D02*
X180450972Y-159160282D01*
X180569067Y-167790282D02*
X180569067Y-159160282D01*
X180687162Y-167790282D02*
X180687162Y-159160282D01*
X180805257Y-167790282D02*
X180805257Y-159160282D01*
X180923352Y-167790282D02*
X180923352Y-159160282D01*
X181041447Y-167790282D02*
X181041447Y-159160282D01*
X181159542Y-167790282D02*
X181159542Y-159160282D01*
X181277642Y-167790282D02*
X181277642Y-159160282D01*
X183817642Y-167790282D02*
X183817642Y-159160282D01*
X186357642Y-167790282D02*
X186357642Y-159160282D01*
X188897642Y-167790282D02*
X188897642Y-159160282D01*
X191497642Y-167790282D02*
X191497642Y-159160282D01*
X178677642Y-159160282D02*
X191497642Y-159160282D01*
X179647642Y-159160282D02*
X179647642Y-158810282D01*
X180367642Y-159160282D02*
X180367642Y-158810282D01*
X182187642Y-159160282D02*
X182187642Y-158750282D01*
X182907642Y-159160282D02*
X182907642Y-158750282D01*
X184727642Y-159160282D02*
X184727642Y-158750282D01*
X185447642Y-159160282D02*
X185447642Y-158750282D01*
X187267642Y-159160282D02*
X187267642Y-158750282D01*
X187987642Y-159160282D02*
X187987642Y-158750282D01*
X189807642Y-159160282D02*
X189807642Y-158750282D01*
X190527642Y-159160282D02*
X190527642Y-158750282D01*
X178677642Y-157700282D02*
X178677642Y-156590282D01*
X178677642Y-156590282D02*
X180007642Y-156590282D01*
%TO.C,J2*%
X232468962Y-129351320D02*
X232468962Y-116531320D01*
X232468962Y-129351320D02*
X223838962Y-129351320D01*
X232468962Y-129231320D02*
X223838962Y-129231320D01*
X232468962Y-129113225D02*
X223838962Y-129113225D01*
X232468962Y-128995130D02*
X223838962Y-128995130D01*
X232468962Y-128877035D02*
X223838962Y-128877035D01*
X232468962Y-128758940D02*
X223838962Y-128758940D01*
X232468962Y-128640845D02*
X223838962Y-128640845D01*
X232468962Y-128522750D02*
X223838962Y-128522750D01*
X232468962Y-128404655D02*
X223838962Y-128404655D01*
X232468962Y-128286560D02*
X223838962Y-128286560D01*
X232468962Y-128168465D02*
X223838962Y-128168465D01*
X232468962Y-128050370D02*
X223838962Y-128050370D01*
X232468962Y-127932275D02*
X223838962Y-127932275D01*
X232468962Y-127814180D02*
X223838962Y-127814180D01*
X232468962Y-127696085D02*
X223838962Y-127696085D01*
X232468962Y-127577990D02*
X223838962Y-127577990D01*
X232468962Y-127459895D02*
X223838962Y-127459895D01*
X232468962Y-127341800D02*
X223838962Y-127341800D01*
X232468962Y-127223705D02*
X223838962Y-127223705D01*
X232468962Y-127105610D02*
X223838962Y-127105610D01*
X232468962Y-126987515D02*
X223838962Y-126987515D01*
X232468962Y-126869420D02*
X223838962Y-126869420D01*
X232468962Y-126751320D02*
X223838962Y-126751320D01*
X232468962Y-124211320D02*
X223838962Y-124211320D01*
X232468962Y-121671320D02*
X223838962Y-121671320D01*
X232468962Y-119131320D02*
X223838962Y-119131320D01*
X232468962Y-116531320D02*
X223838962Y-116531320D01*
X223838962Y-129351320D02*
X223838962Y-116531320D01*
X223838962Y-128381320D02*
X223488962Y-128381320D01*
X223838962Y-127661320D02*
X223488962Y-127661320D01*
X223838962Y-125841320D02*
X223428962Y-125841320D01*
X223838962Y-125121320D02*
X223428962Y-125121320D01*
X223838962Y-123301320D02*
X223428962Y-123301320D01*
X223838962Y-122581320D02*
X223428962Y-122581320D01*
X223838962Y-120761320D02*
X223428962Y-120761320D01*
X223838962Y-120041320D02*
X223428962Y-120041320D01*
X223838962Y-118221320D02*
X223428962Y-118221320D01*
X223838962Y-117501320D02*
X223428962Y-117501320D01*
X222378962Y-129351320D02*
X221268962Y-129351320D01*
X221268962Y-129351320D02*
X221268962Y-128021320D01*
%TO.C,J1*%
X224390028Y-94494691D02*
X215324920Y-85429582D01*
X224390028Y-94494691D02*
X218287697Y-100597022D01*
X224305176Y-94409838D02*
X218202844Y-100512169D01*
X224221670Y-94326332D02*
X218119338Y-100428664D01*
X224138164Y-94242826D02*
X218035833Y-100345158D01*
X224054658Y-94159320D02*
X217952327Y-100261652D01*
X223971153Y-94075815D02*
X217868821Y-100178146D01*
X223887647Y-93992309D02*
X217785315Y-100094640D01*
X223804141Y-93908803D02*
X217701809Y-100011135D01*
X223720635Y-93825297D02*
X217618304Y-99927629D01*
X223637129Y-93741792D02*
X217534798Y-99844123D01*
X223553624Y-93658286D02*
X217451292Y-99760617D01*
X223470118Y-93574780D02*
X217367786Y-99677112D01*
X223386612Y-93491274D02*
X217284281Y-99593606D01*
X223303106Y-93407768D02*
X217200775Y-99510100D01*
X223219601Y-93324263D02*
X217117269Y-99426594D01*
X223136095Y-93240757D02*
X217033763Y-99343088D01*
X223052589Y-93157251D02*
X216950257Y-99259583D01*
X222969083Y-93073745D02*
X216866752Y-99176077D01*
X222885577Y-92990240D02*
X216783246Y-99092571D01*
X222802072Y-92906734D02*
X216699740Y-99009065D01*
X222718566Y-92823228D02*
X216616234Y-98925560D01*
X222635060Y-92739722D02*
X216532729Y-98842054D01*
X222551551Y-92656213D02*
X216449219Y-98758544D01*
X220755500Y-90860162D02*
X214653168Y-96962493D01*
X218959448Y-89064111D02*
X212857117Y-95166442D01*
X217163397Y-87268059D02*
X211061066Y-93370391D01*
X215324920Y-85429582D02*
X209222588Y-91531913D01*
X218287697Y-100597022D02*
X209222588Y-91531913D01*
X217601803Y-99911129D02*
X217354316Y-100158616D01*
X217092686Y-99402012D02*
X216845199Y-99649499D01*
X215805752Y-98115077D02*
X215515838Y-98404991D01*
X215296635Y-97605960D02*
X215006721Y-97895874D01*
X214009701Y-96319026D02*
X213719787Y-96608940D01*
X213500584Y-95809909D02*
X213210670Y-96099823D01*
X212213650Y-94522975D02*
X211923736Y-94812889D01*
X211704533Y-94013858D02*
X211414619Y-94303772D01*
X210417598Y-92726924D02*
X210127685Y-93016837D01*
X209908482Y-92217807D02*
X209618568Y-92507721D01*
X217255321Y-101629398D02*
X216470432Y-102414287D01*
X216470432Y-102414287D02*
X215529980Y-101473835D01*
%TO.C,J7*%
X159173371Y-83638934D02*
X150108262Y-92704042D01*
X159173371Y-83638934D02*
X165275702Y-89741265D01*
X159088518Y-83723786D02*
X165190849Y-89826118D01*
X159005012Y-83807292D02*
X165107344Y-89909624D01*
X158921506Y-83890798D02*
X165023838Y-89993129D01*
X158838000Y-83974304D02*
X164940332Y-90076635D01*
X158754495Y-84057809D02*
X164856826Y-90160141D01*
X158670989Y-84141315D02*
X164773320Y-90243647D01*
X158587483Y-84224821D02*
X164689815Y-90327153D01*
X158503977Y-84308327D02*
X164606309Y-90410658D01*
X158420472Y-84391833D02*
X164522803Y-90494164D01*
X158336966Y-84475338D02*
X164439297Y-90577670D01*
X158253460Y-84558844D02*
X164355792Y-90661176D01*
X158169954Y-84642350D02*
X164272286Y-90744681D01*
X158086448Y-84725856D02*
X164188780Y-90828187D01*
X158002943Y-84809361D02*
X164105274Y-90911693D01*
X157919437Y-84892867D02*
X164021768Y-90995199D01*
X157835931Y-84976373D02*
X163938263Y-91078705D01*
X157752425Y-85059879D02*
X163854757Y-91162210D01*
X157668920Y-85143385D02*
X163771251Y-91245716D01*
X157585414Y-85226890D02*
X163687745Y-91329222D01*
X157501908Y-85310396D02*
X163604240Y-91412728D01*
X157418402Y-85393902D02*
X163520734Y-91496233D01*
X157334893Y-85477411D02*
X163437224Y-91579743D01*
X155538842Y-87273462D02*
X161641173Y-93375794D01*
X153742791Y-89069514D02*
X159845122Y-95171845D01*
X151946739Y-90865565D02*
X158049071Y-96967896D01*
X150108262Y-92704042D02*
X156210593Y-98806374D01*
X165275702Y-89741265D02*
X156210593Y-98806374D01*
X164589809Y-90427159D02*
X164837296Y-90674646D01*
X164080692Y-90936276D02*
X164328179Y-91183763D01*
X162793757Y-92223210D02*
X163083671Y-92513124D01*
X162284640Y-92732327D02*
X162574554Y-93022241D01*
X160997706Y-94019261D02*
X161287620Y-94309175D01*
X160488589Y-94528378D02*
X160778503Y-94818292D01*
X159201655Y-95815312D02*
X159491569Y-96105226D01*
X158692538Y-96324429D02*
X158982452Y-96614343D01*
X157405604Y-97611364D02*
X157695517Y-97901277D01*
X156896487Y-98120480D02*
X157186401Y-98410394D01*
X166308078Y-90773641D02*
X167092967Y-91558530D01*
X167092967Y-91558530D02*
X166152515Y-92498982D01*
%TO.C,J3*%
X213534271Y-159711348D02*
X222599380Y-150646240D01*
X213534271Y-159711348D02*
X207431940Y-153609017D01*
X213619124Y-159626496D02*
X207516793Y-153524164D01*
X213702630Y-159542990D02*
X207600298Y-153440658D01*
X213786136Y-159459484D02*
X207683804Y-153357153D01*
X213869642Y-159375978D02*
X207767310Y-153273647D01*
X213953147Y-159292473D02*
X207850816Y-153190141D01*
X214036653Y-159208967D02*
X207934322Y-153106635D01*
X214120159Y-159125461D02*
X208017827Y-153023129D01*
X214203665Y-159041955D02*
X208101333Y-152939624D01*
X214287170Y-158958449D02*
X208184839Y-152856118D01*
X214370676Y-158874944D02*
X208268345Y-152772612D01*
X214454182Y-158791438D02*
X208351850Y-152689106D01*
X214537688Y-158707932D02*
X208435356Y-152605601D01*
X214621194Y-158624426D02*
X208518862Y-152522095D01*
X214704699Y-158540921D02*
X208602368Y-152438589D01*
X214788205Y-158457415D02*
X208685874Y-152355083D01*
X214871711Y-158373909D02*
X208769379Y-152271577D01*
X214955217Y-158290403D02*
X208852885Y-152188072D01*
X215038722Y-158206897D02*
X208936391Y-152104566D01*
X215122228Y-158123392D02*
X209019897Y-152021060D01*
X215205734Y-158039886D02*
X209103402Y-151937554D01*
X215289240Y-157956380D02*
X209186908Y-151854049D01*
X215372749Y-157872871D02*
X209270418Y-151770539D01*
X217168800Y-156076820D02*
X211066469Y-149974488D01*
X218964851Y-154280768D02*
X212862520Y-148178437D01*
X220760903Y-152484717D02*
X214658571Y-146382386D01*
X222599380Y-150646240D02*
X216497049Y-144543908D01*
X207431940Y-153609017D02*
X216497049Y-144543908D01*
X208117833Y-152923123D02*
X207870346Y-152675636D01*
X208626950Y-152414006D02*
X208379463Y-152166519D01*
X209913885Y-151127072D02*
X209623971Y-150837158D01*
X210423002Y-150617955D02*
X210133088Y-150328041D01*
X211709936Y-149331021D02*
X211420022Y-149041107D01*
X212219053Y-148821904D02*
X211929139Y-148531990D01*
X213505987Y-147534970D02*
X213216073Y-147245056D01*
X214015104Y-147025853D02*
X213725190Y-146735939D01*
X215302038Y-145738918D02*
X215012125Y-145449005D01*
X215811155Y-145229802D02*
X215521241Y-144939888D01*
X206399564Y-152576641D02*
X205614675Y-151791752D01*
X205614675Y-151791752D02*
X206555127Y-150851300D01*
%TD*%
M02*
