%TF.GenerationSoftware,KiCad,Pcbnew,7.0.9*%
%TF.CreationDate,2024-12-17T14:24:59+09:00*%
%TF.ProjectId,line_main_robot2,6c696e65-5f6d-4616-996e-5f726f626f74,rev?*%
%TF.SameCoordinates,Original*%
%TF.FileFunction,Profile,NP*%
%FSLAX46Y46*%
G04 Gerber Fmt 4.6, Leading zero omitted, Abs format (unit mm)*
G04 Created by KiCad (PCBNEW 7.0.9) date 2024-12-17 14:24:59*
%MOMM*%
%LPD*%
G01*
G04 APERTURE LIST*
%TA.AperFunction,Profile*%
%ADD10C,0.200000*%
%TD*%
G04 APERTURE END LIST*
D10*
X227832629Y-104224972D02*
G75*
G03*
X225641632Y-99732764I-1033029J2276572D01*
G01*
X147558089Y-141401843D02*
G75*
G03*
X147558089Y-141401843I-1650000J0D01*
G01*
X225969272Y-105133749D02*
G75*
G03*
X225476188Y-106396385I438528J-898851D01*
G01*
X225641632Y-99732764D02*
X223778292Y-100641575D01*
X223778263Y-142708766D02*
G75*
G03*
X222479780Y-143097446I-438363J-898834D01*
G01*
X228449553Y-101948439D02*
G75*
G03*
X228449553Y-101948439I-1650000J0D01*
G01*
X214496316Y-114675141D02*
X158211326Y-114675141D01*
X223778292Y-142708707D02*
X225641632Y-143617518D01*
X158211326Y-114675141D02*
G75*
G03*
X214496316Y-114675141I28142495J-7000000D01*
G01*
X147558089Y-101948439D02*
G75*
G03*
X147558089Y-101948439I-1650000J0D01*
G01*
X227832642Y-139125282D02*
X225969302Y-138216471D01*
X146738340Y-138216471D02*
X144875000Y-139125282D01*
X148929350Y-100641575D02*
X147066010Y-99732764D01*
X147066010Y-99732764D02*
G75*
G03*
X144875000Y-104225000I-1157920J-2215676D01*
G01*
X150227864Y-143097446D02*
G75*
G03*
X222479778Y-143097446I36125957J21422305D01*
G01*
X225476228Y-136953913D02*
G75*
G03*
X225969302Y-138216471I931472J-363787D01*
G01*
X147066010Y-143617518D02*
X148929350Y-142708707D01*
X144875000Y-104225000D02*
X146738340Y-105133811D01*
X225641687Y-143617413D02*
G75*
G03*
X227832642Y-139125283I1157913J2215613D01*
G01*
X147231461Y-106396388D02*
G75*
G03*
X146738340Y-105133812I-931461J363788D01*
G01*
X222479762Y-100252846D02*
G75*
G03*
X223778292Y-100641575I860138J510046D01*
G01*
X147231454Y-106396385D02*
G75*
G03*
X147231454Y-136953897I39122366J-15278755D01*
G01*
X144874973Y-139125222D02*
G75*
G03*
X147066010Y-143617518I1033127J-2276578D01*
G01*
X148929335Y-100641606D02*
G75*
G03*
X150227863Y-100252836I438365J898806D01*
G01*
X150227838Y-143097461D02*
G75*
G03*
X148929350Y-142708708I-860138J-510039D01*
G01*
X225969302Y-105133811D02*
X227832642Y-104225000D01*
X146738346Y-138216483D02*
G75*
G03*
X147231453Y-136953897I-438346J898783D01*
G01*
X222479778Y-100252836D02*
G75*
G03*
X150227864Y-100252836I-36125957J-21422305D01*
G01*
X228449553Y-141401843D02*
G75*
G03*
X228449553Y-141401843I-1650000J0D01*
G01*
X225476187Y-136953897D02*
G75*
G03*
X225476188Y-106396385I-39122367J15278757D01*
G01*
M02*
