0
SECTION
2
HEADER
9
$INSUNITS
70
4
9
$ACADVER
1
AC1014
9
$HANDSEED
5
FFFF
0
ENDSEC
0
SECTION
2
TABLES
0
TABLE
2
VPORT
5
8
100
AcDbSymbolTable
0
ENDTAB
0
TABLE
2
LTYPE
5
5
100
AcDbSymbolTable
0
LTYPE
5
14
100
AcDbSymbolTableRecord
100
AcDbLinetypeTableRecord
2
BYBLOCK
70
0
0
LTYPE
5
15
100
AcDbSymbolTableRecord
100
AcDbLinetypeTableRecord
2
BYLAYER
70
0
0
LTYPE
5
16
100
AcDbSymbolTableRecord
100
AcDbLinetypeTableRecord
2
DASHED
70
0
3
Dashed __ __ __ __ __ __ __ __ __ __ __ __ __ _
72
65
73
2
40
0.75
49
0.5
74
0
49
-0.25
74
0
0
ENDTAB
0
TABLE
2
LAYER
5
2
100
AcDbSymbolTable
70
3
0
LAYER
5
50
100
AcDbSymbolTableRecord
100
AcDbLayerTableRecord
2
1
70
0
62
7
6
DASHED
0
LAYER
5
51
100
AcDbSymbolTableRecord
100
AcDbLayerTableRecord
2
0
70
0
62
7
6
CONTINUOUS
0
ENDTAB
0
TABLE
2
STYLE
5
3
100
AcDbSymbolTable
70
1
0
STYLE
5
11
100
AcDbSymbolTableRecord
100
AcDbTextStyleTableRecord
2
STANDARD
70
0
0
ENDTAB
0
TABLE
2
VIEW
5
6
100
AcDbSymbolTable
70
0
0
ENDTAB
0
TABLE
2
UCS
5
7
100
AcDbSymbolTable
70
0
0
ENDTAB
0
TABLE
2
APPID
5
9
100
AcDbSymbolTable
70
2
0
APPID
5
12
100
AcDbSymbolTableRecord
100
AcDbRegAppTableRecord
2
ACAD
70
0
0
ENDTAB
0
TABLE
2
DIMSTYLE
5
A
100
AcDbSymbolTable
70
1
0
ENDTAB
0
TABLE
2
BLOCK_RECORD
5
1
100
AcDbSymbolTable
70
1
0
BLOCK_RECORD
5
1F
100
AcDbSymbolTableRecord
100
AcDbBlockTableRecord
2
*MODEL_SPACE
0
BLOCK_RECORD
5
1B
100
AcDbSymbolTableRecord
100
AcDbBlockTableRecord
2
*PAPER_SPACE
0
ENDTAB
0
ENDSEC
0
SECTION
2
BLOCKS
0
BLOCK
5
20
100
AcDbEntity
100
AcDbBlockBegin
2
*MODEL_SPACE
0
ENDBLK
5
21
100
AcDbEntity
100
AcDbBlockEnd
0
BLOCK
5
1C
100
AcDbEntity
100
AcDbBlockBegin
2
*PAPER_SPACE
0
ENDBLK
5
1D
100
AcDbEntity
100
AcDbBlockEnd
0
ENDSEC
0
SECTION
2
ENTITIES
0
CIRCLE
5
100
100
AcDbEntity
8
0
100
AcDbCircle
10
34.316432721016859
20
79.304642253678878
30
0
40
1.4999999999999991
210
0
220
-0
230
1
0
CIRCLE
5
101
100
AcDbEntity
8
0
100
AcDbCircle
10
-34.316432721016866
20
79.304642253678878
30
0
40
1.5000000000000036
210
0
220
-0
230
1
0
LWPOLYLINE
5
102
100
AcDbEntity
8
0
100
AcDbPolyline
90
28
70
1
43
0.0
10
-34.540775458559537
20
75.327253193724104
42
0.42372168667850996
10
-34.494288876182644
20
72.453819665687689
42
0.13980787561652511
10
-9.8640043161889341
20
59.779991684302175
42
-0.35750532818499875
10
-5.0408145768321297
20
53.89653032125706
10
-5.0408145768321155
20
46.901529257683336
42
0.4333061379192964
10
-2.9114182118601817
20
44.905719502032895
42
-0.031947479375146103
10
2.8332626392032112
20
44.910718351160845
42
0.43278946136408125
10
4.9591854231678321
20
46.906750277879105
10
4.9591854231678258
20
53.864125404354567
42
-0.35833615083182602
10
9.7997123291573569
20
59.751027997761888
42
0.14025526442297997
10
34.532019629088545
20
72.412722761832271
42
0.42407286840086544
10
34.580244762131102
20
75.28778389015298
10
34.522525490789562
20
75.34550316149452
42
-0.40841802378075093
10
34.516973341814058
20
75.905525245296019
10
36.118900605080121
20
77.572271182885885
42
0.99999999999999989
10
32.513964836953598
20
81.037013324471886
10
30.991737432095515
20
79.453192135261148
42
-0.42003294918876183
10
30.420499858170768
20
79.44752879411341
10
30.334881442602789
20
79.533147209681403
42
0.40304499885989042
10
27.561615959675589
20
79.586236573509424
42
-0.39235429424080354
10
-27.520343886865586
20
79.623667274380622
42
0.40344002016734515
10
-30.295602312057799
20
79.572426340225846
10
-30.389299894369852
20
79.4787287579138
42
-0.41421356237306284
10
-30.95498531931905
20
79.478728757913771
10
-32.548665768050505
20
81.072409206645261
42
0.9999999925494194
10
-36.084199673983221
20
77.536875300712524
10
-34.490519225251845
20
75.943194851981076
42
-0.41421356237310192
10
-34.49051922525183
20
75.377509427031882
0
CIRCLE
5
103
100
AcDbEntity
8
0
100
AcDbCircle
10
0.040814576832117755
20
109.29912082003696
30
0
40
40.499999987672396
210
0
220
0
230
1
0
LINE
5
104
100
AcDbEntity
8
0
100
AcDbLine
10
0.040814576832117755
20
109.29912082003696
30
0
11
0.013292988293374108
21
68.799130183450046
31
-7.6190923243950673e-48
0
LINE
5
105
100
AcDbEntity
8
0
100
AcDbLine
10
-40.459185410840277
20
109.29912082003696
30
0
11
40.540777160166925
21
109.24407765566843
31
0
0
LINE
5
106
100
AcDbEntity
8
0
100
AcDbLine
10
0.040814576832117755
20
109.29912082003696
30
0
11
0.068336165370864885
21
149.79911145662388
31
0
0
LINE
5
107
100
AcDbEntity
8
0
100
AcDbLine
10
0.013292988293374108
20
68.799130183450046
30
-7.6190923243950673e-48
11
-0.039157636643188942
21
44.999982963099953
31
0
0
ENDSEC
0
SECTION
2
OBJECTS
0
DICTIONARY
5
C
100
AcDbDictionary
3
ACAD_GROUP
350
D
3
ACAD_MLINESTYLE
350
17
0
DICTIONARY
5
D
100
AcDbDictionary
0
DICTIONARY
5
1A
330
C
100
AcDbDictionary
0
DICTIONARY
5
17
100
AcDbDictionary
0
ENDSEC
0
EOF
