%TF.GenerationSoftware,KiCad,Pcbnew,7.0.9*%
%TF.CreationDate,2025-05-06T13:26:46+09:00*%
%TF.ProjectId,Main_board,4d61696e-5f62-46f6-9172-642e6b696361,rev?*%
%TF.SameCoordinates,Original*%
%TF.FileFunction,Soldermask,Bot*%
%TF.FilePolarity,Negative*%
%FSLAX46Y46*%
G04 Gerber Fmt 4.6, Leading zero omitted, Abs format (unit mm)*
G04 Created by KiCad (PCBNEW 7.0.9) date 2025-05-06 13:26:46*
%MOMM*%
%LPD*%
G01*
G04 APERTURE LIST*
G04 Aperture macros list*
%AMRoundRect*
0 Rectangle with rounded corners*
0 $1 Rounding radius*
0 $2 $3 $4 $5 $6 $7 $8 $9 X,Y pos of 4 corners*
0 Add a 4 corners polygon primitive as box body*
4,1,4,$2,$3,$4,$5,$6,$7,$8,$9,$2,$3,0*
0 Add four circle primitives for the rounded corners*
1,1,$1+$1,$2,$3*
1,1,$1+$1,$4,$5*
1,1,$1+$1,$6,$7*
1,1,$1+$1,$8,$9*
0 Add four rect primitives between the rounded corners*
20,1,$1+$1,$2,$3,$4,$5,0*
20,1,$1+$1,$4,$5,$6,$7,0*
20,1,$1+$1,$6,$7,$8,$9,0*
20,1,$1+$1,$8,$9,$2,$3,0*%
%AMHorizOval*
0 Thick line with rounded ends*
0 $1 width*
0 $2 $3 position (X,Y) of the first rounded end (center of the circle)*
0 $4 $5 position (X,Y) of the second rounded end (center of the circle)*
0 Add line between two ends*
20,1,$1,$2,$3,$4,$5,0*
0 Add two circle primitives to create the rounded ends*
1,1,$1,$2,$3*
1,1,$1,$4,$5*%
G04 Aperture macros list end*
%ADD10C,1.400000*%
%ADD11O,1.400000X1.400000*%
%ADD12R,1.700000X1.700000*%
%ADD13O,1.700000X1.700000*%
%ADD14R,1.800000X1.800000*%
%ADD15C,1.800000*%
%ADD16RoundRect,0.250000X-0.725000X0.600000X-0.725000X-0.600000X0.725000X-0.600000X0.725000X0.600000X0*%
%ADD17O,1.950000X1.700000*%
%ADD18C,1.600000*%
%ADD19C,1.700000*%
%ADD20C,1.524000*%
%ADD21RoundRect,0.250000X-0.936916X-0.088388X-0.088388X-0.936916X0.936916X0.088388X0.088388X0.936916X0*%
%ADD22HorizOval,1.700000X-0.088388X-0.088388X0.088388X0.088388X0*%
%ADD23RoundRect,0.250000X0.094927X-0.936277X0.937511X-0.081845X-0.094927X0.936277X-0.937511X0.081845X0*%
%ADD24HorizOval,1.700000X-0.089003X0.087769X0.089003X-0.087769X0*%
%ADD25C,2.000000*%
%ADD26R,1.600000X2.400000*%
%ADD27O,1.600000X2.400000*%
%ADD28RoundRect,0.250000X0.725000X-0.600000X0.725000X0.600000X-0.725000X0.600000X-0.725000X-0.600000X0*%
%ADD29R,1.600000X1.600000*%
%ADD30R,2.000000X2.000000*%
%ADD31RoundRect,0.250000X-0.600000X-0.600000X0.600000X-0.600000X0.600000X0.600000X-0.600000X0.600000X0*%
G04 APERTURE END LIST*
D10*
%TO.C,R6*%
X182530000Y-86080000D03*
D11*
X187610000Y-86080000D03*
%TD*%
D12*
%TO.C,D34*%
X198825000Y-67395000D03*
D13*
X198825000Y-69935000D03*
X198825000Y-72475000D03*
%TD*%
D14*
%TO.C,330*%
X167000000Y-75200000D03*
D15*
X169540000Y-75200000D03*
%TD*%
D16*
%TO.C,LINE*%
X155000000Y-104560000D03*
D17*
X155000000Y-107060000D03*
X155000000Y-109560000D03*
X155000000Y-112060000D03*
%TD*%
D18*
%TO.C,C3*%
X202140000Y-92980000D03*
X202140000Y-90480000D03*
%TD*%
D10*
%TO.C,R2*%
X180900000Y-119970000D03*
D11*
X180900000Y-114890000D03*
%TD*%
D19*
%TO.C,U1*%
X198060000Y-79460000D03*
X203140000Y-82000000D03*
X200600000Y-97240000D03*
X195520000Y-99780000D03*
X192980000Y-99780000D03*
X175200000Y-99780000D03*
X200600000Y-82000000D03*
X198060000Y-82000000D03*
X195520000Y-82000000D03*
X192980000Y-82000000D03*
X190440000Y-82000000D03*
X187900000Y-82000000D03*
X185360000Y-82000000D03*
X182820000Y-82000000D03*
X180280000Y-82000000D03*
X177740000Y-82000000D03*
X175200000Y-82000000D03*
X172660000Y-82000000D03*
X170120000Y-82000000D03*
X170120000Y-79460000D03*
X172660000Y-99780000D03*
X170120000Y-99780000D03*
X170120000Y-97240000D03*
X172660000Y-97240000D03*
X175200000Y-97240000D03*
X177740000Y-97240000D03*
X180280000Y-97240000D03*
X182820000Y-97240000D03*
X185360000Y-97240000D03*
X187900000Y-97240000D03*
X190440000Y-97240000D03*
X192980000Y-97240000D03*
X195520000Y-97240000D03*
X192980000Y-79460000D03*
X198060000Y-97240000D03*
X177740000Y-99780000D03*
X203140000Y-97240000D03*
X203140000Y-99780000D03*
X180280000Y-99780000D03*
X187900000Y-99780000D03*
X185360000Y-99780000D03*
X190440000Y-99780000D03*
X182820000Y-99780000D03*
X182820000Y-79460000D03*
X172660000Y-79460000D03*
X180280000Y-79460000D03*
X175200000Y-79460000D03*
X177740000Y-79460000D03*
X203140000Y-79460000D03*
X200600000Y-79460000D03*
X195520000Y-79460000D03*
X190440000Y-79460000D03*
X187900000Y-79460000D03*
X185360000Y-79460000D03*
X200600000Y-99780000D03*
X198060000Y-99780000D03*
%TD*%
D20*
%TO.C,103*%
X176590000Y-64640000D03*
X179130000Y-62100000D03*
X181670000Y-64640000D03*
%TD*%
D10*
%TO.C,R1*%
X178460000Y-114960000D03*
D11*
X178460000Y-120040000D03*
%TD*%
D21*
%TO.C,MD*%
X164893464Y-130741002D03*
D22*
X166661231Y-132508769D03*
X168428998Y-134276536D03*
%TD*%
D20*
%TO.C,BNO1*%
X173370000Y-122620000D03*
X175910000Y-122620000D03*
X178450000Y-122620000D03*
X180990000Y-122620000D03*
X183530000Y-122620000D03*
X186070000Y-122620000D03*
X188610000Y-122620000D03*
X191150000Y-122620000D03*
%TD*%
D12*
%TO.C,D36*%
X186915000Y-67365000D03*
D13*
X186915000Y-69905000D03*
X186915000Y-72445000D03*
%TD*%
D10*
%TO.C,10K*%
X188030000Y-92340000D03*
D11*
X182950000Y-92340000D03*
%TD*%
D23*
%TO.C,Touch*%
X165793113Y-62871467D03*
D24*
X167548496Y-61091402D03*
X169303878Y-59311337D03*
X171059261Y-57531272D03*
%TD*%
D25*
%TO.C,RST*%
X177010000Y-76020000D03*
X177010000Y-69520000D03*
X181510000Y-76020000D03*
X181510000Y-69520000D03*
%TD*%
D26*
%TO.C,BNO055*%
X198170000Y-86045000D03*
D27*
X195630000Y-86045000D03*
X193090000Y-86045000D03*
X190550000Y-86045000D03*
X190550000Y-93665000D03*
X193090000Y-93665000D03*
X195630000Y-93665000D03*
X198170000Y-93665000D03*
%TD*%
D16*
%TO.C,Kicker*%
X155010000Y-93600000D03*
D17*
X155010000Y-96100000D03*
X155010000Y-98600000D03*
%TD*%
D18*
%TO.C,C4*%
X173220000Y-119420000D03*
X175720000Y-119420000D03*
%TD*%
D28*
%TO.C,SUB*%
X160690000Y-122310000D03*
D17*
X160690000Y-119810000D03*
X160690000Y-117310000D03*
X160690000Y-114810000D03*
X160690000Y-112310000D03*
%TD*%
D20*
%TO.C,U3*%
X181082113Y-129165680D03*
X183622113Y-129165680D03*
X186162113Y-129165680D03*
X188702113Y-129165680D03*
X176002113Y-106305680D03*
X178542113Y-106305680D03*
X181082113Y-106305680D03*
X183622113Y-106305680D03*
X186162113Y-106305680D03*
X188702113Y-106305680D03*
%TD*%
D29*
%TO.C,C2*%
X204185113Y-104260000D03*
D18*
X201685113Y-104260000D03*
%TD*%
D10*
%TO.C,10K*%
X188030000Y-90210000D03*
D11*
X182950000Y-90210000D03*
%TD*%
D16*
%TO.C,+12V*%
X161740000Y-74960000D03*
D17*
X161740000Y-77460000D03*
X161740000Y-79960000D03*
%TD*%
D16*
%TO.C,LINE_front*%
X155020000Y-80180000D03*
D17*
X155020000Y-82680000D03*
X155020000Y-85180000D03*
X155020000Y-87680000D03*
%TD*%
D12*
%TO.C,D35*%
X192875000Y-67415000D03*
D13*
X192875000Y-69955000D03*
X192875000Y-72495000D03*
%TD*%
D10*
%TO.C,R3*%
X171850000Y-71840000D03*
D11*
X166770000Y-71840000D03*
%TD*%
D30*
%TO.C,BZ1*%
X175160000Y-85770000D03*
D25*
X175160000Y-93370000D03*
%TD*%
D31*
%TO.C,J10*%
X161530000Y-88520000D03*
D19*
X164070000Y-88520000D03*
X161530000Y-91060000D03*
X164070000Y-91060000D03*
X161530000Y-93600000D03*
X164070000Y-93600000D03*
X161530000Y-96140000D03*
X164070000Y-96140000D03*
X161530000Y-98680000D03*
X164070000Y-98680000D03*
X161530000Y-101220000D03*
X164070000Y-101220000D03*
X161530000Y-103760000D03*
X164070000Y-103760000D03*
%TD*%
M02*
