M48
; DRILL file {KiCad 7.0.9} date Tue May  6 13:26:49 2025
; FORMAT={-:-/ absolute / metric / decimal}
; #@! TF.CreationDate,2025-05-06T13:26:49+09:00
; #@! TF.GenerationSoftware,Kicad,Pcbnew,7.0.9
; #@! TF.FileFunction,Plated,1,2,PTH
FMAT,2
METRIC
; #@! TA.AperFunction,Plated,PTH,ViaDrill
T1C0.400
; #@! TA.AperFunction,Plated,PTH,ComponentDrill
T2C0.700
; #@! TA.AperFunction,Plated,PTH,ComponentDrill
T3C0.762
; #@! TA.AperFunction,Plated,PTH,ComponentDrill
T4C0.800
; #@! TA.AperFunction,Plated,PTH,ComponentDrill
T5C0.900
; #@! TA.AperFunction,Plated,PTH,ComponentDrill
T6C0.950
; #@! TA.AperFunction,Plated,PTH,ComponentDrill
T7C1.000
; #@! TA.AperFunction,Plated,PTH,ComponentDrill
T8C1.100
%
G90
G05
T1
X150.71Y-82.91
X150.76Y-109.44
X152.53Y-76.72
X155.05Y-114.26
X155.06Y-90.65
X155.18Y-101.55
X155.77Y-115.93
X156.36Y-76.7
X157.11Y-117.96
X157.15Y-83.78
X157.18Y-79.94
X157.34Y-108.75
X157.88Y-103.7
X157.99Y-69.21
X158.08Y-73.31
X159.51Y-100.95
X161.36Y-72.98
X163.29Y-111.52
X164.09Y-114.71
X164.32Y-119.3
X166.81Y-121.02
X167.3Y-130.36
X167.82Y-100.47
X171.36Y-59.77
X172.67Y-88.47
X172.88Y-112.91
X176.22Y-126.95
X176.76Y-62.66
X176.93Y-90.31
X177.35Y-94.08
X177.42Y-109.95
X178.05Y-102.24
X178.14Y-117.7
X179.27Y-72.83
X181.31Y-93.88
X185.1Y-120.72
X185.15Y-86.17
X185.33Y-90.32
X186.11Y-108.98
X188.09Y-104.28
X188.95Y-109.42
X190.12Y-124.61
X191.54Y-91.2
X191.65Y-108.76
X191.72Y-120.38
X192.86Y-129.25
X195.53Y-102.07
X197.52Y-76.47
X198.04Y-89.71
X198.12Y-101.96
X199.39Y-132.08
X200.78Y-110.71
X201.93Y-116.84
X201.99Y-95.34
X202.83Y-84.51
T2
X166.77Y-71.84
X171.85Y-71.84
X178.46Y-114.96
X178.46Y-120.04
X180.9Y-114.89
X180.9Y-119.97
X182.53Y-86.08
X182.95Y-90.21
X182.95Y-92.34
X187.61Y-86.08
X188.03Y-90.21
X188.03Y-92.34
T3
X173.37Y-122.62
X175.91Y-122.62
X176.002Y-106.306
X176.59Y-64.64
X178.45Y-122.62
X178.542Y-106.306
X179.13Y-62.1
X180.99Y-122.62
X181.082Y-106.306
X181.082Y-129.166
X181.67Y-64.64
X183.53Y-122.62
X183.622Y-106.306
X183.622Y-129.166
X186.07Y-122.62
X186.162Y-106.306
X186.162Y-129.166
X188.61Y-122.62
X188.702Y-106.306
X188.702Y-129.166
X191.15Y-122.62
T4
X173.22Y-119.42
X175.72Y-119.42
X190.55Y-86.045
X190.55Y-93.665
X193.09Y-86.045
X193.09Y-93.665
X195.63Y-86.045
X195.63Y-93.665
X198.17Y-86.045
X198.17Y-93.665
X201.685Y-104.26
X202.14Y-90.48
X202.14Y-92.98
X204.185Y-104.26
T5
X167.0Y-75.2
X169.54Y-75.2
T6
X155.0Y-104.56
X155.0Y-107.06
X155.0Y-109.56
X155.0Y-112.06
X155.01Y-93.6
X155.01Y-96.1
X155.01Y-98.6
X155.02Y-80.18
X155.02Y-82.68
X155.02Y-85.18
X155.02Y-87.68
X160.69Y-112.31
X160.69Y-114.81
X160.69Y-117.31
X160.69Y-119.81
X160.69Y-122.31
X161.74Y-74.96
X161.74Y-77.46
X161.74Y-79.96
X164.893Y-130.741
X165.793Y-62.871
X166.661Y-132.509
X167.548Y-61.091
X168.429Y-134.277
X169.304Y-59.311
X171.059Y-57.531
T7
X161.53Y-88.52
X161.53Y-91.06
X161.53Y-93.6
X161.53Y-96.14
X161.53Y-98.68
X161.53Y-101.22
X161.53Y-103.76
X164.07Y-88.52
X164.07Y-91.06
X164.07Y-93.6
X164.07Y-96.14
X164.07Y-98.68
X164.07Y-101.22
X164.07Y-103.76
X170.12Y-79.46
X170.12Y-82.0
X170.12Y-97.24
X170.12Y-99.78
X172.66Y-79.46
X172.66Y-82.0
X172.66Y-97.24
X172.66Y-99.78
X175.16Y-85.77
X175.16Y-93.37
X175.2Y-79.46
X175.2Y-82.0
X175.2Y-97.24
X175.2Y-99.78
X177.74Y-79.46
X177.74Y-82.0
X177.74Y-97.24
X177.74Y-99.78
X180.28Y-79.46
X180.28Y-82.0
X180.28Y-97.24
X180.28Y-99.78
X182.82Y-79.46
X182.82Y-82.0
X182.82Y-97.24
X182.82Y-99.78
X185.36Y-79.46
X185.36Y-82.0
X185.36Y-97.24
X185.36Y-99.78
X186.915Y-67.365
X186.915Y-69.905
X186.915Y-72.445
X187.9Y-79.46
X187.9Y-82.0
X187.9Y-97.24
X187.9Y-99.78
X190.44Y-79.46
X190.44Y-82.0
X190.44Y-97.24
X190.44Y-99.78
X192.875Y-67.415
X192.875Y-69.955
X192.875Y-72.495
X192.98Y-79.46
X192.98Y-82.0
X192.98Y-97.24
X192.98Y-99.78
X195.52Y-79.46
X195.52Y-82.0
X195.52Y-97.24
X195.52Y-99.78
X198.06Y-79.46
X198.06Y-82.0
X198.06Y-97.24
X198.06Y-99.78
X198.825Y-67.395
X198.825Y-69.935
X198.825Y-72.475
X200.6Y-79.46
X200.6Y-82.0
X200.6Y-97.24
X200.6Y-99.78
X203.14Y-79.46
X203.14Y-82.0
X203.14Y-97.24
X203.14Y-99.78
T8
X177.01Y-69.52
X177.01Y-76.02
X181.51Y-69.52
X181.51Y-76.02
T0
M30
