%TF.GenerationSoftware,KiCad,Pcbnew,7.0.9*%
%TF.CreationDate,2024-12-16T17:29:33+09:00*%
%TF.ProjectId,IR_Bored_ESP32,49525f42-6f72-4656-945f-45535033322e,rev?*%
%TF.SameCoordinates,Original*%
%TF.FileFunction,Paste,Top*%
%TF.FilePolarity,Positive*%
%FSLAX46Y46*%
G04 Gerber Fmt 4.6, Leading zero omitted, Abs format (unit mm)*
G04 Created by KiCad (PCBNEW 7.0.9) date 2024-12-16 17:29:33*
%MOMM*%
%LPD*%
G01*
G04 APERTURE LIST*
G04 Aperture macros list*
%AMRoundRect*
0 Rectangle with rounded corners*
0 $1 Rounding radius*
0 $2 $3 $4 $5 $6 $7 $8 $9 X,Y pos of 4 corners*
0 Add a 4 corners polygon primitive as box body*
4,1,4,$2,$3,$4,$5,$6,$7,$8,$9,$2,$3,0*
0 Add four circle primitives for the rounded corners*
1,1,$1+$1,$2,$3*
1,1,$1+$1,$4,$5*
1,1,$1+$1,$6,$7*
1,1,$1+$1,$8,$9*
0 Add four rect primitives between the rounded corners*
20,1,$1+$1,$2,$3,$4,$5,0*
20,1,$1+$1,$4,$5,$6,$7,0*
20,1,$1+$1,$6,$7,$8,$9,0*
20,1,$1+$1,$8,$9,$2,$3,0*%
G04 Aperture macros list end*
%ADD10RoundRect,0.250000X0.503814X0.132583X0.132583X0.503814X-0.503814X-0.132583X-0.132583X-0.503814X0*%
%ADD11RoundRect,0.140000X0.194399X0.103484X-0.064287X0.210635X-0.194399X-0.103484X0.064287X-0.210635X0*%
%ADD12RoundRect,0.250000X0.132583X-0.503814X0.503814X-0.132583X-0.132583X0.503814X-0.503814X0.132583X0*%
%ADD13RoundRect,0.140000X0.219203X0.021213X0.021213X0.219203X-0.219203X-0.021213X-0.021213X-0.219203X0*%
%ADD14RoundRect,0.140000X-0.140000X-0.170000X0.140000X-0.170000X0.140000X0.170000X-0.140000X0.170000X0*%
%ADD15RoundRect,0.140000X-0.210635X0.064287X-0.103484X-0.194399X0.210635X-0.064287X0.103484X0.194399X0*%
%ADD16RoundRect,0.250000X-0.414726X-0.315291X0.070311X-0.516200X0.414726X0.315291X-0.070311X0.516200X0*%
%ADD17RoundRect,0.140000X0.210635X-0.064287X0.103484X0.194399X-0.210635X0.064287X-0.103484X-0.194399X0*%
%ADD18RoundRect,0.250000X-0.132583X0.503814X-0.503814X0.132583X0.132583X-0.503814X0.503814X-0.132583X0*%
%ADD19RoundRect,0.250000X0.070311X0.516200X-0.414726X0.315291X-0.070311X-0.516200X0.414726X-0.315291X0*%
%ADD20RoundRect,0.250000X-0.262500X-0.450000X0.262500X-0.450000X0.262500X0.450000X-0.262500X0.450000X0*%
%ADD21RoundRect,0.140000X0.021213X-0.219203X0.219203X-0.021213X-0.021213X0.219203X-0.219203X0.021213X0*%
%ADD22RoundRect,0.250000X0.262500X0.450000X-0.262500X0.450000X-0.262500X-0.450000X0.262500X-0.450000X0*%
%ADD23RoundRect,0.250000X0.450000X-0.262500X0.450000X0.262500X-0.450000X0.262500X-0.450000X-0.262500X0*%
%ADD24RoundRect,0.250000X-0.070311X-0.516200X0.414726X-0.315291X0.070311X0.516200X-0.414726X0.315291X0*%
%ADD25RoundRect,0.250000X0.414726X0.315291X-0.070311X0.516200X-0.414726X-0.315291X0.070311X-0.516200X0*%
%ADD26RoundRect,0.140000X-0.103484X0.194399X-0.210635X-0.064287X0.103484X-0.194399X0.210635X0.064287X0*%
%ADD27RoundRect,0.140000X-0.021213X0.219203X-0.219203X0.021213X0.021213X-0.219203X0.219203X-0.021213X0*%
%ADD28RoundRect,0.250000X-0.450000X0.262500X-0.450000X-0.262500X0.450000X-0.262500X0.450000X0.262500X0*%
%ADD29RoundRect,0.250000X0.315291X-0.414726X0.516200X0.070311X-0.315291X0.414726X-0.516200X-0.070311X0*%
%ADD30RoundRect,0.140000X-0.064287X-0.210635X0.194399X-0.103484X0.064287X0.210635X-0.194399X0.103484X0*%
%ADD31RoundRect,0.250000X-0.503814X-0.132583X-0.132583X-0.503814X0.503814X0.132583X0.132583X0.503814X0*%
%ADD32RoundRect,0.250000X-0.516200X0.070311X-0.315291X-0.414726X0.516200X-0.070311X0.315291X0.414726X0*%
%ADD33RoundRect,0.140000X0.103484X-0.194399X0.210635X0.064287X-0.103484X0.194399X-0.210635X-0.064287X0*%
%ADD34RoundRect,0.250000X-0.315291X0.414726X-0.516200X-0.070311X0.315291X-0.414726X0.516200X0.070311X0*%
%ADD35RoundRect,0.250000X0.516200X-0.070311X0.315291X0.414726X-0.516200X0.070311X-0.315291X-0.414726X0*%
%ADD36RoundRect,0.140000X-0.170000X0.140000X-0.170000X-0.140000X0.170000X-0.140000X0.170000X0.140000X0*%
%ADD37RoundRect,0.140000X-0.219203X-0.021213X-0.021213X-0.219203X0.219203X0.021213X0.021213X0.219203X0*%
%ADD38RoundRect,0.140000X0.064287X0.210635X-0.194399X0.103484X-0.064287X-0.210635X0.194399X-0.103484X0*%
%ADD39RoundRect,0.140000X0.170000X-0.140000X0.170000X0.140000X-0.170000X0.140000X-0.170000X-0.140000X0*%
%ADD40RoundRect,0.140000X0.140000X0.170000X-0.140000X0.170000X-0.140000X-0.170000X0.140000X-0.170000X0*%
%ADD41RoundRect,0.140000X-0.194399X-0.103484X0.064287X-0.210635X0.194399X0.103484X-0.064287X0.210635X0*%
G04 APERTURE END LIST*
D10*
%TO.C,R1*%
X156845235Y-44565235D03*
X155554765Y-43274765D03*
%TD*%
D11*
%TO.C,C16*%
X210608232Y-38826948D03*
X209721308Y-38459572D03*
%TD*%
D12*
%TO.C,R15*%
X228072221Y-51570978D03*
X229362691Y-50280508D03*
%TD*%
D13*
%TO.C,C15*%
X226921405Y-50473195D03*
X226242583Y-49794373D03*
%TD*%
D14*
%TO.C,C11*%
X187840000Y-137710000D03*
X188800000Y-137710000D03*
%TD*%
D15*
%TO.C,C6*%
X141444014Y-103836295D03*
X141811390Y-104723219D03*
%TD*%
D16*
%TO.C,R10*%
X236206960Y-108380801D03*
X237893040Y-109079199D03*
%TD*%
D17*
%TO.C,C14*%
X237535986Y-67475705D03*
X237168610Y-66588781D03*
%TD*%
D18*
%TO.C,R7*%
X147985235Y-117494765D03*
X146694765Y-118785235D03*
%TD*%
D19*
%TO.C,R6*%
X140800903Y-102381678D03*
X139114823Y-103080076D03*
%TD*%
D20*
%TO.C,R13*%
X240873502Y-88835998D03*
X242698502Y-88835998D03*
%TD*%
D21*
%TO.C,C9*%
X223741178Y-125388822D03*
X224420000Y-124710000D03*
%TD*%
D22*
%TO.C,R5*%
X138106500Y-82476001D03*
X136281500Y-82476001D03*
%TD*%
D23*
%TO.C,R3*%
X192670000Y-33792500D03*
X192670000Y-31967500D03*
%TD*%
D24*
%TO.C,R14*%
X238179098Y-68930321D03*
X239865178Y-68231923D03*
%TD*%
D25*
%TO.C,R2*%
X143234769Y-63054450D03*
X141548689Y-62356052D03*
%TD*%
D26*
%TO.C,C2*%
X142660948Y-64537767D03*
X142293572Y-65424691D03*
%TD*%
D27*
%TO.C,C1*%
X155800000Y-45730000D03*
X155121178Y-46408822D03*
%TD*%
D28*
%TO.C,R11*%
X186310000Y-137690000D03*
X186310000Y-139515000D03*
%TD*%
D29*
%TO.C,R16*%
X212091551Y-39400769D03*
X212789949Y-37714689D03*
%TD*%
D30*
%TO.C,C12*%
X207670295Y-133701986D03*
X208557219Y-133334610D03*
%TD*%
D31*
%TO.C,R9*%
X222710000Y-126480000D03*
X224000470Y-127770470D03*
%TD*%
D32*
%TO.C,R12*%
X206215679Y-134345098D03*
X206914077Y-136031178D03*
%TD*%
D33*
%TO.C,C10*%
X236636312Y-106943462D03*
X237003688Y-106056538D03*
%TD*%
D34*
%TO.C,R8*%
X166888451Y-131911232D03*
X166190053Y-133597312D03*
%TD*%
D35*
%TO.C,R4*%
X172764323Y-36966903D03*
X172065925Y-35280823D03*
%TD*%
D36*
%TO.C,C5*%
X138143999Y-84065999D03*
X138143999Y-85025999D03*
%TD*%
D37*
%TO.C,C7*%
X149180589Y-118610589D03*
X149859411Y-119289411D03*
%TD*%
D38*
%TO.C,C4*%
X171309705Y-37610015D03*
X170422781Y-37977391D03*
%TD*%
D39*
%TO.C,C13*%
X240836001Y-87246001D03*
X240836001Y-86286001D03*
%TD*%
D40*
%TO.C,C3*%
X191120000Y-33810000D03*
X190160000Y-33810000D03*
%TD*%
D41*
%TO.C,C8*%
X168371767Y-132485052D03*
X169258691Y-132852428D03*
%TD*%
M02*
