%TF.GenerationSoftware,KiCad,Pcbnew,7.0.9*%
%TF.CreationDate,2025-01-15T18:40:25+09:00*%
%TF.ProjectId,line_short_robt2,6c696e65-5f73-4686-9f72-745f726f6274,rev?*%
%TF.SameCoordinates,Original*%
%TF.FileFunction,Copper,L2,Bot*%
%TF.FilePolarity,Positive*%
%FSLAX46Y46*%
G04 Gerber Fmt 4.6, Leading zero omitted, Abs format (unit mm)*
G04 Created by KiCad (PCBNEW 7.0.9) date 2025-01-15 18:40:25*
%MOMM*%
%LPD*%
G01*
G04 APERTURE LIST*
%TA.AperFunction,ComponentPad*%
%ADD10R,1.800000X1.800000*%
%TD*%
%TA.AperFunction,ComponentPad*%
%ADD11C,1.800000*%
%TD*%
%TA.AperFunction,ComponentPad*%
%ADD12R,1.700000X1.700000*%
%TD*%
%TA.AperFunction,ComponentPad*%
%ADD13O,1.700000X1.700000*%
%TD*%
%TA.AperFunction,ViaPad*%
%ADD14C,0.800000*%
%TD*%
%TA.AperFunction,Conductor*%
%ADD15C,0.500000*%
%TD*%
%TA.AperFunction,Conductor*%
%ADD16C,0.250000*%
%TD*%
G04 APERTURE END LIST*
D10*
%TO.P,Q1,1,C*%
%TO.N,+3.3V*%
X129655000Y-64040000D03*
D11*
%TO.P,Q1,2,E*%
%TO.N,Net-(Q1-E)*%
X132195000Y-64040000D03*
%TD*%
D10*
%TO.P,Q2,1,C*%
%TO.N,+3.3V*%
X129635000Y-74840000D03*
D11*
%TO.P,Q2,2,E*%
%TO.N,Net-(Q1-E)*%
X132175000Y-74840000D03*
%TD*%
D12*
%TO.P,J1,1,Pin_1*%
%TO.N,/PWM*%
X134675000Y-88900000D03*
D13*
%TO.P,J1,2,Pin_2*%
%TO.N,+3.3V*%
X132135000Y-88900000D03*
%TO.P,J1,3,Pin_3*%
%TO.N,GND*%
X129595000Y-88900000D03*
%TO.P,J1,4,Pin_4*%
%TO.N,/S*%
X127055000Y-88900000D03*
%TD*%
D12*
%TO.P,J2,1,Pin_1*%
%TO.N,+5V*%
X134150000Y-85275000D03*
%TD*%
D14*
%TO.N,GND*%
X127030000Y-75030000D03*
X129140000Y-91840000D03*
X134850000Y-63890000D03*
X133010000Y-91890000D03*
X131210000Y-81840000D03*
X130260000Y-86900000D03*
X134200000Y-79580000D03*
X131090000Y-69510000D03*
X127050000Y-63810000D03*
X128290000Y-69480000D03*
X134140000Y-82180000D03*
%TD*%
D15*
%TO.N,+3.3V*%
X129635000Y-74840000D02*
X129095306Y-75379694D01*
X129278839Y-82028839D02*
X129296036Y-82046036D01*
X128461603Y-65233397D02*
X129655000Y-64040000D01*
X129635000Y-74840000D02*
X128341988Y-73546988D01*
D16*
X132350000Y-88685000D02*
X132135000Y-88900000D01*
D15*
X129095309Y-75379697D02*
G75*
G03*
X127810000Y-78482748I3102991J-3103003D01*
G01*
X126680010Y-69534593D02*
G75*
G03*
X128341988Y-73546988I5674390J-7D01*
G01*
X128461614Y-65233408D02*
G75*
G03*
X126680000Y-69534593I4301186J-4301192D01*
G01*
X132135007Y-88900000D02*
G75*
G03*
X129296036Y-82046036I-9692807J100D01*
G01*
X127809958Y-78482748D02*
G75*
G03*
X129278840Y-82028838I5014942J48D01*
G01*
%TO.N,Net-(Q1-E)*%
X132175000Y-74840000D02*
X133508134Y-73506866D01*
X134900000Y-67159214D02*
X134900000Y-67760000D01*
X132195000Y-64040000D02*
X134607095Y-66452095D01*
D16*
X134900000Y-67150000D02*
X134900000Y-70415000D01*
D15*
X134900000Y-67760000D02*
X134900000Y-67150000D01*
X134900000Y-70146604D02*
X134900000Y-67760000D01*
X133508126Y-73506858D02*
G75*
G03*
X134900000Y-70146604I-3360226J3360258D01*
G01*
X134899990Y-67159214D02*
G75*
G03*
X134607095Y-66452095I-999990J14D01*
G01*
%TD*%
%TA.AperFunction,Conductor*%
%TO.N,GND*%
G36*
X129845000Y-90230633D02*
G01*
X130058483Y-90173433D01*
X130058492Y-90173429D01*
X130272578Y-90073600D01*
X130466082Y-89938105D01*
X130633105Y-89771082D01*
X130763119Y-89585405D01*
X130817696Y-89541781D01*
X130887195Y-89534588D01*
X130949549Y-89566110D01*
X130966269Y-89585405D01*
X131096505Y-89771401D01*
X131263599Y-89938495D01*
X131360384Y-90006265D01*
X131457165Y-90074032D01*
X131457167Y-90074033D01*
X131457170Y-90074035D01*
X131671337Y-90173903D01*
X131899592Y-90235063D01*
X132076034Y-90250500D01*
X132134999Y-90255659D01*
X132135000Y-90255659D01*
X132135001Y-90255659D01*
X132193966Y-90250500D01*
X132370408Y-90235063D01*
X132598663Y-90173903D01*
X132812830Y-90074035D01*
X133006401Y-89938495D01*
X133128329Y-89816566D01*
X133189648Y-89783084D01*
X133259340Y-89788068D01*
X133315274Y-89829939D01*
X133332189Y-89860917D01*
X133381202Y-89992328D01*
X133381206Y-89992335D01*
X133467452Y-90107544D01*
X133467455Y-90107547D01*
X133582664Y-90193793D01*
X133582671Y-90193797D01*
X133717517Y-90244091D01*
X133717516Y-90244091D01*
X133723525Y-90244737D01*
X133777127Y-90250500D01*
X135572872Y-90250499D01*
X135632483Y-90244091D01*
X135707167Y-90216236D01*
X135776859Y-90211252D01*
X135838182Y-90244737D01*
X135871666Y-90306061D01*
X135874500Y-90332418D01*
X135874500Y-91548048D01*
X135874377Y-91551945D01*
X135868512Y-91645100D01*
X135857692Y-91803701D01*
X135856736Y-91811113D01*
X135834434Y-91927950D01*
X135806904Y-92060797D01*
X135805154Y-92067391D01*
X135766872Y-92185136D01*
X135722973Y-92309015D01*
X135720625Y-92314724D01*
X135666957Y-92428691D01*
X135607337Y-92544116D01*
X135604586Y-92548905D01*
X135537188Y-92655024D01*
X135535563Y-92657455D01*
X135461955Y-92762101D01*
X135458997Y-92765973D01*
X135378564Y-92863112D01*
X135376207Y-92865797D01*
X135289318Y-92959213D01*
X135286338Y-92962206D01*
X135194233Y-93048606D01*
X135191057Y-93051389D01*
X135092313Y-93132117D01*
X135089483Y-93134298D01*
X134987371Y-93208394D01*
X134983317Y-93211099D01*
X134874225Y-93277851D01*
X134871697Y-93279317D01*
X134761465Y-93339820D01*
X134756510Y-93342259D01*
X134637519Y-93394389D01*
X134520362Y-93440672D01*
X134514515Y-93442652D01*
X134388081Y-93478555D01*
X134268141Y-93509243D01*
X134261448Y-93510568D01*
X134127073Y-93529568D01*
X134009086Y-93544361D01*
X134001630Y-93544843D01*
X133842611Y-93545518D01*
X133749330Y-93545424D01*
X133745426Y-93545297D01*
X133720228Y-93543682D01*
X133720200Y-93543686D01*
X133173648Y-93508731D01*
X132024699Y-93464677D01*
X130875000Y-93449989D01*
X129725301Y-93464677D01*
X128576352Y-93508731D01*
X128056709Y-93541965D01*
X128056673Y-93541956D01*
X128004575Y-93545297D01*
X128000670Y-93545424D01*
X127907388Y-93545518D01*
X127748361Y-93544843D01*
X127740904Y-93544361D01*
X127622950Y-93529571D01*
X127488541Y-93510566D01*
X127481848Y-93509241D01*
X127439512Y-93498409D01*
X127361951Y-93478564D01*
X127235477Y-93442649D01*
X127229631Y-93440669D01*
X127112503Y-93394399D01*
X126993474Y-93342252D01*
X126988520Y-93339814D01*
X126927490Y-93306317D01*
X126878300Y-93279318D01*
X126875807Y-93277872D01*
X126816995Y-93241885D01*
X126766675Y-93211093D01*
X126762622Y-93208389D01*
X126660524Y-93134305D01*
X126657693Y-93132123D01*
X126558932Y-93051381D01*
X126555756Y-93048598D01*
X126513477Y-93008937D01*
X126463648Y-92962194D01*
X126460699Y-92959232D01*
X126373791Y-92865797D01*
X126371434Y-92863112D01*
X126290995Y-92765965D01*
X126288044Y-92762101D01*
X126283809Y-92756081D01*
X126214389Y-92657388D01*
X126212842Y-92655074D01*
X126145412Y-92548905D01*
X126142665Y-92544121D01*
X126135626Y-92530495D01*
X126083035Y-92428675D01*
X126029375Y-92314725D01*
X126027033Y-92309034D01*
X125983123Y-92185122D01*
X125944844Y-92067392D01*
X125943097Y-92060811D01*
X125915565Y-91927950D01*
X125893263Y-91811113D01*
X125892307Y-91803713D01*
X125881484Y-91645066D01*
X125875623Y-91551946D01*
X125875500Y-91548050D01*
X125875500Y-89929758D01*
X125895185Y-89862719D01*
X125947989Y-89816964D01*
X126017147Y-89807020D01*
X126080703Y-89836045D01*
X126087181Y-89842077D01*
X126183599Y-89938495D01*
X126280384Y-90006265D01*
X126377165Y-90074032D01*
X126377167Y-90074033D01*
X126377170Y-90074035D01*
X126591337Y-90173903D01*
X126819592Y-90235063D01*
X126996034Y-90250500D01*
X127054999Y-90255659D01*
X127055000Y-90255659D01*
X127055001Y-90255659D01*
X127113966Y-90250500D01*
X127290408Y-90235063D01*
X127518663Y-90173903D01*
X127732830Y-90074035D01*
X127926401Y-89938495D01*
X128093495Y-89771401D01*
X128223730Y-89585405D01*
X128278307Y-89541781D01*
X128347805Y-89534587D01*
X128410160Y-89566110D01*
X128426879Y-89585405D01*
X128556890Y-89771078D01*
X128723917Y-89938105D01*
X128917421Y-90073600D01*
X129131507Y-90173429D01*
X129131516Y-90173433D01*
X129345000Y-90230634D01*
X129345000Y-89335501D01*
X129452685Y-89384680D01*
X129559237Y-89400000D01*
X129630763Y-89400000D01*
X129737315Y-89384680D01*
X129845000Y-89335501D01*
X129845000Y-90230633D01*
G37*
%TD.AperFunction*%
%TA.AperFunction,Conductor*%
G36*
X126080703Y-71036723D02*
G01*
X126118477Y-71095501D01*
X126120666Y-71104079D01*
X126125113Y-71124519D01*
X126254403Y-71564845D01*
X126254407Y-71564856D01*
X126254408Y-71564859D01*
X126414786Y-71994854D01*
X126414789Y-71994860D01*
X126414789Y-71994861D01*
X126605430Y-72412309D01*
X126605431Y-72412309D01*
X126605432Y-72412312D01*
X126780213Y-72732400D01*
X126825372Y-72815103D01*
X127073489Y-73201185D01*
X127348516Y-73568581D01*
X127348517Y-73568581D01*
X127360538Y-73582454D01*
X127628871Y-73892128D01*
X127649051Y-73915416D01*
X127649051Y-73915417D01*
X127746318Y-74012684D01*
X127746343Y-74012712D01*
X128198181Y-74464548D01*
X128231666Y-74525871D01*
X128234500Y-74552229D01*
X128234500Y-75165401D01*
X128214815Y-75232440D01*
X128204792Y-75245931D01*
X128159600Y-75298845D01*
X127922244Y-75625538D01*
X127711252Y-75969847D01*
X127527925Y-76329649D01*
X127373393Y-76702726D01*
X127351334Y-76770619D01*
X127248609Y-77086779D01*
X127154344Y-77479433D01*
X127091176Y-77878285D01*
X127091176Y-77878286D01*
X127059498Y-78280847D01*
X127059499Y-78403873D01*
X127059499Y-78431351D01*
X127059457Y-78431494D01*
X127059461Y-78709283D01*
X127071095Y-78857097D01*
X127095011Y-79160934D01*
X127165888Y-79608406D01*
X127271655Y-80048937D01*
X127411660Y-80479813D01*
X127468588Y-80617246D01*
X127585037Y-80898372D01*
X127585037Y-80898371D01*
X127585039Y-80898375D01*
X127790724Y-81302044D01*
X128027446Y-81688330D01*
X128293746Y-82054853D01*
X128587983Y-82399352D01*
X128683981Y-82495348D01*
X128683991Y-82495359D01*
X128686127Y-82497495D01*
X128709575Y-82520943D01*
X128709576Y-82520944D01*
X128737465Y-82548833D01*
X128765353Y-82576722D01*
X129134324Y-82968685D01*
X129136808Y-82971489D01*
X129229932Y-83083229D01*
X129480254Y-83383592D01*
X129482535Y-83386504D01*
X129633632Y-83591851D01*
X129800465Y-83818584D01*
X129802593Y-83821667D01*
X130093853Y-84272153D01*
X130095791Y-84275359D01*
X130359308Y-84742587D01*
X130361049Y-84745904D01*
X130595883Y-85228212D01*
X130597420Y-85231628D01*
X130802699Y-85727219D01*
X130804027Y-85730722D01*
X130979008Y-86237806D01*
X130980123Y-86241382D01*
X131124173Y-86758125D01*
X131125069Y-86761762D01*
X131237649Y-87286237D01*
X131238325Y-87289922D01*
X131307844Y-87746714D01*
X131298471Y-87815952D01*
X131267178Y-87857428D01*
X131267427Y-87857677D01*
X131265652Y-87859450D01*
X131264977Y-87860347D01*
X131263607Y-87861496D01*
X131096508Y-88028594D01*
X130966269Y-88214595D01*
X130911692Y-88258219D01*
X130842193Y-88265412D01*
X130779839Y-88233890D01*
X130763119Y-88214594D01*
X130633113Y-88028926D01*
X130633108Y-88028920D01*
X130466082Y-87861894D01*
X130272578Y-87726399D01*
X130058492Y-87626570D01*
X130058486Y-87626567D01*
X129845000Y-87569364D01*
X129845000Y-88464498D01*
X129737315Y-88415320D01*
X129630763Y-88400000D01*
X129559237Y-88400000D01*
X129452685Y-88415320D01*
X129345000Y-88464498D01*
X129345000Y-87569364D01*
X129344999Y-87569364D01*
X129131513Y-87626567D01*
X129131507Y-87626570D01*
X128917422Y-87726399D01*
X128917420Y-87726400D01*
X128723926Y-87861886D01*
X128723920Y-87861891D01*
X128556891Y-88028920D01*
X128556890Y-88028922D01*
X128426880Y-88214595D01*
X128372303Y-88258219D01*
X128302804Y-88265412D01*
X128240450Y-88233890D01*
X128223730Y-88214594D01*
X128093494Y-88028597D01*
X127926402Y-87861506D01*
X127926395Y-87861501D01*
X127732834Y-87725967D01*
X127732830Y-87725965D01*
X127695185Y-87708411D01*
X127518663Y-87626097D01*
X127518659Y-87626096D01*
X127518655Y-87626094D01*
X127290413Y-87564938D01*
X127290403Y-87564936D01*
X127055001Y-87544341D01*
X127054999Y-87544341D01*
X126819596Y-87564936D01*
X126819586Y-87564938D01*
X126591344Y-87626094D01*
X126591335Y-87626098D01*
X126377171Y-87725964D01*
X126377169Y-87725965D01*
X126183597Y-87861505D01*
X126087181Y-87957922D01*
X126025858Y-87991407D01*
X125956166Y-87986423D01*
X125900233Y-87944551D01*
X125875816Y-87879087D01*
X125875500Y-87870241D01*
X125875500Y-71130436D01*
X125895185Y-71063397D01*
X125947989Y-71017642D01*
X126017147Y-71007698D01*
X126080703Y-71036723D01*
G37*
%TD.AperFunction*%
%TA.AperFunction,Conductor*%
G36*
X135838805Y-70585570D02*
G01*
X135871851Y-70647131D01*
X135874500Y-70672623D01*
X135874500Y-87467581D01*
X135854815Y-87534620D01*
X135802011Y-87580375D01*
X135732853Y-87590319D01*
X135707168Y-87583763D01*
X135632485Y-87555909D01*
X135632483Y-87555908D01*
X135572883Y-87549501D01*
X135572881Y-87549500D01*
X135572873Y-87549500D01*
X135572864Y-87549500D01*
X133777129Y-87549500D01*
X133777123Y-87549501D01*
X133717516Y-87555908D01*
X133582671Y-87606202D01*
X133582664Y-87606206D01*
X133467455Y-87692452D01*
X133467452Y-87692455D01*
X133381206Y-87807664D01*
X133381203Y-87807669D01*
X133332189Y-87939083D01*
X133290317Y-87995016D01*
X133224853Y-88019433D01*
X133156580Y-88004581D01*
X133128326Y-87983430D01*
X133006401Y-87861505D01*
X132950649Y-87822467D01*
X132865702Y-87762986D01*
X132822080Y-87708411D01*
X132813610Y-87675307D01*
X132787047Y-87439536D01*
X132688888Y-86861784D01*
X132558487Y-86290445D01*
X132524615Y-86172870D01*
X132799500Y-86172870D01*
X132799501Y-86172876D01*
X132805908Y-86232483D01*
X132856202Y-86367328D01*
X132856206Y-86367335D01*
X132942452Y-86482544D01*
X132942455Y-86482547D01*
X133057664Y-86568793D01*
X133057671Y-86568797D01*
X133192517Y-86619091D01*
X133192516Y-86619091D01*
X133199444Y-86619835D01*
X133252127Y-86625500D01*
X135047872Y-86625499D01*
X135107483Y-86619091D01*
X135242331Y-86568796D01*
X135357546Y-86482546D01*
X135443796Y-86367331D01*
X135494091Y-86232483D01*
X135500500Y-86172873D01*
X135500499Y-84377128D01*
X135494091Y-84317517D01*
X135477171Y-84272153D01*
X135443797Y-84182671D01*
X135443793Y-84182664D01*
X135357547Y-84067455D01*
X135357544Y-84067452D01*
X135242335Y-83981206D01*
X135242328Y-83981202D01*
X135107482Y-83930908D01*
X135107483Y-83930908D01*
X135047883Y-83924501D01*
X135047881Y-83924500D01*
X135047873Y-83924500D01*
X135047864Y-83924500D01*
X133252129Y-83924500D01*
X133252123Y-83924501D01*
X133192516Y-83930908D01*
X133057671Y-83981202D01*
X133057664Y-83981206D01*
X132942455Y-84067452D01*
X132942452Y-84067455D01*
X132856206Y-84182664D01*
X132856202Y-84182671D01*
X132805908Y-84317517D01*
X132799501Y-84377116D01*
X132799501Y-84377123D01*
X132799500Y-84377135D01*
X132799500Y-86172870D01*
X132524615Y-86172870D01*
X132396256Y-85727317D01*
X132202705Y-85174171D01*
X132025313Y-84745904D01*
X131978445Y-84632752D01*
X131724177Y-84104753D01*
X131440708Y-83591852D01*
X131440708Y-83591851D01*
X131128916Y-83095635D01*
X131128916Y-83095634D01*
X130789802Y-82617697D01*
X130789802Y-82617698D01*
X130789797Y-82617691D01*
X130610984Y-82393467D01*
X130424415Y-82159517D01*
X130424416Y-82159518D01*
X130033912Y-81722544D01*
X130033912Y-81722543D01*
X129890657Y-81579289D01*
X129890649Y-81579280D01*
X129872369Y-81561001D01*
X129872359Y-81560989D01*
X129823800Y-81512431D01*
X129809519Y-81498151D01*
X129560007Y-81225862D01*
X129556529Y-81221717D01*
X129333346Y-80930866D01*
X129330242Y-80926433D01*
X129133263Y-80617246D01*
X129130558Y-80612560D01*
X128961273Y-80287375D01*
X128958986Y-80282471D01*
X128818687Y-79943768D01*
X128816836Y-79938683D01*
X128706588Y-79589032D01*
X128705187Y-79583805D01*
X128625839Y-79225902D01*
X128624899Y-79220573D01*
X128617046Y-79160927D01*
X128577040Y-78857085D01*
X128576571Y-78851724D01*
X128560603Y-78486062D01*
X128560617Y-78480338D01*
X128577865Y-78129206D01*
X128578459Y-78123163D01*
X128629948Y-77776031D01*
X128631127Y-77770099D01*
X128716398Y-77429667D01*
X128718156Y-77423871D01*
X128836380Y-77093454D01*
X128838710Y-77087829D01*
X128988738Y-76770619D01*
X128991602Y-76765258D01*
X129172021Y-76464245D01*
X129175380Y-76459218D01*
X129300413Y-76290630D01*
X129356158Y-76248512D01*
X129400009Y-76240499D01*
X130582871Y-76240499D01*
X130582872Y-76240499D01*
X130642483Y-76234091D01*
X130777331Y-76183796D01*
X130892546Y-76097546D01*
X130978796Y-75982331D01*
X131007455Y-75905493D01*
X131049326Y-75849559D01*
X131114790Y-75825141D01*
X131183063Y-75839992D01*
X131214866Y-75864843D01*
X131222302Y-75872920D01*
X131223215Y-75873912D01*
X131223222Y-75873918D01*
X131406365Y-76016464D01*
X131406371Y-76016468D01*
X131406374Y-76016470D01*
X131610497Y-76126936D01*
X131724487Y-76166068D01*
X131830015Y-76202297D01*
X131830017Y-76202297D01*
X131830019Y-76202298D01*
X132058951Y-76240500D01*
X132058952Y-76240500D01*
X132291048Y-76240500D01*
X132291049Y-76240500D01*
X132519981Y-76202298D01*
X132739503Y-76126936D01*
X132943626Y-76016470D01*
X133126784Y-75873913D01*
X133283979Y-75703153D01*
X133410924Y-75508849D01*
X133504157Y-75296300D01*
X133561134Y-75071305D01*
X133580300Y-74840000D01*
X133580300Y-74839993D01*
X133561135Y-74608702D01*
X133561134Y-74608698D01*
X133561134Y-74608695D01*
X133559545Y-74602420D01*
X133562168Y-74532600D01*
X133592067Y-74484298D01*
X134069724Y-74006643D01*
X134069727Y-74006638D01*
X134070822Y-74005544D01*
X134071061Y-74005289D01*
X134191684Y-73884670D01*
X134472505Y-73555873D01*
X134726664Y-73206057D01*
X134952589Y-72837383D01*
X134952589Y-72837384D01*
X135148898Y-72452111D01*
X135222682Y-72273980D01*
X135314370Y-72052627D01*
X135447989Y-71641392D01*
X135548932Y-71220942D01*
X135616574Y-70793868D01*
X135625845Y-70676077D01*
X135626882Y-70662894D01*
X135651766Y-70597606D01*
X135707997Y-70556135D01*
X135777723Y-70551648D01*
X135838805Y-70585570D01*
G37*
%TD.AperFunction*%
%TA.AperFunction,Conductor*%
G36*
X131203063Y-65039992D02*
G01*
X131234866Y-65064843D01*
X131242302Y-65072920D01*
X131243215Y-65073912D01*
X131243222Y-65073918D01*
X131426365Y-65216464D01*
X131426371Y-65216468D01*
X131426374Y-65216470D01*
X131630497Y-65326936D01*
X131744487Y-65366068D01*
X131850015Y-65402297D01*
X131850017Y-65402297D01*
X131850019Y-65402298D01*
X132078951Y-65440500D01*
X132078952Y-65440500D01*
X132311047Y-65440500D01*
X132311049Y-65440500D01*
X132439274Y-65419102D01*
X132508635Y-65427483D01*
X132547362Y-65453730D01*
X134018301Y-66924668D01*
X134018311Y-66924679D01*
X134073535Y-66979902D01*
X134078889Y-66986007D01*
X134106126Y-67021503D01*
X134122310Y-67049535D01*
X134134741Y-67079546D01*
X134143119Y-67110815D01*
X134148968Y-67155246D01*
X134149499Y-67163346D01*
X134149499Y-67241822D01*
X134149500Y-67241839D01*
X134149500Y-70146603D01*
X134134390Y-70492664D01*
X134133918Y-70498055D01*
X134089060Y-70838785D01*
X134088120Y-70844114D01*
X134013732Y-71179656D01*
X134012331Y-71184884D01*
X133908983Y-71512657D01*
X133907132Y-71517741D01*
X133775610Y-71835260D01*
X133773324Y-71840164D01*
X133614629Y-72145012D01*
X133611923Y-72149698D01*
X133427267Y-72439549D01*
X133424163Y-72443982D01*
X133214944Y-72716638D01*
X133211466Y-72720784D01*
X132977293Y-72976337D01*
X132527362Y-73426268D01*
X132466039Y-73459753D01*
X132419272Y-73460896D01*
X132291049Y-73439500D01*
X132058951Y-73439500D01*
X132020550Y-73445908D01*
X131830015Y-73477702D01*
X131610504Y-73553061D01*
X131610495Y-73553064D01*
X131406371Y-73663531D01*
X131406365Y-73663535D01*
X131223222Y-73806081D01*
X131223218Y-73806085D01*
X131214866Y-73815158D01*
X131154979Y-73851148D01*
X131085141Y-73849047D01*
X131027525Y-73809522D01*
X131007455Y-73774507D01*
X130978797Y-73697671D01*
X130978793Y-73697664D01*
X130892547Y-73582455D01*
X130892544Y-73582452D01*
X130777335Y-73496206D01*
X130777328Y-73496202D01*
X130642482Y-73445908D01*
X130642483Y-73445908D01*
X130582883Y-73439501D01*
X130582881Y-73439500D01*
X130582873Y-73439500D01*
X130582865Y-73439500D01*
X129347230Y-73439500D01*
X129280191Y-73419815D01*
X129259549Y-73403181D01*
X128872674Y-73016306D01*
X128611893Y-72734192D01*
X128608730Y-72730489D01*
X128372389Y-72430690D01*
X128369527Y-72426750D01*
X128157444Y-72109346D01*
X128154899Y-72105193D01*
X127968367Y-71772113D01*
X127966156Y-71767774D01*
X127806334Y-71421092D01*
X127804474Y-71416605D01*
X127672339Y-71058435D01*
X127670838Y-71053814D01*
X127567214Y-70686387D01*
X127566080Y-70681666D01*
X127491603Y-70307240D01*
X127490845Y-70302449D01*
X127445973Y-69923324D01*
X127445592Y-69918489D01*
X127430600Y-69536884D01*
X127430600Y-69532048D01*
X127446843Y-69118628D01*
X127447219Y-69113844D01*
X127495865Y-68702844D01*
X127496625Y-68698049D01*
X127571716Y-68320545D01*
X127577360Y-68292169D01*
X127578494Y-68287449D01*
X127656465Y-68010989D01*
X127690819Y-67889175D01*
X127692324Y-67884546D01*
X127835556Y-67496298D01*
X127837420Y-67491799D01*
X128010672Y-67115986D01*
X128012876Y-67111660D01*
X128215098Y-66750566D01*
X128217607Y-66746474D01*
X128447538Y-66402357D01*
X128450369Y-66398460D01*
X128706591Y-66073446D01*
X128709737Y-66069762D01*
X128992297Y-65764092D01*
X128992296Y-65764091D01*
X128992552Y-65763814D01*
X129279549Y-65476818D01*
X129340872Y-65443333D01*
X129367230Y-65440499D01*
X130602871Y-65440499D01*
X130602872Y-65440499D01*
X130662483Y-65434091D01*
X130797331Y-65383796D01*
X130912546Y-65297546D01*
X130998796Y-65182331D01*
X131027455Y-65105493D01*
X131069326Y-65049559D01*
X131134790Y-65025141D01*
X131203063Y-65039992D01*
G37*
%TD.AperFunction*%
%TA.AperFunction,Conductor*%
G36*
X130950154Y-56270776D02*
G01*
X130954877Y-56271061D01*
X131106898Y-56280257D01*
X131110809Y-56280622D01*
X131252559Y-56298529D01*
X131255949Y-56299054D01*
X131410403Y-56327359D01*
X131414631Y-56328287D01*
X131552916Y-56363793D01*
X131555868Y-56364630D01*
X131705965Y-56411403D01*
X131710266Y-56412923D01*
X131842886Y-56465430D01*
X131845450Y-56466514D01*
X131988945Y-56531096D01*
X131993332Y-56533285D01*
X132119210Y-56602487D01*
X132255122Y-56684649D01*
X132259476Y-56687538D01*
X132375320Y-56771704D01*
X132403498Y-56793780D01*
X132500473Y-56869755D01*
X132504680Y-56873366D01*
X132608614Y-56970966D01*
X132721270Y-57083622D01*
X132725204Y-57087945D01*
X132815580Y-57197192D01*
X132914157Y-57323016D01*
X132917699Y-57328030D01*
X132928196Y-57344569D01*
X132993065Y-57446787D01*
X133006955Y-57469763D01*
X133076219Y-57584340D01*
X133079248Y-57589995D01*
X133111244Y-57657990D01*
X133138392Y-57715683D01*
X133204959Y-57863590D01*
X133207388Y-57869880D01*
X133249360Y-57999054D01*
X133298450Y-58156589D01*
X133300161Y-58163422D01*
X133324280Y-58289855D01*
X133355261Y-58458917D01*
X133356155Y-58466206D01*
X133362030Y-58559588D01*
X133374387Y-58763863D01*
X133374500Y-58767608D01*
X133374500Y-59006256D01*
X133374447Y-59006436D01*
X133374498Y-59112388D01*
X133374535Y-59189674D01*
X133382882Y-59252617D01*
X133409249Y-59451460D01*
X133409250Y-59451464D01*
X133478073Y-59706425D01*
X133579814Y-59950131D01*
X133712701Y-60178344D01*
X133762229Y-60242276D01*
X133874435Y-60387114D01*
X134062205Y-60572813D01*
X134272753Y-60732221D01*
X134386109Y-60796555D01*
X134502426Y-60862570D01*
X134502432Y-60862573D01*
X134577797Y-60893099D01*
X134622460Y-60911190D01*
X134622915Y-60911374D01*
X134626626Y-60913021D01*
X134679964Y-60938808D01*
X134798888Y-60997500D01*
X134869655Y-61032425D01*
X134876301Y-61036234D01*
X134971362Y-61098806D01*
X135102342Y-61189739D01*
X135107588Y-61193813D01*
X135201041Y-61274784D01*
X135310892Y-61378183D01*
X135314797Y-61382209D01*
X135398110Y-61476243D01*
X135400394Y-61478976D01*
X135491217Y-61594243D01*
X135493927Y-61597958D01*
X135564637Y-61702840D01*
X135567064Y-61706745D01*
X135639869Y-61834185D01*
X135641545Y-61837326D01*
X135659392Y-61873223D01*
X135697468Y-61949814D01*
X135699739Y-61954954D01*
X135754392Y-62095552D01*
X135761704Y-62116928D01*
X135794411Y-62212560D01*
X135796220Y-62218951D01*
X135831391Y-62374450D01*
X135853754Y-62486079D01*
X135854793Y-62493673D01*
X135870263Y-62701960D01*
X135874365Y-62764116D01*
X135874500Y-62768200D01*
X135874500Y-66854110D01*
X135854815Y-66921149D01*
X135802011Y-66966904D01*
X135732853Y-66976848D01*
X135669297Y-66947823D01*
X135631523Y-66889045D01*
X135627561Y-66870294D01*
X135620543Y-66816986D01*
X135620541Y-66816976D01*
X135601645Y-66746455D01*
X135561151Y-66595325D01*
X135561146Y-66595315D01*
X135561145Y-66595309D01*
X135473341Y-66383328D01*
X135473336Y-66383319D01*
X135358600Y-66184591D01*
X135218906Y-66002538D01*
X135218905Y-66002537D01*
X135137776Y-65921408D01*
X135114853Y-65898486D01*
X133612069Y-64395701D01*
X133578584Y-64334378D01*
X133579544Y-64277579D01*
X133581134Y-64271305D01*
X133600300Y-64040000D01*
X133600300Y-64039993D01*
X133581135Y-63808702D01*
X133581133Y-63808691D01*
X133524157Y-63583699D01*
X133430924Y-63371151D01*
X133303983Y-63176852D01*
X133303980Y-63176849D01*
X133303979Y-63176847D01*
X133146784Y-63006087D01*
X133146779Y-63006083D01*
X133146777Y-63006081D01*
X132963634Y-62863535D01*
X132963628Y-62863531D01*
X132759504Y-62753064D01*
X132759495Y-62753061D01*
X132539984Y-62677702D01*
X132349450Y-62645908D01*
X132311049Y-62639500D01*
X132078951Y-62639500D01*
X132040550Y-62645908D01*
X131850015Y-62677702D01*
X131630504Y-62753061D01*
X131630495Y-62753064D01*
X131426371Y-62863531D01*
X131426365Y-62863535D01*
X131243222Y-63006081D01*
X131243218Y-63006085D01*
X131234866Y-63015158D01*
X131174979Y-63051148D01*
X131105141Y-63049047D01*
X131047525Y-63009522D01*
X131027455Y-62974507D01*
X130998797Y-62897671D01*
X130998793Y-62897664D01*
X130912547Y-62782455D01*
X130912544Y-62782452D01*
X130797335Y-62696206D01*
X130797328Y-62696202D01*
X130662482Y-62645908D01*
X130662483Y-62645908D01*
X130602883Y-62639501D01*
X130602881Y-62639500D01*
X130602873Y-62639500D01*
X130602864Y-62639500D01*
X128707129Y-62639500D01*
X128707123Y-62639501D01*
X128647516Y-62645908D01*
X128512671Y-62696202D01*
X128512664Y-62696206D01*
X128397455Y-62782452D01*
X128397452Y-62782455D01*
X128311206Y-62897664D01*
X128311202Y-62897671D01*
X128260908Y-63032517D01*
X128254501Y-63092116D01*
X128254500Y-63092135D01*
X128254500Y-64327769D01*
X128234815Y-64394808D01*
X128218181Y-64415450D01*
X127898946Y-64734685D01*
X127898546Y-64735108D01*
X127758360Y-64875294D01*
X127438719Y-65244178D01*
X127438714Y-65244183D01*
X127438711Y-65244188D01*
X127146206Y-65634930D01*
X127146207Y-65634929D01*
X127063395Y-65763788D01*
X126909960Y-66002538D01*
X126882320Y-66045546D01*
X126648395Y-66473945D01*
X126522048Y-66750607D01*
X126445631Y-66917936D01*
X126275056Y-67375264D01*
X126137541Y-67843596D01*
X126137541Y-67843597D01*
X126137540Y-67843597D01*
X126120666Y-67921166D01*
X126087181Y-67982489D01*
X126025858Y-68015973D01*
X125956166Y-68010989D01*
X125900233Y-67969117D01*
X125875816Y-67903653D01*
X125875500Y-67894807D01*
X125875500Y-62767774D01*
X125875635Y-62763691D01*
X125876856Y-62745168D01*
X125879442Y-62705991D01*
X125895266Y-62493208D01*
X125896298Y-62485666D01*
X125918145Y-62376620D01*
X125953919Y-62218453D01*
X125955728Y-62212068D01*
X125995147Y-62096811D01*
X125997211Y-62091499D01*
X126050518Y-61954361D01*
X126052759Y-61949290D01*
X126108027Y-61838121D01*
X126109659Y-61835062D01*
X126183360Y-61706054D01*
X126185717Y-61702264D01*
X126255661Y-61598518D01*
X126258313Y-61594883D01*
X126350272Y-61478174D01*
X126352458Y-61475560D01*
X126434799Y-61382622D01*
X126438672Y-61378631D01*
X126549945Y-61273891D01*
X126642022Y-61194112D01*
X126647222Y-61190073D01*
X126780480Y-61097560D01*
X126790267Y-61091118D01*
X126873342Y-61036435D01*
X126879958Y-61032644D01*
X127073634Y-60937035D01*
X127122923Y-60913206D01*
X127126765Y-60911508D01*
X127170802Y-60893803D01*
X127172129Y-60893099D01*
X127247550Y-60862550D01*
X127247548Y-60862550D01*
X127247560Y-60862546D01*
X127477231Y-60732198D01*
X127687777Y-60572792D01*
X127875544Y-60387096D01*
X128037274Y-60178330D01*
X128170161Y-59950118D01*
X128271898Y-59706420D01*
X128340722Y-59451463D01*
X128375437Y-59189672D01*
X128375500Y-59057631D01*
X128375500Y-59057131D01*
X128375500Y-58767607D01*
X128375557Y-58765734D01*
X129369357Y-58765734D01*
X129372786Y-58807119D01*
X129377029Y-58858319D01*
X129377350Y-58862186D01*
X129377562Y-58867309D01*
X129377562Y-58889811D01*
X129381265Y-58912012D01*
X129381899Y-58917095D01*
X129389891Y-59013546D01*
X129389891Y-59013548D01*
X129413654Y-59107387D01*
X129414705Y-59112402D01*
X129418407Y-59134584D01*
X129418409Y-59134592D01*
X129425714Y-59155871D01*
X129427176Y-59160783D01*
X129450935Y-59254604D01*
X129450939Y-59254617D01*
X129489815Y-59343245D01*
X129491677Y-59348016D01*
X129498986Y-59369306D01*
X129498988Y-59369309D01*
X129509698Y-59389101D01*
X129511948Y-59393705D01*
X129550827Y-59482338D01*
X129603764Y-59563364D01*
X129606388Y-59567768D01*
X129617095Y-59587553D01*
X129617098Y-59587558D01*
X129630926Y-59605325D01*
X129633903Y-59609495D01*
X129686834Y-59690512D01*
X129686838Y-59690517D01*
X129752393Y-59761730D01*
X129755706Y-59765641D01*
X129769522Y-59783392D01*
X129786080Y-59798635D01*
X129789694Y-59802249D01*
X129855256Y-59873468D01*
X129931651Y-59932929D01*
X129935547Y-59936229D01*
X129941913Y-59942090D01*
X129952099Y-59951467D01*
X129970936Y-59963774D01*
X129975102Y-59966748D01*
X130051491Y-60026204D01*
X130136640Y-60072284D01*
X130141001Y-60074883D01*
X130159855Y-60087201D01*
X130180494Y-60096254D01*
X130185033Y-60098473D01*
X130270190Y-60144558D01*
X130361754Y-60175992D01*
X130366489Y-60177839D01*
X130387116Y-60186887D01*
X130408932Y-60192411D01*
X130413816Y-60193865D01*
X130485089Y-60218333D01*
X130505385Y-60225301D01*
X130539189Y-60230941D01*
X130600866Y-60241233D01*
X130605879Y-60242285D01*
X130627676Y-60247805D01*
X130627678Y-60247805D01*
X130627685Y-60247807D01*
X130650125Y-60249666D01*
X130655169Y-60250294D01*
X130750665Y-60266230D01*
X130750666Y-60266230D01*
X130847448Y-60266230D01*
X130852561Y-60266441D01*
X130868415Y-60267755D01*
X130874998Y-60268301D01*
X130875000Y-60268301D01*
X130875002Y-60268301D01*
X130881584Y-60267755D01*
X130897438Y-60266441D01*
X130902552Y-60266230D01*
X130999330Y-60266230D01*
X130999335Y-60266230D01*
X131094851Y-60250291D01*
X131099862Y-60249667D01*
X131122315Y-60247807D01*
X131144153Y-60242276D01*
X131149105Y-60241238D01*
X131244614Y-60225301D01*
X131336198Y-60193859D01*
X131341042Y-60192418D01*
X131362884Y-60186887D01*
X131383500Y-60177843D01*
X131388234Y-60175995D01*
X131479810Y-60144558D01*
X131564975Y-60098468D01*
X131569505Y-60096254D01*
X131590145Y-60087201D01*
X131609008Y-60074876D01*
X131613337Y-60072296D01*
X131698509Y-60026204D01*
X131774931Y-59966722D01*
X131779018Y-59963803D01*
X131797898Y-59951469D01*
X131814466Y-59936217D01*
X131818341Y-59932934D01*
X131894744Y-59873468D01*
X131960313Y-59802240D01*
X131963897Y-59798655D01*
X131980477Y-59783393D01*
X131994320Y-59765606D01*
X131997581Y-59761756D01*
X132063164Y-59690515D01*
X132116127Y-59609448D01*
X132119053Y-59605350D01*
X132132902Y-59587558D01*
X132143623Y-59567746D01*
X132146233Y-59563366D01*
X132199173Y-59482337D01*
X132238061Y-59393680D01*
X132240299Y-59389105D01*
X132240301Y-59389101D01*
X132251014Y-59369306D01*
X132258336Y-59347976D01*
X132260162Y-59343294D01*
X132299063Y-59254611D01*
X132322826Y-59160771D01*
X132324278Y-59155892D01*
X132331592Y-59134589D01*
X132335296Y-59112388D01*
X132336340Y-59107407D01*
X132360108Y-59013551D01*
X132368104Y-58917051D01*
X132368733Y-58912012D01*
X132372438Y-58889811D01*
X132373088Y-58858319D01*
X132373283Y-58854542D01*
X132379822Y-58775632D01*
X132380643Y-58765732D01*
X132380643Y-58765727D01*
X132379339Y-58749998D01*
X132373284Y-58676920D01*
X132373088Y-58673137D01*
X132372438Y-58641649D01*
X132368733Y-58619444D01*
X132368103Y-58614396D01*
X132360108Y-58517909D01*
X132336341Y-58424057D01*
X132335295Y-58419064D01*
X132331592Y-58396873D01*
X132331591Y-58396870D01*
X132324283Y-58375580D01*
X132322825Y-58370682D01*
X132302376Y-58289933D01*
X132299063Y-58276849D01*
X132260174Y-58188191D01*
X132258329Y-58183464D01*
X132251014Y-58162154D01*
X132245045Y-58151126D01*
X132240298Y-58142352D01*
X132238052Y-58137759D01*
X132199173Y-58049123D01*
X132199173Y-58049122D01*
X132146231Y-57968088D01*
X132143607Y-57963684D01*
X132132904Y-57943907D01*
X132132902Y-57943902D01*
X132119080Y-57926143D01*
X132116102Y-57921972D01*
X132063166Y-57840948D01*
X132063165Y-57840947D01*
X132063164Y-57840945D01*
X132033241Y-57808440D01*
X131997606Y-57769729D01*
X131994295Y-57765820D01*
X131980477Y-57748067D01*
X131980473Y-57748062D01*
X131963919Y-57732823D01*
X131960301Y-57729206D01*
X131894744Y-57657992D01*
X131818352Y-57598534D01*
X131814444Y-57595223D01*
X131797898Y-57579991D01*
X131779063Y-57567685D01*
X131774897Y-57564711D01*
X131698509Y-57505256D01*
X131698508Y-57505255D01*
X131698505Y-57505253D01*
X131698503Y-57505252D01*
X131613385Y-57459189D01*
X131608981Y-57456565D01*
X131590145Y-57444259D01*
X131569547Y-57435224D01*
X131564940Y-57432972D01*
X131479811Y-57386902D01*
X131479802Y-57386899D01*
X131388259Y-57355472D01*
X131383484Y-57353609D01*
X131383312Y-57353533D01*
X131362884Y-57344573D01*
X131362880Y-57344572D01*
X131362878Y-57344571D01*
X131341076Y-57339049D01*
X131336166Y-57337588D01*
X131244614Y-57306159D01*
X131149138Y-57290226D01*
X131144123Y-57289174D01*
X131122312Y-57283652D01*
X131122316Y-57283652D01*
X131099895Y-57281795D01*
X131094810Y-57281161D01*
X130999336Y-57265230D01*
X130999335Y-57265230D01*
X130902541Y-57265230D01*
X130897427Y-57265018D01*
X130881555Y-57263703D01*
X130875002Y-57263160D01*
X130874998Y-57263160D01*
X130868444Y-57263703D01*
X130852572Y-57265018D01*
X130847459Y-57265230D01*
X130750665Y-57265230D01*
X130655188Y-57281161D01*
X130650103Y-57281795D01*
X130627688Y-57283652D01*
X130627683Y-57283653D01*
X130605880Y-57289174D01*
X130600866Y-57290225D01*
X130505382Y-57306159D01*
X130413834Y-57337586D01*
X130408927Y-57339047D01*
X130387126Y-57344569D01*
X130387116Y-57344573D01*
X130366510Y-57353611D01*
X130361738Y-57355472D01*
X130270194Y-57386900D01*
X130270183Y-57386905D01*
X130185062Y-57432970D01*
X130180458Y-57435221D01*
X130159854Y-57444259D01*
X130159845Y-57444264D01*
X130141023Y-57456561D01*
X130136621Y-57459185D01*
X130051492Y-57505254D01*
X130051489Y-57505257D01*
X129975106Y-57564707D01*
X129970938Y-57567684D01*
X129952099Y-57579993D01*
X129935542Y-57595233D01*
X129931635Y-57598542D01*
X129855255Y-57657992D01*
X129789697Y-57729206D01*
X129786075Y-57732828D01*
X129769529Y-57748060D01*
X129769514Y-57748076D01*
X129755699Y-57765824D01*
X129752390Y-57769731D01*
X129686836Y-57840945D01*
X129633901Y-57921966D01*
X129630925Y-57926134D01*
X129617099Y-57943900D01*
X129617094Y-57943907D01*
X129606386Y-57963694D01*
X129603763Y-57968095D01*
X129550828Y-58049120D01*
X129511953Y-58137745D01*
X129509704Y-58142345D01*
X129498985Y-58162154D01*
X129491676Y-58183444D01*
X129489814Y-58188217D01*
X129463724Y-58247697D01*
X129450939Y-58276846D01*
X129450936Y-58276852D01*
X129427177Y-58370672D01*
X129425716Y-58375580D01*
X129418408Y-58396870D01*
X129414705Y-58419057D01*
X129413654Y-58424072D01*
X129389891Y-58517908D01*
X129389891Y-58517912D01*
X129381898Y-58614364D01*
X129381265Y-58619444D01*
X129377562Y-58641649D01*
X129377562Y-58664149D01*
X129377350Y-58669265D01*
X129376713Y-58676958D01*
X129369357Y-58765724D01*
X129369357Y-58765734D01*
X128375557Y-58765734D01*
X128375613Y-58763863D01*
X128383005Y-58641649D01*
X128387974Y-58559507D01*
X128390591Y-58517908D01*
X128393845Y-58466185D01*
X128394735Y-58458931D01*
X128425736Y-58289761D01*
X128449841Y-58163405D01*
X128451541Y-58156616D01*
X128500665Y-57998970D01*
X128542614Y-57869868D01*
X128545031Y-57863609D01*
X128611619Y-57715656D01*
X128670766Y-57589964D01*
X128673763Y-57584369D01*
X128756948Y-57446763D01*
X128832317Y-57328002D01*
X128835824Y-57323039D01*
X128934427Y-57197181D01*
X129024814Y-57087922D01*
X129028707Y-57083644D01*
X129141401Y-56970950D01*
X129245339Y-56873347D01*
X129249514Y-56869764D01*
X129374695Y-56771692D01*
X129490528Y-56687534D01*
X129494861Y-56684658D01*
X129630800Y-56602480D01*
X129756696Y-56533269D01*
X129761033Y-56531105D01*
X129904580Y-56466500D01*
X129907081Y-56465443D01*
X130039750Y-56412916D01*
X130044017Y-56411408D01*
X130194152Y-56364624D01*
X130197062Y-56363798D01*
X130335379Y-56328284D01*
X130339595Y-56327359D01*
X130494049Y-56299054D01*
X130497429Y-56298530D01*
X130639195Y-56280621D01*
X130643096Y-56280257D01*
X130795410Y-56271044D01*
X130799846Y-56270776D01*
X130803589Y-56270663D01*
X130946411Y-56270663D01*
X130950154Y-56270776D01*
G37*
%TD.AperFunction*%
%TD*%
M02*
