%TF.GenerationSoftware,KiCad,Pcbnew,7.0.9*%
%TF.CreationDate,2025-01-15T18:40:25+09:00*%
%TF.ProjectId,line_short_robt2,6c696e65-5f73-4686-9f72-745f726f6274,rev?*%
%TF.SameCoordinates,Original*%
%TF.FileFunction,Copper,L1,Top*%
%TF.FilePolarity,Positive*%
%FSLAX46Y46*%
G04 Gerber Fmt 4.6, Leading zero omitted, Abs format (unit mm)*
G04 Created by KiCad (PCBNEW 7.0.9) date 2025-01-15 18:40:25*
%MOMM*%
%LPD*%
G01*
G04 APERTURE LIST*
G04 Aperture macros list*
%AMRoundRect*
0 Rectangle with rounded corners*
0 $1 Rounding radius*
0 $2 $3 $4 $5 $6 $7 $8 $9 X,Y pos of 4 corners*
0 Add a 4 corners polygon primitive as box body*
4,1,4,$2,$3,$4,$5,$6,$7,$8,$9,$2,$3,0*
0 Add four circle primitives for the rounded corners*
1,1,$1+$1,$2,$3*
1,1,$1+$1,$4,$5*
1,1,$1+$1,$6,$7*
1,1,$1+$1,$8,$9*
0 Add four rect primitives between the rounded corners*
20,1,$1+$1,$2,$3,$4,$5,0*
20,1,$1+$1,$4,$5,$6,$7,0*
20,1,$1+$1,$6,$7,$8,$9,0*
20,1,$1+$1,$8,$9,$2,$3,0*%
G04 Aperture macros list end*
%TA.AperFunction,ComponentPad*%
%ADD10R,1.800000X1.800000*%
%TD*%
%TA.AperFunction,ComponentPad*%
%ADD11C,1.800000*%
%TD*%
%TA.AperFunction,SMDPad,CuDef*%
%ADD12R,1.500000X0.900000*%
%TD*%
%TA.AperFunction,ComponentPad*%
%ADD13R,1.700000X1.700000*%
%TD*%
%TA.AperFunction,ComponentPad*%
%ADD14O,1.700000X1.700000*%
%TD*%
%TA.AperFunction,SMDPad,CuDef*%
%ADD15RoundRect,0.250000X-0.362500X-1.075000X0.362500X-1.075000X0.362500X1.075000X-0.362500X1.075000X0*%
%TD*%
%TA.AperFunction,SMDPad,CuDef*%
%ADD16R,2.000000X1.300000*%
%TD*%
%TA.AperFunction,SMDPad,CuDef*%
%ADD17R,2.000000X2.000000*%
%TD*%
%TA.AperFunction,ViaPad*%
%ADD18C,0.800000*%
%TD*%
%TA.AperFunction,Conductor*%
%ADD19C,0.500000*%
%TD*%
G04 APERTURE END LIST*
D10*
%TO.P,Q1,1,C*%
%TO.N,+3.3V*%
X129655000Y-64040000D03*
D11*
%TO.P,Q1,2,E*%
%TO.N,Net-(Q1-E)*%
X132195000Y-64040000D03*
%TD*%
D12*
%TO.P,D1,1,DOUT*%
%TO.N,unconnected-(D1-DOUT-Pad1)*%
X128510000Y-67820000D03*
%TO.P,D1,2,GND*%
%TO.N,GND*%
X128510000Y-71120000D03*
%TO.P,D1,3,VDD*%
%TO.N,+5V*%
X133410000Y-71120000D03*
%TO.P,D1,4,DIN*%
%TO.N,/PWM*%
X133410000Y-67820000D03*
%TD*%
D10*
%TO.P,Q2,1,C*%
%TO.N,+3.3V*%
X129635000Y-74840000D03*
D11*
%TO.P,Q2,2,E*%
%TO.N,Net-(Q1-E)*%
X132175000Y-74840000D03*
%TD*%
D13*
%TO.P,J1,1,Pin_1*%
%TO.N,/PWM*%
X134675000Y-88900000D03*
D14*
%TO.P,J1,2,Pin_2*%
%TO.N,+3.3V*%
X132135000Y-88900000D03*
%TO.P,J1,3,Pin_3*%
%TO.N,GND*%
X129595000Y-88900000D03*
%TO.P,J1,4,Pin_4*%
%TO.N,/S*%
X127055000Y-88900000D03*
%TD*%
D15*
%TO.P,R1,1*%
%TO.N,/S*%
X126712500Y-79000000D03*
%TO.P,R1,2*%
%TO.N,Net-(Q1-E)*%
X131337500Y-79000000D03*
%TD*%
D13*
%TO.P,J2,1,Pin_1*%
%TO.N,+5V*%
X134150000Y-85275000D03*
%TD*%
D16*
%TO.P,RV1,1,1*%
%TO.N,unconnected-(RV1-Pad1)*%
X127050000Y-85475000D03*
D17*
%TO.P,RV1,2,2*%
%TO.N,GND*%
X131050000Y-84325000D03*
D16*
%TO.P,RV1,3,3*%
%TO.N,/S*%
X127050000Y-83175000D03*
%TD*%
D18*
%TO.N,GND*%
X127030000Y-75030000D03*
X129140000Y-91840000D03*
X134850000Y-63890000D03*
X133010000Y-91890000D03*
X131210000Y-81840000D03*
X130260000Y-86900000D03*
X134200000Y-79580000D03*
X131090000Y-69510000D03*
X127050000Y-63810000D03*
X128290000Y-69480000D03*
X134140000Y-82180000D03*
%TD*%
D19*
%TO.N,+5V*%
X134140000Y-71350000D02*
X133858000Y-71068000D01*
X132790000Y-81991767D02*
X132790000Y-77822127D01*
X134140000Y-74562964D02*
X134140000Y-71350000D01*
X133385512Y-76384544D02*
G75*
G03*
X134140000Y-74562964I-1821612J1821544D01*
G01*
X133385465Y-76384497D02*
G75*
G03*
X132790000Y-77822127I1437635J-1437603D01*
G01*
X132790025Y-81991767D02*
G75*
G03*
X134150000Y-85275000I4643075J-33D01*
G01*
%TO.N,/PWM*%
X135470000Y-88105000D02*
X134675000Y-88900000D01*
X133410000Y-67820000D02*
X133665082Y-67820000D01*
X135470000Y-72177357D02*
X135470000Y-88105000D01*
X135470040Y-72177357D02*
G75*
G03*
X133665082Y-67820000I-6162140J-43D01*
G01*
%TO.N,/S*%
X126710000Y-82835000D02*
X126710000Y-79002500D01*
X128540005Y-85314897D02*
X128540006Y-85188157D01*
X126710000Y-79002500D02*
X126712500Y-79000000D01*
X127050000Y-83175000D02*
X126710000Y-82835000D01*
X128170089Y-84295089D02*
X127050000Y-83175000D01*
X127055026Y-88900026D02*
G75*
G03*
X128540005Y-85314897I-3585226J3585126D01*
G01*
X128539963Y-85188157D02*
G75*
G03*
X128170089Y-84295089I-1262963J57D01*
G01*
%TO.N,Net-(Q1-E)*%
X131720000Y-75295000D02*
X132175000Y-74840000D01*
X131337500Y-79000000D02*
X131720000Y-78617500D01*
X131720000Y-78617500D02*
X131720000Y-75295000D01*
%TD*%
%TA.AperFunction,Conductor*%
%TO.N,GND*%
G36*
X129845000Y-90230633D02*
G01*
X130058483Y-90173433D01*
X130058492Y-90173429D01*
X130272578Y-90073600D01*
X130466082Y-89938105D01*
X130633105Y-89771082D01*
X130763119Y-89585405D01*
X130817696Y-89541781D01*
X130887195Y-89534588D01*
X130949549Y-89566110D01*
X130966269Y-89585405D01*
X131096505Y-89771401D01*
X131263599Y-89938495D01*
X131360384Y-90006265D01*
X131457165Y-90074032D01*
X131457167Y-90074033D01*
X131457170Y-90074035D01*
X131671337Y-90173903D01*
X131899592Y-90235063D01*
X132076034Y-90250500D01*
X132134999Y-90255659D01*
X132135000Y-90255659D01*
X132135001Y-90255659D01*
X132193966Y-90250500D01*
X132370408Y-90235063D01*
X132598663Y-90173903D01*
X132812830Y-90074035D01*
X133006401Y-89938495D01*
X133128329Y-89816566D01*
X133189648Y-89783084D01*
X133259340Y-89788068D01*
X133315274Y-89829939D01*
X133332189Y-89860917D01*
X133381202Y-89992328D01*
X133381206Y-89992335D01*
X133467452Y-90107544D01*
X133467455Y-90107547D01*
X133582664Y-90193793D01*
X133582671Y-90193797D01*
X133717517Y-90244091D01*
X133717516Y-90244091D01*
X133723525Y-90244737D01*
X133777127Y-90250500D01*
X135572872Y-90250499D01*
X135632483Y-90244091D01*
X135707167Y-90216236D01*
X135776859Y-90211252D01*
X135838182Y-90244737D01*
X135871666Y-90306061D01*
X135874500Y-90332418D01*
X135874500Y-91548048D01*
X135874377Y-91551945D01*
X135868512Y-91645100D01*
X135857692Y-91803701D01*
X135856736Y-91811113D01*
X135834434Y-91927950D01*
X135806904Y-92060797D01*
X135805154Y-92067391D01*
X135766872Y-92185136D01*
X135722973Y-92309015D01*
X135720625Y-92314724D01*
X135666957Y-92428691D01*
X135607337Y-92544116D01*
X135604586Y-92548905D01*
X135537188Y-92655024D01*
X135535563Y-92657455D01*
X135461955Y-92762101D01*
X135458997Y-92765973D01*
X135378564Y-92863112D01*
X135376207Y-92865797D01*
X135289318Y-92959213D01*
X135286338Y-92962206D01*
X135194233Y-93048606D01*
X135191057Y-93051389D01*
X135092313Y-93132117D01*
X135089483Y-93134298D01*
X134987371Y-93208394D01*
X134983317Y-93211099D01*
X134874225Y-93277851D01*
X134871697Y-93279317D01*
X134761465Y-93339820D01*
X134756510Y-93342259D01*
X134637519Y-93394389D01*
X134520362Y-93440672D01*
X134514515Y-93442652D01*
X134388081Y-93478555D01*
X134268141Y-93509243D01*
X134261448Y-93510568D01*
X134127073Y-93529568D01*
X134009086Y-93544361D01*
X134001630Y-93544843D01*
X133842611Y-93545518D01*
X133749330Y-93545424D01*
X133745426Y-93545297D01*
X133720228Y-93543682D01*
X133720200Y-93543686D01*
X133173648Y-93508731D01*
X132024699Y-93464677D01*
X130875000Y-93449989D01*
X129725301Y-93464677D01*
X128576352Y-93508731D01*
X128056709Y-93541965D01*
X128056673Y-93541956D01*
X128004575Y-93545297D01*
X128000670Y-93545424D01*
X127907388Y-93545518D01*
X127748361Y-93544843D01*
X127740904Y-93544361D01*
X127622950Y-93529571D01*
X127488541Y-93510566D01*
X127481848Y-93509241D01*
X127439512Y-93498409D01*
X127361951Y-93478564D01*
X127235477Y-93442649D01*
X127229631Y-93440669D01*
X127112503Y-93394399D01*
X126993474Y-93342252D01*
X126988520Y-93339814D01*
X126927490Y-93306317D01*
X126878300Y-93279318D01*
X126875807Y-93277872D01*
X126816995Y-93241885D01*
X126766675Y-93211093D01*
X126762622Y-93208389D01*
X126660524Y-93134305D01*
X126657693Y-93132123D01*
X126558932Y-93051381D01*
X126555756Y-93048598D01*
X126513477Y-93008937D01*
X126463648Y-92962194D01*
X126460699Y-92959232D01*
X126373791Y-92865797D01*
X126371434Y-92863112D01*
X126290995Y-92765965D01*
X126288044Y-92762101D01*
X126283809Y-92756081D01*
X126214389Y-92657388D01*
X126212842Y-92655074D01*
X126145412Y-92548905D01*
X126142665Y-92544121D01*
X126135626Y-92530495D01*
X126083035Y-92428675D01*
X126029375Y-92314725D01*
X126027033Y-92309034D01*
X125983123Y-92185122D01*
X125944844Y-92067392D01*
X125943097Y-92060811D01*
X125915565Y-91927950D01*
X125893263Y-91811113D01*
X125892307Y-91803713D01*
X125881484Y-91645066D01*
X125875623Y-91551946D01*
X125875500Y-91548050D01*
X125875500Y-89929758D01*
X125895185Y-89862719D01*
X125947989Y-89816964D01*
X126017147Y-89807020D01*
X126080703Y-89836045D01*
X126087181Y-89842077D01*
X126183599Y-89938495D01*
X126280384Y-90006265D01*
X126377165Y-90074032D01*
X126377167Y-90074033D01*
X126377170Y-90074035D01*
X126591337Y-90173903D01*
X126819592Y-90235063D01*
X126996034Y-90250500D01*
X127054999Y-90255659D01*
X127055000Y-90255659D01*
X127055001Y-90255659D01*
X127113966Y-90250500D01*
X127290408Y-90235063D01*
X127518663Y-90173903D01*
X127732830Y-90074035D01*
X127926401Y-89938495D01*
X128093495Y-89771401D01*
X128223730Y-89585405D01*
X128278307Y-89541781D01*
X128347805Y-89534587D01*
X128410160Y-89566110D01*
X128426879Y-89585405D01*
X128556890Y-89771078D01*
X128723917Y-89938105D01*
X128917421Y-90073600D01*
X129131507Y-90173429D01*
X129131516Y-90173433D01*
X129345000Y-90230634D01*
X129345000Y-89335501D01*
X129452685Y-89384680D01*
X129559237Y-89400000D01*
X129630763Y-89400000D01*
X129737315Y-89384680D01*
X129845000Y-89335501D01*
X129845000Y-90230633D01*
G37*
%TD.AperFunction*%
%TA.AperFunction,Conductor*%
G36*
X130950154Y-56270776D02*
G01*
X130954877Y-56271061D01*
X131106898Y-56280257D01*
X131110809Y-56280622D01*
X131252559Y-56298529D01*
X131255949Y-56299054D01*
X131410403Y-56327359D01*
X131414631Y-56328287D01*
X131552916Y-56363793D01*
X131555868Y-56364630D01*
X131705965Y-56411403D01*
X131710266Y-56412923D01*
X131842886Y-56465430D01*
X131845450Y-56466514D01*
X131988945Y-56531096D01*
X131993332Y-56533285D01*
X132119210Y-56602487D01*
X132255122Y-56684649D01*
X132259476Y-56687538D01*
X132375320Y-56771704D01*
X132403498Y-56793780D01*
X132500473Y-56869755D01*
X132504680Y-56873366D01*
X132608614Y-56970966D01*
X132721270Y-57083622D01*
X132725204Y-57087945D01*
X132815580Y-57197192D01*
X132914157Y-57323016D01*
X132917699Y-57328030D01*
X132928196Y-57344569D01*
X132993065Y-57446787D01*
X133006955Y-57469763D01*
X133076219Y-57584340D01*
X133079248Y-57589995D01*
X133111244Y-57657990D01*
X133138392Y-57715683D01*
X133204959Y-57863590D01*
X133207388Y-57869880D01*
X133249360Y-57999054D01*
X133298450Y-58156589D01*
X133300161Y-58163422D01*
X133324280Y-58289855D01*
X133355261Y-58458917D01*
X133356155Y-58466206D01*
X133362030Y-58559588D01*
X133374387Y-58763863D01*
X133374500Y-58767608D01*
X133374500Y-59006256D01*
X133374447Y-59006436D01*
X133374498Y-59112388D01*
X133374535Y-59189674D01*
X133382882Y-59252617D01*
X133409249Y-59451460D01*
X133409250Y-59451464D01*
X133478073Y-59706425D01*
X133579814Y-59950131D01*
X133712701Y-60178344D01*
X133762229Y-60242276D01*
X133874435Y-60387114D01*
X134062205Y-60572813D01*
X134272753Y-60732221D01*
X134386109Y-60796555D01*
X134502426Y-60862570D01*
X134502432Y-60862573D01*
X134577797Y-60893099D01*
X134622460Y-60911190D01*
X134622915Y-60911374D01*
X134626626Y-60913021D01*
X134679964Y-60938808D01*
X134798888Y-60997500D01*
X134869655Y-61032425D01*
X134876301Y-61036234D01*
X134971362Y-61098806D01*
X135102342Y-61189739D01*
X135107588Y-61193813D01*
X135201041Y-61274784D01*
X135310892Y-61378183D01*
X135314797Y-61382209D01*
X135398110Y-61476243D01*
X135400394Y-61478976D01*
X135491217Y-61594243D01*
X135493927Y-61597958D01*
X135564637Y-61702840D01*
X135567064Y-61706745D01*
X135639869Y-61834185D01*
X135641545Y-61837326D01*
X135659392Y-61873223D01*
X135697468Y-61949814D01*
X135699739Y-61954954D01*
X135754392Y-62095552D01*
X135761704Y-62116928D01*
X135794411Y-62212560D01*
X135796220Y-62218951D01*
X135831391Y-62374450D01*
X135853754Y-62486079D01*
X135854793Y-62493673D01*
X135870263Y-62701960D01*
X135874365Y-62764116D01*
X135874500Y-62768200D01*
X135874500Y-69345902D01*
X135854815Y-69412941D01*
X135802011Y-69458696D01*
X135732853Y-69468640D01*
X135669297Y-69439615D01*
X135637707Y-69397415D01*
X135493245Y-69081104D01*
X135493244Y-69081102D01*
X135256591Y-68647724D01*
X135243623Y-68627547D01*
X134989622Y-68232330D01*
X134989622Y-68232329D01*
X134693709Y-67837055D01*
X134693705Y-67837050D01*
X134690779Y-67833673D01*
X134661760Y-67770115D01*
X134660499Y-67752478D01*
X134660499Y-67322129D01*
X134660498Y-67322123D01*
X134660497Y-67322116D01*
X134654091Y-67262517D01*
X134603796Y-67127669D01*
X134603795Y-67127668D01*
X134603793Y-67127664D01*
X134517547Y-67012455D01*
X134517544Y-67012452D01*
X134402335Y-66926206D01*
X134402328Y-66926202D01*
X134267482Y-66875908D01*
X134267483Y-66875908D01*
X134207883Y-66869501D01*
X134207881Y-66869500D01*
X134207873Y-66869500D01*
X134207864Y-66869500D01*
X132612129Y-66869500D01*
X132612123Y-66869501D01*
X132552516Y-66875908D01*
X132417671Y-66926202D01*
X132417664Y-66926206D01*
X132302455Y-67012452D01*
X132302452Y-67012455D01*
X132216206Y-67127664D01*
X132216202Y-67127671D01*
X132165908Y-67262517D01*
X132159501Y-67322116D01*
X132159501Y-67322123D01*
X132159500Y-67322135D01*
X132159500Y-68317870D01*
X132159501Y-68317876D01*
X132165908Y-68377483D01*
X132216202Y-68512328D01*
X132216206Y-68512335D01*
X132302452Y-68627544D01*
X132302455Y-68627547D01*
X132417664Y-68713793D01*
X132417671Y-68713797D01*
X132552517Y-68764091D01*
X132552516Y-68764091D01*
X132559444Y-68764835D01*
X132612127Y-68770500D01*
X133447684Y-68770499D01*
X133514723Y-68790183D01*
X133545061Y-68817729D01*
X133684433Y-68994511D01*
X133687296Y-68998452D01*
X133920676Y-69347715D01*
X133923209Y-69351848D01*
X134067532Y-69609544D01*
X134128468Y-69718348D01*
X134130679Y-69722687D01*
X134255570Y-69993584D01*
X134265761Y-70062707D01*
X134236964Y-70126366D01*
X134178322Y-70164351D01*
X134142961Y-70169500D01*
X132612129Y-70169500D01*
X132612123Y-70169501D01*
X132552516Y-70175908D01*
X132417671Y-70226202D01*
X132417664Y-70226206D01*
X132302455Y-70312452D01*
X132302452Y-70312455D01*
X132216206Y-70427664D01*
X132216202Y-70427671D01*
X132165908Y-70562517D01*
X132159501Y-70622116D01*
X132159500Y-70622135D01*
X132159500Y-71617870D01*
X132159501Y-71617876D01*
X132165908Y-71677483D01*
X132216202Y-71812328D01*
X132216206Y-71812335D01*
X132302452Y-71927544D01*
X132302455Y-71927547D01*
X132417664Y-72013793D01*
X132417671Y-72013797D01*
X132462618Y-72030561D01*
X132552517Y-72064091D01*
X132612127Y-72070500D01*
X133265500Y-72070499D01*
X133332539Y-72090183D01*
X133378294Y-72142987D01*
X133389500Y-72194499D01*
X133389500Y-73773688D01*
X133369815Y-73840727D01*
X133317011Y-73886482D01*
X133247853Y-73896426D01*
X133184297Y-73867401D01*
X133174270Y-73857671D01*
X133126781Y-73806084D01*
X133126777Y-73806081D01*
X132943634Y-73663535D01*
X132943628Y-73663531D01*
X132739504Y-73553064D01*
X132739495Y-73553061D01*
X132519984Y-73477702D01*
X132329450Y-73445908D01*
X132291049Y-73439500D01*
X132058951Y-73439500D01*
X132020550Y-73445908D01*
X131830015Y-73477702D01*
X131610504Y-73553061D01*
X131610495Y-73553064D01*
X131406371Y-73663531D01*
X131406365Y-73663535D01*
X131223222Y-73806081D01*
X131223218Y-73806085D01*
X131214866Y-73815158D01*
X131154979Y-73851148D01*
X131085141Y-73849047D01*
X131027525Y-73809522D01*
X131007455Y-73774507D01*
X130978797Y-73697671D01*
X130978793Y-73697664D01*
X130892547Y-73582455D01*
X130892544Y-73582452D01*
X130777335Y-73496206D01*
X130777328Y-73496202D01*
X130642482Y-73445908D01*
X130642483Y-73445908D01*
X130582883Y-73439501D01*
X130582881Y-73439500D01*
X130582873Y-73439500D01*
X130582864Y-73439500D01*
X128687129Y-73439500D01*
X128687123Y-73439501D01*
X128627516Y-73445908D01*
X128492671Y-73496202D01*
X128492664Y-73496206D01*
X128377455Y-73582452D01*
X128377452Y-73582455D01*
X128291206Y-73697664D01*
X128291202Y-73697671D01*
X128240908Y-73832517D01*
X128234501Y-73892116D01*
X128234500Y-73892135D01*
X128234500Y-75787870D01*
X128234501Y-75787876D01*
X128240908Y-75847483D01*
X128291202Y-75982328D01*
X128291206Y-75982335D01*
X128377452Y-76097544D01*
X128377455Y-76097547D01*
X128492664Y-76183793D01*
X128492671Y-76183797D01*
X128627517Y-76234091D01*
X128627516Y-76234091D01*
X128634444Y-76234835D01*
X128687127Y-76240500D01*
X130582872Y-76240499D01*
X130642483Y-76234091D01*
X130777331Y-76183796D01*
X130777334Y-76183793D01*
X130785114Y-76179546D01*
X130786776Y-76182590D01*
X130836584Y-76163981D01*
X130904865Y-76178794D01*
X130954298Y-76228171D01*
X130969500Y-76287660D01*
X130969500Y-77057975D01*
X130949815Y-77125014D01*
X130897011Y-77170769D01*
X130858104Y-77181333D01*
X130822201Y-77185001D01*
X130822200Y-77185001D01*
X130655668Y-77240185D01*
X130655663Y-77240187D01*
X130506342Y-77332289D01*
X130382289Y-77456342D01*
X130290187Y-77605663D01*
X130290186Y-77605666D01*
X130235001Y-77772203D01*
X130235001Y-77772204D01*
X130235000Y-77772204D01*
X130224500Y-77874983D01*
X130224500Y-80125001D01*
X130224501Y-80125018D01*
X130235000Y-80227796D01*
X130235001Y-80227799D01*
X130290185Y-80394331D01*
X130290186Y-80394334D01*
X130382288Y-80543656D01*
X130506344Y-80667712D01*
X130655666Y-80759814D01*
X130822203Y-80814999D01*
X130924991Y-80825500D01*
X131750008Y-80825499D01*
X131750016Y-80825498D01*
X131750019Y-80825498D01*
X131806302Y-80819748D01*
X131852797Y-80814999D01*
X131876495Y-80807145D01*
X131946324Y-80804744D01*
X132006366Y-80840475D01*
X132037559Y-80902996D01*
X132039500Y-80924852D01*
X132039500Y-82036799D01*
X132039524Y-82037647D01*
X132039524Y-82203684D01*
X132072775Y-82626208D01*
X132081548Y-82681603D01*
X132072593Y-82750896D01*
X132027597Y-82804348D01*
X131960845Y-82824987D01*
X131959075Y-82825000D01*
X131300000Y-82825000D01*
X131300000Y-85825000D01*
X132097828Y-85825000D01*
X132097844Y-85824999D01*
X132157372Y-85818598D01*
X132157379Y-85818596D01*
X132292086Y-85768354D01*
X132292093Y-85768350D01*
X132407187Y-85682190D01*
X132407190Y-85682187D01*
X132493350Y-85567093D01*
X132493354Y-85567086D01*
X132543596Y-85432379D01*
X132543598Y-85432372D01*
X132549999Y-85372844D01*
X132550000Y-85372827D01*
X132550000Y-84785636D01*
X132569685Y-84718597D01*
X132622489Y-84672842D01*
X132691647Y-84662898D01*
X132755203Y-84691923D01*
X132779727Y-84720847D01*
X132781230Y-84723298D01*
X132799500Y-84788084D01*
X132799500Y-86172870D01*
X132799501Y-86172876D01*
X132805908Y-86232483D01*
X132856202Y-86367328D01*
X132856206Y-86367335D01*
X132942452Y-86482544D01*
X132942455Y-86482547D01*
X133057664Y-86568793D01*
X133057671Y-86568797D01*
X133192517Y-86619091D01*
X133192516Y-86619091D01*
X133199444Y-86619835D01*
X133252127Y-86625500D01*
X134595500Y-86625499D01*
X134662539Y-86645184D01*
X134708294Y-86697987D01*
X134719500Y-86749499D01*
X134719500Y-87425500D01*
X134699815Y-87492539D01*
X134647011Y-87538294D01*
X134595500Y-87549500D01*
X133777129Y-87549500D01*
X133777123Y-87549501D01*
X133717516Y-87555908D01*
X133582671Y-87606202D01*
X133582664Y-87606206D01*
X133467455Y-87692452D01*
X133467452Y-87692455D01*
X133381206Y-87807664D01*
X133381203Y-87807669D01*
X133332189Y-87939083D01*
X133290317Y-87995016D01*
X133224853Y-88019433D01*
X133156580Y-88004581D01*
X133128326Y-87983430D01*
X133006402Y-87861506D01*
X133006395Y-87861501D01*
X132812834Y-87725967D01*
X132812830Y-87725965D01*
X132812828Y-87725964D01*
X132598663Y-87626097D01*
X132598659Y-87626096D01*
X132598655Y-87626094D01*
X132370413Y-87564938D01*
X132370403Y-87564936D01*
X132135001Y-87544341D01*
X132134999Y-87544341D01*
X131899596Y-87564936D01*
X131899586Y-87564938D01*
X131671344Y-87626094D01*
X131671335Y-87626098D01*
X131457171Y-87725964D01*
X131457169Y-87725965D01*
X131263597Y-87861505D01*
X131096508Y-88028594D01*
X130966269Y-88214595D01*
X130911692Y-88258219D01*
X130842193Y-88265412D01*
X130779839Y-88233890D01*
X130763119Y-88214594D01*
X130633113Y-88028926D01*
X130633108Y-88028920D01*
X130466082Y-87861894D01*
X130272578Y-87726399D01*
X130058492Y-87626570D01*
X130058486Y-87626567D01*
X129845000Y-87569364D01*
X129845000Y-88464498D01*
X129737315Y-88415320D01*
X129630763Y-88400000D01*
X129559237Y-88400000D01*
X129452685Y-88415320D01*
X129345000Y-88464498D01*
X129345000Y-87569364D01*
X129344999Y-87569364D01*
X129131513Y-87626567D01*
X129131502Y-87626571D01*
X129025197Y-87676142D01*
X128956119Y-87686634D01*
X128892336Y-87658114D01*
X128854097Y-87599637D01*
X128853543Y-87529769D01*
X128858228Y-87516317D01*
X128934962Y-87331064D01*
X128996115Y-87142851D01*
X129076299Y-86896066D01*
X129076299Y-86896065D01*
X129141254Y-86625500D01*
X129183071Y-86451317D01*
X129196374Y-86367328D01*
X129254621Y-85999555D01*
X129290505Y-85543591D01*
X129290505Y-85236016D01*
X129290506Y-85144454D01*
X129290505Y-85144445D01*
X129290505Y-85143338D01*
X129290465Y-85141941D01*
X129290469Y-85075117D01*
X129265158Y-84850390D01*
X129214845Y-84629910D01*
X129195634Y-84575000D01*
X129550000Y-84575000D01*
X129550000Y-85372844D01*
X129556401Y-85432372D01*
X129556403Y-85432379D01*
X129606645Y-85567086D01*
X129606649Y-85567093D01*
X129692809Y-85682187D01*
X129692812Y-85682190D01*
X129807906Y-85768350D01*
X129807913Y-85768354D01*
X129942620Y-85818596D01*
X129942627Y-85818598D01*
X130002155Y-85824999D01*
X130002172Y-85825000D01*
X130800000Y-85825000D01*
X130800000Y-84575000D01*
X129550000Y-84575000D01*
X129195634Y-84575000D01*
X129140163Y-84416450D01*
X129042050Y-84212693D01*
X128955540Y-84075000D01*
X129550000Y-84075000D01*
X130800000Y-84075000D01*
X130800000Y-82825000D01*
X130002155Y-82825000D01*
X129942627Y-82831401D01*
X129942620Y-82831403D01*
X129807913Y-82881645D01*
X129807906Y-82881649D01*
X129692812Y-82967809D01*
X129692809Y-82967812D01*
X129606649Y-83082906D01*
X129606645Y-83082913D01*
X129556403Y-83217620D01*
X129556401Y-83217627D01*
X129550000Y-83277155D01*
X129550000Y-84075000D01*
X128955540Y-84075000D01*
X128921741Y-84021203D01*
X128844630Y-83924500D01*
X128780747Y-83844385D01*
X128771779Y-83835417D01*
X128764892Y-83828530D01*
X128764851Y-83828483D01*
X128689641Y-83753273D01*
X128642859Y-83706487D01*
X128642818Y-83706450D01*
X128586818Y-83650450D01*
X128553333Y-83589127D01*
X128550499Y-83562769D01*
X128550499Y-82477129D01*
X128550498Y-82477123D01*
X128544091Y-82417516D01*
X128493797Y-82282671D01*
X128493793Y-82282664D01*
X128407547Y-82167455D01*
X128407544Y-82167452D01*
X128292335Y-82081206D01*
X128292328Y-82081202D01*
X128157482Y-82030908D01*
X128157483Y-82030908D01*
X128097883Y-82024501D01*
X128097881Y-82024500D01*
X128097873Y-82024500D01*
X128097865Y-82024500D01*
X127584500Y-82024500D01*
X127517461Y-82004815D01*
X127471706Y-81952011D01*
X127460500Y-81900500D01*
X127460500Y-80788209D01*
X127480185Y-80721170D01*
X127519402Y-80682671D01*
X127543656Y-80667712D01*
X127667712Y-80543656D01*
X127759814Y-80394334D01*
X127814999Y-80227797D01*
X127825500Y-80125009D01*
X127825499Y-77874992D01*
X127814999Y-77772203D01*
X127759814Y-77605666D01*
X127667712Y-77456344D01*
X127543656Y-77332288D01*
X127394334Y-77240186D01*
X127227797Y-77185001D01*
X127227795Y-77185000D01*
X127125010Y-77174500D01*
X126299998Y-77174500D01*
X126299980Y-77174501D01*
X126197203Y-77185000D01*
X126197200Y-77185001D01*
X126071489Y-77226658D01*
X126038503Y-77237589D01*
X125968676Y-77239991D01*
X125908634Y-77204259D01*
X125877441Y-77141739D01*
X125875500Y-77119883D01*
X125875500Y-71370000D01*
X127260000Y-71370000D01*
X127260000Y-71617844D01*
X127266401Y-71677372D01*
X127266403Y-71677379D01*
X127316645Y-71812086D01*
X127316649Y-71812093D01*
X127402809Y-71927187D01*
X127402812Y-71927190D01*
X127517906Y-72013350D01*
X127517913Y-72013354D01*
X127652620Y-72063596D01*
X127652627Y-72063598D01*
X127712155Y-72069999D01*
X127712172Y-72070000D01*
X128260000Y-72070000D01*
X128260000Y-71370000D01*
X128760000Y-71370000D01*
X128760000Y-72070000D01*
X129307828Y-72070000D01*
X129307844Y-72069999D01*
X129367372Y-72063598D01*
X129367379Y-72063596D01*
X129502086Y-72013354D01*
X129502093Y-72013350D01*
X129617187Y-71927190D01*
X129617190Y-71927187D01*
X129703350Y-71812093D01*
X129703354Y-71812086D01*
X129753596Y-71677379D01*
X129753598Y-71677372D01*
X129759999Y-71617844D01*
X129760000Y-71617827D01*
X129760000Y-71370000D01*
X128760000Y-71370000D01*
X128260000Y-71370000D01*
X127260000Y-71370000D01*
X125875500Y-71370000D01*
X125875500Y-70870000D01*
X127260000Y-70870000D01*
X128260000Y-70870000D01*
X128260000Y-70170000D01*
X128760000Y-70170000D01*
X128760000Y-70870000D01*
X129760000Y-70870000D01*
X129760000Y-70622172D01*
X129759999Y-70622155D01*
X129753598Y-70562627D01*
X129753596Y-70562620D01*
X129703354Y-70427913D01*
X129703350Y-70427906D01*
X129617190Y-70312812D01*
X129617187Y-70312809D01*
X129502093Y-70226649D01*
X129502086Y-70226645D01*
X129367379Y-70176403D01*
X129367372Y-70176401D01*
X129307844Y-70170000D01*
X128760000Y-70170000D01*
X128260000Y-70170000D01*
X127712155Y-70170000D01*
X127652627Y-70176401D01*
X127652620Y-70176403D01*
X127517913Y-70226645D01*
X127517906Y-70226649D01*
X127402812Y-70312809D01*
X127402809Y-70312812D01*
X127316649Y-70427906D01*
X127316645Y-70427913D01*
X127266403Y-70562620D01*
X127266401Y-70562627D01*
X127260000Y-70622155D01*
X127260000Y-70870000D01*
X125875500Y-70870000D01*
X125875500Y-68317870D01*
X127259500Y-68317870D01*
X127259501Y-68317876D01*
X127265908Y-68377483D01*
X127316202Y-68512328D01*
X127316206Y-68512335D01*
X127402452Y-68627544D01*
X127402455Y-68627547D01*
X127517664Y-68713793D01*
X127517671Y-68713797D01*
X127652517Y-68764091D01*
X127652516Y-68764091D01*
X127659444Y-68764835D01*
X127712127Y-68770500D01*
X129307872Y-68770499D01*
X129367483Y-68764091D01*
X129502331Y-68713796D01*
X129617546Y-68627546D01*
X129703796Y-68512331D01*
X129754091Y-68377483D01*
X129760500Y-68317873D01*
X129760499Y-67322128D01*
X129754091Y-67262517D01*
X129703796Y-67127669D01*
X129703795Y-67127668D01*
X129703793Y-67127664D01*
X129617547Y-67012455D01*
X129617544Y-67012452D01*
X129502335Y-66926206D01*
X129502328Y-66926202D01*
X129367482Y-66875908D01*
X129367483Y-66875908D01*
X129307883Y-66869501D01*
X129307881Y-66869500D01*
X129307873Y-66869500D01*
X129307864Y-66869500D01*
X127712129Y-66869500D01*
X127712123Y-66869501D01*
X127652516Y-66875908D01*
X127517671Y-66926202D01*
X127517664Y-66926206D01*
X127402455Y-67012452D01*
X127402452Y-67012455D01*
X127316206Y-67127664D01*
X127316202Y-67127671D01*
X127265908Y-67262517D01*
X127259501Y-67322116D01*
X127259501Y-67322123D01*
X127259500Y-67322135D01*
X127259500Y-68317870D01*
X125875500Y-68317870D01*
X125875500Y-64987870D01*
X128254500Y-64987870D01*
X128254501Y-64987876D01*
X128260908Y-65047483D01*
X128311202Y-65182328D01*
X128311206Y-65182335D01*
X128397452Y-65297544D01*
X128397455Y-65297547D01*
X128512664Y-65383793D01*
X128512671Y-65383797D01*
X128647517Y-65434091D01*
X128647516Y-65434091D01*
X128654444Y-65434835D01*
X128707127Y-65440500D01*
X130602872Y-65440499D01*
X130662483Y-65434091D01*
X130797331Y-65383796D01*
X130912546Y-65297546D01*
X130998796Y-65182331D01*
X131027455Y-65105493D01*
X131069326Y-65049559D01*
X131134790Y-65025141D01*
X131203063Y-65039992D01*
X131234866Y-65064843D01*
X131242302Y-65072920D01*
X131243215Y-65073912D01*
X131243222Y-65073918D01*
X131426365Y-65216464D01*
X131426371Y-65216468D01*
X131426374Y-65216470D01*
X131630497Y-65326936D01*
X131744487Y-65366068D01*
X131850015Y-65402297D01*
X131850017Y-65402297D01*
X131850019Y-65402298D01*
X132078951Y-65440500D01*
X132078952Y-65440500D01*
X132311048Y-65440500D01*
X132311049Y-65440500D01*
X132539981Y-65402298D01*
X132759503Y-65326936D01*
X132963626Y-65216470D01*
X133146784Y-65073913D01*
X133303979Y-64903153D01*
X133430924Y-64708849D01*
X133524157Y-64496300D01*
X133581134Y-64271305D01*
X133600300Y-64040000D01*
X133600300Y-64039993D01*
X133581135Y-63808702D01*
X133581133Y-63808691D01*
X133524157Y-63583699D01*
X133430924Y-63371151D01*
X133303983Y-63176852D01*
X133303980Y-63176849D01*
X133303979Y-63176847D01*
X133146784Y-63006087D01*
X133146779Y-63006083D01*
X133146777Y-63006081D01*
X132963634Y-62863535D01*
X132963628Y-62863531D01*
X132759504Y-62753064D01*
X132759495Y-62753061D01*
X132539984Y-62677702D01*
X132349450Y-62645908D01*
X132311049Y-62639500D01*
X132078951Y-62639500D01*
X132040550Y-62645908D01*
X131850015Y-62677702D01*
X131630504Y-62753061D01*
X131630495Y-62753064D01*
X131426371Y-62863531D01*
X131426365Y-62863535D01*
X131243222Y-63006081D01*
X131243218Y-63006085D01*
X131234866Y-63015158D01*
X131174979Y-63051148D01*
X131105141Y-63049047D01*
X131047525Y-63009522D01*
X131027455Y-62974507D01*
X130998797Y-62897671D01*
X130998793Y-62897664D01*
X130912547Y-62782455D01*
X130912544Y-62782452D01*
X130797335Y-62696206D01*
X130797328Y-62696202D01*
X130662482Y-62645908D01*
X130662483Y-62645908D01*
X130602883Y-62639501D01*
X130602881Y-62639500D01*
X130602873Y-62639500D01*
X130602864Y-62639500D01*
X128707129Y-62639500D01*
X128707123Y-62639501D01*
X128647516Y-62645908D01*
X128512671Y-62696202D01*
X128512664Y-62696206D01*
X128397455Y-62782452D01*
X128397452Y-62782455D01*
X128311206Y-62897664D01*
X128311202Y-62897671D01*
X128260908Y-63032517D01*
X128254501Y-63092116D01*
X128254500Y-63092135D01*
X128254500Y-64987870D01*
X125875500Y-64987870D01*
X125875500Y-62767774D01*
X125875635Y-62763691D01*
X125876856Y-62745168D01*
X125879442Y-62705991D01*
X125895266Y-62493208D01*
X125896298Y-62485666D01*
X125918145Y-62376620D01*
X125953919Y-62218453D01*
X125955728Y-62212068D01*
X125995147Y-62096811D01*
X125997211Y-62091499D01*
X126050518Y-61954361D01*
X126052759Y-61949290D01*
X126108027Y-61838121D01*
X126109659Y-61835062D01*
X126183360Y-61706054D01*
X126185717Y-61702264D01*
X126255661Y-61598518D01*
X126258313Y-61594883D01*
X126350272Y-61478174D01*
X126352458Y-61475560D01*
X126434799Y-61382622D01*
X126438672Y-61378631D01*
X126549945Y-61273891D01*
X126642022Y-61194112D01*
X126647222Y-61190073D01*
X126780480Y-61097560D01*
X126790267Y-61091118D01*
X126873342Y-61036435D01*
X126879958Y-61032644D01*
X127073634Y-60937035D01*
X127122923Y-60913206D01*
X127126765Y-60911508D01*
X127170802Y-60893803D01*
X127172129Y-60893099D01*
X127247550Y-60862550D01*
X127247548Y-60862550D01*
X127247560Y-60862546D01*
X127477231Y-60732198D01*
X127687777Y-60572792D01*
X127875544Y-60387096D01*
X128037274Y-60178330D01*
X128170161Y-59950118D01*
X128271898Y-59706420D01*
X128340722Y-59451463D01*
X128375437Y-59189672D01*
X128375500Y-59057631D01*
X128375500Y-59057131D01*
X128375500Y-58767607D01*
X128375557Y-58765734D01*
X129369357Y-58765734D01*
X129372786Y-58807119D01*
X129377029Y-58858319D01*
X129377350Y-58862186D01*
X129377562Y-58867309D01*
X129377562Y-58889811D01*
X129381265Y-58912012D01*
X129381899Y-58917095D01*
X129389891Y-59013546D01*
X129389891Y-59013548D01*
X129413654Y-59107387D01*
X129414705Y-59112402D01*
X129418407Y-59134584D01*
X129418409Y-59134592D01*
X129425714Y-59155871D01*
X129427176Y-59160783D01*
X129450935Y-59254604D01*
X129450939Y-59254617D01*
X129489815Y-59343245D01*
X129491677Y-59348016D01*
X129498986Y-59369306D01*
X129498988Y-59369309D01*
X129509698Y-59389101D01*
X129511948Y-59393705D01*
X129550827Y-59482338D01*
X129603764Y-59563364D01*
X129606388Y-59567768D01*
X129617095Y-59587553D01*
X129617098Y-59587558D01*
X129630926Y-59605325D01*
X129633903Y-59609495D01*
X129686834Y-59690512D01*
X129686838Y-59690517D01*
X129752393Y-59761730D01*
X129755706Y-59765641D01*
X129769522Y-59783392D01*
X129786080Y-59798635D01*
X129789694Y-59802249D01*
X129855256Y-59873468D01*
X129931651Y-59932929D01*
X129935547Y-59936229D01*
X129941913Y-59942090D01*
X129952099Y-59951467D01*
X129970936Y-59963774D01*
X129975102Y-59966748D01*
X130051491Y-60026204D01*
X130136640Y-60072284D01*
X130141001Y-60074883D01*
X130159855Y-60087201D01*
X130180494Y-60096254D01*
X130185033Y-60098473D01*
X130270190Y-60144558D01*
X130361754Y-60175992D01*
X130366489Y-60177839D01*
X130387116Y-60186887D01*
X130408932Y-60192411D01*
X130413816Y-60193865D01*
X130485089Y-60218333D01*
X130505385Y-60225301D01*
X130539189Y-60230941D01*
X130600866Y-60241233D01*
X130605879Y-60242285D01*
X130627676Y-60247805D01*
X130627678Y-60247805D01*
X130627685Y-60247807D01*
X130650125Y-60249666D01*
X130655169Y-60250294D01*
X130750665Y-60266230D01*
X130750666Y-60266230D01*
X130847448Y-60266230D01*
X130852561Y-60266441D01*
X130868415Y-60267755D01*
X130874998Y-60268301D01*
X130875000Y-60268301D01*
X130875002Y-60268301D01*
X130881584Y-60267755D01*
X130897438Y-60266441D01*
X130902552Y-60266230D01*
X130999330Y-60266230D01*
X130999335Y-60266230D01*
X131094851Y-60250291D01*
X131099862Y-60249667D01*
X131122315Y-60247807D01*
X131144153Y-60242276D01*
X131149105Y-60241238D01*
X131244614Y-60225301D01*
X131336198Y-60193859D01*
X131341042Y-60192418D01*
X131362884Y-60186887D01*
X131383500Y-60177843D01*
X131388234Y-60175995D01*
X131479810Y-60144558D01*
X131564975Y-60098468D01*
X131569505Y-60096254D01*
X131590145Y-60087201D01*
X131609008Y-60074876D01*
X131613337Y-60072296D01*
X131698509Y-60026204D01*
X131774931Y-59966722D01*
X131779018Y-59963803D01*
X131797898Y-59951469D01*
X131814466Y-59936217D01*
X131818341Y-59932934D01*
X131894744Y-59873468D01*
X131960313Y-59802240D01*
X131963897Y-59798655D01*
X131980477Y-59783393D01*
X131994320Y-59765606D01*
X131997581Y-59761756D01*
X132063164Y-59690515D01*
X132116127Y-59609448D01*
X132119053Y-59605350D01*
X132132902Y-59587558D01*
X132143623Y-59567746D01*
X132146233Y-59563366D01*
X132199173Y-59482337D01*
X132238061Y-59393680D01*
X132240299Y-59389105D01*
X132240301Y-59389101D01*
X132251014Y-59369306D01*
X132258336Y-59347976D01*
X132260162Y-59343294D01*
X132299063Y-59254611D01*
X132322826Y-59160771D01*
X132324278Y-59155892D01*
X132331592Y-59134589D01*
X132335296Y-59112388D01*
X132336340Y-59107407D01*
X132360108Y-59013551D01*
X132368104Y-58917051D01*
X132368733Y-58912012D01*
X132372438Y-58889811D01*
X132373088Y-58858319D01*
X132373283Y-58854542D01*
X132379822Y-58775632D01*
X132380643Y-58765732D01*
X132380643Y-58765727D01*
X132379339Y-58749998D01*
X132373284Y-58676920D01*
X132373088Y-58673137D01*
X132372438Y-58641649D01*
X132368733Y-58619444D01*
X132368103Y-58614396D01*
X132360108Y-58517909D01*
X132336341Y-58424057D01*
X132335295Y-58419064D01*
X132331592Y-58396873D01*
X132331591Y-58396870D01*
X132324283Y-58375580D01*
X132322825Y-58370682D01*
X132302376Y-58289933D01*
X132299063Y-58276849D01*
X132260174Y-58188191D01*
X132258329Y-58183464D01*
X132251014Y-58162154D01*
X132245045Y-58151126D01*
X132240298Y-58142352D01*
X132238052Y-58137759D01*
X132199173Y-58049123D01*
X132199173Y-58049122D01*
X132146231Y-57968088D01*
X132143607Y-57963684D01*
X132132904Y-57943907D01*
X132132902Y-57943902D01*
X132119080Y-57926143D01*
X132116102Y-57921972D01*
X132063166Y-57840948D01*
X132063165Y-57840947D01*
X132063164Y-57840945D01*
X132033241Y-57808440D01*
X131997606Y-57769729D01*
X131994295Y-57765820D01*
X131980477Y-57748067D01*
X131980473Y-57748062D01*
X131963919Y-57732823D01*
X131960301Y-57729206D01*
X131894744Y-57657992D01*
X131818352Y-57598534D01*
X131814444Y-57595223D01*
X131797898Y-57579991D01*
X131779063Y-57567685D01*
X131774897Y-57564711D01*
X131698509Y-57505256D01*
X131698508Y-57505255D01*
X131698505Y-57505253D01*
X131698503Y-57505252D01*
X131613385Y-57459189D01*
X131608981Y-57456565D01*
X131590145Y-57444259D01*
X131569547Y-57435224D01*
X131564940Y-57432972D01*
X131479811Y-57386902D01*
X131479802Y-57386899D01*
X131388259Y-57355472D01*
X131383484Y-57353609D01*
X131383312Y-57353533D01*
X131362884Y-57344573D01*
X131362880Y-57344572D01*
X131362878Y-57344571D01*
X131341076Y-57339049D01*
X131336166Y-57337588D01*
X131244614Y-57306159D01*
X131149138Y-57290226D01*
X131144123Y-57289174D01*
X131122312Y-57283652D01*
X131122316Y-57283652D01*
X131099895Y-57281795D01*
X131094810Y-57281161D01*
X130999336Y-57265230D01*
X130999335Y-57265230D01*
X130902541Y-57265230D01*
X130897427Y-57265018D01*
X130881555Y-57263703D01*
X130875002Y-57263160D01*
X130874998Y-57263160D01*
X130868444Y-57263703D01*
X130852572Y-57265018D01*
X130847459Y-57265230D01*
X130750665Y-57265230D01*
X130655188Y-57281161D01*
X130650103Y-57281795D01*
X130627688Y-57283652D01*
X130627683Y-57283653D01*
X130605880Y-57289174D01*
X130600866Y-57290225D01*
X130505382Y-57306159D01*
X130413834Y-57337586D01*
X130408927Y-57339047D01*
X130387126Y-57344569D01*
X130387116Y-57344573D01*
X130366510Y-57353611D01*
X130361738Y-57355472D01*
X130270194Y-57386900D01*
X130270183Y-57386905D01*
X130185062Y-57432970D01*
X130180458Y-57435221D01*
X130159854Y-57444259D01*
X130159845Y-57444264D01*
X130141023Y-57456561D01*
X130136621Y-57459185D01*
X130051492Y-57505254D01*
X130051489Y-57505257D01*
X129975106Y-57564707D01*
X129970938Y-57567684D01*
X129952099Y-57579993D01*
X129935542Y-57595233D01*
X129931635Y-57598542D01*
X129855255Y-57657992D01*
X129789697Y-57729206D01*
X129786075Y-57732828D01*
X129769529Y-57748060D01*
X129769514Y-57748076D01*
X129755699Y-57765824D01*
X129752390Y-57769731D01*
X129686836Y-57840945D01*
X129633901Y-57921966D01*
X129630925Y-57926134D01*
X129617099Y-57943900D01*
X129617094Y-57943907D01*
X129606386Y-57963694D01*
X129603763Y-57968095D01*
X129550828Y-58049120D01*
X129511953Y-58137745D01*
X129509704Y-58142345D01*
X129498985Y-58162154D01*
X129491676Y-58183444D01*
X129489814Y-58188217D01*
X129463724Y-58247697D01*
X129450939Y-58276846D01*
X129450936Y-58276852D01*
X129427177Y-58370672D01*
X129425716Y-58375580D01*
X129418408Y-58396870D01*
X129414705Y-58419057D01*
X129413654Y-58424072D01*
X129389891Y-58517908D01*
X129389891Y-58517912D01*
X129381898Y-58614364D01*
X129381265Y-58619444D01*
X129377562Y-58641649D01*
X129377562Y-58664149D01*
X129377350Y-58669265D01*
X129376713Y-58676958D01*
X129369357Y-58765724D01*
X129369357Y-58765734D01*
X128375557Y-58765734D01*
X128375613Y-58763863D01*
X128383005Y-58641649D01*
X128387974Y-58559507D01*
X128390591Y-58517908D01*
X128393845Y-58466185D01*
X128394735Y-58458931D01*
X128425736Y-58289761D01*
X128449841Y-58163405D01*
X128451541Y-58156616D01*
X128500665Y-57998970D01*
X128542614Y-57869868D01*
X128545031Y-57863609D01*
X128611619Y-57715656D01*
X128670766Y-57589964D01*
X128673763Y-57584369D01*
X128756948Y-57446763D01*
X128832317Y-57328002D01*
X128835824Y-57323039D01*
X128934427Y-57197181D01*
X129024814Y-57087922D01*
X129028707Y-57083644D01*
X129141401Y-56970950D01*
X129245339Y-56873347D01*
X129249514Y-56869764D01*
X129374695Y-56771692D01*
X129490528Y-56687534D01*
X129494861Y-56684658D01*
X129630800Y-56602480D01*
X129756696Y-56533269D01*
X129761033Y-56531105D01*
X129904580Y-56466500D01*
X129907081Y-56465443D01*
X130039750Y-56412916D01*
X130044017Y-56411408D01*
X130194152Y-56364624D01*
X130197062Y-56363798D01*
X130335379Y-56328284D01*
X130339595Y-56327359D01*
X130494049Y-56299054D01*
X130497429Y-56298530D01*
X130639195Y-56280621D01*
X130643096Y-56280257D01*
X130795410Y-56271044D01*
X130799846Y-56270776D01*
X130803589Y-56270663D01*
X130946411Y-56270663D01*
X130950154Y-56270776D01*
G37*
%TD.AperFunction*%
%TA.AperFunction,Conductor*%
G36*
X134668920Y-76111297D02*
G01*
X134711290Y-76166854D01*
X134719500Y-76211225D01*
X134719500Y-83800500D01*
X134699815Y-83867539D01*
X134647011Y-83913294D01*
X134595500Y-83924500D01*
X134130203Y-83924500D01*
X134063164Y-83904815D01*
X134020214Y-83857757D01*
X133990408Y-83800500D01*
X133906485Y-83639287D01*
X133904203Y-83634392D01*
X133776317Y-83325653D01*
X133774466Y-83320567D01*
X133673976Y-83001856D01*
X133672578Y-82996642D01*
X133600244Y-82670364D01*
X133599309Y-82665063D01*
X133555687Y-82333714D01*
X133555218Y-82328357D01*
X133541954Y-82024500D01*
X133540500Y-81991192D01*
X133540501Y-81912892D01*
X133540500Y-81912887D01*
X133540500Y-77901002D01*
X133540501Y-77900998D01*
X133540500Y-77824554D01*
X133540691Y-77819689D01*
X133544427Y-77772204D01*
X133555523Y-77631192D01*
X133558564Y-77611989D01*
X133600992Y-77435254D01*
X133607000Y-77416762D01*
X133676556Y-77248834D01*
X133685383Y-77231508D01*
X133780352Y-77076531D01*
X133791783Y-77060799D01*
X133914023Y-76917670D01*
X133917329Y-76914094D01*
X133921615Y-76909807D01*
X134031762Y-76799657D01*
X134239108Y-76546996D01*
X134420691Y-76275228D01*
X134486141Y-76152773D01*
X134535102Y-76102929D01*
X134603239Y-76087467D01*
X134668920Y-76111297D01*
G37*
%TD.AperFunction*%
%TD*%
M02*
