%TF.GenerationSoftware,KiCad,Pcbnew,7.0.9*%
%TF.CreationDate,2025-01-15T18:40:25+09:00*%
%TF.ProjectId,line_short_robt2,6c696e65-5f73-4686-9f72-745f726f6274,rev?*%
%TF.SameCoordinates,Original*%
%TF.FileFunction,Legend,Top*%
%TF.FilePolarity,Positive*%
%FSLAX46Y46*%
G04 Gerber Fmt 4.6, Leading zero omitted, Abs format (unit mm)*
G04 Created by KiCad (PCBNEW 7.0.9) date 2025-01-15 18:40:25*
%MOMM*%
%LPD*%
G01*
G04 APERTURE LIST*
%ADD10C,0.150000*%
%ADD11C,0.120000*%
G04 APERTURE END LIST*
D10*
X136399819Y-93618333D02*
X137114104Y-93618333D01*
X137114104Y-93618333D02*
X137256961Y-93665952D01*
X137256961Y-93665952D02*
X137352200Y-93761190D01*
X137352200Y-93761190D02*
X137399819Y-93904047D01*
X137399819Y-93904047D02*
X137399819Y-93999285D01*
X137399819Y-92618333D02*
X137399819Y-93189761D01*
X137399819Y-92904047D02*
X136399819Y-92904047D01*
X136399819Y-92904047D02*
X136542676Y-92999285D01*
X136542676Y-92999285D02*
X136637914Y-93094523D01*
X136637914Y-93094523D02*
X136685533Y-93189761D01*
D11*
%TO.C,Q1*%
X129365000Y-62804000D02*
X129365000Y-62960000D01*
X129365000Y-65120000D02*
X129365000Y-65276000D01*
X132597334Y-62961392D02*
G75*
G03*
X129365001Y-62804485I-1672334J-1078608D01*
G01*
X131966129Y-62960164D02*
G75*
G03*
X129884040Y-62960001I-1041129J-1079836D01*
G01*
X129884040Y-65119999D02*
G75*
G03*
X131966129Y-65119836I1040960J1079999D01*
G01*
X129365001Y-65275515D02*
G75*
G03*
X132597334Y-65118608I1559999J1235515D01*
G01*
%TO.C,D1*%
X127310000Y-66720000D02*
X134610000Y-66720000D01*
X127310000Y-72220000D02*
X134610000Y-72220000D01*
X134610000Y-72220000D02*
X134610000Y-71070000D01*
%TO.C,Q2*%
X129345000Y-73604000D02*
X129345000Y-73760000D01*
X129345000Y-75920000D02*
X129345000Y-76076000D01*
X132577334Y-73761392D02*
G75*
G03*
X129345001Y-73604485I-1672334J-1078608D01*
G01*
X131946129Y-73760164D02*
G75*
G03*
X129864040Y-73760001I-1041129J-1079836D01*
G01*
X129864040Y-75919999D02*
G75*
G03*
X131946129Y-75919836I1040960J1079999D01*
G01*
X129345001Y-76075515D02*
G75*
G03*
X132577334Y-75918608I1559999J1235515D01*
G01*
%TO.C,J1*%
X135945000Y-87630000D02*
X135945000Y-88900000D01*
X134675000Y-87630000D02*
X135945000Y-87630000D01*
X132515000Y-89942929D02*
X132515000Y-90340000D01*
X131755000Y-89942929D02*
X131755000Y-90340000D01*
X129975000Y-89942929D02*
X129975000Y-90340000D01*
X129215000Y-89942929D02*
X129215000Y-90340000D01*
X127435000Y-89942929D02*
X127435000Y-90340000D01*
X126675000Y-89942929D02*
X126675000Y-90340000D01*
X135055000Y-90010000D02*
X135055000Y-90340000D01*
X134295000Y-90010000D02*
X134295000Y-90340000D01*
X136005000Y-90340000D02*
X125725000Y-90340000D01*
X133405000Y-90340000D02*
X133405000Y-93000000D01*
X130865000Y-90340000D02*
X130865000Y-93000000D01*
X128325000Y-90340000D02*
X128325000Y-93000000D01*
X125725000Y-90340000D02*
X125725000Y-93000000D01*
X136005000Y-93000000D02*
X136005000Y-90340000D01*
X135055000Y-93000000D02*
X135055000Y-99000000D01*
X134995000Y-93000000D02*
X134995000Y-99000000D01*
X134875000Y-93000000D02*
X134875000Y-99000000D01*
X134755000Y-93000000D02*
X134755000Y-99000000D01*
X134635000Y-93000000D02*
X134635000Y-99000000D01*
X134515000Y-93000000D02*
X134515000Y-99000000D01*
X134395000Y-93000000D02*
X134395000Y-99000000D01*
X132515000Y-93000000D02*
X132515000Y-99000000D01*
X129975000Y-93000000D02*
X129975000Y-99000000D01*
X127435000Y-93000000D02*
X127435000Y-99000000D01*
X125725000Y-93000000D02*
X136005000Y-93000000D01*
X135055000Y-99000000D02*
X134295000Y-99000000D01*
X134295000Y-99000000D02*
X134295000Y-93000000D01*
X132515000Y-99000000D02*
X131755000Y-99000000D01*
X131755000Y-99000000D02*
X131755000Y-93000000D01*
X129975000Y-99000000D02*
X129215000Y-99000000D01*
X129215000Y-99000000D02*
X129215000Y-93000000D01*
X127435000Y-99000000D02*
X126675000Y-99000000D01*
X126675000Y-99000000D02*
X126675000Y-93000000D01*
%TO.C,R1*%
X127497936Y-77640000D02*
X130552064Y-77640000D01*
X127497936Y-80360000D02*
X130552064Y-80360000D01*
%TO.C,J2*%
X132820000Y-83945000D02*
X134150000Y-83945000D01*
X132820000Y-85275000D02*
X132820000Y-83945000D01*
X132820000Y-86545000D02*
X132820000Y-86605000D01*
X132820000Y-86545000D02*
X135480000Y-86545000D01*
X132820000Y-86605000D02*
X135480000Y-86605000D01*
X135480000Y-86545000D02*
X135480000Y-86605000D01*
%TO.C,RV1*%
X131670000Y-86945000D02*
X131670000Y-85565000D01*
X131670000Y-86945000D02*
X126430000Y-86945000D01*
X131670000Y-83085000D02*
X131670000Y-81705000D01*
X131670000Y-81705000D02*
X126430000Y-81705000D01*
X126430000Y-86945000D02*
X126430000Y-86364000D01*
X126430000Y-84585000D02*
X126430000Y-84065000D01*
X126430000Y-82285000D02*
X126430000Y-81705000D01*
%TD*%
M02*
