%TF.GenerationSoftware,KiCad,Pcbnew,7.0.9*%
%TF.CreationDate,2025-05-05T21:09:02+09:00*%
%TF.ProjectId,LINE_Main,4c494e45-5f4d-4616-996e-2e6b69636164,rev?*%
%TF.SameCoordinates,Original*%
%TF.FileFunction,Profile,NP*%
%FSLAX46Y46*%
G04 Gerber Fmt 4.6, Leading zero omitted, Abs format (unit mm)*
G04 Created by KiCad (PCBNEW 7.0.9) date 2025-05-05 21:09:02*
%MOMM*%
%LPD*%
G01*
G04 APERTURE LIST*
%TA.AperFunction,Profile*%
%ADD10C,0.200000*%
%TD*%
G04 APERTURE END LIST*
D10*
X217570193Y-88297290D02*
G75*
G03*
X218947655Y-86647123I7J1399990D01*
G01*
X220683780Y-130984416D02*
G75*
G03*
X220868463Y-135024758I2306020J-1918984D01*
G01*
X217615520Y-138842536D02*
G75*
G03*
X221173476Y-135329771I1790180J1745036D01*
G01*
X139987163Y-138375648D02*
G75*
G03*
X213296328Y-138372560I36652727J44043928D01*
G01*
X213292617Y-50287792D02*
G75*
G03*
X139983452Y-50290880I-36652727J-44043928D01*
G01*
X139987187Y-138375619D02*
G75*
G03*
X135946852Y-138560293I-1918987J-2305981D01*
G01*
X142382044Y-69331704D02*
G75*
G03*
X141229135Y-69937489I-44J-1399896D01*
G01*
X217570193Y-88297319D02*
X217039891Y-88297319D01*
X221055708Y-51565901D02*
G75*
G03*
X221055708Y-51565901I-1650000J0D01*
G01*
X215639880Y-98931720D02*
G75*
G03*
X217039891Y-100331720I1400020J20D01*
G01*
X132387277Y-135055602D02*
G75*
G03*
X132599050Y-130988158I-2094037J2148262D01*
G01*
X213292612Y-50287798D02*
G75*
G03*
X217332928Y-50103147I1918988J2305998D01*
G01*
X215639891Y-89697319D02*
X215639891Y-98931720D01*
X182674279Y-135262023D02*
G75*
G03*
X184324487Y-136639485I1400021J23D01*
G01*
X181274291Y-133331721D02*
X172039890Y-133331721D01*
X217363763Y-138584342D02*
G75*
G03*
X213296329Y-138372561I-2148263J-2094058D01*
G01*
X135709587Y-100366083D02*
G75*
G03*
X134332124Y-102016317I13J-1400017D01*
G01*
X217039891Y-100331720D02*
X217576427Y-100331720D01*
X137639889Y-98966121D02*
X137639889Y-89731720D01*
X132129034Y-135307310D02*
G75*
G03*
X135641838Y-138865305I1745066J-1790190D01*
G01*
X217363775Y-138584330D02*
X217615491Y-138842565D01*
X136239889Y-88331720D02*
X135703353Y-88331720D01*
X137639880Y-89731720D02*
G75*
G03*
X136239889Y-88331720I-1399980J20D01*
G01*
X136239889Y-100366089D02*
G75*
G03*
X137639889Y-98966121I11J1399989D01*
G01*
X135916005Y-50079110D02*
X135664289Y-49820875D01*
X172039890Y-133331690D02*
G75*
G03*
X170639890Y-134731721I10J-1400010D01*
G01*
X135524072Y-137097539D02*
G75*
G03*
X135524072Y-137097539I-1650000J0D01*
G01*
X182674279Y-134731721D02*
G75*
G03*
X181274291Y-133331721I-1399979J21D01*
G01*
X218947649Y-86647124D02*
G75*
G03*
X212050645Y-69937489I-42307749J-7684576D01*
G01*
X142382044Y-69331720D02*
X210897736Y-69331720D01*
X168990842Y-136645978D02*
G75*
G03*
X170639890Y-135268257I248958J1377778D01*
G01*
X134325704Y-86682685D02*
G75*
G03*
X135703353Y-88331720I1377696J-249015D01*
G01*
X132387280Y-135055605D02*
X132129045Y-135307321D01*
X220892500Y-53607835D02*
X221150735Y-53356119D01*
X134332117Y-102016318D02*
G75*
G03*
X168990851Y-136645929I42307783J7684618D01*
G01*
X135709587Y-100366121D02*
X136239889Y-100366121D01*
X212050613Y-69937511D02*
G75*
G03*
X210897736Y-69331720I-1152913J-794189D01*
G01*
X221055709Y-137097538D02*
G75*
G03*
X221055709Y-137097538I-1650000J0D01*
G01*
X217039891Y-88297291D02*
G75*
G03*
X215639891Y-89697319I9J-1400009D01*
G01*
X170639890Y-134731721D02*
X170639890Y-135268257D01*
X221173476Y-135329771D02*
X220868463Y-135024758D01*
X135524071Y-51565902D02*
G75*
G03*
X135524071Y-51565902I-1650000J0D01*
G01*
X135664320Y-49820845D02*
G75*
G03*
X132106305Y-53333668I-1790220J-1745055D01*
G01*
X220683818Y-130984447D02*
G75*
G03*
X220680730Y-57675282I-44043928J36652727D01*
G01*
X184324487Y-136639485D02*
G75*
G03*
X218954098Y-101980759I-7684597J42307765D01*
G01*
X218954049Y-101980750D02*
G75*
G03*
X217576427Y-100331720I-1377649J249050D01*
G01*
X132106304Y-53333669D02*
X132411317Y-53638682D01*
X182674291Y-135262023D02*
X182674291Y-134731721D01*
X141229127Y-69937484D02*
G75*
G03*
X134325681Y-86682681I35410773J-24394216D01*
G01*
X135916040Y-50079076D02*
G75*
G03*
X139983451Y-50290879I2148260J2093976D01*
G01*
X135641839Y-138865306D02*
X135946852Y-138560293D01*
X217637941Y-49798134D02*
X217332928Y-50103147D01*
X221150726Y-53356110D02*
G75*
G03*
X217637941Y-49798134I-1745026J1790210D01*
G01*
X132595962Y-57678993D02*
G75*
G03*
X132599050Y-130988158I44043928J-36652727D01*
G01*
X220892505Y-53607841D02*
G75*
G03*
X220680730Y-57675282I2093995J-2148259D01*
G01*
X132595959Y-57678990D02*
G75*
G03*
X132411316Y-53638683I-2305959J1918990D01*
G01*
M02*
