M48
; DRILL file {KiCad 7.0.9} date Wed Jan 15 18:09:41 2025
; FORMAT={-:-/ absolute / metric / decimal}
; #@! TF.CreationDate,2025-01-15T18:09:41+09:00
; #@! TF.GenerationSoftware,Kicad,Pcbnew,7.0.9
; #@! TF.FileFunction,Plated,1,2,PTH
FMAT,2
METRIC
; #@! TA.AperFunction,Plated,PTH,ViaDrill
T1C0.400
; #@! TA.AperFunction,Plated,PTH,ComponentDrill
T2C0.800
; #@! TA.AperFunction,Plated,PTH,ComponentDrill
T3C1.000
%
G90
G05
T1
X68.326Y-116.586
X71.628Y-84.582
X82.804Y-89.408
X83.312Y-112.522
X83.82Y-131.572
X84.582Y-63.5
X87.84Y-121.39
X87.84Y-144.71
X90.424Y-123.19
X91.186Y-144.78
X92.964Y-137.414
X94.18Y-118.52
X94.996Y-82.55
X99.314Y-111.506
X99.568Y-77.216
X100.584Y-82.55
X101.15Y-94.83
X103.378Y-56.388
X104.902Y-129.794
X105.156Y-119.888
X111.252Y-83.566
X111.252Y-101.346
X111.252Y-114.554
X111.252Y-130.302
X113.03Y-138.938
X113.792Y-144.018
X116.332Y-84.074
X117.602Y-112.014
X117.602Y-131.318
X119.38Y-42.926
X120.142Y-154.94
X124.206Y-78.232
X124.46Y-84.074
X129.54Y-127.254
X130.556Y-138.938
X134.112Y-58.166
X134.112Y-60.96
X134.112Y-63.5
X134.112Y-65.786
X134.112Y-68.326
X134.112Y-70.612
X134.112Y-73.152
X134.112Y-75.946
X134.112Y-78.486
X134.112Y-81.026
X135.636Y-119.888
X135.636Y-127.508
X136.652Y-103.886
X136.652Y-135.128
X137.414Y-141.732
X137.922Y-132.334
X138.176Y-51.308
X138.43Y-112.268
X138.43Y-120.65
X138.43Y-127.762
X140.97Y-110.998
X141.224Y-95.25
X141.478Y-127.762
X141.732Y-123.19
X141.986Y-118.618
X141.986Y-135.128
X141.986Y-149.86
X143.51Y-132.08
X145.288Y-92.964
X146.558Y-69.342
X146.558Y-128.27
X147.32Y-133.096
X148.082Y-103.886
X148.336Y-99.822
X148.59Y-111.76
X148.59Y-126.492
X150.622Y-79.502
X152.146Y-127.254
X153.162Y-122.682
X153.67Y-72.39
X154.94Y-137.668
X157.226Y-60.198
X157.988Y-79.502
X166.37Y-72.39
X170.942Y-122.174
X174.244Y-86.614
T2
X107.975Y-90.51
X107.975Y-93.05
X107.975Y-95.59
X107.975Y-98.13
X107.975Y-100.67
X107.975Y-103.21
X107.975Y-105.75
X107.975Y-108.29
X107.975Y-110.83
X107.975Y-113.37
X107.975Y-115.91
X107.975Y-118.45
X107.975Y-120.99
X107.975Y-123.53
X107.975Y-126.07
X107.975Y-128.61
X107.975Y-131.15
X107.979Y-85.433
X107.979Y-87.973
X133.375Y-85.43
X133.375Y-87.97
X133.375Y-90.51
X133.375Y-93.05
X133.375Y-95.59
X133.375Y-98.13
X133.375Y-100.67
X133.375Y-103.21
X133.375Y-105.75
X133.375Y-108.29
X133.375Y-110.83
X133.375Y-113.37
X133.375Y-115.91
X133.375Y-118.45
X133.375Y-120.99
X133.375Y-123.53
X133.375Y-126.07
X133.375Y-128.61
X133.375Y-131.15
T3
X85.268Y-84.736
X85.268Y-116.736
X87.808Y-84.736
X87.808Y-116.736
X90.348Y-84.736
X90.348Y-116.736
X92.888Y-84.736
X92.888Y-116.736
X95.428Y-84.736
X95.428Y-116.736
X97.968Y-84.736
X97.968Y-116.736
X100.508Y-84.736
X100.508Y-116.736
X103.048Y-84.736
X103.048Y-116.736
X140.894Y-59.411
X140.894Y-61.951
X140.894Y-64.491
X140.894Y-67.031
X140.894Y-69.571
X140.894Y-72.111
X140.894Y-74.651
X140.894Y-77.191
X140.894Y-79.731
X140.894Y-82.271
X140.894Y-84.811
X142.9Y-99.568
X142.9Y-102.108
X142.9Y-104.648
X142.9Y-107.188
X142.9Y-109.728
X142.9Y-112.268
X142.9Y-114.808
X143.434Y-59.411
X143.434Y-61.951
X143.434Y-64.491
X143.434Y-67.031
X143.434Y-69.571
X143.434Y-72.111
X143.434Y-74.651
X143.434Y-77.191
X143.434Y-79.731
X143.434Y-82.271
X143.434Y-84.811
X145.44Y-99.568
X145.44Y-102.108
X145.44Y-104.648
X145.44Y-107.188
X145.44Y-109.728
X145.44Y-112.268
X145.44Y-114.808
T0
M30
