%TF.GenerationSoftware,KiCad,Pcbnew,7.0.9*%
%TF.CreationDate,2025-01-15T18:09:21+09:00*%
%TF.ProjectId,ESP32,45535033-322e-46b6-9963-61645f706362,rev?*%
%TF.SameCoordinates,Original*%
%TF.FileFunction,Copper,L2,Bot*%
%TF.FilePolarity,Positive*%
%FSLAX46Y46*%
G04 Gerber Fmt 4.6, Leading zero omitted, Abs format (unit mm)*
G04 Created by KiCad (PCBNEW 7.0.9) date 2025-01-15 18:09:21*
%MOMM*%
%LPD*%
G01*
G04 APERTURE LIST*
G04 Aperture macros list*
%AMRoundRect*
0 Rectangle with rounded corners*
0 $1 Rounding radius*
0 $2 $3 $4 $5 $6 $7 $8 $9 X,Y pos of 4 corners*
0 Add a 4 corners polygon primitive as box body*
4,1,4,$2,$3,$4,$5,$6,$7,$8,$9,$2,$3,0*
0 Add four circle primitives for the rounded corners*
1,1,$1+$1,$2,$3*
1,1,$1+$1,$4,$5*
1,1,$1+$1,$6,$7*
1,1,$1+$1,$8,$9*
0 Add four rect primitives between the rounded corners*
20,1,$1+$1,$2,$3,$4,$5,0*
20,1,$1+$1,$4,$5,$6,$7,0*
20,1,$1+$1,$6,$7,$8,$9,0*
20,1,$1+$1,$8,$9,$2,$3,0*%
G04 Aperture macros list end*
%TA.AperFunction,ComponentPad*%
%ADD10R,1.700000X1.700000*%
%TD*%
%TA.AperFunction,ComponentPad*%
%ADD11O,1.700000X1.700000*%
%TD*%
%TA.AperFunction,ComponentPad*%
%ADD12R,2.000000X1.200000*%
%TD*%
%TA.AperFunction,ComponentPad*%
%ADD13O,2.000000X1.200000*%
%TD*%
%TA.AperFunction,ComponentPad*%
%ADD14RoundRect,0.250000X-0.600000X-0.600000X0.600000X-0.600000X0.600000X0.600000X-0.600000X0.600000X0*%
%TD*%
%TA.AperFunction,ComponentPad*%
%ADD15C,1.700000*%
%TD*%
%TA.AperFunction,ViaPad*%
%ADD16C,0.800000*%
%TD*%
%TA.AperFunction,Conductor*%
%ADD17C,0.250000*%
%TD*%
%TA.AperFunction,Conductor*%
%ADD18C,0.500000*%
%TD*%
G04 APERTURE END LIST*
D10*
%TO.P,J1,1,Pin_1*%
%TO.N,Data_IR_sensor*%
X140893800Y-59410600D03*
D11*
%TO.P,J1,2,Pin_2*%
%TO.N,IR_Data6_Upside*%
X143433800Y-59410600D03*
%TO.P,J1,3,Pin_3*%
%TO.N,S0*%
X140893800Y-61950600D03*
%TO.P,J1,4,Pin_4*%
%TO.N,Start_switch*%
X143433800Y-61950600D03*
%TO.P,J1,5,Pin_5*%
%TO.N,S1*%
X140893800Y-64490600D03*
%TO.P,J1,6,Pin_6*%
%TO.N,RST*%
X143433800Y-64490600D03*
%TO.P,J1,7,Pin_7*%
%TO.N,S2*%
X140893800Y-67030600D03*
%TO.P,J1,8,Pin_8*%
%TO.N,+3.3V*%
X143433800Y-67030600D03*
%TO.P,J1,9,Pin_9*%
%TO.N,S3*%
X140893800Y-69570600D03*
%TO.P,J1,10,Pin_10*%
%TO.N,GND*%
X143433800Y-69570600D03*
%TO.P,J1,11,Pin_11*%
%TO.N,E*%
X140893800Y-72110600D03*
%TO.P,J1,12,Pin_12*%
%TO.N,LCD-TeensyD10*%
X143433800Y-72110600D03*
%TO.P,J1,13,Pin_13*%
%TO.N,IR_Data1_Upside*%
X140893800Y-74650600D03*
%TO.P,J1,14,Pin_14*%
%TO.N,LCD-TeensyD11*%
X143433800Y-74650600D03*
%TO.P,J1,15,Pin_15*%
%TO.N,IR_Data2_Upside*%
X140893800Y-77190600D03*
%TO.P,J1,16,Pin_16*%
%TO.N,LCD-TeensyD12*%
X143433800Y-77190600D03*
%TO.P,J1,17,Pin_17*%
%TO.N,IR_Data3_Upside*%
X140893800Y-79730600D03*
%TO.P,J1,18,Pin_18*%
%TO.N,SCL_LCD*%
X143433800Y-79730600D03*
%TO.P,J1,19,Pin_19*%
%TO.N,IR_Data4_Upside*%
X140893800Y-82270600D03*
%TO.P,J1,20,Pin_20*%
%TO.N,SDA_LCD*%
X143433800Y-82270600D03*
%TO.P,J1,21,Pin_21*%
%TO.N,IR_Data5_Upside*%
X140893800Y-84810600D03*
%TO.P,J1,22,Pin_22*%
%TO.N,unconnected-(J1-Pin_22-Pad22)*%
X143433800Y-84810600D03*
%TD*%
D12*
%TO.P,ESP1,1,3.3V*%
%TO.N,+3.3V*%
X133375400Y-131150000D03*
D13*
%TO.P,ESP1,2,EN*%
%TO.N,unconnected-(ESP1-EN-Pad2)*%
X133375400Y-128610000D03*
%TO.P,ESP1,3,VP*%
%TO.N,Data_IR_sensor*%
X133375400Y-126070000D03*
%TO.P,ESP1,4,VN*%
%TO.N,S0*%
X133375400Y-123530000D03*
%TO.P,ESP1,5,34*%
%TO.N,S1*%
X133375400Y-120990000D03*
%TO.P,ESP1,6,35*%
%TO.N,S2*%
X133375400Y-118450000D03*
%TO.P,ESP1,7,32*%
%TO.N,S3*%
X133375400Y-115910000D03*
%TO.P,ESP1,8,33*%
%TO.N,E*%
X133375400Y-113370000D03*
%TO.P,ESP1,9,25*%
%TO.N,IR_Data1_Upside*%
X133375400Y-110830000D03*
%TO.P,ESP1,10,26*%
%TO.N,IR_Data2_Upside*%
X133375400Y-108290000D03*
%TO.P,ESP1,11,27*%
%TO.N,IR_Data3_Upside*%
X133375400Y-105750000D03*
%TO.P,ESP1,12,14*%
%TO.N,IR_Data4_Upside*%
X133375400Y-103210000D03*
%TO.P,ESP1,13,12*%
%TO.N,IR_Data5_Upside*%
X133375400Y-100670000D03*
%TO.P,ESP1,14,GND*%
%TO.N,GND*%
X133375400Y-98130000D03*
%TO.P,ESP1,15,13*%
%TO.N,IR_Data6_Upside*%
X133375400Y-95590000D03*
%TO.P,ESP1,16,D2*%
%TO.N,unconnected-(ESP1-D2-Pad16)*%
X133375400Y-93050000D03*
%TO.P,ESP1,17,D3*%
%TO.N,unconnected-(ESP1-D3-Pad17)*%
X133375400Y-90510000D03*
%TO.P,ESP1,18,CMD*%
%TO.N,unconnected-(ESP1-CMD-Pad18)*%
X133375400Y-87970000D03*
%TO.P,ESP1,19,5V*%
%TO.N,+5V*%
X133375400Y-85430000D03*
%TO.P,ESP1,20,CLK*%
%TO.N,unconnected-(ESP1-CLK-Pad20)*%
X107979080Y-85432720D03*
%TO.P,ESP1,21,D0*%
%TO.N,unconnected-(ESP1-D0-Pad21)*%
X107979080Y-87972720D03*
%TO.P,ESP1,22,D1*%
%TO.N,unconnected-(ESP1-D1-Pad22)*%
X107975400Y-90510000D03*
%TO.P,ESP1,23,15*%
%TO.N,unconnected-(ESP1-15-Pad23)*%
X107975400Y-93050000D03*
%TO.P,ESP1,24,2*%
%TO.N,unconnected-(ESP1-2-Pad24)*%
X107975400Y-95590000D03*
%TO.P,ESP1,25,0*%
%TO.N,unconnected-(ESP1-0-Pad25)*%
X107975400Y-98130000D03*
%TO.P,ESP1,26,4*%
%TO.N,unconnected-(ESP1-4-Pad26)*%
X107975400Y-100670000D03*
%TO.P,ESP1,27,16*%
%TO.N,unconnected-(ESP1-16-Pad27)*%
X107975400Y-103210000D03*
%TO.P,ESP1,28,17*%
%TO.N,unconnected-(ESP1-17-Pad28)*%
X107975400Y-105750000D03*
%TO.P,ESP1,29,5*%
%TO.N,unconnected-(ESP1-5-Pad29)*%
X107975400Y-108290000D03*
%TO.P,ESP1,30,18*%
%TO.N,unconnected-(ESP1-18-Pad30)*%
X107975400Y-110830000D03*
%TO.P,ESP1,31,19*%
%TO.N,unconnected-(ESP1-19-Pad31)*%
X107975400Y-113370000D03*
%TO.P,ESP1,32,GND*%
%TO.N,GND*%
X107975400Y-115910000D03*
%TO.P,ESP1,33,21*%
%TO.N,unconnected-(ESP1-21-Pad33)*%
X107975400Y-118450000D03*
%TO.P,ESP1,34,RX*%
%TO.N,IR_board_RX*%
X107975400Y-120990000D03*
%TO.P,ESP1,35,TX*%
%TO.N,IR_board_TX*%
X107975400Y-123530000D03*
%TO.P,ESP1,36,22*%
%TO.N,unconnected-(ESP1-22-Pad36)*%
X107975400Y-126070000D03*
%TO.P,ESP1,37,23*%
%TO.N,unconnected-(ESP1-23-Pad37)*%
X107975400Y-128610000D03*
%TO.P,ESP1,38,GND*%
%TO.N,GND*%
X107975400Y-131150000D03*
%TD*%
D14*
%TO.P,J2,1,Pin_1*%
%TO.N,unconnected-(J2-Pin_1-Pad1)*%
X142900400Y-99568000D03*
D15*
%TO.P,J2,2,Pin_2*%
%TO.N,SCL_LCD*%
X145440400Y-99568000D03*
%TO.P,J2,3,Pin_3*%
%TO.N,SDA_LCD*%
X142900400Y-102108000D03*
%TO.P,J2,4,Pin_4*%
%TO.N,IR_board_TX*%
X145440400Y-102108000D03*
%TO.P,J2,5,Pin_5*%
%TO.N,IR_board_RX*%
X142900400Y-104648000D03*
%TO.P,J2,6,Pin_6*%
%TO.N,TX_camera*%
X145440400Y-104648000D03*
%TO.P,J2,7,Pin_7*%
%TO.N,RX_camera*%
X142900400Y-107188000D03*
%TO.P,J2,8,Pin_8*%
%TO.N,LCD-TeensyD10*%
X145440400Y-107188000D03*
%TO.P,J2,9,Pin_9*%
%TO.N,LCD-TeensyD11*%
X142900400Y-109728000D03*
%TO.P,J2,10,Pin_10*%
%TO.N,LCD-TeensyD12*%
X145440400Y-109728000D03*
%TO.P,J2,11,Pin_11*%
%TO.N,GND*%
X142900400Y-112268000D03*
%TO.P,J2,12,Pin_12*%
%TO.N,+3.3V*%
X145440400Y-112268000D03*
%TO.P,J2,13,Pin_13*%
%TO.N,Start_switch*%
X142900400Y-114808000D03*
%TO.P,J2,14,Pin_14*%
%TO.N,+5V*%
X145440400Y-114808000D03*
%TD*%
%TO.P,U17,1,mosi*%
%TO.N,unconnected-(U17-mosi-Pad1)*%
X103047800Y-84736400D03*
%TO.P,U17,2,sclk*%
%TO.N,unconnected-(U17-sclk-Pad2)*%
X100507800Y-84736400D03*
%TO.P,U17,3,miso*%
%TO.N,unconnected-(U17-miso-Pad3)*%
X97967800Y-84736400D03*
%TO.P,U17,4,ss*%
%TO.N,unconnected-(U17-ss-Pad4)*%
X95427800Y-84736400D03*
%TO.P,U17,5,txo/scl*%
%TO.N,TX_camera*%
X92887800Y-84736400D03*
%TO.P,U17,6,rxd/sca*%
%TO.N,RX_camera*%
X90347800Y-84736400D03*
%TO.P,U17,7,adc/dac*%
%TO.N,unconnected-(U17-adc{slash}dac-Pad7)*%
X87807800Y-84736400D03*
%TO.P,U17,8,3.3v*%
%TO.N,unconnected-(U17-3.3v-Pad8)*%
X85267800Y-84736400D03*
%TO.P,U17,9,rst*%
%TO.N,RST*%
X103047800Y-116736400D03*
%TO.P,U17,10,boot*%
%TO.N,unconnected-(U17-boot-Pad10)*%
X100507800Y-116736400D03*
%TO.P,U17,11,syn*%
%TO.N,unconnected-(U17-syn-Pad11)*%
X97967800Y-116736400D03*
%TO.P,U17,12,seru03*%
%TO.N,unconnected-(U17-seru03-Pad12)*%
X95427800Y-116736400D03*
%TO.P,U17,13,seru02*%
%TO.N,unconnected-(U17-seru02-Pad13)*%
X92887800Y-116736400D03*
%TO.P,U17,14,seru01*%
%TO.N,unconnected-(U17-seru01-Pad14)*%
X90347800Y-116736400D03*
%TO.P,U17,15,vin*%
%TO.N,+5V*%
X87807800Y-116736400D03*
%TO.P,U17,16,GND*%
%TO.N,GND*%
X85267800Y-116736400D03*
%TD*%
D16*
%TO.N,GND*%
X145288000Y-92964000D03*
X153670000Y-72390000D03*
X138430000Y-127762000D03*
X111252000Y-83566000D03*
X134112000Y-63500000D03*
X136652000Y-103886000D03*
X116332000Y-84074000D03*
X129540000Y-127254000D03*
X134112000Y-78486000D03*
X124206000Y-78232000D03*
X90424000Y-123190000D03*
X84582000Y-63500000D03*
X135636000Y-127508000D03*
X141478000Y-127762000D03*
X134112000Y-65786000D03*
X150622000Y-79502000D03*
X140970000Y-110998000D03*
X174244000Y-86614000D03*
X148336000Y-99822000D03*
X99314000Y-111506000D03*
X111252000Y-114554000D03*
X134112000Y-68326000D03*
X148590000Y-111760000D03*
X146558000Y-128270000D03*
X147320000Y-133096000D03*
X99568000Y-77216000D03*
X117602000Y-112014000D03*
X138430000Y-120650000D03*
X157226000Y-60198000D03*
X91186000Y-144780000D03*
X153162000Y-122682000D03*
X130556000Y-138938000D03*
X135636000Y-119888000D03*
X154940000Y-137668000D03*
X138430000Y-112268000D03*
X134112000Y-73152000D03*
X141732000Y-123190000D03*
X134112000Y-70612000D03*
X141986000Y-149860000D03*
X92964000Y-137414000D03*
X141986000Y-118618000D03*
X113792000Y-144018000D03*
X141224000Y-95250000D03*
X120142000Y-154940000D03*
X111252000Y-130302000D03*
X134112000Y-58166000D03*
X103378000Y-56388000D03*
X138176000Y-51308000D03*
X166370000Y-72390000D03*
X148082000Y-103886000D03*
X134112000Y-81026000D03*
X68326000Y-116586000D03*
X148590000Y-126492000D03*
X137414000Y-141732000D03*
X105156000Y-119888000D03*
X83820000Y-131572000D03*
X82804000Y-89408000D03*
X157988000Y-79502000D03*
X104902000Y-129794000D03*
X111252000Y-101346000D03*
X83312000Y-112522000D03*
X134112000Y-75946000D03*
X170942000Y-122174000D03*
X143510000Y-132080000D03*
X152146000Y-127254000D03*
X113030000Y-138938000D03*
X94996000Y-82550000D03*
X141986000Y-135128000D03*
X136652000Y-135128000D03*
X94180000Y-118520000D03*
X146558000Y-69342000D03*
X71628000Y-84582000D03*
X137922000Y-132334000D03*
X119380000Y-42926000D03*
X124460000Y-84074000D03*
X117602000Y-131318000D03*
X100584000Y-82550000D03*
X134112000Y-60960000D03*
X101150000Y-94830000D03*
%TO.N,+5V*%
X87840000Y-144710000D03*
X87840000Y-121390000D03*
%TD*%
D17*
%TO.N,IR_board_RX*%
X137160000Y-110388391D02*
X137160000Y-129176002D01*
X129176002Y-137160000D02*
X109910502Y-137160000D01*
X107955400Y-120970000D02*
X107975400Y-120990000D01*
X102870000Y-130119498D02*
X102870000Y-126055398D01*
X107955400Y-120970000D02*
G75*
G03*
X102870000Y-126055398I0J-5085400D01*
G01*
X142900400Y-104648000D02*
G75*
G03*
X137160000Y-110388391I0J-5740400D01*
G01*
X129176002Y-137160000D02*
G75*
G03*
X137160000Y-129176002I-2J7984000D01*
G01*
X102870000Y-130119498D02*
G75*
G03*
X109910502Y-137160000I7040500J-2D01*
G01*
D18*
%TO.N,+5V*%
X129325407Y-81380000D02*
X108995569Y-81380000D01*
X87807800Y-120580000D02*
X87807800Y-120012200D01*
X87840000Y-121390000D02*
X87807800Y-121357800D01*
X87807800Y-120580000D02*
X87807800Y-119440000D01*
X102557581Y-119440000D02*
X88940000Y-119440000D01*
X87807800Y-121357800D02*
X87807800Y-120580000D01*
X88380000Y-119412200D02*
X87807800Y-118840000D01*
X87807800Y-118410000D02*
X87910000Y-118410000D01*
X87807800Y-120012200D02*
X88380000Y-119440000D01*
X87807800Y-118840000D02*
X87807800Y-118410000D01*
X145440400Y-133216623D02*
X145440400Y-114808000D01*
X88380000Y-119440000D02*
X88380000Y-119412200D01*
X87807800Y-118410000D02*
X87807800Y-116736400D01*
X105190000Y-85185569D02*
X105190000Y-116807581D01*
X88380000Y-119440000D02*
X87807800Y-119440000D01*
X88940000Y-119440000D02*
X88380000Y-119440000D01*
X87807800Y-119440000D02*
X87807800Y-118840000D01*
X87910000Y-118410000D02*
X88940000Y-119440000D01*
X88940000Y-119440000D02*
X88940000Y-119447800D01*
X88940000Y-119447800D02*
X87807800Y-120580000D01*
X90530000Y-147400000D02*
X131257023Y-147400000D01*
X131257023Y-147400000D02*
G75*
G03*
X145440400Y-133216623I-23J14183400D01*
G01*
X108995569Y-81380000D02*
G75*
G03*
X105190000Y-85185569I31J-3805600D01*
G01*
X133375400Y-85430000D02*
G75*
G03*
X129325407Y-81380000I-4050000J0D01*
G01*
X87840000Y-144710000D02*
G75*
G03*
X90530000Y-147400000I2690000J0D01*
G01*
X102557581Y-119440000D02*
G75*
G03*
X105190000Y-116807581I19J2632400D01*
G01*
D17*
%TO.N,RX_camera*%
X91800814Y-140970000D02*
X128547018Y-140970000D01*
X139700000Y-129817018D02*
X139700000Y-110388392D01*
X86256401Y-80645000D02*
X83612320Y-80645000D01*
X79375000Y-84882320D02*
X79375000Y-128544186D01*
X83612320Y-80645000D02*
G75*
G03*
X79375000Y-84882320I-20J-4237300D01*
G01*
X90347800Y-84736400D02*
G75*
G03*
X86256401Y-80645000I-4091400J0D01*
G01*
X142900400Y-107188000D02*
G75*
G03*
X139700000Y-110388392I0J-3200400D01*
G01*
X79375000Y-128544186D02*
G75*
G03*
X91800814Y-140970000I12425820J6D01*
G01*
X128547018Y-140970000D02*
G75*
G03*
X139700000Y-129817018I-18J11153000D01*
G01*
%TO.N,RST*%
X145510000Y-56644691D02*
X145510000Y-62414403D01*
X109255657Y-46850000D02*
X135715309Y-46850000D01*
X96710000Y-97104130D02*
X96710000Y-59395657D01*
X103047800Y-116736400D02*
X103047800Y-103441911D01*
X143433800Y-64490600D02*
G75*
G03*
X145510000Y-62414403I0J2076200D01*
G01*
X109255657Y-46850000D02*
G75*
G03*
X96710000Y-59395657I3J-12545660D01*
G01*
X145510000Y-56644691D02*
G75*
G03*
X135715309Y-46850000I-9794700J-9D01*
G01*
X103047801Y-103441911D02*
G75*
G03*
X100065878Y-100459999I-2981901J11D01*
G01*
X96710001Y-97104130D02*
G75*
G03*
X100065878Y-100459999I3355899J30D01*
G01*
%TO.N,SCL_LCD*%
X147970000Y-97038406D02*
X147970000Y-84266792D01*
X147970000Y-84266792D02*
G75*
G03*
X143433800Y-79730600I-4536200J-8D01*
G01*
X145440400Y-99568000D02*
G75*
G03*
X147970000Y-97038406I0J2529600D01*
G01*
%TO.N,SDA_LCD*%
X145190000Y-88789256D02*
X145210987Y-88789256D01*
X144190000Y-100818394D02*
X144190000Y-89789252D01*
X145920000Y-87830000D02*
X145920000Y-84756805D01*
X145211003Y-88789307D02*
G75*
G03*
X145919999Y-87830000I-297203J961307D01*
G01*
X142900400Y-102108000D02*
G75*
G03*
X144190000Y-100818394I0J1289600D01*
G01*
X145190000Y-88789300D02*
G75*
G03*
X144190000Y-89789252I0J-1000000D01*
G01*
X145920000Y-84756805D02*
G75*
G03*
X143433800Y-82270600I-2486200J5D01*
G01*
%TO.N,Start_switch*%
X143160000Y-61950600D02*
X143433800Y-61950600D01*
X160690000Y-121927607D02*
X160690000Y-83309997D01*
X142160000Y-64780001D02*
X142160000Y-62950600D01*
X150852036Y-124720000D02*
X157897607Y-124720000D01*
X144178410Y-113530000D02*
X146090414Y-113530000D01*
X147900000Y-115339586D02*
X147900000Y-121767964D01*
X160690000Y-83309997D02*
G75*
G03*
X143160000Y-65780000I-17530000J-3D01*
G01*
X157897607Y-124720000D02*
G75*
G03*
X160690000Y-121927607I-7J2792400D01*
G01*
X144178410Y-113530000D02*
G75*
G03*
X142900400Y-114808000I-10J-1278000D01*
G01*
X147900000Y-115339586D02*
G75*
G03*
X146090414Y-113530000I-1809600J-14D01*
G01*
X147900000Y-121767964D02*
G75*
G03*
X150852036Y-124720000I2952000J-36D01*
G01*
X143160000Y-61950600D02*
G75*
G03*
X142160000Y-62950600I0J-1000000D01*
G01*
X142160000Y-64780001D02*
G75*
G03*
X143160000Y-65780000I1000000J1D01*
G01*
%TO.N,LCD-TeensyD12*%
X145440400Y-109728000D02*
X146884697Y-109728000D01*
X149760000Y-106852697D02*
X149760000Y-83516794D01*
X149760000Y-83516794D02*
G75*
G03*
X143433800Y-77190600I-6326200J-6D01*
G01*
X146884697Y-109728000D02*
G75*
G03*
X149760000Y-106852697I3J2875300D01*
G01*
%TO.N,IR_Data6_Upside*%
X137250000Y-91715402D02*
X137250000Y-58227854D01*
X143433800Y-57895935D02*
X143433800Y-59410600D01*
X140507865Y-54970000D02*
G75*
G03*
X137250000Y-58227854I35J-3257900D01*
G01*
X143433800Y-57895935D02*
G75*
G03*
X140507865Y-54970000I-2925900J35D01*
G01*
X133375400Y-95590000D02*
G75*
G03*
X137250000Y-91715402I0J3874600D01*
G01*
%TD*%
%TA.AperFunction,Conductor*%
%TO.N,GND*%
G36*
X136289117Y-47493533D02*
G01*
X136292980Y-47493776D01*
X136395735Y-47503490D01*
X136862583Y-47547621D01*
X136866433Y-47548107D01*
X137431549Y-47637613D01*
X137435312Y-47638330D01*
X137993711Y-47763148D01*
X137997452Y-47764109D01*
X138546885Y-47923734D01*
X138550567Y-47924930D01*
X138597707Y-47941902D01*
X139088873Y-48118733D01*
X139092496Y-48120167D01*
X139617570Y-48347387D01*
X139621095Y-48349046D01*
X140130866Y-48608788D01*
X140134262Y-48610654D01*
X140527364Y-48843134D01*
X140626729Y-48901899D01*
X140630013Y-48903983D01*
X140850567Y-49053871D01*
X141103205Y-49225563D01*
X141106357Y-49227853D01*
X141558426Y-49578514D01*
X141561427Y-49580997D01*
X141990596Y-49959359D01*
X141993419Y-49962010D01*
X142397988Y-50366579D01*
X142400640Y-50369403D01*
X142779002Y-50798572D01*
X142781485Y-50801573D01*
X143132146Y-51253642D01*
X143134436Y-51256794D01*
X143456013Y-51729981D01*
X143458100Y-51733270D01*
X143749335Y-52225719D01*
X143751211Y-52229133D01*
X144010953Y-52738904D01*
X144012612Y-52742429D01*
X144239832Y-53267503D01*
X144241266Y-53271126D01*
X144435067Y-53809428D01*
X144436271Y-53813133D01*
X144590647Y-54344500D01*
X144595884Y-54362524D01*
X144596853Y-54366297D01*
X144721664Y-54924665D01*
X144722390Y-54928475D01*
X144745775Y-55076114D01*
X144811890Y-55493551D01*
X144812378Y-55497416D01*
X144866222Y-56067015D01*
X144866467Y-56070903D01*
X144884500Y-56644690D01*
X144884500Y-58766752D01*
X144864815Y-58833791D01*
X144812011Y-58879546D01*
X144742853Y-58889490D01*
X144679297Y-58860465D01*
X144648118Y-58819157D01*
X144607835Y-58732771D01*
X144607834Y-58732769D01*
X144472294Y-58539197D01*
X144305202Y-58372106D01*
X144305201Y-58372105D01*
X144112176Y-58236947D01*
X144068551Y-58182370D01*
X144059300Y-58135372D01*
X144059300Y-57856585D01*
X144059302Y-57721471D01*
X144025103Y-57374207D01*
X143957031Y-57031968D01*
X143855740Y-56698049D01*
X143722207Y-56375666D01*
X143557718Y-56067925D01*
X143363856Y-55777789D01*
X143142489Y-55508051D01*
X143142483Y-55508045D01*
X143142479Y-55508040D01*
X142895759Y-55261320D01*
X142895753Y-55261315D01*
X142895749Y-55261311D01*
X142626011Y-55039944D01*
X142456315Y-54926557D01*
X142335880Y-54846085D01*
X142335877Y-54846083D01*
X142335875Y-54846082D01*
X142028134Y-54681593D01*
X141909048Y-54632267D01*
X141705753Y-54548060D01*
X141371829Y-54446768D01*
X141232269Y-54419009D01*
X141029593Y-54378697D01*
X141029587Y-54378696D01*
X141029580Y-54378695D01*
X140774174Y-54353543D01*
X140682329Y-54344498D01*
X140682326Y-54344498D01*
X140583808Y-54344499D01*
X140507858Y-54344500D01*
X140317085Y-54344501D01*
X139937365Y-54381904D01*
X139937353Y-54381906D01*
X139563143Y-54456344D01*
X139198029Y-54567103D01*
X138845523Y-54713118D01*
X138845517Y-54713121D01*
X138509022Y-54892982D01*
X138509012Y-54892988D01*
X138191778Y-55104958D01*
X138191764Y-55104968D01*
X137896820Y-55347022D01*
X137627031Y-55616810D01*
X137384976Y-55911753D01*
X137384965Y-55911767D01*
X137172989Y-56229009D01*
X136993125Y-56565505D01*
X136993123Y-56565511D01*
X136847108Y-56918017D01*
X136736352Y-57283117D01*
X136736348Y-57283134D01*
X136661907Y-57657344D01*
X136661906Y-57657350D01*
X136624502Y-58037074D01*
X136624501Y-58145278D01*
X136624500Y-58145302D01*
X136624500Y-58227845D01*
X136624499Y-58307534D01*
X136624500Y-58307550D01*
X136624500Y-91713778D01*
X136624415Y-91717024D01*
X136606870Y-92051781D01*
X136606191Y-92058239D01*
X136554008Y-92387709D01*
X136552658Y-92394061D01*
X136466317Y-92716288D01*
X136464311Y-92722464D01*
X136344765Y-93033892D01*
X136342124Y-93039824D01*
X136190677Y-93337058D01*
X136187434Y-93342674D01*
X136005750Y-93622444D01*
X136001932Y-93627697D01*
X135791994Y-93886949D01*
X135787648Y-93891775D01*
X135551774Y-94127649D01*
X135546948Y-94131995D01*
X135287696Y-94341933D01*
X135282442Y-94345751D01*
X135142561Y-94436590D01*
X135002673Y-94527434D01*
X134997057Y-94530677D01*
X134699821Y-94682126D01*
X134693888Y-94684767D01*
X134570025Y-94732314D01*
X134500384Y-94737962D01*
X134458547Y-94720865D01*
X134281974Y-94607388D01*
X134086855Y-94529274D01*
X133880486Y-94489500D01*
X133880485Y-94489500D01*
X132922975Y-94489500D01*
X132766182Y-94504472D01*
X132766178Y-94504473D01*
X132564527Y-94563683D01*
X132377713Y-94659991D01*
X132212516Y-94789905D01*
X132212512Y-94789909D01*
X132074878Y-94948746D01*
X131969798Y-95130750D01*
X131901056Y-95329365D01*
X131901056Y-95329367D01*
X131874459Y-95514359D01*
X131871146Y-95537401D01*
X131881145Y-95747327D01*
X131930696Y-95951578D01*
X131930698Y-95951582D01*
X132017998Y-96142743D01*
X132018001Y-96142748D01*
X132018002Y-96142750D01*
X132018004Y-96142753D01*
X132081027Y-96231256D01*
X132139915Y-96313953D01*
X132139920Y-96313959D01*
X132292020Y-96458985D01*
X132386978Y-96520011D01*
X132468828Y-96572613D01*
X132663943Y-96650725D01*
X132767129Y-96670612D01*
X132870314Y-96690500D01*
X132870315Y-96690500D01*
X133827819Y-96690500D01*
X133827825Y-96690500D01*
X133984618Y-96675528D01*
X134186275Y-96616316D01*
X134373082Y-96520011D01*
X134538286Y-96390092D01*
X134675919Y-96231256D01*
X134781004Y-96049244D01*
X134784085Y-96040339D01*
X134824610Y-95983426D01*
X134858853Y-95964372D01*
X134951026Y-95930824D01*
X135099151Y-95876913D01*
X135099150Y-95876913D01*
X135455292Y-95710842D01*
X135455292Y-95710841D01*
X135795610Y-95514359D01*
X136059803Y-95329368D01*
X136117496Y-95288971D01*
X136117497Y-95288970D01*
X136117497Y-95288971D01*
X136246016Y-95181129D01*
X136418519Y-95036383D01*
X136418526Y-95036376D01*
X136418526Y-95036377D01*
X136696381Y-94758522D01*
X136948970Y-94457499D01*
X136948969Y-94457499D01*
X136948970Y-94457498D01*
X137163933Y-94150500D01*
X137174358Y-94135612D01*
X137174361Y-94135607D01*
X137370839Y-93795296D01*
X137370840Y-93795294D01*
X137370841Y-93795294D01*
X137536906Y-93439167D01*
X137536906Y-93439166D01*
X137546948Y-93411578D01*
X137671310Y-93069897D01*
X137773015Y-92690330D01*
X137841251Y-92303343D01*
X137875500Y-91911881D01*
X137875500Y-91715402D01*
X137875500Y-91639453D01*
X137875500Y-91639452D01*
X137875500Y-58229606D01*
X137875598Y-58226129D01*
X137886217Y-58037074D01*
X137891861Y-57936600D01*
X137892637Y-57929708D01*
X137940923Y-57645535D01*
X137942466Y-57638776D01*
X138022265Y-57361794D01*
X138024560Y-57355238D01*
X138027107Y-57349091D01*
X138134867Y-57088942D01*
X138137886Y-57082673D01*
X138277318Y-56830393D01*
X138280995Y-56824542D01*
X138447807Y-56589443D01*
X138452117Y-56584038D01*
X138644195Y-56369104D01*
X138649108Y-56364192D01*
X138703800Y-56315315D01*
X138864034Y-56172122D01*
X138869461Y-56167794D01*
X139104539Y-56000998D01*
X139110420Y-55997302D01*
X139362688Y-55857878D01*
X139368952Y-55854861D01*
X139635247Y-55744556D01*
X139641806Y-55742262D01*
X139755394Y-55709537D01*
X139918774Y-55662466D01*
X139925554Y-55660920D01*
X140209717Y-55612636D01*
X140216609Y-55611860D01*
X140504258Y-55595703D01*
X140511476Y-55595717D01*
X140781424Y-55612044D01*
X140788852Y-55612946D01*
X141054722Y-55661666D01*
X141061984Y-55663457D01*
X141320034Y-55743866D01*
X141327041Y-55746523D01*
X141573521Y-55857454D01*
X141580147Y-55860931D01*
X141811465Y-56000766D01*
X141817622Y-56005016D01*
X142030393Y-56171711D01*
X142035994Y-56176672D01*
X142227126Y-56367804D01*
X142232088Y-56373406D01*
X142398783Y-56586177D01*
X142403036Y-56592338D01*
X142542863Y-56823642D01*
X142546345Y-56830278D01*
X142657276Y-57076758D01*
X142659933Y-57083765D01*
X142740342Y-57341815D01*
X142742136Y-57349091D01*
X142790852Y-57614945D01*
X142791756Y-57622384D01*
X142808186Y-57894060D01*
X142808299Y-57897803D01*
X142808299Y-57975615D01*
X142808300Y-57975632D01*
X142808300Y-58135373D01*
X142788615Y-58202412D01*
X142755423Y-58236948D01*
X142562400Y-58372103D01*
X142440473Y-58494030D01*
X142379150Y-58527514D01*
X142309458Y-58522530D01*
X142253525Y-58480658D01*
X142236610Y-58449681D01*
X142187597Y-58318271D01*
X142187593Y-58318264D01*
X142101347Y-58203055D01*
X142101344Y-58203052D01*
X141986135Y-58116806D01*
X141986128Y-58116802D01*
X141851282Y-58066508D01*
X141851283Y-58066508D01*
X141791683Y-58060101D01*
X141791681Y-58060100D01*
X141791673Y-58060100D01*
X141791664Y-58060100D01*
X139995929Y-58060100D01*
X139995923Y-58060101D01*
X139936316Y-58066508D01*
X139801471Y-58116802D01*
X139801464Y-58116806D01*
X139686255Y-58203052D01*
X139686252Y-58203055D01*
X139600006Y-58318264D01*
X139600002Y-58318271D01*
X139549708Y-58453117D01*
X139543301Y-58512716D01*
X139543300Y-58512735D01*
X139543300Y-60308470D01*
X139543301Y-60308476D01*
X139549708Y-60368083D01*
X139600002Y-60502928D01*
X139600006Y-60502935D01*
X139686252Y-60618144D01*
X139686255Y-60618147D01*
X139801464Y-60704393D01*
X139801471Y-60704397D01*
X139932881Y-60753410D01*
X139988815Y-60795281D01*
X140013232Y-60860745D01*
X139998380Y-60929018D01*
X139977230Y-60957273D01*
X139855303Y-61079200D01*
X139719765Y-61272769D01*
X139719764Y-61272771D01*
X139619898Y-61486935D01*
X139619894Y-61486944D01*
X139558738Y-61715186D01*
X139558736Y-61715196D01*
X139538141Y-61950599D01*
X139538141Y-61950600D01*
X139558736Y-62186003D01*
X139558738Y-62186013D01*
X139619894Y-62414255D01*
X139619896Y-62414259D01*
X139619897Y-62414263D01*
X139690713Y-62566128D01*
X139719765Y-62628430D01*
X139719767Y-62628434D01*
X139855301Y-62821995D01*
X139855306Y-62822002D01*
X140022397Y-62989093D01*
X140022403Y-62989098D01*
X140207958Y-63119025D01*
X140251583Y-63173602D01*
X140258777Y-63243100D01*
X140227254Y-63305455D01*
X140207958Y-63322175D01*
X140022397Y-63452105D01*
X139855305Y-63619197D01*
X139719765Y-63812769D01*
X139719764Y-63812771D01*
X139619898Y-64026935D01*
X139619894Y-64026944D01*
X139558738Y-64255186D01*
X139558736Y-64255196D01*
X139538141Y-64490599D01*
X139538141Y-64490600D01*
X139558736Y-64726003D01*
X139558738Y-64726013D01*
X139619894Y-64954255D01*
X139619896Y-64954259D01*
X139619897Y-64954263D01*
X139719765Y-65168430D01*
X139719767Y-65168434D01*
X139855301Y-65361995D01*
X139855306Y-65362002D01*
X140022397Y-65529093D01*
X140022403Y-65529098D01*
X140207958Y-65659025D01*
X140251583Y-65713602D01*
X140258777Y-65783100D01*
X140227254Y-65845455D01*
X140207958Y-65862175D01*
X140022397Y-65992105D01*
X139855305Y-66159197D01*
X139719765Y-66352769D01*
X139719764Y-66352771D01*
X139619898Y-66566935D01*
X139619894Y-66566944D01*
X139558738Y-66795186D01*
X139558736Y-66795196D01*
X139538141Y-67030599D01*
X139538141Y-67030600D01*
X139558736Y-67266003D01*
X139558738Y-67266013D01*
X139619894Y-67494255D01*
X139619896Y-67494259D01*
X139619897Y-67494263D01*
X139693949Y-67653067D01*
X139719765Y-67708430D01*
X139719767Y-67708434D01*
X139828081Y-67863121D01*
X139855301Y-67901996D01*
X139855306Y-67902002D01*
X140022397Y-68069093D01*
X140022403Y-68069098D01*
X140207958Y-68199025D01*
X140251583Y-68253602D01*
X140258777Y-68323100D01*
X140227254Y-68385455D01*
X140207958Y-68402175D01*
X140022397Y-68532105D01*
X139855305Y-68699197D01*
X139719765Y-68892769D01*
X139719764Y-68892771D01*
X139619898Y-69106935D01*
X139619894Y-69106944D01*
X139558738Y-69335186D01*
X139558736Y-69335196D01*
X139538141Y-69570599D01*
X139538141Y-69570600D01*
X139558736Y-69806003D01*
X139558738Y-69806013D01*
X139619894Y-70034255D01*
X139619896Y-70034259D01*
X139619897Y-70034263D01*
X139702955Y-70212381D01*
X139719765Y-70248430D01*
X139719767Y-70248434D01*
X139828081Y-70403121D01*
X139855301Y-70441996D01*
X139855306Y-70442002D01*
X140022397Y-70609093D01*
X140022403Y-70609098D01*
X140207958Y-70739025D01*
X140251583Y-70793602D01*
X140258777Y-70863100D01*
X140227254Y-70925455D01*
X140207958Y-70942175D01*
X140022397Y-71072105D01*
X139855305Y-71239197D01*
X139719765Y-71432769D01*
X139719764Y-71432771D01*
X139619898Y-71646935D01*
X139619894Y-71646944D01*
X139558738Y-71875186D01*
X139558736Y-71875196D01*
X139538141Y-72110599D01*
X139538141Y-72110600D01*
X139558736Y-72346003D01*
X139558738Y-72346013D01*
X139619894Y-72574255D01*
X139619896Y-72574259D01*
X139619897Y-72574263D01*
X139623800Y-72582632D01*
X139719765Y-72788430D01*
X139719767Y-72788434D01*
X139770110Y-72860330D01*
X139855301Y-72981996D01*
X139855306Y-72982002D01*
X140022397Y-73149093D01*
X140022403Y-73149098D01*
X140207958Y-73279025D01*
X140251583Y-73333602D01*
X140258777Y-73403100D01*
X140227254Y-73465455D01*
X140207958Y-73482175D01*
X140022397Y-73612105D01*
X139855305Y-73779197D01*
X139719765Y-73972769D01*
X139719764Y-73972771D01*
X139619898Y-74186935D01*
X139619894Y-74186944D01*
X139558738Y-74415186D01*
X139558736Y-74415196D01*
X139538141Y-74650599D01*
X139538141Y-74650600D01*
X139558736Y-74886003D01*
X139558738Y-74886013D01*
X139619894Y-75114255D01*
X139619896Y-75114259D01*
X139619897Y-75114263D01*
X139623800Y-75122632D01*
X139719765Y-75328430D01*
X139719767Y-75328434D01*
X139765603Y-75393894D01*
X139855301Y-75521996D01*
X139855306Y-75522002D01*
X140022397Y-75689093D01*
X140022403Y-75689098D01*
X140207958Y-75819025D01*
X140251583Y-75873602D01*
X140258777Y-75943100D01*
X140227254Y-76005455D01*
X140207958Y-76022175D01*
X140022397Y-76152105D01*
X139855305Y-76319197D01*
X139719765Y-76512769D01*
X139719764Y-76512771D01*
X139619898Y-76726935D01*
X139619894Y-76726944D01*
X139558738Y-76955186D01*
X139558736Y-76955196D01*
X139538141Y-77190599D01*
X139538141Y-77190600D01*
X139558736Y-77426003D01*
X139558738Y-77426013D01*
X139619894Y-77654255D01*
X139619896Y-77654259D01*
X139619897Y-77654263D01*
X139623800Y-77662632D01*
X139719765Y-77868430D01*
X139719767Y-77868434D01*
X139793876Y-77974272D01*
X139855301Y-78061996D01*
X139855306Y-78062002D01*
X140022397Y-78229093D01*
X140022403Y-78229098D01*
X140207958Y-78359025D01*
X140251583Y-78413602D01*
X140258777Y-78483100D01*
X140227254Y-78545455D01*
X140207958Y-78562175D01*
X140022397Y-78692105D01*
X139855305Y-78859197D01*
X139719765Y-79052769D01*
X139719764Y-79052771D01*
X139630881Y-79243381D01*
X139621047Y-79264472D01*
X139619898Y-79266935D01*
X139619894Y-79266944D01*
X139558738Y-79495186D01*
X139558736Y-79495196D01*
X139538141Y-79730599D01*
X139538141Y-79730600D01*
X139558736Y-79966003D01*
X139558738Y-79966013D01*
X139619894Y-80194255D01*
X139619896Y-80194259D01*
X139619897Y-80194263D01*
X139638207Y-80233528D01*
X139719765Y-80408430D01*
X139719767Y-80408434D01*
X139817824Y-80548473D01*
X139855301Y-80601996D01*
X139855306Y-80602002D01*
X140022397Y-80769093D01*
X140022403Y-80769098D01*
X140207958Y-80899025D01*
X140251583Y-80953602D01*
X140258777Y-81023100D01*
X140227254Y-81085455D01*
X140207958Y-81102175D01*
X140022397Y-81232105D01*
X139855305Y-81399197D01*
X139719765Y-81592769D01*
X139719764Y-81592771D01*
X139619898Y-81806935D01*
X139619894Y-81806944D01*
X139558738Y-82035186D01*
X139558736Y-82035196D01*
X139538141Y-82270599D01*
X139538141Y-82270600D01*
X139558736Y-82506003D01*
X139558738Y-82506013D01*
X139619894Y-82734255D01*
X139619896Y-82734259D01*
X139619897Y-82734263D01*
X139692764Y-82890527D01*
X139719765Y-82948430D01*
X139719767Y-82948434D01*
X139811758Y-83079810D01*
X139855301Y-83141996D01*
X139855306Y-83142002D01*
X140022397Y-83309093D01*
X140022403Y-83309098D01*
X140207958Y-83439025D01*
X140251583Y-83493602D01*
X140258777Y-83563100D01*
X140227254Y-83625455D01*
X140207958Y-83642175D01*
X140022397Y-83772105D01*
X139855305Y-83939197D01*
X139719765Y-84132769D01*
X139719764Y-84132771D01*
X139619898Y-84346935D01*
X139619894Y-84346944D01*
X139558738Y-84575186D01*
X139558736Y-84575196D01*
X139538141Y-84810599D01*
X139538141Y-84810600D01*
X139558736Y-85046003D01*
X139558738Y-85046013D01*
X139619894Y-85274255D01*
X139619896Y-85274259D01*
X139619897Y-85274263D01*
X139717047Y-85482602D01*
X139719765Y-85488430D01*
X139719767Y-85488434D01*
X139803350Y-85607802D01*
X139855305Y-85682001D01*
X140022399Y-85849095D01*
X140109997Y-85910432D01*
X140215965Y-85984632D01*
X140215967Y-85984633D01*
X140215970Y-85984635D01*
X140430137Y-86084503D01*
X140430143Y-86084504D01*
X140430144Y-86084505D01*
X140485085Y-86099226D01*
X140658392Y-86145663D01*
X140846718Y-86162139D01*
X140893799Y-86166259D01*
X140893800Y-86166259D01*
X140893801Y-86166259D01*
X140933034Y-86162826D01*
X141129208Y-86145663D01*
X141357463Y-86084503D01*
X141571630Y-85984635D01*
X141765201Y-85849095D01*
X141932295Y-85682001D01*
X142062225Y-85496442D01*
X142116802Y-85452817D01*
X142186300Y-85445623D01*
X142248655Y-85477146D01*
X142265375Y-85496442D01*
X142395300Y-85681995D01*
X142395305Y-85682001D01*
X142562399Y-85849095D01*
X142649997Y-85910432D01*
X142755965Y-85984632D01*
X142755967Y-85984633D01*
X142755970Y-85984635D01*
X142970137Y-86084503D01*
X142970143Y-86084504D01*
X142970144Y-86084505D01*
X143025085Y-86099226D01*
X143198392Y-86145663D01*
X143386718Y-86162139D01*
X143433799Y-86166259D01*
X143433800Y-86166259D01*
X143433801Y-86166259D01*
X143473034Y-86162826D01*
X143669208Y-86145663D01*
X143897463Y-86084503D01*
X144111630Y-85984635D01*
X144305201Y-85849095D01*
X144472295Y-85682001D01*
X144607835Y-85488430D01*
X144707703Y-85274263D01*
X144768863Y-85046008D01*
X144789459Y-84810600D01*
X144768863Y-84575192D01*
X144707703Y-84346937D01*
X144607835Y-84132771D01*
X144602225Y-84124758D01*
X144472294Y-83939197D01*
X144305202Y-83772106D01*
X144305201Y-83772105D01*
X144183546Y-83686921D01*
X144119641Y-83642174D01*
X144076016Y-83587597D01*
X144068824Y-83518098D01*
X144100346Y-83455744D01*
X144119636Y-83439028D01*
X144305201Y-83309095D01*
X144354991Y-83259304D01*
X144416313Y-83225819D01*
X144486004Y-83230803D01*
X144511556Y-83243880D01*
X144563139Y-83278346D01*
X144569579Y-83283288D01*
X144746456Y-83438406D01*
X144752195Y-83444144D01*
X144907316Y-83621026D01*
X144912252Y-83627458D01*
X144927496Y-83650272D01*
X145042955Y-83823070D01*
X145047014Y-83830101D01*
X145151066Y-84041097D01*
X145154168Y-84048587D01*
X145205061Y-84198511D01*
X145229791Y-84271365D01*
X145231892Y-84279206D01*
X145249664Y-84368553D01*
X145276349Y-84502709D01*
X145277787Y-84509935D01*
X145278847Y-84517985D01*
X145294367Y-84754785D01*
X145294500Y-84758841D01*
X145294500Y-87824748D01*
X145293985Y-87832725D01*
X145284148Y-87908631D01*
X145276207Y-87938995D01*
X145252042Y-87999030D01*
X145236731Y-88026429D01*
X145198261Y-88078480D01*
X145176562Y-88101157D01*
X145131230Y-88137855D01*
X145070855Y-88164215D01*
X144843610Y-88196886D01*
X144843594Y-88196890D01*
X144620512Y-88262391D01*
X144409014Y-88358976D01*
X144409004Y-88358982D01*
X144213414Y-88484675D01*
X144037688Y-88636934D01*
X143885425Y-88812647D01*
X143885420Y-88812654D01*
X143759718Y-89008236D01*
X143759711Y-89008250D01*
X143663119Y-89219739D01*
X143597603Y-89442831D01*
X143564505Y-89672969D01*
X143564504Y-89672973D01*
X143564503Y-89706555D01*
X143564500Y-89706619D01*
X143564500Y-89789222D01*
X143564496Y-89868884D01*
X143564500Y-89868946D01*
X143564500Y-98093500D01*
X143544815Y-98160539D01*
X143492011Y-98206294D01*
X143440500Y-98217500D01*
X142250398Y-98217500D01*
X142250381Y-98217501D01*
X142147603Y-98228000D01*
X142147600Y-98228001D01*
X141981068Y-98283185D01*
X141981063Y-98283187D01*
X141831742Y-98375289D01*
X141707689Y-98499342D01*
X141615587Y-98648663D01*
X141615585Y-98648668D01*
X141593934Y-98714006D01*
X141560401Y-98815203D01*
X141560401Y-98815204D01*
X141560400Y-98815204D01*
X141549900Y-98917983D01*
X141549900Y-100218001D01*
X141549901Y-100218018D01*
X141560400Y-100320796D01*
X141560401Y-100320799D01*
X141615585Y-100487331D01*
X141615587Y-100487336D01*
X141648630Y-100540907D01*
X141707688Y-100636656D01*
X141831744Y-100760712D01*
X141981066Y-100852814D01*
X141989664Y-100855663D01*
X142047107Y-100895433D01*
X142073931Y-100959948D01*
X142061617Y-101028724D01*
X142032634Y-101065483D01*
X142032827Y-101065676D01*
X142031198Y-101067304D01*
X142030375Y-101068349D01*
X142028999Y-101069503D01*
X141861905Y-101236597D01*
X141726365Y-101430169D01*
X141726364Y-101430171D01*
X141626498Y-101644335D01*
X141626494Y-101644344D01*
X141565338Y-101872586D01*
X141565336Y-101872596D01*
X141544741Y-102107999D01*
X141544741Y-102108000D01*
X141565336Y-102343403D01*
X141565338Y-102343413D01*
X141626494Y-102571655D01*
X141626496Y-102571659D01*
X141626497Y-102571663D01*
X141666410Y-102657256D01*
X141726365Y-102785830D01*
X141726367Y-102785834D01*
X141814679Y-102911955D01*
X141861901Y-102979396D01*
X141861906Y-102979402D01*
X142028997Y-103146493D01*
X142029003Y-103146498D01*
X142214558Y-103276425D01*
X142258183Y-103331002D01*
X142265377Y-103400500D01*
X142233854Y-103462855D01*
X142214558Y-103479575D01*
X142028997Y-103609505D01*
X141861905Y-103776597D01*
X141726366Y-103970168D01*
X141670291Y-104090420D01*
X141624118Y-104142859D01*
X141585502Y-104158905D01*
X141437819Y-104192613D01*
X141251632Y-104235109D01*
X141251629Y-104235109D01*
X141251624Y-104235111D01*
X141251623Y-104235111D01*
X141007220Y-104310500D01*
X140796407Y-104375527D01*
X140796399Y-104375529D01*
X140796396Y-104375531D01*
X140637835Y-104437761D01*
X140352948Y-104549572D01*
X140148563Y-104647999D01*
X139923737Y-104756269D01*
X139511169Y-104994464D01*
X139511168Y-104994465D01*
X139117555Y-105262826D01*
X139038551Y-105325830D01*
X138745102Y-105559847D01*
X138608610Y-105686493D01*
X138395882Y-105883875D01*
X138071855Y-106233093D01*
X137872789Y-106482713D01*
X137774832Y-106605547D01*
X137506467Y-106999165D01*
X137268276Y-107411722D01*
X137262646Y-107423413D01*
X137061576Y-107840939D01*
X136887531Y-108284398D01*
X136845975Y-108419120D01*
X136747113Y-108739618D01*
X136747113Y-108739617D01*
X136703373Y-108931253D01*
X136641104Y-109204068D01*
X136615260Y-109375528D01*
X136570101Y-109675133D01*
X136534500Y-110150189D01*
X136534500Y-129176002D01*
X136515830Y-129698730D01*
X136515514Y-129703146D01*
X136459837Y-130221025D01*
X136459207Y-130225407D01*
X136366727Y-130737989D01*
X136365787Y-130742307D01*
X136360038Y-130764835D01*
X136236976Y-131246986D01*
X136235728Y-131251234D01*
X136071245Y-131745425D01*
X136069698Y-131749573D01*
X135870375Y-132230782D01*
X135868536Y-132234809D01*
X135635393Y-132700570D01*
X135633271Y-132704456D01*
X135367489Y-133152407D01*
X135365096Y-133156132D01*
X135068043Y-133583969D01*
X135065394Y-133587508D01*
X134797727Y-133919663D01*
X134738579Y-133993061D01*
X134735679Y-133996407D01*
X134380753Y-134377623D01*
X134377623Y-134380753D01*
X133996407Y-134735679D01*
X133993065Y-134738575D01*
X133588568Y-135064541D01*
X133587514Y-135065390D01*
X133583969Y-135068043D01*
X133156132Y-135365096D01*
X133152407Y-135367489D01*
X132704456Y-135633271D01*
X132700570Y-135635393D01*
X132234809Y-135868536D01*
X132230782Y-135870375D01*
X131749573Y-136069698D01*
X131745425Y-136071245D01*
X131251234Y-136235728D01*
X131246986Y-136236976D01*
X131016307Y-136295853D01*
X130742307Y-136365787D01*
X130737989Y-136366727D01*
X130225407Y-136459207D01*
X130221025Y-136459837D01*
X129703146Y-136515514D01*
X129698730Y-136515830D01*
X129176002Y-136534500D01*
X109910502Y-136534500D01*
X109433416Y-136516648D01*
X109428800Y-136516302D01*
X109423910Y-136515751D01*
X108956700Y-136463109D01*
X108952116Y-136462418D01*
X108485316Y-136374095D01*
X108480795Y-136373063D01*
X108021891Y-136250101D01*
X108017459Y-136248733D01*
X107569021Y-136091818D01*
X107564704Y-136090123D01*
X107129258Y-135900141D01*
X107125093Y-135898136D01*
X106705052Y-135676137D01*
X106701043Y-135673822D01*
X106298766Y-135421055D01*
X106294933Y-135418442D01*
X105945517Y-135160562D01*
X105912678Y-135136325D01*
X105909059Y-135133439D01*
X105548942Y-134823533D01*
X105545542Y-134820378D01*
X105209621Y-134484457D01*
X105206466Y-134481057D01*
X104896560Y-134120940D01*
X104893676Y-134117325D01*
X104611557Y-133735066D01*
X104608944Y-133731233D01*
X104356177Y-133328956D01*
X104353867Y-133324956D01*
X104131858Y-132904895D01*
X104129858Y-132900741D01*
X103939876Y-132465295D01*
X103938181Y-132460978D01*
X103781266Y-132012540D01*
X103779898Y-132008108D01*
X103764255Y-131949728D01*
X103710624Y-131749573D01*
X103656936Y-131549204D01*
X103655904Y-131544683D01*
X103567581Y-131077883D01*
X103566892Y-131073321D01*
X103547364Y-130900000D01*
X106500032Y-130900000D01*
X107659714Y-130900000D01*
X107647759Y-130911955D01*
X107590235Y-131024852D01*
X107570414Y-131150000D01*
X107590235Y-131275148D01*
X107647759Y-131388045D01*
X107659714Y-131400000D01*
X106504142Y-131400000D01*
X106531170Y-131511409D01*
X106618440Y-131702507D01*
X106740289Y-131873619D01*
X106740295Y-131873625D01*
X106892332Y-132018592D01*
X107069057Y-132132166D01*
X107264085Y-132210244D01*
X107470362Y-132250000D01*
X107725400Y-132250000D01*
X107725400Y-131465686D01*
X107737355Y-131477641D01*
X107850252Y-131535165D01*
X107943919Y-131550000D01*
X108006881Y-131550000D01*
X108100548Y-131535165D01*
X108213445Y-131477641D01*
X108225400Y-131465686D01*
X108225400Y-132250000D01*
X108427798Y-132250000D01*
X108584522Y-132235034D01*
X108584526Y-132235033D01*
X108786086Y-132175850D01*
X108972814Y-132079586D01*
X109137937Y-131949731D01*
X109137940Y-131949728D01*
X109269525Y-131797870D01*
X131874900Y-131797870D01*
X131874901Y-131797876D01*
X131881308Y-131857483D01*
X131931602Y-131992328D01*
X131931606Y-131992335D01*
X132017852Y-132107544D01*
X132017855Y-132107547D01*
X132133064Y-132193793D01*
X132133071Y-132193797D01*
X132267917Y-132244091D01*
X132267916Y-132244091D01*
X132274844Y-132244835D01*
X132327527Y-132250500D01*
X134423272Y-132250499D01*
X134482883Y-132244091D01*
X134617731Y-132193796D01*
X134732946Y-132107546D01*
X134819196Y-131992331D01*
X134869491Y-131857483D01*
X134875900Y-131797873D01*
X134875899Y-130502128D01*
X134869491Y-130442517D01*
X134863472Y-130426380D01*
X134819197Y-130307671D01*
X134819193Y-130307664D01*
X134732947Y-130192455D01*
X134732944Y-130192452D01*
X134617735Y-130106206D01*
X134617728Y-130106202D01*
X134482882Y-130055908D01*
X134482883Y-130055908D01*
X134423283Y-130049501D01*
X134423281Y-130049500D01*
X134423273Y-130049500D01*
X134423264Y-130049500D01*
X132327529Y-130049500D01*
X132327523Y-130049501D01*
X132267916Y-130055908D01*
X132133071Y-130106202D01*
X132133064Y-130106206D01*
X132017855Y-130192452D01*
X132017852Y-130192455D01*
X131931606Y-130307664D01*
X131931602Y-130307671D01*
X131881308Y-130442517D01*
X131880017Y-130454530D01*
X131874901Y-130502123D01*
X131874900Y-130502135D01*
X131874900Y-131797870D01*
X109269525Y-131797870D01*
X109275505Y-131790969D01*
X109275514Y-131790958D01*
X109380544Y-131609039D01*
X109380547Y-131609032D01*
X109449255Y-131410517D01*
X109449255Y-131410515D01*
X109450768Y-131400000D01*
X108291086Y-131400000D01*
X108303041Y-131388045D01*
X108360565Y-131275148D01*
X108380386Y-131150000D01*
X108360565Y-131024852D01*
X108303041Y-130911955D01*
X108291086Y-130900000D01*
X109446657Y-130900000D01*
X109419629Y-130788590D01*
X109332359Y-130597492D01*
X109210510Y-130426380D01*
X109210504Y-130426374D01*
X109058467Y-130281407D01*
X108881742Y-130167833D01*
X108686714Y-130089755D01*
X108480438Y-130050000D01*
X108225400Y-130050000D01*
X108225400Y-130834314D01*
X108213445Y-130822359D01*
X108100548Y-130764835D01*
X108006881Y-130750000D01*
X107943919Y-130750000D01*
X107850252Y-130764835D01*
X107737355Y-130822359D01*
X107725400Y-130834314D01*
X107725400Y-130050000D01*
X107523002Y-130050000D01*
X107366277Y-130064965D01*
X107366273Y-130064966D01*
X107164713Y-130124149D01*
X106977985Y-130220413D01*
X106812862Y-130350268D01*
X106812859Y-130350271D01*
X106675294Y-130509030D01*
X106675285Y-130509041D01*
X106570255Y-130690960D01*
X106570252Y-130690967D01*
X106501544Y-130889482D01*
X106501544Y-130889484D01*
X106500032Y-130900000D01*
X103547364Y-130900000D01*
X103513695Y-130601174D01*
X103513352Y-130596607D01*
X103495500Y-130119498D01*
X103495500Y-130043549D01*
X103495500Y-130043548D01*
X103495500Y-128557401D01*
X106471146Y-128557401D01*
X106481145Y-128767327D01*
X106530696Y-128971578D01*
X106530698Y-128971582D01*
X106617998Y-129162743D01*
X106618001Y-129162748D01*
X106618002Y-129162750D01*
X106618004Y-129162753D01*
X106681027Y-129251256D01*
X106739915Y-129333953D01*
X106739920Y-129333959D01*
X106892020Y-129478985D01*
X106986978Y-129540011D01*
X107068828Y-129592613D01*
X107263943Y-129670725D01*
X107367129Y-129690612D01*
X107470314Y-129710500D01*
X107470315Y-129710500D01*
X108427819Y-129710500D01*
X108427825Y-129710500D01*
X108584618Y-129695528D01*
X108786275Y-129636316D01*
X108973082Y-129540011D01*
X109138286Y-129410092D01*
X109275919Y-129251256D01*
X109301132Y-129207587D01*
X109381001Y-129069249D01*
X109381000Y-129069249D01*
X109381004Y-129069244D01*
X109449744Y-128870633D01*
X109479654Y-128662602D01*
X109474643Y-128557401D01*
X131871146Y-128557401D01*
X131881145Y-128767327D01*
X131930696Y-128971578D01*
X131930698Y-128971582D01*
X132017998Y-129162743D01*
X132018001Y-129162748D01*
X132018002Y-129162750D01*
X132018004Y-129162753D01*
X132081027Y-129251256D01*
X132139915Y-129333953D01*
X132139920Y-129333959D01*
X132292020Y-129478985D01*
X132386978Y-129540011D01*
X132468828Y-129592613D01*
X132663943Y-129670725D01*
X132767129Y-129690612D01*
X132870314Y-129710500D01*
X132870315Y-129710500D01*
X133827819Y-129710500D01*
X133827825Y-129710500D01*
X133984618Y-129695528D01*
X134186275Y-129636316D01*
X134373082Y-129540011D01*
X134538286Y-129410092D01*
X134675919Y-129251256D01*
X134701132Y-129207587D01*
X134781001Y-129069249D01*
X134781000Y-129069249D01*
X134781004Y-129069244D01*
X134849744Y-128870633D01*
X134879654Y-128662602D01*
X134869654Y-128452670D01*
X134820104Y-128248424D01*
X134820101Y-128248417D01*
X134732801Y-128057256D01*
X134732798Y-128057251D01*
X134732797Y-128057250D01*
X134732796Y-128057247D01*
X134610886Y-127886048D01*
X134610884Y-127886046D01*
X134610879Y-127886040D01*
X134458779Y-127741014D01*
X134281974Y-127627388D01*
X134086855Y-127549274D01*
X133880486Y-127509500D01*
X133880485Y-127509500D01*
X132922975Y-127509500D01*
X132766182Y-127524472D01*
X132766178Y-127524473D01*
X132564527Y-127583683D01*
X132377713Y-127679991D01*
X132212516Y-127809905D01*
X132212512Y-127809909D01*
X132074878Y-127968746D01*
X131969798Y-128150750D01*
X131901056Y-128349365D01*
X131901056Y-128349367D01*
X131883966Y-128468237D01*
X131871146Y-128557401D01*
X109474643Y-128557401D01*
X109469654Y-128452670D01*
X109420104Y-128248424D01*
X109420101Y-128248417D01*
X109332801Y-128057256D01*
X109332798Y-128057251D01*
X109332797Y-128057250D01*
X109332796Y-128057247D01*
X109210886Y-127886048D01*
X109210884Y-127886046D01*
X109210879Y-127886040D01*
X109058779Y-127741014D01*
X108881974Y-127627388D01*
X108686855Y-127549274D01*
X108480486Y-127509500D01*
X108480485Y-127509500D01*
X107522975Y-127509500D01*
X107366182Y-127524472D01*
X107366178Y-127524473D01*
X107164527Y-127583683D01*
X106977713Y-127679991D01*
X106812516Y-127809905D01*
X106812512Y-127809909D01*
X106674878Y-127968746D01*
X106569798Y-128150750D01*
X106501056Y-128349365D01*
X106501056Y-128349367D01*
X106483966Y-128468237D01*
X106471146Y-128557401D01*
X103495500Y-128557401D01*
X103495500Y-126055398D01*
X103497159Y-126017401D01*
X106471146Y-126017401D01*
X106481145Y-126227327D01*
X106530696Y-126431578D01*
X106530698Y-126431582D01*
X106617998Y-126622743D01*
X106618001Y-126622748D01*
X106618002Y-126622750D01*
X106618004Y-126622753D01*
X106681027Y-126711256D01*
X106739915Y-126793953D01*
X106739920Y-126793959D01*
X106892020Y-126938985D01*
X106986978Y-127000011D01*
X107068828Y-127052613D01*
X107263943Y-127130725D01*
X107367129Y-127150612D01*
X107470314Y-127170500D01*
X107470315Y-127170500D01*
X108427819Y-127170500D01*
X108427825Y-127170500D01*
X108584618Y-127155528D01*
X108786275Y-127096316D01*
X108973082Y-127000011D01*
X109138286Y-126870092D01*
X109275919Y-126711256D01*
X109381004Y-126529244D01*
X109449744Y-126330633D01*
X109479654Y-126122602D01*
X109474643Y-126017401D01*
X131871146Y-126017401D01*
X131881145Y-126227327D01*
X131930696Y-126431578D01*
X131930698Y-126431582D01*
X132017998Y-126622743D01*
X132018001Y-126622748D01*
X132018002Y-126622750D01*
X132018004Y-126622753D01*
X132081027Y-126711256D01*
X132139915Y-126793953D01*
X132139920Y-126793959D01*
X132292020Y-126938985D01*
X132386978Y-127000011D01*
X132468828Y-127052613D01*
X132663943Y-127130725D01*
X132767129Y-127150612D01*
X132870314Y-127170500D01*
X132870315Y-127170500D01*
X133827819Y-127170500D01*
X133827825Y-127170500D01*
X133984618Y-127155528D01*
X134186275Y-127096316D01*
X134373082Y-127000011D01*
X134538286Y-126870092D01*
X134675919Y-126711256D01*
X134781004Y-126529244D01*
X134849744Y-126330633D01*
X134879654Y-126122602D01*
X134869654Y-125912670D01*
X134820104Y-125708424D01*
X134799818Y-125664004D01*
X134732801Y-125517256D01*
X134732798Y-125517251D01*
X134732797Y-125517250D01*
X134732796Y-125517247D01*
X134610886Y-125346048D01*
X134610884Y-125346046D01*
X134610879Y-125346040D01*
X134458779Y-125201014D01*
X134281974Y-125087388D01*
X134086855Y-125009274D01*
X133880486Y-124969500D01*
X133880485Y-124969500D01*
X132922975Y-124969500D01*
X132766182Y-124984472D01*
X132766178Y-124984473D01*
X132564527Y-125043683D01*
X132377713Y-125139991D01*
X132212516Y-125269905D01*
X132212512Y-125269909D01*
X132074878Y-125428746D01*
X131969798Y-125610750D01*
X131901056Y-125809365D01*
X131901056Y-125809367D01*
X131886204Y-125912670D01*
X131871146Y-126017401D01*
X109474643Y-126017401D01*
X109469654Y-125912670D01*
X109420104Y-125708424D01*
X109399818Y-125664004D01*
X109332801Y-125517256D01*
X109332798Y-125517251D01*
X109332797Y-125517250D01*
X109332796Y-125517247D01*
X109210886Y-125346048D01*
X109210884Y-125346046D01*
X109210879Y-125346040D01*
X109058779Y-125201014D01*
X108881974Y-125087388D01*
X108686855Y-125009274D01*
X108480486Y-124969500D01*
X108480485Y-124969500D01*
X107522975Y-124969500D01*
X107366182Y-124984472D01*
X107366178Y-124984473D01*
X107164527Y-125043683D01*
X106977713Y-125139991D01*
X106812516Y-125269905D01*
X106812512Y-125269909D01*
X106674878Y-125428746D01*
X106569798Y-125610750D01*
X106501056Y-125809365D01*
X106501056Y-125809367D01*
X106486204Y-125912670D01*
X106471146Y-126017401D01*
X103497159Y-126017401D01*
X103512353Y-125669372D01*
X103512822Y-125664024D01*
X103562903Y-125283619D01*
X103563841Y-125278307D01*
X103646883Y-124903731D01*
X103648277Y-124898524D01*
X103763654Y-124532593D01*
X103765501Y-124527521D01*
X103771677Y-124512611D01*
X103912333Y-124173037D01*
X103914596Y-124168185D01*
X104091770Y-123827838D01*
X104094466Y-123823170D01*
X104181293Y-123686879D01*
X104300616Y-123499578D01*
X104303703Y-123495168D01*
X104317336Y-123477401D01*
X106471146Y-123477401D01*
X106481145Y-123687327D01*
X106530696Y-123891578D01*
X106530698Y-123891582D01*
X106617998Y-124082743D01*
X106618001Y-124082748D01*
X106618002Y-124082750D01*
X106618004Y-124082753D01*
X106739914Y-124253952D01*
X106739915Y-124253953D01*
X106739920Y-124253959D01*
X106892020Y-124398985D01*
X106986978Y-124460011D01*
X107068828Y-124512613D01*
X107263943Y-124590725D01*
X107367129Y-124610612D01*
X107470314Y-124630500D01*
X107470315Y-124630500D01*
X108427819Y-124630500D01*
X108427825Y-124630500D01*
X108584618Y-124615528D01*
X108786275Y-124556316D01*
X108973082Y-124460011D01*
X109138286Y-124330092D01*
X109275919Y-124171256D01*
X109320300Y-124094387D01*
X109381001Y-123989249D01*
X109381000Y-123989249D01*
X109381004Y-123989244D01*
X109449744Y-123790633D01*
X109479654Y-123582602D01*
X109474643Y-123477401D01*
X131871146Y-123477401D01*
X131881145Y-123687327D01*
X131930696Y-123891578D01*
X131930698Y-123891582D01*
X132017998Y-124082743D01*
X132018001Y-124082748D01*
X132018002Y-124082750D01*
X132018004Y-124082753D01*
X132139914Y-124253952D01*
X132139915Y-124253953D01*
X132139920Y-124253959D01*
X132292020Y-124398985D01*
X132386978Y-124460011D01*
X132468828Y-124512613D01*
X132663943Y-124590725D01*
X132767129Y-124610612D01*
X132870314Y-124630500D01*
X132870315Y-124630500D01*
X133827819Y-124630500D01*
X133827825Y-124630500D01*
X133984618Y-124615528D01*
X134186275Y-124556316D01*
X134373082Y-124460011D01*
X134538286Y-124330092D01*
X134675919Y-124171256D01*
X134720300Y-124094387D01*
X134781001Y-123989249D01*
X134781000Y-123989249D01*
X134781004Y-123989244D01*
X134849744Y-123790633D01*
X134879654Y-123582602D01*
X134869654Y-123372670D01*
X134820104Y-123168424D01*
X134784105Y-123089597D01*
X134732801Y-122977256D01*
X134732798Y-122977251D01*
X134732797Y-122977250D01*
X134732796Y-122977247D01*
X134610886Y-122806048D01*
X134610884Y-122806046D01*
X134610879Y-122806040D01*
X134458779Y-122661014D01*
X134281974Y-122547388D01*
X134206288Y-122517088D01*
X134086857Y-122469275D01*
X134086855Y-122469274D01*
X133880486Y-122429500D01*
X133880485Y-122429500D01*
X132922975Y-122429500D01*
X132766182Y-122444472D01*
X132766178Y-122444473D01*
X132564527Y-122503683D01*
X132377713Y-122599991D01*
X132212516Y-122729905D01*
X132212512Y-122729909D01*
X132074878Y-122888746D01*
X131969798Y-123070750D01*
X131901056Y-123269365D01*
X131901056Y-123269367D01*
X131883610Y-123390713D01*
X131871146Y-123477401D01*
X109474643Y-123477401D01*
X109469654Y-123372670D01*
X109420104Y-123168424D01*
X109384105Y-123089597D01*
X109332801Y-122977256D01*
X109332798Y-122977251D01*
X109332797Y-122977250D01*
X109332796Y-122977247D01*
X109210886Y-122806048D01*
X109210884Y-122806046D01*
X109210879Y-122806040D01*
X109058779Y-122661014D01*
X108881974Y-122547388D01*
X108806288Y-122517088D01*
X108686857Y-122469275D01*
X108686855Y-122469274D01*
X108480486Y-122429500D01*
X108480485Y-122429500D01*
X107522975Y-122429500D01*
X107366182Y-122444472D01*
X107366178Y-122444473D01*
X107164527Y-122503683D01*
X106977713Y-122599991D01*
X106812516Y-122729905D01*
X106812512Y-122729909D01*
X106674878Y-122888746D01*
X106569798Y-123070750D01*
X106501056Y-123269365D01*
X106501056Y-123269367D01*
X106483610Y-123390713D01*
X106471146Y-123477401D01*
X104317336Y-123477401D01*
X104537284Y-123190760D01*
X104540743Y-123186639D01*
X104799956Y-122903758D01*
X104803759Y-122899955D01*
X105086640Y-122640742D01*
X105090761Y-122637283D01*
X105395169Y-122403702D01*
X105399579Y-122400615D01*
X105723172Y-122194465D01*
X105727840Y-122191769D01*
X106068186Y-122014596D01*
X106073038Y-122012333D01*
X106427532Y-121865497D01*
X106432594Y-121863654D01*
X106711681Y-121775657D01*
X106781537Y-121774272D01*
X106834539Y-121804176D01*
X106892023Y-121858987D01*
X106998801Y-121927609D01*
X107068828Y-121972613D01*
X107263943Y-122050725D01*
X107327051Y-122062888D01*
X107470314Y-122090500D01*
X107470315Y-122090500D01*
X108427819Y-122090500D01*
X108427825Y-122090500D01*
X108584618Y-122075528D01*
X108786275Y-122016316D01*
X108973082Y-121920011D01*
X109138286Y-121790092D01*
X109275919Y-121631256D01*
X109381004Y-121449244D01*
X109449744Y-121250633D01*
X109479654Y-121042602D01*
X109474643Y-120937401D01*
X131871146Y-120937401D01*
X131881145Y-121147327D01*
X131930696Y-121351578D01*
X131930698Y-121351582D01*
X132017998Y-121542743D01*
X132018001Y-121542748D01*
X132018002Y-121542750D01*
X132018004Y-121542753D01*
X132124298Y-121692022D01*
X132139915Y-121713953D01*
X132139920Y-121713959D01*
X132292020Y-121858985D01*
X132398801Y-121927609D01*
X132468828Y-121972613D01*
X132663943Y-122050725D01*
X132727051Y-122062888D01*
X132870314Y-122090500D01*
X132870315Y-122090500D01*
X133827819Y-122090500D01*
X133827825Y-122090500D01*
X133984618Y-122075528D01*
X134186275Y-122016316D01*
X134373082Y-121920011D01*
X134538286Y-121790092D01*
X134675919Y-121631256D01*
X134781004Y-121449244D01*
X134849744Y-121250633D01*
X134879654Y-121042602D01*
X134869654Y-120832670D01*
X134820104Y-120628424D01*
X134820101Y-120628417D01*
X134732801Y-120437256D01*
X134732798Y-120437251D01*
X134732797Y-120437250D01*
X134732796Y-120437247D01*
X134610886Y-120266048D01*
X134610884Y-120266046D01*
X134610879Y-120266040D01*
X134458779Y-120121014D01*
X134281974Y-120007388D01*
X134086855Y-119929274D01*
X133880486Y-119889500D01*
X133880485Y-119889500D01*
X132922975Y-119889500D01*
X132766182Y-119904472D01*
X132766178Y-119904473D01*
X132564527Y-119963683D01*
X132377713Y-120059991D01*
X132212516Y-120189905D01*
X132212512Y-120189909D01*
X132074878Y-120348746D01*
X131969798Y-120530750D01*
X131901056Y-120729365D01*
X131901056Y-120729367D01*
X131886204Y-120832670D01*
X131871146Y-120937401D01*
X109474643Y-120937401D01*
X109469654Y-120832670D01*
X109420104Y-120628424D01*
X109420101Y-120628417D01*
X109332801Y-120437256D01*
X109332798Y-120437251D01*
X109332797Y-120437250D01*
X109332796Y-120437247D01*
X109210886Y-120266048D01*
X109210884Y-120266046D01*
X109210879Y-120266040D01*
X109058779Y-120121014D01*
X108881974Y-120007388D01*
X108686855Y-119929274D01*
X108480486Y-119889500D01*
X108480485Y-119889500D01*
X107522975Y-119889500D01*
X107366182Y-119904472D01*
X107366178Y-119904473D01*
X107164527Y-119963683D01*
X106977713Y-120059991D01*
X106812516Y-120189905D01*
X106812512Y-120189909D01*
X106674878Y-120348746D01*
X106607075Y-120466186D01*
X106556508Y-120514402D01*
X106528638Y-120524759D01*
X106404035Y-120554674D01*
X106238689Y-120608398D01*
X105977240Y-120693347D01*
X105977241Y-120693347D01*
X105977236Y-120693348D01*
X105977236Y-120693349D01*
X105562632Y-120865084D01*
X105162781Y-121068818D01*
X105162777Y-121068820D01*
X105162770Y-121068824D01*
X104866085Y-121250633D01*
X104780147Y-121303296D01*
X104579267Y-121449244D01*
X104417086Y-121567075D01*
X104341940Y-121631256D01*
X104075847Y-121858521D01*
X103758523Y-122175845D01*
X103658014Y-122293526D01*
X103467076Y-122517085D01*
X103445060Y-122547388D01*
X103203298Y-122880145D01*
X103203295Y-122880150D01*
X102968825Y-123262768D01*
X102968821Y-123262775D01*
X102968819Y-123262779D01*
X102765085Y-123662630D01*
X102765083Y-123662635D01*
X102765083Y-123662634D01*
X102593348Y-124077238D01*
X102563025Y-124170564D01*
X102454674Y-124504033D01*
X102349912Y-124940397D01*
X102279710Y-125383636D01*
X102279709Y-125383644D01*
X102279709Y-125383643D01*
X102254148Y-125708424D01*
X102244500Y-125831016D01*
X102244500Y-125976379D01*
X102244500Y-130043548D01*
X102244500Y-130119498D01*
X102244500Y-130381376D01*
X102280242Y-130903912D01*
X102351560Y-131422791D01*
X102390261Y-131609032D01*
X102458119Y-131935587D01*
X102535096Y-132210322D01*
X102599429Y-132439928D01*
X102774825Y-132933444D01*
X102774829Y-132933453D01*
X102774829Y-132933454D01*
X102983488Y-133413836D01*
X102983490Y-133413840D01*
X103112372Y-133662571D01*
X103224448Y-133878869D01*
X103496580Y-134326372D01*
X103496588Y-134326384D01*
X103798628Y-134754278D01*
X104129165Y-135160562D01*
X104486657Y-135543343D01*
X104869438Y-135900835D01*
X105189295Y-136161058D01*
X105275726Y-136231375D01*
X105302255Y-136250101D01*
X105703616Y-136533412D01*
X105703620Y-136533414D01*
X105703628Y-136533420D01*
X105703627Y-136533419D01*
X105802421Y-136593497D01*
X106138764Y-136798032D01*
X106151131Y-136805552D01*
X106259525Y-136861717D01*
X106616160Y-137046510D01*
X106616165Y-137046512D01*
X106616164Y-137046512D01*
X107096546Y-137255171D01*
X107096547Y-137255171D01*
X107096556Y-137255175D01*
X107557956Y-137419157D01*
X107590072Y-137430571D01*
X108094413Y-137571881D01*
X108414199Y-137638332D01*
X108607209Y-137678440D01*
X109126088Y-137749758D01*
X109648624Y-137785500D01*
X109648629Y-137785500D01*
X129457845Y-137785500D01*
X129457848Y-137785500D01*
X130020333Y-137748633D01*
X130553491Y-137678441D01*
X130579203Y-137675056D01*
X131132057Y-137565086D01*
X131132058Y-137565086D01*
X131676545Y-137419192D01*
X131676544Y-137419192D01*
X132210328Y-137237996D01*
X132731106Y-137022283D01*
X133236665Y-136772968D01*
X133323979Y-136722557D01*
X133724836Y-136491122D01*
X133724837Y-136491121D01*
X133724841Y-136491119D01*
X133724842Y-136491119D01*
X134193528Y-136177952D01*
X134193529Y-136177952D01*
X134640730Y-135834802D01*
X134676152Y-135803738D01*
X135064541Y-135463131D01*
X135463131Y-135064541D01*
X135834798Y-134640735D01*
X135851364Y-134619146D01*
X136177952Y-134193529D01*
X136177952Y-134193528D01*
X136491119Y-133724842D01*
X136491119Y-133724841D01*
X136503483Y-133703427D01*
X136772968Y-133236665D01*
X136821752Y-133137741D01*
X137022283Y-132731106D01*
X137237996Y-132210328D01*
X137419192Y-131676544D01*
X137419192Y-131676545D01*
X137555375Y-131168299D01*
X137565085Y-131132062D01*
X137626689Y-130822359D01*
X137675056Y-130579203D01*
X137721634Y-130225407D01*
X137748633Y-130020333D01*
X137785500Y-129457848D01*
X137785500Y-129176002D01*
X137785500Y-129100053D01*
X137785500Y-129100052D01*
X137785500Y-110388390D01*
X137802865Y-109968554D01*
X137803285Y-109963485D01*
X137854947Y-109549031D01*
X137855785Y-109544012D01*
X137941493Y-109135253D01*
X137942748Y-109130300D01*
X138061919Y-108730012D01*
X138063565Y-108725219D01*
X138215382Y-108336149D01*
X138217433Y-108331469D01*
X138400862Y-107956262D01*
X138403289Y-107951778D01*
X138417207Y-107928421D01*
X138617080Y-107592992D01*
X138619861Y-107588735D01*
X138862557Y-107248819D01*
X138865671Y-107244820D01*
X139135608Y-106926105D01*
X139139038Y-106922379D01*
X139434379Y-106627038D01*
X139438117Y-106623597D01*
X139756824Y-106353667D01*
X139760838Y-106350543D01*
X140100740Y-106107858D01*
X140104999Y-106105075D01*
X140463791Y-105891282D01*
X140468269Y-105888859D01*
X140843476Y-105705430D01*
X140848156Y-105703379D01*
X140891431Y-105686493D01*
X141237226Y-105551563D01*
X141242026Y-105549915D01*
X141642316Y-105430743D01*
X141647256Y-105429492D01*
X141699444Y-105418549D01*
X141769094Y-105424057D01*
X141824711Y-105466347D01*
X141826463Y-105468786D01*
X141840875Y-105489368D01*
X141861905Y-105519401D01*
X141861906Y-105519402D01*
X141861908Y-105519404D01*
X142028997Y-105686493D01*
X142029003Y-105686498D01*
X142214558Y-105816425D01*
X142258183Y-105871002D01*
X142265377Y-105940500D01*
X142233854Y-106002855D01*
X142214558Y-106019575D01*
X142028997Y-106149505D01*
X141861905Y-106316597D01*
X141726365Y-106510169D01*
X141726364Y-106510171D01*
X141626495Y-106724339D01*
X141624647Y-106729419D01*
X141623029Y-106728830D01*
X141590697Y-106781864D01*
X141554749Y-106804663D01*
X141262644Y-106925656D01*
X141262639Y-106925658D01*
X140931136Y-107102850D01*
X140931118Y-107102861D01*
X140618572Y-107311697D01*
X140618568Y-107311700D01*
X140327980Y-107550178D01*
X140062184Y-107815974D01*
X139823710Y-108106555D01*
X139823700Y-108106569D01*
X139614866Y-108419110D01*
X139614860Y-108419120D01*
X139437659Y-108750637D01*
X139295857Y-109092977D01*
X139293805Y-109097932D01*
X139217121Y-109350725D01*
X139184683Y-109457656D01*
X139184683Y-109457658D01*
X139111349Y-109826325D01*
X139111347Y-109826337D01*
X139111347Y-109826338D01*
X139074500Y-110200436D01*
X139074500Y-110309372D01*
X139074500Y-110309373D01*
X139074500Y-129741068D01*
X139074500Y-129817017D01*
X139074500Y-129817037D01*
X139056087Y-130426380D01*
X139055349Y-130450791D01*
X139055123Y-130454530D01*
X138997910Y-131084116D01*
X138997458Y-131087835D01*
X138902338Y-131712810D01*
X138901663Y-131716495D01*
X138768983Y-132334580D01*
X138768087Y-132338217D01*
X138598322Y-132947191D01*
X138597207Y-132950768D01*
X138390994Y-133548348D01*
X138389666Y-133551850D01*
X138147740Y-134135909D01*
X138146203Y-134139325D01*
X137869460Y-134707701D01*
X137867719Y-134711018D01*
X137557158Y-135261655D01*
X137555220Y-135264861D01*
X137211979Y-135795743D01*
X137209855Y-135798819D01*
X137135302Y-135900141D01*
X136835181Y-136308017D01*
X136832882Y-136310950D01*
X136781119Y-136373063D01*
X136428153Y-136796588D01*
X136425669Y-136799392D01*
X135992356Y-137259707D01*
X135989707Y-137262356D01*
X135529392Y-137695669D01*
X135526588Y-137698153D01*
X135337059Y-137856107D01*
X135040950Y-138102882D01*
X135038017Y-138105181D01*
X134951252Y-138169024D01*
X134665422Y-138379342D01*
X134528826Y-138479851D01*
X134525743Y-138481979D01*
X133994861Y-138825220D01*
X133991655Y-138827158D01*
X133441018Y-139137719D01*
X133437701Y-139139460D01*
X132869325Y-139416203D01*
X132865909Y-139417740D01*
X132281850Y-139659666D01*
X132278348Y-139660994D01*
X131680768Y-139867207D01*
X131677191Y-139868322D01*
X131068217Y-140038087D01*
X131064580Y-140038983D01*
X130446495Y-140171663D01*
X130442810Y-140172338D01*
X129817835Y-140267458D01*
X129814116Y-140267910D01*
X129290018Y-140315536D01*
X129184526Y-140325123D01*
X129180799Y-140325348D01*
X128547037Y-140344500D01*
X91800794Y-140344500D01*
X91140885Y-140325984D01*
X91137412Y-140325789D01*
X90549257Y-140276179D01*
X90481308Y-140270447D01*
X90477882Y-140270062D01*
X89978595Y-140199574D01*
X89825895Y-140178016D01*
X89822477Y-140177436D01*
X89176690Y-140048980D01*
X89173309Y-140048209D01*
X88535732Y-139883744D01*
X88532389Y-139882781D01*
X87905065Y-139682834D01*
X87901782Y-139681685D01*
X87490846Y-139524823D01*
X87286631Y-139446871D01*
X87283425Y-139445542D01*
X86988490Y-139313567D01*
X86682415Y-139176607D01*
X86679313Y-139175113D01*
X86094317Y-138872897D01*
X86091273Y-138871214D01*
X85524159Y-138536682D01*
X85521213Y-138534831D01*
X84973744Y-138169024D01*
X84970907Y-138167011D01*
X84444815Y-137771086D01*
X84442111Y-137768929D01*
X84027897Y-137419157D01*
X83939035Y-137344120D01*
X83936449Y-137341809D01*
X83844813Y-137255175D01*
X83457992Y-136889467D01*
X83455532Y-136887007D01*
X83370048Y-136796588D01*
X83003186Y-136408545D01*
X83000881Y-136405966D01*
X82718234Y-136071245D01*
X82576070Y-135902888D01*
X82573916Y-135900188D01*
X82177978Y-135374078D01*
X82175975Y-135371255D01*
X82035194Y-135160562D01*
X81810168Y-134823786D01*
X81808317Y-134820840D01*
X81473785Y-134253726D01*
X81472102Y-134250682D01*
X81449886Y-134207679D01*
X81169879Y-133665671D01*
X81168399Y-133662599D01*
X80899452Y-133061562D01*
X80898135Y-133058386D01*
X80663312Y-132443212D01*
X80662171Y-132439952D01*
X80462214Y-131812598D01*
X80461255Y-131809267D01*
X80409604Y-131609032D01*
X80296787Y-131171680D01*
X80296024Y-131168335D01*
X80167558Y-130522493D01*
X80166986Y-130519125D01*
X80074933Y-129867086D01*
X80074554Y-129863723D01*
X80019209Y-129207577D01*
X80019015Y-129204114D01*
X80017854Y-129162748D01*
X80000500Y-128544206D01*
X80000500Y-128544186D01*
X80000500Y-128468236D01*
X80000500Y-84883845D01*
X80000575Y-84880803D01*
X80017741Y-84531338D01*
X80018335Y-84525292D01*
X80069450Y-84180699D01*
X80070634Y-84174741D01*
X80155281Y-83836809D01*
X80157045Y-83830994D01*
X80157827Y-83828811D01*
X80274405Y-83502992D01*
X80276732Y-83497376D01*
X80284976Y-83479947D01*
X80425676Y-83182459D01*
X80428531Y-83177115D01*
X80607637Y-82878295D01*
X80611005Y-82873254D01*
X80818537Y-82593429D01*
X80822371Y-82588757D01*
X81056349Y-82330603D01*
X81060603Y-82326349D01*
X81318757Y-82092371D01*
X81323429Y-82088537D01*
X81603254Y-81881005D01*
X81608295Y-81877637D01*
X81907115Y-81698531D01*
X81912459Y-81695676D01*
X82227384Y-81546728D01*
X82232992Y-81544405D01*
X82561002Y-81427042D01*
X82566809Y-81425281D01*
X82904741Y-81340634D01*
X82910699Y-81339450D01*
X82954054Y-81333019D01*
X83255292Y-81288335D01*
X83261338Y-81287741D01*
X83610804Y-81270575D01*
X83613846Y-81270500D01*
X83688266Y-81270500D01*
X86180451Y-81270500D01*
X86254872Y-81270500D01*
X86257914Y-81270575D01*
X86593075Y-81287040D01*
X86599128Y-81287635D01*
X86724392Y-81306216D01*
X86929548Y-81336649D01*
X86935519Y-81337837D01*
X87259539Y-81419000D01*
X87265365Y-81420767D01*
X87579873Y-81533299D01*
X87585498Y-81535629D01*
X87887463Y-81678448D01*
X87892829Y-81681316D01*
X88129700Y-81823292D01*
X88179332Y-81853040D01*
X88184394Y-81856422D01*
X88217549Y-81881011D01*
X88452705Y-82055414D01*
X88457404Y-82059271D01*
X88704919Y-82283606D01*
X88709194Y-82287881D01*
X88866503Y-82461445D01*
X88933526Y-82535394D01*
X88937388Y-82540100D01*
X89136378Y-82808405D01*
X89139760Y-82813467D01*
X89287362Y-83059727D01*
X89311481Y-83099966D01*
X89314351Y-83105336D01*
X89457174Y-83407311D01*
X89459502Y-83412931D01*
X89480159Y-83470664D01*
X89512743Y-83561730D01*
X89516795Y-83631482D01*
X89482492Y-83692351D01*
X89476872Y-83697431D01*
X89309305Y-83864997D01*
X89179375Y-84050558D01*
X89124798Y-84094183D01*
X89055300Y-84101377D01*
X88992945Y-84069854D01*
X88976225Y-84050558D01*
X88846294Y-83864997D01*
X88679202Y-83697906D01*
X88679195Y-83697901D01*
X88485634Y-83562367D01*
X88485630Y-83562365D01*
X88438955Y-83540600D01*
X88271463Y-83462497D01*
X88271459Y-83462496D01*
X88271455Y-83462494D01*
X88043213Y-83401338D01*
X88043203Y-83401336D01*
X87807801Y-83380741D01*
X87807799Y-83380741D01*
X87572396Y-83401336D01*
X87572386Y-83401338D01*
X87344144Y-83462494D01*
X87344137Y-83462496D01*
X87344137Y-83462497D01*
X87341133Y-83463898D01*
X87129971Y-83562364D01*
X87129969Y-83562365D01*
X86936397Y-83697905D01*
X86769305Y-83864997D01*
X86639375Y-84050558D01*
X86584798Y-84094183D01*
X86515300Y-84101377D01*
X86452945Y-84069854D01*
X86436225Y-84050558D01*
X86306294Y-83864997D01*
X86139202Y-83697906D01*
X86139195Y-83697901D01*
X85945634Y-83562367D01*
X85945630Y-83562365D01*
X85898955Y-83540600D01*
X85731463Y-83462497D01*
X85731459Y-83462496D01*
X85731455Y-83462494D01*
X85503213Y-83401338D01*
X85503203Y-83401336D01*
X85267801Y-83380741D01*
X85267799Y-83380741D01*
X85032396Y-83401336D01*
X85032386Y-83401338D01*
X84804144Y-83462494D01*
X84804137Y-83462496D01*
X84804137Y-83462497D01*
X84801133Y-83463898D01*
X84589971Y-83562364D01*
X84589969Y-83562365D01*
X84396397Y-83697905D01*
X84229305Y-83864997D01*
X84093765Y-84058569D01*
X84093764Y-84058571D01*
X83993898Y-84272735D01*
X83993894Y-84272744D01*
X83932738Y-84500986D01*
X83932736Y-84500996D01*
X83912141Y-84736399D01*
X83912141Y-84736400D01*
X83932736Y-84971803D01*
X83932738Y-84971813D01*
X83993894Y-85200055D01*
X83993896Y-85200059D01*
X83993897Y-85200063D01*
X84028497Y-85274263D01*
X84093765Y-85414230D01*
X84093767Y-85414234D01*
X84151476Y-85496650D01*
X84229305Y-85607801D01*
X84396399Y-85774895D01*
X84493184Y-85842665D01*
X84589965Y-85910432D01*
X84589967Y-85910433D01*
X84589970Y-85910435D01*
X84804137Y-86010303D01*
X84804143Y-86010304D01*
X84804144Y-86010305D01*
X84842469Y-86020574D01*
X85032392Y-86071463D01*
X85220718Y-86087939D01*
X85267799Y-86092059D01*
X85267800Y-86092059D01*
X85267801Y-86092059D01*
X85307034Y-86088626D01*
X85503208Y-86071463D01*
X85731463Y-86010303D01*
X85945630Y-85910435D01*
X86139201Y-85774895D01*
X86306295Y-85607801D01*
X86436225Y-85422242D01*
X86490802Y-85378617D01*
X86560300Y-85371423D01*
X86622655Y-85402946D01*
X86639375Y-85422242D01*
X86769300Y-85607795D01*
X86769305Y-85607801D01*
X86936399Y-85774895D01*
X87033184Y-85842665D01*
X87129965Y-85910432D01*
X87129967Y-85910433D01*
X87129970Y-85910435D01*
X87344137Y-86010303D01*
X87344143Y-86010304D01*
X87344144Y-86010305D01*
X87382469Y-86020574D01*
X87572392Y-86071463D01*
X87760718Y-86087939D01*
X87807799Y-86092059D01*
X87807800Y-86092059D01*
X87807801Y-86092059D01*
X87847034Y-86088626D01*
X88043208Y-86071463D01*
X88271463Y-86010303D01*
X88485630Y-85910435D01*
X88679201Y-85774895D01*
X88846295Y-85607801D01*
X88976225Y-85422242D01*
X89030802Y-85378617D01*
X89100300Y-85371423D01*
X89162655Y-85402946D01*
X89179375Y-85422242D01*
X89309300Y-85607795D01*
X89309305Y-85607801D01*
X89476399Y-85774895D01*
X89573184Y-85842665D01*
X89669965Y-85910432D01*
X89669967Y-85910433D01*
X89669970Y-85910435D01*
X89884137Y-86010303D01*
X89884143Y-86010304D01*
X89884144Y-86010305D01*
X89922469Y-86020574D01*
X90112392Y-86071463D01*
X90300718Y-86087939D01*
X90347799Y-86092059D01*
X90347800Y-86092059D01*
X90347801Y-86092059D01*
X90387034Y-86088626D01*
X90583208Y-86071463D01*
X90811463Y-86010303D01*
X91025630Y-85910435D01*
X91219201Y-85774895D01*
X91386295Y-85607801D01*
X91516225Y-85422242D01*
X91570802Y-85378617D01*
X91640300Y-85371423D01*
X91702655Y-85402946D01*
X91719375Y-85422242D01*
X91849300Y-85607795D01*
X91849305Y-85607801D01*
X92016399Y-85774895D01*
X92113184Y-85842665D01*
X92209965Y-85910432D01*
X92209967Y-85910433D01*
X92209970Y-85910435D01*
X92424137Y-86010303D01*
X92424143Y-86010304D01*
X92424144Y-86010305D01*
X92462469Y-86020574D01*
X92652392Y-86071463D01*
X92840718Y-86087939D01*
X92887799Y-86092059D01*
X92887800Y-86092059D01*
X92887801Y-86092059D01*
X92927034Y-86088626D01*
X93123208Y-86071463D01*
X93351463Y-86010303D01*
X93565630Y-85910435D01*
X93759201Y-85774895D01*
X93926295Y-85607801D01*
X94056225Y-85422242D01*
X94110802Y-85378617D01*
X94180300Y-85371423D01*
X94242655Y-85402946D01*
X94259375Y-85422242D01*
X94389300Y-85607795D01*
X94389305Y-85607801D01*
X94556399Y-85774895D01*
X94653184Y-85842665D01*
X94749965Y-85910432D01*
X94749967Y-85910433D01*
X94749970Y-85910435D01*
X94964137Y-86010303D01*
X94964143Y-86010304D01*
X94964144Y-86010305D01*
X95002469Y-86020574D01*
X95192392Y-86071463D01*
X95380718Y-86087939D01*
X95427799Y-86092059D01*
X95427800Y-86092059D01*
X95427801Y-86092059D01*
X95467034Y-86088626D01*
X95663208Y-86071463D01*
X95891463Y-86010303D01*
X95908096Y-86002546D01*
X95977172Y-85992055D01*
X96040956Y-86020574D01*
X96079196Y-86079050D01*
X96084500Y-86114929D01*
X96084500Y-97024863D01*
X96084499Y-97024884D01*
X96084500Y-97104136D01*
X96084500Y-97145171D01*
X96084501Y-97145208D01*
X96084501Y-97288201D01*
X96118472Y-97654766D01*
X96118474Y-97654783D01*
X96186117Y-98016628D01*
X96186121Y-98016645D01*
X96286866Y-98370717D01*
X96286872Y-98370737D01*
X96419858Y-98714006D01*
X96583950Y-99043545D01*
X96777750Y-99356542D01*
X96777754Y-99356547D01*
X96999608Y-99650327D01*
X96999612Y-99650331D01*
X97247616Y-99922380D01*
X97519676Y-100170395D01*
X97519685Y-100170402D01*
X97573115Y-100210750D01*
X97813461Y-100392251D01*
X98126459Y-100586052D01*
X98456002Y-100750146D01*
X98799281Y-100883134D01*
X99153366Y-100983881D01*
X99515236Y-101051528D01*
X99515245Y-101051528D01*
X99515246Y-101051529D01*
X99575763Y-101057137D01*
X99881805Y-101085498D01*
X99975491Y-101085498D01*
X99975499Y-101085499D01*
X99989933Y-101085499D01*
X100064007Y-101085499D01*
X100067751Y-101085612D01*
X100346178Y-101102451D01*
X100353610Y-101103355D01*
X100425594Y-101116545D01*
X100626126Y-101153293D01*
X100633391Y-101155085D01*
X100897898Y-101237507D01*
X100904905Y-101240164D01*
X101157543Y-101353866D01*
X101164179Y-101357349D01*
X101401269Y-101500674D01*
X101407436Y-101504931D01*
X101625526Y-101675792D01*
X101631127Y-101680753D01*
X101827039Y-101876665D01*
X101832001Y-101882266D01*
X102002863Y-102100355D01*
X102007120Y-102106522D01*
X102150447Y-102343612D01*
X102153930Y-102350248D01*
X102267636Y-102602894D01*
X102270291Y-102609896D01*
X102344617Y-102848417D01*
X102352711Y-102874393D01*
X102354505Y-102881669D01*
X102404443Y-103154179D01*
X102405347Y-103161618D01*
X102422187Y-103440025D01*
X102422300Y-103443769D01*
X102422300Y-115461173D01*
X102402615Y-115528212D01*
X102369423Y-115562748D01*
X102176397Y-115697905D01*
X102009305Y-115864997D01*
X101879375Y-116050558D01*
X101824798Y-116094183D01*
X101755300Y-116101377D01*
X101692945Y-116069854D01*
X101676225Y-116050558D01*
X101546294Y-115864997D01*
X101379202Y-115697906D01*
X101379195Y-115697901D01*
X101352774Y-115679401D01*
X101270045Y-115621473D01*
X101185634Y-115562367D01*
X101185630Y-115562365D01*
X101185628Y-115562364D01*
X100971463Y-115462497D01*
X100971459Y-115462496D01*
X100971455Y-115462494D01*
X100743213Y-115401338D01*
X100743203Y-115401336D01*
X100507801Y-115380741D01*
X100507799Y-115380741D01*
X100272396Y-115401336D01*
X100272386Y-115401338D01*
X100044144Y-115462494D01*
X100044135Y-115462498D01*
X99829971Y-115562364D01*
X99829969Y-115562365D01*
X99636397Y-115697905D01*
X99469305Y-115864997D01*
X99339375Y-116050558D01*
X99284798Y-116094183D01*
X99215300Y-116101377D01*
X99152945Y-116069854D01*
X99136225Y-116050558D01*
X99006294Y-115864997D01*
X98839202Y-115697906D01*
X98839195Y-115697901D01*
X98812774Y-115679401D01*
X98730045Y-115621473D01*
X98645634Y-115562367D01*
X98645630Y-115562365D01*
X98645628Y-115562364D01*
X98431463Y-115462497D01*
X98431459Y-115462496D01*
X98431455Y-115462494D01*
X98203213Y-115401338D01*
X98203203Y-115401336D01*
X97967801Y-115380741D01*
X97967799Y-115380741D01*
X97732396Y-115401336D01*
X97732386Y-115401338D01*
X97504144Y-115462494D01*
X97504135Y-115462498D01*
X97289971Y-115562364D01*
X97289969Y-115562365D01*
X97096397Y-115697905D01*
X96929305Y-115864997D01*
X96799375Y-116050558D01*
X96744798Y-116094183D01*
X96675300Y-116101377D01*
X96612945Y-116069854D01*
X96596225Y-116050558D01*
X96466294Y-115864997D01*
X96299202Y-115697906D01*
X96299195Y-115697901D01*
X96272774Y-115679401D01*
X96190045Y-115621473D01*
X96105634Y-115562367D01*
X96105630Y-115562365D01*
X96105628Y-115562364D01*
X95891463Y-115462497D01*
X95891459Y-115462496D01*
X95891455Y-115462494D01*
X95663213Y-115401338D01*
X95663203Y-115401336D01*
X95427801Y-115380741D01*
X95427799Y-115380741D01*
X95192396Y-115401336D01*
X95192386Y-115401338D01*
X94964144Y-115462494D01*
X94964135Y-115462498D01*
X94749971Y-115562364D01*
X94749969Y-115562365D01*
X94556397Y-115697905D01*
X94389305Y-115864997D01*
X94259375Y-116050558D01*
X94204798Y-116094183D01*
X94135300Y-116101377D01*
X94072945Y-116069854D01*
X94056225Y-116050558D01*
X93926294Y-115864997D01*
X93759202Y-115697906D01*
X93759195Y-115697901D01*
X93732774Y-115679401D01*
X93650045Y-115621473D01*
X93565634Y-115562367D01*
X93565630Y-115562365D01*
X93565628Y-115562364D01*
X93351463Y-115462497D01*
X93351459Y-115462496D01*
X93351455Y-115462494D01*
X93123213Y-115401338D01*
X93123203Y-115401336D01*
X92887801Y-115380741D01*
X92887799Y-115380741D01*
X92652396Y-115401336D01*
X92652386Y-115401338D01*
X92424144Y-115462494D01*
X92424135Y-115462498D01*
X92209971Y-115562364D01*
X92209969Y-115562365D01*
X92016397Y-115697905D01*
X91849305Y-115864997D01*
X91719375Y-116050558D01*
X91664798Y-116094183D01*
X91595300Y-116101377D01*
X91532945Y-116069854D01*
X91516225Y-116050558D01*
X91386294Y-115864997D01*
X91219202Y-115697906D01*
X91219195Y-115697901D01*
X91192774Y-115679401D01*
X91110045Y-115621473D01*
X91025634Y-115562367D01*
X91025630Y-115562365D01*
X91025628Y-115562364D01*
X90811463Y-115462497D01*
X90811459Y-115462496D01*
X90811455Y-115462494D01*
X90583213Y-115401338D01*
X90583203Y-115401336D01*
X90347801Y-115380741D01*
X90347799Y-115380741D01*
X90112396Y-115401336D01*
X90112386Y-115401338D01*
X89884144Y-115462494D01*
X89884135Y-115462498D01*
X89669971Y-115562364D01*
X89669969Y-115562365D01*
X89476397Y-115697905D01*
X89309305Y-115864997D01*
X89179375Y-116050558D01*
X89124798Y-116094183D01*
X89055300Y-116101377D01*
X88992945Y-116069854D01*
X88976225Y-116050558D01*
X88846294Y-115864997D01*
X88679202Y-115697906D01*
X88679195Y-115697901D01*
X88652774Y-115679401D01*
X88570045Y-115621473D01*
X88485634Y-115562367D01*
X88485630Y-115562365D01*
X88485628Y-115562364D01*
X88271463Y-115462497D01*
X88271459Y-115462496D01*
X88271455Y-115462494D01*
X88043213Y-115401338D01*
X88043203Y-115401336D01*
X87807801Y-115380741D01*
X87807799Y-115380741D01*
X87572396Y-115401336D01*
X87572386Y-115401338D01*
X87344144Y-115462494D01*
X87344135Y-115462498D01*
X87129971Y-115562364D01*
X87129969Y-115562365D01*
X86936397Y-115697905D01*
X86769305Y-115864997D01*
X86639069Y-116050995D01*
X86584492Y-116094620D01*
X86514994Y-116101814D01*
X86452639Y-116070291D01*
X86435919Y-116050995D01*
X86382725Y-115975026D01*
X86382725Y-115975025D01*
X85750876Y-116606875D01*
X85727293Y-116526556D01*
X85649561Y-116405602D01*
X85540900Y-116311448D01*
X85410115Y-116251720D01*
X85400333Y-116250313D01*
X86029173Y-115621473D01*
X86029173Y-115621472D01*
X85945383Y-115562802D01*
X85945379Y-115562800D01*
X85731292Y-115462970D01*
X85731283Y-115462966D01*
X85503126Y-115401832D01*
X85503115Y-115401830D01*
X85267802Y-115381243D01*
X85267798Y-115381243D01*
X85032484Y-115401830D01*
X85032473Y-115401832D01*
X84804316Y-115462966D01*
X84804307Y-115462970D01*
X84590219Y-115562801D01*
X84506425Y-115621472D01*
X85135266Y-116250313D01*
X85125485Y-116251720D01*
X84994700Y-116311448D01*
X84886039Y-116405602D01*
X84808307Y-116526556D01*
X84784723Y-116606876D01*
X84152872Y-115975025D01*
X84094201Y-116058819D01*
X83994370Y-116272907D01*
X83994366Y-116272916D01*
X83933232Y-116501073D01*
X83933230Y-116501084D01*
X83912643Y-116736398D01*
X83912643Y-116736401D01*
X83933230Y-116971715D01*
X83933232Y-116971726D01*
X83994366Y-117199883D01*
X83994370Y-117199892D01*
X84094200Y-117413979D01*
X84094202Y-117413983D01*
X84152872Y-117497773D01*
X84152873Y-117497773D01*
X84784723Y-116865923D01*
X84808307Y-116946244D01*
X84886039Y-117067198D01*
X84994700Y-117161352D01*
X85125485Y-117221080D01*
X85135266Y-117222486D01*
X84506425Y-117851325D01*
X84590221Y-117909999D01*
X84804307Y-118009829D01*
X84804316Y-118009833D01*
X85032473Y-118070967D01*
X85032484Y-118070969D01*
X85267798Y-118091557D01*
X85267802Y-118091557D01*
X85503115Y-118070969D01*
X85503126Y-118070967D01*
X85731283Y-118009833D01*
X85731292Y-118009829D01*
X85945378Y-117910000D01*
X85945382Y-117909998D01*
X86029173Y-117851326D01*
X86029173Y-117851325D01*
X85400333Y-117222486D01*
X85410115Y-117221080D01*
X85540900Y-117161352D01*
X85649561Y-117067198D01*
X85727293Y-116946244D01*
X85750876Y-116865924D01*
X86382725Y-117497773D01*
X86435919Y-117421805D01*
X86490496Y-117378181D01*
X86559995Y-117370988D01*
X86622349Y-117402510D01*
X86639069Y-117421805D01*
X86769305Y-117607801D01*
X86769306Y-117607802D01*
X86936395Y-117774892D01*
X86936398Y-117774894D01*
X86936399Y-117774895D01*
X87004423Y-117822525D01*
X87048048Y-117877101D01*
X87057300Y-117924100D01*
X87057300Y-118386358D01*
X87057195Y-118389963D01*
X87053469Y-118453934D01*
X87053469Y-118453935D01*
X87055416Y-118464977D01*
X87057300Y-118486509D01*
X87057300Y-118776294D01*
X87055991Y-118794263D01*
X87052510Y-118818025D01*
X87057064Y-118870064D01*
X87057300Y-118875470D01*
X87057300Y-119416358D01*
X87057195Y-119419963D01*
X87053469Y-119483934D01*
X87053469Y-119483935D01*
X87055416Y-119494977D01*
X87057300Y-119516509D01*
X87057300Y-119922855D01*
X87055635Y-119939145D01*
X87055695Y-119939151D01*
X87055065Y-119946340D01*
X87057300Y-120023116D01*
X87057300Y-120490655D01*
X87055635Y-120506945D01*
X87055695Y-120506951D01*
X87055065Y-120514140D01*
X87057300Y-120590916D01*
X87057300Y-120911449D01*
X87040687Y-120973449D01*
X87012821Y-121021714D01*
X86972007Y-121147327D01*
X86954326Y-121201744D01*
X86934540Y-121390000D01*
X86954326Y-121578256D01*
X86954327Y-121578259D01*
X87012818Y-121758277D01*
X87012821Y-121758284D01*
X87107467Y-121922216D01*
X87207711Y-122033548D01*
X87234129Y-122062888D01*
X87387265Y-122174148D01*
X87387270Y-122174151D01*
X87560192Y-122251142D01*
X87560197Y-122251144D01*
X87745354Y-122290500D01*
X87745355Y-122290500D01*
X87934644Y-122290500D01*
X87934646Y-122290500D01*
X88119803Y-122251144D01*
X88292730Y-122174151D01*
X88445871Y-122062888D01*
X88572533Y-121922216D01*
X88667179Y-121758284D01*
X88725674Y-121578256D01*
X88745460Y-121390000D01*
X88725674Y-121201744D01*
X88667179Y-121021716D01*
X88667176Y-121021710D01*
X88627006Y-120952133D01*
X88610533Y-120884233D01*
X88633386Y-120818206D01*
X88646705Y-120802460D01*
X89222348Y-120226819D01*
X89283671Y-120193334D01*
X89310029Y-120190500D01*
X102557576Y-120190500D01*
X102734868Y-120190502D01*
X103087509Y-120153440D01*
X103434345Y-120079719D01*
X103434355Y-120079715D01*
X103434362Y-120079714D01*
X103771563Y-119970153D01*
X103771566Y-119970152D01*
X103771566Y-119970151D01*
X103771575Y-119970149D01*
X104095504Y-119825927D01*
X104402583Y-119648636D01*
X104689447Y-119440217D01*
X104952955Y-119202955D01*
X105190217Y-118939447D01*
X105398636Y-118652583D01*
X105545964Y-118397401D01*
X106471146Y-118397401D01*
X106481145Y-118607327D01*
X106530696Y-118811578D01*
X106530698Y-118811582D01*
X106617998Y-119002743D01*
X106618001Y-119002748D01*
X106618002Y-119002750D01*
X106618004Y-119002753D01*
X106739914Y-119173952D01*
X106739915Y-119173953D01*
X106739920Y-119173959D01*
X106892020Y-119318985D01*
X106986978Y-119380011D01*
X107068828Y-119432613D01*
X107263943Y-119510725D01*
X107367129Y-119530612D01*
X107470314Y-119550500D01*
X107470315Y-119550500D01*
X108427819Y-119550500D01*
X108427825Y-119550500D01*
X108584618Y-119535528D01*
X108786275Y-119476316D01*
X108973082Y-119380011D01*
X109138286Y-119250092D01*
X109275919Y-119091256D01*
X109381004Y-118909244D01*
X109449744Y-118710633D01*
X109479654Y-118502602D01*
X109474643Y-118397401D01*
X131871146Y-118397401D01*
X131881145Y-118607327D01*
X131930696Y-118811578D01*
X131930698Y-118811582D01*
X132017998Y-119002743D01*
X132018001Y-119002748D01*
X132018002Y-119002750D01*
X132018004Y-119002753D01*
X132139914Y-119173952D01*
X132139915Y-119173953D01*
X132139920Y-119173959D01*
X132292020Y-119318985D01*
X132386978Y-119380011D01*
X132468828Y-119432613D01*
X132663943Y-119510725D01*
X132767129Y-119530612D01*
X132870314Y-119550500D01*
X132870315Y-119550500D01*
X133827819Y-119550500D01*
X133827825Y-119550500D01*
X133984618Y-119535528D01*
X134186275Y-119476316D01*
X134373082Y-119380011D01*
X134538286Y-119250092D01*
X134675919Y-119091256D01*
X134781004Y-118909244D01*
X134849744Y-118710633D01*
X134879654Y-118502602D01*
X134869654Y-118292670D01*
X134820104Y-118088424D01*
X134812132Y-118070967D01*
X134732801Y-117897256D01*
X134732798Y-117897251D01*
X134732797Y-117897250D01*
X134732796Y-117897247D01*
X134610886Y-117726048D01*
X134610884Y-117726046D01*
X134610879Y-117726040D01*
X134458779Y-117581014D01*
X134281974Y-117467388D01*
X134086855Y-117389274D01*
X133880486Y-117349500D01*
X133880485Y-117349500D01*
X132922975Y-117349500D01*
X132766182Y-117364472D01*
X132766178Y-117364473D01*
X132564527Y-117423683D01*
X132377713Y-117519991D01*
X132212516Y-117649905D01*
X132212512Y-117649909D01*
X132074878Y-117808746D01*
X131969798Y-117990750D01*
X131901056Y-118189365D01*
X131901056Y-118189367D01*
X131872475Y-118388159D01*
X131871146Y-118397401D01*
X109474643Y-118397401D01*
X109469654Y-118292670D01*
X109420104Y-118088424D01*
X109412132Y-118070967D01*
X109332801Y-117897256D01*
X109332798Y-117897251D01*
X109332797Y-117897250D01*
X109332796Y-117897247D01*
X109210886Y-117726048D01*
X109210884Y-117726046D01*
X109210879Y-117726040D01*
X109058779Y-117581014D01*
X108881974Y-117467388D01*
X108686855Y-117389274D01*
X108480486Y-117349500D01*
X108480485Y-117349500D01*
X107522975Y-117349500D01*
X107366182Y-117364472D01*
X107366178Y-117364473D01*
X107164527Y-117423683D01*
X106977713Y-117519991D01*
X106812516Y-117649905D01*
X106812512Y-117649909D01*
X106674878Y-117808746D01*
X106569798Y-117990750D01*
X106501056Y-118189365D01*
X106501056Y-118189367D01*
X106472475Y-118388159D01*
X106471146Y-118397401D01*
X105545964Y-118397401D01*
X105575927Y-118345504D01*
X105720149Y-118021575D01*
X105723811Y-118010305D01*
X105829714Y-117684362D01*
X105829715Y-117684355D01*
X105829719Y-117684345D01*
X105903440Y-117337509D01*
X105940502Y-116984868D01*
X105940500Y-116807576D01*
X105940500Y-116775750D01*
X105940500Y-115660000D01*
X106500032Y-115660000D01*
X107659714Y-115660000D01*
X107647759Y-115671955D01*
X107590235Y-115784852D01*
X107570414Y-115910000D01*
X107590235Y-116035148D01*
X107647759Y-116148045D01*
X107659714Y-116160000D01*
X106504142Y-116160000D01*
X106531170Y-116271409D01*
X106618440Y-116462507D01*
X106740289Y-116633619D01*
X106740295Y-116633625D01*
X106892332Y-116778592D01*
X107069057Y-116892166D01*
X107264085Y-116970244D01*
X107470362Y-117010000D01*
X107725400Y-117010000D01*
X107725400Y-116225686D01*
X107737355Y-116237641D01*
X107850252Y-116295165D01*
X107943919Y-116310000D01*
X108006881Y-116310000D01*
X108100548Y-116295165D01*
X108213445Y-116237641D01*
X108225400Y-116225686D01*
X108225400Y-117010000D01*
X108427798Y-117010000D01*
X108584522Y-116995034D01*
X108584526Y-116995033D01*
X108786086Y-116935850D01*
X108972814Y-116839586D01*
X109137937Y-116709731D01*
X109137940Y-116709728D01*
X109275505Y-116550969D01*
X109275514Y-116550958D01*
X109380544Y-116369039D01*
X109380547Y-116369032D01*
X109449255Y-116170517D01*
X109449255Y-116170515D01*
X109450768Y-116160000D01*
X108291086Y-116160000D01*
X108303041Y-116148045D01*
X108360565Y-116035148D01*
X108380386Y-115910000D01*
X108372055Y-115857401D01*
X131871146Y-115857401D01*
X131881145Y-116067327D01*
X131930696Y-116271578D01*
X131930698Y-116271582D01*
X132017998Y-116462743D01*
X132018001Y-116462748D01*
X132018002Y-116462750D01*
X132018004Y-116462753D01*
X132081027Y-116551256D01*
X132139915Y-116633953D01*
X132139920Y-116633959D01*
X132292020Y-116778985D01*
X132386978Y-116840011D01*
X132468828Y-116892613D01*
X132663943Y-116970725D01*
X132737298Y-116984863D01*
X132870314Y-117010500D01*
X132870315Y-117010500D01*
X133827819Y-117010500D01*
X133827825Y-117010500D01*
X133984618Y-116995528D01*
X134186275Y-116936316D01*
X134373082Y-116840011D01*
X134373623Y-116839586D01*
X134454796Y-116775750D01*
X134538286Y-116710092D01*
X134675919Y-116551256D01*
X134781004Y-116369244D01*
X134849744Y-116170633D01*
X134879654Y-115962602D01*
X134869654Y-115752670D01*
X134820104Y-115548424D01*
X134815327Y-115537963D01*
X134732801Y-115357256D01*
X134732798Y-115357251D01*
X134732797Y-115357250D01*
X134732796Y-115357247D01*
X134610886Y-115186048D01*
X134610884Y-115186046D01*
X134610879Y-115186040D01*
X134458779Y-115041014D01*
X134281974Y-114927388D01*
X134086855Y-114849274D01*
X133880486Y-114809500D01*
X133880485Y-114809500D01*
X132922975Y-114809500D01*
X132766182Y-114824472D01*
X132766178Y-114824473D01*
X132564527Y-114883683D01*
X132377713Y-114979991D01*
X132212516Y-115109905D01*
X132212512Y-115109909D01*
X132074878Y-115268746D01*
X131969798Y-115450750D01*
X131901056Y-115649365D01*
X131901056Y-115649367D01*
X131872714Y-115846498D01*
X131871146Y-115857401D01*
X108372055Y-115857401D01*
X108360565Y-115784852D01*
X108303041Y-115671955D01*
X108291086Y-115660000D01*
X109446657Y-115660000D01*
X109419629Y-115548590D01*
X109332359Y-115357492D01*
X109210510Y-115186380D01*
X109210504Y-115186374D01*
X109058467Y-115041407D01*
X108881742Y-114927833D01*
X108686714Y-114849755D01*
X108480438Y-114810000D01*
X108225400Y-114810000D01*
X108225400Y-115594314D01*
X108213445Y-115582359D01*
X108100548Y-115524835D01*
X108006881Y-115510000D01*
X107943919Y-115510000D01*
X107850252Y-115524835D01*
X107737355Y-115582359D01*
X107725400Y-115594314D01*
X107725400Y-114810000D01*
X107523002Y-114810000D01*
X107366277Y-114824965D01*
X107366273Y-114824966D01*
X107164713Y-114884149D01*
X106977985Y-114980413D01*
X106812862Y-115110268D01*
X106812859Y-115110271D01*
X106675294Y-115269030D01*
X106675285Y-115269041D01*
X106570255Y-115450960D01*
X106570252Y-115450967D01*
X106501544Y-115649482D01*
X106501544Y-115649484D01*
X106500032Y-115660000D01*
X105940500Y-115660000D01*
X105940500Y-113317401D01*
X106471146Y-113317401D01*
X106481145Y-113527327D01*
X106530696Y-113731578D01*
X106530698Y-113731582D01*
X106617998Y-113922743D01*
X106618001Y-113922748D01*
X106618002Y-113922750D01*
X106618004Y-113922753D01*
X106681027Y-114011256D01*
X106739915Y-114093953D01*
X106739920Y-114093959D01*
X106892020Y-114238985D01*
X106986978Y-114300011D01*
X107068828Y-114352613D01*
X107263943Y-114430725D01*
X107367129Y-114450612D01*
X107470314Y-114470500D01*
X107470315Y-114470500D01*
X108427819Y-114470500D01*
X108427825Y-114470500D01*
X108584618Y-114455528D01*
X108786275Y-114396316D01*
X108973082Y-114300011D01*
X109138286Y-114170092D01*
X109275919Y-114011256D01*
X109381004Y-113829244D01*
X109449744Y-113630633D01*
X109479654Y-113422602D01*
X109474643Y-113317401D01*
X131871146Y-113317401D01*
X131881145Y-113527327D01*
X131930696Y-113731578D01*
X131930698Y-113731582D01*
X132017998Y-113922743D01*
X132018001Y-113922748D01*
X132018002Y-113922750D01*
X132018004Y-113922753D01*
X132081027Y-114011256D01*
X132139915Y-114093953D01*
X132139920Y-114093959D01*
X132292020Y-114238985D01*
X132386978Y-114300011D01*
X132468828Y-114352613D01*
X132663943Y-114430725D01*
X132767129Y-114450612D01*
X132870314Y-114470500D01*
X132870315Y-114470500D01*
X133827819Y-114470500D01*
X133827825Y-114470500D01*
X133984618Y-114455528D01*
X134186275Y-114396316D01*
X134373082Y-114300011D01*
X134538286Y-114170092D01*
X134675919Y-114011256D01*
X134781004Y-113829244D01*
X134849744Y-113630633D01*
X134879654Y-113422602D01*
X134869654Y-113212670D01*
X134820104Y-113008424D01*
X134814129Y-112995340D01*
X134732801Y-112817256D01*
X134732798Y-112817251D01*
X134732797Y-112817250D01*
X134732796Y-112817247D01*
X134610886Y-112646048D01*
X134610884Y-112646046D01*
X134610879Y-112646040D01*
X134458779Y-112501014D01*
X134281974Y-112387388D01*
X134086855Y-112309274D01*
X133880486Y-112269500D01*
X133880485Y-112269500D01*
X132922975Y-112269500D01*
X132766182Y-112284472D01*
X132766178Y-112284473D01*
X132564527Y-112343683D01*
X132377713Y-112439991D01*
X132212516Y-112569905D01*
X132212512Y-112569909D01*
X132074878Y-112728746D01*
X131969798Y-112910750D01*
X131901056Y-113109365D01*
X131901056Y-113109367D01*
X131880567Y-113251878D01*
X131871146Y-113317401D01*
X109474643Y-113317401D01*
X109469654Y-113212670D01*
X109420104Y-113008424D01*
X109414129Y-112995340D01*
X109332801Y-112817256D01*
X109332798Y-112817251D01*
X109332797Y-112817250D01*
X109332796Y-112817247D01*
X109210886Y-112646048D01*
X109210884Y-112646046D01*
X109210879Y-112646040D01*
X109058779Y-112501014D01*
X108881974Y-112387388D01*
X108686855Y-112309274D01*
X108480486Y-112269500D01*
X108480485Y-112269500D01*
X107522975Y-112269500D01*
X107366182Y-112284472D01*
X107366178Y-112284473D01*
X107164527Y-112343683D01*
X106977713Y-112439991D01*
X106812516Y-112569905D01*
X106812512Y-112569909D01*
X106674878Y-112728746D01*
X106569798Y-112910750D01*
X106501056Y-113109365D01*
X106501056Y-113109367D01*
X106480567Y-113251878D01*
X106471146Y-113317401D01*
X105940500Y-113317401D01*
X105940500Y-110777401D01*
X106471146Y-110777401D01*
X106481145Y-110987327D01*
X106530696Y-111191578D01*
X106530698Y-111191582D01*
X106617998Y-111382743D01*
X106618001Y-111382748D01*
X106618002Y-111382750D01*
X106618004Y-111382753D01*
X106739914Y-111553952D01*
X106739915Y-111553953D01*
X106739920Y-111553959D01*
X106892020Y-111698985D01*
X106986978Y-111760011D01*
X107068828Y-111812613D01*
X107263943Y-111890725D01*
X107367129Y-111910612D01*
X107470314Y-111930500D01*
X107470315Y-111930500D01*
X108427819Y-111930500D01*
X108427825Y-111930500D01*
X108584618Y-111915528D01*
X108786275Y-111856316D01*
X108973082Y-111760011D01*
X109138286Y-111630092D01*
X109275919Y-111471256D01*
X109381004Y-111289244D01*
X109449744Y-111090633D01*
X109479654Y-110882602D01*
X109474643Y-110777401D01*
X131871146Y-110777401D01*
X131881145Y-110987327D01*
X131930696Y-111191578D01*
X131930698Y-111191582D01*
X132017998Y-111382743D01*
X132018001Y-111382748D01*
X132018002Y-111382750D01*
X132018004Y-111382753D01*
X132139914Y-111553952D01*
X132139915Y-111553953D01*
X132139920Y-111553959D01*
X132292020Y-111698985D01*
X132386978Y-111760011D01*
X132468828Y-111812613D01*
X132663943Y-111890725D01*
X132767129Y-111910612D01*
X132870314Y-111930500D01*
X132870315Y-111930500D01*
X133827819Y-111930500D01*
X133827825Y-111930500D01*
X133984618Y-111915528D01*
X134186275Y-111856316D01*
X134373082Y-111760011D01*
X134538286Y-111630092D01*
X134675919Y-111471256D01*
X134781004Y-111289244D01*
X134849744Y-111090633D01*
X134879654Y-110882602D01*
X134869654Y-110672670D01*
X134820104Y-110468424D01*
X134820101Y-110468417D01*
X134732801Y-110277256D01*
X134732798Y-110277251D01*
X134732797Y-110277250D01*
X134732796Y-110277247D01*
X134610886Y-110106048D01*
X134610884Y-110106046D01*
X134610879Y-110106040D01*
X134458779Y-109961014D01*
X134281974Y-109847388D01*
X134202134Y-109815425D01*
X134086857Y-109769275D01*
X134086855Y-109769274D01*
X133880486Y-109729500D01*
X133880485Y-109729500D01*
X132922975Y-109729500D01*
X132766182Y-109744472D01*
X132766178Y-109744473D01*
X132564527Y-109803683D01*
X132377713Y-109899991D01*
X132212516Y-110029905D01*
X132212512Y-110029909D01*
X132074878Y-110188746D01*
X131969798Y-110370750D01*
X131901056Y-110569365D01*
X131901056Y-110569367D01*
X131872714Y-110766498D01*
X131871146Y-110777401D01*
X109474643Y-110777401D01*
X109469654Y-110672670D01*
X109420104Y-110468424D01*
X109420101Y-110468417D01*
X109332801Y-110277256D01*
X109332798Y-110277251D01*
X109332797Y-110277250D01*
X109332796Y-110277247D01*
X109210886Y-110106048D01*
X109210884Y-110106046D01*
X109210879Y-110106040D01*
X109058779Y-109961014D01*
X108881974Y-109847388D01*
X108802134Y-109815425D01*
X108686857Y-109769275D01*
X108686855Y-109769274D01*
X108480486Y-109729500D01*
X108480485Y-109729500D01*
X107522975Y-109729500D01*
X107366182Y-109744472D01*
X107366178Y-109744473D01*
X107164527Y-109803683D01*
X106977713Y-109899991D01*
X106812516Y-110029905D01*
X106812512Y-110029909D01*
X106674878Y-110188746D01*
X106569798Y-110370750D01*
X106501056Y-110569365D01*
X106501056Y-110569367D01*
X106472714Y-110766498D01*
X106471146Y-110777401D01*
X105940500Y-110777401D01*
X105940500Y-108237401D01*
X106471146Y-108237401D01*
X106481145Y-108447327D01*
X106530696Y-108651578D01*
X106530698Y-108651582D01*
X106617998Y-108842743D01*
X106618001Y-108842748D01*
X106618002Y-108842750D01*
X106618004Y-108842753D01*
X106699656Y-108957417D01*
X106739915Y-109013953D01*
X106739920Y-109013959D01*
X106892020Y-109158985D01*
X106986978Y-109220011D01*
X107068828Y-109272613D01*
X107263943Y-109350725D01*
X107367129Y-109370612D01*
X107470314Y-109390500D01*
X107470315Y-109390500D01*
X108427819Y-109390500D01*
X108427825Y-109390500D01*
X108584618Y-109375528D01*
X108786275Y-109316316D01*
X108973082Y-109220011D01*
X109138286Y-109090092D01*
X109275919Y-108931256D01*
X109381004Y-108749244D01*
X109449744Y-108550633D01*
X109479654Y-108342602D01*
X109474643Y-108237401D01*
X131871146Y-108237401D01*
X131881145Y-108447327D01*
X131930696Y-108651578D01*
X131930698Y-108651582D01*
X132017998Y-108842743D01*
X132018001Y-108842748D01*
X132018002Y-108842750D01*
X132018004Y-108842753D01*
X132099656Y-108957417D01*
X132139915Y-109013953D01*
X132139920Y-109013959D01*
X132292020Y-109158985D01*
X132386978Y-109220011D01*
X132468828Y-109272613D01*
X132663943Y-109350725D01*
X132767129Y-109370612D01*
X132870314Y-109390500D01*
X132870315Y-109390500D01*
X133827819Y-109390500D01*
X133827825Y-109390500D01*
X133984618Y-109375528D01*
X134186275Y-109316316D01*
X134373082Y-109220011D01*
X134538286Y-109090092D01*
X134675919Y-108931256D01*
X134781004Y-108749244D01*
X134849744Y-108550633D01*
X134879654Y-108342602D01*
X134869654Y-108132670D01*
X134820104Y-107928424D01*
X134820101Y-107928417D01*
X134732801Y-107737256D01*
X134732798Y-107737251D01*
X134732797Y-107737250D01*
X134732796Y-107737247D01*
X134610886Y-107566048D01*
X134610884Y-107566046D01*
X134610879Y-107566040D01*
X134458779Y-107421014D01*
X134281974Y-107307388D01*
X134086855Y-107229274D01*
X133880486Y-107189500D01*
X133880485Y-107189500D01*
X132922975Y-107189500D01*
X132766182Y-107204472D01*
X132766178Y-107204473D01*
X132564527Y-107263683D01*
X132377713Y-107359991D01*
X132212516Y-107489905D01*
X132212512Y-107489909D01*
X132074878Y-107648746D01*
X131969798Y-107830750D01*
X131901056Y-108029365D01*
X131901056Y-108029367D01*
X131872714Y-108226498D01*
X131871146Y-108237401D01*
X109474643Y-108237401D01*
X109469654Y-108132670D01*
X109420104Y-107928424D01*
X109420101Y-107928417D01*
X109332801Y-107737256D01*
X109332798Y-107737251D01*
X109332797Y-107737250D01*
X109332796Y-107737247D01*
X109210886Y-107566048D01*
X109210884Y-107566046D01*
X109210879Y-107566040D01*
X109058779Y-107421014D01*
X108881974Y-107307388D01*
X108686855Y-107229274D01*
X108480486Y-107189500D01*
X108480485Y-107189500D01*
X107522975Y-107189500D01*
X107366182Y-107204472D01*
X107366178Y-107204473D01*
X107164527Y-107263683D01*
X106977713Y-107359991D01*
X106812516Y-107489905D01*
X106812512Y-107489909D01*
X106674878Y-107648746D01*
X106569798Y-107830750D01*
X106501056Y-108029365D01*
X106501056Y-108029367D01*
X106472714Y-108226498D01*
X106471146Y-108237401D01*
X105940500Y-108237401D01*
X105940500Y-105697401D01*
X106471146Y-105697401D01*
X106481145Y-105907327D01*
X106530696Y-106111578D01*
X106530698Y-106111582D01*
X106617998Y-106302743D01*
X106618001Y-106302748D01*
X106618002Y-106302750D01*
X106618004Y-106302753D01*
X106681027Y-106391256D01*
X106739915Y-106473953D01*
X106739920Y-106473959D01*
X106892020Y-106618985D01*
X106986978Y-106680011D01*
X107068828Y-106732613D01*
X107263943Y-106810725D01*
X107367129Y-106830612D01*
X107470314Y-106850500D01*
X107470315Y-106850500D01*
X108427819Y-106850500D01*
X108427825Y-106850500D01*
X108584618Y-106835528D01*
X108786275Y-106776316D01*
X108973082Y-106680011D01*
X109138286Y-106550092D01*
X109275919Y-106391256D01*
X109381004Y-106209244D01*
X109449744Y-106010633D01*
X109479654Y-105802602D01*
X109474643Y-105697401D01*
X131871146Y-105697401D01*
X131881145Y-105907327D01*
X131930696Y-106111578D01*
X131930698Y-106111582D01*
X132017998Y-106302743D01*
X132018001Y-106302748D01*
X132018002Y-106302750D01*
X132018004Y-106302753D01*
X132081027Y-106391256D01*
X132139915Y-106473953D01*
X132139920Y-106473959D01*
X132292020Y-106618985D01*
X132386978Y-106680011D01*
X132468828Y-106732613D01*
X132663943Y-106810725D01*
X132767129Y-106830612D01*
X132870314Y-106850500D01*
X132870315Y-106850500D01*
X133827819Y-106850500D01*
X133827825Y-106850500D01*
X133984618Y-106835528D01*
X134186275Y-106776316D01*
X134373082Y-106680011D01*
X134538286Y-106550092D01*
X134675919Y-106391256D01*
X134781004Y-106209244D01*
X134849744Y-106010633D01*
X134879654Y-105802602D01*
X134869654Y-105592670D01*
X134820104Y-105388424D01*
X134820101Y-105388417D01*
X134732801Y-105197256D01*
X134732798Y-105197251D01*
X134732797Y-105197250D01*
X134732796Y-105197247D01*
X134610886Y-105026048D01*
X134610884Y-105026046D01*
X134610879Y-105026040D01*
X134458779Y-104881014D01*
X134281974Y-104767388D01*
X134086855Y-104689274D01*
X133880486Y-104649500D01*
X133880485Y-104649500D01*
X132922975Y-104649500D01*
X132766182Y-104664472D01*
X132766178Y-104664473D01*
X132564527Y-104723683D01*
X132377713Y-104819991D01*
X132212516Y-104949905D01*
X132212512Y-104949909D01*
X132074878Y-105108746D01*
X131969798Y-105290750D01*
X131901056Y-105489365D01*
X131901056Y-105489367D01*
X131872714Y-105686498D01*
X131871146Y-105697401D01*
X109474643Y-105697401D01*
X109469654Y-105592670D01*
X109420104Y-105388424D01*
X109420101Y-105388417D01*
X109332801Y-105197256D01*
X109332798Y-105197251D01*
X109332797Y-105197250D01*
X109332796Y-105197247D01*
X109210886Y-105026048D01*
X109210884Y-105026046D01*
X109210879Y-105026040D01*
X109058779Y-104881014D01*
X108881974Y-104767388D01*
X108686855Y-104689274D01*
X108480486Y-104649500D01*
X108480485Y-104649500D01*
X107522975Y-104649500D01*
X107366182Y-104664472D01*
X107366178Y-104664473D01*
X107164527Y-104723683D01*
X106977713Y-104819991D01*
X106812516Y-104949905D01*
X106812512Y-104949909D01*
X106674878Y-105108746D01*
X106569798Y-105290750D01*
X106501056Y-105489365D01*
X106501056Y-105489367D01*
X106472714Y-105686498D01*
X106471146Y-105697401D01*
X105940500Y-105697401D01*
X105940500Y-103157401D01*
X106471146Y-103157401D01*
X106481145Y-103367327D01*
X106530696Y-103571578D01*
X106530698Y-103571582D01*
X106617998Y-103762743D01*
X106618001Y-103762748D01*
X106618002Y-103762750D01*
X106618004Y-103762753D01*
X106681027Y-103851256D01*
X106739915Y-103933953D01*
X106739920Y-103933959D01*
X106892020Y-104078985D01*
X106986978Y-104140011D01*
X107068828Y-104192613D01*
X107263943Y-104270725D01*
X107367129Y-104290612D01*
X107470314Y-104310500D01*
X107470315Y-104310500D01*
X108427819Y-104310500D01*
X108427825Y-104310500D01*
X108584618Y-104295528D01*
X108786275Y-104236316D01*
X108973082Y-104140011D01*
X109138286Y-104010092D01*
X109275919Y-103851256D01*
X109381004Y-103669244D01*
X109449744Y-103470633D01*
X109479654Y-103262602D01*
X109474643Y-103157401D01*
X131871146Y-103157401D01*
X131881145Y-103367327D01*
X131930696Y-103571578D01*
X131930698Y-103571582D01*
X132017998Y-103762743D01*
X132018001Y-103762748D01*
X132018002Y-103762750D01*
X132018004Y-103762753D01*
X132081027Y-103851256D01*
X132139915Y-103933953D01*
X132139920Y-103933959D01*
X132292020Y-104078985D01*
X132386978Y-104140011D01*
X132468828Y-104192613D01*
X132663943Y-104270725D01*
X132767129Y-104290612D01*
X132870314Y-104310500D01*
X132870315Y-104310500D01*
X133827819Y-104310500D01*
X133827825Y-104310500D01*
X133984618Y-104295528D01*
X134186275Y-104236316D01*
X134373082Y-104140011D01*
X134538286Y-104010092D01*
X134675919Y-103851256D01*
X134781004Y-103669244D01*
X134849744Y-103470633D01*
X134879654Y-103262602D01*
X134869654Y-103052670D01*
X134820104Y-102848424D01*
X134820101Y-102848417D01*
X134732801Y-102657256D01*
X134732798Y-102657251D01*
X134732797Y-102657250D01*
X134732796Y-102657247D01*
X134610886Y-102486048D01*
X134610884Y-102486046D01*
X134610879Y-102486040D01*
X134458779Y-102341014D01*
X134281974Y-102227388D01*
X134086855Y-102149274D01*
X133880486Y-102109500D01*
X133880485Y-102109500D01*
X132922975Y-102109500D01*
X132766182Y-102124472D01*
X132766178Y-102124473D01*
X132564527Y-102183683D01*
X132377713Y-102279991D01*
X132212516Y-102409905D01*
X132212512Y-102409909D01*
X132074878Y-102568746D01*
X131969798Y-102750750D01*
X131901056Y-102949365D01*
X131901056Y-102949367D01*
X131872714Y-103146498D01*
X131871146Y-103157401D01*
X109474643Y-103157401D01*
X109469654Y-103052670D01*
X109420104Y-102848424D01*
X109420101Y-102848417D01*
X109332801Y-102657256D01*
X109332798Y-102657251D01*
X109332797Y-102657250D01*
X109332796Y-102657247D01*
X109210886Y-102486048D01*
X109210884Y-102486046D01*
X109210879Y-102486040D01*
X109058779Y-102341014D01*
X108881974Y-102227388D01*
X108686855Y-102149274D01*
X108480486Y-102109500D01*
X108480485Y-102109500D01*
X107522975Y-102109500D01*
X107366182Y-102124472D01*
X107366178Y-102124473D01*
X107164527Y-102183683D01*
X106977713Y-102279991D01*
X106812516Y-102409905D01*
X106812512Y-102409909D01*
X106674878Y-102568746D01*
X106569798Y-102750750D01*
X106501056Y-102949365D01*
X106501056Y-102949367D01*
X106472714Y-103146498D01*
X106471146Y-103157401D01*
X105940500Y-103157401D01*
X105940500Y-100617401D01*
X106471146Y-100617401D01*
X106481145Y-100827327D01*
X106530696Y-101031578D01*
X106530698Y-101031582D01*
X106617998Y-101222743D01*
X106618001Y-101222748D01*
X106618002Y-101222750D01*
X106618004Y-101222753D01*
X106739914Y-101393952D01*
X106739915Y-101393953D01*
X106739920Y-101393959D01*
X106892020Y-101538985D01*
X106986978Y-101600011D01*
X107068828Y-101652613D01*
X107263943Y-101730725D01*
X107367129Y-101750612D01*
X107470314Y-101770500D01*
X107470315Y-101770500D01*
X108427819Y-101770500D01*
X108427825Y-101770500D01*
X108584618Y-101755528D01*
X108786275Y-101696316D01*
X108973082Y-101600011D01*
X109138286Y-101470092D01*
X109275919Y-101311256D01*
X109381004Y-101129244D01*
X109449744Y-100930633D01*
X109479654Y-100722602D01*
X109474643Y-100617401D01*
X131871146Y-100617401D01*
X131881145Y-100827327D01*
X131930696Y-101031578D01*
X131930698Y-101031582D01*
X132017998Y-101222743D01*
X132018001Y-101222748D01*
X132018002Y-101222750D01*
X132018004Y-101222753D01*
X132139914Y-101393952D01*
X132139915Y-101393953D01*
X132139920Y-101393959D01*
X132292020Y-101538985D01*
X132386978Y-101600011D01*
X132468828Y-101652613D01*
X132663943Y-101730725D01*
X132767129Y-101750612D01*
X132870314Y-101770500D01*
X132870315Y-101770500D01*
X133827819Y-101770500D01*
X133827825Y-101770500D01*
X133984618Y-101755528D01*
X134186275Y-101696316D01*
X134373082Y-101600011D01*
X134538286Y-101470092D01*
X134675919Y-101311256D01*
X134781004Y-101129244D01*
X134849744Y-100930633D01*
X134879654Y-100722602D01*
X134869654Y-100512670D01*
X134820104Y-100308424D01*
X134791520Y-100245834D01*
X134732801Y-100117256D01*
X134732798Y-100117251D01*
X134732797Y-100117250D01*
X134732796Y-100117247D01*
X134610886Y-99946048D01*
X134610884Y-99946046D01*
X134610879Y-99946040D01*
X134458779Y-99801014D01*
X134281974Y-99687388D01*
X134266704Y-99681275D01*
X134086857Y-99609275D01*
X134086855Y-99609274D01*
X133880486Y-99569500D01*
X133880485Y-99569500D01*
X132922975Y-99569500D01*
X132766182Y-99584472D01*
X132766178Y-99584473D01*
X132564527Y-99643683D01*
X132377713Y-99739991D01*
X132212516Y-99869905D01*
X132212512Y-99869909D01*
X132074878Y-100028746D01*
X131969798Y-100210750D01*
X131901056Y-100409365D01*
X131901056Y-100409367D01*
X131872714Y-100606498D01*
X131871146Y-100617401D01*
X109474643Y-100617401D01*
X109469654Y-100512670D01*
X109420104Y-100308424D01*
X109391520Y-100245834D01*
X109332801Y-100117256D01*
X109332798Y-100117251D01*
X109332797Y-100117250D01*
X109332796Y-100117247D01*
X109210886Y-99946048D01*
X109210884Y-99946046D01*
X109210879Y-99946040D01*
X109058779Y-99801014D01*
X108881974Y-99687388D01*
X108866704Y-99681275D01*
X108686857Y-99609275D01*
X108686855Y-99609274D01*
X108480486Y-99569500D01*
X108480485Y-99569500D01*
X107522975Y-99569500D01*
X107366182Y-99584472D01*
X107366178Y-99584473D01*
X107164527Y-99643683D01*
X106977713Y-99739991D01*
X106812516Y-99869905D01*
X106812512Y-99869909D01*
X106674878Y-100028746D01*
X106569798Y-100210750D01*
X106501056Y-100409365D01*
X106501056Y-100409367D01*
X106472714Y-100606498D01*
X106471146Y-100617401D01*
X105940500Y-100617401D01*
X105940500Y-98077401D01*
X106471146Y-98077401D01*
X106481145Y-98287327D01*
X106530696Y-98491578D01*
X106530698Y-98491582D01*
X106617998Y-98682743D01*
X106618001Y-98682748D01*
X106618002Y-98682750D01*
X106618004Y-98682753D01*
X106712321Y-98815203D01*
X106739915Y-98853953D01*
X106739920Y-98853959D01*
X106892020Y-98998985D01*
X106986978Y-99060011D01*
X107068828Y-99112613D01*
X107263943Y-99190725D01*
X107367129Y-99210612D01*
X107470314Y-99230500D01*
X107470315Y-99230500D01*
X108427819Y-99230500D01*
X108427825Y-99230500D01*
X108584618Y-99215528D01*
X108786275Y-99156316D01*
X108973082Y-99060011D01*
X108973623Y-99059586D01*
X109138283Y-98930094D01*
X109138286Y-98930092D01*
X109275919Y-98771256D01*
X109308973Y-98714006D01*
X109381001Y-98589249D01*
X109381000Y-98589249D01*
X109381004Y-98589244D01*
X109449744Y-98390633D01*
X109479654Y-98182602D01*
X109469654Y-97972670D01*
X109447172Y-97880000D01*
X131900032Y-97880000D01*
X133059714Y-97880000D01*
X133047759Y-97891955D01*
X132990235Y-98004852D01*
X132970414Y-98130000D01*
X132990235Y-98255148D01*
X133047759Y-98368045D01*
X133059714Y-98380000D01*
X131904142Y-98380000D01*
X131931170Y-98491409D01*
X132018440Y-98682507D01*
X132140289Y-98853619D01*
X132140295Y-98853625D01*
X132292332Y-98998592D01*
X132469057Y-99112166D01*
X132664085Y-99190244D01*
X132870362Y-99230000D01*
X133125400Y-99230000D01*
X133125400Y-98445686D01*
X133137355Y-98457641D01*
X133250252Y-98515165D01*
X133343919Y-98530000D01*
X133406881Y-98530000D01*
X133500548Y-98515165D01*
X133613445Y-98457641D01*
X133625400Y-98445686D01*
X133625400Y-99230000D01*
X133827798Y-99230000D01*
X133984522Y-99215034D01*
X133984526Y-99215033D01*
X134186086Y-99155850D01*
X134372814Y-99059586D01*
X134537937Y-98929731D01*
X134537940Y-98929728D01*
X134675505Y-98770969D01*
X134675514Y-98770958D01*
X134780544Y-98589039D01*
X134780547Y-98589032D01*
X134849255Y-98390517D01*
X134849255Y-98390515D01*
X134850768Y-98380000D01*
X133691086Y-98380000D01*
X133703041Y-98368045D01*
X133760565Y-98255148D01*
X133780386Y-98130000D01*
X133760565Y-98004852D01*
X133703041Y-97891955D01*
X133691086Y-97880000D01*
X134846657Y-97880000D01*
X134819629Y-97768590D01*
X134732359Y-97577492D01*
X134610510Y-97406380D01*
X134610504Y-97406374D01*
X134458467Y-97261407D01*
X134281742Y-97147833D01*
X134086714Y-97069755D01*
X133880438Y-97030000D01*
X133625400Y-97030000D01*
X133625400Y-97814314D01*
X133613445Y-97802359D01*
X133500548Y-97744835D01*
X133406881Y-97730000D01*
X133343919Y-97730000D01*
X133250252Y-97744835D01*
X133137355Y-97802359D01*
X133125400Y-97814314D01*
X133125400Y-97030000D01*
X132923002Y-97030000D01*
X132766277Y-97044965D01*
X132766273Y-97044966D01*
X132564713Y-97104149D01*
X132377985Y-97200413D01*
X132212862Y-97330268D01*
X132212859Y-97330271D01*
X132075294Y-97489030D01*
X132075285Y-97489041D01*
X131970255Y-97670960D01*
X131970252Y-97670967D01*
X131901544Y-97869482D01*
X131901544Y-97869484D01*
X131900032Y-97880000D01*
X109447172Y-97880000D01*
X109420104Y-97768424D01*
X109409331Y-97744835D01*
X109332801Y-97577256D01*
X109332798Y-97577251D01*
X109332797Y-97577250D01*
X109332796Y-97577247D01*
X109210886Y-97406048D01*
X109210884Y-97406046D01*
X109210879Y-97406040D01*
X109058779Y-97261014D01*
X108881974Y-97147388D01*
X108876436Y-97145171D01*
X108686857Y-97069275D01*
X108686855Y-97069274D01*
X108480486Y-97029500D01*
X108480485Y-97029500D01*
X107522975Y-97029500D01*
X107366182Y-97044472D01*
X107366178Y-97044473D01*
X107164527Y-97103683D01*
X106977713Y-97199991D01*
X106812516Y-97329905D01*
X106812512Y-97329909D01*
X106674878Y-97488746D01*
X106569798Y-97670750D01*
X106501056Y-97869365D01*
X106501056Y-97869367D01*
X106479884Y-98016628D01*
X106471146Y-98077401D01*
X105940500Y-98077401D01*
X105940500Y-95537401D01*
X106471146Y-95537401D01*
X106481145Y-95747327D01*
X106530696Y-95951578D01*
X106530698Y-95951582D01*
X106617998Y-96142743D01*
X106618001Y-96142748D01*
X106618002Y-96142750D01*
X106618004Y-96142753D01*
X106681027Y-96231256D01*
X106739915Y-96313953D01*
X106739920Y-96313959D01*
X106892020Y-96458985D01*
X106986978Y-96520011D01*
X107068828Y-96572613D01*
X107263943Y-96650725D01*
X107367129Y-96670612D01*
X107470314Y-96690500D01*
X107470315Y-96690500D01*
X108427819Y-96690500D01*
X108427825Y-96690500D01*
X108584618Y-96675528D01*
X108786275Y-96616316D01*
X108973082Y-96520011D01*
X109138286Y-96390092D01*
X109275919Y-96231256D01*
X109381004Y-96049244D01*
X109449744Y-95850633D01*
X109479654Y-95642602D01*
X109469654Y-95432670D01*
X109420104Y-95228424D01*
X109420101Y-95228417D01*
X109332801Y-95037256D01*
X109332798Y-95037251D01*
X109332797Y-95037250D01*
X109332796Y-95037247D01*
X109210886Y-94866048D01*
X109210884Y-94866046D01*
X109210879Y-94866040D01*
X109058779Y-94721014D01*
X108881974Y-94607388D01*
X108686855Y-94529274D01*
X108480486Y-94489500D01*
X108480485Y-94489500D01*
X107522975Y-94489500D01*
X107366182Y-94504472D01*
X107366178Y-94504473D01*
X107164527Y-94563683D01*
X106977713Y-94659991D01*
X106812516Y-94789905D01*
X106812512Y-94789909D01*
X106674878Y-94948746D01*
X106569798Y-95130750D01*
X106501056Y-95329365D01*
X106501056Y-95329367D01*
X106474459Y-95514359D01*
X106471146Y-95537401D01*
X105940500Y-95537401D01*
X105940500Y-92997401D01*
X106471146Y-92997401D01*
X106481145Y-93207327D01*
X106530696Y-93411578D01*
X106530698Y-93411582D01*
X106617998Y-93602743D01*
X106618001Y-93602748D01*
X106618002Y-93602750D01*
X106618004Y-93602753D01*
X106681027Y-93691256D01*
X106739915Y-93773953D01*
X106739920Y-93773959D01*
X106892020Y-93918985D01*
X106986978Y-93980011D01*
X107068828Y-94032613D01*
X107263943Y-94110725D01*
X107351753Y-94127649D01*
X107470314Y-94150500D01*
X107470315Y-94150500D01*
X108427819Y-94150500D01*
X108427825Y-94150500D01*
X108584618Y-94135528D01*
X108786275Y-94076316D01*
X108973082Y-93980011D01*
X109138286Y-93850092D01*
X109275919Y-93691256D01*
X109381004Y-93509244D01*
X109449744Y-93310633D01*
X109479654Y-93102602D01*
X109474643Y-92997401D01*
X131871146Y-92997401D01*
X131881145Y-93207327D01*
X131930696Y-93411578D01*
X131930698Y-93411582D01*
X132017998Y-93602743D01*
X132018001Y-93602748D01*
X132018002Y-93602750D01*
X132018004Y-93602753D01*
X132081027Y-93691256D01*
X132139915Y-93773953D01*
X132139920Y-93773959D01*
X132292020Y-93918985D01*
X132386978Y-93980011D01*
X132468828Y-94032613D01*
X132663943Y-94110725D01*
X132751753Y-94127649D01*
X132870314Y-94150500D01*
X132870315Y-94150500D01*
X133827819Y-94150500D01*
X133827825Y-94150500D01*
X133984618Y-94135528D01*
X134186275Y-94076316D01*
X134373082Y-93980011D01*
X134538286Y-93850092D01*
X134675919Y-93691256D01*
X134781004Y-93509244D01*
X134849744Y-93310633D01*
X134879654Y-93102602D01*
X134869654Y-92892670D01*
X134820104Y-92688424D01*
X134820101Y-92688417D01*
X134732801Y-92497256D01*
X134732798Y-92497251D01*
X134732797Y-92497250D01*
X134732796Y-92497247D01*
X134610886Y-92326048D01*
X134610884Y-92326046D01*
X134610879Y-92326040D01*
X134458779Y-92181014D01*
X134281974Y-92067388D01*
X134086855Y-91989274D01*
X133880486Y-91949500D01*
X133880485Y-91949500D01*
X132922975Y-91949500D01*
X132766182Y-91964472D01*
X132766178Y-91964473D01*
X132564527Y-92023683D01*
X132377713Y-92119991D01*
X132212516Y-92249905D01*
X132212512Y-92249909D01*
X132074878Y-92408746D01*
X131969798Y-92590750D01*
X131901056Y-92789365D01*
X131901056Y-92789367D01*
X131886204Y-92892670D01*
X131871146Y-92997401D01*
X109474643Y-92997401D01*
X109469654Y-92892670D01*
X109420104Y-92688424D01*
X109420101Y-92688417D01*
X109332801Y-92497256D01*
X109332798Y-92497251D01*
X109332797Y-92497250D01*
X109332796Y-92497247D01*
X109210886Y-92326048D01*
X109210884Y-92326046D01*
X109210879Y-92326040D01*
X109058779Y-92181014D01*
X108881974Y-92067388D01*
X108686855Y-91989274D01*
X108480486Y-91949500D01*
X108480485Y-91949500D01*
X107522975Y-91949500D01*
X107366182Y-91964472D01*
X107366178Y-91964473D01*
X107164527Y-92023683D01*
X106977713Y-92119991D01*
X106812516Y-92249905D01*
X106812512Y-92249909D01*
X106674878Y-92408746D01*
X106569798Y-92590750D01*
X106501056Y-92789365D01*
X106501056Y-92789367D01*
X106486204Y-92892670D01*
X106471146Y-92997401D01*
X105940500Y-92997401D01*
X105940500Y-90457401D01*
X106471146Y-90457401D01*
X106481145Y-90667327D01*
X106530696Y-90871578D01*
X106530698Y-90871582D01*
X106617998Y-91062743D01*
X106618001Y-91062748D01*
X106618002Y-91062750D01*
X106618004Y-91062753D01*
X106681027Y-91151256D01*
X106739915Y-91233953D01*
X106739920Y-91233959D01*
X106892020Y-91378985D01*
X106986978Y-91440011D01*
X107068828Y-91492613D01*
X107263943Y-91570725D01*
X107367129Y-91590612D01*
X107470314Y-91610500D01*
X107470315Y-91610500D01*
X108427819Y-91610500D01*
X108427825Y-91610500D01*
X108584618Y-91595528D01*
X108786275Y-91536316D01*
X108973082Y-91440011D01*
X109138286Y-91310092D01*
X109275919Y-91151256D01*
X109381004Y-90969244D01*
X109449744Y-90770633D01*
X109479654Y-90562602D01*
X109474643Y-90457401D01*
X131871146Y-90457401D01*
X131881145Y-90667327D01*
X131930696Y-90871578D01*
X131930698Y-90871582D01*
X132017998Y-91062743D01*
X132018001Y-91062748D01*
X132018002Y-91062750D01*
X132018004Y-91062753D01*
X132081027Y-91151256D01*
X132139915Y-91233953D01*
X132139920Y-91233959D01*
X132292020Y-91378985D01*
X132386978Y-91440011D01*
X132468828Y-91492613D01*
X132663943Y-91570725D01*
X132767129Y-91590612D01*
X132870314Y-91610500D01*
X132870315Y-91610500D01*
X133827819Y-91610500D01*
X133827825Y-91610500D01*
X133984618Y-91595528D01*
X134186275Y-91536316D01*
X134373082Y-91440011D01*
X134538286Y-91310092D01*
X134675919Y-91151256D01*
X134781004Y-90969244D01*
X134849744Y-90770633D01*
X134879654Y-90562602D01*
X134869654Y-90352670D01*
X134820104Y-90148424D01*
X134796789Y-90097371D01*
X134732801Y-89957256D01*
X134732798Y-89957251D01*
X134732797Y-89957250D01*
X134732796Y-89957247D01*
X134610886Y-89786048D01*
X134610884Y-89786046D01*
X134610879Y-89786040D01*
X134458779Y-89641014D01*
X134281974Y-89527388D01*
X134274715Y-89524482D01*
X134172804Y-89483683D01*
X134086855Y-89449274D01*
X133880486Y-89409500D01*
X133880485Y-89409500D01*
X132922975Y-89409500D01*
X132766182Y-89424472D01*
X132766178Y-89424473D01*
X132564527Y-89483683D01*
X132377713Y-89579991D01*
X132212516Y-89709905D01*
X132212512Y-89709909D01*
X132074878Y-89868746D01*
X131969798Y-90050750D01*
X131901056Y-90249365D01*
X131901056Y-90249367D01*
X131886204Y-90352670D01*
X131871146Y-90457401D01*
X109474643Y-90457401D01*
X109469654Y-90352670D01*
X109420104Y-90148424D01*
X109396789Y-90097371D01*
X109332801Y-89957256D01*
X109332798Y-89957251D01*
X109332797Y-89957250D01*
X109332796Y-89957247D01*
X109210886Y-89786048D01*
X109210884Y-89786046D01*
X109210879Y-89786040D01*
X109058779Y-89641014D01*
X108881974Y-89527388D01*
X108874715Y-89524482D01*
X108772804Y-89483683D01*
X108686855Y-89449274D01*
X108480486Y-89409500D01*
X108480485Y-89409500D01*
X107522975Y-89409500D01*
X107366182Y-89424472D01*
X107366178Y-89424473D01*
X107164527Y-89483683D01*
X106977713Y-89579991D01*
X106812516Y-89709905D01*
X106812512Y-89709909D01*
X106674878Y-89868746D01*
X106569798Y-90050750D01*
X106501056Y-90249365D01*
X106501056Y-90249367D01*
X106486204Y-90352670D01*
X106471146Y-90457401D01*
X105940500Y-90457401D01*
X105940500Y-87920121D01*
X106474826Y-87920121D01*
X106484825Y-88130047D01*
X106534376Y-88334298D01*
X106534378Y-88334302D01*
X106621678Y-88525463D01*
X106621681Y-88525468D01*
X106621682Y-88525470D01*
X106621684Y-88525473D01*
X106684707Y-88613976D01*
X106743595Y-88696673D01*
X106743600Y-88696679D01*
X106895700Y-88841705D01*
X106990658Y-88902731D01*
X107072508Y-88955333D01*
X107267623Y-89033445D01*
X107370809Y-89053332D01*
X107473994Y-89073220D01*
X107473995Y-89073220D01*
X108431499Y-89073220D01*
X108431505Y-89073220D01*
X108588298Y-89058248D01*
X108789955Y-88999036D01*
X108976762Y-88902731D01*
X109141966Y-88772812D01*
X109279599Y-88613976D01*
X109281170Y-88611256D01*
X109384681Y-88431969D01*
X109384680Y-88431969D01*
X109384684Y-88431964D01*
X109453424Y-88233353D01*
X109483334Y-88025322D01*
X109478193Y-87917401D01*
X131871146Y-87917401D01*
X131881145Y-88127327D01*
X131930696Y-88331578D01*
X131930698Y-88331582D01*
X132017998Y-88522743D01*
X132018001Y-88522748D01*
X132018002Y-88522750D01*
X132018004Y-88522753D01*
X132099312Y-88636934D01*
X132139915Y-88693953D01*
X132139920Y-88693959D01*
X132292020Y-88838985D01*
X132433197Y-88929714D01*
X132468828Y-88952613D01*
X132663943Y-89030725D01*
X132767129Y-89050612D01*
X132870314Y-89070500D01*
X132870315Y-89070500D01*
X133827819Y-89070500D01*
X133827825Y-89070500D01*
X133984618Y-89055528D01*
X134186275Y-88996316D01*
X134373082Y-88900011D01*
X134538286Y-88770092D01*
X134675919Y-88611256D01*
X134781004Y-88429244D01*
X134849744Y-88230633D01*
X134879654Y-88022602D01*
X134869654Y-87812670D01*
X134820104Y-87608424D01*
X134776740Y-87513470D01*
X134732801Y-87417256D01*
X134732798Y-87417251D01*
X134732797Y-87417250D01*
X134732796Y-87417247D01*
X134610886Y-87246048D01*
X134610884Y-87246046D01*
X134610879Y-87246040D01*
X134458779Y-87101014D01*
X134281974Y-86987388D01*
X134086855Y-86909274D01*
X133880486Y-86869500D01*
X133880485Y-86869500D01*
X132922975Y-86869500D01*
X132766182Y-86884472D01*
X132766178Y-86884473D01*
X132564527Y-86943683D01*
X132377713Y-87039991D01*
X132212516Y-87169905D01*
X132212512Y-87169909D01*
X132074878Y-87328746D01*
X131969798Y-87510750D01*
X131901056Y-87709365D01*
X131901056Y-87709367D01*
X131871557Y-87914543D01*
X131871146Y-87917401D01*
X109478193Y-87917401D01*
X109473334Y-87815390D01*
X109423784Y-87611144D01*
X109422542Y-87608424D01*
X109336481Y-87419976D01*
X109336478Y-87419971D01*
X109336477Y-87419970D01*
X109336476Y-87419967D01*
X109214566Y-87248768D01*
X109214564Y-87248766D01*
X109214559Y-87248760D01*
X109062459Y-87103734D01*
X108885654Y-86990108D01*
X108878857Y-86987387D01*
X108690537Y-86911995D01*
X108690535Y-86911994D01*
X108484166Y-86872220D01*
X108484165Y-86872220D01*
X107526655Y-86872220D01*
X107369862Y-86887192D01*
X107369858Y-86887193D01*
X107168207Y-86946403D01*
X106981393Y-87042711D01*
X106816196Y-87172625D01*
X106816192Y-87172629D01*
X106678558Y-87331466D01*
X106573478Y-87513470D01*
X106504736Y-87712085D01*
X106504736Y-87712087D01*
X106475218Y-87917398D01*
X106474826Y-87920121D01*
X105940500Y-87920121D01*
X105940500Y-85380121D01*
X106474826Y-85380121D01*
X106484825Y-85590047D01*
X106534376Y-85794298D01*
X106534378Y-85794302D01*
X106621678Y-85985463D01*
X106621681Y-85985468D01*
X106621682Y-85985470D01*
X106621684Y-85985473D01*
X106713869Y-86114929D01*
X106743595Y-86156673D01*
X106743600Y-86156679D01*
X106895700Y-86301705D01*
X106990658Y-86362731D01*
X107072508Y-86415333D01*
X107267623Y-86493445D01*
X107370809Y-86513332D01*
X107473994Y-86533220D01*
X107473995Y-86533220D01*
X108431499Y-86533220D01*
X108431505Y-86533220D01*
X108588298Y-86518248D01*
X108789955Y-86459036D01*
X108976762Y-86362731D01*
X109141966Y-86232812D01*
X109279599Y-86073976D01*
X109281170Y-86071256D01*
X109384681Y-85891969D01*
X109384680Y-85891969D01*
X109384684Y-85891964D01*
X109453424Y-85693353D01*
X109483334Y-85485322D01*
X109473334Y-85275390D01*
X109423784Y-85071144D01*
X109422542Y-85068424D01*
X109336481Y-84879976D01*
X109336478Y-84879971D01*
X109336477Y-84879970D01*
X109336476Y-84879967D01*
X109214566Y-84708768D01*
X109214564Y-84708766D01*
X109214559Y-84708760D01*
X109062459Y-84563734D01*
X108885654Y-84450108D01*
X108878857Y-84447387D01*
X108690537Y-84371995D01*
X108690535Y-84371994D01*
X108484166Y-84332220D01*
X108484165Y-84332220D01*
X107526655Y-84332220D01*
X107372459Y-84346944D01*
X107369862Y-84347192D01*
X107369858Y-84347193D01*
X107168207Y-84406403D01*
X106981393Y-84502711D01*
X106816196Y-84632625D01*
X106816192Y-84632629D01*
X106678558Y-84791466D01*
X106573478Y-84973470D01*
X106504736Y-85172085D01*
X106504736Y-85172087D01*
X106475218Y-85377398D01*
X106474826Y-85380121D01*
X105940500Y-85380121D01*
X105940500Y-85187198D01*
X105940585Y-85183952D01*
X105941349Y-85169368D01*
X105957068Y-84869461D01*
X105957743Y-84863040D01*
X106006758Y-84553591D01*
X106008102Y-84547264D01*
X106089191Y-84244647D01*
X106091198Y-84238471D01*
X106153588Y-84075941D01*
X106203470Y-83945994D01*
X106206099Y-83940088D01*
X106348336Y-83660936D01*
X106351578Y-83655319D01*
X106522217Y-83392559D01*
X106526019Y-83387329D01*
X106558851Y-83346785D01*
X106723184Y-83143850D01*
X106727511Y-83139045D01*
X106949045Y-82917511D01*
X106953850Y-82913184D01*
X107197329Y-82716019D01*
X107202559Y-82712217D01*
X107465319Y-82541578D01*
X107470936Y-82538336D01*
X107504677Y-82521144D01*
X107750088Y-82396099D01*
X107755994Y-82393470D01*
X108031022Y-82287896D01*
X108048471Y-82281198D01*
X108054647Y-82279191D01*
X108104299Y-82265886D01*
X108357264Y-82198102D01*
X108363591Y-82196758D01*
X108673040Y-82147743D01*
X108679461Y-82147068D01*
X108993953Y-82130584D01*
X108997199Y-82130500D01*
X129246525Y-82130500D01*
X129323783Y-82130500D01*
X129327026Y-82130584D01*
X129573943Y-82143526D01*
X129667053Y-82148406D01*
X129673510Y-82149084D01*
X130008196Y-82202094D01*
X130014543Y-82203443D01*
X130341866Y-82291149D01*
X130348034Y-82293152D01*
X130664397Y-82414593D01*
X130670317Y-82417228D01*
X130972273Y-82571083D01*
X130977862Y-82574310D01*
X131262084Y-82758886D01*
X131267323Y-82762694D01*
X131530674Y-82975951D01*
X131535500Y-82980297D01*
X131775105Y-83219903D01*
X131779451Y-83224729D01*
X131992709Y-83488080D01*
X131996524Y-83493332D01*
X132129375Y-83697905D01*
X132181078Y-83777520D01*
X132184325Y-83783144D01*
X132338169Y-84085080D01*
X132340810Y-84091013D01*
X132407355Y-84264367D01*
X132435057Y-84336536D01*
X132438142Y-84344571D01*
X132443790Y-84414213D01*
X132410890Y-84475852D01*
X132382626Y-84496698D01*
X132382688Y-84496794D01*
X132381199Y-84497750D01*
X132379210Y-84499218D01*
X132377723Y-84499984D01*
X132377719Y-84499987D01*
X132212516Y-84629905D01*
X132212512Y-84629909D01*
X132074878Y-84788746D01*
X131969798Y-84970750D01*
X131901056Y-85169365D01*
X131901056Y-85169367D01*
X131885813Y-85275390D01*
X131871146Y-85377401D01*
X131881145Y-85587327D01*
X131930696Y-85791578D01*
X131930698Y-85791582D01*
X132017998Y-85982743D01*
X132018001Y-85982748D01*
X132018002Y-85982750D01*
X132018004Y-85982753D01*
X132139914Y-86153952D01*
X132139915Y-86153953D01*
X132139920Y-86153959D01*
X132292020Y-86298985D01*
X132433197Y-86389714D01*
X132468828Y-86412613D01*
X132663943Y-86490725D01*
X132767129Y-86510612D01*
X132870314Y-86530500D01*
X132870315Y-86530500D01*
X133827819Y-86530500D01*
X133827825Y-86530500D01*
X133984618Y-86515528D01*
X134186275Y-86456316D01*
X134373082Y-86360011D01*
X134538286Y-86230092D01*
X134675919Y-86071256D01*
X134683010Y-86058975D01*
X134779431Y-85891969D01*
X134781004Y-85889244D01*
X134849744Y-85690633D01*
X134879654Y-85482602D01*
X134869654Y-85272670D01*
X134820104Y-85068424D01*
X134776740Y-84973470D01*
X134732801Y-84877256D01*
X134732798Y-84877251D01*
X134732797Y-84877250D01*
X134732796Y-84877247D01*
X134610886Y-84706048D01*
X134610884Y-84706046D01*
X134610879Y-84706040D01*
X134458779Y-84561014D01*
X134281974Y-84447388D01*
X134281972Y-84447387D01*
X134086857Y-84369275D01*
X134083107Y-84368552D01*
X134081405Y-84367674D01*
X134081192Y-84367612D01*
X134081204Y-84367570D01*
X134021007Y-84336536D01*
X133986803Y-84278887D01*
X133983180Y-84265367D01*
X133959686Y-84177685D01*
X133908083Y-83985096D01*
X133879280Y-83905960D01*
X133764709Y-83591180D01*
X133592654Y-83222206D01*
X133587554Y-83211268D01*
X133579074Y-83196581D01*
X133377959Y-82848239D01*
X133377958Y-82848238D01*
X133377956Y-82848234D01*
X133186161Y-82574323D01*
X133137523Y-82504860D01*
X133137522Y-82504859D01*
X133137523Y-82504859D01*
X132888493Y-82208078D01*
X132868074Y-82183743D01*
X132571663Y-81887332D01*
X132571658Y-81887328D01*
X132571659Y-81887328D01*
X132250548Y-81617882D01*
X132250548Y-81617883D01*
X132250547Y-81617882D01*
X131978004Y-81427045D01*
X131907173Y-81377448D01*
X131907168Y-81377445D01*
X131544141Y-81167851D01*
X131544139Y-81167850D01*
X131544138Y-81167849D01*
X131164239Y-80990698D01*
X131164238Y-80990698D01*
X131164231Y-80990695D01*
X131164228Y-80990694D01*
X130770320Y-80847322D01*
X130365415Y-80738828D01*
X129952595Y-80666036D01*
X129535002Y-80629501D01*
X129413130Y-80629500D01*
X129413129Y-80629500D01*
X129413128Y-80629500D01*
X109077487Y-80629500D01*
X109077467Y-80629499D01*
X109074444Y-80629499D01*
X108995563Y-80629500D01*
X108951858Y-80629500D01*
X108796640Y-80629501D01*
X108749620Y-80633615D01*
X108400312Y-80664178D01*
X108008514Y-80733265D01*
X107624227Y-80836237D01*
X107624224Y-80836237D01*
X107624224Y-80836238D01*
X107551513Y-80862703D01*
X107250378Y-80972309D01*
X107152282Y-81018052D01*
X106889812Y-81140444D01*
X106545268Y-81339369D01*
X106545269Y-81339368D01*
X106429020Y-81420767D01*
X106219375Y-81567563D01*
X106219374Y-81567564D01*
X106219374Y-81567563D01*
X106066699Y-81695673D01*
X105934090Y-81806946D01*
X105914608Y-81823293D01*
X105633293Y-82104608D01*
X105377563Y-82409374D01*
X105377564Y-82409374D01*
X105377563Y-82409375D01*
X105276660Y-82553479D01*
X105149368Y-82735269D01*
X105149369Y-82735268D01*
X104950444Y-83079812D01*
X104840001Y-83316658D01*
X104782309Y-83440378D01*
X104646237Y-83814227D01*
X104563029Y-84124758D01*
X104543266Y-84198511D01*
X104543265Y-84198514D01*
X104541266Y-84209847D01*
X104510236Y-84272448D01*
X104450286Y-84308335D01*
X104380452Y-84306115D01*
X104322904Y-84266491D01*
X104306769Y-84240712D01*
X104292376Y-84209847D01*
X104235546Y-84087974D01*
X104221837Y-84058575D01*
X104221834Y-84058569D01*
X104086294Y-83864997D01*
X103919202Y-83697906D01*
X103919195Y-83697901D01*
X103725634Y-83562367D01*
X103725630Y-83562365D01*
X103678955Y-83540600D01*
X103511463Y-83462497D01*
X103511459Y-83462496D01*
X103511455Y-83462494D01*
X103283213Y-83401338D01*
X103283203Y-83401336D01*
X103047801Y-83380741D01*
X103047799Y-83380741D01*
X102812396Y-83401336D01*
X102812386Y-83401338D01*
X102584144Y-83462494D01*
X102584137Y-83462496D01*
X102584137Y-83462497D01*
X102581133Y-83463898D01*
X102369971Y-83562364D01*
X102369969Y-83562365D01*
X102176397Y-83697905D01*
X102009305Y-83864997D01*
X101879375Y-84050558D01*
X101824798Y-84094183D01*
X101755300Y-84101377D01*
X101692945Y-84069854D01*
X101676225Y-84050558D01*
X101546294Y-83864997D01*
X101379202Y-83697906D01*
X101379195Y-83697901D01*
X101185634Y-83562367D01*
X101185630Y-83562365D01*
X101138955Y-83540600D01*
X100971463Y-83462497D01*
X100971459Y-83462496D01*
X100971455Y-83462494D01*
X100743213Y-83401338D01*
X100743203Y-83401336D01*
X100507801Y-83380741D01*
X100507799Y-83380741D01*
X100272396Y-83401336D01*
X100272386Y-83401338D01*
X100044144Y-83462494D01*
X100044137Y-83462496D01*
X100044137Y-83462497D01*
X100041133Y-83463898D01*
X99829971Y-83562364D01*
X99829969Y-83562365D01*
X99636397Y-83697905D01*
X99469305Y-83864997D01*
X99339375Y-84050558D01*
X99284798Y-84094183D01*
X99215300Y-84101377D01*
X99152945Y-84069854D01*
X99136225Y-84050558D01*
X99006294Y-83864997D01*
X98839202Y-83697906D01*
X98839195Y-83697901D01*
X98645634Y-83562367D01*
X98645630Y-83562365D01*
X98598955Y-83540600D01*
X98431463Y-83462497D01*
X98431459Y-83462496D01*
X98431455Y-83462494D01*
X98203213Y-83401338D01*
X98203203Y-83401336D01*
X97967801Y-83380741D01*
X97967799Y-83380741D01*
X97732396Y-83401336D01*
X97732386Y-83401338D01*
X97504131Y-83462498D01*
X97501909Y-83463307D01*
X97500865Y-83463373D01*
X97498907Y-83463898D01*
X97498801Y-83463504D01*
X97432180Y-83467738D01*
X97371125Y-83433767D01*
X97338128Y-83372180D01*
X97335500Y-83346785D01*
X97335500Y-59395657D01*
X97353146Y-58766752D01*
X97354204Y-58729018D01*
X97354399Y-58725554D01*
X97370118Y-58539197D01*
X97410309Y-58062714D01*
X97410686Y-58059359D01*
X97503680Y-57400653D01*
X97504250Y-57397297D01*
X97634030Y-56744847D01*
X97634790Y-56741518D01*
X97800940Y-56097407D01*
X97801895Y-56094092D01*
X98003900Y-55460309D01*
X98005033Y-55457072D01*
X98242264Y-54835594D01*
X98243557Y-54832472D01*
X98515274Y-54225241D01*
X98516755Y-54222168D01*
X98822061Y-53631193D01*
X98823740Y-53628157D01*
X99050322Y-53244045D01*
X99161694Y-53055240D01*
X99163515Y-53052341D01*
X99533095Y-52499225D01*
X99535071Y-52496439D01*
X99935063Y-51964943D01*
X99937220Y-51962239D01*
X100021015Y-51863006D01*
X100366384Y-51454006D01*
X100368656Y-51451463D01*
X100825656Y-50968079D01*
X100828079Y-50965656D01*
X101311463Y-50508656D01*
X101314006Y-50506384D01*
X101822246Y-50077214D01*
X101824943Y-50075063D01*
X102356439Y-49675071D01*
X102359225Y-49673095D01*
X102573382Y-49530000D01*
X115316000Y-49530000D01*
X115316000Y-56896000D01*
X124460000Y-56896000D01*
X124460000Y-49530000D01*
X115316000Y-49530000D01*
X102573382Y-49530000D01*
X102912341Y-49303515D01*
X102915240Y-49301694D01*
X103143250Y-49167194D01*
X103488157Y-48963740D01*
X103491193Y-48962061D01*
X104082168Y-48656755D01*
X104085241Y-48655274D01*
X104692472Y-48383557D01*
X104695594Y-48382264D01*
X105317072Y-48145033D01*
X105320309Y-48143900D01*
X105954092Y-47941895D01*
X105957407Y-47940940D01*
X106601518Y-47774790D01*
X106604847Y-47774030D01*
X107257297Y-47644250D01*
X107260653Y-47643680D01*
X107919359Y-47550686D01*
X107922714Y-47550309D01*
X108585566Y-47494398D01*
X108589018Y-47494204D01*
X109255657Y-47475500D01*
X109331607Y-47475500D01*
X135639359Y-47475500D01*
X135715308Y-47475500D01*
X136289117Y-47493533D01*
G37*
%TD.AperFunction*%
%TA.AperFunction,Conductor*%
G36*
X150038362Y-108689140D02*
G01*
X150075082Y-108748583D01*
X150079500Y-108781389D01*
X150079500Y-118841127D01*
X150100779Y-119002748D01*
X150113730Y-119101116D01*
X150172108Y-119318985D01*
X150181602Y-119354418D01*
X150181605Y-119354428D01*
X150281953Y-119596690D01*
X150281958Y-119596700D01*
X150413075Y-119823803D01*
X150572718Y-120031851D01*
X150572726Y-120031860D01*
X150758140Y-120217274D01*
X150758145Y-120217278D01*
X150758149Y-120217282D01*
X150770578Y-120226819D01*
X150966196Y-120376924D01*
X151193299Y-120508041D01*
X151193309Y-120508046D01*
X151435571Y-120608394D01*
X151435581Y-120608398D01*
X151688884Y-120676270D01*
X151948880Y-120710500D01*
X151948887Y-120710500D01*
X158403362Y-120710500D01*
X158403475Y-120710489D01*
X158522410Y-120710489D01*
X158582900Y-120702525D01*
X158782404Y-120676262D01*
X159035707Y-120608390D01*
X159035719Y-120608384D01*
X159035722Y-120608384D01*
X159263241Y-120514144D01*
X159277985Y-120508037D01*
X159505091Y-120376918D01*
X159713139Y-120217278D01*
X159852822Y-120077596D01*
X159914142Y-120044114D01*
X159983834Y-120049098D01*
X160039767Y-120090970D01*
X160064184Y-120156434D01*
X160064500Y-120165280D01*
X160064500Y-121925727D01*
X160064387Y-121929472D01*
X160048925Y-122185049D01*
X160048022Y-122192487D01*
X160002207Y-122442490D01*
X160000414Y-122449766D01*
X159969994Y-122547388D01*
X159940902Y-122640750D01*
X159924803Y-122692413D01*
X159922145Y-122699420D01*
X159817837Y-122931181D01*
X159814354Y-122937816D01*
X159682865Y-123155328D01*
X159678608Y-123161496D01*
X159521860Y-123361569D01*
X159516891Y-123367178D01*
X159337178Y-123546891D01*
X159331569Y-123551860D01*
X159131496Y-123708608D01*
X159125328Y-123712865D01*
X158907816Y-123844354D01*
X158901181Y-123847837D01*
X158669420Y-123952145D01*
X158662420Y-123954800D01*
X158555369Y-123988158D01*
X158419766Y-124030414D01*
X158412490Y-124032207D01*
X158162487Y-124078022D01*
X158155049Y-124078925D01*
X157899472Y-124094387D01*
X157895727Y-124094500D01*
X150931733Y-124094500D01*
X150931717Y-124094499D01*
X150853903Y-124094499D01*
X150850160Y-124094386D01*
X150575338Y-124077766D01*
X150567899Y-124076862D01*
X150298946Y-124027578D01*
X150291670Y-124025784D01*
X150030607Y-123944436D01*
X150023600Y-123941779D01*
X149774256Y-123829560D01*
X149767620Y-123826077D01*
X149533615Y-123684617D01*
X149527448Y-123680360D01*
X149312199Y-123511724D01*
X149306597Y-123506762D01*
X149113236Y-123313401D01*
X149108275Y-123307800D01*
X148939639Y-123092551D01*
X148935382Y-123086384D01*
X148793922Y-122852379D01*
X148790439Y-122845743D01*
X148772573Y-122806046D01*
X148678217Y-122596392D01*
X148675563Y-122589392D01*
X148594215Y-122328329D01*
X148592423Y-122321064D01*
X148543136Y-122052098D01*
X148542234Y-122044670D01*
X148525613Y-121769839D01*
X148525500Y-121766094D01*
X148525500Y-121747467D01*
X148525501Y-121692022D01*
X148525500Y-121692017D01*
X148525500Y-115300236D01*
X148525500Y-115290247D01*
X148525499Y-115290233D01*
X148525499Y-115192290D01*
X148525499Y-115192286D01*
X148489988Y-114899844D01*
X148419487Y-114613815D01*
X148315023Y-114338369D01*
X148315019Y-114338361D01*
X148178121Y-114077526D01*
X148132378Y-114011256D01*
X148010772Y-113835081D01*
X148010767Y-113835075D01*
X147815424Y-113614577D01*
X147815422Y-113614575D01*
X147594924Y-113419232D01*
X147594921Y-113419230D01*
X147594919Y-113419228D01*
X147352477Y-113251881D01*
X147352478Y-113251881D01*
X147352473Y-113251878D01*
X147091638Y-113114980D01*
X147091633Y-113114978D01*
X147091631Y-113114977D01*
X146816185Y-113010513D01*
X146816178Y-113010510D01*
X146754631Y-112995340D01*
X146694251Y-112960184D01*
X146662463Y-112897964D01*
X146669360Y-112828435D01*
X146671916Y-112822561D01*
X146714303Y-112731663D01*
X146775463Y-112503408D01*
X146796059Y-112268000D01*
X146775463Y-112032592D01*
X146714303Y-111804337D01*
X146614435Y-111590171D01*
X146609131Y-111582595D01*
X146478894Y-111396597D01*
X146311802Y-111229506D01*
X146311796Y-111229501D01*
X146126242Y-111099575D01*
X146082617Y-111044998D01*
X146075423Y-110975500D01*
X146106946Y-110913145D01*
X146126242Y-110896425D01*
X146148426Y-110880891D01*
X146311801Y-110766495D01*
X146478895Y-110599401D01*
X146614052Y-110406377D01*
X146668629Y-110362752D01*
X146715627Y-110353500D01*
X147056677Y-110353500D01*
X147056680Y-110353500D01*
X147398991Y-110319786D01*
X147736348Y-110252681D01*
X148065504Y-110152833D01*
X148383289Y-110021203D01*
X148686640Y-109859058D01*
X148972639Y-109667960D01*
X149238529Y-109449750D01*
X149481750Y-109206529D01*
X149699960Y-108940639D01*
X149852398Y-108712499D01*
X149906010Y-108667693D01*
X149975335Y-108658986D01*
X150038362Y-108689140D01*
G37*
%TD.AperFunction*%
%TA.AperFunction,Conductor*%
G36*
X101862655Y-117402946D02*
G01*
X101879375Y-117422242D01*
X101990548Y-117581014D01*
X102009305Y-117607801D01*
X102176399Y-117774895D01*
X102241231Y-117820291D01*
X102369965Y-117910432D01*
X102369967Y-117910433D01*
X102369970Y-117910435D01*
X102584137Y-118010303D01*
X102584143Y-118010304D01*
X102584144Y-118010305D01*
X102626205Y-118021575D01*
X102812392Y-118071463D01*
X103000718Y-118087939D01*
X103047799Y-118092059D01*
X103047800Y-118092059D01*
X103047801Y-118092059D01*
X103089427Y-118088417D01*
X103283208Y-118071463D01*
X103511463Y-118010303D01*
X103725630Y-117910435D01*
X103822481Y-117842618D01*
X103888687Y-117820291D01*
X103956454Y-117837301D01*
X104004268Y-117888248D01*
X104016946Y-117956958D01*
X103990465Y-118021615D01*
X103986833Y-118025952D01*
X103890986Y-118135245D01*
X103885245Y-118140986D01*
X103706281Y-118297933D01*
X103699840Y-118302875D01*
X103501931Y-118435113D01*
X103494900Y-118439172D01*
X103281412Y-118544453D01*
X103273916Y-118547557D01*
X103163638Y-118584991D01*
X103048515Y-118624070D01*
X103040673Y-118626171D01*
X102807222Y-118672607D01*
X102799172Y-118673667D01*
X102559605Y-118689366D01*
X102555550Y-118689499D01*
X102475683Y-118689499D01*
X102475663Y-118689500D01*
X89302230Y-118689500D01*
X89235191Y-118669815D01*
X89214549Y-118653181D01*
X88594619Y-118033251D01*
X88561134Y-117971928D01*
X88558300Y-117945570D01*
X88558300Y-117924100D01*
X88577985Y-117857061D01*
X88611175Y-117822526D01*
X88679201Y-117774895D01*
X88846295Y-117607801D01*
X88976225Y-117422242D01*
X89030802Y-117378617D01*
X89100300Y-117371423D01*
X89162655Y-117402946D01*
X89179375Y-117422242D01*
X89290548Y-117581014D01*
X89309305Y-117607801D01*
X89476399Y-117774895D01*
X89541231Y-117820291D01*
X89669965Y-117910432D01*
X89669967Y-117910433D01*
X89669970Y-117910435D01*
X89884137Y-118010303D01*
X89884143Y-118010304D01*
X89884144Y-118010305D01*
X89926205Y-118021575D01*
X90112392Y-118071463D01*
X90300718Y-118087939D01*
X90347799Y-118092059D01*
X90347800Y-118092059D01*
X90347801Y-118092059D01*
X90389427Y-118088417D01*
X90583208Y-118071463D01*
X90811463Y-118010303D01*
X91025630Y-117910435D01*
X91219201Y-117774895D01*
X91386295Y-117607801D01*
X91516225Y-117422242D01*
X91570802Y-117378617D01*
X91640300Y-117371423D01*
X91702655Y-117402946D01*
X91719375Y-117422242D01*
X91830548Y-117581014D01*
X91849305Y-117607801D01*
X92016399Y-117774895D01*
X92081231Y-117820291D01*
X92209965Y-117910432D01*
X92209967Y-117910433D01*
X92209970Y-117910435D01*
X92424137Y-118010303D01*
X92424143Y-118010304D01*
X92424144Y-118010305D01*
X92466205Y-118021575D01*
X92652392Y-118071463D01*
X92840718Y-118087939D01*
X92887799Y-118092059D01*
X92887800Y-118092059D01*
X92887801Y-118092059D01*
X92929427Y-118088417D01*
X93123208Y-118071463D01*
X93351463Y-118010303D01*
X93565630Y-117910435D01*
X93759201Y-117774895D01*
X93926295Y-117607801D01*
X94056225Y-117422242D01*
X94110802Y-117378617D01*
X94180300Y-117371423D01*
X94242655Y-117402946D01*
X94259375Y-117422242D01*
X94370548Y-117581014D01*
X94389305Y-117607801D01*
X94556399Y-117774895D01*
X94621231Y-117820291D01*
X94749965Y-117910432D01*
X94749967Y-117910433D01*
X94749970Y-117910435D01*
X94964137Y-118010303D01*
X94964143Y-118010304D01*
X94964144Y-118010305D01*
X95006205Y-118021575D01*
X95192392Y-118071463D01*
X95380718Y-118087939D01*
X95427799Y-118092059D01*
X95427800Y-118092059D01*
X95427801Y-118092059D01*
X95469427Y-118088417D01*
X95663208Y-118071463D01*
X95891463Y-118010303D01*
X96105630Y-117910435D01*
X96299201Y-117774895D01*
X96466295Y-117607801D01*
X96596225Y-117422242D01*
X96650802Y-117378617D01*
X96720300Y-117371423D01*
X96782655Y-117402946D01*
X96799375Y-117422242D01*
X96910548Y-117581014D01*
X96929305Y-117607801D01*
X97096399Y-117774895D01*
X97161231Y-117820291D01*
X97289965Y-117910432D01*
X97289967Y-117910433D01*
X97289970Y-117910435D01*
X97504137Y-118010303D01*
X97504143Y-118010304D01*
X97504144Y-118010305D01*
X97546205Y-118021575D01*
X97732392Y-118071463D01*
X97920718Y-118087939D01*
X97967799Y-118092059D01*
X97967800Y-118092059D01*
X97967801Y-118092059D01*
X98009427Y-118088417D01*
X98203208Y-118071463D01*
X98431463Y-118010303D01*
X98645630Y-117910435D01*
X98839201Y-117774895D01*
X99006295Y-117607801D01*
X99136225Y-117422242D01*
X99190802Y-117378617D01*
X99260300Y-117371423D01*
X99322655Y-117402946D01*
X99339375Y-117422242D01*
X99450548Y-117581014D01*
X99469305Y-117607801D01*
X99636399Y-117774895D01*
X99701231Y-117820291D01*
X99829965Y-117910432D01*
X99829967Y-117910433D01*
X99829970Y-117910435D01*
X100044137Y-118010303D01*
X100044143Y-118010304D01*
X100044144Y-118010305D01*
X100086205Y-118021575D01*
X100272392Y-118071463D01*
X100460718Y-118087939D01*
X100507799Y-118092059D01*
X100507800Y-118092059D01*
X100507801Y-118092059D01*
X100549427Y-118088417D01*
X100743208Y-118071463D01*
X100971463Y-118010303D01*
X101185630Y-117910435D01*
X101379201Y-117774895D01*
X101546295Y-117607801D01*
X101676225Y-117422242D01*
X101730802Y-117378617D01*
X101800300Y-117371423D01*
X101862655Y-117402946D01*
G37*
%TD.AperFunction*%
%TA.AperFunction,Conductor*%
G36*
X101862655Y-85402946D02*
G01*
X101879375Y-85422242D01*
X102009300Y-85607795D01*
X102009305Y-85607801D01*
X102176399Y-85774895D01*
X102273184Y-85842665D01*
X102369965Y-85910432D01*
X102369967Y-85910433D01*
X102369970Y-85910435D01*
X102584137Y-86010303D01*
X102584143Y-86010304D01*
X102584144Y-86010305D01*
X102622469Y-86020574D01*
X102812392Y-86071463D01*
X103000718Y-86087939D01*
X103047799Y-86092059D01*
X103047800Y-86092059D01*
X103047801Y-86092059D01*
X103087034Y-86088626D01*
X103283208Y-86071463D01*
X103511463Y-86010303D01*
X103725630Y-85910435D01*
X103919201Y-85774895D01*
X104086295Y-85607801D01*
X104213925Y-85425527D01*
X104268502Y-85381902D01*
X104338000Y-85374708D01*
X104400355Y-85406231D01*
X104435769Y-85466461D01*
X104439500Y-85496650D01*
X104439500Y-115976150D01*
X104419815Y-116043189D01*
X104367011Y-116088944D01*
X104297853Y-116098888D01*
X104234297Y-116069863D01*
X104213925Y-116047273D01*
X104086294Y-115864997D01*
X103919202Y-115697906D01*
X103919201Y-115697905D01*
X103785893Y-115604561D01*
X103726176Y-115562747D01*
X103682551Y-115508170D01*
X103673300Y-115461172D01*
X103673300Y-103493276D01*
X103673301Y-103493272D01*
X103673301Y-103441913D01*
X103673302Y-103264692D01*
X103638562Y-102911955D01*
X103606498Y-102750756D01*
X103569419Y-102564343D01*
X103569416Y-102564332D01*
X103569415Y-102564329D01*
X103569414Y-102564323D01*
X103466525Y-102225142D01*
X103330886Y-101897679D01*
X103187631Y-101629668D01*
X103163809Y-101585099D01*
X103163808Y-101585097D01*
X103163803Y-101585088D01*
X102966885Y-101290380D01*
X102742028Y-101016392D01*
X102742027Y-101016391D01*
X102742023Y-101016386D01*
X102491404Y-100765767D01*
X102217414Y-100540910D01*
X101922706Y-100343993D01*
X101922703Y-100343991D01*
X101922701Y-100343990D01*
X101610109Y-100176908D01*
X101594392Y-100170398D01*
X101282651Y-100041272D01*
X101282650Y-100041271D01*
X101282646Y-100041270D01*
X100968726Y-99946046D01*
X100943461Y-99938382D01*
X100766036Y-99903091D01*
X100595831Y-99869236D01*
X100595827Y-99869235D01*
X100595819Y-99869234D01*
X100336671Y-99843712D01*
X100243095Y-99834497D01*
X100243092Y-99834497D01*
X100067622Y-99834497D01*
X100064145Y-99834399D01*
X99763656Y-99817524D01*
X99756742Y-99816745D01*
X99461756Y-99766624D01*
X99454972Y-99765076D01*
X99167443Y-99682238D01*
X99160875Y-99679940D01*
X98884439Y-99565435D01*
X98878169Y-99562416D01*
X98616288Y-99417678D01*
X98610396Y-99413976D01*
X98366366Y-99240828D01*
X98360926Y-99236490D01*
X98137812Y-99037102D01*
X98132892Y-99032182D01*
X98102874Y-98998592D01*
X97933503Y-98809067D01*
X97929182Y-98803648D01*
X97756025Y-98559608D01*
X97752325Y-98553719D01*
X97607586Y-98291835D01*
X97604567Y-98285566D01*
X97518341Y-98077401D01*
X97490059Y-98009125D01*
X97487763Y-98002561D01*
X97404926Y-97715035D01*
X97403378Y-97708251D01*
X97388604Y-97621300D01*
X97353253Y-97413252D01*
X97352477Y-97406358D01*
X97341097Y-97203755D01*
X97335598Y-97105843D01*
X97335500Y-97102365D01*
X97335500Y-86126014D01*
X97355185Y-86058975D01*
X97407989Y-86013220D01*
X97477147Y-86003276D01*
X97501923Y-86009497D01*
X97504139Y-86010304D01*
X97627828Y-86043445D01*
X97732392Y-86071463D01*
X97920718Y-86087939D01*
X97967799Y-86092059D01*
X97967800Y-86092059D01*
X97967801Y-86092059D01*
X98007034Y-86088626D01*
X98203208Y-86071463D01*
X98431463Y-86010303D01*
X98645630Y-85910435D01*
X98839201Y-85774895D01*
X99006295Y-85607801D01*
X99136225Y-85422242D01*
X99190802Y-85378617D01*
X99260300Y-85371423D01*
X99322655Y-85402946D01*
X99339375Y-85422242D01*
X99469300Y-85607795D01*
X99469305Y-85607801D01*
X99636399Y-85774895D01*
X99733184Y-85842665D01*
X99829965Y-85910432D01*
X99829967Y-85910433D01*
X99829970Y-85910435D01*
X100044137Y-86010303D01*
X100044143Y-86010304D01*
X100044144Y-86010305D01*
X100082469Y-86020574D01*
X100272392Y-86071463D01*
X100460718Y-86087939D01*
X100507799Y-86092059D01*
X100507800Y-86092059D01*
X100507801Y-86092059D01*
X100547034Y-86088626D01*
X100743208Y-86071463D01*
X100971463Y-86010303D01*
X101185630Y-85910435D01*
X101379201Y-85774895D01*
X101546295Y-85607801D01*
X101676225Y-85422242D01*
X101730802Y-85378617D01*
X101800300Y-85371423D01*
X101862655Y-85402946D01*
G37*
%TD.AperFunction*%
%TA.AperFunction,Conductor*%
G36*
X144255255Y-110394546D02*
G01*
X144271975Y-110413842D01*
X144401901Y-110599396D01*
X144401906Y-110599402D01*
X144568997Y-110766493D01*
X144569003Y-110766498D01*
X144754558Y-110896425D01*
X144798183Y-110951002D01*
X144805377Y-111020500D01*
X144773854Y-111082855D01*
X144754558Y-111099575D01*
X144568997Y-111229505D01*
X144401905Y-111396597D01*
X144271669Y-111582595D01*
X144217092Y-111626220D01*
X144147594Y-111633414D01*
X144085239Y-111601891D01*
X144068519Y-111582595D01*
X144015325Y-111506626D01*
X144015325Y-111506625D01*
X143383476Y-112138475D01*
X143359893Y-112058156D01*
X143282161Y-111937202D01*
X143173500Y-111843048D01*
X143042715Y-111783320D01*
X143032933Y-111781913D01*
X143661773Y-111153073D01*
X143661773Y-111153072D01*
X143585805Y-111099880D01*
X143542180Y-111045304D01*
X143534986Y-110975805D01*
X143566508Y-110913451D01*
X143585799Y-110896734D01*
X143771801Y-110766495D01*
X143938895Y-110599401D01*
X144068825Y-110413842D01*
X144123402Y-110370217D01*
X144192900Y-110363023D01*
X144255255Y-110394546D01*
G37*
%TD.AperFunction*%
%TA.AperFunction,Conductor*%
G36*
X144641654Y-77949155D02*
G01*
X144762231Y-77973139D01*
X144766931Y-77974268D01*
X145078009Y-78062001D01*
X145193061Y-78094449D01*
X145197681Y-78095949D01*
X145613085Y-78249198D01*
X145617572Y-78251058D01*
X146019647Y-78436417D01*
X146023987Y-78438628D01*
X146410284Y-78654965D01*
X146414436Y-78657510D01*
X146782559Y-78903482D01*
X146786497Y-78906343D01*
X147134205Y-79180453D01*
X147137889Y-79183599D01*
X147463012Y-79484139D01*
X147466452Y-79487579D01*
X147766994Y-79812704D01*
X147770144Y-79816392D01*
X147958562Y-80055399D01*
X148044252Y-80164096D01*
X148047114Y-80168036D01*
X148293086Y-80536158D01*
X148295631Y-80540310D01*
X148511968Y-80926607D01*
X148514179Y-80930947D01*
X148699536Y-81333019D01*
X148701400Y-81337518D01*
X148854645Y-81752905D01*
X148856150Y-81757537D01*
X148976326Y-82183649D01*
X148977463Y-82188384D01*
X149063838Y-82622619D01*
X149064600Y-82627429D01*
X149084536Y-82795865D01*
X149116641Y-83067115D01*
X149117021Y-83071947D01*
X149132367Y-83462497D01*
X149134500Y-83516793D01*
X149134500Y-106850820D01*
X149134387Y-106854564D01*
X149118323Y-107120134D01*
X149117419Y-107127573D01*
X149069799Y-107387424D01*
X149068006Y-107394700D01*
X148989417Y-107646905D01*
X148986759Y-107653913D01*
X148878342Y-107894804D01*
X148874859Y-107901439D01*
X148738191Y-108127519D01*
X148733934Y-108133687D01*
X148571012Y-108341641D01*
X148566043Y-108347250D01*
X148379250Y-108534043D01*
X148373641Y-108539012D01*
X148226053Y-108654640D01*
X148181557Y-108689501D01*
X148165687Y-108701934D01*
X148159519Y-108706191D01*
X147933439Y-108842859D01*
X147926804Y-108846342D01*
X147685913Y-108954759D01*
X147678907Y-108957415D01*
X147621154Y-108975412D01*
X147426700Y-109036006D01*
X147419424Y-109037799D01*
X147159573Y-109085419D01*
X147152134Y-109086323D01*
X146886564Y-109102387D01*
X146882820Y-109102500D01*
X146715627Y-109102500D01*
X146648588Y-109082815D01*
X146614052Y-109049623D01*
X146478894Y-108856597D01*
X146311802Y-108689506D01*
X146311796Y-108689501D01*
X146126242Y-108559575D01*
X146082617Y-108504998D01*
X146075423Y-108435500D01*
X146106946Y-108373145D01*
X146126242Y-108356425D01*
X146161904Y-108331454D01*
X146311801Y-108226495D01*
X146478895Y-108059401D01*
X146614435Y-107865830D01*
X146714303Y-107651663D01*
X146775463Y-107423408D01*
X146796059Y-107188000D01*
X146775463Y-106952592D01*
X146714303Y-106724337D01*
X146614435Y-106510171D01*
X146608825Y-106502158D01*
X146478894Y-106316597D01*
X146311802Y-106149506D01*
X146311796Y-106149501D01*
X146126242Y-106019575D01*
X146082617Y-105964998D01*
X146075423Y-105895500D01*
X146106946Y-105833145D01*
X146126242Y-105816425D01*
X146148426Y-105800891D01*
X146311801Y-105686495D01*
X146478895Y-105519401D01*
X146614435Y-105325830D01*
X146714303Y-105111663D01*
X146775463Y-104883408D01*
X146796059Y-104648000D01*
X146775463Y-104412592D01*
X146714303Y-104184337D01*
X146614435Y-103970171D01*
X146608825Y-103962158D01*
X146478894Y-103776597D01*
X146311802Y-103609506D01*
X146311796Y-103609501D01*
X146126242Y-103479575D01*
X146082617Y-103424998D01*
X146075423Y-103355500D01*
X146106946Y-103293145D01*
X146126242Y-103276425D01*
X146290203Y-103161618D01*
X146311801Y-103146495D01*
X146478895Y-102979401D01*
X146614435Y-102785830D01*
X146714303Y-102571663D01*
X146775463Y-102343408D01*
X146796059Y-102108000D01*
X146775463Y-101872592D01*
X146714303Y-101644337D01*
X146614435Y-101430171D01*
X146589080Y-101393959D01*
X146478894Y-101236597D01*
X146311802Y-101069506D01*
X146311796Y-101069501D01*
X146126242Y-100939575D01*
X146082617Y-100884998D01*
X146075423Y-100815500D01*
X146106946Y-100753145D01*
X146126242Y-100736425D01*
X146268725Y-100636657D01*
X146311801Y-100606495D01*
X146478895Y-100439401D01*
X146614435Y-100245830D01*
X146714303Y-100031663D01*
X146731474Y-99967576D01*
X146767836Y-99907919D01*
X146800812Y-99886392D01*
X146874749Y-99853474D01*
X147161147Y-99688122D01*
X147428691Y-99493740D01*
X147674452Y-99272457D01*
X147895736Y-99026697D01*
X148090118Y-98759153D01*
X148255470Y-98472756D01*
X148389980Y-98170644D01*
X148492173Y-97856127D01*
X148560931Y-97532650D01*
X148595500Y-97203759D01*
X148595500Y-97038407D01*
X148595500Y-96962458D01*
X148595500Y-84227442D01*
X148595500Y-84053302D01*
X148573113Y-83783144D01*
X148560239Y-83627780D01*
X148493994Y-83230803D01*
X148489960Y-83206627D01*
X148385143Y-82792714D01*
X148385142Y-82792711D01*
X148385140Y-82792703D01*
X148291912Y-82521144D01*
X148246502Y-82388870D01*
X148116451Y-82092385D01*
X148074985Y-81997852D01*
X148074985Y-81997853D01*
X147871766Y-81622337D01*
X147638233Y-81264889D01*
X147465588Y-81043076D01*
X147375975Y-80927941D01*
X147086790Y-80613803D01*
X146772652Y-80324619D01*
X146435710Y-80062366D01*
X146435710Y-80062365D01*
X146256979Y-79945596D01*
X146078253Y-79828829D01*
X146078249Y-79828827D01*
X146078250Y-79828827D01*
X145702739Y-79625611D01*
X145702740Y-79625611D01*
X145311727Y-79454096D01*
X144907885Y-79315457D01*
X144907880Y-79315455D01*
X144907878Y-79315455D01*
X144885332Y-79309745D01*
X144763615Y-79278921D01*
X144703460Y-79243381D01*
X144681675Y-79211121D01*
X144654125Y-79152040D01*
X144607835Y-79052771D01*
X144472295Y-78859199D01*
X144472294Y-78859197D01*
X144305202Y-78692106D01*
X144305196Y-78692101D01*
X144119642Y-78562175D01*
X144076017Y-78507598D01*
X144068823Y-78438100D01*
X144100346Y-78375745D01*
X144119642Y-78359025D01*
X144141826Y-78343491D01*
X144305201Y-78229095D01*
X144472295Y-78062001D01*
X144515946Y-77999659D01*
X144570522Y-77956035D01*
X144640020Y-77948841D01*
X144641654Y-77949155D01*
G37*
%TD.AperFunction*%
%TA.AperFunction,Conductor*%
G36*
X144620956Y-80544583D02*
G01*
X144651873Y-80554945D01*
X144843810Y-80619276D01*
X144849108Y-80621329D01*
X145174338Y-80764932D01*
X145179438Y-80767471D01*
X145438839Y-80911957D01*
X145490006Y-80940457D01*
X145494877Y-80943473D01*
X145788159Y-81144374D01*
X145792718Y-81147817D01*
X146024923Y-81340637D01*
X146066212Y-81374923D01*
X146070446Y-81378783D01*
X146321822Y-81630158D01*
X146325670Y-81634380D01*
X146552776Y-81907872D01*
X146556221Y-81912434D01*
X146757123Y-82205716D01*
X146760139Y-82210587D01*
X146933119Y-82521144D01*
X146935668Y-82526264D01*
X147079266Y-82851480D01*
X147081326Y-82856800D01*
X147194299Y-83193864D01*
X147195867Y-83199375D01*
X147277254Y-83545409D01*
X147278307Y-83551041D01*
X147327420Y-83903116D01*
X147327948Y-83908821D01*
X147344434Y-84265367D01*
X147344500Y-84268231D01*
X147344500Y-97036382D01*
X147344367Y-97040429D01*
X147340192Y-97104136D01*
X147328476Y-97282877D01*
X147327416Y-97290926D01*
X147280411Y-97527233D01*
X147278310Y-97535075D01*
X147200866Y-97763216D01*
X147197759Y-97770717D01*
X147091196Y-97986804D01*
X147087136Y-97993835D01*
X146953282Y-98194162D01*
X146948339Y-98200603D01*
X146789481Y-98381745D01*
X146783741Y-98387486D01*
X146602599Y-98546343D01*
X146596157Y-98551285D01*
X146523367Y-98599922D01*
X146456690Y-98620799D01*
X146389309Y-98602314D01*
X146366796Y-98584500D01*
X146311802Y-98529506D01*
X146311795Y-98529501D01*
X146118234Y-98393967D01*
X146118230Y-98393965D01*
X146111087Y-98390634D01*
X145904063Y-98294097D01*
X145904059Y-98294096D01*
X145904055Y-98294094D01*
X145675813Y-98232938D01*
X145675803Y-98232936D01*
X145440401Y-98212341D01*
X145440399Y-98212341D01*
X145204996Y-98232936D01*
X145204986Y-98232938D01*
X144971593Y-98295474D01*
X144901743Y-98293811D01*
X144843880Y-98254648D01*
X144816377Y-98190419D01*
X144815500Y-98175699D01*
X144815500Y-89793348D01*
X144816030Y-89785256D01*
X144826133Y-89708541D01*
X144834511Y-89677279D01*
X144836295Y-89672973D01*
X144859433Y-89617116D01*
X144875613Y-89589093D01*
X144915262Y-89537425D01*
X144938143Y-89514546D01*
X144989803Y-89474907D01*
X145017832Y-89458724D01*
X145077997Y-89433805D01*
X145109254Y-89425430D01*
X145155066Y-89419398D01*
X145164094Y-89419281D01*
X145164052Y-89418550D01*
X145171538Y-89418113D01*
X145171539Y-89418114D01*
X145227386Y-89414860D01*
X145230990Y-89414756D01*
X145265946Y-89414756D01*
X145265949Y-89414756D01*
X145266241Y-89414683D01*
X145288709Y-89411288D01*
X145323181Y-89409281D01*
X145333220Y-89406176D01*
X145354304Y-89401621D01*
X145367779Y-89399920D01*
X145416172Y-89380759D01*
X145420598Y-89379199D01*
X145505810Y-89352791D01*
X145714214Y-89254465D01*
X145906731Y-89127828D01*
X146079542Y-88975393D01*
X146229216Y-88800186D01*
X146352783Y-88605684D01*
X146447791Y-88395747D01*
X146512354Y-88174543D01*
X146545190Y-87946460D01*
X146545275Y-87914543D01*
X146545500Y-87911061D01*
X146545500Y-87830739D01*
X146545512Y-87824748D01*
X146545650Y-87755294D01*
X146545649Y-87755291D01*
X146545654Y-87752944D01*
X146545500Y-87750345D01*
X146545500Y-84593732D01*
X146543552Y-84575196D01*
X146511408Y-84269360D01*
X146443597Y-83950333D01*
X146342810Y-83640141D01*
X146210152Y-83342183D01*
X146073408Y-83105336D01*
X146047076Y-83059727D01*
X146047073Y-83059722D01*
X145855371Y-82795865D01*
X145855364Y-82795856D01*
X145637130Y-82553483D01*
X145617040Y-82535394D01*
X145394746Y-82335238D01*
X145394744Y-82335236D01*
X145394739Y-82335232D01*
X145130882Y-82143529D01*
X145130877Y-82143526D01*
X144848428Y-81980454D01*
X144848429Y-81980454D01*
X144839526Y-81976490D01*
X144795460Y-81956870D01*
X144742225Y-81911621D01*
X144726123Y-81875684D01*
X144707706Y-81806946D01*
X144707704Y-81806942D01*
X144707703Y-81806937D01*
X144607835Y-81592771D01*
X144602225Y-81584758D01*
X144472294Y-81399197D01*
X144305202Y-81232106D01*
X144305196Y-81232101D01*
X144119642Y-81102175D01*
X144076017Y-81047598D01*
X144068823Y-80978100D01*
X144100346Y-80915745D01*
X144119642Y-80899025D01*
X144244490Y-80811605D01*
X144305201Y-80769095D01*
X144472295Y-80602001D01*
X144479973Y-80591034D01*
X144534547Y-80547409D01*
X144604045Y-80540213D01*
X144620956Y-80544583D01*
G37*
%TD.AperFunction*%
%TA.AperFunction,Conductor*%
G36*
X145564324Y-66577391D02*
G01*
X145567182Y-66577802D01*
X146357763Y-66710744D01*
X146360596Y-66711290D01*
X147143959Y-66881700D01*
X147146800Y-66882390D01*
X147921143Y-67089874D01*
X147923950Y-67090699D01*
X148687541Y-67334792D01*
X148690292Y-67335745D01*
X149441393Y-67615892D01*
X149444133Y-67616989D01*
X150181016Y-67932541D01*
X150183701Y-67933767D01*
X150904769Y-68284040D01*
X150907391Y-68285392D01*
X151610968Y-68669573D01*
X151613503Y-68671037D01*
X152036421Y-68928819D01*
X152297989Y-69088253D01*
X152300472Y-69089848D01*
X152964362Y-69539182D01*
X152966750Y-69540882D01*
X153608505Y-70021294D01*
X153610794Y-70023095D01*
X154228957Y-70533494D01*
X154231180Y-70535419D01*
X154472662Y-70754941D01*
X154824354Y-71074650D01*
X154826468Y-71076665D01*
X155393331Y-71643528D01*
X155395347Y-71645643D01*
X155934571Y-72238809D01*
X155936503Y-72241039D01*
X156446903Y-72859203D01*
X156448708Y-72861498D01*
X156929103Y-73503231D01*
X156930815Y-73505635D01*
X157380149Y-74169525D01*
X157381744Y-74172008D01*
X157798955Y-74856485D01*
X157800431Y-74859041D01*
X158184605Y-75562603D01*
X158185958Y-75565227D01*
X158536231Y-76286295D01*
X158537457Y-76288980D01*
X158853009Y-77025863D01*
X158854106Y-77028603D01*
X159134253Y-77779704D01*
X159135214Y-77782479D01*
X159224566Y-78061996D01*
X159379295Y-78546034D01*
X159380127Y-78548866D01*
X159587608Y-79323196D01*
X159588304Y-79326064D01*
X159747202Y-80056507D01*
X159758699Y-80109355D01*
X159759257Y-80112253D01*
X159892191Y-80902779D01*
X159892611Y-80905701D01*
X159914888Y-81092019D01*
X159903302Y-81160921D01*
X159856303Y-81212621D01*
X159788814Y-81230705D01*
X159722262Y-81209431D01*
X159716279Y-81205116D01*
X159505096Y-81043072D01*
X159277993Y-80911954D01*
X159277978Y-80911947D01*
X159035726Y-80811604D01*
X159035714Y-80811600D01*
X159035711Y-80811599D01*
X158985050Y-80798024D01*
X158782410Y-80743728D01*
X158522410Y-80709500D01*
X158522409Y-80709500D01*
X158391388Y-80709500D01*
X152080500Y-80709500D01*
X152080000Y-80709500D01*
X151948880Y-80709500D01*
X151948872Y-80709500D01*
X151726117Y-80738828D01*
X151688884Y-80743730D01*
X151435592Y-80811599D01*
X151435581Y-80811602D01*
X151435571Y-80811605D01*
X151193309Y-80911953D01*
X151193299Y-80911958D01*
X150966196Y-81043075D01*
X150758148Y-81202718D01*
X150572718Y-81388148D01*
X150413077Y-81596193D01*
X150360298Y-81687610D01*
X150309730Y-81735825D01*
X150241123Y-81749047D01*
X150176259Y-81723079D01*
X150135731Y-81666165D01*
X150133934Y-81660544D01*
X150126252Y-81634382D01*
X150033957Y-81320051D01*
X150021961Y-81287890D01*
X149930649Y-81043073D01*
X149860426Y-80854799D01*
X149819381Y-80764923D01*
X149654149Y-80403114D01*
X149416171Y-79967293D01*
X149415348Y-79966013D01*
X149264058Y-79730600D01*
X149147712Y-79549561D01*
X149147713Y-79549562D01*
X148850133Y-79152042D01*
X148524956Y-78776767D01*
X148173836Y-78425647D01*
X147798560Y-78100469D01*
X147798559Y-78100468D01*
X147401032Y-77802883D01*
X147401033Y-77802884D01*
X146983302Y-77534425D01*
X146547480Y-77296448D01*
X146095797Y-77090172D01*
X146095798Y-77090172D01*
X146095795Y-77090171D01*
X145630542Y-76916641D01*
X145154096Y-76776744D01*
X145021753Y-76747954D01*
X144743207Y-76687359D01*
X144681884Y-76653874D01*
X144657183Y-76618598D01*
X144607835Y-76512771D01*
X144607834Y-76512769D01*
X144472294Y-76319197D01*
X144305202Y-76152106D01*
X144305196Y-76152101D01*
X144119642Y-76022175D01*
X144076017Y-75967598D01*
X144068823Y-75898100D01*
X144100346Y-75835745D01*
X144119642Y-75819025D01*
X144141826Y-75803491D01*
X144305201Y-75689095D01*
X144472295Y-75522001D01*
X144607835Y-75328430D01*
X144707703Y-75114263D01*
X144768863Y-74886008D01*
X144789459Y-74650600D01*
X144768863Y-74415192D01*
X144707703Y-74186937D01*
X144607835Y-73972771D01*
X144602225Y-73964758D01*
X144472294Y-73779197D01*
X144305202Y-73612106D01*
X144305196Y-73612101D01*
X144119642Y-73482175D01*
X144076017Y-73427598D01*
X144068823Y-73358100D01*
X144100346Y-73295745D01*
X144119642Y-73279025D01*
X144141826Y-73263491D01*
X144305201Y-73149095D01*
X144472295Y-72982001D01*
X144607835Y-72788430D01*
X144707703Y-72574263D01*
X144768863Y-72346008D01*
X144789459Y-72110600D01*
X144768863Y-71875192D01*
X144707703Y-71646937D01*
X144607835Y-71432771D01*
X144602225Y-71424758D01*
X144472294Y-71239197D01*
X144305202Y-71072106D01*
X144305201Y-71072105D01*
X144119205Y-70941869D01*
X144075581Y-70887292D01*
X144068388Y-70817793D01*
X144099910Y-70755439D01*
X144119205Y-70738719D01*
X144304882Y-70608705D01*
X144471905Y-70441682D01*
X144607400Y-70248178D01*
X144707229Y-70034092D01*
X144707232Y-70034086D01*
X144764436Y-69820600D01*
X143867486Y-69820600D01*
X143893293Y-69780444D01*
X143933800Y-69642489D01*
X143933800Y-69498711D01*
X143893293Y-69360756D01*
X143867486Y-69320600D01*
X144764436Y-69320600D01*
X144764435Y-69320599D01*
X144707232Y-69107113D01*
X144707229Y-69107107D01*
X144607400Y-68893022D01*
X144607399Y-68893020D01*
X144471913Y-68699526D01*
X144471908Y-68699520D01*
X144304878Y-68532490D01*
X144119205Y-68402479D01*
X144075580Y-68347902D01*
X144068388Y-68278404D01*
X144099910Y-68216049D01*
X144119206Y-68199330D01*
X144268633Y-68094700D01*
X144305201Y-68069095D01*
X144472295Y-67902001D01*
X144607835Y-67708430D01*
X144707703Y-67494263D01*
X144768863Y-67266008D01*
X144789459Y-67030600D01*
X144768863Y-66795192D01*
X144729662Y-66648890D01*
X144731325Y-66579043D01*
X144770487Y-66521180D01*
X144834716Y-66493676D01*
X144864153Y-66493676D01*
X145564324Y-66577391D01*
G37*
%TD.AperFunction*%
%TA.AperFunction,Conductor*%
G36*
X121503236Y-40728825D02*
G01*
X121666092Y-40731985D01*
X123042948Y-40785194D01*
X123212165Y-40792856D01*
X124581045Y-40881102D01*
X124756210Y-40893578D01*
X126116299Y-41016493D01*
X126297109Y-41034080D01*
X127647909Y-41191313D01*
X127833850Y-41214266D01*
X129066449Y-41390014D01*
X129174506Y-41405422D01*
X129365473Y-41434025D01*
X130695531Y-41658753D01*
X130890825Y-41693189D01*
X132209619Y-41951103D01*
X132409047Y-41991610D01*
X133715884Y-42282310D01*
X133918989Y-42329062D01*
X135213325Y-42652170D01*
X135419709Y-42705330D01*
X136700968Y-43060458D01*
X136910245Y-43120174D01*
X138177638Y-43506862D01*
X138389647Y-43573332D01*
X139642550Y-43991153D01*
X139856752Y-44064444D01*
X141094553Y-44512962D01*
X141263605Y-44575733D01*
X141310798Y-44593256D01*
X142532926Y-45072041D01*
X142690481Y-45135224D01*
X142750653Y-45159355D01*
X143956512Y-45667957D01*
X144175437Y-45762392D01*
X145364441Y-46300355D01*
X145584176Y-46401956D01*
X146755720Y-46968798D01*
X146975942Y-47077622D01*
X147886741Y-47547621D01*
X148129324Y-47672801D01*
X148349859Y-47788966D01*
X149484655Y-48412065D01*
X149704882Y-48535445D01*
X149707956Y-48537238D01*
X150820482Y-49185937D01*
X151040267Y-49316647D01*
X151700057Y-49724481D01*
X152136073Y-49993994D01*
X152355033Y-50131998D01*
X153430594Y-50835738D01*
X153648325Y-50980968D01*
X154702979Y-51710485D01*
X154831318Y-51800969D01*
X154919306Y-51863004D01*
X155788320Y-52497805D01*
X155952561Y-52617780D01*
X156167098Y-52777497D01*
X157178495Y-53557024D01*
X157269058Y-53628157D01*
X157390866Y-53723832D01*
X158379897Y-54527549D01*
X158565909Y-54681593D01*
X158589804Y-54701381D01*
X159531821Y-55508040D01*
X159556003Y-55528747D01*
X159763165Y-55709537D01*
X160705904Y-56559849D01*
X160910171Y-56747633D01*
X161266142Y-57085728D01*
X161829063Y-57620380D01*
X162029930Y-57814857D01*
X162924564Y-58709491D01*
X163121830Y-58910620D01*
X163254931Y-59050758D01*
X163991669Y-59826451D01*
X164185121Y-60034171D01*
X164432529Y-60308472D01*
X165029780Y-60970643D01*
X165219052Y-61184715D01*
X166038086Y-62141184D01*
X166150145Y-62274730D01*
X166223009Y-62361567D01*
X167015937Y-63337321D01*
X167196279Y-63563892D01*
X167319159Y-63723322D01*
X167910532Y-64490600D01*
X167962685Y-64558265D01*
X168116262Y-64761795D01*
X168138211Y-64790883D01*
X168863010Y-65783100D01*
X168877759Y-65803290D01*
X168979064Y-65945024D01*
X169048194Y-66041742D01*
X169760546Y-67071580D01*
X169925583Y-67315576D01*
X170309282Y-67902002D01*
X170503624Y-68199025D01*
X170610360Y-68362154D01*
X170769878Y-68611658D01*
X171426676Y-69674221D01*
X171580452Y-69929025D01*
X172208995Y-71006984D01*
X172356781Y-71266822D01*
X172890485Y-72238809D01*
X172949346Y-72346008D01*
X172956701Y-72359402D01*
X172995033Y-72431046D01*
X173098375Y-72624199D01*
X173669417Y-73730805D01*
X173804701Y-74000177D01*
X174346574Y-75120116D01*
X174475318Y-75393894D01*
X174987735Y-76526439D01*
X175109784Y-76804424D01*
X175592480Y-77948861D01*
X175707669Y-78230810D01*
X176160407Y-79386451D01*
X176268578Y-79672102D01*
X176691121Y-80838218D01*
X176792151Y-81127373D01*
X177184245Y-82303130D01*
X177278053Y-82595696D01*
X177639514Y-83780408D01*
X177725913Y-84075941D01*
X178056564Y-85268892D01*
X178135484Y-85567279D01*
X178435152Y-86767718D01*
X178506461Y-87068595D01*
X178775006Y-88275834D01*
X178838623Y-88578980D01*
X179075899Y-89792250D01*
X179131736Y-90097371D01*
X179337608Y-91315823D01*
X179365258Y-91492611D01*
X179385626Y-91622848D01*
X179560007Y-92845852D01*
X179600106Y-93154285D01*
X179742909Y-94381124D01*
X179775040Y-94690679D01*
X179886189Y-95920576D01*
X179910324Y-96231085D01*
X179989757Y-97463263D01*
X180005863Y-97774416D01*
X180053540Y-99008135D01*
X180061597Y-99319684D01*
X180079500Y-100710000D01*
X180061597Y-102100315D01*
X180053540Y-102411864D01*
X180005863Y-103645583D01*
X179989757Y-103956736D01*
X179910324Y-105188914D01*
X179886189Y-105499423D01*
X179775040Y-106729320D01*
X179742909Y-107038875D01*
X179600106Y-108265714D01*
X179560007Y-108574147D01*
X179385626Y-109797151D01*
X179369543Y-109899991D01*
X179337618Y-110104112D01*
X179276065Y-110468421D01*
X179131736Y-111322628D01*
X179075899Y-111627749D01*
X178838623Y-112841019D01*
X178775006Y-113144165D01*
X178506461Y-114351404D01*
X178435152Y-114652281D01*
X178135484Y-115852720D01*
X178056564Y-116151107D01*
X177725913Y-117344058D01*
X177639514Y-117639591D01*
X177278053Y-118824303D01*
X177184245Y-119116869D01*
X176792151Y-120292626D01*
X176691121Y-120581781D01*
X176268578Y-121747897D01*
X176160407Y-122033548D01*
X175707669Y-123189189D01*
X175592480Y-123471138D01*
X175109784Y-124615575D01*
X174987735Y-124893560D01*
X174475318Y-126026105D01*
X174346574Y-126299883D01*
X173804701Y-127419822D01*
X173669417Y-127689194D01*
X173098375Y-128795800D01*
X172956715Y-129060572D01*
X172356781Y-130153177D01*
X172208995Y-130413015D01*
X171580452Y-131490974D01*
X171426676Y-131745778D01*
X170769878Y-132808341D01*
X170610360Y-133057845D01*
X169925583Y-134104423D01*
X169760546Y-134348419D01*
X169048194Y-135378257D01*
X168877775Y-135616687D01*
X168138225Y-136629098D01*
X167962698Y-136861717D01*
X167196279Y-137856107D01*
X167015937Y-138082678D01*
X166223009Y-139058432D01*
X166038093Y-139278807D01*
X165888365Y-139453661D01*
X165219061Y-140235274D01*
X165029780Y-140449356D01*
X164185134Y-141385814D01*
X163991669Y-141593548D01*
X163121838Y-142509371D01*
X162924564Y-142710508D01*
X162029930Y-143605142D01*
X161829063Y-143799619D01*
X160910160Y-144672377D01*
X160705919Y-144860137D01*
X159763165Y-145710462D01*
X159556003Y-145891252D01*
X158589817Y-146718607D01*
X158379907Y-146892443D01*
X157390868Y-147696166D01*
X157178495Y-147862975D01*
X156167098Y-148642502D01*
X155952561Y-148802219D01*
X154919309Y-149556993D01*
X154702983Y-149709511D01*
X153648325Y-150439032D01*
X153430559Y-150584284D01*
X152355043Y-151287994D01*
X152136073Y-151426005D01*
X151040277Y-152103346D01*
X150820482Y-152234062D01*
X149704890Y-152884549D01*
X149484642Y-153007941D01*
X148349858Y-153631033D01*
X148129324Y-153747198D01*
X146975957Y-154342370D01*
X146755655Y-154451232D01*
X145584168Y-155018047D01*
X145364391Y-155119667D01*
X144542475Y-155491541D01*
X144175450Y-155657601D01*
X144103300Y-155688724D01*
X143956472Y-155752059D01*
X142750653Y-156260644D01*
X142532895Y-156347970D01*
X141310800Y-156826742D01*
X141094572Y-156907030D01*
X139856784Y-157355543D01*
X139642513Y-157428858D01*
X138389666Y-157846661D01*
X138177542Y-157913167D01*
X136910277Y-158299815D01*
X136700906Y-158359558D01*
X135419754Y-158714656D01*
X135213293Y-158767837D01*
X133918989Y-159090937D01*
X133715872Y-159137692D01*
X132409043Y-159428390D01*
X132209552Y-159468910D01*
X130890835Y-159726808D01*
X130695487Y-159761253D01*
X129365470Y-159985975D01*
X129174506Y-160014577D01*
X127833872Y-160205730D01*
X127647798Y-160228699D01*
X126297115Y-160385918D01*
X126116283Y-160403507D01*
X124756225Y-160526419D01*
X124580955Y-160538903D01*
X123212209Y-160627141D01*
X123042888Y-160634808D01*
X121666097Y-160688014D01*
X121503088Y-160691175D01*
X120118951Y-160708998D01*
X119962503Y-160707987D01*
X118571740Y-160690079D01*
X118422342Y-160685248D01*
X117025515Y-160631268D01*
X116883530Y-160622998D01*
X115481352Y-160532605D01*
X115346997Y-160521288D01*
X113940204Y-160394153D01*
X113813974Y-160380225D01*
X112403136Y-160216004D01*
X112285335Y-160199914D01*
X110871177Y-159998278D01*
X110762139Y-159980502D01*
X109345274Y-159741107D01*
X109245574Y-159722195D01*
X107826583Y-159444686D01*
X107736221Y-159425112D01*
X106444126Y-159137692D01*
X106315995Y-159109190D01*
X106285069Y-159101648D01*
X106235486Y-159089558D01*
X104814542Y-158734845D01*
X104797795Y-158730299D01*
X104744279Y-158715774D01*
X103973553Y-158502151D01*
X103323230Y-158321901D01*
X103263549Y-158304033D01*
X101843110Y-157870651D01*
X101804778Y-157858087D01*
X101794099Y-157854586D01*
X100517485Y-157428858D01*
X100375028Y-157381351D01*
X100366427Y-157378283D01*
X100337360Y-157367916D01*
X98920099Y-156854369D01*
X98898045Y-156845855D01*
X98893889Y-156844250D01*
X97479249Y-156290046D01*
X97474463Y-156288054D01*
X97464811Y-156284038D01*
X96053367Y-155688724D01*
X96051148Y-155687733D01*
X94645349Y-155051683D01*
X93254596Y-154378778D01*
X91881630Y-153670287D01*
X90527362Y-152926679D01*
X89192689Y-152148449D01*
X87878497Y-151336112D01*
X86585656Y-150490206D01*
X85315024Y-149611293D01*
X84067443Y-148699955D01*
X82843741Y-147756796D01*
X81644730Y-146782443D01*
X80471203Y-145777540D01*
X79323939Y-144742755D01*
X78203700Y-143678773D01*
X77111227Y-142586300D01*
X76047245Y-141466061D01*
X75012460Y-140318797D01*
X74007557Y-139145270D01*
X73033204Y-137946259D01*
X72090045Y-136722557D01*
X71178707Y-135474976D01*
X70299794Y-134204344D01*
X69453888Y-132911503D01*
X68641551Y-131597311D01*
X67863321Y-130262638D01*
X67119713Y-128908370D01*
X66411222Y-127535404D01*
X65738317Y-126144651D01*
X65101444Y-124737034D01*
X64501025Y-123313485D01*
X63937459Y-121874949D01*
X63411119Y-120422379D01*
X62922353Y-118956738D01*
X62471488Y-117478998D01*
X62058820Y-115990140D01*
X61684624Y-114491150D01*
X61349148Y-112983022D01*
X61052615Y-111466756D01*
X60795220Y-109943358D01*
X60577135Y-108413837D01*
X60398505Y-106879208D01*
X60259447Y-105340489D01*
X60160054Y-103798700D01*
X60100392Y-102254862D01*
X60080500Y-100710000D01*
X60100392Y-99165138D01*
X60160054Y-97621300D01*
X60259447Y-96079511D01*
X60265548Y-96012000D01*
X67818000Y-96012000D01*
X67818000Y-105664000D01*
X77470000Y-105664000D01*
X77470000Y-96012000D01*
X67818000Y-96012000D01*
X60265548Y-96012000D01*
X60398505Y-94540792D01*
X60577135Y-93006163D01*
X60795220Y-91476642D01*
X61052615Y-89953244D01*
X61349148Y-88436978D01*
X61684624Y-86928850D01*
X62058820Y-85429860D01*
X62269429Y-84670007D01*
X78749499Y-84670007D01*
X78749500Y-84803301D01*
X78749500Y-128468236D01*
X78749500Y-128468237D01*
X78749500Y-128544186D01*
X78749500Y-128544206D01*
X78749500Y-128897757D01*
X78787174Y-129592613D01*
X78787783Y-129603831D01*
X78787783Y-129603830D01*
X78864231Y-130306767D01*
X78978629Y-131004560D01*
X79010643Y-131150000D01*
X79130636Y-131695133D01*
X79162325Y-131809267D01*
X79284832Y-132250498D01*
X79319806Y-132376460D01*
X79545585Y-133046547D01*
X79807310Y-133703427D01*
X80104214Y-134345175D01*
X80260910Y-134640735D01*
X80435427Y-134969909D01*
X80799969Y-135575783D01*
X80799968Y-135575782D01*
X81196795Y-136161058D01*
X81479858Y-136533420D01*
X81624711Y-136723970D01*
X81898679Y-137046510D01*
X82082478Y-137262895D01*
X82230530Y-137419192D01*
X82568752Y-137776248D01*
X83082104Y-138262521D01*
X83572151Y-138678771D01*
X83621034Y-138720292D01*
X84183942Y-139148205D01*
X84769218Y-139545032D01*
X84769217Y-139545031D01*
X85331445Y-139883312D01*
X85375093Y-139909574D01*
X85999825Y-140240786D01*
X86641573Y-140537690D01*
X86641587Y-140537695D01*
X86641588Y-140537696D01*
X87298453Y-140799415D01*
X87968546Y-141025196D01*
X88649871Y-141214365D01*
X88649872Y-141214365D01*
X88807651Y-141249095D01*
X89340440Y-141366371D01*
X90038233Y-141480769D01*
X90741170Y-141557217D01*
X90741179Y-141557218D01*
X91447243Y-141595500D01*
X91447245Y-141595500D01*
X128637722Y-141595500D01*
X128637731Y-141595499D01*
X128877503Y-141595499D01*
X128877511Y-141595499D01*
X129537414Y-141558439D01*
X129822427Y-141526325D01*
X130194187Y-141484438D01*
X130194194Y-141484436D01*
X130194201Y-141484436D01*
X130471804Y-141437269D01*
X130845798Y-141373725D01*
X130845797Y-141373725D01*
X131490177Y-141226649D01*
X131490178Y-141226649D01*
X132125293Y-141043674D01*
X132749151Y-140825376D01*
X133128549Y-140668223D01*
X133359774Y-140572447D01*
X133359780Y-140572443D01*
X133359785Y-140572442D01*
X133558846Y-140476578D01*
X133955263Y-140285674D01*
X133955268Y-140285671D01*
X133955268Y-140285672D01*
X134239685Y-140128478D01*
X134533735Y-139965963D01*
X135093372Y-139614319D01*
X135093377Y-139614316D01*
X135632404Y-139231855D01*
X135632405Y-139231855D01*
X136149162Y-138819755D01*
X136641975Y-138379350D01*
X136641974Y-138379350D01*
X136641984Y-138379342D01*
X137109342Y-137911984D01*
X137413277Y-137571881D01*
X137549755Y-137419162D01*
X137961855Y-136902405D01*
X137961855Y-136902404D01*
X138344316Y-136363377D01*
X138415870Y-136249500D01*
X138695963Y-135803735D01*
X138884210Y-135463129D01*
X139015672Y-135225268D01*
X139015671Y-135225268D01*
X139015674Y-135225263D01*
X139250049Y-134738579D01*
X139302442Y-134629785D01*
X139305512Y-134622375D01*
X139405595Y-134380753D01*
X139555376Y-134019151D01*
X139773674Y-133395293D01*
X139956649Y-132760178D01*
X139956649Y-132760177D01*
X140028993Y-132443217D01*
X140103723Y-132115806D01*
X140103723Y-132115805D01*
X140103725Y-132115797D01*
X140103725Y-132115798D01*
X140191297Y-131600386D01*
X140214436Y-131464201D01*
X140235738Y-131275148D01*
X140288438Y-130807420D01*
X140288439Y-130807414D01*
X140325499Y-130147511D01*
X140325500Y-129817039D01*
X140325500Y-129817019D01*
X140325500Y-129741070D01*
X140325500Y-129741068D01*
X140325500Y-110390131D01*
X140325598Y-110386654D01*
X140333122Y-110252681D01*
X140341496Y-110103563D01*
X140342272Y-110096675D01*
X140389475Y-109818863D01*
X140391023Y-109812080D01*
X140415246Y-109727999D01*
X140469038Y-109541283D01*
X140471324Y-109534752D01*
X140579164Y-109274405D01*
X140582177Y-109268148D01*
X140718488Y-109021512D01*
X140722184Y-109015631D01*
X140885257Y-108785800D01*
X140889571Y-108780390D01*
X141077353Y-108570263D01*
X141082266Y-108565351D01*
X141117299Y-108534043D01*
X141292395Y-108377567D01*
X141297802Y-108373255D01*
X141498172Y-108231087D01*
X141527632Y-108210185D01*
X141533518Y-108206485D01*
X141758067Y-108082380D01*
X141826264Y-108067180D01*
X141891852Y-108091263D01*
X141905730Y-108103226D01*
X142028999Y-108226495D01*
X142029002Y-108226497D01*
X142029003Y-108226498D01*
X142214558Y-108356425D01*
X142258183Y-108411002D01*
X142265377Y-108480500D01*
X142233854Y-108542855D01*
X142214558Y-108559575D01*
X142028997Y-108689505D01*
X141861905Y-108856597D01*
X141726365Y-109050169D01*
X141726364Y-109050171D01*
X141626498Y-109264335D01*
X141626494Y-109264344D01*
X141565338Y-109492586D01*
X141565336Y-109492596D01*
X141544741Y-109727999D01*
X141544741Y-109728000D01*
X141565336Y-109963403D01*
X141565338Y-109963413D01*
X141626494Y-110191655D01*
X141626496Y-110191659D01*
X141626497Y-110191663D01*
X141666410Y-110277256D01*
X141726365Y-110405830D01*
X141726367Y-110405834D01*
X141834681Y-110560521D01*
X141861905Y-110599401D01*
X142028999Y-110766495D01*
X142194817Y-110882602D01*
X142214994Y-110896730D01*
X142258618Y-110951307D01*
X142265811Y-111020806D01*
X142234289Y-111083160D01*
X142214993Y-111099880D01*
X142139026Y-111153072D01*
X142139025Y-111153072D01*
X142767866Y-111781913D01*
X142758085Y-111783320D01*
X142627300Y-111843048D01*
X142518639Y-111937202D01*
X142440907Y-112058156D01*
X142417323Y-112138475D01*
X141785473Y-111506625D01*
X141785472Y-111506625D01*
X141726801Y-111590419D01*
X141626970Y-111804507D01*
X141626966Y-111804516D01*
X141565832Y-112032673D01*
X141565830Y-112032684D01*
X141545243Y-112267998D01*
X141545243Y-112268001D01*
X141565830Y-112503315D01*
X141565832Y-112503326D01*
X141626966Y-112731483D01*
X141626970Y-112731492D01*
X141726800Y-112945579D01*
X141726802Y-112945583D01*
X141785472Y-113029373D01*
X141785473Y-113029373D01*
X142417323Y-112397523D01*
X142440907Y-112477844D01*
X142518639Y-112598798D01*
X142627300Y-112692952D01*
X142758085Y-112752680D01*
X142767866Y-112754086D01*
X142139025Y-113382925D01*
X142214994Y-113436119D01*
X142258619Y-113490696D01*
X142265813Y-113560194D01*
X142234290Y-113622549D01*
X142214995Y-113639269D01*
X142028994Y-113769508D01*
X141861905Y-113936597D01*
X141726365Y-114130169D01*
X141726364Y-114130171D01*
X141626498Y-114344335D01*
X141626494Y-114344344D01*
X141565338Y-114572586D01*
X141565336Y-114572596D01*
X141544741Y-114807999D01*
X141544741Y-114808000D01*
X141565336Y-115043403D01*
X141565338Y-115043413D01*
X141626494Y-115271655D01*
X141626496Y-115271659D01*
X141626497Y-115271663D01*
X141666410Y-115357256D01*
X141726365Y-115485830D01*
X141726367Y-115485834D01*
X141780261Y-115562802D01*
X141861905Y-115679401D01*
X142028999Y-115846495D01*
X142097020Y-115894124D01*
X142222565Y-115982032D01*
X142222567Y-115982033D01*
X142222570Y-115982035D01*
X142436737Y-116081903D01*
X142436743Y-116081904D01*
X142436744Y-116081905D01*
X142482567Y-116094183D01*
X142664992Y-116143063D01*
X142853318Y-116159539D01*
X142900399Y-116163659D01*
X142900400Y-116163659D01*
X142900401Y-116163659D01*
X142942222Y-116160000D01*
X143135808Y-116143063D01*
X143364063Y-116081903D01*
X143578230Y-115982035D01*
X143771801Y-115846495D01*
X143938895Y-115679401D01*
X144068825Y-115493842D01*
X144123402Y-115450217D01*
X144192900Y-115443023D01*
X144255255Y-115474546D01*
X144271975Y-115493842D01*
X144401901Y-115679396D01*
X144401906Y-115679402D01*
X144568995Y-115846492D01*
X144568998Y-115846494D01*
X144568999Y-115846495D01*
X144637023Y-115894125D01*
X144680648Y-115948701D01*
X144689900Y-115995700D01*
X144689900Y-133216642D01*
X144671531Y-133918044D01*
X144671361Y-133921286D01*
X144616437Y-134619146D01*
X144616098Y-134622375D01*
X144524729Y-135316383D01*
X144524221Y-135319589D01*
X144396650Y-136007896D01*
X144395975Y-136011072D01*
X144232562Y-136691734D01*
X144231722Y-136694870D01*
X144032905Y-137366062D01*
X144031901Y-137369150D01*
X143798229Y-138029020D01*
X143797065Y-138032051D01*
X143529184Y-138678771D01*
X143527863Y-138681736D01*
X143226496Y-139313567D01*
X143225022Y-139316460D01*
X142891006Y-139931640D01*
X142889382Y-139934452D01*
X142523629Y-140531306D01*
X142521861Y-140534029D01*
X142125363Y-141110936D01*
X142123455Y-141113563D01*
X141697317Y-141668917D01*
X141695273Y-141671440D01*
X141240653Y-142203731D01*
X141238481Y-142206143D01*
X140756618Y-142713922D01*
X140754322Y-142716218D01*
X140246543Y-143198081D01*
X140244131Y-143200253D01*
X139711840Y-143654873D01*
X139709317Y-143656917D01*
X139153963Y-144083055D01*
X139151336Y-144084963D01*
X138574429Y-144481461D01*
X138571706Y-144483229D01*
X137974852Y-144848982D01*
X137972040Y-144850606D01*
X137356860Y-145184622D01*
X137353967Y-145186096D01*
X136722136Y-145487463D01*
X136719171Y-145488784D01*
X136072451Y-145756665D01*
X136069420Y-145757829D01*
X135409550Y-145991501D01*
X135406462Y-145992505D01*
X134735270Y-146191322D01*
X134732134Y-146192162D01*
X134051472Y-146355575D01*
X134048296Y-146356250D01*
X133359989Y-146483821D01*
X133356783Y-146484329D01*
X132662775Y-146575698D01*
X132659546Y-146576037D01*
X131961686Y-146630961D01*
X131958444Y-146631131D01*
X131257042Y-146649500D01*
X90532023Y-146649500D01*
X90527975Y-146649367D01*
X90311793Y-146635197D01*
X90280903Y-146633173D01*
X90272854Y-146632113D01*
X90032011Y-146584206D01*
X90024170Y-146582105D01*
X89855859Y-146524972D01*
X89791631Y-146503169D01*
X89784142Y-146500067D01*
X89563897Y-146391454D01*
X89556868Y-146387396D01*
X89352689Y-146250969D01*
X89346254Y-146246031D01*
X89161622Y-146084114D01*
X89155883Y-146078375D01*
X88993966Y-145893743D01*
X88989034Y-145887315D01*
X88852602Y-145683129D01*
X88848547Y-145676107D01*
X88739928Y-145455850D01*
X88736832Y-145448376D01*
X88657893Y-145215827D01*
X88655793Y-145207990D01*
X88648626Y-145171960D01*
X88654852Y-145102372D01*
X88662856Y-145085770D01*
X88667179Y-145078284D01*
X88725674Y-144898256D01*
X88745460Y-144710000D01*
X88725674Y-144521744D01*
X88667179Y-144341716D01*
X88572533Y-144177784D01*
X88445871Y-144037112D01*
X88445870Y-144037111D01*
X88292734Y-143925851D01*
X88292729Y-143925848D01*
X88119807Y-143848857D01*
X88119802Y-143848855D01*
X87974001Y-143817865D01*
X87934646Y-143809500D01*
X87745354Y-143809500D01*
X87712897Y-143816398D01*
X87560197Y-143848855D01*
X87560192Y-143848857D01*
X87387270Y-143925848D01*
X87387265Y-143925851D01*
X87234129Y-144037111D01*
X87107466Y-144177785D01*
X87012821Y-144341715D01*
X87012818Y-144341722D01*
X86966840Y-144483229D01*
X86954326Y-144521744D01*
X86934540Y-144710000D01*
X86954326Y-144898256D01*
X86954327Y-144898259D01*
X87012818Y-145078277D01*
X87012821Y-145078284D01*
X87107466Y-145242215D01*
X87107469Y-145242219D01*
X87110957Y-145246093D01*
X87140424Y-145304873D01*
X87188582Y-145546977D01*
X87286711Y-145870468D01*
X87416075Y-146182779D01*
X87416077Y-146182784D01*
X87575419Y-146480892D01*
X87575430Y-146480910D01*
X87763226Y-146761966D01*
X87763236Y-146761980D01*
X87977687Y-147023290D01*
X88216709Y-147262312D01*
X88216714Y-147262316D01*
X88216715Y-147262317D01*
X88478025Y-147476768D01*
X88759096Y-147664574D01*
X88759105Y-147664579D01*
X88759107Y-147664580D01*
X89057215Y-147823922D01*
X89057217Y-147823922D01*
X89057223Y-147823926D01*
X89369533Y-147953289D01*
X89693019Y-148051417D01*
X90024565Y-148117366D01*
X90360979Y-148150500D01*
X90360982Y-148150500D01*
X131352086Y-148150500D01*
X131352095Y-148150499D01*
X131635473Y-148150499D01*
X131635481Y-148150499D01*
X132391382Y-148112163D01*
X132391390Y-148112162D01*
X132391392Y-148112162D01*
X133144368Y-148035590D01*
X133144368Y-148035591D01*
X133580220Y-147968820D01*
X133892516Y-147920978D01*
X134633895Y-147768620D01*
X135366606Y-147578907D01*
X135944335Y-147397642D01*
X136088772Y-147352325D01*
X136798520Y-147089463D01*
X136798521Y-147089463D01*
X137147918Y-146939523D01*
X137494061Y-146790982D01*
X137494067Y-146790978D01*
X137494074Y-146790976D01*
X138173580Y-146457661D01*
X138292861Y-146391455D01*
X138835346Y-146090351D01*
X138835346Y-146090352D01*
X139477665Y-145689991D01*
X140030979Y-145304873D01*
X140098882Y-145257611D01*
X140098886Y-145257608D01*
X140098886Y-145257609D01*
X140563130Y-144898256D01*
X140697399Y-144794324D01*
X141271682Y-144301318D01*
X141271681Y-144301319D01*
X141820258Y-143779858D01*
X142341719Y-143231281D01*
X142341718Y-143231282D01*
X142834724Y-142656999D01*
X142962706Y-142491659D01*
X143298009Y-142058486D01*
X143298008Y-142058486D01*
X143298011Y-142058482D01*
X143646902Y-141557217D01*
X143730391Y-141437265D01*
X144130752Y-140794946D01*
X144130751Y-140794946D01*
X144438335Y-140240786D01*
X144498059Y-140133184D01*
X144539362Y-140048983D01*
X144831376Y-139453674D01*
X144834295Y-139446874D01*
X145080951Y-138872098D01*
X145129863Y-138758121D01*
X145129863Y-138758120D01*
X145392725Y-138048372D01*
X145475202Y-137785500D01*
X145619307Y-137326206D01*
X145809020Y-136593495D01*
X145961378Y-135852116D01*
X146034823Y-135372696D01*
X146075991Y-135103968D01*
X146075990Y-135103968D01*
X146079644Y-135068043D01*
X146152563Y-134350982D01*
X146190899Y-133595081D01*
X146190900Y-133216644D01*
X146190900Y-133216624D01*
X146190900Y-133137743D01*
X146190900Y-133137741D01*
X146190900Y-115995700D01*
X146210585Y-115928661D01*
X146243775Y-115894126D01*
X146311801Y-115846495D01*
X146478895Y-115679401D01*
X146614435Y-115485830D01*
X146714303Y-115271663D01*
X146775463Y-115043408D01*
X146796059Y-114808000D01*
X146785002Y-114681624D01*
X146798768Y-114613126D01*
X146847383Y-114562943D01*
X146915412Y-114547009D01*
X146981256Y-114570384D01*
X147002818Y-114590284D01*
X147021528Y-114612191D01*
X147042019Y-114636183D01*
X147053455Y-114651924D01*
X147140338Y-114793704D01*
X147149172Y-114811041D01*
X147212808Y-114964670D01*
X147218821Y-114983175D01*
X147257642Y-115144869D01*
X147260686Y-115164087D01*
X147274309Y-115337165D01*
X147274500Y-115342032D01*
X147274500Y-121747467D01*
X147274500Y-121767956D01*
X147274498Y-121943710D01*
X147283346Y-122033548D01*
X147308947Y-122293512D01*
X147308947Y-122293515D01*
X147308948Y-122293524D01*
X147308949Y-122293526D01*
X147336039Y-122429724D01*
X147369190Y-122596399D01*
X147377521Y-122638281D01*
X147479556Y-122974654D01*
X147479558Y-122974659D01*
X147479559Y-122974662D01*
X147519359Y-123070750D01*
X147614070Y-123299406D01*
X147614072Y-123299410D01*
X147614073Y-123299412D01*
X147662872Y-123390708D01*
X147779769Y-123609409D01*
X147779776Y-123609419D01*
X147779783Y-123609431D01*
X147975049Y-123901670D01*
X147975058Y-123901682D01*
X148198053Y-124173402D01*
X148446597Y-124421946D01*
X148718317Y-124644941D01*
X148718329Y-124644950D01*
X149010568Y-124840216D01*
X149010574Y-124840219D01*
X149010591Y-124840231D01*
X149320594Y-125005930D01*
X149645346Y-125140444D01*
X149981719Y-125242479D01*
X150326474Y-125311051D01*
X150676290Y-125345502D01*
X150852044Y-125345500D01*
X157821659Y-125345500D01*
X157897609Y-125345500D01*
X158065519Y-125345500D01*
X158399722Y-125312583D01*
X158729089Y-125247067D01*
X159050449Y-125149583D01*
X159360706Y-125021070D01*
X159656873Y-124862765D01*
X159936097Y-124676193D01*
X160195690Y-124463151D01*
X160433151Y-124225690D01*
X160646193Y-123966097D01*
X160832765Y-123686873D01*
X160991070Y-123390706D01*
X161119583Y-123080449D01*
X161217067Y-122759089D01*
X161282583Y-122429722D01*
X161315500Y-122095519D01*
X161315500Y-121927609D01*
X161315500Y-121851659D01*
X161315500Y-96012000D01*
X162814000Y-96012000D01*
X162814000Y-105664000D01*
X172212000Y-105664000D01*
X172212000Y-96012000D01*
X162814000Y-96012000D01*
X161315500Y-96012000D01*
X161315500Y-83270647D01*
X161315500Y-82890531D01*
X161313815Y-82854087D01*
X161276756Y-82052509D01*
X161276756Y-82052510D01*
X161276755Y-82052495D01*
X161224890Y-81492782D01*
X161199348Y-81217140D01*
X161199348Y-81217139D01*
X161083444Y-80386253D01*
X161004885Y-79966003D01*
X160929291Y-79561610D01*
X160737217Y-78744962D01*
X160507632Y-77938056D01*
X160241027Y-77142615D01*
X159997024Y-76512771D01*
X159937970Y-76360334D01*
X159937970Y-76360335D01*
X159599108Y-75592886D01*
X159563812Y-75522002D01*
X159225167Y-74841910D01*
X158987483Y-74415186D01*
X158816936Y-74108996D01*
X158816931Y-74108987D01*
X158375298Y-73395725D01*
X158306810Y-73295745D01*
X157901185Y-72703606D01*
X157550186Y-72238809D01*
X157395624Y-72034135D01*
X157074097Y-71646935D01*
X156859667Y-71388706D01*
X156723373Y-71239199D01*
X156447486Y-70936565D01*
X156294488Y-70768735D01*
X156294489Y-70768735D01*
X155701263Y-70175509D01*
X155311946Y-69820600D01*
X155081297Y-69610335D01*
X154780740Y-69360756D01*
X154435873Y-69074382D01*
X154435868Y-69074378D01*
X154435863Y-69074374D01*
X153939483Y-68699526D01*
X153766391Y-68568813D01*
X153074275Y-68094702D01*
X152814356Y-67933767D01*
X152361010Y-67653067D01*
X152361009Y-67653067D01*
X152361001Y-67653062D01*
X151628092Y-67244834D01*
X151628087Y-67244831D01*
X150877116Y-66870893D01*
X150877112Y-66870891D01*
X150109662Y-66532029D01*
X150109663Y-66532029D01*
X149646939Y-66352769D01*
X149327382Y-66228972D01*
X148531941Y-65962367D01*
X147725035Y-65732782D01*
X146908387Y-65540708D01*
X146405075Y-65446622D01*
X146083744Y-65386555D01*
X145252858Y-65270652D01*
X145252857Y-65270652D01*
X144764234Y-65225374D01*
X144699296Y-65199588D01*
X144658609Y-65142787D01*
X144655089Y-65073006D01*
X144663288Y-65049510D01*
X144707703Y-64954263D01*
X144743287Y-64821454D01*
X144779651Y-64761795D01*
X144797087Y-64748556D01*
X144999658Y-64621274D01*
X145236904Y-64432077D01*
X145451474Y-64217507D01*
X145640671Y-63980262D01*
X145802116Y-63723325D01*
X145933777Y-63449928D01*
X146034000Y-63163508D01*
X146101524Y-62867668D01*
X146135500Y-62566128D01*
X146135500Y-62414404D01*
X146135500Y-62338454D01*
X146135500Y-62338453D01*
X146135500Y-56605341D01*
X146135500Y-56329826D01*
X146129401Y-56229007D01*
X146097477Y-55701245D01*
X146044059Y-55261311D01*
X146021572Y-55076114D01*
X145994519Y-54928492D01*
X145908059Y-54456692D01*
X145889626Y-54381906D01*
X145757355Y-53845264D01*
X145719375Y-53723384D01*
X145570007Y-53244045D01*
X145346702Y-52655238D01*
X145088252Y-52080987D01*
X144795602Y-51523389D01*
X144753676Y-51454035D01*
X144469819Y-50984478D01*
X144112087Y-50466214D01*
X143812553Y-50083888D01*
X143723736Y-49970521D01*
X143723728Y-49970513D01*
X143723725Y-49970508D01*
X143306137Y-49499149D01*
X143306136Y-49499148D01*
X143306129Y-49499140D01*
X143306129Y-49499141D01*
X142860859Y-49053871D01*
X142860860Y-49053871D01*
X142759123Y-48963740D01*
X142389492Y-48636275D01*
X142389486Y-48636271D01*
X142389479Y-48636264D01*
X142020754Y-48347387D01*
X141893786Y-48247913D01*
X141375522Y-47890181D01*
X140836615Y-47564400D01*
X140279011Y-47271747D01*
X140170531Y-47222924D01*
X139704762Y-47013298D01*
X139115955Y-46789993D01*
X138514739Y-46602646D01*
X138514740Y-46602646D01*
X138514736Y-46602645D01*
X137903313Y-46451942D01*
X137903308Y-46451941D01*
X137283893Y-46338429D01*
X137283888Y-46338428D01*
X137283886Y-46338428D01*
X136938369Y-46296474D01*
X136658755Y-46262523D01*
X136030176Y-46224500D01*
X136030174Y-46224500D01*
X135794328Y-46224500D01*
X109331606Y-46224500D01*
X109255657Y-46224500D01*
X108910758Y-46224500D01*
X108221906Y-46260601D01*
X107535887Y-46332705D01*
X106854582Y-46440613D01*
X106854577Y-46440614D01*
X106854571Y-46440615D01*
X106440291Y-46528673D01*
X106179858Y-46584030D01*
X105795174Y-46687105D01*
X105513567Y-46762562D01*
X105513568Y-46762562D01*
X105513564Y-46762563D01*
X104857528Y-46975723D01*
X104213546Y-47222924D01*
X104213542Y-47222926D01*
X104213543Y-47222925D01*
X104103885Y-47271748D01*
X103583384Y-47503490D01*
X103583370Y-47503496D01*
X103583368Y-47503498D01*
X102968769Y-47816652D01*
X102371399Y-48161544D01*
X102371398Y-48161544D01*
X102093123Y-48342258D01*
X101792882Y-48537237D01*
X101234820Y-48942693D01*
X101234818Y-48942694D01*
X101234819Y-48942693D01*
X100698746Y-49376795D01*
X100186135Y-49838352D01*
X100186136Y-49838352D01*
X100186124Y-49838363D01*
X99698363Y-50326124D01*
X99698352Y-50326136D01*
X99698352Y-50326135D01*
X99236795Y-50838746D01*
X98802693Y-51374819D01*
X98802694Y-51374818D01*
X98542264Y-51733270D01*
X98397242Y-51932875D01*
X98301057Y-52080987D01*
X98021544Y-52511398D01*
X98021544Y-52511399D01*
X97676652Y-53108769D01*
X97396540Y-53658519D01*
X97363490Y-53723384D01*
X97309226Y-53845264D01*
X97082926Y-54353542D01*
X97082924Y-54353546D01*
X96835723Y-54997528D01*
X96622563Y-55653564D01*
X96622562Y-55653568D01*
X96622562Y-55653567D01*
X96607565Y-55709537D01*
X96444030Y-56319858D01*
X96432648Y-56373406D01*
X96336156Y-56827367D01*
X96300613Y-56994582D01*
X96192705Y-57675887D01*
X96120601Y-58361906D01*
X96095871Y-58833791D01*
X96084500Y-59050758D01*
X96084500Y-83357870D01*
X96064815Y-83424909D01*
X96012011Y-83470664D01*
X95942853Y-83480608D01*
X95908099Y-83470254D01*
X95891465Y-83462498D01*
X95891455Y-83462494D01*
X95663213Y-83401338D01*
X95663203Y-83401336D01*
X95427801Y-83380741D01*
X95427799Y-83380741D01*
X95192396Y-83401336D01*
X95192386Y-83401338D01*
X94964144Y-83462494D01*
X94964137Y-83462496D01*
X94964137Y-83462497D01*
X94961133Y-83463898D01*
X94749971Y-83562364D01*
X94749969Y-83562365D01*
X94556397Y-83697905D01*
X94389305Y-83864997D01*
X94259375Y-84050558D01*
X94204798Y-84094183D01*
X94135300Y-84101377D01*
X94072945Y-84069854D01*
X94056225Y-84050558D01*
X93926294Y-83864997D01*
X93759202Y-83697906D01*
X93759195Y-83697901D01*
X93565634Y-83562367D01*
X93565630Y-83562365D01*
X93518955Y-83540600D01*
X93351463Y-83462497D01*
X93351459Y-83462496D01*
X93351455Y-83462494D01*
X93123213Y-83401338D01*
X93123203Y-83401336D01*
X92887801Y-83380741D01*
X92887799Y-83380741D01*
X92652396Y-83401336D01*
X92652386Y-83401338D01*
X92424144Y-83462494D01*
X92424137Y-83462496D01*
X92424137Y-83462497D01*
X92421133Y-83463898D01*
X92209971Y-83562364D01*
X92209969Y-83562365D01*
X92016397Y-83697905D01*
X91849305Y-83864997D01*
X91719375Y-84050558D01*
X91664798Y-84094183D01*
X91595300Y-84101377D01*
X91532945Y-84069854D01*
X91516225Y-84050558D01*
X91386294Y-83864997D01*
X91219202Y-83697906D01*
X91219195Y-83697901D01*
X91025634Y-83562367D01*
X91025630Y-83562365D01*
X90848885Y-83479947D01*
X90796446Y-83433774D01*
X90781515Y-83399657D01*
X90779619Y-83392582D01*
X90759276Y-83316657D01*
X90759277Y-83316658D01*
X90708480Y-83177095D01*
X90618399Y-82929601D01*
X90444328Y-82556303D01*
X90238384Y-82199597D01*
X90238383Y-82199596D01*
X90238381Y-82199592D01*
X90238381Y-82199593D01*
X90002134Y-81862198D01*
X90002133Y-81862197D01*
X90002134Y-81862197D01*
X89754906Y-81567563D01*
X89737377Y-81546673D01*
X89446128Y-81255424D01*
X89386173Y-81205116D01*
X89130604Y-80990667D01*
X89130604Y-80990668D01*
X89130603Y-80990667D01*
X88793208Y-80754420D01*
X88793209Y-80754420D01*
X88793204Y-80754417D01*
X88436498Y-80548473D01*
X88436496Y-80548472D01*
X88436496Y-80548471D01*
X88063201Y-80374401D01*
X87676154Y-80233528D01*
X87676153Y-80233527D01*
X87676151Y-80233527D01*
X87278298Y-80126922D01*
X86872667Y-80055398D01*
X86462345Y-80019500D01*
X83612323Y-80019500D01*
X83400007Y-80019499D01*
X82976991Y-80056506D01*
X82558811Y-80130241D01*
X82148648Y-80240142D01*
X81998518Y-80294784D01*
X81749628Y-80385372D01*
X81749629Y-80385372D01*
X81711581Y-80403114D01*
X81364777Y-80564830D01*
X81010979Y-80769095D01*
X80997031Y-80777148D01*
X80896811Y-80847323D01*
X80649198Y-81020703D01*
X80649197Y-81020704D01*
X80649197Y-81020703D01*
X80376249Y-81249734D01*
X80331080Y-81287636D01*
X80323910Y-81293652D01*
X80023652Y-81593910D01*
X79750703Y-81919197D01*
X79750704Y-81919197D01*
X79750703Y-81919198D01*
X79707813Y-81980451D01*
X79507148Y-82267031D01*
X79507145Y-82267035D01*
X79507145Y-82267036D01*
X79299073Y-82627429D01*
X79294829Y-82634779D01*
X79115372Y-83019629D01*
X79115372Y-83019628D01*
X79040326Y-83225819D01*
X78970142Y-83418648D01*
X78860241Y-83828811D01*
X78786506Y-84246991D01*
X78749499Y-84670007D01*
X62269429Y-84670007D01*
X62471488Y-83941002D01*
X62922353Y-82463262D01*
X63411119Y-80997621D01*
X63937459Y-79545051D01*
X64501025Y-78106515D01*
X65101444Y-76682966D01*
X65738317Y-75275349D01*
X66411222Y-73884596D01*
X67119713Y-72511630D01*
X67863321Y-71157362D01*
X68641551Y-69822689D01*
X69453888Y-68508497D01*
X70299794Y-67215656D01*
X71178707Y-65945024D01*
X72090045Y-64697443D01*
X73033204Y-63473741D01*
X74007557Y-62274730D01*
X75012460Y-61101203D01*
X76047245Y-59953939D01*
X77111227Y-58833700D01*
X78203700Y-57741227D01*
X79323939Y-56677245D01*
X80471203Y-55642460D01*
X81644730Y-54637557D01*
X82843741Y-53663204D01*
X84067443Y-52720045D01*
X85315024Y-51808707D01*
X86585656Y-50929794D01*
X87878497Y-50083888D01*
X89192689Y-49271551D01*
X90527362Y-48493321D01*
X91881630Y-47749713D01*
X93254596Y-47041222D01*
X94645349Y-46368317D01*
X94711410Y-46338428D01*
X96051299Y-45732197D01*
X96053345Y-45731283D01*
X97465016Y-45135874D01*
X97479213Y-45129967D01*
X98893968Y-44575718D01*
X98920099Y-44565630D01*
X99023322Y-44528226D01*
X100337513Y-44052028D01*
X100375000Y-44038657D01*
X101794220Y-43565372D01*
X101843077Y-43549358D01*
X103263569Y-43115959D01*
X103323217Y-43098102D01*
X104744318Y-42704214D01*
X104814518Y-42685160D01*
X106235607Y-42330411D01*
X106315959Y-42310818D01*
X107736319Y-41994865D01*
X107826555Y-41975319D01*
X109245677Y-41697784D01*
X109345246Y-41678897D01*
X110762214Y-41439485D01*
X110871169Y-41421722D01*
X112285402Y-41220076D01*
X112403091Y-41204000D01*
X113814109Y-41039758D01*
X113940170Y-41025849D01*
X115347109Y-40898701D01*
X115481301Y-40887397D01*
X116883565Y-40796999D01*
X117025487Y-40788732D01*
X118422367Y-40734750D01*
X118571713Y-40729921D01*
X119962634Y-40712011D01*
X120118932Y-40711001D01*
X121503236Y-40728825D01*
G37*
%TD.AperFunction*%
%TD*%
M02*
