0
SECTION
2
HEADER
9
$INSUNITS
70
4
9
$ACADVER
1
AC1014
9
$HANDSEED
5
FFFF
0
ENDSEC
0
SECTION
2
TABLES
0
TABLE
2
VPORT
5
8
100
AcDbSymbolTable
0
ENDTAB
0
TABLE
2
LTYPE
5
5
100
AcDbSymbolTable
0
LTYPE
5
14
100
AcDbSymbolTableRecord
100
AcDbLinetypeTableRecord
2
BYBLOCK
70
0
0
LTYPE
5
15
100
AcDbSymbolTableRecord
100
AcDbLinetypeTableRecord
2
BYLAYER
70
0
0
LTYPE
5
16
100
AcDbSymbolTableRecord
100
AcDbLinetypeTableRecord
2
DASHED
70
0
3
Dashed __ __ __ __ __ __ __ __ __ __ __ __ __ _
72
65
73
2
40
0.75
49
0.5
74
0
49
-0.25
74
0
0
ENDTAB
0
TABLE
2
LAYER
5
2
100
AcDbSymbolTable
70
3
0
LAYER
5
50
100
AcDbSymbolTableRecord
100
AcDbLayerTableRecord
2
1
70
0
62
7
6
DASHED
0
LAYER
5
51
100
AcDbSymbolTableRecord
100
AcDbLayerTableRecord
2
0
70
0
62
7
6
CONTINUOUS
0
ENDTAB
0
TABLE
2
STYLE
5
3
100
AcDbSymbolTable
70
1
0
STYLE
5
11
100
AcDbSymbolTableRecord
100
AcDbTextStyleTableRecord
2
STANDARD
70
0
0
ENDTAB
0
TABLE
2
VIEW
5
6
100
AcDbSymbolTable
70
0
0
ENDTAB
0
TABLE
2
UCS
5
7
100
AcDbSymbolTable
70
0
0
ENDTAB
0
TABLE
2
APPID
5
9
100
AcDbSymbolTable
70
2
0
APPID
5
12
100
AcDbSymbolTableRecord
100
AcDbRegAppTableRecord
2
ACAD
70
0
0
ENDTAB
0
TABLE
2
DIMSTYLE
5
A
100
AcDbSymbolTable
70
1
0
ENDTAB
0
TABLE
2
BLOCK_RECORD
5
1
100
AcDbSymbolTable
70
1
0
BLOCK_RECORD
5
1F
100
AcDbSymbolTableRecord
100
AcDbBlockTableRecord
2
*MODEL_SPACE
0
BLOCK_RECORD
5
1B
100
AcDbSymbolTableRecord
100
AcDbBlockTableRecord
2
*PAPER_SPACE
0
ENDTAB
0
ENDSEC
0
SECTION
2
BLOCKS
0
BLOCK
5
20
100
AcDbEntity
100
AcDbBlockBegin
2
*MODEL_SPACE
0
ENDBLK
5
21
100
AcDbEntity
100
AcDbBlockEnd
0
BLOCK
5
1C
100
AcDbEntity
100
AcDbBlockBegin
2
*PAPER_SPACE
0
ENDBLK
5
1D
100
AcDbEntity
100
AcDbBlockEnd
0
ENDSEC
0
SECTION
2
ENTITIES
0
LWPOLYLINE
5
100
100
AcDbEntity
8
0
100
AcDbPolyline
90
4
70
1
43
0.0
10
-28.654749598559732
20
4.4615384614016032
42
1.1677484162367788
10
28.654749598559725
20
4.4615384614015774
42
0.36966381333065529
10
25.690465157327168
20
6.9999999998769393
10
-25.690465157327168
20
6.9999999998769535
42
0.36966381333065429
0
CIRCLE
5
101
100
AcDbEntity
8
0
100
AcDbCircle
10
-40.445732083465977
20
19.726701605560393
30
0
40
1.6500000000000004
210
-2.7369110631344083e-48
220
1.3684555315672042e-48
230
1
0
CIRCLE
5
102
100
AcDbEntity
8
0
100
AcDbCircle
10
40.445732083465977
20
19.7267016055604
30
0
40
1.6500000000000004
210
-2.7369110631344083e-48
220
1.3684555315672042e-48
230
1
0
CIRCLE
5
103
100
AcDbEntity
8
0
100
AcDbCircle
10
40.445732083465977
20
-19.7267016055604
30
0
40
1.6500000000000004
210
-2.7369110631344083e-48
220
1.3684555315672042e-48
230
1
0
CIRCLE
5
104
100
AcDbEntity
8
0
100
AcDbCircle
10
-40.445732083465977
20
-19.726701605560411
30
0
40
1.6500000000000004
210
-2.7369110631344083e-48
220
1.3684555315672042e-48
230
1
0
LWPOLYLINE
5
105
100
AcDbEntity
8
0
100
AcDbPolyline
90
24
70
1
43
0.0
10
-39.287810856489649
20
-21.942377220967629
10
-37.424471165918533
20
-21.03356573030787
42
-0.39054995541952842
10
-36.12595815821755
20
-21.422304898082185
42
0.56960966991507123
10
36.125958158270912
20
-21.422304898107409
42
-0.39054995541932391
10
37.424471165971539
20
-21.033565730333702
10
39.287810856489656
20
-21.942377220967629
42
1.0281745265962492
10
41.478820803960126
20
-17.450141108760953
10
39.615481113394154
20
-16.541329618239399
42
-0.39054995542094101
10
39.122367323899489
20
-15.278755674919447
42
0.18834208343369993
10
39.122367323899482
20
15.27875567478565
42
-0.39054995542094301
10
39.615481113394154
20
16.54132961810561
10
41.478820803906657
20
17.45014110873678
42
1.0281745266210687
10
39.287810856489628
20
21.942377220833897
10
37.424471165971539
20
21.033565730199918
42
-0.39054995541932641
10
36.125958158270919
20
21.422304897973632
42
0.56960966991688589
10
-36.12595815821755
20
21.422304897948369
42
-0.39054995541952603
10
-37.424471165918533
20
21.033565730174058
10
-39.287810856489671
20
21.942377220833823
42
1.0281745266210687
10
-41.478820803906693
20
17.450141108736691
10
-39.615481113336756
20
16.541329618077594
42
-0.39054995542073839
10
-39.122367323841829
20
15.278755674758298
42
0.18834208343364425
10
-39.122367323841829
20
-15.278755674892071
42
-0.39054995542074955
10
-39.615481113336742
20
-16.54132961821141
10
-41.478820803906657
20
-17.450141108870586
42
1.0281745265969506
0
ENDSEC
0
SECTION
2
OBJECTS
0
DICTIONARY
5
C
100
AcDbDictionary
3
ACAD_GROUP
350
D
3
ACAD_MLINESTYLE
350
17
0
DICTIONARY
5
D
100
AcDbDictionary
0
DICTIONARY
5
1A
330
C
100
AcDbDictionary
0
DICTIONARY
5
17
100
AcDbDictionary
0
ENDSEC
0
EOF
