%TF.GenerationSoftware,KiCad,Pcbnew,7.0.9*%
%TF.CreationDate,2025-01-15T21:52:21+09:00*%
%TF.ProjectId,line_main_robot2,6c696e65-5f6d-4616-996e-5f726f626f74,rev?*%
%TF.SameCoordinates,Original*%
%TF.FileFunction,Profile,NP*%
%FSLAX46Y46*%
G04 Gerber Fmt 4.6, Leading zero omitted, Abs format (unit mm)*
G04 Created by KiCad (PCBNEW 7.0.9) date 2025-01-15 21:52:21*
%MOMM*%
%LPD*%
G01*
G04 APERTURE LIST*
%TA.AperFunction,Profile*%
%ADD10C,0.200000*%
%TD*%
G04 APERTURE END LIST*
D10*
X99265536Y-78236420D02*
G75*
G03*
X100564041Y-77847695I438364J898820D01*
G01*
X162380465Y-92270000D02*
X110999535Y-92270000D01*
X99265529Y-78236434D02*
X97402189Y-77327623D01*
X176305491Y-82728690D02*
G75*
G03*
X175812368Y-83991244I438409J-898810D01*
G01*
X175812347Y-114548748D02*
G75*
G03*
X176305481Y-115811330I931553J-363752D01*
G01*
X97567653Y-83991252D02*
G75*
G03*
X97074519Y-82728670I-931553J363752D01*
G01*
X97402200Y-77327601D02*
G75*
G03*
X95211179Y-81819858I-1157900J-2215699D01*
G01*
X165344784Y-94808457D02*
G75*
G03*
X162380465Y-92270000I-2964284J-461543D01*
G01*
X95211190Y-116720165D02*
G75*
G03*
X97402189Y-121212377I1033110J-2276535D01*
G01*
X178168821Y-116720141D02*
X176305481Y-115811330D01*
X175977800Y-121212399D02*
G75*
G03*
X178168821Y-116720142I1157900J2215699D01*
G01*
X178168810Y-81819835D02*
G75*
G03*
X175977811Y-77327623I-1033110J2276535D01*
G01*
X97074509Y-115811310D02*
G75*
G03*
X97567632Y-114548756I-438409J898810D01*
G01*
X97894268Y-118996702D02*
G75*
G03*
X97894268Y-118996702I-1650000J0D01*
G01*
X176305481Y-82728670D02*
X178168821Y-81819859D01*
X97567634Y-83991244D02*
G75*
G03*
X97567634Y-114548756I39122366J-15278756D01*
G01*
X174114471Y-120303566D02*
X175977811Y-121212377D01*
X174114464Y-120303580D02*
G75*
G03*
X172815959Y-120692305I-438364J-898820D01*
G01*
X95211179Y-81819859D02*
X97074519Y-82728670D01*
X97894268Y-79543298D02*
G75*
G03*
X97894268Y-79543298I-1650000J0D01*
G01*
X178785732Y-118996702D02*
G75*
G03*
X178785732Y-118996702I-1650000J0D01*
G01*
X108035250Y-94808462D02*
G75*
G03*
X165344750Y-94808462I28654750J-4461538D01*
G01*
X100564054Y-120692298D02*
G75*
G03*
X99265529Y-120303567I-860154J-510102D01*
G01*
X172815957Y-77847695D02*
G75*
G03*
X100564043Y-77847695I-36125957J-21422305D01*
G01*
X97074519Y-115811330D02*
X95211179Y-116720141D01*
X110999535Y-92270035D02*
G75*
G03*
X108035251Y-94808462I-35J-2999965D01*
G01*
X100564043Y-120692305D02*
G75*
G03*
X172815957Y-120692305I36125957J21422305D01*
G01*
X175812366Y-114548756D02*
G75*
G03*
X175812366Y-83991244I-39122366J15278756D01*
G01*
X172815946Y-77847702D02*
G75*
G03*
X174114471Y-78236433I860154J510102D01*
G01*
X175977811Y-77327623D02*
X174114471Y-78236434D01*
X97402189Y-121212377D02*
X99265529Y-120303566D01*
X178785732Y-79543298D02*
G75*
G03*
X178785732Y-79543298I-1650000J0D01*
G01*
M02*
