0
SECTION
2
HEADER
9
$INSUNITS
70
4
9
$ACADVER
1
AC1014
9
$HANDSEED
5
FFFF
0
ENDSEC
0
SECTION
2
TABLES
0
TABLE
2
VPORT
5
8
100
AcDbSymbolTable
0
ENDTAB
0
TABLE
2
LTYPE
5
5
100
AcDbSymbolTable
0
LTYPE
5
14
100
AcDbSymbolTableRecord
100
AcDbLinetypeTableRecord
2
BYBLOCK
70
0
0
LTYPE
5
15
100
AcDbSymbolTableRecord
100
AcDbLinetypeTableRecord
2
BYLAYER
70
0
0
LTYPE
5
16
100
AcDbSymbolTableRecord
100
AcDbLinetypeTableRecord
2
DASHED
70
0
3
Dashed __ __ __ __ __ __ __ __ __ __ __ __ __ _
72
65
73
2
40
0.75
49
0.5
74
0
49
-0.25
74
0
0
ENDTAB
0
TABLE
2
LAYER
5
2
100
AcDbSymbolTable
70
3
0
LAYER
5
50
100
AcDbSymbolTableRecord
100
AcDbLayerTableRecord
2
1
70
0
62
7
6
DASHED
0
LAYER
5
51
100
AcDbSymbolTableRecord
100
AcDbLayerTableRecord
2
0
70
0
62
7
6
CONTINUOUS
0
ENDTAB
0
TABLE
2
STYLE
5
3
100
AcDbSymbolTable
70
1
0
STYLE
5
11
100
AcDbSymbolTableRecord
100
AcDbTextStyleTableRecord
2
STANDARD
70
0
0
ENDTAB
0
TABLE
2
VIEW
5
6
100
AcDbSymbolTable
70
0
0
ENDTAB
0
TABLE
2
UCS
5
7
100
AcDbSymbolTable
70
0
0
ENDTAB
0
TABLE
2
APPID
5
9
100
AcDbSymbolTable
70
2
0
APPID
5
12
100
AcDbSymbolTableRecord
100
AcDbRegAppTableRecord
2
ACAD
70
0
0
ENDTAB
0
TABLE
2
DIMSTYLE
5
A
100
AcDbSymbolTable
70
1
0
ENDTAB
0
TABLE
2
BLOCK_RECORD
5
1
100
AcDbSymbolTable
70
1
0
BLOCK_RECORD
5
1F
100
AcDbSymbolTableRecord
100
AcDbBlockTableRecord
2
*MODEL_SPACE
0
BLOCK_RECORD
5
1B
100
AcDbSymbolTableRecord
100
AcDbBlockTableRecord
2
*PAPER_SPACE
0
ENDTAB
0
ENDSEC
0
SECTION
2
BLOCKS
0
BLOCK
5
20
100
AcDbEntity
100
AcDbBlockBegin
2
*MODEL_SPACE
0
ENDBLK
5
21
100
AcDbEntity
100
AcDbBlockEnd
0
BLOCK
5
1C
100
AcDbEntity
100
AcDbBlockBegin
2
*PAPER_SPACE
0
ENDBLK
5
1D
100
AcDbEntity
100
AcDbBlockEnd
0
ENDSEC
0
SECTION
2
ENTITIES
0
CIRCLE
5
100
100
AcDbEntity
8
0
100
AcDbCircle
10
40.445732083462531
20
19.726701605508485
30
0
40
1.6500000000000004
210
0
220
0
230
1
0
CIRCLE
5
101
100
AcDbEntity
8
0
100
AcDbCircle
10
88.877765756012806
20
-38.711880849293593
30
0
40
1.6500000000000092
210
0
220
0
230
1
0
CIRCLE
5
102
100
AcDbEntity
8
0
100
AcDbCircle
10
88.877765756012806
20
38.711880849293593
30
0
40
1.6499999999999915
210
0
220
0
230
1
0
CIRCLE
5
103
100
AcDbEntity
8
0
100
AcDbCircle
10
40.445732083462516
20
-19.726701605508477
30
0
40
1.6500000000000004
210
0
220
0
230
1
0
LWPOLYLINE
5
104
100
AcDbEntity
8
0
100
AcDbPolyline
90
28
70
1
43
0.0
10
85.573102954239914
20
37.489841833554834
10
83.032921016245993
20
34.94965989556092
42
-0.21685760462349413
10
79.153629089722926
20
33.497024756314893
42
-0.18108952573795281
10
74.046787673175103
20
35.821240979108566
10
68.899373254576545
20
40.968655397707138
42
0.41421356237309964
10
66.070946129830361
20
40.968655397707138
10
47.767559344497961
20
22.665268612374724
42
-0.34101542986419769
10
41.707829868496738
20
21.884735243108118
42
0.83378012281573266
10
38.501824947396337
20
18.154688550107636
42
-0.064424409610019578
10
38.905122744109065
20
17.498873809165264
42
-0.21454042047977198
10
38.905122744105711
20
-17.498873809169599
42
-0.064424409609747893
10
38.501824947394908
20
-18.154688550109377
42
0.9568312430532453
10
42.243562816242211
20
-21.463884571195141
42
-0.30157013703467334
10
47.662398542672555
20
-22.560107810548786
10
66.070946129830162
20
-40.968655397707259
42
0.41421356237310147
10
68.899373254576389
20
-40.968655397707288
10
74.046787673175729
20
-35.82124097910831
42
-0.18108952573788448
10
79.153629089721548
20
-33.497024756314829
42
-0.21685760462355969
10
83.032921016245851
20
-34.949659895560778
10
85.573102954239914
20
-37.489841833554827
42
-0.15654915876478356
10
86.411409780861675
20
-39.120645089212182
42
0.32110420659465988
10
88.470251977197236
20
-41.178443745324316
42
-0.15015829906245598
10
90.047815339751082
20
-41.963635903669349
42
0.51857292552042367
10
93.254045949127828
20
-41.324123954084115
42
0.21164285449385839
10
93.254045949128809
20
41.324123954085024
42
0.51857292552050749
10
90.047815339751637
20
41.963635903669896
42
-0.15015829906252467
10
88.470251977197222
20
41.178443745324316
42
0.32110420659465755
10
86.411409780861675
20
39.120645089212182
42
-0.15654915876478334
0
ENDSEC
0
SECTION
2
OBJECTS
0
DICTIONARY
5
C
100
AcDbDictionary
3
ACAD_GROUP
350
D
3
ACAD_MLINESTYLE
350
17
0
DICTIONARY
5
D
100
AcDbDictionary
0
DICTIONARY
5
1A
330
C
100
AcDbDictionary
0
DICTIONARY
5
17
100
AcDbDictionary
0
ENDSEC
0
EOF
