M48
; DRILL file {KiCad 7.0.9} date Wed Jan 15 21:52:57 2025
; FORMAT={3:3/ absolute / metric / keep zeros}
; #@! TF.CreationDate,2025-01-15T21:52:57+09:00
; #@! TF.GenerationSoftware,Kicad,Pcbnew,7.0.9
; #@! TF.FileFunction,MixedPlating,1,2
FMAT,2
METRIC
; #@! TA.AperFunction,Plated,PTH,ViaDrill
T1C0.400
; #@! TA.AperFunction,Plated,PTH,ComponentDrill
T2C0.950
; #@! TA.AperFunction,Plated,PTH,ComponentDrill
T3C1.000
%
G90
G05
T1
X096200Y-105870
X096610Y-092100
X097810Y-086460
X101250Y-105980
X102020Y-114740
X102190Y-121490
X102300Y-076900
X103050Y-122610
X103490Y-099820
X103710Y-097660
X103770Y-116620
X104240Y-093390
X104630Y-109100
X104890Y-103290
X105090Y-088340
X105440Y-117950
X105450Y-083670
X106000Y-071780
X106680Y-112900
X107200Y-080230
X108560Y-115510
X109760Y-086720
X111000Y-121580
X112660Y-121450
X112770Y-079940
X112890Y-132660
X112900Y-075980
X112980Y-066160
X113950Y-123200
X114450Y-091500
X115640Y-085730
X116300Y-129370
X116450Y-065840
X116790Y-127220
X117150Y-124740
X117870Y-082270
X118210Y-130060
X118490Y-076720
X119110Y-068040
X119200Y-091370
X119590Y-127050
X119670Y-134000
X120030Y-062160
X120070Y-130100
X121380Y-089030
X121450Y-128840
X121660Y-135540
X122160Y-065130
X122230Y-130300
X122840Y-134000
X123760Y-091140
X123890Y-130060
X124320Y-126500
X124640Y-083950
X124780Y-062510
X124790Y-086870
X125270Y-135950
X126370Y-134160
X127080Y-070470
X127080Y-072960
X127130Y-075500
X127130Y-078250
X127300Y-089620
X127950Y-135620
X127950Y-137210
X127990Y-086950
X128110Y-083390
X129300Y-128780
X130950Y-062520
X131190Y-071250
X131260Y-140150
X131300Y-073680
X131450Y-082370
X131460Y-074980
X131730Y-077190
X131780Y-079990
X132220Y-089920
X132890Y-129340
X133990Y-074440
X134270Y-132820
X135250Y-070880
X135470Y-057910
X135930Y-066230
X136130Y-137290
X136200Y-078590
X136340Y-089970
X136800Y-082470
X137070Y-129230
X137310Y-133060
X138360Y-075570
X139140Y-069480
X139690Y-089970
X140440Y-130290
X140540Y-060740
X140580Y-140410
X141170Y-077570
X141330Y-080210
X141580Y-072680
X142170Y-132170
X142180Y-082680
X142240Y-065620
X142290Y-089820
X142660Y-058430
X143060Y-134330
X143580Y-139790
X144940Y-128580
X145570Y-061000
X145930Y-085200
X145940Y-132930
X146370Y-089920
X146570Y-068110
X146630Y-074810
X146680Y-070150
X146750Y-064950
X147520Y-079100
X147990Y-072040
X148440Y-136980
X148470Y-084760
X148880Y-130720
X148960Y-074350
X149370Y-089970
X149410Y-126500
X150060Y-135950
X150420Y-072480
X150590Y-070090
X150940Y-065250
X151060Y-060940
X151520Y-076560
X151610Y-134550
X151760Y-127920
X152570Y-086770
X152920Y-074990
X153060Y-089870
X153380Y-132340
X154090Y-062160
X154320Y-065770
X154640Y-124750
X154860Y-134180
X155450Y-130790
X156160Y-069880
X156630Y-133450
X157290Y-131600
X157530Y-063620
X157730Y-124520
X157830Y-075420
X157930Y-081120
X159060Y-073990
X159990Y-078560
X160290Y-122540
X160350Y-089910
X160630Y-075710
X160850Y-065830
X161560Y-117390
X161630Y-132090
X161660Y-082050
X162150Y-084760
X163430Y-079990
X164290Y-068750
X164750Y-110680
X164790Y-129400
X165410Y-086850
X165450Y-116960
X165590Y-070470
X165920Y-083390
X166260Y-093670
X166370Y-096900
X166430Y-104680
X166470Y-107240
X166720Y-101050
X166740Y-071780
X167670Y-126200
X167790Y-090550
X168200Y-084810
X168390Y-074060
X168700Y-087420
X169810Y-075940
X169840Y-093040
X170060Y-079960
X170120Y-094970
X170190Y-123370
X170350Y-099180
X171600Y-120940
X172160Y-112890
X172160Y-116080
X172770Y-108710
X173350Y-082240
X174660Y-107530
X175770Y-111130
X177440Y-104460
X177800Y-097670
T2
X151336Y-083420
X153836Y-083420
X156336Y-083420
X158836Y-083420
T3
X100665Y-092924
X100665Y-095464
X100665Y-098004
X100665Y-100544
X100665Y-103084
X106729Y-120256
X108520Y-076493
X108525Y-122052
X110316Y-074697
X110321Y-123848
X112112Y-072901
X112117Y-125644
X113908Y-071105
X113913Y-127440
X115704Y-069309
X129086Y-066330
X129086Y-068870
X129086Y-071410
X129086Y-073950
X129086Y-076490
X129086Y-079030
X129086Y-081570
X130344Y-135295
X132876Y-063245
X132884Y-135295
X135416Y-063245
X135424Y-135295
X137956Y-063245
X137964Y-135295
X140496Y-063245
X140504Y-135295
X143036Y-063245
X144326Y-066330
X144326Y-068870
X144326Y-071410
X144326Y-073950
X144326Y-076490
X144326Y-079030
X144326Y-081570
X157676Y-129231
X159467Y-071100
X159472Y-127435
X161263Y-072896
X161268Y-125639
X163059Y-074692
X163064Y-123843
X164855Y-076488
X164860Y-122047
X166651Y-078284
X172715Y-095456
X172715Y-097996
X172715Y-100536
X172715Y-103076
X172715Y-105616
T0
M30
