%TF.GenerationSoftware,KiCad,Pcbnew,7.0.9*%
%TF.CreationDate,2025-01-15T21:52:53+09:00*%
%TF.ProjectId,line_main_robot2,6c696e65-5f6d-4616-996e-5f726f626f74,rev?*%
%TF.SameCoordinates,Original*%
%TF.FileFunction,Soldermask,Bot*%
%TF.FilePolarity,Negative*%
%FSLAX46Y46*%
G04 Gerber Fmt 4.6, Leading zero omitted, Abs format (unit mm)*
G04 Created by KiCad (PCBNEW 7.0.9) date 2025-01-15 21:52:53*
%MOMM*%
%LPD*%
G01*
G04 APERTURE LIST*
G04 Aperture macros list*
%AMRoundRect*
0 Rectangle with rounded corners*
0 $1 Rounding radius*
0 $2 $3 $4 $5 $6 $7 $8 $9 X,Y pos of 4 corners*
0 Add a 4 corners polygon primitive as box body*
4,1,4,$2,$3,$4,$5,$6,$7,$8,$9,$2,$3,0*
0 Add four circle primitives for the rounded corners*
1,1,$1+$1,$2,$3*
1,1,$1+$1,$4,$5*
1,1,$1+$1,$6,$7*
1,1,$1+$1,$8,$9*
0 Add four rect primitives between the rounded corners*
20,1,$1+$1,$2,$3,$4,$5,0*
20,1,$1+$1,$4,$5,$6,$7,0*
20,1,$1+$1,$6,$7,$8,$9,0*
20,1,$1+$1,$8,$9,$2,$3,0*%
%AMHorizOval*
0 Thick line with rounded ends*
0 $1 width*
0 $2 $3 position (X,Y) of the first rounded end (center of the circle)*
0 $4 $5 position (X,Y) of the second rounded end (center of the circle)*
0 Add line between two ends*
20,1,$1,$2,$3,$4,$5,0*
0 Add two circle primitives to create the rounded ends*
1,1,$1,$2,$3*
1,1,$1,$4,$5*%
%AMRotRect*
0 Rectangle, with rotation*
0 The origin of the aperture is its center*
0 $1 length*
0 $2 width*
0 $3 Rotation angle, in degrees counterclockwise*
0 Add horizontal line*
21,1,$1,$2,0,0,$3*%
G04 Aperture macros list end*
%ADD10RotRect,1.700000X1.700000X45.000000*%
%ADD11HorizOval,1.700000X0.000000X0.000000X0.000000X0.000000X0*%
%ADD12R,1.700000X1.700000*%
%ADD13O,1.700000X1.700000*%
%ADD14RotRect,1.700000X1.700000X225.000000*%
%ADD15HorizOval,1.700000X0.000000X0.000000X0.000000X0.000000X0*%
%ADD16RotRect,1.700000X1.700000X315.000000*%
%ADD17HorizOval,1.700000X0.000000X0.000000X0.000000X0.000000X0*%
%ADD18RotRect,1.700000X1.700000X135.000000*%
%ADD19HorizOval,1.700000X0.000000X0.000000X0.000000X0.000000X0*%
%ADD20C,1.700000*%
%ADD21RoundRect,0.250000X0.600000X0.725000X-0.600000X0.725000X-0.600000X-0.725000X0.600000X-0.725000X0*%
%ADD22O,1.700000X1.950000*%
G04 APERTURE END LIST*
D10*
%TO.C,J5*%
X106728952Y-120256195D03*
D11*
X108525003Y-122052246D03*
X110321054Y-123848297D03*
X112117106Y-125644349D03*
X113913157Y-127440400D03*
%TD*%
D12*
%TO.C,J6*%
X100664859Y-92923821D03*
D13*
X100664859Y-95463821D03*
X100664859Y-98003821D03*
X100664859Y-100543821D03*
X100664859Y-103083821D03*
%TD*%
D12*
%TO.C,J8*%
X143036179Y-63244859D03*
D13*
X140496179Y-63244859D03*
X137956179Y-63244859D03*
X135416179Y-63244859D03*
X132876179Y-63244859D03*
%TD*%
D12*
%TO.C,J4*%
X130343821Y-135295141D03*
D13*
X132883821Y-135295141D03*
X135423821Y-135295141D03*
X137963821Y-135295141D03*
X140503821Y-135295141D03*
%TD*%
D12*
%TO.C,J2*%
X172715141Y-105616179D03*
D13*
X172715141Y-103076179D03*
X172715141Y-100536179D03*
X172715141Y-97996179D03*
X172715141Y-95456179D03*
%TD*%
D14*
%TO.C,J1*%
X166651048Y-78283805D03*
D15*
X164854997Y-76487754D03*
X163058946Y-74691703D03*
X161262894Y-72895651D03*
X159466843Y-71099600D03*
%TD*%
D16*
%TO.C,J7*%
X115703805Y-69308952D03*
D17*
X113907754Y-71105003D03*
X112111703Y-72901054D03*
X110315651Y-74697106D03*
X108519600Y-76493157D03*
%TD*%
D18*
%TO.C,J3*%
X157676195Y-129231048D03*
D19*
X159472246Y-127434997D03*
X161268297Y-125638946D03*
X163064349Y-123842894D03*
X164860400Y-122046843D03*
%TD*%
D20*
%TO.C,U1*%
X129086179Y-81569859D03*
X129086179Y-79029859D03*
X129086179Y-76489859D03*
X129086179Y-73949859D03*
X129086179Y-71409859D03*
X129086179Y-68869859D03*
X129086179Y-66329859D03*
X144326179Y-66329859D03*
X144326179Y-68869859D03*
X144326179Y-71409859D03*
X144326179Y-73949859D03*
X144326179Y-76489859D03*
X144326179Y-79029859D03*
X144326179Y-81569859D03*
%TD*%
D21*
%TO.C,J9*%
X158836179Y-83419859D03*
D22*
X156336179Y-83419859D03*
X153836179Y-83419859D03*
X151336179Y-83419859D03*
%TD*%
M02*
