%TF.GenerationSoftware,KiCad,Pcbnew,7.0.9*%
%TF.CreationDate,2025-01-15T21:52:52+09:00*%
%TF.ProjectId,line_main_robot2,6c696e65-5f6d-4616-996e-5f726f626f74,rev?*%
%TF.SameCoordinates,Original*%
%TF.FileFunction,Copper,L1,Top*%
%TF.FilePolarity,Positive*%
%FSLAX46Y46*%
G04 Gerber Fmt 4.6, Leading zero omitted, Abs format (unit mm)*
G04 Created by KiCad (PCBNEW 7.0.9) date 2025-01-15 21:52:52*
%MOMM*%
%LPD*%
G01*
G04 APERTURE LIST*
G04 Aperture macros list*
%AMRoundRect*
0 Rectangle with rounded corners*
0 $1 Rounding radius*
0 $2 $3 $4 $5 $6 $7 $8 $9 X,Y pos of 4 corners*
0 Add a 4 corners polygon primitive as box body*
4,1,4,$2,$3,$4,$5,$6,$7,$8,$9,$2,$3,0*
0 Add four circle primitives for the rounded corners*
1,1,$1+$1,$2,$3*
1,1,$1+$1,$4,$5*
1,1,$1+$1,$6,$7*
1,1,$1+$1,$8,$9*
0 Add four rect primitives between the rounded corners*
20,1,$1+$1,$2,$3,$4,$5,0*
20,1,$1+$1,$4,$5,$6,$7,0*
20,1,$1+$1,$6,$7,$8,$9,0*
20,1,$1+$1,$8,$9,$2,$3,0*%
%AMHorizOval*
0 Thick line with rounded ends*
0 $1 width*
0 $2 $3 position (X,Y) of the first rounded end (center of the circle)*
0 $4 $5 position (X,Y) of the second rounded end (center of the circle)*
0 Add line between two ends*
20,1,$1,$2,$3,$4,$5,0*
0 Add two circle primitives to create the rounded ends*
1,1,$1,$2,$3*
1,1,$1,$4,$5*%
%AMRotRect*
0 Rectangle, with rotation*
0 The origin of the aperture is its center*
0 $1 length*
0 $2 width*
0 $3 Rotation angle, in degrees counterclockwise*
0 Add horizontal line*
21,1,$1,$2,0,0,$3*%
G04 Aperture macros list end*
%TA.AperFunction,ComponentPad*%
%ADD10RotRect,1.700000X1.700000X45.000000*%
%TD*%
%TA.AperFunction,ComponentPad*%
%ADD11HorizOval,1.700000X0.000000X0.000000X0.000000X0.000000X0*%
%TD*%
%TA.AperFunction,ComponentPad*%
%ADD12R,1.700000X1.700000*%
%TD*%
%TA.AperFunction,ComponentPad*%
%ADD13O,1.700000X1.700000*%
%TD*%
%TA.AperFunction,ComponentPad*%
%ADD14RotRect,1.700000X1.700000X225.000000*%
%TD*%
%TA.AperFunction,ComponentPad*%
%ADD15HorizOval,1.700000X0.000000X0.000000X0.000000X0.000000X0*%
%TD*%
%TA.AperFunction,ComponentPad*%
%ADD16RotRect,1.700000X1.700000X315.000000*%
%TD*%
%TA.AperFunction,ComponentPad*%
%ADD17HorizOval,1.700000X0.000000X0.000000X0.000000X0.000000X0*%
%TD*%
%TA.AperFunction,ComponentPad*%
%ADD18RotRect,1.700000X1.700000X135.000000*%
%TD*%
%TA.AperFunction,ComponentPad*%
%ADD19HorizOval,1.700000X0.000000X0.000000X0.000000X0.000000X0*%
%TD*%
%TA.AperFunction,ComponentPad*%
%ADD20C,1.700000*%
%TD*%
%TA.AperFunction,ComponentPad*%
%ADD21RoundRect,0.250000X0.600000X0.725000X-0.600000X0.725000X-0.600000X-0.725000X0.600000X-0.725000X0*%
%TD*%
%TA.AperFunction,ComponentPad*%
%ADD22O,1.700000X1.950000*%
%TD*%
%TA.AperFunction,ViaPad*%
%ADD23C,0.800000*%
%TD*%
%TA.AperFunction,Conductor*%
%ADD24C,0.500000*%
%TD*%
G04 APERTURE END LIST*
D10*
%TO.P,J5,1,Pin_1*%
%TO.N,+5V*%
X106728952Y-120256195D03*
D11*
%TO.P,J5,2,Pin_2*%
%TO.N,/PWM*%
X108525003Y-122052246D03*
%TO.P,J5,3,Pin_3*%
%TO.N,+3.3V*%
X110321054Y-123848297D03*
%TO.P,J5,4,Pin_4*%
%TO.N,GND*%
X112117106Y-125644349D03*
%TO.P,J5,5,Pin_5*%
%TO.N,/5*%
X113913157Y-127440400D03*
%TD*%
D12*
%TO.P,J6,1,Pin_1*%
%TO.N,+5V*%
X100664859Y-92923821D03*
D13*
%TO.P,J6,2,Pin_2*%
%TO.N,/PWM*%
X100664859Y-95463821D03*
%TO.P,J6,3,Pin_3*%
%TO.N,+3.3V*%
X100664859Y-98003821D03*
%TO.P,J6,4,Pin_4*%
%TO.N,GND*%
X100664859Y-100543821D03*
%TO.P,J6,5,Pin_5*%
%TO.N,/6*%
X100664859Y-103083821D03*
%TD*%
D12*
%TO.P,J8,1,Pin_1*%
%TO.N,+5V*%
X143036179Y-63244859D03*
D13*
%TO.P,J8,2,Pin_2*%
%TO.N,/PWM*%
X140496179Y-63244859D03*
%TO.P,J8,3,Pin_3*%
%TO.N,+3.3V*%
X137956179Y-63244859D03*
%TO.P,J8,4,Pin_4*%
%TO.N,GND*%
X135416179Y-63244859D03*
%TO.P,J8,5,Pin_5*%
%TO.N,/7*%
X132876179Y-63244859D03*
%TD*%
D12*
%TO.P,J4,1,Pin_1*%
%TO.N,+5V*%
X130343821Y-135295141D03*
D13*
%TO.P,J4,2,Pin_2*%
%TO.N,/PWM*%
X132883821Y-135295141D03*
%TO.P,J4,3,Pin_3*%
%TO.N,+3.3V*%
X135423821Y-135295141D03*
%TO.P,J4,4,Pin_4*%
%TO.N,GND*%
X137963821Y-135295141D03*
%TO.P,J4,5,Pin_5*%
%TO.N,/4*%
X140503821Y-135295141D03*
%TD*%
D12*
%TO.P,J2,1,Pin_1*%
%TO.N,+5V*%
X172715141Y-105616179D03*
D13*
%TO.P,J2,2,Pin_2*%
%TO.N,/PWM*%
X172715141Y-103076179D03*
%TO.P,J2,3,Pin_3*%
%TO.N,+3.3V*%
X172715141Y-100536179D03*
%TO.P,J2,4,Pin_4*%
%TO.N,GND*%
X172715141Y-97996179D03*
%TO.P,J2,5,Pin_5*%
%TO.N,/2*%
X172715141Y-95456179D03*
%TD*%
D14*
%TO.P,J1,1,Pin_1*%
%TO.N,+5V*%
X166651048Y-78283805D03*
D15*
%TO.P,J1,2,Pin_2*%
%TO.N,/PWM*%
X164854997Y-76487754D03*
%TO.P,J1,3,Pin_3*%
%TO.N,+3.3V*%
X163058946Y-74691703D03*
%TO.P,J1,4,Pin_4*%
%TO.N,GND*%
X161262894Y-72895651D03*
%TO.P,J1,5,Pin_5*%
%TO.N,/1*%
X159466843Y-71099600D03*
%TD*%
D16*
%TO.P,J7,1,Pin_1*%
%TO.N,+5V*%
X115703805Y-69308952D03*
D17*
%TO.P,J7,2,Pin_2*%
%TO.N,/PWM*%
X113907754Y-71105003D03*
%TO.P,J7,3,Pin_3*%
%TO.N,+3.3V*%
X112111703Y-72901054D03*
%TO.P,J7,4,Pin_4*%
%TO.N,GND*%
X110315651Y-74697106D03*
%TO.P,J7,5,Pin_5*%
%TO.N,/8*%
X108519600Y-76493157D03*
%TD*%
D18*
%TO.P,J3,1,Pin_1*%
%TO.N,+5V*%
X157676195Y-129231048D03*
D19*
%TO.P,J3,2,Pin_2*%
%TO.N,/PWM*%
X159472246Y-127434997D03*
%TO.P,J3,3,Pin_3*%
%TO.N,+3.3V*%
X161268297Y-125638946D03*
%TO.P,J3,4,Pin_4*%
%TO.N,GND*%
X163064349Y-123842894D03*
%TO.P,J3,5,Pin_5*%
%TO.N,/3*%
X164860400Y-122046843D03*
%TD*%
D20*
%TO.P,U1,1,DAC*%
%TO.N,/1*%
X129086179Y-81569859D03*
%TO.P,U1,2*%
%TO.N,/2*%
X129086179Y-79029859D03*
%TO.P,U1,3*%
%TO.N,/3*%
X129086179Y-76489859D03*
%TO.P,U1,4*%
%TO.N,/4*%
X129086179Y-73949859D03*
%TO.P,U1,5,SDA*%
%TO.N,/5*%
X129086179Y-71409859D03*
%TO.P,U1,6,SCL*%
%TO.N,/6*%
X129086179Y-68869859D03*
%TO.P,U1,7,TX*%
%TO.N,/TX*%
X129086179Y-66329859D03*
%TO.P,U1,8,RX*%
%TO.N,/RX*%
X144326179Y-66329859D03*
%TO.P,U1,9,SCK*%
%TO.N,/PWM*%
X144326179Y-68869859D03*
%TO.P,U1,10,MISO*%
%TO.N,/7*%
X144326179Y-71409859D03*
%TO.P,U1,11,MOSI*%
%TO.N,/8*%
X144326179Y-73949859D03*
%TO.P,U1,12,3V3*%
%TO.N,+3.3V*%
X144326179Y-76489859D03*
%TO.P,U1,13,GND*%
%TO.N,GND*%
X144326179Y-79029859D03*
%TO.P,U1,14,5V*%
%TO.N,+5V*%
X144326179Y-81569859D03*
%TD*%
D21*
%TO.P,J9,1,Pin_1*%
%TO.N,GND*%
X158836179Y-83419859D03*
D22*
%TO.P,J9,2,Pin_2*%
%TO.N,/RX*%
X156336179Y-83419859D03*
%TO.P,J9,3,Pin_3*%
%TO.N,+5V*%
X153836179Y-83419859D03*
%TO.P,J9,4,Pin_4*%
%TO.N,/TX*%
X151336179Y-83419859D03*
%TD*%
D23*
%TO.N,GND*%
X125270000Y-135950000D03*
X167670000Y-126200000D03*
X97810000Y-86460000D03*
X146630000Y-74810000D03*
X105440000Y-117950000D03*
X127080000Y-70470000D03*
X124320000Y-126500000D03*
X119670000Y-134000000D03*
X156160000Y-69880000D03*
X154860000Y-134180000D03*
X159060000Y-73990000D03*
X157290000Y-131600000D03*
X150940000Y-65250000D03*
X112770000Y-79940000D03*
X146570000Y-68110000D03*
X146370000Y-89920000D03*
X173350000Y-82240000D03*
X169810000Y-75940000D03*
X121380000Y-89030000D03*
X114450000Y-91500000D03*
X166370000Y-96900000D03*
X142290000Y-89820000D03*
X124790000Y-86870000D03*
X166740000Y-71780000D03*
X122230000Y-130300000D03*
X123760000Y-91140000D03*
X119590000Y-127050000D03*
X107200000Y-80230000D03*
X166470000Y-107240000D03*
X165410000Y-86850000D03*
X118490000Y-76720000D03*
X142170000Y-132170000D03*
X129300000Y-128780000D03*
X143060000Y-134330000D03*
X157930000Y-81120000D03*
X156630000Y-133450000D03*
X151060000Y-60940000D03*
X162150000Y-84760000D03*
X131450000Y-82370000D03*
X112980000Y-66160000D03*
X133990000Y-74440000D03*
X141330000Y-80210000D03*
X116300000Y-129370000D03*
X136800000Y-82470000D03*
X102020000Y-114740000D03*
X117870000Y-82270000D03*
X149410000Y-126500000D03*
X150420000Y-72480000D03*
X136130000Y-137290000D03*
X177800000Y-97670000D03*
X168200000Y-84810000D03*
X161660000Y-82050000D03*
X127950000Y-137210000D03*
X131460000Y-74980000D03*
X147520000Y-79100000D03*
X172770000Y-108710000D03*
X145570000Y-61000000D03*
X104240000Y-93390000D03*
X155450000Y-130790000D03*
X96610000Y-92100000D03*
X154320000Y-65770000D03*
X118210000Y-130060000D03*
X121660000Y-135540000D03*
X170190000Y-123370000D03*
X151610000Y-134550000D03*
X131300000Y-73680000D03*
X102190000Y-121490000D03*
X167790000Y-90550000D03*
X142660000Y-58430000D03*
X151520000Y-76560000D03*
X146680000Y-70150000D03*
X153060000Y-89870000D03*
X152570000Y-86770000D03*
X166260000Y-93670000D03*
X113950000Y-123200000D03*
X153380000Y-132340000D03*
X148880000Y-130720000D03*
X127130000Y-78250000D03*
X132890000Y-129340000D03*
X103770000Y-116620000D03*
X120070000Y-130100000D03*
X139140000Y-69480000D03*
X160290000Y-122540000D03*
X135250000Y-70880000D03*
X132220000Y-89920000D03*
X116450000Y-65840000D03*
X104890000Y-103290000D03*
X131730000Y-77190000D03*
X140580000Y-140410000D03*
X106000000Y-71780000D03*
X112900000Y-75980000D03*
X142240000Y-65620000D03*
X159990000Y-78560000D03*
X150060000Y-135950000D03*
X127300000Y-89620000D03*
X109760000Y-86720000D03*
X166430000Y-104680000D03*
X112890000Y-132660000D03*
X96200000Y-105870000D03*
X157530000Y-63620000D03*
X164790000Y-129400000D03*
X160630000Y-75710000D03*
X103490000Y-99820000D03*
X103050000Y-122610000D03*
X112660000Y-121450000D03*
X147990000Y-72040000D03*
X131780000Y-79990000D03*
X172160000Y-112890000D03*
X142180000Y-82680000D03*
X157830000Y-75420000D03*
X122160000Y-65130000D03*
X150590000Y-70090000D03*
X168390000Y-74060000D03*
X174660000Y-107530000D03*
X146750000Y-64950000D03*
X103710000Y-97660000D03*
X102300000Y-76900000D03*
X116790000Y-127220000D03*
X130950000Y-62520000D03*
X106680000Y-112900000D03*
X120030000Y-62160000D03*
X149370000Y-89970000D03*
X115640000Y-85730000D03*
X145930000Y-85200000D03*
X126370000Y-134160000D03*
X164290000Y-68750000D03*
X119110000Y-68040000D03*
X166720000Y-101050000D03*
X139690000Y-89970000D03*
X177440000Y-104460000D03*
X108560000Y-115510000D03*
X175770000Y-111130000D03*
X163430000Y-79990000D03*
X140540000Y-60740000D03*
X152920000Y-74990000D03*
X143580000Y-139790000D03*
X123890000Y-130060000D03*
X170350000Y-99180000D03*
X127990000Y-86950000D03*
X127080000Y-72960000D03*
X141580000Y-72680000D03*
X148470000Y-84760000D03*
X140440000Y-130290000D03*
X154090000Y-62160000D03*
X131260000Y-140150000D03*
X124780000Y-62510000D03*
X148440000Y-136980000D03*
X124640000Y-83950000D03*
X127130000Y-75500000D03*
X170060000Y-79960000D03*
X121450000Y-128840000D03*
X160350000Y-89910000D03*
X157730000Y-124520000D03*
X128110000Y-83390000D03*
X136340000Y-89970000D03*
X101250000Y-105980000D03*
X169840000Y-93040000D03*
X127950000Y-135620000D03*
X170120000Y-94970000D03*
X117150000Y-124740000D03*
X165920000Y-83390000D03*
X161630000Y-132090000D03*
X171600000Y-120940000D03*
X135930000Y-66230000D03*
X105450000Y-83670000D03*
X131190000Y-71250000D03*
X137070000Y-129230000D03*
X145940000Y-132930000D03*
X138360000Y-75570000D03*
X104630000Y-109100000D03*
X122840000Y-134000000D03*
X135470000Y-57910000D03*
X119200000Y-91370000D03*
X111000000Y-121580000D03*
X137310000Y-133060000D03*
X168700000Y-87420000D03*
X172160000Y-116080000D03*
X105090000Y-88340000D03*
X134270000Y-132820000D03*
X160850000Y-65830000D03*
X136200000Y-78590000D03*
X141170000Y-77570000D03*
X164750000Y-110680000D03*
X165450000Y-116960000D03*
X154640000Y-124750000D03*
X144940000Y-128580000D03*
X165590000Y-70470000D03*
X148960000Y-74350000D03*
X151760000Y-127920000D03*
X161560000Y-117390000D03*
%TD*%
D24*
%TO.N,+5V*%
X162528916Y-129231084D02*
X164028145Y-127731855D01*
X129908715Y-59250000D02*
X139041322Y-59250000D01*
X154308907Y-129231042D02*
X149714741Y-133825208D01*
X102200000Y-91388684D02*
X102200000Y-87451877D01*
X144326179Y-81569859D02*
X144546038Y-81350000D01*
X175910000Y-102421321D02*
X175910000Y-96803316D01*
X169361796Y-80994553D02*
X166651048Y-78283805D01*
X115703805Y-69286195D02*
X122792273Y-62197727D01*
X143036179Y-63244859D02*
X148859053Y-63244859D01*
X115703805Y-69308952D02*
X115703805Y-69286195D01*
X127538678Y-132490000D02*
X120411113Y-132490000D01*
X144546038Y-81350000D02*
X151766316Y-81350000D01*
X156906321Y-86490000D02*
X162165658Y-86490000D01*
X108118045Y-127398044D02*
X106728947Y-126008946D01*
X106728955Y-116938905D02*
X102994617Y-113204567D01*
X96860000Y-98394292D02*
X96860000Y-96728684D01*
X161245489Y-68375489D02*
X163467136Y-70597136D01*
X136352570Y-139360000D02*
X134408688Y-139360000D01*
X109237038Y-70462963D02*
X110391055Y-69308946D01*
X170030000Y-113242095D02*
X170030000Y-108301320D01*
X153836200Y-83419859D02*
G75*
G03*
X156906321Y-86490000I3070100J-41D01*
G01*
X106728950Y-120256193D02*
G75*
G03*
X106728948Y-126008945I2876370J-2876377D01*
G01*
X175909979Y-96803316D02*
G75*
G03*
X169361796Y-80994553I-22356979J16D01*
G01*
X153836200Y-83419859D02*
G75*
G03*
X151766316Y-81350000I-2069900J-41D01*
G01*
X108118043Y-127398046D02*
G75*
G03*
X120411113Y-132490000I12293057J12293046D01*
G01*
X157676147Y-129231096D02*
G75*
G03*
X154308907Y-129231042I-1683647J-1683604D01*
G01*
X143036200Y-63244859D02*
G75*
G03*
X139041322Y-59250000I-3994900J-41D01*
G01*
X115703778Y-69308979D02*
G75*
G03*
X110391055Y-69308946I-2656378J-2656321D01*
G01*
X166651073Y-78283830D02*
G75*
G03*
X164020000Y-84635658I6351727J-6351870D01*
G01*
X164028144Y-127731854D02*
G75*
G03*
X170030000Y-113242095I-14489744J14489754D01*
G01*
X172715141Y-105616200D02*
G75*
G03*
X170030000Y-108301320I-41J-2685100D01*
G01*
X157676222Y-129231021D02*
G75*
G03*
X162528916Y-129231084I2426378J2426321D01*
G01*
X130343800Y-135295141D02*
G75*
G03*
X127538678Y-132490000I-2805100J41D01*
G01*
X136352570Y-139359968D02*
G75*
G03*
X149714741Y-133825208I30J18896968D01*
G01*
X100664859Y-92923800D02*
G75*
G03*
X102200000Y-91388684I41J1535100D01*
G01*
X106728953Y-120256196D02*
G75*
G03*
X106728955Y-116938905I-1658643J1658646D01*
G01*
X161245507Y-68375471D02*
G75*
G03*
X148859053Y-63244859I-12386407J-12386429D01*
G01*
X109237038Y-70462963D02*
G75*
G03*
X102200000Y-87451877I16988922J-16988917D01*
G01*
X172715141Y-105616200D02*
G75*
G03*
X175910000Y-102421321I-41J3194900D01*
G01*
X100664859Y-92923800D02*
G75*
G03*
X96860000Y-96728684I41J-3804900D01*
G01*
X166651064Y-78283805D02*
G75*
G03*
X163467136Y-70597136I-10870564J5D01*
G01*
X96860009Y-98394292D02*
G75*
G03*
X102994618Y-113204566I20944891J-8D01*
G01*
X129908715Y-59250020D02*
G75*
G03*
X122792273Y-62197727I-15J-10064180D01*
G01*
X162165658Y-86490000D02*
G75*
G03*
X164020000Y-84635658I42J1854300D01*
G01*
X130343800Y-135295141D02*
G75*
G03*
X134408688Y-139360000I4064900J41D01*
G01*
%TO.N,/PWM*%
X103366272Y-112586273D02*
X108525012Y-117745013D01*
X144256038Y-68940000D02*
X144326179Y-68869859D01*
X126145551Y-62964449D02*
X118004991Y-71105008D01*
X140496179Y-63244859D02*
X140496179Y-65180135D01*
X169330000Y-112961959D02*
X169330000Y-106461314D01*
X102900000Y-87243796D02*
X102900000Y-93228682D01*
X149293187Y-133256812D02*
X155115004Y-127434995D01*
X120535584Y-131790000D02*
X129378675Y-131790000D01*
X138221283Y-60970000D02*
X130960577Y-60970000D01*
X163335067Y-127435015D02*
G75*
G03*
X169330000Y-112961959I-14472967J14473015D01*
G01*
X109584951Y-71105004D02*
G75*
G03*
X102900000Y-87243796I16138649J-16138796D01*
G01*
X100664859Y-95463800D02*
G75*
G03*
X102900000Y-93228682I41J2235100D01*
G01*
X113907779Y-71104978D02*
G75*
G03*
X118004991Y-71105008I2048621J2048578D01*
G01*
X132883800Y-135295141D02*
G75*
G03*
X129378675Y-131790000I-3505100J41D01*
G01*
X159472197Y-127435046D02*
G75*
G03*
X163335051Y-127434999I1931403J1931446D01*
G01*
X97559990Y-98568674D02*
G75*
G03*
X103366272Y-112586273I19823810J-26D01*
G01*
X140496100Y-65180135D02*
G75*
G03*
X144256038Y-68940000I3759900J35D01*
G01*
X159472222Y-127435021D02*
G75*
G03*
X155115004Y-127434995I-2178622J-2178579D01*
G01*
X108524978Y-122052221D02*
G75*
G03*
X108525012Y-117745013I-2153578J2153621D01*
G01*
X108525009Y-126815034D02*
G75*
G03*
X120535584Y-131790000I12010591J12010534D01*
G01*
X108525004Y-122052247D02*
G75*
G03*
X108524997Y-126815046I2381386J-2381403D01*
G01*
X172715141Y-103076200D02*
G75*
G03*
X169330000Y-106461314I-41J-3385100D01*
G01*
X130960577Y-60969991D02*
G75*
G03*
X126145551Y-62964449I23J-6809509D01*
G01*
X100664859Y-95463803D02*
G75*
G03*
X97560003Y-98568674I41J-3104897D01*
G01*
X136248682Y-138660037D02*
G75*
G03*
X149293187Y-133256812I18J18447637D01*
G01*
X140496200Y-63244859D02*
G75*
G03*
X138221283Y-60970000I-2274900J-41D01*
G01*
X113907802Y-71104955D02*
G75*
G03*
X109584950Y-71105003I-2161402J-2161445D01*
G01*
X132883800Y-135295141D02*
G75*
G03*
X136248682Y-138660000I3364900J41D01*
G01*
%TO.N,/2*%
X125930000Y-82186032D02*
X125930000Y-85555696D01*
X129086179Y-79029859D02*
X129066038Y-79050000D01*
X129064304Y-88690000D02*
X165948973Y-88690000D01*
X125930000Y-85555696D02*
G75*
G03*
X129064304Y-88690000I3134300J-4D01*
G01*
X172715200Y-95456179D02*
G75*
G03*
X165948973Y-88690000I-6766200J-21D01*
G01*
X129066038Y-79050000D02*
G75*
G03*
X125930000Y-82186032I-38J-3136000D01*
G01*
%TO.N,/3*%
X123320000Y-82256028D02*
X123320000Y-85552109D01*
X168630000Y-94858491D02*
X168630000Y-112946241D01*
X128887891Y-91120000D02*
X164891509Y-91120000D01*
X129086179Y-76489800D02*
G75*
G03*
X123320000Y-82256028I21J-5766200D01*
G01*
X164860400Y-122046843D02*
G75*
G03*
X168630000Y-112946241I-9100580J9100603D01*
G01*
X168630000Y-94858491D02*
G75*
G03*
X164891509Y-91120000I-3738500J-9D01*
G01*
X123320000Y-85552109D02*
G75*
G03*
X128887891Y-91120000I5567900J9D01*
G01*
%TO.N,/4*%
X107040000Y-94286162D02*
X107040000Y-101237146D01*
X114685843Y-119695843D02*
X121063973Y-126073973D01*
X133193770Y-131110000D02*
X136318684Y-131110000D01*
X133173770Y-131090000D02*
X133193770Y-131110000D01*
X112846027Y-90190000D02*
X111136162Y-90190000D01*
X140503800Y-135295141D02*
G75*
G03*
X136318684Y-131110000I-4185100J41D01*
G01*
X129086179Y-73949800D02*
G75*
G03*
X121280000Y-81756031I21J-7806200D01*
G01*
X112846027Y-90190000D02*
G75*
G03*
X121280000Y-81756031I3J8433970D01*
G01*
X111136162Y-90190000D02*
G75*
G03*
X107040000Y-94286162I-2J-4096160D01*
G01*
X121063954Y-126073992D02*
G75*
G03*
X133173770Y-131090000I12109746J12109792D01*
G01*
X107040004Y-101237146D02*
G75*
G03*
X114685844Y-119695842I26104536J-4D01*
G01*
%TO.N,/5*%
X112771944Y-89490000D02*
X110998126Y-89490000D01*
X120580000Y-81271970D02*
X120580000Y-81681944D01*
X124330172Y-73379828D02*
X123508815Y-74201185D01*
X106340000Y-94148126D02*
X106340000Y-101629866D01*
X110998126Y-89490000D02*
G75*
G03*
X106340000Y-94148126I-26J-4658100D01*
G01*
X106340003Y-101629866D02*
G75*
G03*
X113913161Y-119913110I25856427J-4D01*
G01*
X112771944Y-89490000D02*
G75*
G03*
X120580000Y-81681944I-4J7808060D01*
G01*
X123508830Y-74201200D02*
G75*
G03*
X120580000Y-81271970I7070770J-7070800D01*
G01*
X113913153Y-127440396D02*
G75*
G03*
X113913160Y-119913111I-3763633J3763646D01*
G01*
X129086179Y-71409842D02*
G75*
G03*
X124330172Y-73379828I-79J-6725858D01*
G01*
%TO.N,/6*%
X105640000Y-98108684D02*
X105640000Y-94018451D01*
X110868451Y-88790000D02*
X112468654Y-88790000D01*
X112468654Y-88790000D02*
G75*
G03*
X119880000Y-81378652I46J7411300D01*
G01*
X129086179Y-68869827D02*
G75*
G03*
X124227775Y-70882227I-79J-6870673D01*
G01*
X110868451Y-88790000D02*
G75*
G03*
X105640000Y-94018451I-1J-5228450D01*
G01*
X100664859Y-103083800D02*
G75*
G03*
X105640000Y-98108684I41J4975100D01*
G01*
X124227790Y-70882242D02*
G75*
G03*
X119880000Y-81378652I10496410J-10496458D01*
G01*
%TO.N,/7*%
X144326179Y-71409859D02*
X141041181Y-71409859D01*
X133060000Y-63428680D02*
X132876179Y-63244859D01*
X133060041Y-63428680D02*
G75*
G03*
X141041181Y-71409859I7981159J-20D01*
G01*
%TO.N,/8*%
X124110141Y-68169859D02*
X127811528Y-64468472D01*
X124090152Y-68169859D02*
X124110141Y-68169859D01*
X115766855Y-76493155D02*
X124090152Y-68169859D01*
X139950789Y-73949859D02*
X144326179Y-73949859D01*
X130980000Y-64979070D02*
G75*
G03*
X129690928Y-63690000I-1289100J-30D01*
G01*
X129690928Y-63690028D02*
G75*
G03*
X127811529Y-64468473I-28J-2657872D01*
G01*
X108519574Y-76493183D02*
G75*
G03*
X115766855Y-76493155I3623626J3623683D01*
G01*
X130980001Y-64979070D02*
G75*
G03*
X139950789Y-73949859I8970789J0D01*
G01*
%TO.N,/RX*%
X156336179Y-78339860D02*
X156336179Y-83419859D01*
X156336241Y-78339860D02*
G75*
G03*
X144326179Y-66329859I-12010041J-40D01*
G01*
%TO.N,/TX*%
X129086179Y-66329859D02*
X129106038Y-66310000D01*
%TD*%
%TA.AperFunction,Conductor*%
%TO.N,GND*%
G36*
X128016988Y-74803914D02*
G01*
X128057217Y-74830793D01*
X128214778Y-74988354D01*
X128214781Y-74988356D01*
X128214782Y-74988357D01*
X128400337Y-75118284D01*
X128443962Y-75172861D01*
X128451156Y-75242359D01*
X128419633Y-75304714D01*
X128400337Y-75321434D01*
X128214776Y-75451364D01*
X128047687Y-75618453D01*
X127916503Y-75805804D01*
X127861926Y-75849428D01*
X127842521Y-75855571D01*
X127398356Y-75956951D01*
X127398350Y-75956952D01*
X127398349Y-75956953D01*
X126932340Y-76100700D01*
X126478376Y-76278870D01*
X126038997Y-76490466D01*
X126038993Y-76490468D01*
X126038992Y-76490468D01*
X125694555Y-76689331D01*
X125635950Y-76723167D01*
X125616653Y-76734308D01*
X125213719Y-77009027D01*
X125075490Y-77119262D01*
X124832444Y-77313086D01*
X124474959Y-77644785D01*
X124143249Y-78002287D01*
X124090443Y-78068505D01*
X123839192Y-78383567D01*
X123839188Y-78383573D01*
X123839187Y-78383573D01*
X123666960Y-78636187D01*
X123584504Y-78757130D01*
X123564473Y-78786510D01*
X123320639Y-79208847D01*
X123320640Y-79208847D01*
X123293467Y-79265272D01*
X123109050Y-79648219D01*
X122930880Y-80102194D01*
X122787140Y-80568198D01*
X122774168Y-80625035D01*
X122678623Y-81043652D01*
X122648947Y-81240544D01*
X122605941Y-81525877D01*
X122569499Y-82012189D01*
X122569500Y-82168307D01*
X122569500Y-85788534D01*
X122604836Y-86260044D01*
X122630998Y-86433610D01*
X122675309Y-86727594D01*
X122716175Y-86906639D01*
X122780526Y-87188579D01*
X122780526Y-87188578D01*
X122827234Y-87340000D01*
X122919896Y-87640401D01*
X122919898Y-87640408D01*
X122919900Y-87640412D01*
X122975882Y-87783052D01*
X123092642Y-88080551D01*
X123235079Y-88376324D01*
X123297800Y-88506565D01*
X123534215Y-88916048D01*
X123534216Y-88916048D01*
X123749053Y-89231156D01*
X123800575Y-89306724D01*
X124095385Y-89676404D01*
X124198415Y-89787443D01*
X124416990Y-90023010D01*
X124596188Y-90189282D01*
X124763596Y-90344615D01*
X124763600Y-90344618D01*
X124763602Y-90344620D01*
X124894513Y-90449018D01*
X125131752Y-90638210D01*
X125133279Y-90639427D01*
X125488791Y-90881812D01*
X125523952Y-90905784D01*
X125523952Y-90905785D01*
X125933435Y-91142200D01*
X126055084Y-91200783D01*
X126359449Y-91347358D01*
X126642213Y-91458334D01*
X126799588Y-91520100D01*
X126799591Y-91520101D01*
X126799599Y-91520104D01*
X126950400Y-91566620D01*
X127251422Y-91659474D01*
X127251421Y-91659474D01*
X127500157Y-91716246D01*
X127712406Y-91764691D01*
X127932108Y-91797806D01*
X128179956Y-91835164D01*
X128651466Y-91870500D01*
X128651472Y-91870500D01*
X128800170Y-91870500D01*
X164812626Y-91870500D01*
X164889884Y-91870500D01*
X164893127Y-91870584D01*
X165037409Y-91878146D01*
X165200592Y-91886699D01*
X165207049Y-91887377D01*
X165509532Y-91935287D01*
X165515879Y-91936636D01*
X165811707Y-92015903D01*
X165817870Y-92017904D01*
X166092080Y-92123165D01*
X166103795Y-92127662D01*
X166109718Y-92130298D01*
X166382622Y-92269350D01*
X166388225Y-92272585D01*
X166629522Y-92429286D01*
X166645073Y-92439385D01*
X166650326Y-92443202D01*
X166888339Y-92635940D01*
X166893165Y-92640286D01*
X167109713Y-92856834D01*
X167114059Y-92861660D01*
X167306797Y-93099673D01*
X167310614Y-93104926D01*
X167332730Y-93138981D01*
X167462937Y-93339482D01*
X167477409Y-93361766D01*
X167480653Y-93367383D01*
X167598964Y-93599582D01*
X167619696Y-93640271D01*
X167622337Y-93646204D01*
X167732090Y-93932115D01*
X167734096Y-93938292D01*
X167813363Y-94234120D01*
X167814713Y-94240472D01*
X167862621Y-94542948D01*
X167863300Y-94549406D01*
X167879415Y-94856866D01*
X167879500Y-94860112D01*
X167879500Y-112946241D01*
X167862931Y-113578918D01*
X167862761Y-113582160D01*
X167813233Y-114211483D01*
X167812894Y-114214712D01*
X167730499Y-114840559D01*
X167729991Y-114843765D01*
X167614949Y-115464476D01*
X167614274Y-115467652D01*
X167466910Y-116081465D01*
X167466070Y-116084600D01*
X167286775Y-116689892D01*
X167285771Y-116692980D01*
X167075059Y-117288010D01*
X167073895Y-117291041D01*
X166832317Y-117874262D01*
X166830996Y-117877228D01*
X166559226Y-118447007D01*
X166557752Y-118449900D01*
X166256540Y-119004663D01*
X166254916Y-119007475D01*
X165925084Y-119545710D01*
X165923316Y-119548433D01*
X165565764Y-120068673D01*
X165563856Y-120071300D01*
X165179554Y-120572130D01*
X165177511Y-120574654D01*
X165104332Y-120660334D01*
X165045824Y-120698527D01*
X164999235Y-120703330D01*
X164860402Y-120691184D01*
X164860399Y-120691184D01*
X164624996Y-120711779D01*
X164624986Y-120711781D01*
X164396744Y-120772937D01*
X164396735Y-120772941D01*
X164182571Y-120872807D01*
X164182569Y-120872808D01*
X163988997Y-121008348D01*
X163821905Y-121175440D01*
X163686365Y-121369012D01*
X163686364Y-121369014D01*
X163586498Y-121583178D01*
X163586494Y-121583187D01*
X163525338Y-121811429D01*
X163525336Y-121811439D01*
X163504741Y-122046842D01*
X163504741Y-122046843D01*
X163525336Y-122282246D01*
X163525338Y-122282256D01*
X163552466Y-122383500D01*
X163550803Y-122453350D01*
X163511640Y-122511212D01*
X163447411Y-122538716D01*
X163400598Y-122535368D01*
X163299675Y-122508326D01*
X163299664Y-122508324D01*
X163064351Y-122487737D01*
X163064347Y-122487737D01*
X162829033Y-122508324D01*
X162829022Y-122508326D01*
X162600865Y-122569460D01*
X162600856Y-122569464D01*
X162386768Y-122669295D01*
X162302974Y-122727966D01*
X162931815Y-123356807D01*
X162922034Y-123358214D01*
X162791249Y-123417942D01*
X162682588Y-123512096D01*
X162604856Y-123633050D01*
X162581272Y-123713370D01*
X161949421Y-123081519D01*
X161890750Y-123165313D01*
X161790919Y-123379401D01*
X161790915Y-123379410D01*
X161729781Y-123607567D01*
X161729779Y-123607578D01*
X161709192Y-123842892D01*
X161709192Y-123842895D01*
X161729779Y-124078209D01*
X161729781Y-124078220D01*
X161756823Y-124179144D01*
X161755160Y-124248994D01*
X161715997Y-124306857D01*
X161651768Y-124334360D01*
X161604955Y-124331012D01*
X161503710Y-124303884D01*
X161503700Y-124303882D01*
X161268298Y-124283287D01*
X161268296Y-124283287D01*
X161032893Y-124303882D01*
X161032883Y-124303884D01*
X160804641Y-124365040D01*
X160804632Y-124365044D01*
X160590468Y-124464910D01*
X160590466Y-124464911D01*
X160396894Y-124600451D01*
X160229802Y-124767543D01*
X160094262Y-124961115D01*
X160094261Y-124961117D01*
X159994395Y-125175281D01*
X159994391Y-125175290D01*
X159933235Y-125403532D01*
X159933233Y-125403542D01*
X159912638Y-125638945D01*
X159912638Y-125638946D01*
X159933233Y-125874349D01*
X159933236Y-125874362D01*
X159960213Y-125975046D01*
X159958550Y-126044896D01*
X159919387Y-126102758D01*
X159855158Y-126130261D01*
X159808346Y-126126913D01*
X159707662Y-126099936D01*
X159707658Y-126099935D01*
X159707654Y-126099934D01*
X159707652Y-126099933D01*
X159707649Y-126099933D01*
X159472247Y-126079338D01*
X159472245Y-126079338D01*
X159236842Y-126099933D01*
X159236832Y-126099935D01*
X159025154Y-126156653D01*
X158955304Y-126154990D01*
X158936549Y-126147057D01*
X158936532Y-126147096D01*
X158935619Y-126146664D01*
X158934609Y-126146237D01*
X158933784Y-126145796D01*
X158930291Y-126144349D01*
X158585972Y-126001723D01*
X158225733Y-125892444D01*
X157856508Y-125818998D01*
X157856513Y-125818998D01*
X157770577Y-125810533D01*
X157481854Y-125782095D01*
X157481851Y-125782094D01*
X157481859Y-125782094D01*
X157105394Y-125782093D01*
X157105393Y-125782093D01*
X157105392Y-125782093D01*
X157032703Y-125789251D01*
X156730755Y-125818988D01*
X156730753Y-125818988D01*
X156361520Y-125892430D01*
X156195607Y-125942759D01*
X156001263Y-126001712D01*
X156001261Y-126001712D01*
X156001257Y-126001714D01*
X155653470Y-126145770D01*
X155653449Y-126145780D01*
X155321446Y-126323237D01*
X155008426Y-126532390D01*
X154717420Y-126771211D01*
X154687338Y-126801294D01*
X154646350Y-126842282D01*
X154646349Y-126842283D01*
X154584321Y-126904309D01*
X154558654Y-126929977D01*
X154528544Y-126960087D01*
X154528542Y-126960089D01*
X148762478Y-132726152D01*
X148204747Y-133260066D01*
X147624234Y-133769166D01*
X147022066Y-134252459D01*
X146399390Y-134709025D01*
X145757392Y-135137997D01*
X145097293Y-135538556D01*
X144420350Y-135909941D01*
X143727852Y-136251444D01*
X143021117Y-136562416D01*
X142301490Y-136842265D01*
X141570341Y-137090457D01*
X140829061Y-137306520D01*
X140079063Y-137490044D01*
X139321773Y-137640678D01*
X138573246Y-137755887D01*
X138558634Y-137758136D01*
X137791097Y-137842195D01*
X137020625Y-137892694D01*
X136251578Y-137909473D01*
X136246747Y-137909390D01*
X135959447Y-137893255D01*
X135952533Y-137892476D01*
X135670372Y-137844533D01*
X135663588Y-137842985D01*
X135425311Y-137774339D01*
X135388553Y-137763749D01*
X135381991Y-137761452D01*
X135374106Y-137758186D01*
X135117570Y-137651925D01*
X135111305Y-137648908D01*
X134860807Y-137510462D01*
X134854915Y-137506760D01*
X134738205Y-137423950D01*
X134621489Y-137341136D01*
X134616060Y-137336806D01*
X134534449Y-137263875D01*
X134402639Y-137146082D01*
X134397726Y-137141170D01*
X134207007Y-136927757D01*
X134202677Y-136922328D01*
X134037046Y-136688896D01*
X134033358Y-136683030D01*
X133894903Y-136432517D01*
X133891884Y-136426248D01*
X133856437Y-136340675D01*
X133848968Y-136271205D01*
X133880242Y-136208726D01*
X133883301Y-136205556D01*
X133922316Y-136166542D01*
X134052247Y-135980981D01*
X134106822Y-135937358D01*
X134176320Y-135930164D01*
X134238675Y-135961687D01*
X134255395Y-135980982D01*
X134385326Y-136166542D01*
X134552420Y-136333636D01*
X134649205Y-136401406D01*
X134745986Y-136469173D01*
X134745988Y-136469174D01*
X134745991Y-136469176D01*
X134960158Y-136569044D01*
X134960164Y-136569045D01*
X134960165Y-136569046D01*
X135015106Y-136583767D01*
X135188413Y-136630204D01*
X135364855Y-136645641D01*
X135423820Y-136650800D01*
X135423821Y-136650800D01*
X135423822Y-136650800D01*
X135482787Y-136645641D01*
X135659229Y-136630204D01*
X135887484Y-136569044D01*
X136101651Y-136469176D01*
X136295222Y-136333636D01*
X136462316Y-136166542D01*
X136592551Y-135980546D01*
X136647128Y-135936922D01*
X136716626Y-135929728D01*
X136778981Y-135961251D01*
X136795700Y-135980546D01*
X136925711Y-136166219D01*
X137092738Y-136333246D01*
X137286242Y-136468741D01*
X137500328Y-136568570D01*
X137500337Y-136568574D01*
X137713821Y-136625775D01*
X137713821Y-135730642D01*
X137821506Y-135779821D01*
X137928058Y-135795141D01*
X137999584Y-135795141D01*
X138106136Y-135779821D01*
X138213821Y-135730642D01*
X138213821Y-136625774D01*
X138427304Y-136568574D01*
X138427313Y-136568570D01*
X138641399Y-136468741D01*
X138834903Y-136333246D01*
X139001926Y-136166223D01*
X139131940Y-135980546D01*
X139186517Y-135936922D01*
X139256016Y-135929729D01*
X139318370Y-135961251D01*
X139335090Y-135980546D01*
X139465326Y-136166542D01*
X139632420Y-136333636D01*
X139729205Y-136401406D01*
X139825986Y-136469173D01*
X139825988Y-136469174D01*
X139825991Y-136469176D01*
X140040158Y-136569044D01*
X140040164Y-136569045D01*
X140040165Y-136569046D01*
X140095106Y-136583767D01*
X140268413Y-136630204D01*
X140444855Y-136645641D01*
X140503820Y-136650800D01*
X140503821Y-136650800D01*
X140503822Y-136650800D01*
X140562787Y-136645641D01*
X140739229Y-136630204D01*
X140967484Y-136569044D01*
X141181651Y-136469176D01*
X141375222Y-136333636D01*
X141542316Y-136166542D01*
X141677856Y-135972971D01*
X141777724Y-135758804D01*
X141838884Y-135530549D01*
X141859480Y-135295141D01*
X141838884Y-135059733D01*
X141777724Y-134831478D01*
X141677856Y-134617312D01*
X141672552Y-134609736D01*
X141542315Y-134423738D01*
X141375223Y-134256647D01*
X141375216Y-134256642D01*
X141181652Y-134121106D01*
X141181650Y-134121105D01*
X141156559Y-134109405D01*
X141104120Y-134063232D01*
X141089189Y-134029116D01*
X141030360Y-133809554D01*
X140882956Y-133404557D01*
X140838729Y-133309711D01*
X140700814Y-133013947D01*
X140494966Y-132657403D01*
X140485323Y-132640701D01*
X140463519Y-132609561D01*
X140238117Y-132287651D01*
X140238112Y-132287645D01*
X140238112Y-132287644D01*
X139961084Y-131957492D01*
X139791896Y-131788304D01*
X139656329Y-131652736D01*
X139656324Y-131652732D01*
X139656325Y-131652732D01*
X139395277Y-131433686D01*
X139326173Y-131375700D01*
X139326167Y-131375695D01*
X138973132Y-131128497D01*
X138818985Y-131039500D01*
X138599879Y-130912999D01*
X138537285Y-130883811D01*
X138209266Y-130730853D01*
X138209267Y-130730853D01*
X137956650Y-130638909D01*
X137804272Y-130583448D01*
X137804265Y-130583446D01*
X137804264Y-130583445D01*
X137534277Y-130511104D01*
X137387968Y-130471901D01*
X136963526Y-130397061D01*
X136585105Y-130363954D01*
X136534177Y-130359499D01*
X136534176Y-130359499D01*
X136318681Y-130359500D01*
X133359974Y-130359500D01*
X133334900Y-130356938D01*
X133327626Y-130355436D01*
X133252638Y-130339497D01*
X133251202Y-130339346D01*
X133245155Y-130338406D01*
X133239630Y-130337265D01*
X133169292Y-130339312D01*
X133166056Y-130339321D01*
X132418918Y-130322062D01*
X132416057Y-130321930D01*
X132040168Y-130295841D01*
X131664277Y-130269751D01*
X131661428Y-130269488D01*
X130912837Y-130182641D01*
X130910000Y-130182245D01*
X130166209Y-130060918D01*
X130163394Y-130060392D01*
X129426011Y-129904845D01*
X129423235Y-129904193D01*
X129036036Y-129803633D01*
X128693834Y-129714760D01*
X128691079Y-129713977D01*
X128665315Y-129705999D01*
X128331129Y-129602515D01*
X127971180Y-129491053D01*
X127968487Y-129490150D01*
X127259661Y-129234220D01*
X127256992Y-129233186D01*
X126560733Y-128944788D01*
X126558113Y-128943631D01*
X125875937Y-128623396D01*
X125873373Y-128622119D01*
X125206724Y-128270724D01*
X125204221Y-128269330D01*
X124554475Y-127887502D01*
X124552040Y-127885994D01*
X124532021Y-127872950D01*
X124229462Y-127675803D01*
X123920659Y-127474588D01*
X123918296Y-127472969D01*
X123306567Y-127032828D01*
X123304282Y-127031102D01*
X122713535Y-126563181D01*
X122711350Y-126561366D01*
X122142811Y-126066633D01*
X122140741Y-126064746D01*
X121595542Y-125544173D01*
X121538878Y-125487511D01*
X115983683Y-119932315D01*
X115950198Y-119870992D01*
X115950498Y-119866794D01*
X115915871Y-119858454D01*
X115890015Y-119838647D01*
X115216527Y-119165159D01*
X114558715Y-118482272D01*
X113926896Y-117775266D01*
X113321955Y-117045131D01*
X112744737Y-116292886D01*
X112196051Y-115519585D01*
X111676663Y-114726308D01*
X111187299Y-113914165D01*
X110728645Y-113084293D01*
X110301341Y-112237851D01*
X109905986Y-111376024D01*
X109543132Y-110500016D01*
X109213287Y-109611054D01*
X108916912Y-108710380D01*
X108654421Y-107799254D01*
X108426182Y-106878950D01*
X108390620Y-106708514D01*
X108337222Y-106452591D01*
X108342799Y-106382949D01*
X108385144Y-106327373D01*
X108450813Y-106303513D01*
X108518958Y-106318945D01*
X108567941Y-106368768D01*
X108578774Y-106396671D01*
X108717552Y-106941706D01*
X109017942Y-107963108D01*
X109355614Y-108972797D01*
X109730114Y-109969415D01*
X110140937Y-110951617D01*
X110587529Y-111918082D01*
X111069289Y-112867503D01*
X111585567Y-113798606D01*
X112135669Y-114710135D01*
X112718853Y-115600861D01*
X113334332Y-116469585D01*
X113981279Y-117315136D01*
X114658821Y-118136375D01*
X115366046Y-118932195D01*
X116067299Y-119665250D01*
X116099417Y-119727300D01*
X116099262Y-119728943D01*
X116130791Y-119735802D01*
X116157761Y-119755687D01*
X116728178Y-120309754D01*
X116865692Y-120443327D01*
X117656094Y-121156602D01*
X118472139Y-121840390D01*
X119312730Y-122493769D01*
X120176733Y-123115858D01*
X121062984Y-123705820D01*
X121970289Y-124262860D01*
X122897426Y-124786227D01*
X123843146Y-125275217D01*
X124806174Y-125729169D01*
X125785214Y-126147473D01*
X126778945Y-126529566D01*
X127786029Y-126874932D01*
X128805110Y-127183105D01*
X129834814Y-127453672D01*
X130873754Y-127686267D01*
X131920530Y-127880577D01*
X132973732Y-128036339D01*
X134031940Y-128153346D01*
X135093730Y-128231438D01*
X136157671Y-128270510D01*
X137222329Y-128270510D01*
X138286270Y-128231438D01*
X139348060Y-128153346D01*
X140406268Y-128036339D01*
X141459470Y-127880577D01*
X142506246Y-127686267D01*
X143545186Y-127453672D01*
X144574890Y-127183105D01*
X145593971Y-126874932D01*
X146601055Y-126529566D01*
X147594786Y-126147473D01*
X148573826Y-125729169D01*
X149536854Y-125275217D01*
X150482574Y-124786227D01*
X151409711Y-124262860D01*
X152317016Y-123705820D01*
X153203267Y-123115858D01*
X154067270Y-122493769D01*
X154907861Y-121840390D01*
X155723906Y-121156602D01*
X156514308Y-120443327D01*
X157278000Y-119701524D01*
X158013954Y-118932195D01*
X158721179Y-118136375D01*
X159398721Y-117315136D01*
X160045668Y-116469585D01*
X160661147Y-115600861D01*
X161244331Y-114710135D01*
X161794433Y-113798606D01*
X162310711Y-112867503D01*
X162382586Y-112725856D01*
X162792471Y-111918082D01*
X163239063Y-110951617D01*
X163649886Y-109969415D01*
X164024386Y-108972797D01*
X164362058Y-107963108D01*
X164662448Y-106941706D01*
X164925151Y-105909967D01*
X165149813Y-104869283D01*
X165336131Y-103821055D01*
X165483855Y-102766696D01*
X165592784Y-101707625D01*
X165662773Y-100645270D01*
X165693727Y-99581062D01*
X165685604Y-98516435D01*
X165638416Y-97452824D01*
X165552226Y-96391660D01*
X165427150Y-95334375D01*
X165353197Y-94859460D01*
X165353220Y-94859285D01*
X165341785Y-94785992D01*
X165320057Y-94646724D01*
X165234856Y-94330789D01*
X165234851Y-94330778D01*
X165234850Y-94330771D01*
X165115812Y-94026001D01*
X165115811Y-94025999D01*
X165115808Y-94025991D01*
X164964323Y-93735945D01*
X164782199Y-93464091D01*
X164571595Y-93213651D01*
X164454047Y-93101336D01*
X164335005Y-92987594D01*
X164335000Y-92987590D01*
X164075252Y-92788613D01*
X164075244Y-92788608D01*
X164075245Y-92788608D01*
X164075243Y-92788607D01*
X163795382Y-92619043D01*
X163498743Y-92480914D01*
X163188843Y-92375860D01*
X163188840Y-92375859D01*
X163188833Y-92375857D01*
X162869351Y-92305123D01*
X162544076Y-92269549D01*
X162544072Y-92269548D01*
X162380564Y-92269500D01*
X110999436Y-92269500D01*
X110987654Y-92269500D01*
X110987257Y-92269538D01*
X110835929Y-92269582D01*
X110835928Y-92269582D01*
X110835926Y-92269583D01*
X110709434Y-92283417D01*
X110510653Y-92305159D01*
X110510649Y-92305159D01*
X110191176Y-92375891D01*
X110191166Y-92375894D01*
X109881269Y-92480947D01*
X109881263Y-92480949D01*
X109584638Y-92619071D01*
X109304770Y-92788640D01*
X109304769Y-92788641D01*
X109045014Y-92987623D01*
X108808433Y-93213672D01*
X108795816Y-93228676D01*
X108597829Y-93464112D01*
X108475840Y-93646204D01*
X108415706Y-93735964D01*
X108264226Y-94026001D01*
X108264219Y-94026016D01*
X108145177Y-94330798D01*
X108059977Y-94646734D01*
X108041897Y-94762616D01*
X108041887Y-94762636D01*
X108037021Y-94793856D01*
X108007246Y-94857063D01*
X107948025Y-94894140D01*
X107878160Y-94893314D01*
X107819833Y-94854847D01*
X107791562Y-94790952D01*
X107790500Y-94774758D01*
X107790500Y-94287785D01*
X107790585Y-94284539D01*
X107792895Y-94240472D01*
X107808658Y-93939689D01*
X107809337Y-93933231D01*
X107817545Y-93881408D01*
X107863101Y-93593767D01*
X107864450Y-93587424D01*
X107953407Y-93255434D01*
X107955408Y-93249271D01*
X108078585Y-92928384D01*
X108081214Y-92922477D01*
X108237270Y-92616200D01*
X108240496Y-92610614D01*
X108427698Y-92322350D01*
X108431508Y-92317107D01*
X108469221Y-92270535D01*
X108647815Y-92049989D01*
X108652142Y-92045184D01*
X108895184Y-91802142D01*
X108899989Y-91797815D01*
X109167107Y-91581508D01*
X109172350Y-91577698D01*
X109460614Y-91390496D01*
X109466200Y-91387270D01*
X109772477Y-91231214D01*
X109778384Y-91228585D01*
X110099271Y-91105408D01*
X110105434Y-91103407D01*
X110437424Y-91014450D01*
X110443767Y-91013101D01*
X110783231Y-90959336D01*
X110789689Y-90958658D01*
X110847892Y-90955607D01*
X111134541Y-90940584D01*
X111137785Y-90940500D01*
X113134666Y-90940500D01*
X113448912Y-90920728D01*
X113710789Y-90904253D01*
X114283504Y-90831903D01*
X114283505Y-90831902D01*
X114283511Y-90831902D01*
X114850544Y-90723735D01*
X115409676Y-90580174D01*
X115743422Y-90471733D01*
X115958691Y-90401788D01*
X116313388Y-90261353D01*
X116495422Y-90189282D01*
X116495421Y-90189282D01*
X117017748Y-89943494D01*
X117523611Y-89665393D01*
X118011014Y-89356078D01*
X118478034Y-89016769D01*
X118922826Y-88648805D01*
X118922827Y-88648804D01*
X118922827Y-88648805D01*
X119343635Y-88253639D01*
X119738802Y-87832830D01*
X119738801Y-87832830D01*
X119738802Y-87832829D01*
X120106766Y-87388037D01*
X120112696Y-87379876D01*
X120446073Y-86921022D01*
X120446074Y-86921022D01*
X120755394Y-86433610D01*
X120755394Y-86433609D01*
X120775291Y-86397418D01*
X121033492Y-85927752D01*
X121279280Y-85405425D01*
X121279280Y-85405426D01*
X121485583Y-84884365D01*
X121491787Y-84868696D01*
X121491787Y-84868693D01*
X121491790Y-84868688D01*
X121574801Y-84613204D01*
X121670173Y-84319680D01*
X121813734Y-83760548D01*
X121921901Y-83193515D01*
X121924814Y-83170458D01*
X121994253Y-82620793D01*
X122017181Y-82256360D01*
X122030500Y-82044671D01*
X122030500Y-81756058D01*
X122035534Y-81615085D01*
X122048396Y-81254913D01*
X122048711Y-81250516D01*
X122102077Y-80754126D01*
X122102707Y-80749744D01*
X122110696Y-80705464D01*
X122191347Y-80258430D01*
X122192280Y-80254141D01*
X122315753Y-79770372D01*
X122316993Y-79766151D01*
X122474660Y-79292430D01*
X122476205Y-79288292D01*
X122667254Y-78827053D01*
X122669074Y-78823067D01*
X122892568Y-78376579D01*
X122894653Y-78372760D01*
X123149430Y-77943352D01*
X123151795Y-77939672D01*
X123436542Y-77529557D01*
X123439187Y-77526024D01*
X123569303Y-77364559D01*
X123752456Y-77137277D01*
X123755327Y-77133963D01*
X124095556Y-76768529D01*
X124098655Y-76765432D01*
X124099785Y-76764380D01*
X124464068Y-76425217D01*
X124467381Y-76422347D01*
X124856131Y-76109070D01*
X124859655Y-76106432D01*
X125269751Y-75821696D01*
X125273455Y-75819314D01*
X125702827Y-75564554D01*
X125706702Y-75562438D01*
X126153166Y-75338953D01*
X126157138Y-75337139D01*
X126618415Y-75146070D01*
X126622535Y-75144533D01*
X127096248Y-74986865D01*
X127100454Y-74985629D01*
X127584253Y-74862145D01*
X127588501Y-74861221D01*
X127947522Y-74796445D01*
X128016988Y-74803914D01*
G37*
%TD.AperFunction*%
%TA.AperFunction,Conductor*%
G36*
X132783710Y-131840501D02*
G01*
X133007168Y-131840500D01*
X133035766Y-131843843D01*
X133099271Y-131858893D01*
X133106049Y-131860500D01*
X133106058Y-131860500D01*
X133113222Y-131861338D01*
X133113215Y-131861397D01*
X133120716Y-131862163D01*
X133120722Y-131862104D01*
X133127910Y-131862733D01*
X133127913Y-131862732D01*
X133127914Y-131862733D01*
X133204668Y-131860500D01*
X136239806Y-131860500D01*
X136317158Y-131860500D01*
X136320200Y-131860575D01*
X136652298Y-131876889D01*
X136658346Y-131877483D01*
X136888394Y-131911607D01*
X136985735Y-131926046D01*
X136991697Y-131927231D01*
X137166358Y-131970981D01*
X137312753Y-132007651D01*
X137318574Y-132009416D01*
X137630203Y-132120919D01*
X137635808Y-132123241D01*
X137935016Y-132264756D01*
X137940368Y-132267616D01*
X138224246Y-132437767D01*
X138229308Y-132441149D01*
X138495143Y-132638307D01*
X138499849Y-132642169D01*
X138745082Y-132864435D01*
X138749377Y-132868730D01*
X138971648Y-133113971D01*
X138975501Y-133118665D01*
X139040257Y-133205979D01*
X139172655Y-133384500D01*
X139176038Y-133389562D01*
X139346190Y-133673446D01*
X139349060Y-133678815D01*
X139490561Y-133978000D01*
X139492890Y-133983624D01*
X139575150Y-134213530D01*
X139579200Y-134283282D01*
X139546080Y-134342983D01*
X139465329Y-134423735D01*
X139335090Y-134609736D01*
X139280513Y-134653360D01*
X139211014Y-134660553D01*
X139148660Y-134629031D01*
X139131940Y-134609735D01*
X139001934Y-134424067D01*
X139001929Y-134424061D01*
X138834903Y-134257035D01*
X138641399Y-134121540D01*
X138427313Y-134021711D01*
X138427307Y-134021708D01*
X138213821Y-133964505D01*
X138213821Y-134859639D01*
X138106136Y-134810461D01*
X137999584Y-134795141D01*
X137928058Y-134795141D01*
X137821506Y-134810461D01*
X137713821Y-134859639D01*
X137713821Y-133964505D01*
X137713820Y-133964505D01*
X137500334Y-134021708D01*
X137500328Y-134021711D01*
X137286243Y-134121540D01*
X137286241Y-134121541D01*
X137092747Y-134257027D01*
X137092741Y-134257032D01*
X136925712Y-134424061D01*
X136925711Y-134424063D01*
X136795701Y-134609736D01*
X136741124Y-134653360D01*
X136671625Y-134660553D01*
X136609271Y-134629031D01*
X136592551Y-134609735D01*
X136462315Y-134423738D01*
X136295223Y-134256647D01*
X136295216Y-134256642D01*
X136101655Y-134121108D01*
X136101651Y-134121106D01*
X136046376Y-134095331D01*
X135887484Y-134021238D01*
X135887480Y-134021237D01*
X135887476Y-134021235D01*
X135659234Y-133960079D01*
X135659224Y-133960077D01*
X135423822Y-133939482D01*
X135423820Y-133939482D01*
X135188417Y-133960077D01*
X135188407Y-133960079D01*
X134960165Y-134021235D01*
X134960156Y-134021239D01*
X134745992Y-134121105D01*
X134745990Y-134121106D01*
X134552418Y-134256646D01*
X134385326Y-134423738D01*
X134255396Y-134609299D01*
X134200819Y-134652924D01*
X134131321Y-134660118D01*
X134068966Y-134628595D01*
X134052246Y-134609299D01*
X133922315Y-134423738D01*
X133755223Y-134256647D01*
X133755216Y-134256642D01*
X133561652Y-134121106D01*
X133561645Y-134121102D01*
X133506380Y-134095331D01*
X133453941Y-134049158D01*
X133439519Y-134016883D01*
X133435098Y-134001343D01*
X133418013Y-133941294D01*
X133378617Y-133839600D01*
X133275868Y-133574366D01*
X133214215Y-133450548D01*
X133100471Y-133222115D01*
X132893321Y-132887552D01*
X132893319Y-132887549D01*
X132893317Y-132887546D01*
X132656197Y-132573545D01*
X132656181Y-132573526D01*
X132395572Y-132287651D01*
X132391085Y-132282729D01*
X132114614Y-132030691D01*
X132078334Y-131970981D01*
X132080095Y-131901133D01*
X132119339Y-131843326D01*
X132183606Y-131815911D01*
X132203550Y-131815173D01*
X132783710Y-131840501D01*
G37*
%TD.AperFunction*%
%TA.AperFunction,Conductor*%
G36*
X116300049Y-122375974D02*
G01*
X116322187Y-122393555D01*
X120496952Y-126568320D01*
X120496998Y-126568405D01*
X120731819Y-126803224D01*
X120809088Y-126880493D01*
X121384259Y-127407538D01*
X121981872Y-127908992D01*
X122600789Y-128383902D01*
X123239832Y-128831362D01*
X123897785Y-129250523D01*
X124573396Y-129640584D01*
X125080479Y-129904553D01*
X125265378Y-130000805D01*
X125972414Y-130330498D01*
X126693158Y-130629038D01*
X127160068Y-130798978D01*
X127216332Y-130840404D01*
X127241268Y-130905673D01*
X127226958Y-130974061D01*
X127177947Y-131023857D01*
X127117658Y-131039500D01*
X120535585Y-131039500D01*
X119787217Y-131022208D01*
X119784355Y-131022076D01*
X119039046Y-130970343D01*
X119036193Y-130970079D01*
X118294024Y-130883974D01*
X118291187Y-130883578D01*
X117553829Y-130763296D01*
X117551013Y-130762769D01*
X116819961Y-130608556D01*
X116817173Y-130607900D01*
X116094054Y-130420095D01*
X116091299Y-130419311D01*
X115377587Y-130198299D01*
X115374900Y-130197398D01*
X114672158Y-129943661D01*
X114669502Y-129942632D01*
X113979235Y-129656713D01*
X113976638Y-129655566D01*
X113300286Y-129338061D01*
X113297752Y-129336799D01*
X113230743Y-129301478D01*
X112636803Y-128988405D01*
X112634315Y-128987019D01*
X111990171Y-128608478D01*
X111987762Y-128606987D01*
X111645399Y-128383902D01*
X111361768Y-128199087D01*
X111359426Y-128197482D01*
X110998249Y-127937612D01*
X110752956Y-127761121D01*
X110750670Y-127759395D01*
X110693737Y-127714299D01*
X110165025Y-127295509D01*
X110162821Y-127293679D01*
X109616123Y-126817948D01*
X109599201Y-126803222D01*
X109597086Y-126801294D01*
X109553079Y-126759274D01*
X109057298Y-126285882D01*
X109053912Y-126282382D01*
X108862418Y-126068101D01*
X108858090Y-126062674D01*
X108692275Y-125828979D01*
X108688573Y-125823087D01*
X108636666Y-125729169D01*
X108549964Y-125572293D01*
X108546954Y-125566044D01*
X108437297Y-125301306D01*
X108435000Y-125294742D01*
X108355675Y-125019397D01*
X108354127Y-125012614D01*
X108341799Y-124940058D01*
X108306128Y-124730114D01*
X108305352Y-124723224D01*
X108289285Y-124437118D01*
X108289285Y-124430167D01*
X108305353Y-124144067D01*
X108306129Y-124137178D01*
X108354128Y-123854679D01*
X108355676Y-123847895D01*
X108417572Y-123633050D01*
X108435003Y-123572544D01*
X108437301Y-123565982D01*
X108461879Y-123506645D01*
X108473148Y-123479438D01*
X108516989Y-123425036D01*
X108576900Y-123403364D01*
X108760411Y-123387309D01*
X108861102Y-123360329D01*
X108930952Y-123361992D01*
X108988814Y-123401155D01*
X109016318Y-123465383D01*
X109012970Y-123512196D01*
X108985993Y-123612880D01*
X108985990Y-123612893D01*
X108965395Y-123848296D01*
X108965395Y-123848297D01*
X108985990Y-124083700D01*
X108985992Y-124083710D01*
X109047148Y-124311952D01*
X109047150Y-124311956D01*
X109047151Y-124311960D01*
X109127948Y-124485229D01*
X109147019Y-124526127D01*
X109147021Y-124526131D01*
X109226754Y-124640000D01*
X109282559Y-124719698D01*
X109449653Y-124886792D01*
X109502123Y-124923532D01*
X109643219Y-125022329D01*
X109643221Y-125022330D01*
X109643224Y-125022332D01*
X109857391Y-125122200D01*
X110085646Y-125183360D01*
X110273972Y-125199836D01*
X110321053Y-125203956D01*
X110321054Y-125203956D01*
X110321055Y-125203956D01*
X110360288Y-125200523D01*
X110556462Y-125183360D01*
X110657713Y-125156230D01*
X110727561Y-125157893D01*
X110785424Y-125197055D01*
X110812928Y-125261284D01*
X110809580Y-125308097D01*
X110782539Y-125409019D01*
X110782536Y-125409033D01*
X110761949Y-125644347D01*
X110761949Y-125644350D01*
X110782536Y-125879664D01*
X110782538Y-125879675D01*
X110843672Y-126107832D01*
X110843675Y-126107839D01*
X110943506Y-126321928D01*
X110943508Y-126321932D01*
X111002178Y-126405722D01*
X111002179Y-126405722D01*
X111634028Y-125773872D01*
X111657613Y-125854193D01*
X111735345Y-125975147D01*
X111844006Y-126069301D01*
X111974791Y-126129029D01*
X111984572Y-126130435D01*
X111355731Y-126759274D01*
X111439527Y-126817948D01*
X111653613Y-126917778D01*
X111653622Y-126917782D01*
X111881779Y-126978916D01*
X111881790Y-126978918D01*
X112117104Y-126999506D01*
X112117108Y-126999506D01*
X112352421Y-126978918D01*
X112352428Y-126978917D01*
X112453354Y-126951874D01*
X112523204Y-126953537D01*
X112581067Y-126992699D01*
X112608571Y-127056927D01*
X112605223Y-127103742D01*
X112578095Y-127204986D01*
X112578093Y-127204996D01*
X112557498Y-127440399D01*
X112557498Y-127440400D01*
X112578093Y-127675803D01*
X112578095Y-127675813D01*
X112639251Y-127904055D01*
X112639253Y-127904059D01*
X112639254Y-127904063D01*
X112727748Y-128093839D01*
X112739122Y-128118230D01*
X112739124Y-128118234D01*
X112818391Y-128231438D01*
X112874662Y-128311801D01*
X113041756Y-128478895D01*
X113138541Y-128546665D01*
X113235322Y-128614432D01*
X113235324Y-128614433D01*
X113235327Y-128614435D01*
X113449494Y-128714303D01*
X113677749Y-128775463D01*
X113851402Y-128790656D01*
X113913156Y-128796059D01*
X113913157Y-128796059D01*
X113913158Y-128796059D01*
X113974912Y-128790656D01*
X114148565Y-128775463D01*
X114376820Y-128714303D01*
X114590987Y-128614435D01*
X114784558Y-128478895D01*
X114951652Y-128311801D01*
X115087192Y-128118230D01*
X115187060Y-127904063D01*
X115248220Y-127675808D01*
X115268816Y-127440400D01*
X115248220Y-127204992D01*
X115219987Y-127099625D01*
X115221650Y-127029777D01*
X115234032Y-127002747D01*
X115452351Y-126646488D01*
X115669007Y-126221278D01*
X115696465Y-126154990D01*
X115851636Y-125780374D01*
X115946793Y-125487511D01*
X115999105Y-125326511D01*
X116110512Y-124862472D01*
X116185167Y-124391122D01*
X116185168Y-124391115D01*
X116222610Y-123915370D01*
X116222610Y-123438141D01*
X116185169Y-122962396D01*
X116185169Y-122962395D01*
X116160081Y-122803994D01*
X116112033Y-122500631D01*
X116120988Y-122431341D01*
X116165984Y-122377889D01*
X116232735Y-122357249D01*
X116300049Y-122375974D01*
G37*
%TD.AperFunction*%
%TA.AperFunction,Conductor*%
G36*
X165519271Y-123309697D02*
G01*
X165557512Y-123368173D01*
X165558067Y-123438041D01*
X165544826Y-123468379D01*
X165504256Y-123535237D01*
X165491577Y-123556133D01*
X165098723Y-124144079D01*
X165013635Y-124271421D01*
X164504948Y-124965181D01*
X163966484Y-125636092D01*
X163399268Y-126282877D01*
X162806240Y-126902358D01*
X162802332Y-126906099D01*
X162612602Y-127072493D01*
X162606161Y-127077436D01*
X162397479Y-127216876D01*
X162390448Y-127220935D01*
X162165349Y-127331946D01*
X162157848Y-127335053D01*
X161920181Y-127415733D01*
X161912339Y-127417834D01*
X161666176Y-127466802D01*
X161658127Y-127467862D01*
X161407688Y-127484280D01*
X161399569Y-127484280D01*
X161149117Y-127467868D01*
X161141068Y-127466809D01*
X160916421Y-127422127D01*
X160854510Y-127389742D01*
X160819935Y-127329027D01*
X160817084Y-127311326D01*
X160807309Y-127199589D01*
X160780329Y-127098897D01*
X160781992Y-127029047D01*
X160821155Y-126971185D01*
X160885383Y-126943681D01*
X160932197Y-126947029D01*
X161032889Y-126974009D01*
X161221215Y-126990485D01*
X161268296Y-126994605D01*
X161268297Y-126994605D01*
X161268298Y-126994605D01*
X161307531Y-126991172D01*
X161503705Y-126974009D01*
X161731960Y-126912849D01*
X161946127Y-126812981D01*
X162139698Y-126677441D01*
X162306792Y-126510347D01*
X162442332Y-126316776D01*
X162542200Y-126102609D01*
X162603360Y-125874354D01*
X162623956Y-125638946D01*
X162603360Y-125403538D01*
X162576230Y-125302286D01*
X162577893Y-125232437D01*
X162617056Y-125174575D01*
X162681284Y-125147071D01*
X162728098Y-125150419D01*
X162829022Y-125177461D01*
X162829033Y-125177463D01*
X163064347Y-125198051D01*
X163064351Y-125198051D01*
X163299664Y-125177463D01*
X163299675Y-125177461D01*
X163527832Y-125116327D01*
X163527841Y-125116323D01*
X163741927Y-125016494D01*
X163741931Y-125016492D01*
X163825722Y-124957820D01*
X163825722Y-124957819D01*
X163196882Y-124328980D01*
X163206664Y-124327574D01*
X163337449Y-124267846D01*
X163446110Y-124173692D01*
X163523842Y-124052738D01*
X163547425Y-123972418D01*
X164179274Y-124604267D01*
X164179275Y-124604267D01*
X164237947Y-124520476D01*
X164237949Y-124520472D01*
X164337778Y-124306386D01*
X164337782Y-124306377D01*
X164398916Y-124078220D01*
X164398918Y-124078209D01*
X164419506Y-123842895D01*
X164419506Y-123842892D01*
X164398918Y-123607578D01*
X164398917Y-123607571D01*
X164371874Y-123506645D01*
X164373537Y-123436795D01*
X164412699Y-123378932D01*
X164476928Y-123351428D01*
X164523739Y-123354775D01*
X164624992Y-123381906D01*
X164813318Y-123398382D01*
X164860399Y-123402502D01*
X164860400Y-123402502D01*
X164860401Y-123402502D01*
X164899634Y-123399069D01*
X165095808Y-123381906D01*
X165324063Y-123320746D01*
X165386413Y-123291671D01*
X165455487Y-123281179D01*
X165519271Y-123309697D01*
G37*
%TD.AperFunction*%
%TA.AperFunction,Conductor*%
G36*
X99766251Y-96475489D02*
G01*
X99772217Y-96481075D01*
X99793456Y-96502314D01*
X99793462Y-96502319D01*
X99979017Y-96632246D01*
X100022642Y-96686823D01*
X100029836Y-96756321D01*
X99998313Y-96818676D01*
X99979017Y-96835396D01*
X99793456Y-96965326D01*
X99626364Y-97132418D01*
X99490824Y-97325990D01*
X99490823Y-97325992D01*
X99421548Y-97474554D01*
X99394438Y-97532692D01*
X99390957Y-97540156D01*
X99390953Y-97540165D01*
X99329797Y-97768407D01*
X99329795Y-97768417D01*
X99309200Y-98003820D01*
X99309200Y-98003821D01*
X99329795Y-98239224D01*
X99329797Y-98239234D01*
X99390953Y-98467476D01*
X99390955Y-98467480D01*
X99390956Y-98467484D01*
X99473514Y-98644529D01*
X99490824Y-98681651D01*
X99490826Y-98681655D01*
X99626360Y-98875216D01*
X99626365Y-98875223D01*
X99793456Y-99042314D01*
X99793462Y-99042319D01*
X99979453Y-99172551D01*
X100023078Y-99227128D01*
X100030272Y-99296626D01*
X99998749Y-99358981D01*
X99979454Y-99375701D01*
X99793781Y-99505711D01*
X99793779Y-99505712D01*
X99626750Y-99672741D01*
X99626745Y-99672747D01*
X99491259Y-99866241D01*
X99491258Y-99866243D01*
X99391429Y-100080328D01*
X99391426Y-100080334D01*
X99334223Y-100293820D01*
X99334223Y-100293821D01*
X100231173Y-100293821D01*
X100205366Y-100333977D01*
X100164859Y-100471932D01*
X100164859Y-100615710D01*
X100205366Y-100753665D01*
X100231173Y-100793821D01*
X99334223Y-100793821D01*
X99391426Y-101007307D01*
X99391429Y-101007313D01*
X99491258Y-101221399D01*
X99626753Y-101414903D01*
X99793776Y-101581926D01*
X99979454Y-101711940D01*
X100023078Y-101766517D01*
X100030271Y-101836016D01*
X99998749Y-101898370D01*
X99979454Y-101915090D01*
X99793453Y-102045329D01*
X99626364Y-102212418D01*
X99490824Y-102405990D01*
X99490823Y-102405992D01*
X99398618Y-102603726D01*
X99394521Y-102612514D01*
X99390957Y-102620156D01*
X99390953Y-102620165D01*
X99329797Y-102848407D01*
X99329795Y-102848417D01*
X99309200Y-103083820D01*
X99309200Y-103083821D01*
X99329795Y-103319224D01*
X99329797Y-103319234D01*
X99390953Y-103547476D01*
X99390955Y-103547480D01*
X99390956Y-103547484D01*
X99487260Y-103754009D01*
X99490824Y-103761651D01*
X99490826Y-103761655D01*
X99532419Y-103821055D01*
X99626364Y-103955222D01*
X99793458Y-104122316D01*
X99886929Y-104187765D01*
X99987024Y-104257853D01*
X99987026Y-104257854D01*
X99987029Y-104257856D01*
X100201196Y-104357724D01*
X100429451Y-104418884D01*
X100617777Y-104435360D01*
X100664858Y-104439480D01*
X100664859Y-104439480D01*
X100664860Y-104439480D01*
X100704093Y-104436047D01*
X100900267Y-104418884D01*
X101128522Y-104357724D01*
X101342689Y-104257856D01*
X101536260Y-104122316D01*
X101703354Y-103955222D01*
X101838894Y-103761651D01*
X101838898Y-103761642D01*
X101841602Y-103756960D01*
X101843051Y-103757796D01*
X101884196Y-103711055D01*
X101921469Y-103695317D01*
X102107493Y-103650659D01*
X102220226Y-103623596D01*
X102648122Y-103484566D01*
X102648127Y-103484564D01*
X103063801Y-103312389D01*
X103063805Y-103312386D01*
X103063812Y-103312384D01*
X103464681Y-103108133D01*
X103516827Y-103076178D01*
X103848309Y-102873048D01*
X103848313Y-102873045D01*
X103848313Y-102873046D01*
X104212307Y-102608590D01*
X104449522Y-102405990D01*
X104554429Y-102316392D01*
X104825497Y-102045326D01*
X104872570Y-101998254D01*
X105164772Y-101656130D01*
X105223955Y-101574672D01*
X105365183Y-101380287D01*
X105420512Y-101337623D01*
X105490125Y-101331644D01*
X105551920Y-101364250D01*
X105586277Y-101425088D01*
X105589500Y-101453174D01*
X105589500Y-101675120D01*
X105589515Y-101675634D01*
X105589515Y-102127501D01*
X105626727Y-103122016D01*
X105701099Y-104114443D01*
X105812526Y-105103396D01*
X105960855Y-106087491D01*
X106145875Y-107065351D01*
X106367330Y-108035609D01*
X106624909Y-108996909D01*
X106918252Y-109947905D01*
X107246949Y-110887269D01*
X107461692Y-111434425D01*
X107610540Y-111813683D01*
X108008516Y-112725856D01*
X108440321Y-113622509D01*
X108905351Y-114502390D01*
X109402956Y-115364268D01*
X109932439Y-116206937D01*
X110493061Y-117029219D01*
X111084036Y-117829963D01*
X111704539Y-118608051D01*
X112353702Y-119362392D01*
X113030616Y-120091934D01*
X113326699Y-120388017D01*
X113382476Y-120443795D01*
X113650130Y-120735887D01*
X113653579Y-120739997D01*
X113859492Y-121008348D01*
X113893106Y-121052155D01*
X113896210Y-121056588D01*
X114107614Y-121388428D01*
X114110320Y-121393114D01*
X114285580Y-121729785D01*
X114291992Y-121742101D01*
X114294276Y-121747001D01*
X114420711Y-122052243D01*
X114444841Y-122110497D01*
X114446691Y-122115582D01*
X114565006Y-122490826D01*
X114566407Y-122496053D01*
X114651564Y-122880177D01*
X114652503Y-122885503D01*
X114662627Y-122962396D01*
X114703858Y-123275581D01*
X114704330Y-123280972D01*
X114721491Y-123674048D01*
X114721491Y-123679459D01*
X114704329Y-124072535D01*
X114703857Y-124077926D01*
X114652503Y-124467998D01*
X114651563Y-124473327D01*
X114566403Y-124857456D01*
X114565002Y-124862683D01*
X114446690Y-125237921D01*
X114444839Y-125243006D01*
X114294273Y-125606505D01*
X114291986Y-125611409D01*
X114110315Y-125960396D01*
X114107609Y-125965083D01*
X114065565Y-126031077D01*
X114012942Y-126077041D01*
X113950180Y-126087979D01*
X113913162Y-126084741D01*
X113913156Y-126084741D01*
X113677753Y-126105336D01*
X113677743Y-126105338D01*
X113576499Y-126132466D01*
X113506649Y-126130803D01*
X113448786Y-126091640D01*
X113421283Y-126027411D01*
X113424631Y-125980597D01*
X113451674Y-125879671D01*
X113451675Y-125879664D01*
X113472263Y-125644350D01*
X113472263Y-125644347D01*
X113451675Y-125409033D01*
X113451673Y-125409022D01*
X113390539Y-125180865D01*
X113390535Y-125180856D01*
X113290706Y-124966772D01*
X113290705Y-124966770D01*
X113232031Y-124882975D01*
X113232031Y-124882974D01*
X112600182Y-125514824D01*
X112576599Y-125434505D01*
X112498867Y-125313551D01*
X112390206Y-125219397D01*
X112259421Y-125159669D01*
X112249638Y-125158262D01*
X112878479Y-124529422D01*
X112878479Y-124529421D01*
X112794689Y-124470751D01*
X112794685Y-124470749D01*
X112580598Y-124370919D01*
X112580589Y-124370915D01*
X112352432Y-124309781D01*
X112352421Y-124309779D01*
X112117108Y-124289192D01*
X112117104Y-124289192D01*
X111881790Y-124309779D01*
X111881776Y-124309782D01*
X111780854Y-124336823D01*
X111711004Y-124335160D01*
X111653142Y-124295997D01*
X111625639Y-124231768D01*
X111628986Y-124184957D01*
X111656117Y-124083705D01*
X111676713Y-123848297D01*
X111656117Y-123612889D01*
X111603882Y-123417942D01*
X111594959Y-123384641D01*
X111594958Y-123384640D01*
X111594957Y-123384634D01*
X111495089Y-123170468D01*
X111491480Y-123165313D01*
X111359548Y-122976894D01*
X111192456Y-122809803D01*
X111192449Y-122809798D01*
X110998888Y-122674264D01*
X110998884Y-122674262D01*
X110894303Y-122625495D01*
X110784717Y-122574394D01*
X110784713Y-122574393D01*
X110784709Y-122574391D01*
X110556467Y-122513235D01*
X110556457Y-122513233D01*
X110321055Y-122492638D01*
X110321053Y-122492638D01*
X110085650Y-122513233D01*
X110085637Y-122513236D01*
X109984953Y-122540213D01*
X109915103Y-122538550D01*
X109857241Y-122499386D01*
X109829738Y-122435158D01*
X109833086Y-122388345D01*
X109841418Y-122357249D01*
X109860066Y-122287654D01*
X109880662Y-122052246D01*
X109860066Y-121816838D01*
X109802494Y-121601973D01*
X109804157Y-121532124D01*
X109807700Y-121522448D01*
X109949941Y-121179058D01*
X110058216Y-120822133D01*
X110130985Y-120456314D01*
X110167547Y-120085123D01*
X110167550Y-119712137D01*
X110130994Y-119340946D01*
X110058231Y-118975125D01*
X109949961Y-118618199D01*
X109807227Y-118273603D01*
X109631405Y-117944657D01*
X109585374Y-117875766D01*
X109424190Y-117634532D01*
X109424185Y-117634525D01*
X109288826Y-117469589D01*
X109187568Y-117346204D01*
X109124793Y-117283429D01*
X109124778Y-117283411D01*
X103896955Y-112055588D01*
X103321499Y-111454462D01*
X102772813Y-110828806D01*
X102251939Y-110179812D01*
X101759870Y-109508716D01*
X101297542Y-108816795D01*
X100865835Y-108105365D01*
X100465572Y-107375782D01*
X100097513Y-106629434D01*
X99762360Y-105867742D01*
X99460751Y-105092156D01*
X99193260Y-104304152D01*
X98960396Y-103505230D01*
X98762602Y-102696911D01*
X98600254Y-101880733D01*
X98473663Y-101058251D01*
X98383068Y-100231030D01*
X98328643Y-99400644D01*
X98324031Y-99189270D01*
X98310548Y-98571391D01*
X98310646Y-98566308D01*
X98313664Y-98516435D01*
X98325172Y-98326205D01*
X98327445Y-98288638D01*
X98328348Y-98281199D01*
X98378244Y-98008932D01*
X98380032Y-98001672D01*
X98462393Y-97737373D01*
X98465037Y-97730402D01*
X98578654Y-97477958D01*
X98582123Y-97471350D01*
X98725336Y-97234447D01*
X98729577Y-97228303D01*
X98900301Y-97010389D01*
X98905246Y-97004808D01*
X99100990Y-96809063D01*
X99106581Y-96804109D01*
X99324493Y-96633384D01*
X99330642Y-96629140D01*
X99567540Y-96485928D01*
X99574160Y-96482453D01*
X99633647Y-96455680D01*
X99702855Y-96446117D01*
X99766251Y-96475489D01*
G37*
%TD.AperFunction*%
%TA.AperFunction,Conductor*%
G36*
X130420522Y-67025698D02*
G01*
X130455936Y-67085927D01*
X130457470Y-67092877D01*
X130458976Y-67100770D01*
X130458976Y-67100772D01*
X130610927Y-67692581D01*
X130665954Y-67861935D01*
X130799739Y-68273684D01*
X130905789Y-68541536D01*
X131024665Y-68841784D01*
X131024665Y-68841783D01*
X131284819Y-69394638D01*
X131579173Y-69930066D01*
X131906566Y-70445955D01*
X132265706Y-70940269D01*
X132655176Y-71411057D01*
X132655177Y-71411058D01*
X132655176Y-71411058D01*
X133073438Y-71856461D01*
X133518841Y-72274723D01*
X133518841Y-72274722D01*
X133518842Y-72274723D01*
X133989627Y-72664190D01*
X133989627Y-72664191D01*
X133996154Y-72668933D01*
X134483944Y-73023333D01*
X134999833Y-73350727D01*
X135535261Y-73645081D01*
X135805948Y-73772456D01*
X136088115Y-73905234D01*
X136221145Y-73957904D01*
X136656215Y-74130161D01*
X137204255Y-74308230D01*
X137237312Y-74318971D01*
X137237313Y-74318972D01*
X137829127Y-74470924D01*
X138429301Y-74585413D01*
X138429306Y-74585413D01*
X138429308Y-74585414D01*
X139035496Y-74661993D01*
X139312677Y-74679432D01*
X139645290Y-74700359D01*
X139645296Y-74700359D01*
X139863068Y-74700359D01*
X143138478Y-74700359D01*
X143205517Y-74720044D01*
X143240052Y-74753235D01*
X143287684Y-74821260D01*
X143454776Y-74988352D01*
X143454782Y-74988357D01*
X143640337Y-75118284D01*
X143683962Y-75172861D01*
X143691156Y-75242359D01*
X143659633Y-75304714D01*
X143640337Y-75321434D01*
X143454776Y-75451364D01*
X143287684Y-75618456D01*
X143152144Y-75812028D01*
X143152143Y-75812030D01*
X143052277Y-76026194D01*
X143052273Y-76026203D01*
X142991117Y-76254445D01*
X142991115Y-76254455D01*
X142970520Y-76489858D01*
X142970520Y-76489859D01*
X142991115Y-76725262D01*
X142991117Y-76725272D01*
X143052273Y-76953514D01*
X143052275Y-76953518D01*
X143052276Y-76953522D01*
X143133618Y-77127959D01*
X143152144Y-77167689D01*
X143152146Y-77167693D01*
X143242853Y-77297235D01*
X143287684Y-77361260D01*
X143454778Y-77528354D01*
X143621059Y-77644785D01*
X143640773Y-77658589D01*
X143684397Y-77713166D01*
X143691590Y-77782665D01*
X143660068Y-77845019D01*
X143640772Y-77861739D01*
X143564805Y-77914931D01*
X143564804Y-77914931D01*
X144193645Y-78543772D01*
X144183864Y-78545179D01*
X144053079Y-78604907D01*
X143944418Y-78699061D01*
X143866686Y-78820015D01*
X143843102Y-78900335D01*
X143211251Y-78268484D01*
X143152580Y-78352278D01*
X143052749Y-78566366D01*
X143052745Y-78566375D01*
X142991611Y-78794532D01*
X142991609Y-78794543D01*
X142971022Y-79029857D01*
X142971022Y-79029860D01*
X142991609Y-79265174D01*
X142991611Y-79265185D01*
X143052745Y-79493342D01*
X143052749Y-79493351D01*
X143152579Y-79707438D01*
X143152581Y-79707442D01*
X143211251Y-79791232D01*
X143211252Y-79791232D01*
X143843102Y-79159382D01*
X143866686Y-79239703D01*
X143944418Y-79360657D01*
X144053079Y-79454811D01*
X144183864Y-79514539D01*
X144193645Y-79515945D01*
X143564804Y-80144784D01*
X143640773Y-80197978D01*
X143684398Y-80252555D01*
X143691592Y-80322053D01*
X143660069Y-80384408D01*
X143640774Y-80401128D01*
X143454773Y-80531367D01*
X143287684Y-80698456D01*
X143152144Y-80892028D01*
X143152143Y-80892030D01*
X143052277Y-81106194D01*
X143052273Y-81106203D01*
X142991117Y-81334445D01*
X142991115Y-81334455D01*
X142970520Y-81569858D01*
X142970520Y-81569859D01*
X142991115Y-81805262D01*
X142991117Y-81805272D01*
X143052273Y-82033514D01*
X143052275Y-82033518D01*
X143052276Y-82033522D01*
X143116894Y-82172096D01*
X143152144Y-82247689D01*
X143152146Y-82247693D01*
X143260460Y-82402380D01*
X143287684Y-82441260D01*
X143454778Y-82608354D01*
X143551563Y-82676124D01*
X143648344Y-82743891D01*
X143648346Y-82743892D01*
X143648349Y-82743894D01*
X143862516Y-82843762D01*
X144090771Y-82904922D01*
X144279097Y-82921398D01*
X144326178Y-82925518D01*
X144326179Y-82925518D01*
X144326180Y-82925518D01*
X144365413Y-82922085D01*
X144561587Y-82904922D01*
X144789842Y-82843762D01*
X145004009Y-82743894D01*
X145197580Y-82608354D01*
X145364674Y-82441260D01*
X145500214Y-82247689D01*
X145535464Y-82172096D01*
X145581636Y-82119656D01*
X145647846Y-82100500D01*
X150321279Y-82100500D01*
X150388318Y-82120185D01*
X150434073Y-82172989D01*
X150444017Y-82242147D01*
X150414992Y-82305703D01*
X150408960Y-82312181D01*
X150297684Y-82423456D01*
X150162144Y-82617028D01*
X150162143Y-82617030D01*
X150062277Y-82831194D01*
X150062273Y-82831203D01*
X150001117Y-83059445D01*
X150001115Y-83059455D01*
X149985679Y-83235893D01*
X149985679Y-83603825D01*
X150001115Y-83780262D01*
X150001117Y-83780272D01*
X150062273Y-84008514D01*
X150062275Y-84008518D01*
X150062276Y-84008522D01*
X150086179Y-84059781D01*
X150162143Y-84222687D01*
X150162144Y-84222689D01*
X150297684Y-84416261D01*
X150394925Y-84513501D01*
X150464778Y-84583354D01*
X150561563Y-84651124D01*
X150658344Y-84718891D01*
X150658346Y-84718892D01*
X150658349Y-84718894D01*
X150872516Y-84818762D01*
X150872522Y-84818763D01*
X150872523Y-84818764D01*
X150911535Y-84829217D01*
X151100771Y-84879922D01*
X151289097Y-84896398D01*
X151336178Y-84900518D01*
X151336179Y-84900518D01*
X151336180Y-84900518D01*
X151375413Y-84897085D01*
X151571587Y-84879922D01*
X151799842Y-84818762D01*
X152014008Y-84718894D01*
X152207580Y-84583354D01*
X152374674Y-84416260D01*
X152484605Y-84259260D01*
X152539180Y-84215637D01*
X152608679Y-84208443D01*
X152671034Y-84239965D01*
X152687750Y-84259257D01*
X152730060Y-84319682D01*
X152797685Y-84416262D01*
X152894925Y-84513501D01*
X152964778Y-84583354D01*
X153061563Y-84651124D01*
X153158344Y-84718891D01*
X153158346Y-84718892D01*
X153158349Y-84718894D01*
X153301328Y-84785566D01*
X153353767Y-84831737D01*
X153363480Y-84850488D01*
X153406818Y-84955115D01*
X153448338Y-85055358D01*
X153487632Y-85128873D01*
X153625297Y-85386429D01*
X153833852Y-85698558D01*
X153833855Y-85698562D01*
X153833856Y-85698563D01*
X154072003Y-85988748D01*
X154205743Y-86122488D01*
X154337440Y-86254185D01*
X154627622Y-86492333D01*
X154939750Y-86700890D01*
X154939759Y-86700895D01*
X154939761Y-86700896D01*
X155270809Y-86877845D01*
X155270811Y-86877845D01*
X155270817Y-86877849D01*
X155617635Y-87021505D01*
X155976864Y-87130475D01*
X156345044Y-87203709D01*
X156718630Y-87240502D01*
X156906326Y-87240500D01*
X162165641Y-87240500D01*
X162311928Y-87240503D01*
X162602662Y-87207751D01*
X162602667Y-87207749D01*
X162602674Y-87207749D01*
X162809039Y-87160650D01*
X162887901Y-87142652D01*
X163164057Y-87046024D01*
X163427658Y-86919084D01*
X163675388Y-86763427D01*
X163753814Y-86700885D01*
X163904124Y-86581018D01*
X163904126Y-86581015D01*
X163904131Y-86581012D01*
X164111012Y-86374131D01*
X164144913Y-86331621D01*
X164293416Y-86145402D01*
X164293417Y-86145400D01*
X164293427Y-86145388D01*
X164449084Y-85897658D01*
X164576024Y-85634057D01*
X164672652Y-85357901D01*
X164690650Y-85279039D01*
X164737749Y-85072674D01*
X164737749Y-85072667D01*
X164737751Y-85072662D01*
X164770503Y-84781928D01*
X164770500Y-84635654D01*
X164772212Y-84583353D01*
X164788063Y-84099264D01*
X164788328Y-84095215D01*
X164840737Y-83563122D01*
X164841265Y-83559121D01*
X164897172Y-83220508D01*
X164928362Y-83031595D01*
X164929152Y-83027629D01*
X164957764Y-82904922D01*
X165050568Y-82506918D01*
X165051606Y-82503044D01*
X165206825Y-81991374D01*
X165208107Y-81987594D01*
X165396464Y-81487153D01*
X165398001Y-81483444D01*
X165618670Y-80996428D01*
X165620465Y-80992789D01*
X165644658Y-80947529D01*
X165872505Y-80521262D01*
X165874522Y-80517769D01*
X166156877Y-80063717D01*
X166159115Y-80060369D01*
X166182801Y-80027316D01*
X166234053Y-79955793D01*
X166289102Y-79912768D01*
X166358675Y-79906334D01*
X166386357Y-79915229D01*
X166508588Y-79971051D01*
X166508589Y-79971051D01*
X166508591Y-79971052D01*
X166651048Y-79991533D01*
X166793505Y-79971052D01*
X166924421Y-79911264D01*
X166971104Y-79873645D01*
X166987632Y-79857116D01*
X167048951Y-79823632D01*
X167118642Y-79828615D01*
X167162993Y-79857117D01*
X168772997Y-81467121D01*
X168773007Y-81467132D01*
X168831059Y-81525183D01*
X169389460Y-82107157D01*
X169449425Y-82169654D01*
X170040580Y-82839073D01*
X170603567Y-83532350D01*
X171137422Y-84248300D01*
X171641236Y-84985700D01*
X172114145Y-85743290D01*
X172555344Y-86519776D01*
X172964077Y-87313831D01*
X173339647Y-88124099D01*
X173681412Y-88949195D01*
X173922263Y-89606231D01*
X173988788Y-89787710D01*
X174261250Y-90638210D01*
X174498332Y-91499243D01*
X174699629Y-92369339D01*
X174864798Y-93247009D01*
X174993556Y-94130756D01*
X175085683Y-95019068D01*
X175141023Y-95910429D01*
X175159500Y-96804352D01*
X175159500Y-102419436D01*
X175159387Y-102423181D01*
X175141901Y-102712206D01*
X175140998Y-102719645D01*
X175089143Y-103002602D01*
X175087350Y-103009878D01*
X175001770Y-103284513D01*
X174999112Y-103291519D01*
X174881048Y-103553848D01*
X174877565Y-103560483D01*
X174728745Y-103806663D01*
X174724488Y-103812830D01*
X174547076Y-104039280D01*
X174542107Y-104044890D01*
X174338700Y-104248297D01*
X174333091Y-104253266D01*
X174106643Y-104430678D01*
X174100473Y-104434937D01*
X174087738Y-104442634D01*
X174020183Y-104460467D01*
X173953710Y-104438946D01*
X173924326Y-104410823D01*
X173922687Y-104408633D01*
X173807472Y-104322383D01*
X173807470Y-104322382D01*
X173807469Y-104322381D01*
X173676058Y-104273368D01*
X173620124Y-104231497D01*
X173595707Y-104166032D01*
X173610559Y-104097759D01*
X173631704Y-104069511D01*
X173753636Y-103947580D01*
X173889176Y-103754009D01*
X173989044Y-103539842D01*
X174050204Y-103311587D01*
X174070800Y-103076179D01*
X174050204Y-102840771D01*
X173989044Y-102612516D01*
X173889176Y-102398350D01*
X173886539Y-102394583D01*
X173753635Y-102204776D01*
X173586543Y-102037685D01*
X173586537Y-102037680D01*
X173400983Y-101907754D01*
X173357358Y-101853177D01*
X173350164Y-101783679D01*
X173381687Y-101721324D01*
X173400983Y-101704604D01*
X173470215Y-101656127D01*
X173586542Y-101574674D01*
X173753636Y-101407580D01*
X173889176Y-101214009D01*
X173989044Y-100999842D01*
X174050204Y-100771587D01*
X174070800Y-100536179D01*
X174050204Y-100300771D01*
X173989044Y-100072516D01*
X173889176Y-99858350D01*
X173753636Y-99664778D01*
X173753635Y-99664776D01*
X173586543Y-99497685D01*
X173586542Y-99497684D01*
X173400546Y-99367448D01*
X173356922Y-99312871D01*
X173349729Y-99243372D01*
X173381251Y-99181018D01*
X173400546Y-99164298D01*
X173586223Y-99034284D01*
X173753246Y-98867261D01*
X173888741Y-98673757D01*
X173988570Y-98459671D01*
X173988573Y-98459665D01*
X174045777Y-98246179D01*
X173148827Y-98246179D01*
X173174634Y-98206023D01*
X173215141Y-98068068D01*
X173215141Y-97924290D01*
X173174634Y-97786335D01*
X173148827Y-97746179D01*
X174045777Y-97746179D01*
X174045776Y-97746178D01*
X173988573Y-97532692D01*
X173988570Y-97532686D01*
X173888741Y-97318601D01*
X173888740Y-97318599D01*
X173753254Y-97125105D01*
X173753249Y-97125099D01*
X173586219Y-96958069D01*
X173400546Y-96828058D01*
X173356921Y-96773481D01*
X173349729Y-96703983D01*
X173381251Y-96641628D01*
X173400547Y-96624909D01*
X173536391Y-96529790D01*
X173586542Y-96494674D01*
X173753636Y-96327580D01*
X173889176Y-96134009D01*
X173989044Y-95919842D01*
X174050204Y-95691587D01*
X174070800Y-95456179D01*
X174050204Y-95220771D01*
X173989044Y-94992516D01*
X173889176Y-94778350D01*
X173808055Y-94662496D01*
X173753635Y-94584776D01*
X173586543Y-94417685D01*
X173586542Y-94417684D01*
X173430614Y-94308502D01*
X173417434Y-94299273D01*
X173373810Y-94244696D01*
X173365713Y-94214583D01*
X173360722Y-94178272D01*
X173360722Y-94178273D01*
X173360721Y-94178266D01*
X173318032Y-93972838D01*
X173256235Y-93675457D01*
X173117675Y-93180939D01*
X173088793Y-93099673D01*
X172945694Y-92697035D01*
X172945692Y-92697030D01*
X172945693Y-92697031D01*
X172851819Y-92480915D01*
X172741091Y-92225996D01*
X172504820Y-91770017D01*
X172472137Y-91716273D01*
X172237986Y-91331229D01*
X171941826Y-90911669D01*
X171617726Y-90513300D01*
X171617727Y-90513300D01*
X171329357Y-90204534D01*
X171267191Y-90137971D01*
X171223695Y-90097349D01*
X170891866Y-89787445D01*
X170827306Y-89734922D01*
X170493497Y-89463349D01*
X170493498Y-89463349D01*
X170073935Y-89167191D01*
X169715452Y-88949195D01*
X169635136Y-88900354D01*
X169635133Y-88900352D01*
X169635129Y-88900350D01*
X169436196Y-88797272D01*
X169179156Y-88664086D01*
X168708115Y-88459486D01*
X168708116Y-88459486D01*
X168708106Y-88459482D01*
X168708107Y-88459482D01*
X168224209Y-88287508D01*
X167729694Y-88148953D01*
X167501871Y-88101612D01*
X167226882Y-88044470D01*
X167190721Y-88039500D01*
X167116894Y-88029353D01*
X166718108Y-87974543D01*
X166205748Y-87939499D01*
X166205741Y-87939499D01*
X165948970Y-87939500D01*
X129066181Y-87939500D01*
X129062437Y-87939387D01*
X128780711Y-87922346D01*
X128773272Y-87921442D01*
X128497511Y-87870907D01*
X128490235Y-87869114D01*
X128303702Y-87810988D01*
X128222577Y-87785708D01*
X128215575Y-87783052D01*
X127959916Y-87667990D01*
X127953281Y-87664507D01*
X127713360Y-87519471D01*
X127707201Y-87515220D01*
X127486498Y-87342311D01*
X127480898Y-87337350D01*
X127282648Y-87139100D01*
X127277687Y-87133500D01*
X127204542Y-87040137D01*
X127104776Y-86912795D01*
X127100533Y-86906646D01*
X127035422Y-86798940D01*
X126955492Y-86666718D01*
X126952009Y-86660083D01*
X126836947Y-86404424D01*
X126834294Y-86397431D01*
X126750884Y-86129761D01*
X126749092Y-86122488D01*
X126698557Y-85846727D01*
X126697653Y-85839288D01*
X126694583Y-85788534D01*
X126680613Y-85557563D01*
X126680500Y-85553819D01*
X126680500Y-82264909D01*
X126680501Y-82264905D01*
X126680500Y-82187899D01*
X126680613Y-82184156D01*
X126685549Y-82102543D01*
X126697665Y-81902212D01*
X126698568Y-81894784D01*
X126749138Y-81618816D01*
X126750930Y-81611549D01*
X126798418Y-81459148D01*
X126834401Y-81343670D01*
X126837055Y-81336676D01*
X126838057Y-81334451D01*
X126952203Y-81080826D01*
X126955684Y-81074196D01*
X126989476Y-81018297D01*
X127100837Y-80834081D01*
X127105070Y-80827949D01*
X127278124Y-80607061D01*
X127283068Y-80601480D01*
X127481483Y-80403065D01*
X127487064Y-80398121D01*
X127707943Y-80225073D01*
X127714085Y-80220834D01*
X127954212Y-80075674D01*
X127960832Y-80072201D01*
X128060564Y-80027316D01*
X128129776Y-80017753D01*
X128193171Y-80047127D01*
X128199135Y-80052711D01*
X128214776Y-80068352D01*
X128214782Y-80068357D01*
X128400337Y-80198284D01*
X128443962Y-80252861D01*
X128451156Y-80322359D01*
X128419633Y-80384714D01*
X128400337Y-80401434D01*
X128214776Y-80531364D01*
X128047684Y-80698456D01*
X127912144Y-80892028D01*
X127912143Y-80892030D01*
X127812277Y-81106194D01*
X127812273Y-81106203D01*
X127751117Y-81334445D01*
X127751115Y-81334455D01*
X127730520Y-81569858D01*
X127730520Y-81569859D01*
X127751115Y-81805262D01*
X127751117Y-81805272D01*
X127812273Y-82033514D01*
X127812275Y-82033518D01*
X127812276Y-82033522D01*
X127876894Y-82172096D01*
X127912144Y-82247689D01*
X127912146Y-82247693D01*
X128020460Y-82402380D01*
X128047684Y-82441260D01*
X128214778Y-82608354D01*
X128311563Y-82676124D01*
X128408344Y-82743891D01*
X128408346Y-82743892D01*
X128408349Y-82743894D01*
X128622516Y-82843762D01*
X128850771Y-82904922D01*
X129039097Y-82921398D01*
X129086178Y-82925518D01*
X129086179Y-82925518D01*
X129086180Y-82925518D01*
X129125413Y-82922085D01*
X129321587Y-82904922D01*
X129549842Y-82843762D01*
X129764009Y-82743894D01*
X129957580Y-82608354D01*
X130124674Y-82441260D01*
X130260214Y-82247689D01*
X130360082Y-82033522D01*
X130421242Y-81805267D01*
X130441838Y-81569859D01*
X130421242Y-81334451D01*
X130360082Y-81106196D01*
X130260214Y-80892030D01*
X130248373Y-80875118D01*
X130124673Y-80698456D01*
X129957581Y-80531365D01*
X129957575Y-80531360D01*
X129772021Y-80401434D01*
X129728396Y-80346857D01*
X129721202Y-80277359D01*
X129752725Y-80215004D01*
X129772021Y-80198284D01*
X129848427Y-80144784D01*
X129957580Y-80068354D01*
X130124674Y-79901260D01*
X130260214Y-79707689D01*
X130360082Y-79493522D01*
X130421242Y-79265267D01*
X130441838Y-79029859D01*
X130421242Y-78794451D01*
X130360082Y-78566196D01*
X130260214Y-78352030D01*
X130251692Y-78339858D01*
X130124673Y-78158456D01*
X129957581Y-77991365D01*
X129957575Y-77991360D01*
X129772021Y-77861434D01*
X129728396Y-77806857D01*
X129721202Y-77737359D01*
X129752725Y-77675004D01*
X129772021Y-77658284D01*
X129927643Y-77549316D01*
X129957580Y-77528354D01*
X130124674Y-77361260D01*
X130260214Y-77167689D01*
X130360082Y-76953522D01*
X130421242Y-76725267D01*
X130441838Y-76489859D01*
X130440812Y-76478137D01*
X130432790Y-76386441D01*
X130421242Y-76254451D01*
X130360082Y-76026196D01*
X130260214Y-75812030D01*
X130202914Y-75730196D01*
X130124673Y-75618456D01*
X129957581Y-75451365D01*
X129957575Y-75451360D01*
X129772021Y-75321434D01*
X129728396Y-75266857D01*
X129721202Y-75197359D01*
X129752725Y-75135004D01*
X129772021Y-75118284D01*
X129807422Y-75093496D01*
X129957580Y-74988354D01*
X130124674Y-74821260D01*
X130260214Y-74627689D01*
X130360082Y-74413522D01*
X130421242Y-74185267D01*
X130441838Y-73949859D01*
X130421242Y-73714451D01*
X130360082Y-73486196D01*
X130260214Y-73272030D01*
X130244232Y-73249204D01*
X130124673Y-73078456D01*
X129957581Y-72911365D01*
X129957575Y-72911360D01*
X129772021Y-72781434D01*
X129728396Y-72726857D01*
X129721202Y-72657359D01*
X129752725Y-72595004D01*
X129772021Y-72578284D01*
X129798989Y-72559401D01*
X129957580Y-72448354D01*
X130124674Y-72281260D01*
X130260214Y-72087689D01*
X130360082Y-71873522D01*
X130421242Y-71645267D01*
X130441838Y-71409859D01*
X130421242Y-71174451D01*
X130374194Y-70998865D01*
X130360084Y-70946203D01*
X130360083Y-70946202D01*
X130360082Y-70946196D01*
X130260214Y-70732030D01*
X130230220Y-70689193D01*
X130124673Y-70538456D01*
X129957581Y-70371365D01*
X129957575Y-70371360D01*
X129772021Y-70241434D01*
X129728396Y-70186857D01*
X129721202Y-70117359D01*
X129752725Y-70055004D01*
X129772021Y-70038284D01*
X129879260Y-69963194D01*
X129957580Y-69908354D01*
X130124674Y-69741260D01*
X130260214Y-69547689D01*
X130360082Y-69333522D01*
X130421242Y-69105267D01*
X130441838Y-68869859D01*
X130421242Y-68634451D01*
X130360082Y-68406196D01*
X130260214Y-68192030D01*
X130238056Y-68160384D01*
X130124673Y-67998456D01*
X129957581Y-67831365D01*
X129957575Y-67831360D01*
X129772021Y-67701434D01*
X129728396Y-67646857D01*
X129721202Y-67577359D01*
X129752725Y-67515004D01*
X129772021Y-67498284D01*
X129817844Y-67466198D01*
X129957580Y-67368354D01*
X130124674Y-67201260D01*
X130234093Y-67044992D01*
X130288669Y-67001369D01*
X130358167Y-66994175D01*
X130420522Y-67025698D01*
G37*
%TD.AperFunction*%
%TA.AperFunction,Conductor*%
G36*
X128045127Y-77374008D02*
G01*
X128088604Y-77402180D01*
X128214776Y-77528352D01*
X128214782Y-77528357D01*
X128400337Y-77658284D01*
X128443962Y-77712861D01*
X128451156Y-77782359D01*
X128419633Y-77844714D01*
X128400337Y-77861434D01*
X128214776Y-77991364D01*
X128047684Y-78158456D01*
X127912144Y-78352028D01*
X127912142Y-78352031D01*
X127868950Y-78444655D01*
X127822777Y-78497093D01*
X127792565Y-78510908D01*
X127755129Y-78522264D01*
X127755123Y-78522266D01*
X127402337Y-78668393D01*
X127402323Y-78668399D01*
X127065550Y-78848406D01*
X127065529Y-78848418D01*
X126748034Y-79060559D01*
X126748029Y-79060563D01*
X126452837Y-79302820D01*
X126182825Y-79572832D01*
X125940573Y-79868016D01*
X125728412Y-80185538D01*
X125548406Y-80522309D01*
X125548396Y-80522330D01*
X125402269Y-80875115D01*
X125291420Y-81240548D01*
X125291419Y-81240549D01*
X125216923Y-81615085D01*
X125216923Y-81615088D01*
X125191419Y-81874058D01*
X125179542Y-81994665D01*
X125179498Y-81995107D01*
X125179500Y-82141270D01*
X125179500Y-85746539D01*
X125216911Y-86126401D01*
X125291371Y-86500743D01*
X125291374Y-86500754D01*
X125402179Y-86866030D01*
X125518101Y-87145891D01*
X125543724Y-87207751D01*
X125548244Y-87218662D01*
X125548249Y-87218674D01*
X125728170Y-87555282D01*
X125728181Y-87555300D01*
X125940230Y-87872654D01*
X125940240Y-87872668D01*
X126182386Y-88167723D01*
X126452276Y-88437613D01*
X126452281Y-88437617D01*
X126452282Y-88437618D01*
X126747337Y-88679764D01*
X127064706Y-88891823D01*
X127064715Y-88891828D01*
X127064717Y-88891829D01*
X127401325Y-89071750D01*
X127401327Y-89071750D01*
X127401333Y-89071754D01*
X127604141Y-89155759D01*
X127753969Y-89217820D01*
X127753973Y-89217821D01*
X127753975Y-89217822D01*
X128119236Y-89328623D01*
X128119242Y-89328624D01*
X128119245Y-89328625D01*
X128119256Y-89328628D01*
X128493598Y-89403088D01*
X128873457Y-89440500D01*
X128873460Y-89440500D01*
X165948976Y-89440500D01*
X166418539Y-89458947D01*
X166423369Y-89459327D01*
X166576211Y-89477417D01*
X166887630Y-89514275D01*
X166892406Y-89515030D01*
X167350930Y-89606234D01*
X167355637Y-89607364D01*
X167805601Y-89734264D01*
X167810203Y-89735759D01*
X168248812Y-89897569D01*
X168253300Y-89899428D01*
X168642767Y-90078974D01*
X168677832Y-90095139D01*
X168682171Y-90097349D01*
X169090060Y-90325776D01*
X169094193Y-90328309D01*
X169482903Y-90588035D01*
X169486828Y-90590887D01*
X169853957Y-90880306D01*
X169857660Y-90883469D01*
X170200931Y-91200783D01*
X170204375Y-91204226D01*
X170521710Y-91547514D01*
X170524870Y-91551215D01*
X170654993Y-91716273D01*
X170814282Y-91918329D01*
X170817144Y-91922269D01*
X170947405Y-92117215D01*
X171076874Y-92310978D01*
X171079408Y-92315115D01*
X171293293Y-92697031D01*
X171307823Y-92722975D01*
X171310034Y-92727315D01*
X171505752Y-93151858D01*
X171507616Y-93156357D01*
X171669424Y-93594950D01*
X171670928Y-93599579D01*
X171683222Y-93643168D01*
X171797819Y-94049497D01*
X171798956Y-94054232D01*
X171836842Y-94244696D01*
X171853757Y-94329729D01*
X171847530Y-94399321D01*
X171819821Y-94441602D01*
X171676646Y-94584776D01*
X171541106Y-94778348D01*
X171541105Y-94778350D01*
X171441239Y-94992514D01*
X171441235Y-94992523D01*
X171380079Y-95220765D01*
X171380077Y-95220775D01*
X171359482Y-95456178D01*
X171359482Y-95456179D01*
X171380077Y-95691582D01*
X171380079Y-95691592D01*
X171441235Y-95919834D01*
X171441237Y-95919838D01*
X171441238Y-95919842D01*
X171465692Y-95972283D01*
X171541106Y-96134009D01*
X171541108Y-96134013D01*
X171676642Y-96327574D01*
X171676647Y-96327581D01*
X171843738Y-96494672D01*
X171843744Y-96494677D01*
X172029735Y-96624909D01*
X172073360Y-96679486D01*
X172080554Y-96748984D01*
X172049031Y-96811339D01*
X172029736Y-96828059D01*
X171844063Y-96958069D01*
X171844061Y-96958070D01*
X171677032Y-97125099D01*
X171677027Y-97125105D01*
X171541541Y-97318599D01*
X171541540Y-97318601D01*
X171441711Y-97532686D01*
X171441708Y-97532692D01*
X171384505Y-97746178D01*
X171384505Y-97746179D01*
X172281455Y-97746179D01*
X172255648Y-97786335D01*
X172215141Y-97924290D01*
X172215141Y-98068068D01*
X172255648Y-98206023D01*
X172281455Y-98246179D01*
X171384505Y-98246179D01*
X171441708Y-98459665D01*
X171441711Y-98459671D01*
X171541540Y-98673757D01*
X171677035Y-98867261D01*
X171844058Y-99034284D01*
X172029736Y-99164298D01*
X172073360Y-99218875D01*
X172080553Y-99288374D01*
X172049031Y-99350728D01*
X172029736Y-99367448D01*
X171843735Y-99497687D01*
X171676646Y-99664776D01*
X171541106Y-99858348D01*
X171541105Y-99858350D01*
X171441239Y-100072514D01*
X171441235Y-100072523D01*
X171380079Y-100300765D01*
X171380077Y-100300775D01*
X171359482Y-100536178D01*
X171359482Y-100536179D01*
X171380077Y-100771582D01*
X171380079Y-100771592D01*
X171441235Y-100999834D01*
X171441237Y-100999838D01*
X171441238Y-100999842D01*
X171461746Y-101043821D01*
X171541106Y-101214009D01*
X171541108Y-101214013D01*
X171676642Y-101407574D01*
X171676647Y-101407581D01*
X171843738Y-101574672D01*
X171843744Y-101574677D01*
X172029299Y-101704604D01*
X172072924Y-101759181D01*
X172080118Y-101828679D01*
X172048595Y-101891034D01*
X172029299Y-101907754D01*
X171843738Y-102037684D01*
X171676646Y-102204776D01*
X171541106Y-102398348D01*
X171541104Y-102398351D01*
X171512772Y-102459109D01*
X171466599Y-102511547D01*
X171434327Y-102525968D01*
X171399478Y-102535883D01*
X171399466Y-102535887D01*
X171042891Y-102674022D01*
X170700564Y-102844478D01*
X170375449Y-103045779D01*
X170070272Y-103276234D01*
X169787676Y-103533854D01*
X169657671Y-103676463D01*
X169600444Y-103739238D01*
X169596137Y-103743962D01*
X169536425Y-103780243D01*
X169466578Y-103778482D01*
X169408770Y-103739238D01*
X169381356Y-103674971D01*
X169380500Y-103660423D01*
X169380500Y-94662496D01*
X169373700Y-94584776D01*
X169346335Y-94272001D01*
X169278267Y-93885969D01*
X169176812Y-93507339D01*
X169152292Y-93439972D01*
X169042741Y-93138981D01*
X168877085Y-92783735D01*
X168877084Y-92783734D01*
X168831417Y-92704637D01*
X168681090Y-92444261D01*
X168681089Y-92444260D01*
X168681087Y-92444256D01*
X168681087Y-92444257D01*
X168456255Y-92123165D01*
X168456254Y-92123164D01*
X168456255Y-92123164D01*
X168211512Y-91831492D01*
X168204291Y-91822886D01*
X167927114Y-91545709D01*
X167871738Y-91499243D01*
X167626836Y-91293745D01*
X167626836Y-91293746D01*
X167626835Y-91293745D01*
X167305743Y-91068913D01*
X167305744Y-91068913D01*
X167115952Y-90959337D01*
X166966268Y-90872917D01*
X166966266Y-90872916D01*
X166966265Y-90872915D01*
X166611019Y-90707259D01*
X166242664Y-90573189D01*
X166242661Y-90573188D01*
X165864031Y-90471733D01*
X165477999Y-90403665D01*
X165087504Y-90369500D01*
X128887892Y-90369500D01*
X128470732Y-90351286D01*
X128465341Y-90350814D01*
X128054052Y-90296666D01*
X128048723Y-90295726D01*
X127643702Y-90205935D01*
X127638475Y-90204534D01*
X127242828Y-90079787D01*
X127237743Y-90077936D01*
X126945302Y-89956803D01*
X126854468Y-89919178D01*
X126849579Y-89916898D01*
X126481605Y-89725342D01*
X126476919Y-89722636D01*
X126127031Y-89499734D01*
X126122598Y-89496630D01*
X126113767Y-89489854D01*
X125793477Y-89244087D01*
X125789334Y-89240609D01*
X125483480Y-88960345D01*
X125479654Y-88956519D01*
X125199390Y-88650665D01*
X125195911Y-88646520D01*
X124991177Y-88379706D01*
X124943365Y-88317396D01*
X124940265Y-88312968D01*
X124717363Y-87963080D01*
X124714657Y-87958394D01*
X124523096Y-87590411D01*
X124520825Y-87585541D01*
X124362061Y-87202252D01*
X124360212Y-87197171D01*
X124344043Y-87145891D01*
X124279949Y-86942609D01*
X124235465Y-86801524D01*
X124234064Y-86796297D01*
X124144273Y-86391276D01*
X124143335Y-86385960D01*
X124089183Y-85974640D01*
X124088714Y-85969288D01*
X124070500Y-85552108D01*
X124070500Y-85473227D01*
X124070500Y-82256024D01*
X124087523Y-81844373D01*
X124087942Y-81839313D01*
X124138590Y-81432984D01*
X124139426Y-81427974D01*
X124223452Y-81027222D01*
X124224692Y-81022322D01*
X124341535Y-80629850D01*
X124343179Y-80625063D01*
X124492020Y-80243610D01*
X124494071Y-80238938D01*
X124560920Y-80102194D01*
X124673894Y-79871098D01*
X124676321Y-79866614D01*
X124885910Y-79514875D01*
X124888688Y-79510622D01*
X125126606Y-79177394D01*
X125129753Y-79173352D01*
X125225280Y-79060563D01*
X125394363Y-78860924D01*
X125397829Y-78857161D01*
X125687335Y-78567652D01*
X125691085Y-78564198D01*
X126003525Y-78299573D01*
X126007560Y-78296434D01*
X126247312Y-78125252D01*
X126340776Y-78058519D01*
X126345051Y-78055726D01*
X126696795Y-77846130D01*
X126701261Y-77843714D01*
X127069116Y-77663879D01*
X127073773Y-77661837D01*
X127455208Y-77512998D01*
X127460017Y-77511347D01*
X127852443Y-77394515D01*
X127857394Y-77393261D01*
X127975477Y-77368500D01*
X128045127Y-77374008D01*
G37*
%TD.AperFunction*%
%TA.AperFunction,Conductor*%
G36*
X127740696Y-65703184D02*
G01*
X127796629Y-65745056D01*
X127821046Y-65810520D01*
X127813885Y-65861774D01*
X127812275Y-65866195D01*
X127751117Y-66094445D01*
X127751115Y-66094455D01*
X127730520Y-66329858D01*
X127730520Y-66329859D01*
X127751115Y-66565262D01*
X127751117Y-66565272D01*
X127812273Y-66793514D01*
X127812275Y-66793518D01*
X127812276Y-66793522D01*
X127863738Y-66903882D01*
X127912144Y-67007689D01*
X127912146Y-67007693D01*
X127982802Y-67108599D01*
X128047680Y-67201255D01*
X128047685Y-67201261D01*
X128214776Y-67368352D01*
X128214782Y-67368357D01*
X128400337Y-67498284D01*
X128443962Y-67552861D01*
X128451156Y-67622359D01*
X128419633Y-67684714D01*
X128400337Y-67701434D01*
X128214776Y-67831364D01*
X128047687Y-67998453D01*
X127931031Y-68165056D01*
X127876454Y-68208680D01*
X127845655Y-68216869D01*
X127844335Y-68217043D01*
X127844047Y-68217081D01*
X127844045Y-68217081D01*
X127844040Y-68217082D01*
X127354639Y-68314426D01*
X127354638Y-68314426D01*
X126872640Y-68443573D01*
X126872640Y-68443574D01*
X126400124Y-68603970D01*
X125939119Y-68794923D01*
X125491580Y-69015624D01*
X125491579Y-69015624D01*
X125059440Y-69265121D01*
X125059439Y-69265121D01*
X124644547Y-69542344D01*
X124644546Y-69542344D01*
X124318145Y-69792802D01*
X124275277Y-69825697D01*
X124248665Y-69846117D01*
X124114324Y-69963932D01*
X123873508Y-70175124D01*
X123820434Y-70228199D01*
X123771697Y-70276936D01*
X123771692Y-70276938D01*
X123442328Y-70606299D01*
X123442329Y-70606299D01*
X123442324Y-70606304D01*
X123229465Y-70839798D01*
X122960555Y-71134778D01*
X122956859Y-71138832D01*
X122536319Y-71645267D01*
X122496497Y-71693222D01*
X122397036Y-71824930D01*
X122062246Y-72268262D01*
X121938877Y-72448357D01*
X121655006Y-72862755D01*
X121275659Y-73475418D01*
X121275660Y-73475417D01*
X120925008Y-74104953D01*
X120603813Y-74749996D01*
X120312744Y-75409199D01*
X120312744Y-75409198D01*
X120052432Y-76081135D01*
X120052432Y-76081136D01*
X120001625Y-76232724D01*
X119823430Y-76764380D01*
X119688475Y-77238690D01*
X119651541Y-77368500D01*
X119626226Y-77457470D01*
X119461243Y-78158928D01*
X119392175Y-78528401D01*
X119328831Y-78867254D01*
X119229274Y-79580944D01*
X119229274Y-79580943D01*
X119202150Y-79873645D01*
X119167010Y-80252861D01*
X119162782Y-80298483D01*
X119129501Y-81018297D01*
X119129501Y-81018296D01*
X119129500Y-81297023D01*
X119129499Y-81297048D01*
X119129499Y-81299775D01*
X119129499Y-81299776D01*
X119129500Y-81378607D01*
X119112075Y-81844396D01*
X119110965Y-81874058D01*
X119110618Y-81878684D01*
X119055369Y-82369055D01*
X119054677Y-82373641D01*
X118962937Y-82858513D01*
X118961905Y-82863035D01*
X118834186Y-83339699D01*
X118832819Y-83344131D01*
X118669834Y-83809922D01*
X118668139Y-83814240D01*
X118543786Y-84099264D01*
X118482400Y-84239965D01*
X118470803Y-84266545D01*
X118468790Y-84270724D01*
X118238211Y-84707002D01*
X118235892Y-84711019D01*
X117973338Y-85128873D01*
X117970725Y-85132706D01*
X117677698Y-85529745D01*
X117674806Y-85533372D01*
X117352913Y-85907418D01*
X117349758Y-85910818D01*
X117000827Y-86259749D01*
X116997427Y-86262904D01*
X116623371Y-86584805D01*
X116619745Y-86587697D01*
X116222701Y-86880728D01*
X116218868Y-86883341D01*
X115801021Y-87145891D01*
X115797004Y-87148210D01*
X115360726Y-87378789D01*
X115356547Y-87380802D01*
X114904242Y-87578138D01*
X114899924Y-87579833D01*
X114434133Y-87742819D01*
X114429701Y-87744186D01*
X113953037Y-87871905D01*
X113948515Y-87872937D01*
X113463643Y-87964677D01*
X113459057Y-87965369D01*
X112968685Y-88020618D01*
X112964066Y-88020964D01*
X112468609Y-88039499D01*
X112386754Y-88039499D01*
X112386734Y-88039500D01*
X110633536Y-88039500D01*
X110165166Y-88076361D01*
X110165165Y-88076361D01*
X109863759Y-88124099D01*
X109701116Y-88149859D01*
X109244270Y-88259538D01*
X109029209Y-88329415D01*
X108797441Y-88404721D01*
X108797442Y-88404721D01*
X108797437Y-88404722D01*
X108797437Y-88404723D01*
X108363374Y-88584518D01*
X107944754Y-88797815D01*
X107944750Y-88797817D01*
X107944743Y-88797821D01*
X107685773Y-88956519D01*
X107544161Y-89043299D01*
X107303951Y-89217822D01*
X107164059Y-89319459D01*
X107022339Y-89440500D01*
X106806803Y-89624585D01*
X106474585Y-89956803D01*
X106322021Y-90135432D01*
X106169459Y-90314059D01*
X106169457Y-90314062D01*
X105893299Y-90694161D01*
X105893296Y-90694166D01*
X105647821Y-91094743D01*
X105647817Y-91094750D01*
X105647815Y-91094754D01*
X105498026Y-91388733D01*
X105434518Y-91513374D01*
X105254722Y-91947441D01*
X105254721Y-91947442D01*
X105254721Y-91947441D01*
X105222966Y-92045174D01*
X105109538Y-92394270D01*
X105016036Y-92783734D01*
X104999859Y-92851116D01*
X104926361Y-93315165D01*
X104926361Y-93315166D01*
X104889500Y-93783536D01*
X104889500Y-98107247D01*
X104889434Y-98110111D01*
X104871611Y-98495623D01*
X104871083Y-98501329D01*
X104817965Y-98882123D01*
X104816912Y-98887755D01*
X104728887Y-99262016D01*
X104727319Y-99267528D01*
X104605136Y-99632075D01*
X104603066Y-99637418D01*
X104447762Y-99989148D01*
X104445208Y-99994277D01*
X104258122Y-100330158D01*
X104255106Y-100335029D01*
X104037817Y-100652233D01*
X104034364Y-100656806D01*
X103788743Y-100952594D01*
X103784883Y-100956828D01*
X103513020Y-101228691D01*
X103508786Y-101232551D01*
X103212982Y-101478181D01*
X103208410Y-101481634D01*
X102891207Y-101698921D01*
X102886335Y-101701937D01*
X102699184Y-101806179D01*
X102550457Y-101889018D01*
X102545335Y-101891568D01*
X102193596Y-102046875D01*
X102188253Y-102048944D01*
X101823709Y-102171124D01*
X101818205Y-102172691D01*
X101760290Y-102186312D01*
X101690524Y-102182498D01*
X101644220Y-102153286D01*
X101536261Y-102045327D01*
X101536260Y-102045326D01*
X101350264Y-101915090D01*
X101306640Y-101860513D01*
X101299447Y-101791014D01*
X101330969Y-101728660D01*
X101350264Y-101711940D01*
X101535941Y-101581926D01*
X101702964Y-101414903D01*
X101838459Y-101221399D01*
X101938288Y-101007313D01*
X101938291Y-101007307D01*
X101995495Y-100793821D01*
X101098545Y-100793821D01*
X101124352Y-100753665D01*
X101164859Y-100615710D01*
X101164859Y-100471932D01*
X101124352Y-100333977D01*
X101098545Y-100293821D01*
X101995495Y-100293821D01*
X101995494Y-100293820D01*
X101938291Y-100080334D01*
X101938288Y-100080328D01*
X101838459Y-99866243D01*
X101838458Y-99866241D01*
X101702972Y-99672747D01*
X101702967Y-99672741D01*
X101535937Y-99505711D01*
X101350264Y-99375700D01*
X101306639Y-99321123D01*
X101299447Y-99251625D01*
X101330969Y-99189270D01*
X101350265Y-99172551D01*
X101536260Y-99042316D01*
X101703354Y-98875222D01*
X101838894Y-98681651D01*
X101938762Y-98467484D01*
X101999922Y-98239229D01*
X102020518Y-98003821D01*
X101999922Y-97768413D01*
X101938762Y-97540158D01*
X101838894Y-97325992D01*
X101833718Y-97318599D01*
X101703353Y-97132418D01*
X101536261Y-96965327D01*
X101536255Y-96965322D01*
X101350701Y-96835396D01*
X101307076Y-96780819D01*
X101299882Y-96711321D01*
X101331405Y-96648966D01*
X101350701Y-96632246D01*
X101497023Y-96529790D01*
X101536260Y-96502316D01*
X101703354Y-96335222D01*
X101838894Y-96141651D01*
X101917873Y-95972278D01*
X101964041Y-95919844D01*
X101979809Y-95911411D01*
X102022166Y-95892554D01*
X102293184Y-95736085D01*
X102546361Y-95552144D01*
X102778924Y-95342746D01*
X102988325Y-95110185D01*
X103172268Y-94857010D01*
X103328740Y-94585994D01*
X103456025Y-94300106D01*
X103552728Y-94002480D01*
X103604004Y-93761237D01*
X103617788Y-93696391D01*
X103617789Y-93696385D01*
X103617788Y-93696385D01*
X103617791Y-93696376D01*
X103650501Y-93385147D01*
X103650500Y-93228676D01*
X103650500Y-93191191D01*
X103650500Y-87243796D01*
X103669356Y-86331621D01*
X103725892Y-85421004D01*
X103820011Y-84513501D01*
X103951552Y-83610663D01*
X104120291Y-82714033D01*
X104325939Y-81825141D01*
X104568146Y-80945507D01*
X104846496Y-80076634D01*
X105160515Y-79220006D01*
X105509666Y-78377087D01*
X105893352Y-77549316D01*
X106310919Y-76738109D01*
X106761652Y-75944850D01*
X107244782Y-75170896D01*
X107759482Y-74417568D01*
X108304875Y-73686154D01*
X108880027Y-72977903D01*
X109483957Y-72294026D01*
X109612211Y-72160359D01*
X110113909Y-71637486D01*
X110117533Y-71634003D01*
X110130836Y-71622217D01*
X110321302Y-71453474D01*
X110327156Y-71448887D01*
X110550214Y-71294917D01*
X110556585Y-71291066D01*
X110796563Y-71165112D01*
X110803363Y-71162050D01*
X111056781Y-71065938D01*
X111063885Y-71063724D01*
X111327030Y-70998862D01*
X111334379Y-70997515D01*
X111603408Y-70964845D01*
X111610868Y-70964393D01*
X111881867Y-70964391D01*
X111889338Y-70964842D01*
X112158363Y-70997505D01*
X112165708Y-70998850D01*
X112428854Y-71063706D01*
X112435987Y-71065930D01*
X112479769Y-71082534D01*
X112535472Y-71124711D01*
X112559326Y-71187667D01*
X112572691Y-71340411D01*
X112572692Y-71340417D01*
X112572693Y-71340419D01*
X112599670Y-71441103D01*
X112598007Y-71510953D01*
X112558844Y-71568815D01*
X112494615Y-71596318D01*
X112447803Y-71592970D01*
X112347119Y-71565993D01*
X112347115Y-71565992D01*
X112347111Y-71565991D01*
X112347109Y-71565990D01*
X112347106Y-71565990D01*
X112111704Y-71545395D01*
X112111702Y-71545395D01*
X111876299Y-71565990D01*
X111876289Y-71565992D01*
X111648047Y-71627148D01*
X111648038Y-71627152D01*
X111433874Y-71727018D01*
X111433872Y-71727019D01*
X111240300Y-71862559D01*
X111073208Y-72029651D01*
X110937668Y-72223223D01*
X110937667Y-72223225D01*
X110863209Y-72382902D01*
X110837870Y-72437242D01*
X110837801Y-72437389D01*
X110837797Y-72437398D01*
X110776641Y-72665640D01*
X110776639Y-72665650D01*
X110756044Y-72901053D01*
X110756044Y-72901054D01*
X110776639Y-73136457D01*
X110776641Y-73136467D01*
X110803769Y-73237712D01*
X110802106Y-73307562D01*
X110762943Y-73365425D01*
X110698714Y-73392928D01*
X110651901Y-73389580D01*
X110550977Y-73362538D01*
X110550966Y-73362536D01*
X110315653Y-73341949D01*
X110315649Y-73341949D01*
X110080335Y-73362536D01*
X110080324Y-73362538D01*
X109852167Y-73423672D01*
X109852158Y-73423676D01*
X109638070Y-73523507D01*
X109554276Y-73582178D01*
X110183117Y-74211019D01*
X110173336Y-74212426D01*
X110042551Y-74272154D01*
X109933890Y-74366308D01*
X109856158Y-74487262D01*
X109832574Y-74567582D01*
X109200723Y-73935731D01*
X109142052Y-74019525D01*
X109042221Y-74233613D01*
X109042217Y-74233622D01*
X108981083Y-74461779D01*
X108981081Y-74461790D01*
X108960494Y-74697104D01*
X108960494Y-74697107D01*
X108981081Y-74932421D01*
X108981083Y-74932432D01*
X109008125Y-75033355D01*
X109006462Y-75103205D01*
X108967299Y-75161067D01*
X108903070Y-75188571D01*
X108856257Y-75185223D01*
X108755013Y-75158095D01*
X108755003Y-75158093D01*
X108519601Y-75137498D01*
X108519599Y-75137498D01*
X108284196Y-75158093D01*
X108284186Y-75158095D01*
X108055944Y-75219251D01*
X108055935Y-75219255D01*
X107841771Y-75319121D01*
X107841769Y-75319122D01*
X107648197Y-75454662D01*
X107481105Y-75621754D01*
X107345565Y-75815326D01*
X107345564Y-75815328D01*
X107275488Y-75965608D01*
X107248217Y-76024091D01*
X107245698Y-76029492D01*
X107245694Y-76029501D01*
X107184538Y-76257743D01*
X107184536Y-76257753D01*
X107163941Y-76493156D01*
X107163941Y-76493157D01*
X107184536Y-76728555D01*
X107184538Y-76728570D01*
X107245694Y-76956812D01*
X107245696Y-76956816D01*
X107245697Y-76956820D01*
X107280256Y-77030932D01*
X107345565Y-77170987D01*
X107345567Y-77170991D01*
X107393157Y-77238956D01*
X107481105Y-77364558D01*
X107648199Y-77531652D01*
X107673426Y-77549316D01*
X107841765Y-77667189D01*
X107841767Y-77667190D01*
X107841770Y-77667192D01*
X108055937Y-77767060D01*
X108284192Y-77828220D01*
X108457845Y-77843413D01*
X108519599Y-77848816D01*
X108519600Y-77848816D01*
X108519601Y-77848816D01*
X108581355Y-77843413D01*
X108755008Y-77828220D01*
X108867614Y-77798047D01*
X108937462Y-77799710D01*
X108964495Y-77812094D01*
X109270313Y-77999497D01*
X109270314Y-77999497D01*
X109583208Y-78158922D01*
X109681658Y-78209084D01*
X110108144Y-78385737D01*
X110108188Y-78385755D01*
X110547252Y-78528413D01*
X110547253Y-78528413D01*
X110705380Y-78566375D01*
X110996165Y-78636185D01*
X110996169Y-78636185D01*
X110996175Y-78636187D01*
X111273943Y-78680179D01*
X111452147Y-78708403D01*
X111452150Y-78708403D01*
X111452155Y-78708404D01*
X111602445Y-78720231D01*
X111912390Y-78744623D01*
X112374053Y-78744621D01*
X112374059Y-78744621D01*
X112834292Y-78708399D01*
X112834291Y-78708399D01*
X112834295Y-78708398D01*
X112834299Y-78708398D01*
X113290281Y-78636176D01*
X113739191Y-78528401D01*
X114178261Y-78385737D01*
X114542713Y-78234775D01*
X114604780Y-78209066D01*
X114604779Y-78209066D01*
X114604784Y-78209064D01*
X115016131Y-77999472D01*
X115016130Y-77999472D01*
X115016137Y-77999469D01*
X115016136Y-77999469D01*
X115268672Y-77844714D01*
X115409766Y-77758251D01*
X115721648Y-77531655D01*
X115783265Y-77486888D01*
X116073866Y-77238690D01*
X116134315Y-77187062D01*
X116297539Y-77023839D01*
X116353316Y-76968062D01*
X116353316Y-76968060D01*
X116363520Y-76957857D01*
X116363523Y-76957852D01*
X124516386Y-68804991D01*
X124538967Y-68787137D01*
X124578797Y-68762571D01*
X124578798Y-68762570D01*
X124584470Y-68758086D01*
X124584508Y-68758134D01*
X124590345Y-68753378D01*
X124590305Y-68753330D01*
X124595832Y-68748691D01*
X124595837Y-68748689D01*
X124648527Y-68692840D01*
X127609681Y-65731684D01*
X127671004Y-65698200D01*
X127740696Y-65703184D01*
G37*
%TD.AperFunction*%
%TA.AperFunction,Conductor*%
G36*
X149631978Y-64013214D02*
G01*
X149634795Y-64013344D01*
X150404681Y-64066780D01*
X150407461Y-64067038D01*
X151174078Y-64155976D01*
X151176853Y-64156363D01*
X151938531Y-64280609D01*
X151941254Y-64281118D01*
X152563244Y-64412324D01*
X152696384Y-64440410D01*
X152699168Y-64441065D01*
X152763266Y-64457712D01*
X153446047Y-64635038D01*
X153448803Y-64635821D01*
X154185993Y-64864100D01*
X154188638Y-64864986D01*
X154914515Y-65127075D01*
X154917158Y-65128099D01*
X155630133Y-65423421D01*
X155632709Y-65424558D01*
X156331291Y-65752497D01*
X156333804Y-65753748D01*
X157016482Y-66113592D01*
X157018974Y-66114981D01*
X157684301Y-66505967D01*
X157686722Y-66507466D01*
X158301173Y-66907841D01*
X158333259Y-66928748D01*
X158335622Y-66930367D01*
X158962021Y-67381064D01*
X158964307Y-67382790D01*
X159569220Y-67861935D01*
X159571401Y-67863745D01*
X160153579Y-68370347D01*
X160155645Y-68372231D01*
X160714005Y-68905373D01*
X162878333Y-71069700D01*
X162878354Y-71069723D01*
X162936453Y-71127821D01*
X163354184Y-71571583D01*
X163356668Y-71574387D01*
X163528629Y-71780723D01*
X163745640Y-72041116D01*
X163747937Y-72044048D01*
X164079729Y-72494965D01*
X164108029Y-72533425D01*
X164110157Y-72536508D01*
X164440037Y-73046725D01*
X164441975Y-73049931D01*
X164740448Y-73579134D01*
X164742187Y-73582448D01*
X164857999Y-73820302D01*
X165008161Y-74128703D01*
X165009698Y-74132119D01*
X165242206Y-74693443D01*
X165243534Y-74696945D01*
X165356291Y-75023703D01*
X165359552Y-75093496D01*
X165324562Y-75153973D01*
X165262430Y-75185933D01*
X165206981Y-75183927D01*
X165090410Y-75152692D01*
X165090400Y-75152690D01*
X164854998Y-75132095D01*
X164854996Y-75132095D01*
X164619593Y-75152690D01*
X164619580Y-75152693D01*
X164518896Y-75179670D01*
X164449046Y-75178007D01*
X164391184Y-75138843D01*
X164363681Y-75074615D01*
X164367029Y-75027802D01*
X164394009Y-74927111D01*
X164414605Y-74691703D01*
X164394009Y-74456295D01*
X164332849Y-74228040D01*
X164232981Y-74013874D01*
X164206811Y-73976498D01*
X164097440Y-73820300D01*
X163930348Y-73653209D01*
X163930341Y-73653204D01*
X163736780Y-73517670D01*
X163736776Y-73517668D01*
X163669280Y-73486194D01*
X163522609Y-73417800D01*
X163522605Y-73417799D01*
X163522601Y-73417797D01*
X163294359Y-73356641D01*
X163294349Y-73356639D01*
X163058947Y-73336044D01*
X163058945Y-73336044D01*
X162823542Y-73356639D01*
X162823529Y-73356642D01*
X162722286Y-73383769D01*
X162652436Y-73382106D01*
X162594574Y-73342943D01*
X162567071Y-73278714D01*
X162570419Y-73231900D01*
X162597462Y-73130973D01*
X162597463Y-73130966D01*
X162618051Y-72895652D01*
X162618051Y-72895649D01*
X162597463Y-72660335D01*
X162597461Y-72660324D01*
X162536327Y-72432167D01*
X162536323Y-72432158D01*
X162436494Y-72218074D01*
X162436493Y-72218072D01*
X162377819Y-72134277D01*
X162377819Y-72134276D01*
X161745970Y-72766126D01*
X161722387Y-72685807D01*
X161644655Y-72564853D01*
X161535994Y-72470699D01*
X161405209Y-72410971D01*
X161395426Y-72409564D01*
X162024267Y-71780724D01*
X162024267Y-71780723D01*
X161940477Y-71722053D01*
X161940473Y-71722051D01*
X161726386Y-71622221D01*
X161726377Y-71622217D01*
X161498220Y-71561083D01*
X161498209Y-71561081D01*
X161262896Y-71540494D01*
X161262892Y-71540494D01*
X161027578Y-71561081D01*
X161027567Y-71561083D01*
X160926644Y-71588125D01*
X160856794Y-71586462D01*
X160798931Y-71547299D01*
X160771428Y-71483070D01*
X160774775Y-71436261D01*
X160801906Y-71335008D01*
X160822502Y-71099600D01*
X160819362Y-71063716D01*
X160813570Y-70997514D01*
X160801906Y-70864192D01*
X160742085Y-70640935D01*
X160740748Y-70635944D01*
X160740747Y-70635943D01*
X160740746Y-70635937D01*
X160640878Y-70421771D01*
X160623903Y-70397527D01*
X160505337Y-70228197D01*
X160338245Y-70061106D01*
X160338238Y-70061101D01*
X160144677Y-69925567D01*
X160144673Y-69925565D01*
X160023206Y-69868924D01*
X159930506Y-69825697D01*
X159930502Y-69825696D01*
X159930498Y-69825694D01*
X159702256Y-69764538D01*
X159702246Y-69764536D01*
X159466844Y-69743941D01*
X159466842Y-69743941D01*
X159231439Y-69764536D01*
X159231429Y-69764538D01*
X159003187Y-69825694D01*
X159003178Y-69825698D01*
X158789014Y-69925564D01*
X158789012Y-69925565D01*
X158595440Y-70061105D01*
X158428348Y-70228197D01*
X158292808Y-70421769D01*
X158292807Y-70421771D01*
X158192941Y-70635935D01*
X158192937Y-70635944D01*
X158131781Y-70864186D01*
X158131779Y-70864196D01*
X158111184Y-71099599D01*
X158111184Y-71099600D01*
X158131779Y-71335003D01*
X158131781Y-71335013D01*
X158192937Y-71563255D01*
X158192939Y-71563259D01*
X158192940Y-71563263D01*
X158269301Y-71727019D01*
X158292808Y-71777430D01*
X158292810Y-71777434D01*
X158348146Y-71856461D01*
X158428348Y-71971001D01*
X158595442Y-72138095D01*
X158667969Y-72188879D01*
X158789008Y-72273632D01*
X158789010Y-72273633D01*
X158789013Y-72273635D01*
X159003180Y-72373503D01*
X159003186Y-72373504D01*
X159003187Y-72373505D01*
X159025005Y-72379351D01*
X159231435Y-72434663D01*
X159419761Y-72451139D01*
X159466842Y-72455259D01*
X159466843Y-72455259D01*
X159466844Y-72455259D01*
X159506077Y-72451826D01*
X159702251Y-72434663D01*
X159803502Y-72407533D01*
X159873349Y-72409196D01*
X159931212Y-72448358D01*
X159958716Y-72512587D01*
X159955368Y-72559401D01*
X159928326Y-72660324D01*
X159928324Y-72660335D01*
X159907737Y-72895649D01*
X159907737Y-72895652D01*
X159928324Y-73130966D01*
X159928326Y-73130977D01*
X159989460Y-73359134D01*
X159989464Y-73359143D01*
X160089294Y-73573230D01*
X160089296Y-73573234D01*
X160147966Y-73657024D01*
X160147967Y-73657024D01*
X160779816Y-73025174D01*
X160803401Y-73105495D01*
X160881133Y-73226449D01*
X160989794Y-73320603D01*
X161120579Y-73380331D01*
X161130360Y-73381737D01*
X160501519Y-74010576D01*
X160585315Y-74069250D01*
X160799401Y-74169080D01*
X160799410Y-74169084D01*
X161027567Y-74230218D01*
X161027578Y-74230220D01*
X161262892Y-74250808D01*
X161262896Y-74250808D01*
X161498209Y-74230220D01*
X161498216Y-74230219D01*
X161599143Y-74203176D01*
X161668993Y-74204839D01*
X161726856Y-74244001D01*
X161754360Y-74308230D01*
X161751012Y-74355043D01*
X161723885Y-74456286D01*
X161723882Y-74456299D01*
X161703287Y-74691702D01*
X161703287Y-74691703D01*
X161723882Y-74927106D01*
X161723884Y-74927116D01*
X161785040Y-75155358D01*
X161785042Y-75155362D01*
X161785043Y-75155366D01*
X161861404Y-75319122D01*
X161884911Y-75369533D01*
X161884913Y-75369537D01*
X161951718Y-75464943D01*
X162020451Y-75563104D01*
X162187545Y-75730198D01*
X162203689Y-75741502D01*
X162381111Y-75865735D01*
X162381113Y-75865736D01*
X162381116Y-75865738D01*
X162595283Y-75965606D01*
X162595289Y-75965607D01*
X162595290Y-75965608D01*
X162613693Y-75970539D01*
X162823538Y-76026766D01*
X163011864Y-76043242D01*
X163058945Y-76047362D01*
X163058946Y-76047362D01*
X163058947Y-76047362D01*
X163098180Y-76043929D01*
X163294354Y-76026766D01*
X163395045Y-75999786D01*
X163464895Y-76001449D01*
X163522757Y-76040612D01*
X163550261Y-76104840D01*
X163546913Y-76151653D01*
X163519936Y-76252337D01*
X163519933Y-76252350D01*
X163499338Y-76487753D01*
X163499338Y-76487754D01*
X163519933Y-76723157D01*
X163519935Y-76723167D01*
X163581091Y-76951409D01*
X163581093Y-76951413D01*
X163581094Y-76951417D01*
X163680962Y-77165584D01*
X163680964Y-77165588D01*
X163777769Y-77303839D01*
X163816502Y-77359155D01*
X163983596Y-77526249D01*
X164080381Y-77594019D01*
X164177162Y-77661786D01*
X164177164Y-77661787D01*
X164177167Y-77661789D01*
X164391334Y-77761657D01*
X164391340Y-77761658D01*
X164391341Y-77761659D01*
X164411506Y-77767062D01*
X164619589Y-77822817D01*
X164854997Y-77843413D01*
X164898044Y-77839646D01*
X164966541Y-77853411D01*
X165016725Y-77902026D01*
X165032660Y-77970054D01*
X165021645Y-78014685D01*
X164963802Y-78141341D01*
X164963800Y-78141349D01*
X164943320Y-78283805D01*
X164963800Y-78426260D01*
X164963801Y-78426264D01*
X165023587Y-78557175D01*
X165023588Y-78557176D01*
X165023589Y-78557178D01*
X165061208Y-78603861D01*
X165061211Y-78603864D01*
X165061216Y-78603870D01*
X165153153Y-78695807D01*
X165186638Y-78757130D01*
X165181654Y-78826822D01*
X165163091Y-78859951D01*
X165161030Y-78862581D01*
X165159582Y-78864430D01*
X164825428Y-79348525D01*
X164521113Y-79851913D01*
X164521109Y-79851921D01*
X164521108Y-79851921D01*
X164389753Y-80102193D01*
X164247747Y-80372756D01*
X164062326Y-80784736D01*
X164014036Y-80892030D01*
X164006328Y-80909155D01*
X163807652Y-81433009D01*
X163797739Y-81459147D01*
X163797738Y-81459148D01*
X163763239Y-81569858D01*
X163622735Y-82020740D01*
X163564741Y-82256024D01*
X163494213Y-82542161D01*
X163481960Y-82591869D01*
X163481960Y-82591868D01*
X163375925Y-83170464D01*
X163305020Y-83754391D01*
X163269501Y-84341540D01*
X163269500Y-84553884D01*
X163269498Y-84553929D01*
X163269499Y-84632971D01*
X163269263Y-84638376D01*
X163253679Y-84816545D01*
X163249926Y-84837832D01*
X163205745Y-85002728D01*
X163198353Y-85023039D01*
X163126207Y-85177761D01*
X163115399Y-85196481D01*
X163017483Y-85336321D01*
X163003589Y-85352879D01*
X162882879Y-85473589D01*
X162866321Y-85487483D01*
X162726481Y-85585399D01*
X162707761Y-85596207D01*
X162553039Y-85668353D01*
X162532728Y-85675745D01*
X162367832Y-85719926D01*
X162346545Y-85723679D01*
X162168376Y-85739263D01*
X162162971Y-85739499D01*
X162090076Y-85739498D01*
X162086794Y-85739498D01*
X162086793Y-85739498D01*
X162083459Y-85739498D01*
X162083424Y-85739500D01*
X156988240Y-85739500D01*
X156988220Y-85739499D01*
X156908191Y-85739499D01*
X156904447Y-85739386D01*
X156630460Y-85722815D01*
X156623021Y-85721911D01*
X156421267Y-85684940D01*
X156354873Y-85672773D01*
X156347608Y-85670982D01*
X156087342Y-85589880D01*
X156080346Y-85587226D01*
X155831750Y-85475343D01*
X155825115Y-85471860D01*
X155591827Y-85330834D01*
X155585668Y-85326583D01*
X155371070Y-85158456D01*
X155365463Y-85153488D01*
X155172701Y-84960724D01*
X155167732Y-84955115D01*
X154999611Y-84740523D01*
X154995361Y-84734366D01*
X154878021Y-84540259D01*
X154860186Y-84472706D01*
X154881704Y-84406233D01*
X154882407Y-84405214D01*
X154984606Y-84259258D01*
X155039180Y-84215637D01*
X155108678Y-84208443D01*
X155171033Y-84239966D01*
X155187753Y-84259262D01*
X155297684Y-84416261D01*
X155394925Y-84513501D01*
X155464778Y-84583354D01*
X155561563Y-84651124D01*
X155658344Y-84718891D01*
X155658346Y-84718892D01*
X155658349Y-84718894D01*
X155872516Y-84818762D01*
X155872522Y-84818763D01*
X155872523Y-84818764D01*
X155911535Y-84829217D01*
X156100771Y-84879922D01*
X156289097Y-84896398D01*
X156336178Y-84900518D01*
X156336179Y-84900518D01*
X156336180Y-84900518D01*
X156375413Y-84897085D01*
X156571587Y-84879922D01*
X156799842Y-84818762D01*
X157014008Y-84718894D01*
X157207580Y-84583354D01*
X157355144Y-84435789D01*
X157416466Y-84402306D01*
X157486157Y-84407290D01*
X157542091Y-84449161D01*
X157548362Y-84458375D01*
X157643859Y-84613199D01*
X157643862Y-84613203D01*
X157767833Y-84737174D01*
X157917054Y-84829215D01*
X157917059Y-84829217D01*
X158083481Y-84884364D01*
X158083488Y-84884365D01*
X158186198Y-84894858D01*
X158586178Y-84894858D01*
X158586179Y-84894857D01*
X158586179Y-83827877D01*
X158700980Y-83880305D01*
X158802204Y-83894859D01*
X158870154Y-83894859D01*
X158971378Y-83880305D01*
X159086179Y-83827877D01*
X159086179Y-84894858D01*
X159486151Y-84894858D01*
X159486165Y-84894857D01*
X159588876Y-84884364D01*
X159755298Y-84829217D01*
X159755303Y-84829215D01*
X159904524Y-84737174D01*
X160028494Y-84613204D01*
X160120535Y-84463983D01*
X160120537Y-84463978D01*
X160175684Y-84297556D01*
X160175685Y-84297549D01*
X160186178Y-84194845D01*
X160186179Y-84194832D01*
X160186179Y-83669859D01*
X159240148Y-83669859D01*
X159272698Y-83619210D01*
X159311179Y-83488154D01*
X159311179Y-83351564D01*
X159272698Y-83220508D01*
X159240148Y-83169859D01*
X160186178Y-83169859D01*
X160186178Y-82644887D01*
X160186177Y-82644872D01*
X160175684Y-82542161D01*
X160120537Y-82375739D01*
X160120535Y-82375734D01*
X160028494Y-82226513D01*
X159904524Y-82102543D01*
X159755303Y-82010502D01*
X159755298Y-82010500D01*
X159588876Y-81955353D01*
X159588869Y-81955352D01*
X159486165Y-81944859D01*
X159086179Y-81944859D01*
X159086179Y-83011840D01*
X158971378Y-82959413D01*
X158870154Y-82944859D01*
X158802204Y-82944859D01*
X158700980Y-82959413D01*
X158586179Y-83011840D01*
X158586179Y-81944859D01*
X158186207Y-81944859D01*
X158186191Y-81944860D01*
X158083481Y-81955353D01*
X157917059Y-82010500D01*
X157917054Y-82010502D01*
X157767833Y-82102543D01*
X157643862Y-82226514D01*
X157643859Y-82226518D01*
X157548362Y-82381342D01*
X157496414Y-82428067D01*
X157427451Y-82439288D01*
X157363369Y-82411445D01*
X157355143Y-82403927D01*
X157303696Y-82352480D01*
X157207580Y-82256364D01*
X157164950Y-82226514D01*
X157139554Y-82208731D01*
X157095930Y-82154153D01*
X157086679Y-82107157D01*
X157086679Y-78391282D01*
X157086740Y-78391070D01*
X157086740Y-78339858D01*
X157086741Y-78339858D01*
X157086740Y-77994183D01*
X157049309Y-77303850D01*
X157048590Y-77297235D01*
X156974561Y-76616566D01*
X156974561Y-76616567D01*
X156862710Y-75934316D01*
X156862710Y-75934317D01*
X156714089Y-75259139D01*
X156709430Y-75242359D01*
X156573658Y-74753355D01*
X156529132Y-74592988D01*
X156529132Y-74592989D01*
X156529130Y-74592982D01*
X156308380Y-73937825D01*
X156297496Y-73910509D01*
X156076813Y-73356642D01*
X156052483Y-73295579D01*
X155782340Y-72711679D01*
X155762193Y-72668132D01*
X155762193Y-72668133D01*
X155762192Y-72668130D01*
X155481183Y-72138093D01*
X155438360Y-72057321D01*
X155438360Y-72057322D01*
X155438357Y-72057316D01*
X155081928Y-71464931D01*
X154964036Y-71291055D01*
X154693947Y-70892705D01*
X154295040Y-70367954D01*
X154275564Y-70342334D01*
X153906934Y-69908352D01*
X153827994Y-69815417D01*
X153604930Y-69579933D01*
X153352552Y-69313502D01*
X153352547Y-69313497D01*
X153352543Y-69313493D01*
X153197359Y-69166496D01*
X152850635Y-68838064D01*
X152473115Y-68517397D01*
X152323720Y-68390500D01*
X152323715Y-68390496D01*
X151773337Y-67972111D01*
X151460544Y-67760033D01*
X151201114Y-67584136D01*
X151201113Y-67584136D01*
X151189849Y-67577359D01*
X150869016Y-67384321D01*
X150608729Y-67227712D01*
X150465820Y-67151947D01*
X149997912Y-66903879D01*
X149569557Y-66705702D01*
X149370462Y-66613591D01*
X148728220Y-66357700D01*
X148728219Y-66357700D01*
X148728214Y-66357698D01*
X148073056Y-66136951D01*
X147427012Y-65957579D01*
X147406915Y-65951999D01*
X147406911Y-65951998D01*
X147406907Y-65951997D01*
X147127984Y-65890602D01*
X146731719Y-65803378D01*
X146049471Y-65691531D01*
X145540788Y-65636209D01*
X145476270Y-65609392D01*
X145452622Y-65584061D01*
X145364674Y-65458458D01*
X145197580Y-65291364D01*
X145158446Y-65263962D01*
X145004013Y-65155826D01*
X145004009Y-65155824D01*
X145004007Y-65155823D01*
X144789842Y-65055956D01*
X144789838Y-65055955D01*
X144789834Y-65055953D01*
X144561592Y-64994797D01*
X144561582Y-64994795D01*
X144326180Y-64974200D01*
X144326178Y-64974200D01*
X144090775Y-64994795D01*
X144090765Y-64994797D01*
X143862523Y-65055953D01*
X143862514Y-65055957D01*
X143648350Y-65155823D01*
X143648348Y-65155824D01*
X143454776Y-65291364D01*
X143287684Y-65458456D01*
X143152144Y-65652028D01*
X143152143Y-65652030D01*
X143081568Y-65803379D01*
X143052277Y-65866195D01*
X143052273Y-65866203D01*
X142991117Y-66094445D01*
X142991115Y-66094455D01*
X142970520Y-66329858D01*
X142970520Y-66329859D01*
X142991115Y-66565262D01*
X142991117Y-66565272D01*
X143052273Y-66793514D01*
X143052275Y-66793518D01*
X143052276Y-66793522D01*
X143103738Y-66903882D01*
X143152144Y-67007689D01*
X143152146Y-67007693D01*
X143222802Y-67108599D01*
X143287680Y-67201255D01*
X143287685Y-67201261D01*
X143454776Y-67368352D01*
X143454782Y-67368357D01*
X143640337Y-67498284D01*
X143683962Y-67552861D01*
X143691156Y-67622359D01*
X143659633Y-67684714D01*
X143640337Y-67701434D01*
X143454779Y-67831362D01*
X143323649Y-67962492D01*
X143262326Y-67995976D01*
X143192634Y-67990992D01*
X143191532Y-67990575D01*
X143143430Y-67972111D01*
X143035025Y-67930499D01*
X143029108Y-67927865D01*
X142754225Y-67787809D01*
X142748601Y-67784562D01*
X142489872Y-67616544D01*
X142484618Y-67612728D01*
X142388287Y-67534723D01*
X142244853Y-67418575D01*
X142240045Y-67414245D01*
X142021889Y-67196093D01*
X142017554Y-67191278D01*
X141944262Y-67100772D01*
X141823409Y-66951533D01*
X141819592Y-66946279D01*
X141651566Y-66687547D01*
X141648319Y-66681923D01*
X141613501Y-66613591D01*
X141508262Y-66407052D01*
X141505626Y-66401133D01*
X141395063Y-66113117D01*
X141393059Y-66106948D01*
X141371535Y-66026620D01*
X141313207Y-65808947D01*
X141311861Y-65802612D01*
X141263595Y-65497891D01*
X141262919Y-65491466D01*
X141246764Y-65183256D01*
X141246679Y-65180010D01*
X141246679Y-64432559D01*
X141266364Y-64365520D01*
X141299554Y-64330985D01*
X141367580Y-64283354D01*
X141489508Y-64161425D01*
X141550827Y-64127943D01*
X141620519Y-64132927D01*
X141676453Y-64174798D01*
X141693368Y-64205776D01*
X141742381Y-64337187D01*
X141742385Y-64337194D01*
X141828631Y-64452403D01*
X141828634Y-64452406D01*
X141943843Y-64538652D01*
X141943850Y-64538656D01*
X142078696Y-64588950D01*
X142078695Y-64588950D01*
X142085623Y-64589694D01*
X142138306Y-64595359D01*
X143934051Y-64595358D01*
X143993662Y-64588950D01*
X144128510Y-64538655D01*
X144243725Y-64452405D01*
X144329975Y-64337190D01*
X144380270Y-64202342D01*
X144386679Y-64142732D01*
X144386679Y-64119359D01*
X144406364Y-64052320D01*
X144459168Y-64006565D01*
X144510679Y-63995359D01*
X148780174Y-63995359D01*
X148859055Y-63995359D01*
X149631978Y-64013214D01*
G37*
%TD.AperFunction*%
%TA.AperFunction,Conductor*%
G36*
X145631545Y-67156333D02*
G01*
X145635113Y-67156751D01*
X146279598Y-67251153D01*
X146283147Y-67251778D01*
X146921071Y-67383497D01*
X146924522Y-67384315D01*
X147553722Y-67552907D01*
X147557168Y-67553940D01*
X147577892Y-67560807D01*
X148175466Y-67758820D01*
X148178838Y-67760047D01*
X148784195Y-68000539D01*
X148787481Y-68001956D01*
X149377817Y-68277233D01*
X149381031Y-68278847D01*
X149954374Y-68587990D01*
X149957453Y-68589767D01*
X150511881Y-68931741D01*
X150514871Y-68933708D01*
X150926458Y-69221903D01*
X151048426Y-69307306D01*
X151051319Y-69309460D01*
X151562267Y-69713462D01*
X151565019Y-69715772D01*
X152051606Y-70148795D01*
X152054201Y-70151243D01*
X152432950Y-70529990D01*
X152514791Y-70611831D01*
X152517267Y-70614455D01*
X152621899Y-70732028D01*
X152950306Y-71101053D01*
X152952598Y-71103786D01*
X153356602Y-71614729D01*
X153358745Y-71617608D01*
X153732365Y-72151189D01*
X153734334Y-72154182D01*
X154073505Y-72704058D01*
X154076279Y-72708555D01*
X154078083Y-72711679D01*
X154387224Y-73285014D01*
X154388843Y-73288237D01*
X154664115Y-73878556D01*
X154665544Y-73881868D01*
X154906029Y-74487202D01*
X154907263Y-74490592D01*
X155112142Y-75108877D01*
X155113177Y-75112333D01*
X155281765Y-75741502D01*
X155282597Y-75745012D01*
X155414310Y-76382889D01*
X155414936Y-76386441D01*
X155509343Y-77030932D01*
X155509761Y-77034509D01*
X155514683Y-77090759D01*
X155566530Y-77683371D01*
X155566740Y-77686972D01*
X155585679Y-78337731D01*
X155585679Y-82107157D01*
X155565994Y-82174196D01*
X155532804Y-82208731D01*
X155464774Y-82256366D01*
X155297684Y-82423456D01*
X155187754Y-82580454D01*
X155133177Y-82624079D01*
X155063679Y-82631273D01*
X155001324Y-82599750D01*
X154984604Y-82580454D01*
X154874673Y-82423456D01*
X154707581Y-82256365D01*
X154707574Y-82256360D01*
X154695196Y-82247693D01*
X154639553Y-82208731D01*
X154514013Y-82120826D01*
X154514009Y-82120824D01*
X154470424Y-82100500D01*
X154299842Y-82020956D01*
X154299838Y-82020955D01*
X154299834Y-82020953D01*
X154248728Y-82007260D01*
X154189067Y-81970895D01*
X154175832Y-81953464D01*
X154070118Y-81785223D01*
X153872610Y-81537560D01*
X153872607Y-81537556D01*
X153648616Y-81313570D01*
X153648610Y-81313565D01*
X153631319Y-81299776D01*
X153400949Y-81116063D01*
X153132728Y-80947529D01*
X153132725Y-80947527D01*
X152847330Y-80810088D01*
X152847316Y-80810082D01*
X152548336Y-80705464D01*
X152548323Y-80705460D01*
X152330829Y-80655817D01*
X152239492Y-80634970D01*
X152239488Y-80634969D01*
X152239479Y-80634968D01*
X151924714Y-80599501D01*
X151924711Y-80599500D01*
X151854039Y-80599500D01*
X151854037Y-80599500D01*
X151766322Y-80599500D01*
X151687441Y-80599499D01*
X151687440Y-80599499D01*
X151684417Y-80599499D01*
X151684398Y-80599500D01*
X145317078Y-80599500D01*
X145250039Y-80579815D01*
X145229397Y-80563181D01*
X145197581Y-80531365D01*
X145197580Y-80531364D01*
X145011584Y-80401128D01*
X144967960Y-80346551D01*
X144960767Y-80277052D01*
X144992289Y-80214698D01*
X145011584Y-80197978D01*
X145087552Y-80144784D01*
X144458712Y-79515945D01*
X144468494Y-79514539D01*
X144599279Y-79454811D01*
X144707940Y-79360657D01*
X144785672Y-79239703D01*
X144809255Y-79159383D01*
X145441104Y-79791232D01*
X145441105Y-79791232D01*
X145499777Y-79707441D01*
X145499779Y-79707437D01*
X145599608Y-79493351D01*
X145599612Y-79493342D01*
X145660746Y-79265185D01*
X145660748Y-79265174D01*
X145681336Y-79029860D01*
X145681336Y-79029857D01*
X145660748Y-78794543D01*
X145660746Y-78794532D01*
X145599612Y-78566375D01*
X145599608Y-78566366D01*
X145499779Y-78352282D01*
X145499778Y-78352280D01*
X145441104Y-78268485D01*
X145441104Y-78268484D01*
X144809255Y-78900334D01*
X144785672Y-78820015D01*
X144707940Y-78699061D01*
X144599279Y-78604907D01*
X144468494Y-78545179D01*
X144458712Y-78543772D01*
X145087552Y-77914932D01*
X145087552Y-77914931D01*
X145011584Y-77861739D01*
X144967959Y-77807163D01*
X144960765Y-77737664D01*
X144992287Y-77675310D01*
X145011578Y-77658593D01*
X145197580Y-77528354D01*
X145364674Y-77361260D01*
X145500214Y-77167689D01*
X145600082Y-76953522D01*
X145661242Y-76725267D01*
X145681838Y-76489859D01*
X145680812Y-76478137D01*
X145672790Y-76386441D01*
X145661242Y-76254451D01*
X145600082Y-76026196D01*
X145500214Y-75812030D01*
X145442914Y-75730196D01*
X145364673Y-75618456D01*
X145197581Y-75451365D01*
X145197575Y-75451360D01*
X145012021Y-75321434D01*
X144968396Y-75266857D01*
X144961202Y-75197359D01*
X144992725Y-75135004D01*
X145012021Y-75118284D01*
X145047422Y-75093496D01*
X145197580Y-74988354D01*
X145364674Y-74821260D01*
X145500214Y-74627689D01*
X145600082Y-74413522D01*
X145661242Y-74185267D01*
X145681838Y-73949859D01*
X145661242Y-73714451D01*
X145600082Y-73486196D01*
X145500214Y-73272030D01*
X145484232Y-73249204D01*
X145364673Y-73078456D01*
X145197581Y-72911365D01*
X145197575Y-72911360D01*
X145012021Y-72781434D01*
X144968396Y-72726857D01*
X144961202Y-72657359D01*
X144992725Y-72595004D01*
X145012021Y-72578284D01*
X145038989Y-72559401D01*
X145197580Y-72448354D01*
X145364674Y-72281260D01*
X145500214Y-72087689D01*
X145600082Y-71873522D01*
X145661242Y-71645267D01*
X145681838Y-71409859D01*
X145661242Y-71174451D01*
X145614194Y-70998865D01*
X145600084Y-70946203D01*
X145600083Y-70946202D01*
X145600082Y-70946196D01*
X145500214Y-70732030D01*
X145470220Y-70689193D01*
X145364673Y-70538456D01*
X145197581Y-70371365D01*
X145197575Y-70371360D01*
X145012021Y-70241434D01*
X144968396Y-70186857D01*
X144961202Y-70117359D01*
X144992725Y-70055004D01*
X145012021Y-70038284D01*
X145119260Y-69963194D01*
X145197580Y-69908354D01*
X145364674Y-69741260D01*
X145500214Y-69547689D01*
X145600082Y-69333522D01*
X145661242Y-69105267D01*
X145681838Y-68869859D01*
X145661242Y-68634451D01*
X145600082Y-68406196D01*
X145500214Y-68192030D01*
X145478056Y-68160384D01*
X145364673Y-67998456D01*
X145197581Y-67831365D01*
X145197575Y-67831360D01*
X145012021Y-67701434D01*
X144968396Y-67646857D01*
X144961202Y-67577359D01*
X144992725Y-67515004D01*
X145012021Y-67498284D01*
X145057844Y-67466198D01*
X145197580Y-67368354D01*
X145364674Y-67201260D01*
X145368654Y-67195574D01*
X145423227Y-67151947D01*
X145481036Y-67143165D01*
X145631545Y-67156333D01*
G37*
%TD.AperFunction*%
%TA.AperFunction,Conductor*%
G36*
X132472395Y-61740185D02*
G01*
X132518150Y-61792989D01*
X132528094Y-61862147D01*
X132499069Y-61925703D01*
X132440291Y-61963477D01*
X132437449Y-61964275D01*
X132412523Y-61970953D01*
X132412514Y-61970957D01*
X132198350Y-62070823D01*
X132198348Y-62070824D01*
X132004776Y-62206364D01*
X131837684Y-62373456D01*
X131702144Y-62567028D01*
X131702143Y-62567030D01*
X131602277Y-62781194D01*
X131602273Y-62781203D01*
X131541117Y-63009445D01*
X131541115Y-63009455D01*
X131520520Y-63244858D01*
X131520520Y-63244859D01*
X131541115Y-63480262D01*
X131541117Y-63480272D01*
X131602273Y-63708514D01*
X131602278Y-63708528D01*
X131619064Y-63744525D01*
X131629556Y-63813602D01*
X131601036Y-63877386D01*
X131542559Y-63915625D01*
X131472692Y-63916179D01*
X131413616Y-63878872D01*
X131399295Y-63858929D01*
X131390400Y-63843523D01*
X131390397Y-63843517D01*
X131367442Y-63813602D01*
X131227638Y-63631408D01*
X131227631Y-63631400D01*
X131038594Y-63442363D01*
X131038587Y-63442357D01*
X130826488Y-63279608D01*
X130826485Y-63279606D01*
X130826480Y-63279602D01*
X130594943Y-63145921D01*
X130347938Y-63043606D01*
X130347937Y-63043605D01*
X130347928Y-63043602D01*
X130089702Y-62974407D01*
X130089688Y-62974404D01*
X129824622Y-62939502D01*
X129769820Y-62939501D01*
X129769817Y-62939501D01*
X129690954Y-62939500D01*
X129690945Y-62939500D01*
X129690916Y-62939499D01*
X129612064Y-62939498D01*
X129612063Y-62939498D01*
X129609154Y-62939498D01*
X129608593Y-62939527D01*
X129523494Y-62939527D01*
X129432305Y-62948507D01*
X129190238Y-62972345D01*
X129190233Y-62972345D01*
X128861768Y-63037677D01*
X128861766Y-63037677D01*
X128541307Y-63134884D01*
X128541299Y-63134887D01*
X128231920Y-63263032D01*
X128231916Y-63263033D01*
X127936578Y-63420890D01*
X127936562Y-63420899D01*
X127658139Y-63606930D01*
X127658113Y-63606949D01*
X127399258Y-63819380D01*
X127346299Y-63872335D01*
X127346269Y-63872362D01*
X127280852Y-63937780D01*
X127223832Y-63994798D01*
X127223815Y-63994817D01*
X123683907Y-67534723D01*
X123661325Y-67552579D01*
X123621502Y-67577142D01*
X123615835Y-67581624D01*
X123615799Y-67581578D01*
X123609950Y-67586343D01*
X123609987Y-67586387D01*
X123604462Y-67591023D01*
X123604456Y-67591028D01*
X123604456Y-67591029D01*
X123551749Y-67646894D01*
X121482626Y-69716017D01*
X115274507Y-75924134D01*
X115237185Y-75961456D01*
X115235114Y-75963434D01*
X114939717Y-76232724D01*
X114935309Y-76236385D01*
X114617469Y-76476407D01*
X114612742Y-76479645D01*
X114274108Y-76689319D01*
X114269102Y-76692107D01*
X113912578Y-76869636D01*
X113907337Y-76871951D01*
X113535936Y-77015832D01*
X113530503Y-77017653D01*
X113147432Y-77126647D01*
X113141854Y-77127959D01*
X112750342Y-77201147D01*
X112744667Y-77201939D01*
X112348083Y-77238689D01*
X112342359Y-77238954D01*
X111944073Y-77238955D01*
X111938349Y-77238690D01*
X111590473Y-77206457D01*
X111541761Y-77201943D01*
X111536090Y-77201152D01*
X111144586Y-77127969D01*
X111139009Y-77126658D01*
X110755918Y-77017661D01*
X110750489Y-77015841D01*
X110379101Y-76871968D01*
X110373860Y-76869654D01*
X110162427Y-76764375D01*
X110017312Y-76692117D01*
X110012318Y-76689335D01*
X109930922Y-76638937D01*
X109884288Y-76586910D01*
X109872673Y-76522704D01*
X109875259Y-76493157D01*
X109854663Y-76257749D01*
X109827533Y-76156497D01*
X109829196Y-76086650D01*
X109868358Y-76028787D01*
X109932587Y-76001283D01*
X109979402Y-76004631D01*
X110080328Y-76031674D01*
X110080335Y-76031675D01*
X110315649Y-76052263D01*
X110315653Y-76052263D01*
X110550966Y-76031675D01*
X110550977Y-76031673D01*
X110779134Y-75970539D01*
X110779143Y-75970535D01*
X110993229Y-75870706D01*
X110993233Y-75870704D01*
X111077024Y-75812032D01*
X111077024Y-75812031D01*
X110448184Y-75183192D01*
X110457966Y-75181786D01*
X110588751Y-75122058D01*
X110697412Y-75027904D01*
X110775144Y-74906950D01*
X110798727Y-74826630D01*
X111430576Y-75458479D01*
X111430577Y-75458479D01*
X111489249Y-75374688D01*
X111489251Y-75374684D01*
X111589082Y-75160596D01*
X111589084Y-75160589D01*
X111650218Y-74932432D01*
X111650220Y-74932421D01*
X111670808Y-74697107D01*
X111670808Y-74697104D01*
X111650220Y-74461790D01*
X111650218Y-74461779D01*
X111623176Y-74360855D01*
X111624839Y-74291005D01*
X111664002Y-74233143D01*
X111728230Y-74205639D01*
X111775042Y-74208986D01*
X111876295Y-74236117D01*
X112064621Y-74252593D01*
X112111702Y-74256713D01*
X112111703Y-74256713D01*
X112111704Y-74256713D01*
X112150937Y-74253280D01*
X112347111Y-74236117D01*
X112575366Y-74174957D01*
X112789533Y-74075089D01*
X112983104Y-73939549D01*
X113150198Y-73772455D01*
X113285738Y-73578884D01*
X113385606Y-73364717D01*
X113446766Y-73136462D01*
X113467362Y-72901054D01*
X113446766Y-72665646D01*
X113419786Y-72564954D01*
X113421449Y-72495104D01*
X113460612Y-72437242D01*
X113524840Y-72409738D01*
X113571654Y-72413086D01*
X113672346Y-72440066D01*
X113845999Y-72455259D01*
X113907753Y-72460662D01*
X113907754Y-72460662D01*
X113907755Y-72460662D01*
X113969509Y-72455259D01*
X114143162Y-72440066D01*
X114371417Y-72378906D01*
X114371424Y-72378902D01*
X114375957Y-72377688D01*
X114445807Y-72379351D01*
X114455493Y-72382897D01*
X114726029Y-72494961D01*
X114726037Y-72494963D01*
X114726041Y-72494965D01*
X114726043Y-72494966D01*
X115068989Y-72599000D01*
X115068991Y-72599000D01*
X115068993Y-72599001D01*
X115420503Y-72668924D01*
X115777175Y-72704056D01*
X115777180Y-72704056D01*
X116135572Y-72704058D01*
X116492244Y-72668932D01*
X116843755Y-72599014D01*
X117186720Y-72494979D01*
X117517837Y-72357828D01*
X117833916Y-72188883D01*
X118131913Y-71989769D01*
X118408959Y-71762406D01*
X118535672Y-71635694D01*
X118591450Y-71579917D01*
X118591450Y-71579915D01*
X118601655Y-71569711D01*
X118601658Y-71569706D01*
X123606104Y-66565262D01*
X126638280Y-63533088D01*
X126676234Y-63495134D01*
X126750895Y-63425622D01*
X126991185Y-63201902D01*
X126994490Y-63199038D01*
X127327850Y-62930400D01*
X127331382Y-62927755D01*
X127683050Y-62683588D01*
X127686746Y-62681214D01*
X128001672Y-62494359D01*
X128054919Y-62462765D01*
X128058794Y-62460649D01*
X128441613Y-62269023D01*
X128445631Y-62267188D01*
X128841152Y-62103358D01*
X128845272Y-62101821D01*
X129251478Y-61966622D01*
X129255684Y-61965386D01*
X129670544Y-61859498D01*
X129674798Y-61858573D01*
X130096137Y-61782554D01*
X130100480Y-61781930D01*
X130526143Y-61736165D01*
X130530537Y-61735851D01*
X130960328Y-61720500D01*
X130960580Y-61720500D01*
X131039460Y-61720500D01*
X132405356Y-61720500D01*
X132472395Y-61740185D01*
G37*
%TD.AperFunction*%
%TA.AperFunction,Conductor*%
G36*
X128031148Y-72278072D02*
G01*
X128071376Y-72304952D01*
X128214776Y-72448352D01*
X128214782Y-72448357D01*
X128400337Y-72578284D01*
X128443962Y-72632861D01*
X128451156Y-72702359D01*
X128419633Y-72764714D01*
X128400337Y-72781434D01*
X128214776Y-72911364D01*
X128047684Y-73078456D01*
X127937223Y-73236212D01*
X127882646Y-73279837D01*
X127851834Y-73288028D01*
X127794482Y-73295579D01*
X127691557Y-73309130D01*
X127142088Y-73418427D01*
X127142082Y-73418428D01*
X127142080Y-73418429D01*
X127142081Y-73418429D01*
X126600945Y-73563428D01*
X126070444Y-73743511D01*
X125552857Y-73957904D01*
X125552853Y-73957905D01*
X125552848Y-73957908D01*
X125552849Y-73957908D01*
X125315233Y-74075088D01*
X125050399Y-74205691D01*
X124719212Y-74396902D01*
X124651312Y-74413375D01*
X124585285Y-74390523D01*
X124542094Y-74335601D01*
X124535453Y-74266048D01*
X124567469Y-74203945D01*
X124569474Y-74201891D01*
X124794872Y-73976493D01*
X124794877Y-73976490D01*
X124805080Y-73966286D01*
X124805082Y-73966286D01*
X124860859Y-73910509D01*
X125171448Y-73621335D01*
X125174765Y-73618462D01*
X125503478Y-73353567D01*
X125506993Y-73350936D01*
X125853755Y-73110173D01*
X125857470Y-73107786D01*
X126076376Y-72977903D01*
X126220522Y-72892376D01*
X126224386Y-72890266D01*
X126601892Y-72701301D01*
X126605889Y-72699476D01*
X126995899Y-72537929D01*
X127000027Y-72536389D01*
X127400595Y-72403069D01*
X127404811Y-72401832D01*
X127813858Y-72297432D01*
X127818149Y-72296498D01*
X127961682Y-72270603D01*
X128031148Y-72278072D01*
G37*
%TD.AperFunction*%
%TA.AperFunction,Conductor*%
G36*
X131698667Y-63960333D02*
G01*
X131756059Y-64000180D01*
X131761084Y-64006864D01*
X131837684Y-64116260D01*
X132004778Y-64283354D01*
X132101563Y-64351124D01*
X132198344Y-64418891D01*
X132198346Y-64418892D01*
X132198349Y-64418894D01*
X132247373Y-64441754D01*
X132313773Y-64472717D01*
X132366212Y-64518889D01*
X132384307Y-64568914D01*
X132421548Y-64851789D01*
X132533076Y-65412486D01*
X132681040Y-65964707D01*
X132681041Y-65964707D01*
X132864805Y-66506061D01*
X133083578Y-67034229D01*
X133336431Y-67546968D01*
X133336431Y-67546969D01*
X133578814Y-67966789D01*
X133622272Y-68042060D01*
X133777033Y-68273677D01*
X133890553Y-68443574D01*
X133939885Y-68517404D01*
X134140046Y-68778260D01*
X134282272Y-68963614D01*
X134287907Y-68970957D01*
X134664847Y-69400777D01*
X135069092Y-69805024D01*
X135186917Y-69908354D01*
X135498898Y-70181956D01*
X135498902Y-70181959D01*
X135498910Y-70181966D01*
X135952461Y-70529990D01*
X136427803Y-70847605D01*
X136922901Y-71133451D01*
X137435633Y-71386305D01*
X137963805Y-71605082D01*
X138427263Y-71762406D01*
X138505170Y-71788852D01*
X139057358Y-71936811D01*
X139057359Y-71936811D01*
X139057365Y-71936813D01*
X139323576Y-71989766D01*
X139618069Y-72048345D01*
X139759769Y-72067000D01*
X140184868Y-72122967D01*
X140755334Y-72160359D01*
X140953460Y-72160359D01*
X143138478Y-72160359D01*
X143205517Y-72180044D01*
X143240052Y-72213235D01*
X143287684Y-72281260D01*
X143454776Y-72448352D01*
X143454782Y-72448357D01*
X143640337Y-72578284D01*
X143683962Y-72632861D01*
X143691156Y-72702359D01*
X143659633Y-72764714D01*
X143640337Y-72781434D01*
X143454776Y-72911364D01*
X143287685Y-73078455D01*
X143240053Y-73146482D01*
X143185476Y-73190107D01*
X143138478Y-73199359D01*
X139950799Y-73199359D01*
X139415192Y-73181824D01*
X139411142Y-73181559D01*
X138879862Y-73129232D01*
X138875839Y-73128702D01*
X138349111Y-73041739D01*
X138345131Y-73040948D01*
X137825215Y-72919720D01*
X137821295Y-72918670D01*
X137310417Y-72763697D01*
X137306574Y-72762392D01*
X136806947Y-72574346D01*
X136803198Y-72572793D01*
X136543794Y-72455259D01*
X136316903Y-72352455D01*
X136313299Y-72350678D01*
X135842454Y-72099006D01*
X135838946Y-72096981D01*
X135775168Y-72057321D01*
X135385586Y-71815063D01*
X135382219Y-71812813D01*
X134948273Y-71501852D01*
X134945054Y-71499382D01*
X134532371Y-71160702D01*
X134529320Y-71158026D01*
X134373621Y-71012198D01*
X134139665Y-70793074D01*
X134136825Y-70790234D01*
X133771873Y-70400578D01*
X133769197Y-70397527D01*
X133656276Y-70259933D01*
X133430504Y-69984828D01*
X133428059Y-69981642D01*
X133117085Y-69547679D01*
X133114830Y-69544304D01*
X133061902Y-69459188D01*
X132832912Y-69090942D01*
X132830898Y-69087454D01*
X132579214Y-68616587D01*
X132577449Y-68613007D01*
X132357105Y-68126698D01*
X132355559Y-68122967D01*
X132167505Y-67623319D01*
X132166202Y-67619480D01*
X132155481Y-67584137D01*
X132011223Y-67108585D01*
X132010177Y-67104679D01*
X131888945Y-66584741D01*
X131888160Y-66580790D01*
X131885596Y-66565262D01*
X131801195Y-66054052D01*
X131800668Y-66050054D01*
X131748339Y-65518742D01*
X131748075Y-65514706D01*
X131731055Y-64994795D01*
X131730541Y-64979100D01*
X131730540Y-64979099D01*
X131730500Y-64977852D01*
X131730500Y-64893424D01*
X131730497Y-64893395D01*
X131730497Y-64845374D01*
X131695595Y-64580305D01*
X131662723Y-64457636D01*
X131626393Y-64322059D01*
X131590731Y-64235965D01*
X131544948Y-64125441D01*
X131537479Y-64055973D01*
X131568753Y-63993493D01*
X131628841Y-63957840D01*
X131698667Y-63960333D01*
G37*
%TD.AperFunction*%
%TA.AperFunction,Conductor*%
G36*
X128029234Y-69736158D02*
G01*
X128069462Y-69763038D01*
X128214776Y-69908352D01*
X128214782Y-69908357D01*
X128400337Y-70038284D01*
X128443962Y-70092861D01*
X128451156Y-70162359D01*
X128419633Y-70224714D01*
X128400337Y-70241434D01*
X128214776Y-70371364D01*
X128047687Y-70538453D01*
X127929018Y-70707930D01*
X127874441Y-70751555D01*
X127851633Y-70758424D01*
X127387540Y-70850734D01*
X127387539Y-70850734D01*
X126914704Y-70977427D01*
X126761356Y-71029481D01*
X126451167Y-71134774D01*
X126451163Y-71134775D01*
X126451156Y-71134778D01*
X125998916Y-71322101D01*
X125559880Y-71538609D01*
X125559879Y-71538609D01*
X125135962Y-71783358D01*
X125135960Y-71783359D01*
X125135956Y-71783362D01*
X124728942Y-72055321D01*
X124342794Y-72351626D01*
X124340582Y-72353323D01*
X124179076Y-72494961D01*
X123972553Y-72676078D01*
X123936952Y-72711679D01*
X123901738Y-72746893D01*
X123840414Y-72780377D01*
X123770723Y-72775392D01*
X123714789Y-72733521D01*
X123690373Y-72668056D01*
X123705225Y-72599783D01*
X123716297Y-72582929D01*
X123828699Y-72438899D01*
X123830626Y-72436552D01*
X124280494Y-71915031D01*
X124282501Y-71912817D01*
X124757162Y-71414266D01*
X124759777Y-71411680D01*
X125076617Y-71116689D01*
X125079932Y-71113818D01*
X125416695Y-70842436D01*
X125420210Y-70839805D01*
X125775464Y-70593146D01*
X125779179Y-70590759D01*
X126063992Y-70421771D01*
X126151121Y-70370074D01*
X126154985Y-70367964D01*
X126541746Y-70174367D01*
X126545721Y-70172551D01*
X126945306Y-70007039D01*
X126949408Y-70005508D01*
X127359802Y-69868919D01*
X127364009Y-69867684D01*
X127783077Y-69760726D01*
X127787367Y-69759792D01*
X127959767Y-69728689D01*
X128029234Y-69736158D01*
G37*
%TD.AperFunction*%
%TA.AperFunction,Conductor*%
G36*
X130333501Y-60020185D02*
G01*
X130379256Y-60072989D01*
X130389200Y-60142147D01*
X130360175Y-60205703D01*
X130301397Y-60243477D01*
X130274572Y-60248234D01*
X130231182Y-60251078D01*
X130219171Y-60251866D01*
X129851114Y-60300322D01*
X129728428Y-60316475D01*
X129608693Y-60340292D01*
X129242965Y-60413041D01*
X129229836Y-60416559D01*
X128764870Y-60541146D01*
X128764856Y-60541150D01*
X128764855Y-60541151D01*
X128296148Y-60700257D01*
X127838850Y-60889677D01*
X127838846Y-60889678D01*
X127838841Y-60889681D01*
X127838842Y-60889681D01*
X127394920Y-61108600D01*
X126987691Y-61343714D01*
X126966253Y-61356091D01*
X126966252Y-61356091D01*
X126554701Y-61631082D01*
X126554700Y-61631082D01*
X126162384Y-61932117D01*
X126162010Y-61932404D01*
X125789874Y-62258760D01*
X125789874Y-62258759D01*
X125614867Y-62433765D01*
X125559088Y-62489544D01*
X117475642Y-70572989D01*
X117472914Y-70575557D01*
X117283082Y-70743731D01*
X117277183Y-70748353D01*
X117070027Y-70891342D01*
X117063614Y-70895219D01*
X116840725Y-71012198D01*
X116833902Y-71015269D01*
X116656537Y-71082534D01*
X116598537Y-71104530D01*
X116591382Y-71106759D01*
X116346977Y-71166998D01*
X116339606Y-71168348D01*
X116089722Y-71198688D01*
X116082243Y-71199140D01*
X115971900Y-71199140D01*
X115904861Y-71179455D01*
X115859106Y-71126651D01*
X115849162Y-71057493D01*
X115878187Y-70993937D01*
X115920385Y-70962347D01*
X115977178Y-70936411D01*
X116023861Y-70898792D01*
X117293643Y-69629008D01*
X117331264Y-69582325D01*
X117391052Y-69451409D01*
X117411533Y-69308952D01*
X117391052Y-69166495D01*
X117388148Y-69160137D01*
X117331265Y-69035581D01*
X117331264Y-69035580D01*
X117331264Y-69035579D01*
X117293645Y-68988896D01*
X117293640Y-68988891D01*
X117293636Y-68988886D01*
X117265739Y-68960989D01*
X117232254Y-68899666D01*
X117237238Y-68829974D01*
X117265737Y-68785629D01*
X123322955Y-62728411D01*
X123731266Y-62344054D01*
X123734027Y-62341609D01*
X124163370Y-61983799D01*
X124166290Y-61981511D01*
X124616466Y-61650266D01*
X124619492Y-61648178D01*
X125088844Y-61344721D01*
X125092006Y-61342809D01*
X125578819Y-61068247D01*
X125582105Y-61066523D01*
X126084626Y-60821846D01*
X126087964Y-60820343D01*
X126604345Y-60606453D01*
X126607796Y-60605145D01*
X127136116Y-60422834D01*
X127139638Y-60421736D01*
X127678025Y-60271651D01*
X127681632Y-60270762D01*
X128228076Y-60153463D01*
X128231681Y-60152801D01*
X128784239Y-60068704D01*
X128787911Y-60068258D01*
X129344546Y-60017676D01*
X129348203Y-60017455D01*
X129908714Y-60000520D01*
X129908714Y-60000519D01*
X129909366Y-60000500D01*
X129987595Y-60000500D01*
X130266462Y-60000500D01*
X130333501Y-60020185D01*
G37*
%TD.AperFunction*%
%TA.AperFunction,Conductor*%
G36*
X135666179Y-64575492D02*
G01*
X135879662Y-64518292D01*
X135879671Y-64518288D01*
X136093757Y-64418459D01*
X136287261Y-64282964D01*
X136454284Y-64115941D01*
X136584298Y-63930264D01*
X136638875Y-63886640D01*
X136708374Y-63879447D01*
X136770728Y-63910969D01*
X136787448Y-63930264D01*
X136917684Y-64116260D01*
X137084778Y-64283354D01*
X137181563Y-64351124D01*
X137278344Y-64418891D01*
X137278346Y-64418892D01*
X137278349Y-64418894D01*
X137492516Y-64518762D01*
X137720771Y-64579922D01*
X137897213Y-64595359D01*
X137956178Y-64600518D01*
X137956179Y-64600518D01*
X137956180Y-64600518D01*
X138015145Y-64595359D01*
X138191587Y-64579922D01*
X138419842Y-64518762D01*
X138634009Y-64418894D01*
X138827580Y-64283354D01*
X138994674Y-64116260D01*
X139124604Y-63930701D01*
X139179181Y-63887076D01*
X139248679Y-63879882D01*
X139311034Y-63911405D01*
X139327754Y-63930701D01*
X139457680Y-64116255D01*
X139457685Y-64116261D01*
X139624774Y-64283351D01*
X139624777Y-64283353D01*
X139624778Y-64283354D01*
X139692802Y-64330984D01*
X139736427Y-64385560D01*
X139745679Y-64432559D01*
X139745679Y-65097938D01*
X139745678Y-65097960D01*
X139745678Y-65128700D01*
X139745599Y-65128969D01*
X139745602Y-65351644D01*
X139745602Y-65377070D01*
X139779932Y-65769428D01*
X139848329Y-66157301D01*
X139950270Y-66537736D01*
X140084980Y-66907839D01*
X140084981Y-66907841D01*
X140251434Y-67264791D01*
X140439787Y-67591023D01*
X140448366Y-67605881D01*
X140488135Y-67662676D01*
X140674278Y-67928510D01*
X140674278Y-67928509D01*
X140927446Y-68230217D01*
X141205947Y-68508713D01*
X141507662Y-68761877D01*
X141830292Y-68987781D01*
X141958124Y-69061583D01*
X142171378Y-69184703D01*
X142171382Y-69184704D01*
X142171384Y-69184706D01*
X142237930Y-69215736D01*
X142528346Y-69351155D01*
X142898445Y-69485857D01*
X142898444Y-69485856D01*
X142898447Y-69485857D01*
X143109270Y-69542344D01*
X143113842Y-69543569D01*
X143173503Y-69579933D01*
X143183324Y-69592220D01*
X143287684Y-69741260D01*
X143454776Y-69908352D01*
X143454782Y-69908357D01*
X143640337Y-70038284D01*
X143683962Y-70092861D01*
X143691156Y-70162359D01*
X143659633Y-70224714D01*
X143640337Y-70241434D01*
X143454776Y-70371364D01*
X143287685Y-70538455D01*
X143240053Y-70606482D01*
X143185476Y-70650107D01*
X143138478Y-70659359D01*
X141041183Y-70659359D01*
X140527559Y-70641013D01*
X140523143Y-70640697D01*
X140069132Y-70591885D01*
X140014364Y-70585996D01*
X140009984Y-70585367D01*
X139506369Y-70494504D01*
X139502056Y-70493566D01*
X139006213Y-70367008D01*
X139001966Y-70365761D01*
X138516434Y-70204159D01*
X138512286Y-70202612D01*
X138170649Y-70061101D01*
X138039502Y-70006778D01*
X138035482Y-70004942D01*
X137577882Y-69775881D01*
X137573996Y-69773759D01*
X137133894Y-69512633D01*
X137130169Y-69510239D01*
X136875650Y-69333523D01*
X136709817Y-69218382D01*
X136706283Y-69215736D01*
X136683197Y-69197132D01*
X136307839Y-68894648D01*
X136304498Y-68891753D01*
X135929953Y-68543038D01*
X135926840Y-68539926D01*
X135578126Y-68165378D01*
X135575237Y-68162043D01*
X135254135Y-67763577D01*
X135251482Y-67760033D01*
X135183885Y-67662675D01*
X134959619Y-67339669D01*
X134957243Y-67335970D01*
X134907073Y-67251413D01*
X134817695Y-67100772D01*
X134696123Y-66895872D01*
X134694001Y-66891987D01*
X134644714Y-66793523D01*
X134464939Y-66434377D01*
X134463107Y-66430364D01*
X134450994Y-66401121D01*
X134350002Y-66157301D01*
X134267275Y-65957579D01*
X134265728Y-65953431D01*
X134236696Y-65866203D01*
X134104114Y-65467859D01*
X134102887Y-65463679D01*
X133976323Y-64967800D01*
X133975387Y-64963494D01*
X133972257Y-64946146D01*
X133884529Y-64459891D01*
X133883900Y-64455515D01*
X133871179Y-64337190D01*
X133860296Y-64235963D01*
X133872702Y-64167205D01*
X133895907Y-64135027D01*
X133914672Y-64116262D01*
X133914672Y-64116261D01*
X133914674Y-64116260D01*
X134044909Y-63930264D01*
X134099486Y-63886640D01*
X134168984Y-63879446D01*
X134231339Y-63910969D01*
X134248058Y-63930264D01*
X134378069Y-64115937D01*
X134545096Y-64282964D01*
X134738600Y-64418459D01*
X134952686Y-64518288D01*
X134952695Y-64518292D01*
X135166179Y-64575493D01*
X135166179Y-63680360D01*
X135273864Y-63729539D01*
X135380416Y-63744859D01*
X135451942Y-63744859D01*
X135558494Y-63729539D01*
X135666179Y-63680360D01*
X135666179Y-64575492D01*
G37*
%TD.AperFunction*%
%TA.AperFunction,Conductor*%
G36*
X139042939Y-60000584D02*
G01*
X139377219Y-60018105D01*
X139383643Y-60018781D01*
X139712646Y-60070891D01*
X139718994Y-60072240D01*
X140040742Y-60158454D01*
X140046910Y-60160457D01*
X140357886Y-60279830D01*
X140363806Y-60282465D01*
X140660621Y-60433700D01*
X140666224Y-60436936D01*
X140945597Y-60618363D01*
X140950825Y-60622162D01*
X141209704Y-60831797D01*
X141214521Y-60836135D01*
X141450051Y-61071664D01*
X141454396Y-61076490D01*
X141664019Y-61335350D01*
X141667836Y-61340604D01*
X141849253Y-61619960D01*
X141852500Y-61625584D01*
X141950384Y-61817688D01*
X141963280Y-61886357D01*
X141937004Y-61951097D01*
X141914211Y-61973249D01*
X141828631Y-62037314D01*
X141742385Y-62152523D01*
X141742382Y-62152528D01*
X141693368Y-62283942D01*
X141651496Y-62339875D01*
X141586032Y-62364292D01*
X141517759Y-62349440D01*
X141489505Y-62328289D01*
X141367581Y-62206365D01*
X141367574Y-62206360D01*
X141174013Y-62070826D01*
X141174010Y-62070824D01*
X141174009Y-62070824D01*
X141089924Y-62031614D01*
X141009396Y-61994063D01*
X140956957Y-61947890D01*
X140948522Y-61932117D01*
X140920633Y-61869479D01*
X140920630Y-61869472D01*
X140918084Y-61865063D01*
X140762078Y-61594860D01*
X140762075Y-61594855D01*
X140588595Y-61356088D01*
X140575678Y-61338309D01*
X140575677Y-61338308D01*
X140575675Y-61338305D01*
X140511835Y-61267406D01*
X140363489Y-61102656D01*
X140256296Y-61006141D01*
X140127834Y-60890476D01*
X140049875Y-60833837D01*
X139871283Y-60704085D01*
X139596659Y-60545535D01*
X139596653Y-60545532D01*
X139596646Y-60545528D01*
X139306970Y-60416560D01*
X139306964Y-60416558D01*
X139005397Y-60318575D01*
X139005381Y-60318570D01*
X139005379Y-60318570D01*
X139005376Y-60318569D01*
X139005371Y-60318568D01*
X138695220Y-60252646D01*
X138695210Y-60252644D01*
X138695201Y-60252643D01*
X138649310Y-60247820D01*
X138584699Y-60221237D01*
X138544713Y-60163940D01*
X138542053Y-60094121D01*
X138577562Y-60033947D01*
X138639966Y-60002523D01*
X138662274Y-60000500D01*
X138962437Y-60000500D01*
X139039694Y-60000500D01*
X139042939Y-60000584D01*
G37*
%TD.AperFunction*%
%TA.AperFunction,Conductor*%
G36*
X137681401Y-57285599D02*
G01*
X138273963Y-57303922D01*
X138968397Y-57335670D01*
X139560026Y-57372294D01*
X140253201Y-57425177D01*
X140843264Y-57480054D01*
X141534771Y-57554049D01*
X142122552Y-57627099D01*
X142811799Y-57722162D01*
X143396644Y-57813282D01*
X144083111Y-57929363D01*
X144419194Y-57992422D01*
X144664421Y-58038434D01*
X144776655Y-58060947D01*
X145347493Y-58175457D01*
X145924557Y-58302310D01*
X146603781Y-58460222D01*
X147061498Y-58575778D01*
X147175967Y-58604678D01*
X147186906Y-58607575D01*
X147850735Y-58783376D01*
X148417412Y-58945227D01*
X149087209Y-59144625D01*
X149629286Y-59317741D01*
X149647782Y-59323647D01*
X150312078Y-59543641D01*
X150865803Y-59739534D01*
X151437372Y-59948341D01*
X151524111Y-59980029D01*
X151581944Y-60002523D01*
X152070403Y-60192508D01*
X152722247Y-60453404D01*
X153119363Y-60622171D01*
X153260396Y-60682107D01*
X153905306Y-60963305D01*
X154434690Y-61207867D01*
X155072174Y-61509252D01*
X155592129Y-61769250D01*
X156162034Y-62060241D01*
X156221762Y-62090738D01*
X156731615Y-62365701D01*
X156866214Y-62439678D01*
X157353018Y-62707231D01*
X157753553Y-62939498D01*
X157852068Y-62996626D01*
X158464797Y-63358110D01*
X158565736Y-63420890D01*
X158952455Y-63661416D01*
X159478185Y-63993562D01*
X159556135Y-64042809D01*
X160031397Y-64359184D01*
X160626007Y-64760692D01*
X160754087Y-64851789D01*
X161088233Y-65089451D01*
X161673319Y-65511025D01*
X162121711Y-65851293D01*
X162697142Y-66293142D01*
X163033620Y-66565272D01*
X163130755Y-66643831D01*
X163206443Y-66705702D01*
X163696518Y-67106313D01*
X164114376Y-67466180D01*
X164257944Y-67591023D01*
X164670482Y-67949754D01*
X164771190Y-68042058D01*
X165068356Y-68314426D01*
X165071413Y-68317227D01*
X165129862Y-68371265D01*
X165618128Y-68822682D01*
X165762658Y-68963614D01*
X166000847Y-69195875D01*
X166538577Y-69724291D01*
X166901118Y-70100358D01*
X167430904Y-70653672D01*
X167621651Y-70864186D01*
X167758552Y-71015274D01*
X167771181Y-71029211D01*
X168278978Y-71592970D01*
X168294328Y-71610011D01*
X168324347Y-71645272D01*
X168608879Y-71979495D01*
X169128038Y-72592416D01*
X169182330Y-72660335D01*
X169411431Y-72946939D01*
X169743989Y-73364718D01*
X169931230Y-73599941D01*
X170173864Y-73923494D01*
X170703123Y-74631607D01*
X170884558Y-74889808D01*
X171443044Y-75686516D01*
X171501737Y-75775785D01*
X172081352Y-76658663D01*
X172146416Y-76757770D01*
X172815069Y-77847204D01*
X172815516Y-77847956D01*
X172815516Y-77847957D01*
X172863209Y-77928255D01*
X172894422Y-77963739D01*
X172986576Y-78068504D01*
X172986580Y-78068507D01*
X173133762Y-78183493D01*
X173133767Y-78183496D01*
X173133771Y-78183499D01*
X173133777Y-78183502D01*
X173139597Y-78186510D01*
X173190116Y-78234775D01*
X173194599Y-78243307D01*
X173483078Y-78848409D01*
X175543304Y-83169859D01*
X175731363Y-83564323D01*
X175743432Y-83617688D01*
X175743429Y-83720845D01*
X175743429Y-83720852D01*
X175777990Y-83904402D01*
X175777992Y-83904412D01*
X175798329Y-83956598D01*
X175798338Y-83956697D01*
X175811862Y-83991326D01*
X175907835Y-84248300D01*
X176094376Y-84747778D01*
X176108462Y-84785565D01*
X176252606Y-85172255D01*
X176481505Y-85845697D01*
X176662507Y-86381491D01*
X176668498Y-86401006D01*
X176864723Y-87040198D01*
X177035471Y-87602610D01*
X177215479Y-88257938D01*
X177371152Y-88834464D01*
X177530347Y-89489854D01*
X177669243Y-90075928D01*
X177808168Y-90732545D01*
X177929479Y-91325889D01*
X178048385Y-91984132D01*
X178072344Y-92123164D01*
X178151602Y-92583098D01*
X178250637Y-93243160D01*
X178335421Y-93846452D01*
X178414632Y-94508137D01*
X178480764Y-95114727D01*
X178540177Y-95777848D01*
X178587505Y-96386772D01*
X178627115Y-97050910D01*
X178655551Y-97661474D01*
X178675356Y-98326205D01*
X178684841Y-98937486D01*
X178684841Y-99602513D01*
X178675356Y-100213794D01*
X178655551Y-100878525D01*
X178627115Y-101489089D01*
X178587505Y-102153227D01*
X178540177Y-102762151D01*
X178480764Y-103425272D01*
X178414632Y-104031862D01*
X178335421Y-104693547D01*
X178250637Y-105296839D01*
X178151602Y-105956901D01*
X178048388Y-106555855D01*
X177929479Y-107214110D01*
X177808168Y-107807454D01*
X177669243Y-108464071D01*
X177530347Y-109050145D01*
X177371152Y-109705535D01*
X177215479Y-110282061D01*
X177035471Y-110937389D01*
X176864723Y-111499801D01*
X176662509Y-112158502D01*
X176481505Y-112694302D01*
X176252606Y-113367744D01*
X176094357Y-113792272D01*
X175812390Y-114547260D01*
X175811881Y-114548566D01*
X175811736Y-114548937D01*
X175777970Y-114635584D01*
X175743407Y-114819148D01*
X175743407Y-114819150D01*
X175743415Y-115011711D01*
X175741336Y-115011711D01*
X175731939Y-115065841D01*
X173321898Y-120230216D01*
X173275710Y-120282642D01*
X173266466Y-120287934D01*
X173133784Y-120356511D01*
X173133776Y-120356516D01*
X172986587Y-120471505D01*
X172863223Y-120611751D01*
X172815523Y-120692055D01*
X172146416Y-121782230D01*
X171501737Y-122764215D01*
X171443044Y-122853484D01*
X170884558Y-123650191D01*
X170703123Y-123908392D01*
X170173864Y-124616505D01*
X169931230Y-124940058D01*
X169411407Y-125593091D01*
X169128038Y-125947583D01*
X168608879Y-126560504D01*
X168294338Y-126929977D01*
X167771219Y-127510746D01*
X167430904Y-127886327D01*
X166901118Y-128439641D01*
X166538577Y-128815708D01*
X166000751Y-129344219D01*
X165618128Y-129717317D01*
X165071440Y-130222747D01*
X164670482Y-130590245D01*
X164114396Y-131073801D01*
X163696518Y-131433686D01*
X163130777Y-131896150D01*
X162697148Y-132246853D01*
X162121711Y-132688706D01*
X161673319Y-133028974D01*
X161088233Y-133450548D01*
X160625990Y-133779319D01*
X160031469Y-134180766D01*
X159556140Y-134497187D01*
X158952415Y-134878609D01*
X158464797Y-135181889D01*
X157852068Y-135543373D01*
X157353011Y-135832772D01*
X156731615Y-136174298D01*
X156221762Y-136449261D01*
X155592163Y-136770732D01*
X155072159Y-137030754D01*
X154434681Y-137332137D01*
X153905306Y-137576694D01*
X153260405Y-137857888D01*
X152722223Y-138086605D01*
X152070422Y-138347484D01*
X151524111Y-138559970D01*
X150865820Y-138800459D01*
X150312047Y-138996368D01*
X149647780Y-139216352D01*
X149087205Y-139395376D01*
X148417417Y-139594770D01*
X147850729Y-139756624D01*
X147175967Y-139935321D01*
X146603744Y-140079786D01*
X145924614Y-140237676D01*
X145347463Y-140364548D01*
X144664421Y-140501565D01*
X144083096Y-140610638D01*
X143396685Y-140726710D01*
X142811804Y-140817836D01*
X142122553Y-140912899D01*
X141534762Y-140985951D01*
X140843293Y-141059942D01*
X140253191Y-141114823D01*
X139560052Y-141167703D01*
X138968345Y-141204332D01*
X138274017Y-141236075D01*
X137681361Y-141254400D01*
X136986521Y-141264983D01*
X136393479Y-141264983D01*
X135698638Y-141254400D01*
X135105982Y-141236075D01*
X134411654Y-141204332D01*
X133819947Y-141167703D01*
X133126808Y-141114823D01*
X132536706Y-141059942D01*
X131845237Y-140985951D01*
X131257446Y-140912899D01*
X130568195Y-140817836D01*
X129983314Y-140726710D01*
X129296903Y-140610638D01*
X128715578Y-140501565D01*
X128032536Y-140364548D01*
X127455385Y-140237676D01*
X126776255Y-140079786D01*
X126204032Y-139935321D01*
X125529270Y-139756624D01*
X124962582Y-139594770D01*
X124292801Y-139395378D01*
X124182767Y-139360238D01*
X123732219Y-139216352D01*
X123067952Y-138996368D01*
X122514179Y-138800459D01*
X121855888Y-138559970D01*
X121309577Y-138347484D01*
X120657776Y-138086605D01*
X120119594Y-137857888D01*
X119474693Y-137576694D01*
X119181273Y-137441142D01*
X118945318Y-137332137D01*
X118307840Y-137030754D01*
X117787836Y-136770732D01*
X117158237Y-136449261D01*
X116648384Y-136174298D01*
X116026988Y-135832772D01*
X115527931Y-135543373D01*
X114915202Y-135181889D01*
X114628627Y-135003650D01*
X114427606Y-134878622D01*
X113823859Y-134497187D01*
X113348530Y-134180766D01*
X112754009Y-133779319D01*
X112291766Y-133450548D01*
X111706680Y-133028974D01*
X111258288Y-132688706D01*
X110682851Y-132246853D01*
X110249222Y-131896150D01*
X109683481Y-131433686D01*
X109265603Y-131073801D01*
X108709517Y-130590245D01*
X108308559Y-130222747D01*
X107761871Y-129717317D01*
X107507132Y-129468919D01*
X107379297Y-129344266D01*
X106972222Y-128944243D01*
X106841422Y-128815708D01*
X106478881Y-128439641D01*
X105949095Y-127886327D01*
X105726999Y-127641216D01*
X105608726Y-127510686D01*
X105085648Y-126929962D01*
X104870669Y-126677439D01*
X104771120Y-126560504D01*
X104251961Y-125947583D01*
X104152443Y-125823087D01*
X103968593Y-125593091D01*
X103448769Y-124940058D01*
X103319399Y-124767543D01*
X103206135Y-124616505D01*
X102731321Y-123981236D01*
X102676876Y-123908392D01*
X102495441Y-123650191D01*
X101936955Y-122853483D01*
X101878262Y-122764214D01*
X101233584Y-121782230D01*
X101058964Y-121497722D01*
X100564936Y-120692805D01*
X100516796Y-120611754D01*
X100516791Y-120611745D01*
X100393423Y-120471495D01*
X100357368Y-120443327D01*
X100246238Y-120356507D01*
X100246227Y-120356500D01*
X100187282Y-120326034D01*
X100136766Y-120277765D01*
X100131867Y-120268350D01*
X99013749Y-117874262D01*
X97648215Y-114950413D01*
X97636568Y-114897942D01*
X97636571Y-114819150D01*
X97602009Y-114635592D01*
X97592030Y-114609987D01*
X97592015Y-114609811D01*
X97568240Y-114548937D01*
X97568125Y-114548641D01*
X97568100Y-114548574D01*
X97285677Y-113792367D01*
X97127399Y-113367760D01*
X96898427Y-112694105D01*
X96717491Y-112158502D01*
X96515276Y-111499801D01*
X96344528Y-110937389D01*
X96164520Y-110282061D01*
X96057333Y-109885099D01*
X96008854Y-109705560D01*
X95849653Y-109050145D01*
X95710760Y-108464092D01*
X95571817Y-107807386D01*
X95450525Y-107214137D01*
X95331610Y-106555849D01*
X95228398Y-105956901D01*
X95129362Y-105296839D01*
X95079845Y-104944495D01*
X95044578Y-104693547D01*
X94965366Y-104031852D01*
X94899235Y-103425272D01*
X94839823Y-102762151D01*
X94792498Y-102153280D01*
X94752883Y-101489082D01*
X94732818Y-101058251D01*
X94724449Y-100878577D01*
X94704642Y-100213786D01*
X94695159Y-99602513D01*
X94695159Y-98937486D01*
X94701926Y-98501329D01*
X94702883Y-98439668D01*
X96109500Y-98439668D01*
X96109509Y-98439974D01*
X96109509Y-98842764D01*
X96146574Y-99738942D01*
X96220643Y-100632823D01*
X96331588Y-101522879D01*
X96479220Y-102407591D01*
X96663286Y-103285445D01*
X96883473Y-104154944D01*
X97139403Y-105014600D01*
X97430640Y-105862946D01*
X97756686Y-106698531D01*
X98116984Y-107519929D01*
X98510919Y-108325736D01*
X98937817Y-109114575D01*
X99396949Y-109885099D01*
X99887531Y-110635991D01*
X100408724Y-111365969D01*
X100959638Y-112073784D01*
X101539332Y-112758228D01*
X102146816Y-113418132D01*
X102399675Y-113670991D01*
X102399704Y-113671023D01*
X103231072Y-114502390D01*
X106140151Y-117411468D01*
X106140171Y-117411490D01*
X106168435Y-117439753D01*
X106196712Y-117468030D01*
X106199716Y-117471257D01*
X106341508Y-117634893D01*
X106352111Y-117649057D01*
X106465570Y-117825604D01*
X106474048Y-117841131D01*
X106561227Y-118032025D01*
X106567410Y-118048603D01*
X106626533Y-118249960D01*
X106630294Y-118267246D01*
X106655091Y-118439707D01*
X106645148Y-118508866D01*
X106599393Y-118561670D01*
X106583865Y-118570149D01*
X106455581Y-118628734D01*
X106408886Y-118666363D01*
X105139117Y-119936135D01*
X105139108Y-119936145D01*
X105101492Y-119982821D01*
X105041705Y-120113735D01*
X105041704Y-120113739D01*
X105021224Y-120256195D01*
X105041704Y-120398650D01*
X105041705Y-120398654D01*
X105101491Y-120529565D01*
X105101492Y-120529566D01*
X105101493Y-120529568D01*
X105139112Y-120576251D01*
X105139115Y-120576254D01*
X105139120Y-120576260D01*
X105311726Y-120748865D01*
X105345211Y-120810188D01*
X105340227Y-120879879D01*
X105331437Y-120898538D01*
X105327358Y-120905604D01*
X105327356Y-120905607D01*
X105259020Y-121052155D01*
X105149546Y-121286924D01*
X105063384Y-121523651D01*
X105005639Y-121682302D01*
X104969591Y-121816838D01*
X104896746Y-122088701D01*
X104823684Y-122503053D01*
X104787013Y-122922196D01*
X104787013Y-123342940D01*
X104823683Y-123762083D01*
X104896745Y-124176435D01*
X104922196Y-124271421D01*
X105005638Y-124582835D01*
X105149548Y-124978224D01*
X105327357Y-125359534D01*
X105327358Y-125359535D01*
X105327359Y-125359537D01*
X105537731Y-125723912D01*
X105537734Y-125723917D01*
X105678056Y-125924316D01*
X105779060Y-126068565D01*
X105779061Y-126068566D01*
X105779060Y-126068566D01*
X106049510Y-126390875D01*
X106134005Y-126475370D01*
X106134034Y-126475402D01*
X107531584Y-127872950D01*
X107551040Y-127892406D01*
X107551044Y-127892414D01*
X107867174Y-128208545D01*
X108450683Y-128743232D01*
X109056959Y-129251959D01*
X109684848Y-129733755D01*
X110333155Y-130187705D01*
X111000647Y-130612944D01*
X111686052Y-131008663D01*
X112388065Y-131374108D01*
X113105351Y-131708584D01*
X113836543Y-132011453D01*
X114580251Y-132282141D01*
X115335058Y-132520130D01*
X116099528Y-132724969D01*
X116872205Y-132896267D01*
X117651619Y-133033698D01*
X118436285Y-133137001D01*
X119224711Y-133205979D01*
X120015395Y-133240500D01*
X127459798Y-133240500D01*
X127459803Y-133240501D01*
X127536647Y-133240500D01*
X127540703Y-133240633D01*
X127720451Y-133252412D01*
X127802817Y-133257810D01*
X127810852Y-133258868D01*
X128066477Y-133309714D01*
X128074306Y-133311813D01*
X128231883Y-133365301D01*
X128321114Y-133395590D01*
X128328596Y-133398689D01*
X128562356Y-133513967D01*
X128569378Y-133518022D01*
X128786086Y-133662821D01*
X128792514Y-133667753D01*
X128846786Y-133715348D01*
X128988467Y-133839600D01*
X128994208Y-133845341D01*
X129102400Y-133968711D01*
X129131802Y-134032093D01*
X129122270Y-134101309D01*
X129108438Y-134124780D01*
X129050025Y-134202809D01*
X129050023Y-134202812D01*
X128999729Y-134337658D01*
X128993322Y-134397257D01*
X128993321Y-134397276D01*
X128993321Y-136193011D01*
X128993322Y-136193017D01*
X128999729Y-136252624D01*
X129050023Y-136387469D01*
X129050027Y-136387476D01*
X129136273Y-136502685D01*
X129136276Y-136502688D01*
X129251485Y-136588934D01*
X129251492Y-136588938D01*
X129292865Y-136604369D01*
X129386338Y-136639232D01*
X129445948Y-136645641D01*
X129690159Y-136645640D01*
X129757199Y-136665324D01*
X129802954Y-136718128D01*
X129809933Y-136737542D01*
X129811807Y-136744533D01*
X129955624Y-137139660D01*
X130030314Y-137299831D01*
X130133333Y-137520752D01*
X130133333Y-137520751D01*
X130271599Y-137760233D01*
X130343577Y-137884900D01*
X130349291Y-137893060D01*
X130541059Y-138166931D01*
X130584760Y-138229341D01*
X130682867Y-138346259D01*
X130855041Y-138551447D01*
X130855041Y-138551446D01*
X130855045Y-138551451D01*
X131104056Y-138800459D01*
X131152374Y-138848777D01*
X131152374Y-138848778D01*
X131418665Y-139072221D01*
X131474487Y-139119061D01*
X131603429Y-139209347D01*
X131818924Y-139360238D01*
X131818928Y-139360240D01*
X131818929Y-139360241D01*
X132151004Y-139551964D01*
X132183084Y-139570485D01*
X132278354Y-139614910D01*
X132564172Y-139748189D01*
X132959300Y-139892004D01*
X133365458Y-140000834D01*
X133779556Y-140073851D01*
X134198443Y-140110500D01*
X136397550Y-140110500D01*
X136398636Y-140110468D01*
X136781278Y-140110469D01*
X137637879Y-140073070D01*
X138492034Y-139998343D01*
X139342117Y-139886429D01*
X140186508Y-139737542D01*
X141023602Y-139551964D01*
X141851804Y-139330050D01*
X142669538Y-139072221D01*
X143475248Y-138778968D01*
X144267399Y-138450850D01*
X145044484Y-138088492D01*
X145805024Y-137692582D01*
X146547570Y-137263875D01*
X147270710Y-136803186D01*
X147973066Y-136311393D01*
X148653302Y-135789432D01*
X149310124Y-135238296D01*
X149942280Y-134659035D01*
X149972720Y-134628595D01*
X150171477Y-134429836D01*
X150171485Y-134429831D01*
X150183395Y-134417920D01*
X150183397Y-134417920D01*
X154838039Y-129763276D01*
X154841245Y-129760291D01*
X155008708Y-129615191D01*
X155022852Y-129604604D01*
X155203654Y-129488415D01*
X155219175Y-129479941D01*
X155243329Y-129468911D01*
X155356116Y-129417405D01*
X155414654Y-129390673D01*
X155431226Y-129384491D01*
X155637440Y-129323944D01*
X155654710Y-129320188D01*
X155854038Y-129291533D01*
X155923197Y-129301478D01*
X155976000Y-129347233D01*
X155984478Y-129365796D01*
X155985264Y-129365438D01*
X156048734Y-129504418D01*
X156048735Y-129504419D01*
X156048736Y-129504421D01*
X156086355Y-129551104D01*
X156086358Y-129551107D01*
X156086363Y-129551113D01*
X157148197Y-130612944D01*
X157356139Y-130820886D01*
X157356143Y-130820889D01*
X157356145Y-130820891D01*
X157402821Y-130858507D01*
X157533735Y-130918294D01*
X157533736Y-130918294D01*
X157533738Y-130918295D01*
X157676195Y-130938776D01*
X157818652Y-130918295D01*
X157949568Y-130858507D01*
X157996251Y-130820888D01*
X158196218Y-130620919D01*
X158257541Y-130587435D01*
X158327232Y-130592419D01*
X158333979Y-130595164D01*
X158590270Y-130708331D01*
X158657464Y-130730853D01*
X158956898Y-130831218D01*
X158956901Y-130831218D01*
X158956902Y-130831219D01*
X158995952Y-130840404D01*
X159333299Y-130919752D01*
X159333301Y-130919752D01*
X159333309Y-130919754D01*
X159716280Y-130973181D01*
X160102546Y-130991044D01*
X160488813Y-130973191D01*
X160871785Y-130919774D01*
X161248194Y-130831248D01*
X161248200Y-130831245D01*
X161248204Y-130831245D01*
X161451637Y-130763064D01*
X161614830Y-130708370D01*
X161968563Y-130552187D01*
X162306377Y-130364032D01*
X162625390Y-130145509D01*
X162922879Y-129898485D01*
X162989203Y-129832160D01*
X162989220Y-129832147D01*
X162997570Y-129823796D01*
X162997572Y-129823796D01*
X163090549Y-129730819D01*
X163115370Y-129705999D01*
X163115370Y-129705997D01*
X163125574Y-129695794D01*
X163125577Y-129695789D01*
X164589736Y-128231632D01*
X164589736Y-128231631D01*
X164591119Y-128230249D01*
X164591151Y-128230213D01*
X164785027Y-128036339D01*
X164869321Y-127952046D01*
X165464113Y-127305930D01*
X166031696Y-126635786D01*
X166571101Y-125942759D01*
X167081406Y-125228033D01*
X167561738Y-124492829D01*
X168011278Y-123738404D01*
X168429258Y-122966045D01*
X168814963Y-122177074D01*
X169167734Y-121372837D01*
X169486968Y-120554709D01*
X169772121Y-119724088D01*
X170022704Y-118882392D01*
X170238291Y-118031060D01*
X170418512Y-117171546D01*
X170563060Y-116305319D01*
X170671687Y-115433858D01*
X170744209Y-114558652D01*
X170780500Y-113681197D01*
X170780500Y-108380199D01*
X170780501Y-108380195D01*
X170780500Y-108303349D01*
X170780633Y-108299294D01*
X170789982Y-108156623D01*
X170796783Y-108052840D01*
X170797840Y-108044815D01*
X170845623Y-107804589D01*
X170847724Y-107796750D01*
X170877170Y-107710002D01*
X170926458Y-107564801D01*
X170929553Y-107557329D01*
X171037893Y-107337636D01*
X171041947Y-107330617D01*
X171178029Y-107126956D01*
X171182958Y-107120534D01*
X171344456Y-106936382D01*
X171350185Y-106930652D01*
X171412867Y-106875681D01*
X171476247Y-106846280D01*
X171545463Y-106855812D01*
X171568935Y-106869644D01*
X171622810Y-106909975D01*
X171622812Y-106909976D01*
X171757658Y-106960270D01*
X171757657Y-106960270D01*
X171764585Y-106961014D01*
X171817268Y-106966679D01*
X173613013Y-106966678D01*
X173672624Y-106960270D01*
X173807472Y-106909975D01*
X173922687Y-106823725D01*
X174008937Y-106708510D01*
X174059232Y-106573662D01*
X174065641Y-106514052D01*
X174065640Y-106214154D01*
X174085324Y-106147116D01*
X174138128Y-106101361D01*
X174144786Y-106098553D01*
X174310460Y-106034370D01*
X174637022Y-105871759D01*
X174947188Y-105679709D01*
X175238311Y-105459861D01*
X175507908Y-105214090D01*
X175753677Y-104944492D01*
X175753681Y-104944486D01*
X175753690Y-104944476D01*
X175973518Y-104653375D01*
X175973519Y-104653372D01*
X175973523Y-104653368D01*
X176165571Y-104343201D01*
X176328180Y-104016637D01*
X176459965Y-103676463D01*
X176559801Y-103325581D01*
X176626836Y-102966983D01*
X176660499Y-102603731D01*
X176660500Y-102421326D01*
X176660501Y-102342445D01*
X176660500Y-102342440D01*
X176660500Y-96759607D01*
X176660500Y-96758165D01*
X176660479Y-96757440D01*
X176660479Y-96349544D01*
X176624850Y-95442700D01*
X176553646Y-94537953D01*
X176446976Y-93636700D01*
X176305006Y-92740329D01*
X176127953Y-91850222D01*
X175916092Y-90967753D01*
X175669749Y-90094282D01*
X175389303Y-89231156D01*
X175075187Y-88379706D01*
X174727886Y-87541244D01*
X174347935Y-86717063D01*
X173935920Y-85908435D01*
X173492475Y-85116606D01*
X173018286Y-84342796D01*
X172514082Y-83588200D01*
X171980642Y-82853981D01*
X171418788Y-82141270D01*
X170829386Y-81451167D01*
X170213345Y-80784736D01*
X169892480Y-80463870D01*
X168224359Y-78795749D01*
X168190874Y-78734426D01*
X168195858Y-78664734D01*
X168224359Y-78620387D01*
X168240886Y-78603861D01*
X168278507Y-78557178D01*
X168338295Y-78426262D01*
X168358776Y-78283805D01*
X168338295Y-78141348D01*
X168305028Y-78068505D01*
X168278508Y-78010434D01*
X168278507Y-78010433D01*
X168278507Y-78010432D01*
X168240888Y-77963749D01*
X168240883Y-77963744D01*
X168240879Y-77963739D01*
X167367897Y-77090759D01*
X167334412Y-77029436D01*
X167332358Y-77016961D01*
X167291988Y-76658663D01*
X167284835Y-76616566D01*
X167182753Y-76015749D01*
X167044312Y-75409199D01*
X167037645Y-75379990D01*
X167036118Y-75374688D01*
X166857116Y-74753360D01*
X166857115Y-74753356D01*
X166641734Y-74137832D01*
X166440995Y-73653209D01*
X166392183Y-73535367D01*
X166368507Y-73486203D01*
X166109247Y-72947843D01*
X166089083Y-72911360D01*
X165793802Y-72377090D01*
X165793800Y-72377087D01*
X165787016Y-72366291D01*
X165575491Y-72029651D01*
X165446853Y-71824925D01*
X165069501Y-71293100D01*
X165069500Y-71293099D01*
X165069496Y-71293093D01*
X164886573Y-71063716D01*
X164662921Y-70783265D01*
X164662913Y-70783256D01*
X164662909Y-70783251D01*
X164228375Y-70297008D01*
X164228375Y-70297007D01*
X164066918Y-70135552D01*
X164066908Y-70135540D01*
X161813205Y-67881837D01*
X161813160Y-67881755D01*
X161728692Y-67797288D01*
X161494337Y-67562934D01*
X160906579Y-67024354D01*
X160295888Y-66511924D01*
X159663426Y-66026620D01*
X159010397Y-65569366D01*
X158338045Y-65141032D01*
X157647649Y-64742433D01*
X156940523Y-64374328D01*
X156218014Y-64037417D01*
X155481496Y-63732344D01*
X154732373Y-63459686D01*
X153972069Y-63219965D01*
X153202032Y-63013636D01*
X152423729Y-62841092D01*
X151638639Y-62702662D01*
X150848259Y-62598608D01*
X150054093Y-62529129D01*
X149257651Y-62494358D01*
X148859051Y-62494359D01*
X144510678Y-62494359D01*
X144443639Y-62474674D01*
X144397884Y-62421870D01*
X144386678Y-62370359D01*
X144386678Y-62346988D01*
X144386677Y-62346982D01*
X144386364Y-62344072D01*
X144380270Y-62287376D01*
X144378989Y-62283942D01*
X144329976Y-62152530D01*
X144329972Y-62152523D01*
X144243726Y-62037314D01*
X144243723Y-62037311D01*
X144128514Y-61951065D01*
X144128507Y-61951061D01*
X143993661Y-61900767D01*
X143993662Y-61900767D01*
X143934062Y-61894360D01*
X143934060Y-61894359D01*
X143934052Y-61894359D01*
X143934044Y-61894359D01*
X143686520Y-61894359D01*
X143619481Y-61874674D01*
X143573726Y-61821870D01*
X143569998Y-61812770D01*
X143558858Y-61782165D01*
X143429643Y-61427156D01*
X143327396Y-61207890D01*
X143254518Y-61051605D01*
X143254518Y-61051606D01*
X143047331Y-60692751D01*
X143047332Y-60692752D01*
X142809660Y-60353323D01*
X142809659Y-60353323D01*
X142809655Y-60353317D01*
X142570837Y-60068707D01*
X142543304Y-60035894D01*
X142543304Y-60035895D01*
X142543300Y-60035890D01*
X142396796Y-59889387D01*
X142250300Y-59742891D01*
X142250300Y-59742892D01*
X142250293Y-59742885D01*
X142068390Y-59590250D01*
X141932866Y-59476531D01*
X141932866Y-59476532D01*
X141932865Y-59476531D01*
X141714523Y-59323647D01*
X141593435Y-59238860D01*
X141430191Y-59144611D01*
X141234572Y-59031670D01*
X141234570Y-59031669D01*
X141234569Y-59031668D01*
X140859034Y-58856552D01*
X140859033Y-58856552D01*
X140859026Y-58856549D01*
X140859023Y-58856548D01*
X140469640Y-58714823D01*
X140069386Y-58607575D01*
X139661309Y-58535618D01*
X139297485Y-58503785D01*
X139248514Y-58499501D01*
X139129044Y-58499500D01*
X139129043Y-58499500D01*
X129865006Y-58499500D01*
X129863623Y-58499500D01*
X129862940Y-58499519D01*
X129605286Y-58499519D01*
X128999381Y-58533545D01*
X128737694Y-58563029D01*
X128396351Y-58601489D01*
X128396343Y-58601490D01*
X128396337Y-58601491D01*
X127798057Y-58703142D01*
X127798056Y-58703142D01*
X127798053Y-58703142D01*
X127798051Y-58703143D01*
X127206406Y-58838181D01*
X126623263Y-59006180D01*
X126623258Y-59006181D01*
X126623259Y-59006181D01*
X126050449Y-59206615D01*
X125489797Y-59438844D01*
X125489796Y-59438844D01*
X125489792Y-59438846D01*
X124943031Y-59702150D01*
X124411900Y-59995693D01*
X124411899Y-59995693D01*
X123898046Y-60318567D01*
X123898045Y-60318567D01*
X123708044Y-60453380D01*
X123403114Y-60669738D01*
X123403105Y-60669745D01*
X123403101Y-60669748D01*
X122928646Y-61048111D01*
X122867610Y-61102656D01*
X122476149Y-61452485D01*
X122350764Y-61577869D01*
X122306177Y-61622455D01*
X122306175Y-61622457D01*
X116204370Y-67724261D01*
X116143047Y-67757746D01*
X116073355Y-67752762D01*
X116029008Y-67724261D01*
X116023864Y-67719117D01*
X116023858Y-67719112D01*
X116023854Y-67719108D01*
X115977178Y-67681492D01*
X115846264Y-67621705D01*
X115846260Y-67621704D01*
X115703805Y-67601224D01*
X115561349Y-67621704D01*
X115561345Y-67621705D01*
X115430434Y-67681491D01*
X115383739Y-67719120D01*
X115197881Y-67904978D01*
X115136558Y-67938463D01*
X115066866Y-67933479D01*
X115057807Y-67929684D01*
X114773888Y-67797288D01*
X114455748Y-67681492D01*
X114404053Y-67662676D01*
X114404052Y-67662675D01*
X114404050Y-67662675D01*
X114023887Y-67560807D01*
X113636292Y-67492461D01*
X113290730Y-67462225D01*
X113244216Y-67458156D01*
X112850641Y-67458154D01*
X112458563Y-67492454D01*
X112070968Y-67560795D01*
X111690803Y-67662658D01*
X111584266Y-67701434D01*
X111320967Y-67797265D01*
X111320968Y-67797265D01*
X111320964Y-67797267D01*
X110964263Y-67963598D01*
X110623417Y-68160384D01*
X110301019Y-68386128D01*
X110295809Y-68390500D01*
X109999521Y-68639112D01*
X109960961Y-68677673D01*
X109922400Y-68716234D01*
X109922399Y-68716235D01*
X109860372Y-68778260D01*
X109843888Y-68794745D01*
X109804595Y-68834038D01*
X109804593Y-68834040D01*
X108674730Y-69963902D01*
X108674701Y-69963932D01*
X108378700Y-70259933D01*
X107748354Y-70939286D01*
X107143850Y-71641732D01*
X106566034Y-72366291D01*
X106015714Y-73111948D01*
X105493660Y-73877661D01*
X105000601Y-74662359D01*
X104537229Y-75464943D01*
X104104190Y-76284293D01*
X103702090Y-77119262D01*
X103331492Y-77968681D01*
X102992914Y-78831364D01*
X102686830Y-79706103D01*
X102413667Y-80591676D01*
X102173808Y-81486843D01*
X101967587Y-82390353D01*
X101795295Y-83300941D01*
X101657170Y-84217335D01*
X101553408Y-85138253D01*
X101484152Y-86062407D01*
X101449500Y-86988504D01*
X101449500Y-91306488D01*
X101449499Y-91306510D01*
X101449499Y-91385644D01*
X101449200Y-91391724D01*
X101442332Y-91461473D01*
X101416173Y-91526260D01*
X101359139Y-91566620D01*
X101318929Y-91573321D01*
X99766988Y-91573321D01*
X99766982Y-91573322D01*
X99707375Y-91579729D01*
X99572530Y-91630023D01*
X99572523Y-91630027D01*
X99457314Y-91716273D01*
X99457311Y-91716276D01*
X99371065Y-91831485D01*
X99371061Y-91831492D01*
X99320767Y-91966338D01*
X99314360Y-92025937D01*
X99314359Y-92025956D01*
X99314359Y-92285673D01*
X99294674Y-92352712D01*
X99241870Y-92398467D01*
X99232771Y-92402194D01*
X98939580Y-92508910D01*
X98919933Y-92516062D01*
X98559421Y-92684174D01*
X98559415Y-92684177D01*
X98260369Y-92856834D01*
X98214933Y-92883067D01*
X97889090Y-93111228D01*
X97727273Y-93247009D01*
X97584376Y-93366914D01*
X97584377Y-93366914D01*
X97584372Y-93366918D01*
X97511319Y-93439972D01*
X97303098Y-93648193D01*
X97157515Y-93821694D01*
X97047409Y-93952914D01*
X96996244Y-94025986D01*
X96819254Y-94278753D01*
X96819251Y-94278757D01*
X96819251Y-94278758D01*
X96620360Y-94623248D01*
X96620359Y-94623250D01*
X96620358Y-94623250D01*
X96452254Y-94983750D01*
X96452250Y-94983761D01*
X96316200Y-95357554D01*
X96213246Y-95741782D01*
X96144171Y-96133521D01*
X96109501Y-96529790D01*
X96109501Y-96529789D01*
X96109500Y-96640961D01*
X96109500Y-98439668D01*
X94702883Y-98439668D01*
X94704643Y-98326196D01*
X94707235Y-98239224D01*
X94724448Y-97661468D01*
X94740417Y-97318599D01*
X94752880Y-97050964D01*
X94792497Y-96386728D01*
X94839817Y-95777903D01*
X94899237Y-95114704D01*
X94965368Y-94508137D01*
X95044580Y-93846434D01*
X95060106Y-93735964D01*
X95129351Y-93243228D01*
X95228398Y-92583091D01*
X95331593Y-91984246D01*
X95450523Y-91325871D01*
X95571813Y-90732632D01*
X95710758Y-90075918D01*
X95849613Y-89490014D01*
X96008852Y-88834445D01*
X96164502Y-88258004D01*
X96344533Y-87602592D01*
X96515210Y-87040412D01*
X96717491Y-86381496D01*
X96898380Y-85846033D01*
X97127405Y-85172219D01*
X97285188Y-84748941D01*
X97567596Y-83992771D01*
X97568117Y-83991433D01*
X97568119Y-83991434D01*
X97602030Y-83904414D01*
X97629362Y-83759249D01*
X97638932Y-83729592D01*
X100220259Y-78220787D01*
X100256202Y-78175688D01*
X100393413Y-78068494D01*
X100516779Y-77928246D01*
X100564472Y-77847950D01*
X100564473Y-77847950D01*
X101233584Y-76757770D01*
X101878444Y-75775508D01*
X101936942Y-75686533D01*
X102495615Y-74889559D01*
X102515533Y-74861215D01*
X102676873Y-74631611D01*
X103206591Y-73922884D01*
X103448757Y-73599956D01*
X103968804Y-72946643D01*
X104251941Y-72592439D01*
X104771157Y-71979450D01*
X105085645Y-71610040D01*
X105608887Y-71029135D01*
X105949085Y-70653682D01*
X106478927Y-70100309D01*
X106841401Y-69724311D01*
X107379392Y-69195640D01*
X107761847Y-68822703D01*
X108308700Y-68317122D01*
X108709497Y-67949772D01*
X109265702Y-67466112D01*
X109683464Y-67106327D01*
X110249316Y-66643772D01*
X110682811Y-66293177D01*
X111258395Y-65851211D01*
X111706663Y-65511037D01*
X112291868Y-65089377D01*
X112753986Y-64760695D01*
X113348595Y-64359189D01*
X113823834Y-64042828D01*
X114427651Y-63661348D01*
X114915180Y-63358123D01*
X115528029Y-62996568D01*
X116026943Y-62707252D01*
X116648430Y-62365675D01*
X117158224Y-62090744D01*
X117787917Y-61769226D01*
X118307806Y-61509261D01*
X118945382Y-61207832D01*
X119474669Y-60963316D01*
X120119639Y-60682091D01*
X120657727Y-60453414D01*
X121309631Y-60192494D01*
X121855873Y-59980034D01*
X122514255Y-59739513D01*
X123067919Y-59543642D01*
X123732242Y-59323639D01*
X124292751Y-59144636D01*
X124962634Y-58945213D01*
X125529236Y-58783384D01*
X126204110Y-58604657D01*
X126776207Y-58460224D01*
X127455456Y-58302307D01*
X128032505Y-58175457D01*
X128715578Y-58038434D01*
X128742897Y-58033308D01*
X129296861Y-57929368D01*
X129983368Y-57813280D01*
X130568140Y-57722170D01*
X131257474Y-57627096D01*
X131845207Y-57554051D01*
X132536723Y-57480055D01*
X133126760Y-57425180D01*
X133819999Y-57372292D01*
X134411609Y-57335669D01*
X135106044Y-57303922D01*
X135698598Y-57285599D01*
X136393479Y-57275017D01*
X136986521Y-57275017D01*
X137681401Y-57285599D01*
G37*
%TD.AperFunction*%
%TD*%
M02*
