%TF.GenerationSoftware,KiCad,Pcbnew,7.0.9*%
%TF.CreationDate,2024-07-26T16:53:17+09:00*%
%TF.ProjectId,IR_Borred,49525f42-6f72-4726-9564-2e6b69636164,rev?*%
%TF.SameCoordinates,Original*%
%TF.FileFunction,Profile,NP*%
%FSLAX46Y46*%
G04 Gerber Fmt 4.6, Leading zero omitted, Abs format (unit mm)*
G04 Created by KiCad (PCBNEW 7.0.9) date 2024-07-26 16:53:17*
%MOMM*%
%LPD*%
G01*
G04 APERTURE LIST*
%TA.AperFunction,Profile*%
%ADD10C,0.200000*%
%TD*%
G04 APERTURE END LIST*
D10*
X118735801Y-62456123D02*
X118735801Y-76473465D01*
X120004558Y-109902610D02*
G75*
G03*
X120004558Y-109902610I-1600000J0D01*
G01*
X169994124Y-82974339D02*
G75*
G03*
X169994131Y-78330864I-927124J2321739D01*
G01*
X115428088Y-115277584D02*
G75*
G03*
X116750963Y-111777610I12J1999984D01*
G01*
X182235801Y-115277610D02*
X172043514Y-115277610D01*
X110885801Y-118277610D02*
G75*
G03*
X110885801Y-118277610I-1650000J0D01*
G01*
X117477460Y-107580836D02*
G75*
G03*
X116750963Y-111777610I927140J-2321764D01*
G01*
X179885801Y-118277610D02*
G75*
G03*
X179885801Y-118277610I-1650000J0D01*
G01*
X115465213Y-60911583D02*
G75*
G03*
X103424036Y-114124669I28270587J-34366027D01*
G01*
X169994112Y-82974311D02*
G75*
G03*
X168735801Y-84831755I741688J-1857389D01*
G01*
X117477464Y-78330846D02*
G75*
G03*
X117477471Y-82974356I927136J-2321754D01*
G01*
X103424030Y-114124672D02*
G75*
G03*
X105235801Y-115277610I1811770J847072D01*
G01*
X172006400Y-60911570D02*
G75*
G03*
X168735801Y-62456123I-1270600J-1544530D01*
G01*
X170667044Y-109902610D02*
G75*
G03*
X170667044Y-109902610I-1600000J0D01*
G01*
X170720619Y-111777587D02*
G75*
G03*
X169994131Y-107580864I-1653619J1874987D01*
G01*
X168735803Y-76473465D02*
G75*
G03*
X169994131Y-78330863I2000097J65D01*
G01*
X97885810Y-95308318D02*
G75*
G03*
X97885810Y-95308318I-1650000J0D01*
G01*
X182235801Y-115277605D02*
G75*
G03*
X184047566Y-114124669I-1J2000005D01*
G01*
X168735801Y-76473465D02*
X168735801Y-62456123D01*
X118735842Y-84831755D02*
G75*
G03*
X117477471Y-82974358I-2000042J-45D01*
G01*
X166835801Y-128277610D02*
G75*
G03*
X166835801Y-128277610I-3600000J0D01*
G01*
X168735801Y-105723465D02*
X168735801Y-84831755D01*
X192885792Y-95308318D02*
G75*
G03*
X192885792Y-95308318I-1650000J0D01*
G01*
X168735803Y-105723465D02*
G75*
G03*
X169994131Y-107580863I2000097J65D01*
G01*
X170720621Y-111777590D02*
G75*
G03*
X172043514Y-115277610I1322879J-1500010D01*
G01*
X184047554Y-114124663D02*
G75*
G03*
X172006389Y-60911583I-40311754J18847063D01*
G01*
X117477483Y-78330893D02*
G75*
G03*
X118735801Y-76473465I-741683J1857393D01*
G01*
X118735801Y-84831755D02*
X118735801Y-105723465D01*
X145385801Y-50277609D02*
G75*
G03*
X145385801Y-50277609I-1650000J0D01*
G01*
X118735781Y-62456123D02*
G75*
G03*
X115465213Y-60911583I-1999981J23D01*
G01*
X115428088Y-115277610D02*
X105235801Y-115277610D01*
X120004558Y-80652610D02*
G75*
G03*
X120004558Y-80652610I-1600000J0D01*
G01*
X117477483Y-107580893D02*
G75*
G03*
X118735801Y-105723465I-741683J1857393D01*
G01*
X203735801Y-95277610D02*
G75*
G03*
X203735801Y-95277610I-60000000J0D01*
G01*
X170667044Y-80652610D02*
G75*
G03*
X170667044Y-80652610I-1600000J0D01*
G01*
M02*
