0
SECTION
2
HEADER
9
$INSUNITS
70
4
9
$ACADVER
1
AC1014
9
$HANDSEED
5
FFFF
0
ENDSEC
0
SECTION
2
TABLES
0
TABLE
2
VPORT
5
8
100
AcDbSymbolTable
0
ENDTAB
0
TABLE
2
LTYPE
5
5
100
AcDbSymbolTable
0
LTYPE
5
14
100
AcDbSymbolTableRecord
100
AcDbLinetypeTableRecord
2
BYBLOCK
70
0
0
LTYPE
5
15
100
AcDbSymbolTableRecord
100
AcDbLinetypeTableRecord
2
BYLAYER
70
0
0
LTYPE
5
16
100
AcDbSymbolTableRecord
100
AcDbLinetypeTableRecord
2
DASHED
70
0
3
Dashed __ __ __ __ __ __ __ __ __ __ __ __ __ _
72
65
73
2
40
0.75
49
0.5
74
0
49
-0.25
74
0
0
ENDTAB
0
TABLE
2
LAYER
5
2
100
AcDbSymbolTable
70
2
0
LAYER
5
50
100
AcDbSymbolTableRecord
100
AcDbLayerTableRecord
2
0
70
0
62
7
6
CONTINUOUS
0
ENDTAB
0
TABLE
2
STYLE
5
3
100
AcDbSymbolTable
70
1
0
STYLE
5
11
100
AcDbSymbolTableRecord
100
AcDbTextStyleTableRecord
2
STANDARD
70
0
0
ENDTAB
0
TABLE
2
VIEW
5
6
100
AcDbSymbolTable
70
0
0
ENDTAB
0
TABLE
2
UCS
5
7
100
AcDbSymbolTable
70
0
0
ENDTAB
0
TABLE
2
APPID
5
9
100
AcDbSymbolTable
70
2
0
APPID
5
12
100
AcDbSymbolTableRecord
100
AcDbRegAppTableRecord
2
ACAD
70
0
0
ENDTAB
0
TABLE
2
DIMSTYLE
5
A
100
AcDbSymbolTable
70
1
0
ENDTAB
0
TABLE
2
BLOCK_RECORD
5
1
100
AcDbSymbolTable
70
1
0
BLOCK_RECORD
5
1F
100
AcDbSymbolTableRecord
100
AcDbBlockTableRecord
2
*MODEL_SPACE
0
BLOCK_RECORD
5
1B
100
AcDbSymbolTableRecord
100
AcDbBlockTableRecord
2
*PAPER_SPACE
0
ENDTAB
0
ENDSEC
0
SECTION
2
BLOCKS
0
BLOCK
5
20
100
AcDbEntity
100
AcDbBlockBegin
2
*MODEL_SPACE
0
ENDBLK
5
21
100
AcDbEntity
100
AcDbBlockEnd
0
BLOCK
5
1C
100
AcDbEntity
100
AcDbBlockBegin
2
*PAPER_SPACE
0
ENDBLK
5
1D
100
AcDbEntity
100
AcDbBlockEnd
0
ENDSEC
0
SECTION
2
ENTITIES
0
LWPOLYLINE
5
100
100
AcDbEntity
8
0
100
AcDbPolyline
90
16
70
1
43
0.0
10
11.692976885950001
20
-12.001017761855206
42
0.41421356237309243
10
12.680276860550002
20
-11.013717787255207
10
12.680276860550002
20
18.18628221273881
42
0.4142135623730937
10
11.692976885949998
20
19.173582187338813
10
8.692976885953998
20
19.173582187338805
42
0.41421356237309309
10
7.7056769113540007
20
18.186282212738806
10
7.7056769113540007
20
14.386282212744803
42
-0.41421356237309437
10
6.6929768859540006
20
13.373582187344805
10
-6.7070231140460006
20
13.373582187344804
42
-0.41421356237309503
10
-7.7197231394459997
20
14.386282212744803
10
-7.7197231394459997
20
18.186282212738806
42
0.4142135623730947
10
-8.7070231140460006
20
19.173582187338809
10
-11.707023114046001
20
19.173582187338805
42
0.41421356237309703
10
-12.694323088646001
20
18.186282212738803
10
-12.694323088646
20
-11.013717787255214
42
0.4142135623730937
10
-11.707023114045999
20
-12.001017761855209
0
CIRCLE
5
101
100
AcDbEntity
8
0
100
AcDbCircle
10
-3.8100076200149995
20
12.134181628543804
30
-1.1102230246251565e-15
40
0.55001270002500036
210
6.1629758220382844e-33
220
1.2325951644078309e-32
230
1
0
CIRCLE
5
102
100
AcDbEntity
8
0
100
AcDbCircle
10
-1.2700025400049999
20
12.134181628543804
30
-1.1102230246251565e-15
40
0.55001270002500036
210
6.1629758220382844e-33
220
1.2325951644078309e-32
230
1
0
CIRCLE
5
103
100
AcDbEntity
8
0
100
AcDbCircle
10
-11.430022860046002
20
7.8241740085287992
30
0
40
0.55001270002500036
210
6.1629758220382844e-33
220
1.2325951644078309e-32
230
1
0
CIRCLE
5
104
100
AcDbEntity
8
0
100
AcDbCircle
10
-11.430022860046002
20
5.2841689285187972
30
0
40
0.55001270002500036
210
6.1629758220382844e-33
220
1.2325951644078309e-32
230
1
0
CIRCLE
5
105
100
AcDbEntity
8
0
100
AcDbCircle
10
1.2700025400049999
20
12.134181628543804
30
0
40
0.55001270002500036
210
6.1629758220382844e-33
220
1.2325951644078309e-32
230
1
0
CIRCLE
5
106
100
AcDbEntity
8
0
100
AcDbCircle
10
3.8100076200150008
20
12.134181628543804
30
0
40
0.55001270002500036
210
6.1629758220382844e-33
220
1.2325951644078309e-32
230
1
0
CIRCLE
5
107
100
AcDbEntity
8
0
100
AcDbCircle
10
11.430022860039999
20
7.8241740085288018
30
1.1102230246251565e-15
40
0.55001270002500036
210
6.1629758220382844e-33
220
1.2325951644078309e-32
230
1
0
CIRCLE
5
108
100
AcDbEntity
8
0
100
AcDbCircle
10
11.430022860039999
20
5.2841689285187998
30
0
40
0.55001270002500036
210
6.1629758220382844e-33
220
1.2325951644078309e-32
230
1
0
CIRCLE
5
109
100
AcDbEntity
8
0
100
AcDbCircle
10
-11.430022860046002
20
2.7441638485087969
30
0
40
0.55001270002500036
210
6.1629758220382844e-33
220
1.2325951644078309e-32
230
1
0
CIRCLE
5
110
100
AcDbEntity
8
0
100
AcDbCircle
10
-11.430022860046002
20
0.20415876849879555
30
0
40
0.55001270002500036
210
6.1629758220382844e-33
220
1.2325951644078309e-32
230
1
0
CIRCLE
5
111
100
AcDbEntity
8
0
100
AcDbCircle
10
-11.430022860045998
20
-2.3358463115122063
30
0
40
0.55001270002500036
210
6.1629758220382844e-33
220
1.2325951644078309e-32
230
1
0
CIRCLE
5
112
100
AcDbEntity
8
0
100
AcDbCircle
10
-11.430022860045998
20
-4.8758513915222075
30
0
40
0.55001270002500036
210
6.1629758220382844e-33
220
1.2325951644078309e-32
230
1
0
CIRCLE
5
113
100
AcDbEntity
8
0
100
AcDbCircle
10
11.430022860039999
20
2.7441638485087996
30
0
40
0.55001270002500036
210
6.1629758220382844e-33
220
1.2325951644078309e-32
230
1
0
CIRCLE
5
114
100
AcDbEntity
8
0
100
AcDbCircle
10
11.430022860039999
20
0.20415876849879777
30
0
40
0.55001270002500036
210
6.1629758220382844e-33
220
1.2325951644078309e-32
230
1
0
LWPOLYLINE
5
115
100
AcDbEntity
8
0
100
AcDbPolyline
90
4
70
1
43
0.0
10
-6.6199778162878085
20
-12.001017761855209
10
6.6441847758846482
20
-12.001017761855209
10
6.6441847758846482
20
-17.293987911631927
10
-6.6199778162878085
20
-17.293987911631927
0
ENDSEC
0
SECTION
2
OBJECTS
0
DICTIONARY
5
C
100
AcDbDictionary
3
ACAD_GROUP
350
D
3
ACAD_MLINESTYLE
350
17
0
DICTIONARY
5
D
100
AcDbDictionary
0
DICTIONARY
5
1A
330
C
100
AcDbDictionary
0
DICTIONARY
5
17
100
AcDbDictionary
0
ENDSEC
0
EOF
