%TF.GenerationSoftware,KiCad,Pcbnew,7.0.9*%
%TF.CreationDate,2025-05-06T13:04:56+09:00*%
%TF.ProjectId,Line_front,4c696e65-5f66-4726-9f6e-742e6b696361,rev?*%
%TF.SameCoordinates,Original*%
%TF.FileFunction,Legend,Top*%
%TF.FilePolarity,Positive*%
%FSLAX46Y46*%
G04 Gerber Fmt 4.6, Leading zero omitted, Abs format (unit mm)*
G04 Created by KiCad (PCBNEW 7.0.9) date 2025-05-06 13:04:56*
%MOMM*%
%LPD*%
G01*
G04 APERTURE LIST*
%ADD10C,0.120000*%
G04 APERTURE END LIST*
D10*
%TO.C,J3*%
X151890000Y-55080000D02*
X151890000Y-56410000D01*
X150560000Y-55080000D02*
X151890000Y-55080000D01*
X149290000Y-55080000D02*
X141610000Y-55080000D01*
X149290000Y-55080000D02*
X149290000Y-57740000D01*
X141610000Y-55080000D02*
X141610000Y-57740000D01*
X149290000Y-57740000D02*
X141610000Y-57740000D01*
%TO.C,R6*%
X171166922Y-43237245D02*
X171547786Y-42989909D01*
X171967542Y-44470091D02*
X172348406Y-44222755D01*
%TO.C,D3*%
X174783153Y-47800914D02*
X174915449Y-47718247D01*
X176747233Y-46573621D02*
X176879528Y-46490954D01*
X173203753Y-44976334D02*
G75*
G03*
X174783564Y-47800658I1800914J-846645D01*
G01*
X173537198Y-45512277D02*
G75*
G03*
X174640400Y-47278077I1467469J-310702D01*
G01*
X176472183Y-46133451D02*
G75*
G03*
X175368705Y-44367825I-1467516J310472D01*
G01*
X176879118Y-46491210D02*
G75*
G03*
X175033175Y-43833183I-1874451J668231D01*
G01*
%TO.C,Q1*%
X179313818Y-44954126D02*
X179446114Y-44871459D01*
X181277898Y-43726833D02*
X181410193Y-43644166D01*
X177734418Y-42129546D02*
G75*
G03*
X179314229Y-44953870I1800914J-846645D01*
G01*
X178067863Y-42665489D02*
G75*
G03*
X179171065Y-44431289I1467469J-310702D01*
G01*
X181002848Y-43286663D02*
G75*
G03*
X179899370Y-41521037I-1467516J310472D01*
G01*
X181409783Y-43644422D02*
G75*
G03*
X179563840Y-40986395I-1874451J668231D01*
G01*
%TO.C,Q4*%
X116370153Y-46122215D02*
X116502448Y-46204882D01*
X118334232Y-47349508D02*
X118466528Y-47432175D01*
X118216506Y-43464445D02*
G75*
G03*
X116370564Y-46122471I28508J-1989795D01*
G01*
X117880976Y-43999086D02*
G75*
G03*
X116777498Y-45764712I364038J-1455154D01*
G01*
X118609281Y-46909338D02*
G75*
G03*
X119712483Y-45143538I-364267J1455098D01*
G01*
X118466117Y-47431918D02*
G75*
G03*
X120045927Y-44607595I-221103J1977678D01*
G01*
%TO.C,R7*%
X125192085Y-46492315D02*
X124820085Y-46231838D01*
X126035243Y-45288162D02*
X125663243Y-45027685D01*
%TO.C,R1*%
X152141604Y-51809139D02*
X152266779Y-52245674D01*
X150728549Y-52214326D02*
X150853724Y-52650861D01*
%TO.C,D2*%
X154745842Y-55323184D02*
X154895799Y-55280184D01*
X156972124Y-54684808D02*
X157122081Y-54641808D01*
X154006186Y-52172682D02*
G75*
G03*
X154746308Y-55323050I1497782J-1310246D01*
G01*
X154178988Y-52779774D02*
G75*
G03*
X154752733Y-54781251I1324980J-703154D01*
G01*
X156829058Y-54185875D02*
G75*
G03*
X156254999Y-52184487I-1325090J702947D01*
G01*
X157121616Y-54641942D02*
G75*
G03*
X156079834Y-51578071I-1617648J1159014D01*
G01*
%TO.C,Q17*%
X159819479Y-53869454D02*
X159969436Y-53826454D01*
X162045761Y-53231078D02*
X162195718Y-53188078D01*
X159079823Y-50718952D02*
G75*
G03*
X159819945Y-53869320I1497782J-1310246D01*
G01*
X159252625Y-51326044D02*
G75*
G03*
X159826370Y-53327521I1324980J-703154D01*
G01*
X161902695Y-52732145D02*
G75*
G03*
X161328636Y-50730757I-1325090J702947D01*
G01*
X162195253Y-53188212D02*
G75*
G03*
X161153471Y-50124341I-1617648J1159014D01*
G01*
%TO.C,R1*%
X132588569Y-47661276D02*
X133027223Y-47778813D01*
X132208105Y-49081187D02*
X132646759Y-49198724D01*
%TO.C,D4*%
X120838787Y-48890405D02*
X120971082Y-48973072D01*
X122802866Y-50117698D02*
X122935162Y-50200365D01*
X122685140Y-46232635D02*
G75*
G03*
X120839198Y-48890661I28508J-1989795D01*
G01*
X122349610Y-46767276D02*
G75*
G03*
X121246132Y-48532902I364038J-1455154D01*
G01*
X123077915Y-49677528D02*
G75*
G03*
X124181117Y-47911728I-364267J1455098D01*
G01*
X122934751Y-50200108D02*
G75*
G03*
X124514561Y-47375785I-221103J1977678D01*
G01*
%TO.C,D1*%
X130969610Y-53188078D02*
X131119567Y-53231078D01*
X133195892Y-53826454D02*
X133345849Y-53869454D01*
X132011857Y-50124342D02*
G75*
G03*
X130970076Y-53188212I575866J-1904856D01*
G01*
X131836692Y-50730757D02*
G75*
G03*
X131262633Y-52732145I751031J-1298441D01*
G01*
X133338958Y-53327522D02*
G75*
G03*
X133912704Y-51326043I-751235J1298324D01*
G01*
X133345383Y-53869321D02*
G75*
G03*
X134085506Y-50718951I-757660J1840123D01*
G01*
%TO.C,Q16*%
X125967836Y-51743315D02*
X126117793Y-51786315D01*
X128194118Y-52381691D02*
X128344075Y-52424691D01*
X127010083Y-48679579D02*
G75*
G03*
X125968302Y-51743449I575866J-1904856D01*
G01*
X126834918Y-49285994D02*
G75*
G03*
X126260859Y-51287382I751031J-1298441D01*
G01*
X128337184Y-51882759D02*
G75*
G03*
X128910930Y-49881280I-751235J1298324D01*
G01*
X128343609Y-52424558D02*
G75*
G03*
X129083732Y-49274188I-757660J1840123D01*
G01*
%TO.C,RV2*%
X149217664Y-54450000D02*
X149217664Y-53070000D01*
X149217664Y-54450000D02*
X143977664Y-54450000D01*
X149217664Y-50590000D02*
X149217664Y-49210000D01*
X149217664Y-49210000D02*
X143977664Y-49210000D01*
X143977664Y-54450000D02*
X143977664Y-53869000D01*
X143977664Y-52090000D02*
X143977664Y-51570000D01*
X143977664Y-49790000D02*
X143977664Y-49210000D01*
%TO.C,D2*%
X164848703Y-52426236D02*
X164998660Y-52383236D01*
X167074985Y-51787860D02*
X167224942Y-51744860D01*
X164109047Y-49275734D02*
G75*
G03*
X164849169Y-52426102I1497782J-1310246D01*
G01*
X164281849Y-49882826D02*
G75*
G03*
X164855594Y-51884303I1324980J-703154D01*
G01*
X166931919Y-51288927D02*
G75*
G03*
X166357860Y-49287539I-1325090J702947D01*
G01*
X167224477Y-51744994D02*
G75*
G03*
X166182695Y-48681123I-1617648J1159014D01*
G01*
%TO.C,D7*%
X111925800Y-43320954D02*
X112058095Y-43403621D01*
X113889879Y-44548247D02*
X114022175Y-44630914D01*
X113772153Y-40663184D02*
G75*
G03*
X111926211Y-43321210I28508J-1989795D01*
G01*
X113436623Y-41197825D02*
G75*
G03*
X112333145Y-42963451I364038J-1455154D01*
G01*
X114164928Y-44108077D02*
G75*
G03*
X115268130Y-42342277I-364267J1455098D01*
G01*
X114021764Y-44630657D02*
G75*
G03*
X115601574Y-41806334I-221103J1977678D01*
G01*
%TO.C,R4*%
X141502664Y-51774564D02*
X141502664Y-51320436D01*
X142972664Y-51774564D02*
X142972664Y-51320436D01*
%TO.C,R5*%
X166228630Y-47625015D02*
X165789976Y-47742552D01*
X165848166Y-46205104D02*
X165409512Y-46322641D01*
%TO.C,Q3*%
X170400832Y-50523577D02*
X170533128Y-50440910D01*
X172364912Y-49296284D02*
X172497207Y-49213617D01*
X168821432Y-47698997D02*
G75*
G03*
X170401243Y-50523321I1800914J-846645D01*
G01*
X169154877Y-48234940D02*
G75*
G03*
X170258079Y-50000740I1467469J-310702D01*
G01*
X172089862Y-48856114D02*
G75*
G03*
X170986384Y-47090488I-1467516J310472D01*
G01*
X172496797Y-49213873D02*
G75*
G03*
X170650854Y-46555846I-1874451J668231D01*
G01*
%TO.C,Q15*%
X136070697Y-54640263D02*
X136220654Y-54683263D01*
X138296979Y-55278639D02*
X138446936Y-55321639D01*
X137112944Y-51576527D02*
G75*
G03*
X136071163Y-54640397I575866J-1904856D01*
G01*
X136937779Y-52182942D02*
G75*
G03*
X136363720Y-54184330I751031J-1298441D01*
G01*
X138440045Y-54779707D02*
G75*
G03*
X139013791Y-52778228I-751235J1298324D01*
G01*
X138446470Y-55321506D02*
G75*
G03*
X139186593Y-52171136I-757660J1840123D01*
G01*
%TO.C,R2*%
X116244579Y-40887192D02*
X115859456Y-40646541D01*
X117023560Y-39640561D02*
X116638437Y-39399910D01*
%TD*%
M02*
