%TF.GenerationSoftware,KiCad,Pcbnew,7.0.9*%
%TF.CreationDate,2025-05-06T13:04:56+09:00*%
%TF.ProjectId,Line_front,4c696e65-5f66-4726-9f6e-742e6b696361,rev?*%
%TF.SameCoordinates,Original*%
%TF.FileFunction,Profile,NP*%
%FSLAX46Y46*%
G04 Gerber Fmt 4.6, Leading zero omitted, Abs format (unit mm)*
G04 Created by KiCad (PCBNEW 7.0.9) date 2025-05-06 13:04:56*
%MOMM*%
%LPD*%
G01*
G04 APERTURE LIST*
%TA.AperFunction,Profile*%
%ADD10C,0.200000*%
%TD*%
G04 APERTURE END LIST*
D10*
X184663104Y-40239446D02*
X186572293Y-38330257D01*
X110662428Y-36633201D02*
G75*
G03*
X110662428Y-36633201I-1650000J0D01*
G01*
X110709521Y-34936108D02*
G75*
G03*
X107315371Y-38330257I-1697057J-1697092D01*
G01*
X183178180Y-34936145D02*
X181268992Y-36845333D01*
X112618672Y-36845333D02*
X110709484Y-34936145D01*
X151470000Y-58240026D02*
G75*
G03*
X152937520Y-57598816I-36J2000026D01*
G01*
X154356420Y-56736331D02*
G75*
G03*
X184233555Y-42596152I-7412556J54296331D01*
G01*
X140728215Y-57359165D02*
G75*
G03*
X139531242Y-56736350I-1467451J-1358635D01*
G01*
X109654121Y-42596139D02*
G75*
G03*
X139531242Y-56736349I37289743J40156139D01*
G01*
X109224545Y-40239439D02*
G75*
G03*
X109654109Y-42596152I1790419J-891161D01*
G01*
X184233578Y-42596176D02*
G75*
G03*
X184663103Y-40239446I-1361114J1465576D01*
G01*
X154356427Y-56736382D02*
G75*
G03*
X153159434Y-57359151I270437J-1981518D01*
G01*
X186525236Y-36633201D02*
G75*
G03*
X186525236Y-36633201I-1650000J0D01*
G01*
X140728230Y-57359151D02*
X140950143Y-57598817D01*
X142417664Y-58240000D02*
X151470000Y-58240000D01*
X114936154Y-37129313D02*
G75*
G03*
X178951510Y-37129313I32007678J34689314D01*
G01*
X186572319Y-38330283D02*
G75*
G03*
X183178180Y-34936145I-1697055J1697083D01*
G01*
X140950120Y-57598839D02*
G75*
G03*
X142417664Y-58240000I1467544J1358939D01*
G01*
X181268996Y-36845326D02*
G75*
G03*
X178951511Y-37129314I-961232J-1753774D01*
G01*
X107315371Y-38330257D02*
X109224560Y-40239446D01*
X152937521Y-57598817D02*
X153159434Y-57359151D01*
X114936128Y-37129341D02*
G75*
G03*
X112618672Y-36845334I-1356264J-1469859D01*
G01*
M02*
