M48
; DRILL file {KiCad 7.0.9} date Tue May  6 13:05:02 2025
; FORMAT={-:-/ absolute / metric / decimal}
; #@! TF.CreationDate,2025-05-06T13:05:02+09:00
; #@! TF.GenerationSoftware,Kicad,Pcbnew,7.0.9
; #@! TF.FileFunction,Plated,1,2,PTH
FMAT,2
METRIC
; #@! TA.AperFunction,Plated,PTH,ViaDrill
T1C0.400
; #@! TA.AperFunction,Plated,PTH,ComponentDrill
T2C0.900
; #@! TA.AperFunction,Plated,PTH,ComponentDrill
T3C1.000
%
G90
G05
T1
X118.548Y-41.73
X125.328Y-48.68
X127.721Y-46.283
X128.718Y-53.34
X129.868Y-48.14
X129.918Y-50.55
X134.408Y-53.5
X137.548Y-49.28
X146.608Y-50.33
X149.77Y-53.62
X152.518Y-55.66
X161.288Y-48.48
X162.54Y-50.97
X163.27Y-54.16
X168.178Y-45.25
X172.208Y-47.44
X177.208Y-45.29
T2
X113.128Y-43.73
X114.474Y-41.576
X117.572Y-46.531
X118.918Y-44.377
X122.041Y-49.299
X123.387Y-47.145
X127.236Y-51.805
X127.936Y-49.364
X132.238Y-53.25
X132.938Y-50.808
X137.339Y-54.702
X138.039Y-52.261
X155.154Y-52.262
X155.854Y-54.704
X160.228Y-50.808
X160.928Y-53.25
X165.257Y-49.365
X165.957Y-51.807
X169.949Y-47.469
X171.295Y-49.623
X174.332Y-44.746
X175.678Y-46.9
X178.862Y-41.899
X180.208Y-44.053
T3
X142.94Y-56.41
X145.48Y-56.41
X148.02Y-56.41
X150.56Y-56.41
T0
M30
