M48
; DRILL file {KiCad 7.0.9} date Tue Dec 17 14:23:41 2024
; FORMAT={-:-/ absolute / metric / decimal}
; #@! TF.CreationDate,2024-12-17T14:23:41+09:00
; #@! TF.GenerationSoftware,Kicad,Pcbnew,7.0.9
; #@! TF.FileFunction,Plated,1,2,PTH
FMAT,2
METRIC
; #@! TA.AperFunction,Plated,PTH,ViaDrill
T1C0.400
; #@! TA.AperFunction,Plated,PTH,ComponentDrill
T2C0.900
; #@! TA.AperFunction,Plated,PTH,ComponentDrill
T3C1.000
%
G90
G05
T1
X140.1Y-103.35
X143.65Y-107.85
X149.925Y-109.075
X150.575Y-106.125
X153.289Y-103.505
X153.35Y-112.5
X159.575Y-112.25
X161.925Y-106.172
X162.625Y-115.1
X167.35Y-112.15
X167.894Y-114.427
X169.15Y-122.925
X170.561Y-110.617
X171.577Y-111.887
X173.4Y-115.125
X177.375Y-107.95
X178.175Y-105.9
X178.435Y-111.76
X180.625Y-111.425
X184.85Y-106.55
X186.055Y-112.522
X188.214Y-105.537
X188.595Y-109.982
X191.0Y-100.325
X193.25Y-109.225
X195.175Y-100.0
X195.326Y-104.775
X201.75Y-102.025
T2
X137.998Y-100.034
X139.697Y-98.146
X145.825Y-105.734
X147.095Y-103.534
X154.665Y-109.682
X155.45Y-107.266
X164.134Y-111.706
X164.4Y-109.18
X173.551Y-109.191
X173.817Y-111.717
X182.505Y-107.299
X183.29Y-109.714
X190.87Y-103.587
X192.14Y-105.786
X198.28Y-98.216
X199.979Y-100.104
T3
X165.188Y-125.462
X167.728Y-125.462
X170.268Y-125.462
X171.675Y-121.775
X172.808Y-125.462
T0
M30
