M48
; DRILL file {KiCad 7.0.9} date Tue Dec 17 15:03:42 2024
; FORMAT={-:-/ absolute / metric / decimal}
; #@! TF.CreationDate,2024-12-17T15:03:42+09:00
; #@! TF.GenerationSoftware,Kicad,Pcbnew,7.0.9
; #@! TF.FileFunction,Plated,1,2,PTH
FMAT,2
METRIC
; #@! TA.AperFunction,Plated,PTH,ViaDrill
T1C0.400
; #@! TA.AperFunction,Plated,PTH,ComponentDrill
T2C0.900
; #@! TA.AperFunction,Plated,PTH,ComponentDrill
T3C1.000
%
G90
G05
T1
X145.85Y-36.05
X149.175Y-36.15
X150.575Y-41.91
X155.194Y-33.655
X158.575Y-32.025
X158.625Y-35.575
X159.1Y-38.15
X163.725Y-33.125
X166.65Y-31.225
X168.325Y-33.95
X173.625Y-33.475
X175.808Y-30.487
X176.95Y-43.8
X177.175Y-64.925
X177.225Y-39.475
X177.225Y-74.1
X177.5Y-59.4
X178.375Y-51.175
X179.2Y-34.9
X180.075Y-65.25
X181.15Y-50.975
X181.475Y-37.625
X181.625Y-75.025
X181.675Y-29.45
X182.1Y-35.7
X183.15Y-31.65
X184.325Y-44.875
X184.475Y-59.25
X184.7Y-71.25
X184.925Y-51.25
X186.182Y-39.878
X188.8Y-33.65
X194.125Y-35.775
X196.977Y-37.325
X197.3Y-31.1
X203.625Y-37.475
X205.232Y-32.004
X209.275Y-39.775
X210.95Y-42.9
X213.125Y-36.325
X214.425Y-34.925
T2
X146.943Y-38.139
X147.728Y-40.554
X154.68Y-35.609
X155.465Y-38.025
X161.824Y-33.93
X162.221Y-36.438
X169.861Y-32.641
X170.258Y-35.15
X177.18Y-32.1
X177.18Y-34.64
X179.795Y-39.735
X179.81Y-47.875
X179.81Y-54.41
X179.825Y-62.55
X182.335Y-39.735
X182.35Y-47.875
X182.35Y-54.41
X182.365Y-62.55
X185.32Y-32.085
X185.32Y-34.625
X192.236Y-35.204
X192.633Y-32.695
X200.278Y-36.463
X200.676Y-33.954
X207.019Y-38.116
X207.804Y-35.701
X214.765Y-40.617
X215.55Y-38.202
T3
X177.31Y-81.025
X179.85Y-81.025
X182.39Y-81.025
X184.28Y-77.42
X184.93Y-81.025
T0
M30
