%TF.GenerationSoftware,KiCad,Pcbnew,7.0.9*%
%TF.CreationDate,2024-12-17T15:03:35+09:00*%
%TF.ProjectId,line_side_robot2,6c696e65-5f73-4696-9465-5f726f626f74,rev?*%
%TF.SameCoordinates,Original*%
%TF.FileFunction,Legend,Top*%
%TF.FilePolarity,Positive*%
%FSLAX46Y46*%
G04 Gerber Fmt 4.6, Leading zero omitted, Abs format (unit mm)*
G04 Created by KiCad (PCBNEW 7.0.9) date 2024-12-17 15:03:35*
%MOMM*%
%LPD*%
G01*
G04 APERTURE LIST*
%ADD10C,0.120000*%
G04 APERTURE END LIST*
D10*
%TO.C,J2*%
X182950000Y-76090000D02*
X184280000Y-76090000D01*
X182950000Y-77420000D02*
X182950000Y-76090000D01*
X182950000Y-78690000D02*
X182950000Y-78750000D01*
X182950000Y-78690000D02*
X185610000Y-78690000D01*
X182950000Y-78750000D02*
X185610000Y-78750000D01*
X185610000Y-78690000D02*
X185610000Y-78750000D01*
%TO.C,Q12*%
X179520000Y-46639000D02*
X179520000Y-46795000D01*
X179520000Y-48955000D02*
X179520000Y-49111000D01*
X182752334Y-46796392D02*
G75*
G03*
X179520001Y-46639485I-1672334J-1078608D01*
G01*
X182121129Y-46795164D02*
G75*
G03*
X180039040Y-46795001I-1041129J-1079836D01*
G01*
X180039040Y-48954999D02*
G75*
G03*
X182121129Y-48954836I1040960J1079999D01*
G01*
X179520001Y-49110515D02*
G75*
G03*
X182752334Y-48953608I1559999J1235515D01*
G01*
%TO.C,Q1*%
X154378611Y-38682554D02*
X154526976Y-38634348D01*
X156581258Y-37966871D02*
X156729623Y-37918664D01*
X153529453Y-35559784D02*
G75*
G03*
X154379071Y-38682405I1542597J-1257177D01*
G01*
X153723338Y-36160476D02*
G75*
G03*
X154366584Y-38140711I1348712J-656485D01*
G01*
X156420865Y-37473235D02*
G75*
G03*
X155777310Y-35493101I-1348815J656274D01*
G01*
X156729161Y-37918813D02*
G75*
G03*
X155581088Y-34893169I-1657111J1101852D01*
G01*
%TO.C,Q11*%
X179520000Y-53174000D02*
X179520000Y-53330000D01*
X179520000Y-55490000D02*
X179520000Y-55646000D01*
X182752334Y-53331392D02*
G75*
G03*
X179520001Y-53174485I-1672334J-1078608D01*
G01*
X182121129Y-53330164D02*
G75*
G03*
X180039040Y-53330001I-1041129J-1079836D01*
G01*
X180039040Y-55489999D02*
G75*
G03*
X182121129Y-55489836I1040960J1079999D01*
G01*
X179520001Y-55645515D02*
G75*
G03*
X182752334Y-55488608I1559999J1235515D01*
G01*
%TO.C,D2*%
X195229509Y-33116555D02*
X195127827Y-33758553D01*
X195229509Y-33116555D02*
X198034544Y-33560829D01*
X194869710Y-35388239D02*
X197674745Y-35832513D01*
%TO.C,Q10*%
X179535000Y-61314000D02*
X179535000Y-61470000D01*
X179535000Y-63630000D02*
X179535000Y-63786000D01*
X182767334Y-61471392D02*
G75*
G03*
X179535001Y-61314485I-1672334J-1078608D01*
G01*
X182136129Y-61470164D02*
G75*
G03*
X180054040Y-61470001I-1041129J-1079836D01*
G01*
X180054040Y-63629999D02*
G75*
G03*
X182136129Y-63629836I1040960J1079999D01*
G01*
X179535001Y-63785515D02*
G75*
G03*
X182767334Y-63628608I1559999J1235515D01*
G01*
%TO.C,Q4*%
X179505000Y-38499000D02*
X179505000Y-38655000D01*
X179505000Y-40815000D02*
X179505000Y-40971000D01*
X182737334Y-38656392D02*
G75*
G03*
X179505001Y-38499485I-1672334J-1078608D01*
G01*
X182106129Y-38655164D02*
G75*
G03*
X180024040Y-38655001I-1041129J-1079836D01*
G01*
X180024040Y-40814999D02*
G75*
G03*
X182106129Y-40814836I1040960J1079999D01*
G01*
X179505001Y-40970515D02*
G75*
G03*
X182737334Y-40813608I1559999J1235515D01*
G01*
%TO.C,Q14*%
X184084000Y-34915000D02*
X184240000Y-34915000D01*
X186400000Y-34915000D02*
X186556000Y-34915000D01*
X184241392Y-31682666D02*
G75*
G03*
X184084485Y-34914999I1078608J-1672334D01*
G01*
X184240164Y-32313871D02*
G75*
G03*
X184240001Y-34395960I1079836J-1041129D01*
G01*
X186399999Y-34395960D02*
G75*
G03*
X186399836Y-32313871I-1079999J1040960D01*
G01*
X186555515Y-34914999D02*
G75*
G03*
X186398608Y-31682666I-1235515J1559999D01*
G01*
%TO.C,D1*%
X210301719Y-36522861D02*
X210100858Y-37141048D01*
X210301719Y-36522861D02*
X213002720Y-37400469D01*
X209590980Y-38710291D02*
X212291981Y-39587899D01*
%TO.C,Q6*%
X169083049Y-35629845D02*
X169237129Y-35605441D01*
X171370535Y-35267542D02*
X171524615Y-35243139D01*
X168732856Y-32412684D02*
G75*
G03*
X169083527Y-35629768I1326938J-1483014D01*
G01*
X168830384Y-33036310D02*
G75*
G03*
X169155933Y-35092792I1229410J-859388D01*
G01*
X171289340Y-34754894D02*
G75*
G03*
X170963468Y-32698462I-1229546J859196D01*
G01*
X171524136Y-35243213D02*
G75*
G03*
X170863512Y-32075222I-1464342J1347515D01*
G01*
%TO.C,J1*%
X186200000Y-79755000D02*
X186200000Y-81025000D01*
X184930000Y-79755000D02*
X186200000Y-79755000D01*
X182770000Y-82067929D02*
X182770000Y-82465000D01*
X182010000Y-82067929D02*
X182010000Y-82465000D01*
X180230000Y-82067929D02*
X180230000Y-82465000D01*
X179470000Y-82067929D02*
X179470000Y-82465000D01*
X177690000Y-82067929D02*
X177690000Y-82465000D01*
X176930000Y-82067929D02*
X176930000Y-82465000D01*
X185310000Y-82135000D02*
X185310000Y-82465000D01*
X184550000Y-82135000D02*
X184550000Y-82465000D01*
X186260000Y-82465000D02*
X175980000Y-82465000D01*
X183660000Y-82465000D02*
X183660000Y-85125000D01*
X181120000Y-82465000D02*
X181120000Y-85125000D01*
X178580000Y-82465000D02*
X178580000Y-85125000D01*
X175980000Y-82465000D02*
X175980000Y-85125000D01*
X186260000Y-85125000D02*
X186260000Y-82465000D01*
X185310000Y-85125000D02*
X185310000Y-91125000D01*
X185250000Y-85125000D02*
X185250000Y-91125000D01*
X185130000Y-85125000D02*
X185130000Y-91125000D01*
X185010000Y-85125000D02*
X185010000Y-91125000D01*
X184890000Y-85125000D02*
X184890000Y-91125000D01*
X184770000Y-85125000D02*
X184770000Y-91125000D01*
X184650000Y-85125000D02*
X184650000Y-91125000D01*
X182770000Y-85125000D02*
X182770000Y-91125000D01*
X180230000Y-85125000D02*
X180230000Y-91125000D01*
X177690000Y-85125000D02*
X177690000Y-91125000D01*
X175980000Y-85125000D02*
X186260000Y-85125000D01*
X185310000Y-91125000D02*
X184550000Y-91125000D01*
X184550000Y-91125000D02*
X184550000Y-85125000D01*
X182770000Y-91125000D02*
X182010000Y-91125000D01*
X182010000Y-91125000D02*
X182010000Y-85125000D01*
X180230000Y-91125000D02*
X179470000Y-91125000D01*
X179470000Y-91125000D02*
X179470000Y-85125000D01*
X177690000Y-91125000D02*
X176930000Y-91125000D01*
X176930000Y-91125000D02*
X176930000Y-85125000D01*
%TO.C,D4*%
X164422870Y-33527979D02*
X164524552Y-34169977D01*
X164422870Y-33527979D02*
X167227905Y-33083705D01*
X164782669Y-35799663D02*
X167587704Y-35355389D01*
%TO.C,Q7*%
X213499742Y-40511313D02*
X213648107Y-40559520D01*
X215702389Y-41226997D02*
X215850754Y-41275203D01*
X214648277Y-37485817D02*
G75*
G03*
X213500203Y-40511463I509038J-1923793D01*
G01*
X214452055Y-38085749D02*
G75*
G03*
X213808499Y-40065885I705260J-1323861D01*
G01*
X215862780Y-40733360D02*
G75*
G03*
X216506026Y-38753125I-705465J1323750D01*
G01*
X215850294Y-41275053D02*
G75*
G03*
X216699911Y-38152434I-692979J1865443D01*
G01*
%TO.C,R1*%
X180652064Y-69560000D02*
X177597936Y-69560000D01*
X180652064Y-66840000D02*
X177597936Y-66840000D01*
%TO.C,Q9*%
X146641646Y-41212218D02*
X146790011Y-41164012D01*
X148844293Y-40496535D02*
X148992658Y-40448328D01*
X145792488Y-38089448D02*
G75*
G03*
X146642106Y-41212069I1542597J-1257177D01*
G01*
X145986373Y-38690140D02*
G75*
G03*
X146629619Y-40670375I1348712J-656485D01*
G01*
X148683900Y-40002899D02*
G75*
G03*
X148040345Y-38022765I-1348815J656274D01*
G01*
X148992196Y-40448477D02*
G75*
G03*
X147844123Y-37422833I-1657111J1101852D01*
G01*
%TO.C,D6*%
X149447002Y-37335579D02*
X149647863Y-37953766D01*
X149447002Y-37335579D02*
X152148003Y-36457971D01*
X150157741Y-39523009D02*
X152858742Y-38645401D01*
%TO.C,Q13*%
X175944000Y-34930000D02*
X176100000Y-34930000D01*
X178260000Y-34930000D02*
X178416000Y-34930000D01*
X176101392Y-31697666D02*
G75*
G03*
X175944485Y-34929999I1078608J-1672334D01*
G01*
X176100164Y-32328871D02*
G75*
G03*
X176100001Y-34410960I1079836J-1041129D01*
G01*
X178259999Y-34410960D02*
G75*
G03*
X178259836Y-32328871I-1079999J1040960D01*
G01*
X178415515Y-34929999D02*
G75*
G03*
X178258608Y-31697666I-1235515J1559999D01*
G01*
%TO.C,RV1*%
X176580000Y-76770000D02*
X177960000Y-76770000D01*
X176580000Y-76770000D02*
X176580000Y-71530000D01*
X180440000Y-76770000D02*
X181820000Y-76770000D01*
X181820000Y-76770000D02*
X181820000Y-71530000D01*
X176580000Y-71530000D02*
X177161000Y-71530000D01*
X178940000Y-71530000D02*
X179460000Y-71530000D01*
X181240000Y-71530000D02*
X181820000Y-71530000D01*
%TO.C,D4*%
X179755000Y-42635000D02*
X179755000Y-43285000D01*
X179755000Y-42635000D02*
X182595000Y-42635000D01*
X179755000Y-44935000D02*
X182595000Y-44935000D01*
%TO.C,Q2*%
X199012091Y-36555623D02*
X199166171Y-36580026D01*
X201299577Y-36917925D02*
X201453657Y-36942329D01*
X199673194Y-33387706D02*
G75*
G03*
X199012570Y-36555697I803718J-1820476D01*
G01*
X199573238Y-34010946D02*
G75*
G03*
X199247366Y-36067378I903674J-1197236D01*
G01*
X201380773Y-36405276D02*
G75*
G03*
X201706322Y-34348794I-903861J1197094D01*
G01*
X201453179Y-36942253D02*
G75*
G03*
X201803851Y-33725167I-976267J1734071D01*
G01*
%TO.C,Q5*%
X190969961Y-35297061D02*
X191124041Y-35321464D01*
X193257447Y-35659363D02*
X193411527Y-35683767D01*
X191631064Y-32129144D02*
G75*
G03*
X190970440Y-35297135I803718J-1820476D01*
G01*
X191531108Y-32752384D02*
G75*
G03*
X191205236Y-34808816I903674J-1197236D01*
G01*
X193338643Y-35146714D02*
G75*
G03*
X193664192Y-33090232I-903861J1197094D01*
G01*
X193411049Y-35683691D02*
G75*
G03*
X193761721Y-32466605I-976267J1734071D01*
G01*
%TO.C,Q8*%
X205753507Y-38010181D02*
X205901872Y-38058388D01*
X207956154Y-38725865D02*
X208104519Y-38774071D01*
X206902042Y-34984685D02*
G75*
G03*
X205753968Y-38010331I509038J-1923793D01*
G01*
X206705820Y-35584617D02*
G75*
G03*
X206062264Y-37564753I705260J-1323861D01*
G01*
X208116545Y-38232228D02*
G75*
G03*
X208759791Y-36251993I-705465J1323750D01*
G01*
X208104059Y-38773921D02*
G75*
G03*
X208953676Y-35651302I-692979J1865443D01*
G01*
%TO.C,D5*%
X179770000Y-57310000D02*
X179770000Y-57960000D01*
X179770000Y-57310000D02*
X182610000Y-57310000D01*
X179770000Y-59610000D02*
X182610000Y-59610000D01*
%TO.C,D3*%
X179810000Y-32110000D02*
X179810000Y-32760000D01*
X179810000Y-32110000D02*
X182650000Y-32110000D01*
X179810000Y-34410000D02*
X182650000Y-34410000D01*
%TO.C,Q3*%
X161045612Y-36918037D02*
X161199692Y-36893633D01*
X163333098Y-36555734D02*
X163487178Y-36531331D01*
X160695419Y-33700876D02*
G75*
G03*
X161046090Y-36917960I1326938J-1483014D01*
G01*
X160792947Y-34324502D02*
G75*
G03*
X161118496Y-36380984I1229410J-859388D01*
G01*
X163251903Y-36043086D02*
G75*
G03*
X162926031Y-33986654I-1229546J859196D01*
G01*
X163486699Y-36531405D02*
G75*
G03*
X162826075Y-33363414I-1464342J1347515D01*
G01*
%TD*%
M02*
