0
SECTION
2
HEADER
9
$INSUNITS
70
4
9
$ACADVER
1
AC1014
9
$HANDSEED
5
FFFF
0
ENDSEC
0
SECTION
2
TABLES
0
TABLE
2
VPORT
5
8
100
AcDbSymbolTable
0
ENDTAB
0
TABLE
2
LTYPE
5
5
100
AcDbSymbolTable
0
LTYPE
5
14
100
AcDbSymbolTableRecord
100
AcDbLinetypeTableRecord
2
BYBLOCK
70
0
0
LTYPE
5
15
100
AcDbSymbolTableRecord
100
AcDbLinetypeTableRecord
2
BYLAYER
70
0
0
ENDTAB
0
TABLE
2
LAYER
5
2
100
AcDbSymbolTable
70
2
0
LAYER
5
50
100
AcDbSymbolTableRecord
100
AcDbLayerTableRecord
2
0
70
0
6
CONTINUOUS
0
ENDTAB
0
TABLE
2
STYLE
5
3
100
AcDbSymbolTable
70
1
0
STYLE
5
11
100
AcDbSymbolTableRecord
100
AcDbTextStyleTableRecord
2
STANDARD
70
0
0
ENDTAB
0
TABLE
2
VIEW
5
6
100
AcDbSymbolTable
70
0
0
ENDTAB
0
TABLE
2
UCS
5
7
100
AcDbSymbolTable
70
0
0
ENDTAB
0
TABLE
2
APPID
5
9
100
AcDbSymbolTable
70
2
0
APPID
5
12
100
AcDbSymbolTableRecord
100
AcDbRegAppTableRecord
2
ACAD
70
0
0
ENDTAB
0
TABLE
2
DIMSTYLE
5
A
100
AcDbSymbolTable
70
1
0
ENDTAB
0
TABLE
2
BLOCK_RECORD
5
1
100
AcDbSymbolTable
70
1
0
BLOCK_RECORD
5
1F
100
AcDbSymbolTableRecord
100
AcDbBlockTableRecord
2
*MODEL_SPACE
0
BLOCK_RECORD
5
1B
100
AcDbSymbolTableRecord
100
AcDbBlockTableRecord
2
*PAPER_SPACE
0
ENDTAB
0
ENDSEC
0
SECTION
2
BLOCKS
0
BLOCK
5
20
100
AcDbEntity
100
AcDbBlockBegin
2
*MODEL_SPACE
0
ENDBLK
5
21
100
AcDbEntity
100
AcDbBlockEnd
0
BLOCK
5
1C
100
AcDbEntity
100
AcDbBlockBegin
2
*PAPER_SPACE
0
ENDBLK
5
1D
100
AcDbEntity
100
AcDbBlockEnd
0
ENDSEC
0
SECTION
2
ENTITIES
0
CIRCLE
5
100
100
AcDbEntity
8
0
100
AcDbCircle
10
57.500000819563866
20
6.6613392396295387e-15
30
0
40
1.4499999999999957
210
0
220
0
230
1
0
CIRCLE
5
101
100
AcDbEntity
8
0
100
AcDbCircle
10
-1.7763568394002505e-14
20
57.500000819563866
30
0
40
1.4499999999999993
210
0
220
0
230
1
0
CIRCLE
5
102
100
AcDbEntity
8
0
100
AcDbCircle
10
-6.6613381477509392e-15
20
-57.500000819563866
30
0
40
1.4499999999999993
210
0
220
0
230
1
0
CIRCLE
5
103
100
AcDbEntity
8
0
100
AcDbCircle
10
-57.500000819563866
20
6.6613392396295403e-15
30
0
40
1.4499999999999957
210
0
220
0
230
1
0
CIRCLE
5
104
100
AcDbEntity
8
0
100
AcDbCircle
10
0
20
0
30
0
40
54.999999999999993
210
0
220
0
230
1
0
CIRCLE
5
105
100
AcDbEntity
8
0
100
AcDbCircle
10
-34.347079744474215
20
-52.196322149391719
30
0
40
1.6000000000000014
210
0
220
0
230
1
0
CIRCLE
5
106
100
AcDbEntity
8
0
100
AcDbCircle
10
34.347079744474215
20
-52.196322149391719
30
0
40
1.6000000000000014
210
0
220
0
230
1
0
CIRCLE
5
107
100
AcDbEntity
8
0
100
AcDbCircle
10
-51.961524227066313
20
29.999999999999986
30
0
40
1.6500000000000004
210
0
220
0
230
1
0
CIRCLE
5
108
100
AcDbEntity
8
0
100
AcDbCircle
10
51.961524227066313
20
29.999999999999986
30
0
40
1.6500000000000004
210
0
220
0
230
1
0
CIRCLE
5
109
100
AcDbEntity
8
0
100
AcDbCircle
10
-51.961524227066313
20
-29.999999999999986
30
0
40
1.6500000000000004
210
0
220
0
230
1
0
LWPOLYLINE
5
110
100
AcDbEntity
8
0
100
AcDbPolyline
90
4
70
1
43
0.0
10
45.306917574210964
20
89.14753800777703
42
0.23953215398220459
10
-45.306917574211042
20
89.147538007776959
10
-37.824983663287391
20
81.665604096853343
42
-0.22034107250277196
10
37.824983663287391
20
81.665604096853343
0
LWPOLYLINE
5
111
100
AcDbEntity
8
0
100
AcDbPolyline
90
4
70
1
43
0.0
10
-89.147538007777001
20
45.306917574211042
42
0.23953215398220487
10
-89.147538007776959
20
-45.306917574211042
10
-81.665604096853343
20
-37.824983663287384
42
-0.22034107250277207
10
-81.665604096853329
20
37.824983663287426
0
LWPOLYLINE
5
112
100
AcDbEntity
8
0
100
AcDbPolyline
90
4
70
1
43
0.0
10
89.14753800777703
20
-45.306917574210942
42
0.23953215398220432
10
89.147538007777015
20
45.306917574210971
10
81.665604096853315
20
37.824983663287441
42
-0.22034107250277218
10
81.665604096853329
20
-37.824983663287412
0
CIRCLE
5
113
100
AcDbEntity
8
0
100
AcDbCircle
10
51.961524227066313
20
-29.999999999999986
30
0
40
1.6500000000000004
210
0
220
0
230
1
0
LWPOLYLINE
5
114
100
AcDbEntity
8
0
100
AcDbPolyline
90
12
70
1
43
0.0
10
-50.397041145047545
20
-32.559764185638457
42
0.008972343214227893
10
-49.196322149391712
20
-34.347079744474222
10
-59.705268176267332
20
-44.856025771349842
10
-74.200957190591566
20
-30.360336757025614
10
-79.400742853656098
20
-35.560122420090174
42
-0.21370170274421019
10
-79.400742853656112
20
35.560122420090117
10
-74.200957190591609
20
30.360336757025593
10
-59.705268176267381
20
44.85602577134982
10
-49.196322149391719
20
34.347079744474179
42
0.0089723432142263457
10
-50.397041145047517
20
32.559764185638471
42
1.0253204627247281
10
-53.396103498517419
20
27.365235814361579
42
0.24132430454031709
10
-53.396103498517434
20
-27.36523581436149
42
1.0253204627247259
0
CIRCLE
5
115
100
AcDbEntity
8
0
100
AcDbCircle
10
-41.886406027131464
20
-91.77594250724934
30
0
40
1.0999999999999943
210
0
220
0
230
1
0
CIRCLE
5
116
100
AcDbEntity
8
0
100
AcDbCircle
10
41.886406027131464
20
-85.850942507249329
30
0
40
1.1000000000000032
210
0
220
0
230
1
0
CIRCLE
5
117
100
AcDbEntity
8
0
100
AcDbCircle
10
-41.886406027131464
20
-85.850942507249329
30
0
40
1.1000000000000032
210
0
220
0
230
1
0
CIRCLE
5
118
100
AcDbEntity
8
0
100
AcDbCircle
10
36.845618131264175
20
74.200957190591566
30
0
40
1.6500000000000004
210
0
220
0
230
1
0
CIRCLE
5
119
100
AcDbEntity
8
0
100
AcDbCircle
10
41.886406027131464
20
-91.77594250724934
30
0
40
1.1000000000000032
210
0
220
0
230
1
0
CIRCLE
5
120
100
AcDbEntity
8
0
100
AcDbCircle
10
-36.845618131264175
20
74.200957190591566
30
0
40
1.6500000000000004
210
0
220
0
230
1
0
CIRCLE
5
121
100
AcDbEntity
8
0
100
AcDbCircle
10
-48.391559677282558
20
59.705268176267332
30
0
40
1.6000000000000014
210
0
220
-0
230
1
0
CIRCLE
5
122
100
AcDbEntity
8
0
100
AcDbCircle
10
59.705268176267325
20
48.391559677282586
30
0
40
1.6000000000000014
210
0
220
-0
230
1
0
CIRCLE
5
123
100
AcDbEntity
8
0
100
AcDbCircle
10
-59.705268176267332
20
-48.391559677282558
30
0
40
1.6000000000000014
210
0
220
-0
230
1
0
LWPOLYLINE
5
124
100
AcDbEntity
8
0
100
AcDbPolyline
90
4
70
1
43
0.0
10
46.136868303343405
20
-38.358693710291377
10
56.169734270334615
20
-48.391559677282572
10
48.391559677282572
20
-56.16973427033458
10
38.358693710291384
20
-46.136868303343412
42
0.045930021816436406
0
CIRCLE
5
125
100
AcDbEntity
8
0
100
AcDbCircle
10
-89.032914021890676
20
-48.723699727717644
30
0
40
1.6000000000000014
210
0
220
-0
230
1
0
CIRCLE
5
126
100
AcDbEntity
8
0
100
AcDbCircle
10
-48.723699727717651
20
89.032914021890662
30
0
40
1.5999999999999925
210
0
220
-0
230
1
0
CIRCLE
5
127
100
AcDbEntity
8
0
100
AcDbCircle
10
-48.391559677282572
20
-59.70526817626731
30
0
40
1.6000000000000014
210
0
220
-0
230
1
0
CIRCLE
5
128
100
AcDbEntity
8
0
100
AcDbCircle
10
48.391559677282565
20
59.705268176267339
30
0
40
1.6000000000000014
210
0
220
-0
230
1
0
CIRCLE
5
129
100
AcDbEntity
8
0
100
AcDbCircle
10
15.499999999999998
20
-61.850896498509996
30
0
40
1.6000000000000014
210
0
220
-0
230
1
0
LWPOLYLINE
5
130
100
AcDbEntity
8
0
100
AcDbPolyline
90
4
70
1
43
0.0
10
12.999999999999998
20
-65.738442507249289
10
-13.000000000000004
20
-65.738442507249289
10
-12.999999999999998
20
-58.574738582429873
42
0.10963549365923968
10
12.999999999999973
20
-58.574738582429887
0
CIRCLE
5
131
100
AcDbEntity
8
0
100
AcDbCircle
10
89.032914021890662
20
48.723699727717687
30
0
40
1.6000000000000014
210
0
220
-0
230
1
0
LWPOLYLINE
5
132
100
AcDbEntity
8
0
100
AcDbPolyline
90
2
70
1
43
0.0
10
-49.15821072426256
20
-87.493043834542235
42
1.0007414768768865
10
-48.291471916412462
20
-90.573426637589819
42
1.0007414764771834
0
CIRCLE
5
133
100
AcDbEntity
8
0
100
AcDbCircle
10
-15.500000000000004
20
-61.850896498509996
30
0
40
1.6000000000000014
210
0
220
-0
230
1
0
CIRCLE
5
134
100
AcDbEntity
8
0
100
AcDbCircle
10
-89.033556450415844
20
48.725982913572068
30
0
40
1.6000000000000014
210
0
220
-0
230
1
0
LWPOLYLINE
5
135
100
AcDbEntity
8
0
100
AcDbPolyline
90
4
70
1
43
0.0
10
38.358693710291362
20
46.136868303343412
10
48.391559677282572
20
56.169734270334608
10
56.16973427033458
20
48.391559677282601
10
46.136868303343377
20
38.358693710291384
42
0.045930021816435955
0
CIRCLE
5
136
100
AcDbEntity
8
0
100
AcDbCircle
10
48.391559677282565
20
-59.705268176267325
30
0
40
1.6000000000000014
210
0
220
-0
230
1
0
CIRCLE
5
137
100
AcDbEntity
8
0
100
AcDbCircle
10
48.725982913572054
20
89.033556450415873
30
0
40
1.5999999999999925
210
0
220
-0
230
1
0
CIRCLE
5
138
100
AcDbEntity
8
0
100
AcDbCircle
10
-59.70526817626731
20
48.391559677282572
30
0
40
1.6000000000000014
210
0
220
-0
230
1
0
LWPOLYLINE
5
139
100
AcDbEntity
8
0
100
AcDbPolyline
90
9
70
1
43
0.0
10
-26.918680026152082
20
-65.738442507249289
10
-33.184033402055135
20
-71.377260545562052
10
-44.856025771349834
20
-59.705268176267346
10
-37.347079744474215
20
-52.196322149391719
10
-36.847079744474215
20
-52.196322149391719
42
0.99999999999999989
10
-31.847079744474218
20
-52.196322149391719
10
-29.589591989024076
20
-52.196322149391719
42
0.052805414447184736
10
-18
20
-57.236352085016733
10
-18.000000000000004
20
-65.738442507249289
0
CIRCLE
5
140
100
AcDbEntity
8
0
100
AcDbCircle
10
89.033556450415844
20
-48.725982913572061
30
0
40
1.6000000000000014
210
0
220
-0
230
1
0
LWPOLYLINE
5
141
100
AcDbEntity
8
0
100
AcDbPolyline
90
9
70
1
43
0.0
10
33.184033402055121
20
-71.377260545562066
10
26.918680026152071
20
-65.738442507249331
10
18
20
-65.738442507249303
10
18
20
-57.236352085016769
42
0.052805414447184736
10
29.589591989024129
20
-52.196322149391719
10
31.847079744474218
20
-52.196322149391719
42
0.99999999999999989
10
36.847079744474215
20
-52.196322149391719
10
37.347079744474215
20
-52.196322149391719
10
44.856025771349842
20
-59.705268176267346
0
LWPOLYLINE
5
142
100
AcDbEntity
8
0
100
AcDbPolyline
90
4
70
1
43
0.0
10
-38.358693710291369
20
-46.136868303343419
10
-48.391559677282586
20
-56.169734270334615
10
-56.169734270334587
20
-48.391559677282594
10
-46.136868303343412
20
-38.358693710291384
42
0.045930021816436108
0
CIRCLE
5
143
100
AcDbEntity
8
0
100
AcDbCircle
10
59.705268176267325
20
-48.391559677282565
30
0
40
1.6000000000000014
210
0
220
-0
230
1
0
CIRCLE
5
144
100
AcDbEntity
8
0
100
AcDbCircle
10
48.723699727717658
20
-89.032914021890662
30
0
40
1.6000000000000014
210
0
220
-0
230
1
0
LWPOLYLINE
5
145
100
AcDbEntity
8
0
100
AcDbPolyline
90
4
70
1
43
0.0
10
-46.136868303343412
20
38.358693710291362
10
-56.169734270334644
20
48.391559677282565
10
-48.391559677282615
20
56.169734270334587
10
-38.358693710291384
20
46.136868303343412
42
0.045930021816436406
0
LWPOLYLINE
5
146
100
AcDbEntity
8
0
100
AcDbPolyline
90
8
70
1
43
0.0
10
35.560122420090117
20
79.400742853656098
10
30.360336757025603
20
74.200957190591566
10
44.856025771349842
20
59.705268176267346
10
34.347079744474193
20
49.196322149391719
42
0.31454429112991455
10
-34.347079744474215
20
49.196322149391712
10
-44.856025771349891
20
59.705268176267332
10
-30.360336757025653
20
74.200957190591566
10
-35.560122420090124
20
79.400742853656098
42
-0.21370170274421005
0
LWPOLYLINE
5
147
100
AcDbEntity
8
0
100
AcDbPolyline
90
24
70
1
43
0.0
10
74.200957190591566
20
-38.845618131264182
10
89.788695038943473
20
-54.433355979616103
42
0.27944822962509919
10
89.788695038943473
20
54.433355979616081
10
74.200957190591566
20
38.845618131264196
10
38.845618131264168
20
74.200957190591581
10
54.433355979616096
20
89.788695038943501
42
0.27944822962509908
10
-54.433355979616081
20
89.788695038943473
10
-38.845618131264231
20
74.200957190591566
10
-74.200957190591609
20
38.84561813126416
10
-89.78869503894353
20
54.433355979616081
42
0.27944822962509891
10
-89.788695038943501
20
-54.433355979616032
10
-74.200957190591566
20
-38.845618131264182
10
-38.845618131264182
20
-74.200957190591566
10
-54.433355979616103
20
-89.788695038943473
42
0.024806397148828974
10
-45.272812054263042
20
-94.738442507249289
10
-38.500000000000021
20
-94.73844250724926
10
-38.500000000000014
20
-82.88844250724928
10
-25.000000000000004
20
-70.738442507249289
10
24.999999999999996
20
-70.738442507249303
10
38.499999999999986
20
-82.888442507249323
10
38.499999999999986
20
-94.738442507249303
10
45.272812054262921
20
-94.738442507249303
42
0.024806397148829255
10
54.433355979616074
20
-89.788695038943473
10
38.845618131264182
20
-74.200957190591566
0
LWPOLYLINE
5
148
100
AcDbEntity
8
0
100
AcDbPolyline
90
12
70
1
43
0.0
10
53.396103498517419
20
-27.36523581436153
42
0.24132430454031717
10
53.396103498517405
20
27.36523581436154
42
1.0253204627247234
10
50.397041145047581
20
32.559764185638407
42
0.0089723432142263457
10
49.196322149391705
20
34.347079744474236
10
59.705268176267332
20
44.856025771349849
10
74.200957190591566
20
30.360336757025625
10
79.400742853656084
20
35.560122420090138
42
-0.21370170274421019
10
79.400742853656084
20
-35.560122420090124
10
74.200957190591566
20
-30.360336757025628
10
59.705268176267346
20
-44.856025771349842
10
49.196322149391712
20
-34.347079744474208
42
0.0089723432142247983
10
50.397041145047524
20
-32.559764185638457
42
1.0253204627247245
0
CIRCLE
5
149
100
AcDbEntity
8
0
100
AcDbCircle
10
0
20
0
30
0
40
55.000000819563866
210
0
220
0
230
1
0
CIRCLE
5
150
100
AcDbEntity
8
0
100
AcDbCircle
10
-6.6613381477509392e-15
20
-57.500000819563866
30
0
40
1.4499999999999993
210
0
220
0
230
1
0
CIRCLE
5
151
100
AcDbEntity
8
0
100
AcDbCircle
10
-6.6613381477509392e-15
20
-57.500000819563866
30
0
40
2.5000008195638745
210
0
220
0
230
1
0
CIRCLE
5
152
100
AcDbEntity
8
0
100
AcDbCircle
10
-57.500000819563866
20
6.6613392396295403e-15
30
0
40
2.5000008195638745
210
0
220
0
230
1
0
CIRCLE
5
153
100
AcDbEntity
8
0
100
AcDbCircle
10
-57.500000819563866
20
6.6613392396295403e-15
30
0
40
1.4499999999999957
210
0
220
0
230
1
0
CIRCLE
5
154
100
AcDbEntity
8
0
100
AcDbCircle
10
-1.7763568394002505e-14
20
57.500000819563866
30
0
40
1.4499999999999993
210
0
220
0
230
1
0
CIRCLE
5
155
100
AcDbEntity
8
0
100
AcDbCircle
10
-1.7763568394002505e-14
20
57.500000819563866
30
0
40
2.4999991804361521
210
0
220
0
230
1
0
CIRCLE
5
156
100
AcDbEntity
8
0
100
AcDbCircle
10
57.500000819563866
20
6.6613392396295387e-15
30
0
40
1.4499999999999957
210
0
220
0
230
1
0
CIRCLE
5
157
100
AcDbEntity
8
0
100
AcDbCircle
10
57.500000819563866
20
6.6613392396295387e-15
30
0
40
2.4999991804361343
210
0
220
0
230
1
0
LINE
5
158
100
AcDbEntity
8
0
100
AcDbLine
10
-6.6613381477509392e-15
20
-57.500000819563866
30
0
11
2.500000037252903
21
-57.500000819563866
31
0
0
LINE
5
159
100
AcDbEntity
8
0
100
AcDbLine
10
2.500000037252903
20
-57.500000819563866
30
0
11
2.500000037252903
21
-54.943152437894696
31
0
0
LINE
5
160
100
AcDbEntity
8
0
100
AcDbLine
10
-6.6613381477509392e-15
20
-57.500000819563866
30
0
11
-2.500000037252903
21
-57.500000819563866
31
0
0
LINE
5
161
100
AcDbEntity
8
0
100
AcDbLine
10
-2.500000037252903
20
-57.500000819563866
30
0
11
-2.500000037252903
21
-54.943153258306545
31
0
0
LINE
5
162
100
AcDbEntity
8
0
100
AcDbLine
10
-57.500000819563866
20
6.6613392396295403e-15
30
0
11
-57.500000819563866
21
-2.500000037252903
31
0
0
LINE
5
163
100
AcDbEntity
8
0
100
AcDbLine
10
-57.500000819563866
20
-2.500000037252903
30
0
11
-54.943152437894696
21
-2.500000037252903
31
0
0
LINE
5
164
100
AcDbEntity
8
0
100
AcDbLine
10
-57.500000819563866
20
6.6613392396295403e-15
30
0
11
-57.500000819563866
21
2.500000037252903
31
0
0
LINE
5
165
100
AcDbEntity
8
0
100
AcDbLine
10
-57.500000819563866
20
2.500000037252903
30
0
11
-54.943152437894696
21
2.500000037252903
31
0
0
LINE
5
166
100
AcDbEntity
8
0
100
AcDbLine
10
-1.7763568394002505e-14
20
57.500000819563866
30
0
11
2.500000037252903
21
57.500000819563866
31
0
0
LINE
5
167
100
AcDbEntity
8
0
100
AcDbLine
10
2.500000037252903
20
57.500000819563866
30
0
11
2.500000037252903
21
54.943152437894696
31
0
0
LINE
5
168
100
AcDbEntity
8
0
100
AcDbLine
10
-1.7763568394002505e-14
20
57.500000819563866
30
0
11
-2.500000037252903
21
57.500000819563866
31
0
0
LINE
5
169
100
AcDbEntity
8
0
100
AcDbLine
10
-2.500000037252903
20
57.500000819563866
30
0
11
-2.500000037252903
21
54.943152437894696
31
0
0
LINE
5
170
100
AcDbEntity
8
0
100
AcDbLine
10
57.500000819563866
20
6.6613392396295387e-15
30
0
11
57.500000819563866
21
2.499999180436141
31
0
0
LINE
5
171
100
AcDbEntity
8
0
100
AcDbLine
10
57.500000819563866
20
2.499999180436141
30
0
11
54.94315247688121
21
2.499999180436141
31
0
0
LINE
5
172
100
AcDbEntity
8
0
100
AcDbLine
10
57.500000819563866
20
6.6613392396295387e-15
30
0
11
57.500000819563866
21
-2.4999991804361277
31
0
0
LINE
5
173
100
AcDbEntity
8
0
100
AcDbLine
10
57.500000819563866
20
-2.4999991804361277
30
0
11
54.94315247688121
21
-2.4999991804361272
31
0
0
CIRCLE
5
174
100
AcDbEntity
8
0
100
AcDbCircle
10
0
20
0
30
0
40
57.500000819563866
210
0
220
0
230
1
0
LINE
5
175
100
AcDbEntity
8
0
100
AcDbLine
10
55.000000819563866
20
0
30
0
11
45.000000819563866
21
0
31
0
0
CIRCLE
5
176
100
AcDbEntity
8
0
100
AcDbCircle
10
0
20
0
30
0
40
45.000000819563866
210
0
220
0
230
1
0
LINE
5
177
100
AcDbEntity
8
0
100
AcDbLine
10
0
20
45.000000670552254
30
0
11
-1.7763568394002505e-14
21
25
31
0
0
LINE
5
178
100
AcDbEntity
8
0
100
AcDbLine
10
-1.7763568394002505e-14
20
25
30
0
11
-37.416574853408846
21
25.000000000000036
31
0
0
LINE
5
179
100
AcDbEntity
8
0
100
AcDbLine
10
-1.7763568394002505e-14
20
25
30
0
11
37.416574853408889
21
24.999999999999964
31
0
0
LINE
5
180
100
AcDbEntity
8
0
100
AcDbLine
10
57.500000819563866
20
6.6613392396295387e-15
30
0
11
-57.500000819563866
21
6.6613392396295403e-15
31
0
0
LINE
5
181
100
AcDbEntity
8
0
100
AcDbLine
10
-6.6613381477509392e-15
20
-57.500000819563866
30
0
11
-1.7763568394002505e-14
21
57.500000819563866
31
0
0
ENDSEC
0
SECTION
2
OBJECTS
0
DICTIONARY
5
C
100
AcDbDictionary
3
ACAD_GROUP
350
D
3
ACAD_MLINESTYLE
350
17
0
DICTIONARY
5
D
100
AcDbDictionary
0
DICTIONARY
5
1A
330
C
100
AcDbDictionary
0
DICTIONARY
5
17
100
AcDbDictionary
0
ENDSEC
0
EOF
