%TF.GenerationSoftware,KiCad,Pcbnew,7.0.9*%
%TF.CreationDate,2025-05-06T13:14:27+09:00*%
%TF.ProjectId,IR_board_syuuseibann,49525f62-6f61-4726-945f-737975757365,rev?*%
%TF.SameCoordinates,Original*%
%TF.FileFunction,Profile,NP*%
%FSLAX46Y46*%
G04 Gerber Fmt 4.6, Leading zero omitted, Abs format (unit mm)*
G04 Created by KiCad (PCBNEW 7.0.9) date 2025-05-06 13:14:27*
%MOMM*%
%LPD*%
G01*
G04 APERTURE LIST*
%TA.AperFunction,Profile*%
%ADD10C,0.200000*%
%TD*%
G04 APERTURE END LIST*
D10*
X110771801Y-76926123D02*
X110771801Y-90943465D01*
X112040558Y-124372610D02*
G75*
G03*
X112040558Y-124372610I-1600000J0D01*
G01*
X162030124Y-97444339D02*
G75*
G03*
X162030131Y-92800864I-927124J2321739D01*
G01*
X107464088Y-129747584D02*
G75*
G03*
X108786963Y-126247610I12J1999984D01*
G01*
X174271801Y-129747610D02*
X164079514Y-129747610D01*
X102921801Y-132747610D02*
G75*
G03*
X102921801Y-132747610I-1650000J0D01*
G01*
X109513460Y-122050836D02*
G75*
G03*
X108786963Y-126247610I927140J-2321764D01*
G01*
X171921801Y-132747610D02*
G75*
G03*
X171921801Y-132747610I-1650000J0D01*
G01*
X107501213Y-75381583D02*
G75*
G03*
X95460036Y-128594669I28270587J-34366027D01*
G01*
X162030136Y-97444369D02*
G75*
G03*
X160771801Y-99301755I741564J-1857331D01*
G01*
X109513464Y-92800846D02*
G75*
G03*
X109513471Y-97444356I927136J-2321754D01*
G01*
X95460030Y-128594672D02*
G75*
G03*
X97271801Y-129747610I1811770J847072D01*
G01*
X164042400Y-75381570D02*
G75*
G03*
X160771801Y-76926123I-1270600J-1544530D01*
G01*
X162703044Y-124372610D02*
G75*
G03*
X162703044Y-124372610I-1600000J0D01*
G01*
X162756619Y-126247587D02*
G75*
G03*
X162030131Y-122050864I-1653619J1874987D01*
G01*
X160771803Y-90943465D02*
G75*
G03*
X162030131Y-92800863I2000097J65D01*
G01*
X89921810Y-109778318D02*
G75*
G03*
X89921810Y-109778318I-1650000J0D01*
G01*
X174271801Y-129747605D02*
G75*
G03*
X176083566Y-128594669I-1J2000005D01*
G01*
X160771801Y-90943465D02*
X160771801Y-76926123D01*
X110771812Y-99301755D02*
G75*
G03*
X109513471Y-97444358I-1999912J55D01*
G01*
X158871801Y-142747610D02*
G75*
G03*
X158871801Y-142747610I-3600000J0D01*
G01*
X160771801Y-120193465D02*
X160771801Y-99301755D01*
X184921792Y-109778318D02*
G75*
G03*
X184921792Y-109778318I-1650000J0D01*
G01*
X160771803Y-120193465D02*
G75*
G03*
X162030131Y-122050863I2000097J65D01*
G01*
X162756621Y-126247590D02*
G75*
G03*
X164079514Y-129747610I1322879J-1500010D01*
G01*
X176083554Y-128594663D02*
G75*
G03*
X164042389Y-75381583I-40311754J18847063D01*
G01*
X109513460Y-92800835D02*
G75*
G03*
X110771801Y-90943465I-741560J1857335D01*
G01*
X110771801Y-99301755D02*
X110771801Y-120193465D01*
X137421801Y-64747609D02*
G75*
G03*
X137421801Y-64747609I-1650000J0D01*
G01*
X110771781Y-76926123D02*
G75*
G03*
X107501213Y-75381583I-1999981J23D01*
G01*
X107464088Y-129747610D02*
X97271801Y-129747610D01*
X112040558Y-95122610D02*
G75*
G03*
X112040558Y-95122610I-1600000J0D01*
G01*
X109513460Y-122050835D02*
G75*
G03*
X110771801Y-120193465I-741560J1857335D01*
G01*
X195771801Y-109747610D02*
G75*
G03*
X195771801Y-109747610I-60000000J0D01*
G01*
X162703044Y-95122610D02*
G75*
G03*
X162703044Y-95122610I-1600000J0D01*
G01*
M02*
