M48
; DRILL file {KiCad 7.0.9} date Tue May  6 13:14:29 2025
; FORMAT={-:-/ absolute / metric / decimal}
; #@! TF.CreationDate,2025-05-06T13:14:29+09:00
; #@! TF.GenerationSoftware,Kicad,Pcbnew,7.0.9
; #@! TF.FileFunction,Plated,1,2,PTH
FMAT,2
METRIC
; #@! TA.AperFunction,Plated,PTH,ViaDrill
T1C0.400
; #@! TA.AperFunction,Plated,PTH,ComponentDrill
T2C0.700
; #@! TA.AperFunction,Plated,PTH,ComponentDrill
T3C0.800
; #@! TA.AperFunction,Plated,PTH,ComponentDrill
T4C1.000
; #@! TA.AperFunction,Plated,PTH,ComponentDrill
T5C1.100
%
G90
G05
T1
X78.88Y-105.53
X79.92Y-115.31
X81.94Y-128.22
X83.89Y-84.43
X87.01Y-135.39
X91.71Y-99.31
X92.6Y-146.55
X95.2Y-89.78
X98.73Y-66.19
X110.48Y-74.99
X110.88Y-161.78
X112.66Y-128.66
X114.79Y-126.6
X117.09Y-55.44
X118.1Y-102.98
X118.14Y-122.92
X120.21Y-162.58
X123.48Y-84.03
X124.4Y-88.91
X126.23Y-91.55
X128.26Y-109.69
X130.08Y-92.35
X130.67Y-113.51
X131.12Y-102.13
X131.48Y-166.85
X132.93Y-137.01
X134.57Y-100.98
X135.7Y-118.82
X137.84Y-107.31
X139.11Y-84.47
X140.04Y-52.84
X141.19Y-101.97
X141.72Y-121.32
X145.6Y-108.15
X145.7Y-121.18
X147.42Y-110.52
X148.66Y-79.26
X148.98Y-115.18
X149.15Y-152.77
X150.25Y-125.28
X150.53Y-162.96
X150.63Y-99.82
X153.14Y-123.74
X154.64Y-164.87
X160.57Y-75.0
X160.92Y-58.02
X173.24Y-152.94
X178.9Y-72.53
X187.24Y-135.03
X190.18Y-90.91
X192.94Y-114.07
T2
X83.665Y-115.24
X86.645Y-92.189
X88.62Y-132.08
X88.745Y-115.24
X91.339Y-94.133
X93.313Y-130.136
X97.107Y-74.72
X100.699Y-78.312
X100.755Y-148.43
X104.348Y-144.838
X113.457Y-62.585
X115.401Y-67.278
X118.224Y-158.891
X120.168Y-154.198
X130.676Y-58.01
X130.676Y-63.09
X138.366Y-156.791
X138.366Y-161.871
X151.404Y-65.303
X153.348Y-60.61
X156.171Y-152.223
X158.115Y-156.917
X167.224Y-74.664
X170.817Y-71.071
X170.873Y-141.189
X174.465Y-144.781
X178.259Y-89.365
X180.233Y-125.369
X182.826Y-104.24
X182.952Y-87.421
X184.927Y-127.313
X187.906Y-104.24
T3
X86.195Y-118.45
X87.754Y-96.122
X88.695Y-118.45
X90.064Y-97.079
X92.186Y-134.078
X94.496Y-133.121
X96.626Y-78.779
X98.394Y-80.547
X104.814Y-148.911
X106.582Y-147.143
X111.459Y-66.151
X112.416Y-68.46
X122.158Y-157.782
X123.114Y-155.473
X127.466Y-60.54
X127.466Y-63.04
X136.1Y-80.74
X136.1Y-83.24
X141.576Y-156.841
X141.576Y-159.341
X143.24Y-142.91
X145.74Y-142.91
X148.022Y-65.155
X148.978Y-62.845
X159.156Y-151.041
X159.18Y-115.66
X159.18Y-118.16
X160.113Y-153.351
X164.99Y-72.358
X166.758Y-70.591
X173.178Y-138.955
X174.946Y-140.722
X177.076Y-86.381
X179.386Y-85.424
X181.508Y-122.422
X182.876Y-101.03
X183.818Y-123.379
X185.376Y-101.03
T4
X80.781Y-107.226
X80.781Y-109.766
X80.781Y-112.306
X83.99Y-91.062
X84.279Y-128.191
X84.962Y-88.716
X85.251Y-130.538
X85.934Y-86.369
X86.223Y-132.884
X95.084Y-72.663
X95.107Y-146.86
X96.88Y-70.867
X96.903Y-148.656
X98.677Y-69.071
X98.699Y-150.452
X112.361Y-59.916
X112.418Y-159.608
X114.708Y-58.944
X114.765Y-160.58
X117.055Y-57.972
X117.112Y-161.552
X119.77Y-74.951
X119.77Y-77.491
X119.77Y-80.031
X119.77Y-82.571
X119.77Y-85.111
X119.77Y-87.651
X119.77Y-90.191
X119.77Y-92.731
X128.296Y-78.3
X128.296Y-80.84
X128.296Y-83.38
X128.296Y-85.92
X128.296Y-88.46
X128.296Y-91.0
X128.296Y-93.54
X131.986Y-116.87
X133.23Y-54.746
X133.262Y-164.756
X134.526Y-116.87
X135.77Y-54.746
X135.802Y-164.756
X137.066Y-116.87
X138.31Y-54.746
X138.342Y-164.756
X139.606Y-116.87
X143.536Y-78.3
X143.536Y-80.84
X143.536Y-83.38
X143.536Y-85.92
X143.536Y-88.46
X143.536Y-91.0
X143.536Y-93.54
X151.36Y-101.9
X151.36Y-104.44
X151.36Y-106.98
X151.36Y-109.52
X151.36Y-112.06
X151.36Y-114.6
X151.36Y-117.14
X151.77Y-74.951
X151.77Y-77.491
X151.77Y-80.031
X151.77Y-82.571
X151.77Y-85.111
X151.77Y-87.651
X151.77Y-90.191
X151.77Y-92.731
X151.891Y-133.65
X153.9Y-101.9
X153.9Y-104.44
X153.9Y-106.98
X153.9Y-109.52
X153.9Y-112.06
X153.9Y-114.6
X153.9Y-117.14
X154.431Y-133.65
X154.474Y-57.955
X154.503Y-161.535
X156.821Y-58.927
X156.85Y-160.563
X159.168Y-59.899
X159.197Y-159.591
X172.873Y-69.049
X172.895Y-150.43
X174.669Y-70.845
X174.692Y-148.634
X176.465Y-72.641
X176.488Y-146.838
X185.626Y-86.34
X185.638Y-133.132
X186.598Y-88.687
X186.61Y-130.786
X187.57Y-91.033
X187.582Y-128.439
X190.791Y-107.195
X190.791Y-109.735
X190.791Y-112.275
T5
X116.646Y-132.2
X116.646Y-138.7
X121.146Y-132.2
X121.146Y-138.7
X125.376Y-146.22
X125.376Y-152.72
X129.876Y-146.22
X129.876Y-152.72
X133.596Y-146.23
X133.596Y-152.73
X138.096Y-146.23
X138.096Y-152.73
X142.186Y-146.22
X142.186Y-152.72
X146.686Y-146.22
X146.686Y-152.72
T0
M30
