%TF.GenerationSoftware,KiCad,Pcbnew,7.0.9*%
%TF.CreationDate,2024-12-16T15:20:58+09:00*%
%TF.ProjectId,kicker,6b69636b-6572-42e6-9b69-6361645f7063,rev?*%
%TF.SameCoordinates,Original*%
%TF.FileFunction,Copper,L2,Bot*%
%TF.FilePolarity,Positive*%
%FSLAX46Y46*%
G04 Gerber Fmt 4.6, Leading zero omitted, Abs format (unit mm)*
G04 Created by KiCad (PCBNEW 7.0.9) date 2024-12-16 15:20:58*
%MOMM*%
%LPD*%
G01*
G04 APERTURE LIST*
G04 Aperture macros list*
%AMRoundRect*
0 Rectangle with rounded corners*
0 $1 Rounding radius*
0 $2 $3 $4 $5 $6 $7 $8 $9 X,Y pos of 4 corners*
0 Add a 4 corners polygon primitive as box body*
4,1,4,$2,$3,$4,$5,$6,$7,$8,$9,$2,$3,0*
0 Add four circle primitives for the rounded corners*
1,1,$1+$1,$2,$3*
1,1,$1+$1,$4,$5*
1,1,$1+$1,$6,$7*
1,1,$1+$1,$8,$9*
0 Add four rect primitives between the rounded corners*
20,1,$1+$1,$2,$3,$4,$5,0*
20,1,$1+$1,$4,$5,$6,$7,0*
20,1,$1+$1,$6,$7,$8,$9,0*
20,1,$1+$1,$8,$9,$2,$3,0*%
%AMHorizOval*
0 Thick line with rounded ends*
0 $1 width*
0 $2 $3 position (X,Y) of the first rounded end (center of the circle)*
0 $4 $5 position (X,Y) of the second rounded end (center of the circle)*
0 Add line between two ends*
20,1,$1,$2,$3,$4,$5,0*
0 Add two circle primitives to create the rounded ends*
1,1,$1,$2,$3*
1,1,$1,$4,$5*%
G04 Aperture macros list end*
%TA.AperFunction,ComponentPad*%
%ADD10RoundRect,0.250001X-1.555634X0.000000X0.000000X-1.555634X1.555634X0.000000X0.000000X1.555634X0*%
%TD*%
%TA.AperFunction,ComponentPad*%
%ADD11C,2.700000*%
%TD*%
%TA.AperFunction,ComponentPad*%
%ADD12RoundRect,0.250000X0.106066X-0.954594X0.954594X-0.106066X-0.106066X0.954594X-0.954594X0.106066X0*%
%TD*%
%TA.AperFunction,ComponentPad*%
%ADD13HorizOval,1.700000X-0.106066X0.106066X0.106066X-0.106066X0*%
%TD*%
%TA.AperFunction,ComponentPad*%
%ADD14RoundRect,0.250000X-0.600000X-0.750000X0.600000X-0.750000X0.600000X0.750000X-0.600000X0.750000X0*%
%TD*%
%TA.AperFunction,ComponentPad*%
%ADD15O,1.700000X2.000000*%
%TD*%
%TA.AperFunction,ComponentPad*%
%ADD16R,1.600000X1.600000*%
%TD*%
%TA.AperFunction,ComponentPad*%
%ADD17O,1.600000X1.600000*%
%TD*%
%TA.AperFunction,ComponentPad*%
%ADD18RoundRect,0.250000X0.088388X-0.936916X0.936916X-0.088388X-0.088388X0.936916X-0.936916X0.088388X0*%
%TD*%
%TA.AperFunction,ComponentPad*%
%ADD19HorizOval,1.700000X-0.088388X0.088388X0.088388X-0.088388X0*%
%TD*%
%TA.AperFunction,ComponentPad*%
%ADD20C,1.800000*%
%TD*%
%TA.AperFunction,ViaPad*%
%ADD21C,0.800000*%
%TD*%
%TA.AperFunction,Conductor*%
%ADD22C,1.000000*%
%TD*%
G04 APERTURE END LIST*
D10*
%TO.P,J1,1,Pin_1*%
%TO.N,+48V*%
X164160000Y-75660000D03*
D11*
%TO.P,J1,2,Pin_2*%
%TO.N,GND*%
X166960143Y-78460143D03*
%TD*%
D12*
%TO.P,J4,1,Pin_1*%
%TO.N,Solenoid+*%
X209640000Y-70880000D03*
D13*
%TO.P,J4,2,Pin_2*%
%TO.N,Solenoid-*%
X211407767Y-69112233D03*
%TD*%
D14*
%TO.P,C1,1*%
%TO.N,Solenoid+*%
X148820000Y-55370000D03*
D15*
%TO.P,C1,2*%
%TO.N,GND*%
X151320000Y-55370000D03*
%TD*%
D16*
%TO.P,U1,1*%
%TO.N,Net-(R1-Pad2)*%
X206430000Y-59515000D03*
D17*
%TO.P,U1,2*%
%TO.N,GND*%
X206430000Y-56975000D03*
%TO.P,U1,3*%
%TO.N,Net-(R6-Pad1)*%
X198810000Y-56975000D03*
%TO.P,U1,4*%
%TO.N,Net-(Q1-G)*%
X198810000Y-59515000D03*
%TD*%
D18*
%TO.P,J3,1,Pin_1*%
%TO.N,FET1*%
X201430000Y-78660000D03*
D19*
%TO.P,J3,2,Pin_2*%
%TO.N,GND*%
X203197767Y-76892233D03*
%TO.P,J3,3,Pin_3*%
%TO.N,FET\uFF12*%
X204965534Y-75124466D03*
%TD*%
D20*
%TO.P,Q1,1,D*%
%TO.N,Solenoid+*%
X173720000Y-77031000D03*
%TO.P,Q1,2,G*%
%TO.N,Net-(Q1-G)*%
X176260000Y-77031000D03*
%TO.P,Q1,3,S*%
%TO.N,+48V*%
X178800000Y-77031000D03*
%TD*%
D14*
%TO.P,C2,1*%
%TO.N,Solenoid+*%
X215890000Y-55280000D03*
D15*
%TO.P,C2,2*%
%TO.N,GND*%
X218390000Y-55280000D03*
%TD*%
D20*
%TO.P,Q3,1,D*%
%TO.N,Solenoid-*%
X188830000Y-76980000D03*
%TO.P,Q3,2,G*%
%TO.N,Net-(Q3-G)*%
X191370000Y-76980000D03*
%TO.P,Q3,3,S*%
%TO.N,GND*%
X193910000Y-76980000D03*
%TD*%
D16*
%TO.P,U2,1*%
%TO.N,Net-(R8-Pad2)*%
X168360000Y-59320000D03*
D17*
%TO.P,U2,2*%
%TO.N,GND*%
X168360000Y-56780000D03*
%TO.P,U2,3*%
%TO.N,Net-(R3-Pad2)*%
X160740000Y-56780000D03*
%TO.P,U2,4*%
%TO.N,+15V*%
X160740000Y-59320000D03*
%TD*%
D21*
%TO.N,GND*%
X199644000Y-72288400D03*
X199771000Y-77216000D03*
X194487800Y-57988200D03*
X212572600Y-56591200D03*
X193243200Y-70637400D03*
X187528200Y-67894200D03*
X187045600Y-70535800D03*
X170230800Y-58039000D03*
X153289000Y-56845200D03*
X163690000Y-70750000D03*
X166370000Y-65730000D03*
%TD*%
D22*
%TO.N,Solenoid+*%
X173720000Y-77031000D02*
X173720000Y-67980000D01*
X173720000Y-67980000D02*
X170120000Y-64380000D01*
X195471000Y-55280000D02*
X215890000Y-55280000D01*
X209640000Y-70880000D02*
X212044164Y-70880000D01*
X213063833Y-58106167D02*
X215890000Y-55280000D01*
X173720000Y-77031000D02*
X195471000Y-55280000D01*
X170120000Y-64380000D02*
X157830000Y-64380000D01*
X212044164Y-70880000D02*
X213063833Y-69860331D01*
X157830000Y-64380000D02*
X148820000Y-55370000D01*
X213063833Y-69860331D02*
X213063833Y-58106167D01*
%TO.N,Solenoid-*%
X196839492Y-68970508D02*
X211266042Y-68970508D01*
X188830000Y-76980000D02*
X196839492Y-68970508D01*
X211266042Y-68970508D02*
X211407767Y-69112233D01*
%TO.N,Net-(Q1-G)*%
X176260000Y-77031000D02*
X193776000Y-59515000D01*
X193776000Y-59515000D02*
X198810000Y-59515000D01*
%TD*%
%TA.AperFunction,Conductor*%
%TO.N,GND*%
G36*
X218079046Y-41544843D02*
G01*
X218084575Y-41545154D01*
X218242819Y-41561193D01*
X218384611Y-41580779D01*
X218389728Y-41581708D01*
X218544709Y-41616665D01*
X218683374Y-41653988D01*
X218688073Y-41655457D01*
X218721476Y-41667373D01*
X218836252Y-41708319D01*
X218838890Y-41709328D01*
X218970866Y-41763359D01*
X218975027Y-41765248D01*
X219115656Y-41835536D01*
X219118381Y-41836986D01*
X219242641Y-41907186D01*
X219246332Y-41909445D01*
X219377352Y-41996098D01*
X219380153Y-41998065D01*
X219494674Y-42083314D01*
X219497838Y-42085834D01*
X219516666Y-42101859D01*
X219617414Y-42187609D01*
X219620180Y-42190112D01*
X219723138Y-42289067D01*
X219725755Y-42291738D01*
X219832174Y-42407166D01*
X219834805Y-42410214D01*
X219924549Y-42521294D01*
X219926639Y-42524033D01*
X220018385Y-42651467D01*
X220020789Y-42655065D01*
X220020802Y-42655085D01*
X220095864Y-42776450D01*
X220097446Y-42779159D01*
X220173220Y-42916829D01*
X220175303Y-42920974D01*
X220234501Y-43050653D01*
X220235623Y-43053269D01*
X220294318Y-43199236D01*
X220295979Y-43203894D01*
X220338768Y-43340967D01*
X220379829Y-43494394D01*
X220380970Y-43499513D01*
X220406164Y-43640430D01*
X220428459Y-43797880D01*
X220428990Y-43803399D01*
X220436293Y-43945758D01*
X220439455Y-44105072D01*
X220439295Y-44110914D01*
X220428759Y-44252260D01*
X220412638Y-44411337D01*
X220411717Y-44417411D01*
X220383777Y-44555191D01*
X220348406Y-44712021D01*
X220346664Y-44718224D01*
X220302241Y-44849750D01*
X220247723Y-45002580D01*
X220245115Y-45008799D01*
X220185902Y-45130944D01*
X220112096Y-45278621D01*
X220108595Y-45284732D01*
X220038447Y-45392492D01*
X219943572Y-45535949D01*
X219939165Y-45541825D01*
X219878377Y-45613595D01*
X219746508Y-45768533D01*
X219743133Y-45772191D01*
X219243085Y-46272238D01*
X219154769Y-46360553D01*
X219154766Y-46360556D01*
X218995129Y-46568592D01*
X218995125Y-46568597D01*
X218864011Y-46795687D01*
X218864006Y-46795698D01*
X218763646Y-47037980D01*
X218695772Y-47291286D01*
X218661543Y-47551272D01*
X218661543Y-47813528D01*
X218695772Y-48073514D01*
X218763646Y-48326820D01*
X218763652Y-48326837D01*
X218864000Y-48569088D01*
X218864011Y-48569112D01*
X218995126Y-48796203D01*
X218995130Y-48796208D01*
X219154766Y-49004243D01*
X219154776Y-49004254D01*
X219240349Y-49089825D01*
X219240353Y-49089830D01*
X219247420Y-49096897D01*
X219247421Y-49096898D01*
X224239618Y-54089094D01*
X224242378Y-54092041D01*
X224296401Y-54153642D01*
X224415671Y-54291284D01*
X224420361Y-54297433D01*
X224486282Y-54396089D01*
X224566052Y-54520211D01*
X224569503Y-54526314D01*
X224625113Y-54639079D01*
X224640129Y-54671959D01*
X224676600Y-54751818D01*
X224683762Y-54767499D01*
X224686076Y-54773330D01*
X224727464Y-54895254D01*
X224766608Y-55028563D01*
X224767928Y-55033937D01*
X224793034Y-55160147D01*
X224793595Y-55163420D01*
X224813022Y-55298539D01*
X224813521Y-55303309D01*
X224821973Y-55432261D01*
X224822106Y-55436318D01*
X224822106Y-55572455D01*
X224821973Y-55576511D01*
X224813521Y-55705485D01*
X224813022Y-55710256D01*
X224793600Y-55845347D01*
X224793039Y-55848619D01*
X224767932Y-55974848D01*
X224766611Y-55980222D01*
X224727467Y-56113534D01*
X224686083Y-56235446D01*
X224683770Y-56241275D01*
X224625122Y-56369702D01*
X224569513Y-56482466D01*
X224566062Y-56488569D01*
X224486287Y-56612703D01*
X224420393Y-56711322D01*
X224415691Y-56717487D01*
X224294976Y-56856783D01*
X224242578Y-56916530D01*
X224239804Y-56919492D01*
X217353386Y-63805909D01*
X217353324Y-63805942D01*
X217187854Y-63971450D01*
X217187850Y-63971454D01*
X216954042Y-64252384D01*
X216746835Y-64553441D01*
X216567934Y-64872143D01*
X216567932Y-64872147D01*
X216418835Y-65205822D01*
X216418832Y-65205831D01*
X216300774Y-65551720D01*
X216214742Y-65906933D01*
X216188077Y-66087864D01*
X216161453Y-66268515D01*
X216141352Y-66633421D01*
X216141352Y-66633458D01*
X216154603Y-66998663D01*
X216154606Y-66998702D01*
X216201101Y-67361195D01*
X216240730Y-67539359D01*
X216279466Y-67713512D01*
X216280456Y-67717960D01*
X216392002Y-68065997D01*
X216392003Y-68065998D01*
X216392004Y-68066001D01*
X216418528Y-68128482D01*
X216534815Y-68402417D01*
X216534819Y-68402425D01*
X216707704Y-68724413D01*
X216707708Y-68724419D01*
X216707715Y-68724432D01*
X216798144Y-68861281D01*
X216798183Y-68861365D01*
X216806984Y-68874663D01*
X216809741Y-68879246D01*
X216827918Y-68912647D01*
X216888762Y-69027770D01*
X216896551Y-69045850D01*
X216918040Y-69109153D01*
X216947452Y-69207513D01*
X216949299Y-69215646D01*
X216961214Y-69291358D01*
X216961689Y-69295121D01*
X216970766Y-69390451D01*
X216971038Y-69397269D01*
X216969854Y-69475748D01*
X216969547Y-69481047D01*
X216960051Y-69575031D01*
X216959293Y-69580282D01*
X216944759Y-69657406D01*
X216943128Y-69664035D01*
X216915162Y-69755632D01*
X216913946Y-69759220D01*
X216887134Y-69831009D01*
X216883697Y-69838611D01*
X216835200Y-69929108D01*
X216801486Y-69986830D01*
X216790243Y-70002983D01*
X216708032Y-70103101D01*
X216683011Y-70132818D01*
X216679422Y-70136729D01*
X203602521Y-83213629D01*
X203599800Y-83216191D01*
X203545372Y-83264423D01*
X203415487Y-83377981D01*
X203409915Y-83382319D01*
X203319693Y-83444649D01*
X203204370Y-83520943D01*
X203199008Y-83524115D01*
X203095790Y-83578378D01*
X202976774Y-83635944D01*
X202971815Y-83638081D01*
X202861495Y-83680038D01*
X202858755Y-83681008D01*
X202736278Y-83721126D01*
X202731887Y-83722387D01*
X202616439Y-83750991D01*
X202612785Y-83751780D01*
X202486633Y-83775073D01*
X202482938Y-83775641D01*
X202364880Y-83790151D01*
X202360328Y-83790541D01*
X202231609Y-83796805D01*
X202228702Y-83796878D01*
X202110673Y-83797082D01*
X202105280Y-83796857D01*
X201973554Y-83785590D01*
X201857748Y-83771763D01*
X201851607Y-83770715D01*
X201716620Y-83740628D01*
X201610088Y-83714627D01*
X201603352Y-83712571D01*
X201515012Y-83680017D01*
X201446485Y-83654764D01*
X201372604Y-83626958D01*
X201369151Y-83625538D01*
X200833344Y-83386147D01*
X200142929Y-83099856D01*
X200140259Y-83098710D01*
X200140086Y-83098677D01*
X199744060Y-82934459D01*
X198642933Y-82512459D01*
X197530773Y-82120459D01*
X196408397Y-81758746D01*
X195276630Y-81427586D01*
X194136303Y-81127222D01*
X192988254Y-80857876D01*
X191833327Y-80619743D01*
X190672369Y-80413001D01*
X189506235Y-80237801D01*
X189080674Y-80185615D01*
X189080554Y-80185563D01*
X189077614Y-80185239D01*
X188335781Y-80094270D01*
X187749506Y-80038451D01*
X187748819Y-80038385D01*
X187745283Y-80038049D01*
X187621033Y-80026220D01*
X187620497Y-80026203D01*
X187362837Y-80034919D01*
X187108435Y-80076626D01*
X186861480Y-80150641D01*
X186861473Y-80150643D01*
X186626079Y-80255728D01*
X186626064Y-80255735D01*
X186406083Y-80390172D01*
X186406082Y-80390173D01*
X186205192Y-80551711D01*
X186205183Y-80551719D01*
X186026677Y-80737711D01*
X186026671Y-80737719D01*
X185873501Y-80945092D01*
X185873495Y-80945100D01*
X185811717Y-81056138D01*
X185809857Y-81059261D01*
X185759889Y-81137819D01*
X185733606Y-81179139D01*
X185651435Y-81307334D01*
X185647261Y-81313091D01*
X185552576Y-81429065D01*
X185458337Y-81542069D01*
X185453789Y-81546961D01*
X185345199Y-81651832D01*
X185238223Y-81751609D01*
X185233445Y-81755635D01*
X185112745Y-81847359D01*
X184994343Y-81932874D01*
X184989472Y-81936056D01*
X184858447Y-82013121D01*
X184834028Y-82026474D01*
X184730310Y-82083187D01*
X184725476Y-82085564D01*
X184585945Y-82146795D01*
X184450056Y-82200331D01*
X184445376Y-82201962D01*
X184300628Y-82246005D01*
X184297930Y-82246760D01*
X184157661Y-82282607D01*
X184153239Y-82283567D01*
X184004282Y-82310245D01*
X184001087Y-82310731D01*
X183857483Y-82328790D01*
X183853407Y-82329167D01*
X183702319Y-82338104D01*
X183698658Y-82338212D01*
X183553945Y-82338212D01*
X183550284Y-82338104D01*
X183399195Y-82329167D01*
X183395119Y-82328790D01*
X183251515Y-82310731D01*
X183248320Y-82310245D01*
X183099363Y-82283567D01*
X183094941Y-82282607D01*
X182954672Y-82246760D01*
X182951974Y-82246005D01*
X182807226Y-82201961D01*
X182802546Y-82200331D01*
X182666658Y-82146795D01*
X182527126Y-82085564D01*
X182522292Y-82083187D01*
X182394170Y-82013129D01*
X182263123Y-81936051D01*
X182258264Y-81932877D01*
X182210303Y-81898238D01*
X182139858Y-81847359D01*
X182019157Y-81755635D01*
X182014379Y-81751608D01*
X181907404Y-81651832D01*
X181798813Y-81546961D01*
X181794264Y-81542068D01*
X181700027Y-81429065D01*
X181651325Y-81369414D01*
X181605331Y-81313077D01*
X181601166Y-81307333D01*
X181552807Y-81231887D01*
X181519070Y-81179252D01*
X181442748Y-81059264D01*
X181440875Y-81056118D01*
X181417447Y-81013985D01*
X181417324Y-81013803D01*
X181379109Y-80945104D01*
X181379101Y-80945093D01*
X181225944Y-80737712D01*
X181047435Y-80551703D01*
X180946982Y-80470923D01*
X180846531Y-80390144D01*
X180846531Y-80390143D01*
X180626558Y-80255708D01*
X180391135Y-80150612D01*
X180379943Y-80147258D01*
X180144179Y-80076603D01*
X180080575Y-80066177D01*
X179889772Y-80034901D01*
X179889752Y-80034899D01*
X179632108Y-80026196D01*
X179632107Y-80026196D01*
X179503738Y-80038390D01*
X179503240Y-80038438D01*
X178916823Y-80094271D01*
X178174958Y-80185243D01*
X178172092Y-80185559D01*
X178171930Y-80185615D01*
X177746369Y-80237801D01*
X176580235Y-80413002D01*
X175419278Y-80619744D01*
X174264350Y-80857876D01*
X173116301Y-81127222D01*
X171975974Y-81427586D01*
X170844207Y-81758746D01*
X169721831Y-82120459D01*
X168609671Y-82512459D01*
X167508544Y-82934458D01*
X167112516Y-83098676D01*
X167112392Y-83098689D01*
X167109745Y-83099825D01*
X166419259Y-83386146D01*
X165882658Y-83625893D01*
X165879199Y-83627314D01*
X165811123Y-83652929D01*
X165649255Y-83712599D01*
X165642502Y-83714661D01*
X165535959Y-83740658D01*
X165400997Y-83770729D01*
X165394857Y-83771777D01*
X165279058Y-83785596D01*
X165147346Y-83796857D01*
X165141952Y-83797083D01*
X165023895Y-83796872D01*
X165020989Y-83796799D01*
X164892286Y-83790531D01*
X164887734Y-83790141D01*
X164769670Y-83775625D01*
X164765976Y-83775058D01*
X164639841Y-83751765D01*
X164636190Y-83750976D01*
X164520729Y-83722368D01*
X164516343Y-83721108D01*
X164393863Y-83680986D01*
X164391123Y-83680017D01*
X164280797Y-83638057D01*
X164275839Y-83635919D01*
X164156840Y-83578362D01*
X164053605Y-83524092D01*
X164048243Y-83520920D01*
X163932907Y-83444618D01*
X163871133Y-83401943D01*
X163842692Y-83382295D01*
X163837124Y-83377960D01*
X163708374Y-83265414D01*
X163692830Y-83251640D01*
X163652612Y-83216002D01*
X163649911Y-83213458D01*
X159146596Y-78710143D01*
X165123297Y-78710143D01*
X165124295Y-78724097D01*
X165124296Y-78724105D01*
X165180543Y-78982671D01*
X165273027Y-79230630D01*
X165399844Y-79462878D01*
X165399845Y-79462879D01*
X165558434Y-79674728D01*
X165558444Y-79674740D01*
X165745545Y-79861841D01*
X165745557Y-79861851D01*
X165957406Y-80020440D01*
X165957407Y-80020441D01*
X166189656Y-80147258D01*
X166189655Y-80147258D01*
X166437614Y-80239742D01*
X166696180Y-80295989D01*
X166696188Y-80295990D01*
X166710142Y-80296988D01*
X166710143Y-80296988D01*
X166710143Y-79275462D01*
X166867700Y-79310143D01*
X167006227Y-79310143D01*
X167143945Y-79295165D01*
X167210143Y-79272860D01*
X167210143Y-80296988D01*
X167224097Y-80295990D01*
X167224105Y-80295989D01*
X167482671Y-80239742D01*
X167730630Y-80147258D01*
X167962878Y-80020441D01*
X167962879Y-80020440D01*
X168100039Y-79917763D01*
X181815787Y-79917763D01*
X181845413Y-80187013D01*
X181845415Y-80187024D01*
X181913926Y-80449082D01*
X181913928Y-80449088D01*
X182019870Y-80698390D01*
X182107505Y-80841985D01*
X182160979Y-80929605D01*
X182160986Y-80929615D01*
X182334253Y-81137819D01*
X182334259Y-81137824D01*
X182535998Y-81318582D01*
X182761910Y-81468044D01*
X183007176Y-81583020D01*
X183007183Y-81583022D01*
X183007185Y-81583023D01*
X183266557Y-81661057D01*
X183266564Y-81661058D01*
X183266569Y-81661060D01*
X183534561Y-81700500D01*
X183534566Y-81700500D01*
X183737636Y-81700500D01*
X183789133Y-81696730D01*
X183940156Y-81685677D01*
X184052758Y-81660593D01*
X184204546Y-81626782D01*
X184204548Y-81626781D01*
X184204553Y-81626780D01*
X184457558Y-81530014D01*
X184693777Y-81397441D01*
X184908177Y-81231888D01*
X185096186Y-81036881D01*
X185253799Y-80816579D01*
X185354999Y-80619744D01*
X185377649Y-80575690D01*
X185377651Y-80575684D01*
X185377656Y-80575675D01*
X185465118Y-80319305D01*
X185514319Y-80052933D01*
X185524212Y-79782235D01*
X185494586Y-79512982D01*
X185426072Y-79250912D01*
X185320130Y-79001610D01*
X185179018Y-78770390D01*
X185160708Y-78748388D01*
X185013594Y-78571611D01*
X200037495Y-78571611D01*
X200057736Y-78705898D01*
X200116658Y-78828253D01*
X200116659Y-78828254D01*
X200136160Y-78851791D01*
X201238209Y-79953840D01*
X201261746Y-79973341D01*
X201384101Y-80032264D01*
X201518388Y-80052505D01*
X201652676Y-80032264D01*
X201775031Y-79973341D01*
X201798568Y-79953840D01*
X202723840Y-79028568D01*
X202743341Y-79005031D01*
X202802264Y-78882676D01*
X202822505Y-78748388D01*
X202802264Y-78614101D01*
X202743341Y-78491746D01*
X202723840Y-78468209D01*
X202717454Y-78461823D01*
X202683969Y-78400500D01*
X202688953Y-78330808D01*
X202730825Y-78274875D01*
X202796289Y-78250458D01*
X202847546Y-78257620D01*
X202935414Y-78289602D01*
X203168043Y-78330620D01*
X203168048Y-78330621D01*
X203404262Y-78330621D01*
X203404266Y-78330620D01*
X203636894Y-78289602D01*
X203858866Y-78208810D01*
X203858873Y-78208807D01*
X204050279Y-78098298D01*
X203308218Y-77356237D01*
X203332966Y-77352679D01*
X203457212Y-77295938D01*
X203560440Y-77206491D01*
X203634286Y-77091584D01*
X203660702Y-77001615D01*
X204403832Y-77744745D01*
X204514341Y-77553339D01*
X204514344Y-77553332D01*
X204595136Y-77331361D01*
X204636154Y-77098732D01*
X204636155Y-77098727D01*
X204636155Y-76862514D01*
X204636154Y-76862509D01*
X204595136Y-76629880D01*
X204514344Y-76407909D01*
X204514343Y-76407908D01*
X204487362Y-76361175D01*
X204470889Y-76293275D01*
X204493741Y-76227248D01*
X204548662Y-76184057D01*
X204618215Y-76177415D01*
X204644000Y-76186552D01*
X204644332Y-76185752D01*
X204649959Y-76188081D01*
X204649967Y-76188086D01*
X204847988Y-76248154D01*
X205053922Y-76268437D01*
X205259856Y-76248154D01*
X205457877Y-76188086D01*
X205640372Y-76090539D01*
X205800332Y-75959264D01*
X205931607Y-75799304D01*
X206029154Y-75616809D01*
X206089222Y-75418788D01*
X206109505Y-75212854D01*
X206089222Y-75006920D01*
X206029154Y-74808899D01*
X205931607Y-74626404D01*
X205833230Y-74506531D01*
X205833229Y-74506530D01*
X205833225Y-74506525D01*
X205583474Y-74256774D01*
X205463599Y-74158395D01*
X205463597Y-74158394D01*
X205463596Y-74158393D01*
X205391250Y-74119722D01*
X205281104Y-74060847D01*
X205281101Y-74060846D01*
X205083080Y-74000778D01*
X205083077Y-74000777D01*
X205083079Y-74000777D01*
X204877146Y-73980495D01*
X204671214Y-74000777D01*
X204473187Y-74060847D01*
X204337840Y-74133193D01*
X204290696Y-74158393D01*
X204290694Y-74158394D01*
X204290693Y-74158395D01*
X204130735Y-74289667D01*
X203999463Y-74449625D01*
X203901915Y-74632119D01*
X203841845Y-74830146D01*
X203821563Y-75036078D01*
X203841845Y-75242009D01*
X203841846Y-75242012D01*
X203901914Y-75440033D01*
X203901915Y-75440036D01*
X203901916Y-75440037D01*
X203904248Y-75445668D01*
X203902212Y-75446511D01*
X203914423Y-75505232D01*
X203889405Y-75570469D01*
X203833090Y-75611825D01*
X203763355Y-75616169D01*
X203728825Y-75602637D01*
X203682097Y-75575658D01*
X203682090Y-75575655D01*
X203460119Y-75494863D01*
X203227490Y-75453845D01*
X202991267Y-75453845D01*
X202758639Y-75494863D01*
X202536667Y-75575655D01*
X202536663Y-75575657D01*
X202345253Y-75686166D01*
X203087315Y-76428228D01*
X203062568Y-76431787D01*
X202938322Y-76488528D01*
X202835094Y-76577975D01*
X202761248Y-76692882D01*
X202734831Y-76782850D01*
X201991700Y-76039719D01*
X201881191Y-76231129D01*
X201881189Y-76231133D01*
X201800397Y-76453104D01*
X201759379Y-76685733D01*
X201759379Y-76921956D01*
X201800397Y-77154585D01*
X201832379Y-77242453D01*
X201836810Y-77312182D01*
X201802840Y-77373238D01*
X201741253Y-77406235D01*
X201671603Y-77400698D01*
X201628176Y-77372545D01*
X201621795Y-77366164D01*
X201621791Y-77366160D01*
X201598254Y-77346659D01*
X201598253Y-77346658D01*
X201523788Y-77310798D01*
X201475899Y-77287736D01*
X201341612Y-77267495D01*
X201207324Y-77287736D01*
X201084969Y-77346658D01*
X201061427Y-77366164D01*
X200136164Y-78291427D01*
X200116658Y-78314969D01*
X200057736Y-78437324D01*
X200037495Y-78571611D01*
X185013594Y-78571611D01*
X185005746Y-78562180D01*
X185005740Y-78562175D01*
X184804002Y-78381418D01*
X184578092Y-78231957D01*
X184576910Y-78231403D01*
X184332824Y-78116980D01*
X184332819Y-78116978D01*
X184332814Y-78116976D01*
X184073442Y-78038942D01*
X184073428Y-78038939D01*
X183957791Y-78021921D01*
X183805439Y-77999500D01*
X183602369Y-77999500D01*
X183602364Y-77999500D01*
X183399844Y-78014323D01*
X183399831Y-78014325D01*
X183135453Y-78073217D01*
X183135446Y-78073220D01*
X182882439Y-78169987D01*
X182646226Y-78302557D01*
X182646224Y-78302558D01*
X182646223Y-78302559D01*
X182621283Y-78321817D01*
X182431822Y-78468112D01*
X182243822Y-78663109D01*
X182243816Y-78663116D01*
X182086202Y-78883419D01*
X182086199Y-78883424D01*
X181962350Y-79124309D01*
X181962343Y-79124327D01*
X181874884Y-79380685D01*
X181874881Y-79380699D01*
X181825681Y-79647068D01*
X181825680Y-79647075D01*
X181815787Y-79917763D01*
X168100039Y-79917763D01*
X168174728Y-79861851D01*
X168174740Y-79861841D01*
X168361841Y-79674740D01*
X168361851Y-79674728D01*
X168520440Y-79462879D01*
X168520441Y-79462878D01*
X168647258Y-79230630D01*
X168739742Y-78982671D01*
X168795989Y-78724105D01*
X168795990Y-78724097D01*
X168796988Y-78710143D01*
X167775519Y-78710143D01*
X167783990Y-78688883D01*
X167813901Y-78506432D01*
X167803892Y-78321817D01*
X167772885Y-78210143D01*
X168796989Y-78210143D01*
X168796988Y-78210142D01*
X168795990Y-78196188D01*
X168795989Y-78196180D01*
X168739742Y-77937614D01*
X168647258Y-77689655D01*
X168520441Y-77457407D01*
X168520440Y-77457406D01*
X168361851Y-77245557D01*
X168361841Y-77245545D01*
X168174740Y-77058444D01*
X168174728Y-77058434D01*
X167962879Y-76899845D01*
X167962878Y-76899844D01*
X167730629Y-76773027D01*
X167730630Y-76773027D01*
X167482671Y-76680543D01*
X167224103Y-76624296D01*
X167224093Y-76624294D01*
X167210143Y-76623295D01*
X167210143Y-77644823D01*
X167052586Y-77610143D01*
X166914059Y-77610143D01*
X166776341Y-77625121D01*
X166710143Y-77647425D01*
X166710143Y-76623296D01*
X166710142Y-76623295D01*
X166696192Y-76624294D01*
X166696182Y-76624296D01*
X166437614Y-76680543D01*
X166189655Y-76773027D01*
X165957407Y-76899844D01*
X165957406Y-76899845D01*
X165745557Y-77058434D01*
X165745545Y-77058444D01*
X165558444Y-77245545D01*
X165558434Y-77245557D01*
X165399845Y-77457406D01*
X165399844Y-77457407D01*
X165273027Y-77689655D01*
X165180543Y-77937614D01*
X165124296Y-78196180D01*
X165124295Y-78196188D01*
X165123297Y-78210142D01*
X165123297Y-78210143D01*
X166144767Y-78210143D01*
X166136296Y-78231403D01*
X166106385Y-78413854D01*
X166116394Y-78598469D01*
X166147401Y-78710143D01*
X165123297Y-78710143D01*
X159146596Y-78710143D01*
X157116996Y-76680543D01*
X156096453Y-75660000D01*
X162148776Y-75660000D01*
X162169017Y-75794287D01*
X162227943Y-75916647D01*
X162247433Y-75940170D01*
X162247437Y-75940174D01*
X162247442Y-75940180D01*
X163879820Y-77572556D01*
X163903357Y-77592059D01*
X164025713Y-77650983D01*
X164160000Y-77671224D01*
X164294287Y-77650983D01*
X164416643Y-77592059D01*
X164440180Y-77572558D01*
X166072556Y-75940180D01*
X166092059Y-75916643D01*
X166150983Y-75794287D01*
X166171224Y-75660000D01*
X166150983Y-75525713D01*
X166092059Y-75403357D01*
X166092057Y-75403355D01*
X166092056Y-75403352D01*
X166072566Y-75379829D01*
X166072554Y-75379816D01*
X164440182Y-73747446D01*
X164440177Y-73747442D01*
X164416643Y-73727941D01*
X164294287Y-73669017D01*
X164160000Y-73648776D01*
X164025712Y-73669017D01*
X163903352Y-73727943D01*
X163879829Y-73747433D01*
X163879816Y-73747445D01*
X162247446Y-75379817D01*
X162247439Y-75379825D01*
X162227940Y-75403358D01*
X162169017Y-75525712D01*
X162148776Y-75660000D01*
X156096453Y-75660000D01*
X150573090Y-70136637D01*
X150569513Y-70132739D01*
X150544974Y-70103594D01*
X150483829Y-70029142D01*
X150462346Y-70002983D01*
X150451109Y-69986840D01*
X150417386Y-69929102D01*
X150368892Y-69838608D01*
X150365461Y-69831019D01*
X150338643Y-69759216D01*
X150337436Y-69755660D01*
X150309463Y-69664035D01*
X150307836Y-69657427D01*
X150293292Y-69580256D01*
X150292541Y-69575054D01*
X150283041Y-69481022D01*
X150282737Y-69475771D01*
X150281552Y-69397269D01*
X150281824Y-69390452D01*
X150281824Y-69390451D01*
X150290905Y-69295084D01*
X150291371Y-69291394D01*
X150303291Y-69215643D01*
X150305138Y-69207513D01*
X150334551Y-69109153D01*
X150356043Y-69045837D01*
X150363821Y-69027783D01*
X150425017Y-68912010D01*
X150442802Y-68879332D01*
X150445549Y-68874767D01*
X150472396Y-68834206D01*
X150472633Y-68833746D01*
X150544878Y-68724419D01*
X150717770Y-68402417D01*
X150860585Y-68065995D01*
X150972133Y-67717953D01*
X151051486Y-67361190D01*
X151077899Y-67155257D01*
X151097980Y-66998699D01*
X151097983Y-66998665D01*
X151111234Y-66633458D01*
X151111235Y-66633439D01*
X151101187Y-66451028D01*
X151091134Y-66268518D01*
X151091133Y-66268515D01*
X151091133Y-66268511D01*
X151037845Y-65906936D01*
X150951814Y-65551725D01*
X150833757Y-65205837D01*
X150684656Y-64872152D01*
X150505755Y-64553451D01*
X150298543Y-64252387D01*
X150064745Y-63971469D01*
X149994069Y-63900776D01*
X149993851Y-63900377D01*
X149935543Y-63842236D01*
X149935544Y-63842236D01*
X149935190Y-63841883D01*
X143012977Y-56919669D01*
X143010218Y-56916723D01*
X143000067Y-56905148D01*
X142956149Y-56855069D01*
X142836928Y-56717479D01*
X142832237Y-56711327D01*
X142826962Y-56703433D01*
X142766332Y-56612693D01*
X142686557Y-56488560D01*
X142683115Y-56482475D01*
X142627485Y-56369667D01*
X142568852Y-56241275D01*
X142568852Y-56241274D01*
X142566539Y-56235445D01*
X142545772Y-56174267D01*
X147769500Y-56174267D01*
X147772353Y-56204699D01*
X147772353Y-56204701D01*
X147813580Y-56322517D01*
X147817207Y-56332882D01*
X147897850Y-56442150D01*
X148007118Y-56522793D01*
X148023948Y-56528682D01*
X148135299Y-56567646D01*
X148165730Y-56570500D01*
X148165734Y-56570500D01*
X148978481Y-56570500D01*
X149045520Y-56590185D01*
X149066162Y-56606819D01*
X157318399Y-64859056D01*
X157320935Y-64861750D01*
X157362071Y-64908183D01*
X157362073Y-64908185D01*
X157389021Y-64926786D01*
X157413117Y-64943417D01*
X157416107Y-64945617D01*
X157464943Y-64983878D01*
X157474180Y-64988035D01*
X157493726Y-64999058D01*
X157502070Y-65004818D01*
X157560052Y-65026807D01*
X157563514Y-65028241D01*
X157620068Y-65053694D01*
X157630030Y-65055519D01*
X157651651Y-65061546D01*
X157661125Y-65065139D01*
X157661128Y-65065140D01*
X157677871Y-65067173D01*
X157722689Y-65072615D01*
X157726386Y-65073177D01*
X157787394Y-65084357D01*
X157787395Y-65084356D01*
X157787396Y-65084357D01*
X157849293Y-65080613D01*
X157853037Y-65080500D01*
X169778481Y-65080500D01*
X169845520Y-65100185D01*
X169866162Y-65116819D01*
X172983181Y-68233838D01*
X173016666Y-68295161D01*
X173019500Y-68321519D01*
X173019500Y-76125680D01*
X172999815Y-76192719D01*
X172979039Y-76217317D01*
X172903235Y-76286421D01*
X172780327Y-76449178D01*
X172689422Y-76631739D01*
X172689417Y-76631752D01*
X172633602Y-76827917D01*
X172614785Y-77030999D01*
X172614785Y-77031000D01*
X172633602Y-77234082D01*
X172689417Y-77430247D01*
X172689422Y-77430260D01*
X172780327Y-77612821D01*
X172903237Y-77775581D01*
X173053958Y-77912980D01*
X173053960Y-77912982D01*
X173144995Y-77969348D01*
X173227363Y-78020348D01*
X173417544Y-78094024D01*
X173618024Y-78131500D01*
X173618026Y-78131500D01*
X173821974Y-78131500D01*
X173821976Y-78131500D01*
X174022456Y-78094024D01*
X174212637Y-78020348D01*
X174386041Y-77912981D01*
X174514122Y-77796219D01*
X174536762Y-77775581D01*
X174536764Y-77775579D01*
X174659673Y-77612821D01*
X174750582Y-77430250D01*
X174806397Y-77234083D01*
X174825215Y-77031000D01*
X174820870Y-76984115D01*
X174834284Y-76915549D01*
X174856657Y-76884998D01*
X174957304Y-76784351D01*
X175018625Y-76750868D01*
X175088317Y-76755852D01*
X175144250Y-76797724D01*
X175168667Y-76863188D01*
X175168454Y-76883474D01*
X175154785Y-77030997D01*
X175154785Y-77031000D01*
X175173602Y-77234082D01*
X175229417Y-77430247D01*
X175229422Y-77430260D01*
X175320327Y-77612821D01*
X175443237Y-77775581D01*
X175593958Y-77912980D01*
X175593960Y-77912982D01*
X175684995Y-77969348D01*
X175767363Y-78020348D01*
X175957544Y-78094024D01*
X176158024Y-78131500D01*
X176158026Y-78131500D01*
X176361974Y-78131500D01*
X176361976Y-78131500D01*
X176562456Y-78094024D01*
X176752637Y-78020348D01*
X176926041Y-77912981D01*
X177054122Y-77796219D01*
X177076762Y-77775581D01*
X177076764Y-77775579D01*
X177199673Y-77612821D01*
X177290582Y-77430250D01*
X177346397Y-77234083D01*
X177365215Y-77031000D01*
X177360870Y-76984115D01*
X177374284Y-76915549D01*
X177396657Y-76884998D01*
X177497304Y-76784351D01*
X177558625Y-76750868D01*
X177628317Y-76755852D01*
X177684250Y-76797724D01*
X177708667Y-76863188D01*
X177708454Y-76883474D01*
X177694785Y-77030997D01*
X177694785Y-77031000D01*
X177713602Y-77234082D01*
X177769417Y-77430247D01*
X177769422Y-77430260D01*
X177860327Y-77612821D01*
X177983237Y-77775581D01*
X178133958Y-77912980D01*
X178133960Y-77912982D01*
X178224995Y-77969348D01*
X178307363Y-78020348D01*
X178497544Y-78094024D01*
X178698024Y-78131500D01*
X178698026Y-78131500D01*
X178901974Y-78131500D01*
X178901976Y-78131500D01*
X179102456Y-78094024D01*
X179292637Y-78020348D01*
X179466041Y-77912981D01*
X179594122Y-77796219D01*
X179616762Y-77775581D01*
X179616764Y-77775579D01*
X179739673Y-77612821D01*
X179830582Y-77430250D01*
X179886397Y-77234083D01*
X179905215Y-77031000D01*
X179886397Y-76827917D01*
X179830582Y-76631750D01*
X179827941Y-76626447D01*
X179741627Y-76453104D01*
X179739673Y-76449179D01*
X179653776Y-76335433D01*
X179616762Y-76286418D01*
X179466041Y-76149019D01*
X179466039Y-76149017D01*
X179292642Y-76041655D01*
X179292635Y-76041651D01*
X179197546Y-76004814D01*
X179102456Y-75967976D01*
X178901976Y-75930500D01*
X178698024Y-75930500D01*
X178665020Y-75936669D01*
X178595505Y-75929637D01*
X178540827Y-75886139D01*
X178518346Y-75819985D01*
X178535200Y-75752178D01*
X178554552Y-75727103D01*
X194029838Y-60251819D01*
X194091161Y-60218334D01*
X194117519Y-60215500D01*
X198042098Y-60215500D01*
X198109137Y-60235185D01*
X198120757Y-60243642D01*
X198130720Y-60251819D01*
X198251460Y-60350909D01*
X198251467Y-60350913D01*
X198425266Y-60443811D01*
X198425269Y-60443811D01*
X198425273Y-60443814D01*
X198613868Y-60501024D01*
X198810000Y-60520341D01*
X199006132Y-60501024D01*
X199194727Y-60443814D01*
X199368538Y-60350910D01*
X199520883Y-60225883D01*
X199645910Y-60073538D01*
X199738814Y-59899727D01*
X199796024Y-59711132D01*
X199815341Y-59515000D01*
X199796024Y-59318868D01*
X199738814Y-59130273D01*
X199738811Y-59130269D01*
X199738811Y-59130266D01*
X199645913Y-58956467D01*
X199645909Y-58956460D01*
X199520883Y-58804116D01*
X199368539Y-58679090D01*
X199368532Y-58679086D01*
X199194733Y-58586188D01*
X199194727Y-58586186D01*
X199006132Y-58528976D01*
X199006129Y-58528975D01*
X198810000Y-58509659D01*
X198613870Y-58528975D01*
X198425266Y-58586188D01*
X198251467Y-58679086D01*
X198251460Y-58679090D01*
X198151796Y-58760883D01*
X198120761Y-58786353D01*
X198056454Y-58813666D01*
X198042098Y-58814500D01*
X193799048Y-58814500D01*
X193795303Y-58814387D01*
X193733396Y-58810642D01*
X193733389Y-58810642D01*
X193672386Y-58821821D01*
X193668685Y-58822384D01*
X193607128Y-58829859D01*
X193607121Y-58829861D01*
X193597647Y-58833454D01*
X193576049Y-58839475D01*
X193566069Y-58841304D01*
X193509519Y-58866755D01*
X193506060Y-58868188D01*
X193448071Y-58890181D01*
X193448066Y-58890184D01*
X193439722Y-58895943D01*
X193420187Y-58906961D01*
X193410947Y-58911120D01*
X193410945Y-58911121D01*
X193362136Y-58949359D01*
X193359122Y-58951576D01*
X193308070Y-58986817D01*
X193308068Y-58986818D01*
X193266942Y-59033240D01*
X193264375Y-59035966D01*
X176406161Y-75894181D01*
X176344838Y-75927666D01*
X176318480Y-75930500D01*
X176158024Y-75930500D01*
X176125020Y-75936669D01*
X176055505Y-75929637D01*
X176000827Y-75886139D01*
X175978346Y-75819985D01*
X175995200Y-75752178D01*
X176014552Y-75727103D01*
X195724838Y-56016819D01*
X195786161Y-55983334D01*
X195812519Y-55980500D01*
X198098148Y-55980500D01*
X198165187Y-56000185D01*
X198210942Y-56052989D01*
X198220886Y-56122147D01*
X198191861Y-56185703D01*
X198176813Y-56200353D01*
X198099116Y-56264116D01*
X197974090Y-56416460D01*
X197974086Y-56416467D01*
X197881188Y-56590266D01*
X197823975Y-56778870D01*
X197804659Y-56975000D01*
X197823975Y-57171129D01*
X197881188Y-57359733D01*
X197974086Y-57533532D01*
X197974090Y-57533539D01*
X198099116Y-57685883D01*
X198251460Y-57810909D01*
X198251467Y-57810913D01*
X198425266Y-57903811D01*
X198425269Y-57903811D01*
X198425273Y-57903814D01*
X198613868Y-57961024D01*
X198810000Y-57980341D01*
X199006132Y-57961024D01*
X199194727Y-57903814D01*
X199208907Y-57896235D01*
X199317920Y-57837966D01*
X199368538Y-57810910D01*
X199520883Y-57685883D01*
X199645910Y-57533538D01*
X199705893Y-57421317D01*
X199738811Y-57359733D01*
X199738811Y-57359732D01*
X199738814Y-57359727D01*
X199796024Y-57171132D01*
X199815341Y-56975000D01*
X199796024Y-56778868D01*
X199738814Y-56590273D01*
X199738811Y-56590269D01*
X199738811Y-56590266D01*
X199645913Y-56416467D01*
X199645909Y-56416460D01*
X199520883Y-56264116D01*
X199443187Y-56200353D01*
X199403853Y-56142608D01*
X199401982Y-56072763D01*
X199438169Y-56012995D01*
X199500925Y-55982279D01*
X199521852Y-55980500D01*
X205301148Y-55980500D01*
X205368187Y-56000185D01*
X205413942Y-56052989D01*
X205423886Y-56122147D01*
X205402723Y-56175624D01*
X205299865Y-56322517D01*
X205203734Y-56528673D01*
X205203730Y-56528682D01*
X205151127Y-56724999D01*
X205151128Y-56725000D01*
X206114314Y-56725000D01*
X206102359Y-56736955D01*
X206044835Y-56849852D01*
X206025014Y-56975000D01*
X206044835Y-57100148D01*
X206102359Y-57213045D01*
X206114314Y-57225000D01*
X205151128Y-57225000D01*
X205203730Y-57421317D01*
X205203734Y-57421326D01*
X205299865Y-57627482D01*
X205430342Y-57813820D01*
X205591179Y-57974657D01*
X205777517Y-58105134D01*
X205983673Y-58201265D01*
X205983682Y-58201269D01*
X206203389Y-58260139D01*
X206203400Y-58260141D01*
X206281475Y-58266972D01*
X206346544Y-58292424D01*
X206387523Y-58349015D01*
X206391401Y-58418777D01*
X206356947Y-58479561D01*
X206295100Y-58512069D01*
X206270668Y-58514500D01*
X205610247Y-58514500D01*
X205551770Y-58526131D01*
X205551769Y-58526132D01*
X205485447Y-58570447D01*
X205441132Y-58636769D01*
X205441131Y-58636770D01*
X205429500Y-58695247D01*
X205429500Y-60334752D01*
X205441131Y-60393229D01*
X205441132Y-60393230D01*
X205485447Y-60459552D01*
X205551769Y-60503867D01*
X205551770Y-60503868D01*
X205610247Y-60515499D01*
X205610250Y-60515500D01*
X205610252Y-60515500D01*
X207249750Y-60515500D01*
X207249751Y-60515499D01*
X207264568Y-60512552D01*
X207308229Y-60503868D01*
X207308229Y-60503867D01*
X207308231Y-60503867D01*
X207374552Y-60459552D01*
X207418867Y-60393231D01*
X207418867Y-60393229D01*
X207418868Y-60393229D01*
X207430499Y-60334752D01*
X207430500Y-60334750D01*
X207430500Y-58695249D01*
X207430499Y-58695247D01*
X207418868Y-58636770D01*
X207418867Y-58636769D01*
X207374552Y-58570447D01*
X207308230Y-58526132D01*
X207308229Y-58526131D01*
X207249752Y-58514500D01*
X207249748Y-58514500D01*
X206589332Y-58514500D01*
X206522293Y-58494815D01*
X206476538Y-58442011D01*
X206466594Y-58372853D01*
X206495619Y-58309297D01*
X206554397Y-58271523D01*
X206578525Y-58266972D01*
X206656599Y-58260141D01*
X206656610Y-58260139D01*
X206876317Y-58201269D01*
X206876326Y-58201265D01*
X207082482Y-58105134D01*
X207268820Y-57974657D01*
X207429657Y-57813820D01*
X207560134Y-57627482D01*
X207656265Y-57421326D01*
X207656269Y-57421317D01*
X207708872Y-57225000D01*
X206745686Y-57225000D01*
X206757641Y-57213045D01*
X206815165Y-57100148D01*
X206834986Y-56975000D01*
X206815165Y-56849852D01*
X206757641Y-56736955D01*
X206745686Y-56725000D01*
X207708872Y-56725000D01*
X207708872Y-56724999D01*
X207656269Y-56528682D01*
X207656265Y-56528673D01*
X207560134Y-56322517D01*
X207457277Y-56175624D01*
X207434950Y-56109418D01*
X207451960Y-56041650D01*
X207502908Y-55993837D01*
X207558852Y-55980500D01*
X213899481Y-55980500D01*
X213966520Y-56000185D01*
X214012275Y-56052989D01*
X214022219Y-56122147D01*
X213993194Y-56185703D01*
X213987162Y-56192181D01*
X212584799Y-57594542D01*
X212582073Y-57597109D01*
X212535651Y-57638235D01*
X212500419Y-57689276D01*
X212498201Y-57692291D01*
X212459957Y-57741106D01*
X212459952Y-57741115D01*
X212455793Y-57750355D01*
X212444775Y-57769890D01*
X212439020Y-57778228D01*
X212439016Y-57778234D01*
X212439015Y-57778237D01*
X212439013Y-57778241D01*
X212439012Y-57778244D01*
X212417022Y-57836222D01*
X212415590Y-57839680D01*
X212390138Y-57896235D01*
X212388310Y-57906209D01*
X212382286Y-57927820D01*
X212378693Y-57937294D01*
X212378692Y-57937295D01*
X212371217Y-57998852D01*
X212370654Y-58002553D01*
X212359475Y-58063557D01*
X212359475Y-58063562D01*
X212363220Y-58125469D01*
X212363333Y-58129214D01*
X212363333Y-68282805D01*
X212343648Y-68349844D01*
X212290844Y-68395599D01*
X212221686Y-68405543D01*
X212158130Y-68376518D01*
X212151652Y-68370486D01*
X212008029Y-68226863D01*
X211888154Y-68128484D01*
X211888152Y-68128483D01*
X211888151Y-68128482D01*
X211771259Y-68066001D01*
X211705659Y-68030936D01*
X211705656Y-68030935D01*
X211507635Y-67970867D01*
X211507632Y-67970866D01*
X211507634Y-67970866D01*
X211301701Y-67950584D01*
X211095769Y-67970866D01*
X210897742Y-68030936D01*
X210715247Y-68128484D01*
X210612152Y-68213092D01*
X210577096Y-68241861D01*
X210512788Y-68269174D01*
X210498433Y-68270008D01*
X196862529Y-68270008D01*
X196858785Y-68269895D01*
X196796889Y-68266151D01*
X196796882Y-68266151D01*
X196735894Y-68277327D01*
X196732193Y-68277890D01*
X196670617Y-68285368D01*
X196661134Y-68288964D01*
X196639530Y-68294986D01*
X196638579Y-68295161D01*
X196629557Y-68296814D01*
X196573014Y-68322262D01*
X196569555Y-68323695D01*
X196533359Y-68337423D01*
X196511562Y-68345690D01*
X196511560Y-68345691D01*
X196511558Y-68345692D01*
X196511553Y-68345694D01*
X196503214Y-68351450D01*
X196483682Y-68362467D01*
X196474438Y-68366628D01*
X196425616Y-68404876D01*
X196422601Y-68407094D01*
X196371560Y-68442326D01*
X196330434Y-68488748D01*
X196327867Y-68491474D01*
X188976161Y-75843181D01*
X188914838Y-75876666D01*
X188888480Y-75879500D01*
X188728024Y-75879500D01*
X188527544Y-75916976D01*
X188527541Y-75916976D01*
X188527541Y-75916977D01*
X188337364Y-75990651D01*
X188337357Y-75990655D01*
X188163960Y-76098017D01*
X188163958Y-76098019D01*
X188013237Y-76235418D01*
X187890327Y-76398178D01*
X187799422Y-76580739D01*
X187799417Y-76580752D01*
X187743602Y-76776917D01*
X187724785Y-76979999D01*
X187724785Y-76980000D01*
X187743602Y-77183082D01*
X187799417Y-77379247D01*
X187799422Y-77379260D01*
X187890327Y-77561821D01*
X188013237Y-77724581D01*
X188163958Y-77861980D01*
X188163960Y-77861982D01*
X188246325Y-77912980D01*
X188337363Y-77969348D01*
X188527544Y-78043024D01*
X188728024Y-78080500D01*
X188728026Y-78080500D01*
X188931974Y-78080500D01*
X188931976Y-78080500D01*
X189132456Y-78043024D01*
X189322637Y-77969348D01*
X189496041Y-77861981D01*
X189646764Y-77724579D01*
X189769673Y-77561821D01*
X189860582Y-77379250D01*
X189916397Y-77183083D01*
X189935215Y-76980000D01*
X189930870Y-76933115D01*
X189944284Y-76864549D01*
X189966657Y-76833998D01*
X190067304Y-76733351D01*
X190128625Y-76699868D01*
X190198317Y-76704852D01*
X190254250Y-76746724D01*
X190278667Y-76812188D01*
X190278454Y-76832474D01*
X190264785Y-76979997D01*
X190264785Y-76980000D01*
X190283602Y-77183082D01*
X190339417Y-77379247D01*
X190339422Y-77379260D01*
X190430327Y-77561821D01*
X190553237Y-77724581D01*
X190703958Y-77861980D01*
X190703960Y-77861982D01*
X190786325Y-77912980D01*
X190877363Y-77969348D01*
X191067544Y-78043024D01*
X191268024Y-78080500D01*
X191268026Y-78080500D01*
X191471974Y-78080500D01*
X191471976Y-78080500D01*
X191672456Y-78043024D01*
X191862637Y-77969348D01*
X192036041Y-77861981D01*
X192186764Y-77724579D01*
X192309673Y-77561821D01*
X192361665Y-77457406D01*
X192365292Y-77450123D01*
X192412794Y-77398886D01*
X192480457Y-77381464D01*
X192546798Y-77403389D01*
X192589848Y-77455584D01*
X192674516Y-77648609D01*
X192758811Y-77777633D01*
X193426922Y-77109523D01*
X193450507Y-77189844D01*
X193528239Y-77310798D01*
X193636900Y-77404952D01*
X193767685Y-77464680D01*
X193777466Y-77466086D01*
X193111199Y-78132351D01*
X193141650Y-78156050D01*
X193345697Y-78266476D01*
X193345706Y-78266479D01*
X193565139Y-78341811D01*
X193793993Y-78380000D01*
X194026007Y-78380000D01*
X194254860Y-78341811D01*
X194474293Y-78266479D01*
X194474302Y-78266476D01*
X194678350Y-78156050D01*
X194708798Y-78132351D01*
X194042533Y-77466086D01*
X194052315Y-77464680D01*
X194183100Y-77404952D01*
X194291761Y-77310798D01*
X194369493Y-77189844D01*
X194393076Y-77109524D01*
X195061186Y-77777634D01*
X195145484Y-77648606D01*
X195238682Y-77436135D01*
X195295638Y-77211218D01*
X195314798Y-76980005D01*
X195314798Y-76979994D01*
X195295638Y-76748781D01*
X195238682Y-76523864D01*
X195145483Y-76311390D01*
X195061186Y-76182364D01*
X194393076Y-76850475D01*
X194369493Y-76770156D01*
X194291761Y-76649202D01*
X194183100Y-76555048D01*
X194052315Y-76495320D01*
X194042534Y-76493913D01*
X194708799Y-75827648D01*
X194708799Y-75827647D01*
X194678349Y-75803949D01*
X194474302Y-75693523D01*
X194474293Y-75693520D01*
X194254860Y-75618188D01*
X194026007Y-75580000D01*
X193793993Y-75580000D01*
X193565139Y-75618188D01*
X193345706Y-75693520D01*
X193345698Y-75693523D01*
X193141644Y-75803952D01*
X193111200Y-75827646D01*
X193111200Y-75827647D01*
X193777466Y-76493913D01*
X193767685Y-76495320D01*
X193636900Y-76555048D01*
X193528239Y-76649202D01*
X193450507Y-76770156D01*
X193426923Y-76850475D01*
X192758812Y-76182365D01*
X192674516Y-76311391D01*
X192674514Y-76311395D01*
X192589848Y-76504415D01*
X192544892Y-76557901D01*
X192478156Y-76578591D01*
X192410828Y-76559916D01*
X192365292Y-76509877D01*
X192335067Y-76449178D01*
X192309673Y-76398179D01*
X192223776Y-76284433D01*
X192186762Y-76235418D01*
X192036041Y-76098019D01*
X192036039Y-76098017D01*
X191862642Y-75990655D01*
X191862635Y-75990651D01*
X191767546Y-75953814D01*
X191672456Y-75916976D01*
X191471976Y-75879500D01*
X191268024Y-75879500D01*
X191235020Y-75885669D01*
X191165505Y-75878637D01*
X191110827Y-75835139D01*
X191088346Y-75768985D01*
X191105200Y-75701178D01*
X191124552Y-75676103D01*
X197093330Y-69707327D01*
X197154653Y-69673842D01*
X197181011Y-69671008D01*
X208851866Y-69671008D01*
X208918905Y-69690693D01*
X208964660Y-69743497D01*
X208974604Y-69812655D01*
X208945579Y-69876211D01*
X208939547Y-69882689D01*
X208328499Y-70493735D01*
X208328475Y-70493762D01*
X208308981Y-70517290D01*
X208308978Y-70517295D01*
X208250058Y-70639644D01*
X208250058Y-70639647D01*
X208229817Y-70773934D01*
X208250058Y-70908220D01*
X208250058Y-70908223D01*
X208308978Y-71030572D01*
X208308981Y-71030577D01*
X208321550Y-71045747D01*
X208328482Y-71054114D01*
X208328491Y-71054123D01*
X208328499Y-71054132D01*
X209465867Y-72191500D01*
X209465876Y-72191508D01*
X209465886Y-72191518D01*
X209477391Y-72201050D01*
X209489422Y-72211018D01*
X209489427Y-72211021D01*
X209604162Y-72266274D01*
X209611779Y-72269942D01*
X209746066Y-72290183D01*
X209880353Y-72269942D01*
X210002708Y-72211019D01*
X210026246Y-72191518D01*
X210600945Y-71616819D01*
X210662268Y-71583334D01*
X210688626Y-71580500D01*
X212021116Y-71580500D01*
X212024861Y-71580613D01*
X212032206Y-71581057D01*
X212086770Y-71584358D01*
X212124478Y-71577447D01*
X212147785Y-71573177D01*
X212151489Y-71572613D01*
X212169334Y-71570446D01*
X212213036Y-71565140D01*
X212222499Y-71561550D01*
X212244125Y-71555522D01*
X212245057Y-71555351D01*
X212254096Y-71553695D01*
X212310676Y-71528229D01*
X212314106Y-71526809D01*
X212372094Y-71504818D01*
X212380430Y-71499062D01*
X212399985Y-71488034D01*
X212409221Y-71483878D01*
X212458060Y-71445613D01*
X212461040Y-71443421D01*
X212512093Y-71408183D01*
X212553229Y-71361748D01*
X212555763Y-71359056D01*
X213542889Y-70371930D01*
X213545581Y-70369396D01*
X213592016Y-70328260D01*
X213627250Y-70277214D01*
X213629453Y-70274218D01*
X213667711Y-70225387D01*
X213671870Y-70216144D01*
X213682894Y-70196599D01*
X213688651Y-70188261D01*
X213710643Y-70130270D01*
X213712065Y-70126834D01*
X213737528Y-70070262D01*
X213739355Y-70060290D01*
X213745379Y-70038678D01*
X213748973Y-70029203D01*
X213756446Y-69967655D01*
X213757010Y-69963950D01*
X213762419Y-69934431D01*
X213768191Y-69902937D01*
X213764446Y-69841027D01*
X213764333Y-69837282D01*
X213764333Y-58447686D01*
X213784018Y-58380647D01*
X213800652Y-58360005D01*
X215643838Y-56516819D01*
X215705161Y-56483334D01*
X215731519Y-56480500D01*
X216544270Y-56480500D01*
X216574699Y-56477646D01*
X216574701Y-56477646D01*
X216646965Y-56452359D01*
X216702882Y-56432793D01*
X216812150Y-56352150D01*
X216892793Y-56242882D01*
X216925711Y-56148808D01*
X216937646Y-56114701D01*
X216937646Y-56114699D01*
X216940500Y-56084269D01*
X216940500Y-56075236D01*
X216960185Y-56008197D01*
X217012989Y-55962442D01*
X217082147Y-55952498D01*
X217145703Y-55981523D01*
X217176882Y-56022832D01*
X217216397Y-56107573D01*
X217216399Y-56107577D01*
X217351886Y-56301073D01*
X217351891Y-56301079D01*
X217518917Y-56468105D01*
X217712421Y-56603600D01*
X217926507Y-56703429D01*
X217926516Y-56703433D01*
X218140000Y-56760634D01*
X218140000Y-55715501D01*
X218247685Y-55764680D01*
X218354237Y-55780000D01*
X218425763Y-55780000D01*
X218532315Y-55764680D01*
X218640000Y-55715501D01*
X218640000Y-56760633D01*
X218853483Y-56703433D01*
X218853492Y-56703429D01*
X219067577Y-56603600D01*
X219067579Y-56603599D01*
X219261073Y-56468113D01*
X219261079Y-56468108D01*
X219428108Y-56301079D01*
X219428113Y-56301073D01*
X219563601Y-56107577D01*
X219663429Y-55893492D01*
X219663433Y-55893483D01*
X219724567Y-55665326D01*
X219724569Y-55665315D01*
X219736407Y-55530000D01*
X218823686Y-55530000D01*
X218849493Y-55489844D01*
X218890000Y-55351889D01*
X218890000Y-55208111D01*
X218849493Y-55070156D01*
X218823686Y-55030000D01*
X219736407Y-55030000D01*
X219736407Y-55029999D01*
X219724569Y-54894684D01*
X219724567Y-54894673D01*
X219663433Y-54666516D01*
X219663429Y-54666507D01*
X219563600Y-54452422D01*
X219563599Y-54452420D01*
X219428113Y-54258926D01*
X219428108Y-54258920D01*
X219261082Y-54091894D01*
X219067578Y-53956399D01*
X218853492Y-53856570D01*
X218853486Y-53856567D01*
X218640000Y-53799364D01*
X218640000Y-54844498D01*
X218532315Y-54795320D01*
X218425763Y-54780000D01*
X218354237Y-54780000D01*
X218247685Y-54795320D01*
X218140000Y-54844498D01*
X218140000Y-53799364D01*
X218139999Y-53799364D01*
X217926513Y-53856567D01*
X217926507Y-53856570D01*
X217712422Y-53956399D01*
X217712420Y-53956400D01*
X217518926Y-54091886D01*
X217518920Y-54091891D01*
X217351891Y-54258920D01*
X217351886Y-54258926D01*
X217216400Y-54452420D01*
X217216399Y-54452422D01*
X217176882Y-54537168D01*
X217130710Y-54589607D01*
X217063516Y-54608759D01*
X216996635Y-54588543D01*
X216951300Y-54535378D01*
X216940500Y-54484763D01*
X216940500Y-54475730D01*
X216937646Y-54445300D01*
X216937646Y-54445298D01*
X216892793Y-54317119D01*
X216892792Y-54317117D01*
X216887285Y-54309655D01*
X216812150Y-54207850D01*
X216702882Y-54127207D01*
X216702880Y-54127206D01*
X216574700Y-54082353D01*
X216544270Y-54079500D01*
X216544266Y-54079500D01*
X215235734Y-54079500D01*
X215235730Y-54079500D01*
X215205300Y-54082353D01*
X215205298Y-54082353D01*
X215077119Y-54127206D01*
X215077117Y-54127207D01*
X214967850Y-54207850D01*
X214887207Y-54317117D01*
X214887206Y-54317119D01*
X214842353Y-54445298D01*
X214842353Y-54445300D01*
X214840311Y-54467079D01*
X214814453Y-54531987D01*
X214757607Y-54572612D01*
X214716853Y-54579500D01*
X195494037Y-54579500D01*
X195490293Y-54579387D01*
X195428397Y-54575643D01*
X195428390Y-54575643D01*
X195367402Y-54586819D01*
X195363701Y-54587382D01*
X195302125Y-54594860D01*
X195292642Y-54598456D01*
X195271038Y-54604478D01*
X195269535Y-54604754D01*
X195261065Y-54606306D01*
X195204522Y-54631754D01*
X195201063Y-54633187D01*
X195164867Y-54646915D01*
X195143070Y-54655182D01*
X195143068Y-54655183D01*
X195143066Y-54655184D01*
X195143061Y-54655186D01*
X195134722Y-54660942D01*
X195115190Y-54671959D01*
X195105946Y-54676120D01*
X195057124Y-54714368D01*
X195054109Y-54716586D01*
X195003068Y-54751818D01*
X194961942Y-54798240D01*
X194959375Y-54800966D01*
X174632181Y-75128161D01*
X174570858Y-75161646D01*
X174501166Y-75156662D01*
X174445233Y-75114790D01*
X174420816Y-75049326D01*
X174420500Y-75040480D01*
X174420500Y-68003047D01*
X174420613Y-67999302D01*
X174424358Y-67937394D01*
X174413175Y-67876371D01*
X174412613Y-67872674D01*
X174410618Y-67856251D01*
X174405140Y-67811128D01*
X174401548Y-67801656D01*
X174395521Y-67780034D01*
X174393695Y-67770071D01*
X174393695Y-67770069D01*
X174368224Y-67713476D01*
X174366817Y-67710079D01*
X174344818Y-67652070D01*
X174344816Y-67652068D01*
X174344816Y-67652066D01*
X174339062Y-67643731D01*
X174328034Y-67624177D01*
X174323880Y-67614947D01*
X174323878Y-67614944D01*
X174285621Y-67566112D01*
X174283427Y-67563130D01*
X174248183Y-67512071D01*
X174201750Y-67470935D01*
X174199056Y-67468399D01*
X170631598Y-63900941D01*
X170629064Y-63898250D01*
X170587929Y-63851817D01*
X170587928Y-63851816D01*
X170587924Y-63851812D01*
X170536896Y-63816591D01*
X170533887Y-63814377D01*
X170485060Y-63776124D01*
X170485055Y-63776120D01*
X170475813Y-63771961D01*
X170456266Y-63760936D01*
X170447931Y-63755183D01*
X170447932Y-63755183D01*
X170447930Y-63755182D01*
X170389941Y-63733189D01*
X170386490Y-63731759D01*
X170329930Y-63706304D01*
X170319946Y-63704474D01*
X170298343Y-63698451D01*
X170288874Y-63694860D01*
X170288870Y-63694859D01*
X170227313Y-63687384D01*
X170223612Y-63686821D01*
X170162608Y-63675642D01*
X170162603Y-63675642D01*
X170100697Y-63679387D01*
X170096952Y-63679500D01*
X158171519Y-63679500D01*
X158104480Y-63659815D01*
X158083838Y-63643181D01*
X153760657Y-59320000D01*
X159734659Y-59320000D01*
X159753975Y-59516129D01*
X159811188Y-59704733D01*
X159904086Y-59878532D01*
X159904090Y-59878539D01*
X160029116Y-60030883D01*
X160181460Y-60155909D01*
X160181467Y-60155913D01*
X160355266Y-60248811D01*
X160355269Y-60248811D01*
X160355273Y-60248814D01*
X160543868Y-60306024D01*
X160740000Y-60325341D01*
X160936132Y-60306024D01*
X161124727Y-60248814D01*
X161298538Y-60155910D01*
X161450883Y-60030883D01*
X161575910Y-59878538D01*
X161622362Y-59791632D01*
X161668811Y-59704733D01*
X161668811Y-59704732D01*
X161668814Y-59704727D01*
X161726024Y-59516132D01*
X161745341Y-59320000D01*
X161726024Y-59123868D01*
X161668814Y-58935273D01*
X161668811Y-58935269D01*
X161668811Y-58935266D01*
X161575913Y-58761467D01*
X161575909Y-58761460D01*
X161450883Y-58609116D01*
X161298539Y-58484090D01*
X161298532Y-58484086D01*
X161124733Y-58391188D01*
X161124727Y-58391186D01*
X160936132Y-58333976D01*
X160936129Y-58333975D01*
X160740000Y-58314659D01*
X160543870Y-58333975D01*
X160355266Y-58391188D01*
X160181467Y-58484086D01*
X160181460Y-58484090D01*
X160029116Y-58609116D01*
X159904090Y-58761460D01*
X159904086Y-58761467D01*
X159811188Y-58935266D01*
X159753975Y-59123870D01*
X159734659Y-59320000D01*
X153760657Y-59320000D01*
X151502058Y-57061401D01*
X151468573Y-57000078D01*
X151473557Y-56930386D01*
X151515429Y-56874453D01*
X151557646Y-56853945D01*
X151783483Y-56793433D01*
X151783492Y-56793429D01*
X151812291Y-56780000D01*
X159734659Y-56780000D01*
X159753975Y-56976129D01*
X159811188Y-57164733D01*
X159904086Y-57338532D01*
X159904090Y-57338539D01*
X160029116Y-57490883D01*
X160181460Y-57615909D01*
X160181467Y-57615913D01*
X160355266Y-57708811D01*
X160355269Y-57708811D01*
X160355273Y-57708814D01*
X160543868Y-57766024D01*
X160740000Y-57785341D01*
X160936132Y-57766024D01*
X161124727Y-57708814D01*
X161155640Y-57692291D01*
X161276888Y-57627482D01*
X161298538Y-57615910D01*
X161450883Y-57490883D01*
X161575910Y-57338538D01*
X161636597Y-57225000D01*
X161668811Y-57164733D01*
X161668811Y-57164732D01*
X161668814Y-57164727D01*
X161726024Y-56976132D01*
X161745341Y-56780000D01*
X161726024Y-56583868D01*
X161709683Y-56529999D01*
X167081127Y-56529999D01*
X167081128Y-56530000D01*
X168044314Y-56530000D01*
X168032359Y-56541955D01*
X167974835Y-56654852D01*
X167955014Y-56780000D01*
X167974835Y-56905148D01*
X168032359Y-57018045D01*
X168044314Y-57030000D01*
X167081128Y-57030000D01*
X167133730Y-57226317D01*
X167133734Y-57226326D01*
X167229865Y-57432482D01*
X167360342Y-57618820D01*
X167521179Y-57779657D01*
X167707517Y-57910134D01*
X167913673Y-58006265D01*
X167913682Y-58006269D01*
X168133389Y-58065139D01*
X168133400Y-58065141D01*
X168211475Y-58071972D01*
X168276544Y-58097424D01*
X168317523Y-58154015D01*
X168321401Y-58223777D01*
X168286947Y-58284561D01*
X168225100Y-58317069D01*
X168200668Y-58319500D01*
X167540247Y-58319500D01*
X167481770Y-58331131D01*
X167481769Y-58331132D01*
X167415447Y-58375447D01*
X167371132Y-58441769D01*
X167371131Y-58441770D01*
X167359500Y-58500247D01*
X167359500Y-60139752D01*
X167371131Y-60198229D01*
X167371132Y-60198230D01*
X167415447Y-60264552D01*
X167481769Y-60308867D01*
X167481770Y-60308868D01*
X167540247Y-60320499D01*
X167540250Y-60320500D01*
X167540252Y-60320500D01*
X169179750Y-60320500D01*
X169179751Y-60320499D01*
X169194568Y-60317552D01*
X169238229Y-60308868D01*
X169238229Y-60308867D01*
X169238231Y-60308867D01*
X169304552Y-60264552D01*
X169348867Y-60198231D01*
X169348867Y-60198229D01*
X169348868Y-60198229D01*
X169360499Y-60139752D01*
X169360500Y-60139750D01*
X169360500Y-58500249D01*
X169360499Y-58500247D01*
X169348868Y-58441770D01*
X169348867Y-58441769D01*
X169304552Y-58375447D01*
X169238230Y-58331132D01*
X169238229Y-58331131D01*
X169179752Y-58319500D01*
X169179748Y-58319500D01*
X168519332Y-58319500D01*
X168452293Y-58299815D01*
X168406538Y-58247011D01*
X168396594Y-58177853D01*
X168425619Y-58114297D01*
X168484397Y-58076523D01*
X168508525Y-58071972D01*
X168586599Y-58065141D01*
X168586610Y-58065139D01*
X168806317Y-58006269D01*
X168806326Y-58006265D01*
X169012482Y-57910134D01*
X169198820Y-57779657D01*
X169359657Y-57618820D01*
X169490134Y-57432482D01*
X169586265Y-57226326D01*
X169586269Y-57226317D01*
X169638872Y-57030000D01*
X168675686Y-57030000D01*
X168687641Y-57018045D01*
X168745165Y-56905148D01*
X168764986Y-56780000D01*
X168745165Y-56654852D01*
X168687641Y-56541955D01*
X168675686Y-56530000D01*
X169638872Y-56530000D01*
X169638872Y-56529999D01*
X169586269Y-56333682D01*
X169586265Y-56333673D01*
X169490134Y-56127517D01*
X169359657Y-55941179D01*
X169198820Y-55780342D01*
X169012482Y-55649865D01*
X168806328Y-55553734D01*
X168610000Y-55501127D01*
X168610000Y-56464314D01*
X168598045Y-56452359D01*
X168485148Y-56394835D01*
X168391481Y-56380000D01*
X168328519Y-56380000D01*
X168234852Y-56394835D01*
X168121955Y-56452359D01*
X168110000Y-56464314D01*
X168110000Y-55501127D01*
X167913671Y-55553734D01*
X167707517Y-55649865D01*
X167521179Y-55780342D01*
X167360342Y-55941179D01*
X167229865Y-56127517D01*
X167133734Y-56333673D01*
X167133730Y-56333682D01*
X167081127Y-56529999D01*
X161709683Y-56529999D01*
X161668814Y-56395273D01*
X161668811Y-56395269D01*
X161668811Y-56395266D01*
X161575913Y-56221467D01*
X161575909Y-56221460D01*
X161450883Y-56069116D01*
X161298539Y-55944090D01*
X161298532Y-55944086D01*
X161124733Y-55851188D01*
X161124727Y-55851186D01*
X160998997Y-55813046D01*
X160936129Y-55793975D01*
X160740000Y-55774659D01*
X160543870Y-55793975D01*
X160355266Y-55851188D01*
X160181467Y-55944086D01*
X160181460Y-55944090D01*
X160029116Y-56069116D01*
X159904090Y-56221460D01*
X159904086Y-56221467D01*
X159811188Y-56395266D01*
X159753975Y-56583870D01*
X159734659Y-56780000D01*
X151812291Y-56780000D01*
X151997577Y-56693600D01*
X151997579Y-56693599D01*
X152191073Y-56558113D01*
X152191079Y-56558108D01*
X152358108Y-56391079D01*
X152358113Y-56391073D01*
X152493601Y-56197577D01*
X152593429Y-55983492D01*
X152593433Y-55983483D01*
X152654567Y-55755326D01*
X152654569Y-55755315D01*
X152666407Y-55620000D01*
X151753686Y-55620000D01*
X151779493Y-55579844D01*
X151820000Y-55441889D01*
X151820000Y-55298111D01*
X151779493Y-55160156D01*
X151753686Y-55120000D01*
X152666407Y-55120000D01*
X152666407Y-55119999D01*
X152654569Y-54984684D01*
X152654567Y-54984673D01*
X152593433Y-54756516D01*
X152593429Y-54756507D01*
X152493600Y-54542422D01*
X152493599Y-54542420D01*
X152358113Y-54348926D01*
X152358108Y-54348920D01*
X152191082Y-54181894D01*
X151997578Y-54046399D01*
X151783492Y-53946570D01*
X151783486Y-53946567D01*
X151570000Y-53889364D01*
X151570000Y-54934498D01*
X151462315Y-54885320D01*
X151355763Y-54870000D01*
X151284237Y-54870000D01*
X151177685Y-54885320D01*
X151070000Y-54934498D01*
X151070000Y-53889364D01*
X151069999Y-53889364D01*
X150856513Y-53946567D01*
X150856507Y-53946570D01*
X150642422Y-54046399D01*
X150642420Y-54046400D01*
X150448926Y-54181886D01*
X150448920Y-54181891D01*
X150281891Y-54348920D01*
X150281886Y-54348926D01*
X150146400Y-54542420D01*
X150146399Y-54542422D01*
X150106882Y-54627168D01*
X150060710Y-54679607D01*
X149993516Y-54698759D01*
X149926635Y-54678543D01*
X149881300Y-54625378D01*
X149870500Y-54574763D01*
X149870500Y-54565730D01*
X149867646Y-54535300D01*
X149867646Y-54535298D01*
X149830000Y-54427715D01*
X149822793Y-54407118D01*
X149742150Y-54297850D01*
X149632882Y-54217207D01*
X149632880Y-54217206D01*
X149504700Y-54172353D01*
X149474270Y-54169500D01*
X149474266Y-54169500D01*
X148165734Y-54169500D01*
X148165730Y-54169500D01*
X148135300Y-54172353D01*
X148135298Y-54172353D01*
X148007119Y-54217206D01*
X148007117Y-54217207D01*
X147897850Y-54297850D01*
X147817207Y-54407117D01*
X147817206Y-54407119D01*
X147772353Y-54535298D01*
X147772353Y-54535300D01*
X147769500Y-54565730D01*
X147769500Y-56174267D01*
X142545772Y-56174267D01*
X142525150Y-56113516D01*
X142513183Y-56072763D01*
X142486003Y-55980196D01*
X142484696Y-55974875D01*
X142459580Y-55848605D01*
X142459024Y-55845364D01*
X142439597Y-55710247D01*
X142439099Y-55705479D01*
X142439064Y-55704952D01*
X142430647Y-55576510D01*
X142430514Y-55572469D01*
X142430515Y-55436257D01*
X142430645Y-55432303D01*
X142439102Y-55303270D01*
X142439593Y-55298578D01*
X142459028Y-55163416D01*
X142459581Y-55160183D01*
X142484702Y-55033894D01*
X142486002Y-55028604D01*
X142525150Y-54895278D01*
X142566554Y-54773309D01*
X142568850Y-54767523D01*
X142627499Y-54639101D01*
X142683118Y-54526321D01*
X142686563Y-54520228D01*
X142766294Y-54396163D01*
X142832266Y-54297432D01*
X142836942Y-54291299D01*
X142954578Y-54155523D01*
X143010459Y-54091804D01*
X143013181Y-54088898D01*
X148004759Y-49097321D01*
X148005113Y-49096968D01*
X148005112Y-49096967D01*
X148005183Y-49096897D01*
X148005183Y-49096895D01*
X148022167Y-49080152D01*
X148022553Y-49079577D01*
X148040948Y-49061234D01*
X148041390Y-49060686D01*
X148097825Y-49004250D01*
X148097831Y-49004243D01*
X148257459Y-48796205D01*
X148257458Y-48796205D01*
X148257463Y-48796200D01*
X148388579Y-48569094D01*
X148488932Y-48326817D01*
X148556802Y-48073514D01*
X148591031Y-47813519D01*
X148591031Y-47551281D01*
X148556803Y-47291287D01*
X148488932Y-47037984D01*
X148488927Y-47037974D01*
X148488926Y-47037968D01*
X148388585Y-46795719D01*
X148388584Y-46795718D01*
X148388580Y-46795707D01*
X148257463Y-46568600D01*
X148097825Y-46360551D01*
X148063651Y-46326375D01*
X148063446Y-46326000D01*
X148005112Y-46267833D01*
X148005113Y-46267833D01*
X148004759Y-46267480D01*
X147509514Y-45772234D01*
X147506151Y-45768589D01*
X147373894Y-45613196D01*
X147343612Y-45577442D01*
X147313437Y-45541813D01*
X147309032Y-45535941D01*
X147284324Y-45498581D01*
X147214164Y-45392492D01*
X147144010Y-45284724D01*
X147140514Y-45278621D01*
X147066724Y-45130977D01*
X147007487Y-45008784D01*
X147004891Y-45002592D01*
X146950388Y-44849803D01*
X146905936Y-44718196D01*
X146904203Y-44712024D01*
X146868841Y-44555231D01*
X146840886Y-44417374D01*
X146839971Y-44411337D01*
X146823851Y-44252260D01*
X146816807Y-44157763D01*
X147455787Y-44157763D01*
X147485413Y-44427013D01*
X147485415Y-44427024D01*
X147553926Y-44689082D01*
X147553928Y-44689088D01*
X147659870Y-44938390D01*
X147777450Y-45131052D01*
X147800979Y-45169605D01*
X147800986Y-45169615D01*
X147974253Y-45377819D01*
X147974259Y-45377824D01*
X147990630Y-45392492D01*
X148175998Y-45558582D01*
X148401910Y-45708044D01*
X148647176Y-45823020D01*
X148647183Y-45823022D01*
X148647185Y-45823023D01*
X148906557Y-45901057D01*
X148906564Y-45901058D01*
X148906569Y-45901060D01*
X149174561Y-45940500D01*
X149174566Y-45940500D01*
X149377636Y-45940500D01*
X149429133Y-45936730D01*
X149580156Y-45925677D01*
X149692758Y-45900593D01*
X149844546Y-45866782D01*
X149844548Y-45866781D01*
X149844553Y-45866780D01*
X150097558Y-45770014D01*
X150333777Y-45637441D01*
X150548177Y-45471888D01*
X150736186Y-45276881D01*
X150893799Y-45056579D01*
X151000137Y-44849750D01*
X151017649Y-44815690D01*
X151017651Y-44815684D01*
X151017656Y-44815675D01*
X151105118Y-44559305D01*
X151154319Y-44292933D01*
X151164212Y-44022235D01*
X151134586Y-43752982D01*
X151066072Y-43490912D01*
X150960130Y-43241610D01*
X150819018Y-43010390D01*
X150755770Y-42934389D01*
X150645746Y-42802180D01*
X150645740Y-42802175D01*
X150444002Y-42621418D01*
X150218092Y-42471957D01*
X150188957Y-42458299D01*
X149972824Y-42356980D01*
X149972819Y-42356978D01*
X149972814Y-42356976D01*
X149713442Y-42278942D01*
X149713428Y-42278939D01*
X149597791Y-42261921D01*
X149445439Y-42239500D01*
X149242369Y-42239500D01*
X149242364Y-42239500D01*
X149039844Y-42254323D01*
X149039831Y-42254325D01*
X148775453Y-42313217D01*
X148775446Y-42313220D01*
X148522439Y-42409987D01*
X148286226Y-42542557D01*
X148071822Y-42708112D01*
X147883822Y-42903109D01*
X147883816Y-42903116D01*
X147726202Y-43123419D01*
X147726199Y-43123424D01*
X147602350Y-43364309D01*
X147602343Y-43364327D01*
X147514884Y-43620685D01*
X147514881Y-43620699D01*
X147496794Y-43718624D01*
X147476764Y-43827067D01*
X147465681Y-43887068D01*
X147465680Y-43887075D01*
X147455787Y-44157763D01*
X146816807Y-44157763D01*
X146813312Y-44110879D01*
X146813154Y-44105112D01*
X146816316Y-43945753D01*
X146818212Y-43908800D01*
X146823620Y-43803377D01*
X146824145Y-43797916D01*
X146846446Y-43640430D01*
X146871643Y-43499492D01*
X146872772Y-43494427D01*
X146913842Y-43340967D01*
X146956643Y-43203856D01*
X146958279Y-43199265D01*
X147016992Y-43053253D01*
X147018065Y-43050752D01*
X147077315Y-42920956D01*
X147079384Y-42916841D01*
X147155184Y-42779123D01*
X147156728Y-42776480D01*
X147231835Y-42655043D01*
X147234196Y-42651510D01*
X147326001Y-42523992D01*
X147328045Y-42521313D01*
X147417826Y-42410190D01*
X147420410Y-42407198D01*
X147526868Y-42291728D01*
X147529447Y-42289095D01*
X147632472Y-42190077D01*
X147635179Y-42187627D01*
X147754770Y-42085839D01*
X147757869Y-42083369D01*
X147872513Y-41998028D01*
X147875242Y-41996112D01*
X148006274Y-41909452D01*
X148009939Y-41907209D01*
X148134276Y-41836966D01*
X148136936Y-41835551D01*
X148277587Y-41765252D01*
X148281708Y-41763381D01*
X148413774Y-41709313D01*
X148416344Y-41708330D01*
X148564526Y-41655467D01*
X148569212Y-41654003D01*
X148707923Y-41616667D01*
X148862882Y-41581716D01*
X148867980Y-41580791D01*
X149009805Y-41561201D01*
X149168023Y-41545164D01*
X149173516Y-41544853D01*
X149316099Y-41543199D01*
X149475419Y-41546357D01*
X149481206Y-41546745D01*
X149622035Y-41562877D01*
X149780383Y-41585297D01*
X149786379Y-41586452D01*
X149909971Y-41616661D01*
X149922967Y-41619837D01*
X150078284Y-41661400D01*
X150084366Y-41663372D01*
X150214040Y-41712980D01*
X150364570Y-41773506D01*
X150364595Y-41773516D01*
X150370706Y-41776368D01*
X150490453Y-41840401D01*
X150526591Y-41860290D01*
X150635047Y-41919982D01*
X150641008Y-41923719D01*
X150745976Y-41998137D01*
X150885495Y-42098578D01*
X150891189Y-42103212D01*
X150958641Y-42165090D01*
X151110751Y-42305323D01*
X151113428Y-42307944D01*
X151691919Y-42909842D01*
X151691920Y-42909842D01*
X151700144Y-42918399D01*
X151700279Y-42918514D01*
X151776548Y-42997779D01*
X151965999Y-43152004D01*
X151966003Y-43152007D01*
X152156904Y-43272035D01*
X152172806Y-43282033D01*
X152393897Y-43385936D01*
X152625986Y-43462169D01*
X152625995Y-43462170D01*
X152625999Y-43462172D01*
X152814564Y-43499492D01*
X152865626Y-43509598D01*
X153109256Y-43527520D01*
X153353257Y-43515668D01*
X153594003Y-43474217D01*
X153827918Y-43403785D01*
X153893926Y-43374790D01*
X153894018Y-43374778D01*
X153937904Y-43355476D01*
X153941595Y-43353992D01*
X153997917Y-43333443D01*
X154191559Y-43264564D01*
X154198767Y-43262483D01*
X154236726Y-43253969D01*
X154307352Y-43238130D01*
X154460995Y-43207562D01*
X154467381Y-43206638D01*
X154587895Y-43195591D01*
X154735813Y-43188037D01*
X154741290Y-43188002D01*
X154864196Y-43192651D01*
X154867672Y-43192880D01*
X155011098Y-43206451D01*
X155015533Y-43207034D01*
X155137698Y-43227629D01*
X155142052Y-43228527D01*
X155282044Y-43262741D01*
X155285342Y-43263647D01*
X155403028Y-43299566D01*
X155408183Y-43301393D01*
X155505869Y-43340986D01*
X155545447Y-43357027D01*
X155561558Y-43364327D01*
X155655672Y-43406972D01*
X155661439Y-43409959D01*
X155720941Y-43444857D01*
X155796526Y-43489187D01*
X155801709Y-43492398D01*
X155891157Y-43547814D01*
X155897261Y-43552127D01*
X156007416Y-43640435D01*
X156056843Y-43680059D01*
X156104157Y-43718624D01*
X156107251Y-43721320D01*
X156148732Y-43759968D01*
X156149245Y-43760311D01*
X156558548Y-44140443D01*
X157489644Y-44953712D01*
X158445126Y-45738187D01*
X159028289Y-46187901D01*
X159048491Y-46203925D01*
X159049979Y-46204627D01*
X159424103Y-46493138D01*
X159469599Y-46526059D01*
X160046868Y-46943767D01*
X160052795Y-46948175D01*
X160053200Y-46948349D01*
X160425663Y-47217861D01*
X161448874Y-47911682D01*
X162492781Y-48573953D01*
X163556414Y-49204059D01*
X164638780Y-49801412D01*
X165738872Y-50365455D01*
X166855664Y-50895664D01*
X167988117Y-51391543D01*
X169135176Y-51852633D01*
X170295772Y-52278502D01*
X171468823Y-52668754D01*
X172653238Y-53023025D01*
X173847913Y-53340987D01*
X175051734Y-53622341D01*
X176263581Y-53866827D01*
X177482325Y-54074217D01*
X178706830Y-54244317D01*
X179935956Y-54376969D01*
X181168557Y-54472049D01*
X182403486Y-54529469D01*
X183639593Y-54549175D01*
X184875724Y-54531149D01*
X186110730Y-54475407D01*
X187343460Y-54382003D01*
X188572765Y-54251022D01*
X189797500Y-54082586D01*
X191016525Y-53876854D01*
X192228703Y-53634015D01*
X193432906Y-53354297D01*
X194628011Y-53037960D01*
X195812907Y-52685298D01*
X196986488Y-52296641D01*
X198147661Y-51872349D01*
X199295345Y-51412820D01*
X200428471Y-50918480D01*
X201545984Y-50389790D01*
X202646841Y-49827242D01*
X203730018Y-49231361D01*
X204794506Y-48602702D01*
X205839313Y-47941850D01*
X206863465Y-47249420D01*
X207236302Y-46980408D01*
X207236628Y-46980293D01*
X207242588Y-46975872D01*
X207866010Y-46526059D01*
X208240524Y-46238057D01*
X208241706Y-46237599D01*
X208262130Y-46221443D01*
X208846012Y-45772439D01*
X209802559Y-44989264D01*
X210734760Y-44177261D01*
X210820592Y-44097763D01*
X216105787Y-44097763D01*
X216135413Y-44367013D01*
X216135415Y-44367024D01*
X216203926Y-44629082D01*
X216203928Y-44629088D01*
X216309870Y-44878390D01*
X216389449Y-45008784D01*
X216450979Y-45109605D01*
X216450986Y-45109615D01*
X216624253Y-45317819D01*
X216624259Y-45317824D01*
X216785649Y-45462429D01*
X216825998Y-45498582D01*
X217051910Y-45648044D01*
X217297176Y-45763020D01*
X217297183Y-45763022D01*
X217297185Y-45763023D01*
X217556557Y-45841057D01*
X217556564Y-45841058D01*
X217556569Y-45841060D01*
X217824561Y-45880500D01*
X217824566Y-45880500D01*
X218027636Y-45880500D01*
X218079133Y-45876730D01*
X218230156Y-45865677D01*
X218342758Y-45840593D01*
X218494546Y-45806782D01*
X218494548Y-45806781D01*
X218494553Y-45806780D01*
X218747558Y-45710014D01*
X218983777Y-45577441D01*
X219198177Y-45411888D01*
X219386186Y-45216881D01*
X219543799Y-44996579D01*
X219619289Y-44849750D01*
X219667649Y-44755690D01*
X219667651Y-44755684D01*
X219667656Y-44755675D01*
X219755118Y-44499305D01*
X219804319Y-44232933D01*
X219814212Y-43962235D01*
X219784586Y-43692982D01*
X219716072Y-43430912D01*
X219610130Y-43181610D01*
X219469018Y-42950390D01*
X219444523Y-42920956D01*
X219295746Y-42742180D01*
X219295740Y-42742175D01*
X219094002Y-42561418D01*
X218868092Y-42411957D01*
X218863890Y-42409987D01*
X218622824Y-42296980D01*
X218622819Y-42296978D01*
X218622814Y-42296976D01*
X218363442Y-42218942D01*
X218363428Y-42218939D01*
X218247791Y-42201921D01*
X218095439Y-42179500D01*
X217892369Y-42179500D01*
X217892364Y-42179500D01*
X217689844Y-42194323D01*
X217689831Y-42194325D01*
X217425453Y-42253217D01*
X217425446Y-42253220D01*
X217172439Y-42349987D01*
X216936226Y-42482557D01*
X216936224Y-42482558D01*
X216936223Y-42482559D01*
X216882512Y-42524033D01*
X216721822Y-42648112D01*
X216533822Y-42843109D01*
X216533816Y-42843116D01*
X216376202Y-43063419D01*
X216376199Y-43063424D01*
X216252350Y-43304309D01*
X216252343Y-43304327D01*
X216164884Y-43560685D01*
X216164881Y-43560699D01*
X216141501Y-43687279D01*
X216128581Y-43757230D01*
X216115681Y-43827068D01*
X216115680Y-43827075D01*
X216105787Y-44097763D01*
X210820592Y-44097763D01*
X211186825Y-43758556D01*
X211189766Y-43756001D01*
X211236939Y-43717586D01*
X211393688Y-43592000D01*
X211399692Y-43587752D01*
X211493512Y-43529453D01*
X211496797Y-43527519D01*
X211625993Y-43451452D01*
X211631650Y-43448504D01*
X211740671Y-43398691D01*
X211875353Y-43343526D01*
X211880385Y-43341717D01*
X211996673Y-43305597D01*
X211999894Y-43304695D01*
X212137391Y-43270257D01*
X212141628Y-43269357D01*
X212262348Y-43248170D01*
X212266712Y-43247566D01*
X212284165Y-43245778D01*
X212407656Y-43233131D01*
X212411002Y-43232882D01*
X212532627Y-43227246D01*
X212537995Y-43227234D01*
X212683435Y-43233243D01*
X212802856Y-43242951D01*
X212809187Y-43243798D01*
X212960339Y-43272030D01*
X213068385Y-43294895D01*
X213075516Y-43296855D01*
X213097484Y-43304327D01*
X213244133Y-43354207D01*
X213261758Y-43360201D01*
X213323736Y-43381845D01*
X213327332Y-43383228D01*
X213345695Y-43390955D01*
X213436065Y-43429147D01*
X213668045Y-43495649D01*
X213906336Y-43533785D01*
X214147484Y-43543001D01*
X214387991Y-43523163D01*
X214624370Y-43474559D01*
X214853192Y-43397894D01*
X215071140Y-43294280D01*
X215275053Y-43165219D01*
X215461974Y-43012583D01*
X215539083Y-42932318D01*
X215560686Y-42909842D01*
X215636868Y-42830577D01*
X216139326Y-42307788D01*
X216142003Y-42305166D01*
X216292957Y-42166000D01*
X216361424Y-42103186D01*
X216367089Y-42098575D01*
X216506638Y-41998113D01*
X216611593Y-41923704D01*
X216617544Y-41919974D01*
X216762159Y-41840381D01*
X216881902Y-41776351D01*
X216887985Y-41773512D01*
X217038577Y-41712962D01*
X217168219Y-41663365D01*
X217174311Y-41661391D01*
X217329673Y-41619816D01*
X217466235Y-41586437D01*
X217472214Y-41585286D01*
X217630558Y-41562868D01*
X217771372Y-41546736D01*
X217777181Y-41546347D01*
X217936538Y-41543189D01*
X218079046Y-41544843D01*
G37*
%TD.AperFunction*%
%TD*%
M02*
