%TF.GenerationSoftware,KiCad,Pcbnew,7.0.9*%
%TF.CreationDate,2024-12-16T15:20:58+09:00*%
%TF.ProjectId,kicker,6b69636b-6572-42e6-9b69-6361645f7063,rev?*%
%TF.SameCoordinates,Original*%
%TF.FileFunction,Soldermask,Top*%
%TF.FilePolarity,Negative*%
%FSLAX46Y46*%
G04 Gerber Fmt 4.6, Leading zero omitted, Abs format (unit mm)*
G04 Created by KiCad (PCBNEW 7.0.9) date 2024-12-16 15:20:58*
%MOMM*%
%LPD*%
G01*
G04 APERTURE LIST*
G04 Aperture macros list*
%AMRoundRect*
0 Rectangle with rounded corners*
0 $1 Rounding radius*
0 $2 $3 $4 $5 $6 $7 $8 $9 X,Y pos of 4 corners*
0 Add a 4 corners polygon primitive as box body*
4,1,4,$2,$3,$4,$5,$6,$7,$8,$9,$2,$3,0*
0 Add four circle primitives for the rounded corners*
1,1,$1+$1,$2,$3*
1,1,$1+$1,$4,$5*
1,1,$1+$1,$6,$7*
1,1,$1+$1,$8,$9*
0 Add four rect primitives between the rounded corners*
20,1,$1+$1,$2,$3,$4,$5,0*
20,1,$1+$1,$4,$5,$6,$7,0*
20,1,$1+$1,$6,$7,$8,$9,0*
20,1,$1+$1,$8,$9,$2,$3,0*%
%AMHorizOval*
0 Thick line with rounded ends*
0 $1 width*
0 $2 $3 position (X,Y) of the first rounded end (center of the circle)*
0 $4 $5 position (X,Y) of the second rounded end (center of the circle)*
0 Add line between two ends*
20,1,$1,$2,$3,$4,$5,0*
0 Add two circle primitives to create the rounded ends*
1,1,$1,$2,$3*
1,1,$1,$4,$5*%
G04 Aperture macros list end*
%ADD10RoundRect,0.250000X-0.450000X0.262500X-0.450000X-0.262500X0.450000X-0.262500X0.450000X0.262500X0*%
%ADD11C,3.200000*%
%ADD12RoundRect,0.250001X-1.555634X0.000000X0.000000X-1.555634X1.555634X0.000000X0.000000X1.555634X0*%
%ADD13C,2.700000*%
%ADD14RoundRect,0.250000X0.106066X-0.954594X0.954594X-0.106066X-0.106066X0.954594X-0.954594X0.106066X0*%
%ADD15HorizOval,1.700000X-0.106066X0.106066X0.106066X-0.106066X0*%
%ADD16RoundRect,0.250000X0.450000X-0.262500X0.450000X0.262500X-0.450000X0.262500X-0.450000X-0.262500X0*%
%ADD17RoundRect,0.250000X-0.600000X-0.750000X0.600000X-0.750000X0.600000X0.750000X-0.600000X0.750000X0*%
%ADD18O,1.700000X2.000000*%
%ADD19R,1.600000X1.600000*%
%ADD20O,1.600000X1.600000*%
%ADD21RoundRect,0.250000X0.088388X-0.936916X0.936916X-0.088388X-0.088388X0.936916X-0.936916X0.088388X0*%
%ADD22HorizOval,1.700000X-0.088388X0.088388X0.088388X-0.088388X0*%
%ADD23C,1.800000*%
G04 APERTURE END LIST*
D10*
%TO.C,R6*%
X198800000Y-69137500D03*
X198800000Y-70962500D03*
%TD*%
D11*
%TO.C,REF\u002A\u002A*%
X183670000Y-79850000D03*
%TD*%
D12*
%TO.C,J1*%
X164160000Y-75660000D03*
D13*
X166960143Y-78460143D03*
%TD*%
D14*
%TO.C,J4*%
X209640000Y-70880000D03*
D15*
X211407767Y-69112233D03*
%TD*%
D16*
%TO.C,R7*%
X160090000Y-69052500D03*
X160090000Y-67227500D03*
%TD*%
D11*
%TO.C,REF\u002A\u002A*%
X149310000Y-44090000D03*
%TD*%
D16*
%TO.C,R4*%
X166590000Y-69232500D03*
X166590000Y-67407500D03*
%TD*%
D11*
%TO.C,REF\u002A\u002A*%
X217960000Y-44030000D03*
%TD*%
D17*
%TO.C,C1*%
X148820000Y-55370000D03*
D18*
X151320000Y-55370000D03*
%TD*%
D19*
%TO.C,U1*%
X206430000Y-59515000D03*
D20*
X206430000Y-56975000D03*
X198810000Y-56975000D03*
X198810000Y-59515000D03*
%TD*%
D16*
%TO.C,R3*%
X164490000Y-69142500D03*
X164490000Y-67317500D03*
%TD*%
D21*
%TO.C,J3*%
X201430000Y-78660000D03*
D22*
X203197767Y-76892233D03*
X204965534Y-75124466D03*
%TD*%
D23*
%TO.C,Q1*%
X173720000Y-77031000D03*
X176260000Y-77031000D03*
X178800000Y-77031000D03*
%TD*%
D10*
%TO.C,R9*%
X162270000Y-67257500D03*
X162270000Y-69082500D03*
%TD*%
D17*
%TO.C,C2*%
X215890000Y-55280000D03*
D18*
X218390000Y-55280000D03*
%TD*%
D16*
%TO.C,R8*%
X168890000Y-69262500D03*
X168890000Y-67437500D03*
%TD*%
%TO.C,R1*%
X201080000Y-70972500D03*
X201080000Y-69147500D03*
%TD*%
D23*
%TO.C,Q3*%
X188830000Y-76980000D03*
X191370000Y-76980000D03*
X193910000Y-76980000D03*
%TD*%
D19*
%TO.C,U2*%
X168360000Y-59320000D03*
D20*
X168360000Y-56780000D03*
X160740000Y-56780000D03*
X160740000Y-59320000D03*
%TD*%
D16*
%TO.C,R2*%
X157860000Y-69025000D03*
X157860000Y-67200000D03*
%TD*%
M02*
