%TF.GenerationSoftware,KiCad,Pcbnew,7.0.9*%
%TF.CreationDate,2024-12-16T15:20:57+09:00*%
%TF.ProjectId,kicker,6b69636b-6572-42e6-9b69-6361645f7063,rev?*%
%TF.SameCoordinates,Original*%
%TF.FileFunction,Copper,L1,Top*%
%TF.FilePolarity,Positive*%
%FSLAX46Y46*%
G04 Gerber Fmt 4.6, Leading zero omitted, Abs format (unit mm)*
G04 Created by KiCad (PCBNEW 7.0.9) date 2024-12-16 15:20:57*
%MOMM*%
%LPD*%
G01*
G04 APERTURE LIST*
G04 Aperture macros list*
%AMRoundRect*
0 Rectangle with rounded corners*
0 $1 Rounding radius*
0 $2 $3 $4 $5 $6 $7 $8 $9 X,Y pos of 4 corners*
0 Add a 4 corners polygon primitive as box body*
4,1,4,$2,$3,$4,$5,$6,$7,$8,$9,$2,$3,0*
0 Add four circle primitives for the rounded corners*
1,1,$1+$1,$2,$3*
1,1,$1+$1,$4,$5*
1,1,$1+$1,$6,$7*
1,1,$1+$1,$8,$9*
0 Add four rect primitives between the rounded corners*
20,1,$1+$1,$2,$3,$4,$5,0*
20,1,$1+$1,$4,$5,$6,$7,0*
20,1,$1+$1,$6,$7,$8,$9,0*
20,1,$1+$1,$8,$9,$2,$3,0*%
%AMHorizOval*
0 Thick line with rounded ends*
0 $1 width*
0 $2 $3 position (X,Y) of the first rounded end (center of the circle)*
0 $4 $5 position (X,Y) of the second rounded end (center of the circle)*
0 Add line between two ends*
20,1,$1,$2,$3,$4,$5,0*
0 Add two circle primitives to create the rounded ends*
1,1,$1,$2,$3*
1,1,$1,$4,$5*%
G04 Aperture macros list end*
%TA.AperFunction,SMDPad,CuDef*%
%ADD10RoundRect,0.250000X-0.450000X0.262500X-0.450000X-0.262500X0.450000X-0.262500X0.450000X0.262500X0*%
%TD*%
%TA.AperFunction,ComponentPad*%
%ADD11RoundRect,0.250001X-1.555634X0.000000X0.000000X-1.555634X1.555634X0.000000X0.000000X1.555634X0*%
%TD*%
%TA.AperFunction,ComponentPad*%
%ADD12C,2.700000*%
%TD*%
%TA.AperFunction,ComponentPad*%
%ADD13RoundRect,0.250000X0.106066X-0.954594X0.954594X-0.106066X-0.106066X0.954594X-0.954594X0.106066X0*%
%TD*%
%TA.AperFunction,ComponentPad*%
%ADD14HorizOval,1.700000X-0.106066X0.106066X0.106066X-0.106066X0*%
%TD*%
%TA.AperFunction,SMDPad,CuDef*%
%ADD15RoundRect,0.250000X0.450000X-0.262500X0.450000X0.262500X-0.450000X0.262500X-0.450000X-0.262500X0*%
%TD*%
%TA.AperFunction,ComponentPad*%
%ADD16RoundRect,0.250000X-0.600000X-0.750000X0.600000X-0.750000X0.600000X0.750000X-0.600000X0.750000X0*%
%TD*%
%TA.AperFunction,ComponentPad*%
%ADD17O,1.700000X2.000000*%
%TD*%
%TA.AperFunction,ComponentPad*%
%ADD18R,1.600000X1.600000*%
%TD*%
%TA.AperFunction,ComponentPad*%
%ADD19O,1.600000X1.600000*%
%TD*%
%TA.AperFunction,ComponentPad*%
%ADD20RoundRect,0.250000X0.088388X-0.936916X0.936916X-0.088388X-0.088388X0.936916X-0.936916X0.088388X0*%
%TD*%
%TA.AperFunction,ComponentPad*%
%ADD21HorizOval,1.700000X-0.088388X0.088388X0.088388X-0.088388X0*%
%TD*%
%TA.AperFunction,ComponentPad*%
%ADD22C,1.800000*%
%TD*%
%TA.AperFunction,ViaPad*%
%ADD23C,0.800000*%
%TD*%
%TA.AperFunction,Conductor*%
%ADD24C,1.000000*%
%TD*%
%TA.AperFunction,Conductor*%
%ADD25C,1.700000*%
%TD*%
G04 APERTURE END LIST*
D10*
%TO.P,R6,1*%
%TO.N,Net-(R6-Pad1)*%
X198800000Y-69137500D03*
%TO.P,R6,2*%
%TO.N,GND*%
X198800000Y-70962500D03*
%TD*%
D11*
%TO.P,J1,1,Pin_1*%
%TO.N,+48V*%
X164160000Y-75660000D03*
D12*
%TO.P,J1,2,Pin_2*%
%TO.N,GND*%
X166960143Y-78460143D03*
%TD*%
D13*
%TO.P,J4,1,Pin_1*%
%TO.N,Solenoid+*%
X209640000Y-70880000D03*
D14*
%TO.P,J4,2,Pin_2*%
%TO.N,Solenoid-*%
X211407767Y-69112233D03*
%TD*%
D15*
%TO.P,R7,1*%
%TO.N,+48V*%
X160090000Y-69052500D03*
%TO.P,R7,2*%
%TO.N,+15V*%
X160090000Y-67227500D03*
%TD*%
%TO.P,R4,1*%
%TO.N,Net-(Q3-G)*%
X166590000Y-69232500D03*
%TO.P,R4,2*%
%TO.N,GND*%
X166590000Y-67407500D03*
%TD*%
D16*
%TO.P,C1,1*%
%TO.N,Solenoid+*%
X148820000Y-55370000D03*
D17*
%TO.P,C1,2*%
%TO.N,GND*%
X151320000Y-55370000D03*
%TD*%
D18*
%TO.P,U1,1*%
%TO.N,Net-(R1-Pad2)*%
X206430000Y-59515000D03*
D19*
%TO.P,U1,2*%
%TO.N,GND*%
X206430000Y-56975000D03*
%TO.P,U1,3*%
%TO.N,Net-(R6-Pad1)*%
X198810000Y-56975000D03*
%TO.P,U1,4*%
%TO.N,Net-(Q1-G)*%
X198810000Y-59515000D03*
%TD*%
D15*
%TO.P,R3,1*%
%TO.N,Net-(Q3-G)*%
X164490000Y-69142500D03*
%TO.P,R3,2*%
%TO.N,Net-(R3-Pad2)*%
X164490000Y-67317500D03*
%TD*%
D20*
%TO.P,J3,1,Pin_1*%
%TO.N,FET1*%
X201430000Y-78660000D03*
D21*
%TO.P,J3,2,Pin_2*%
%TO.N,GND*%
X203197767Y-76892233D03*
%TO.P,J3,3,Pin_3*%
%TO.N,FET\uFF12*%
X204965534Y-75124466D03*
%TD*%
D22*
%TO.P,Q1,1,D*%
%TO.N,Solenoid+*%
X173720000Y-77031000D03*
%TO.P,Q1,2,G*%
%TO.N,Net-(Q1-G)*%
X176260000Y-77031000D03*
%TO.P,Q1,3,S*%
%TO.N,+48V*%
X178800000Y-77031000D03*
%TD*%
D10*
%TO.P,R9,1*%
%TO.N,+15V*%
X162270000Y-67257500D03*
%TO.P,R9,2*%
%TO.N,GND*%
X162270000Y-69082500D03*
%TD*%
D16*
%TO.P,C2,1*%
%TO.N,Solenoid+*%
X215890000Y-55280000D03*
D17*
%TO.P,C2,2*%
%TO.N,GND*%
X218390000Y-55280000D03*
%TD*%
D15*
%TO.P,R8,1*%
%TO.N,FET\uFF12*%
X168890000Y-69262500D03*
%TO.P,R8,2*%
%TO.N,Net-(R8-Pad2)*%
X168890000Y-67437500D03*
%TD*%
%TO.P,R1,1*%
%TO.N,FET1*%
X201080000Y-70972500D03*
%TO.P,R1,2*%
%TO.N,Net-(R1-Pad2)*%
X201080000Y-69147500D03*
%TD*%
D22*
%TO.P,Q3,1,D*%
%TO.N,Solenoid-*%
X188830000Y-76980000D03*
%TO.P,Q3,2,G*%
%TO.N,Net-(Q3-G)*%
X191370000Y-76980000D03*
%TO.P,Q3,3,S*%
%TO.N,GND*%
X193910000Y-76980000D03*
%TD*%
D18*
%TO.P,U2,1*%
%TO.N,Net-(R8-Pad2)*%
X168360000Y-59320000D03*
D19*
%TO.P,U2,2*%
%TO.N,GND*%
X168360000Y-56780000D03*
%TO.P,U2,3*%
%TO.N,Net-(R3-Pad2)*%
X160740000Y-56780000D03*
%TO.P,U2,4*%
%TO.N,+15V*%
X160740000Y-59320000D03*
%TD*%
D15*
%TO.P,R2,1*%
%TO.N,+48V*%
X157860000Y-69025000D03*
%TO.P,R2,2*%
%TO.N,Net-(Q1-G)*%
X157860000Y-67200000D03*
%TD*%
D23*
%TO.N,GND*%
X199644000Y-72288400D03*
X199771000Y-77216000D03*
X194487800Y-57988200D03*
X212572600Y-56591200D03*
X193243200Y-70637400D03*
X187528200Y-67894200D03*
X187045600Y-70535800D03*
X170230800Y-58039000D03*
X153289000Y-56845200D03*
X163690000Y-70750000D03*
X166370000Y-65730000D03*
%TD*%
D24*
%TO.N,Net-(Q3-G)*%
X166590000Y-69951600D02*
X166590000Y-69232500D01*
X165354000Y-69232500D02*
X165870900Y-69232500D01*
X165870900Y-69232500D02*
X166590000Y-69951600D01*
X166590000Y-70420800D02*
X166590000Y-69951600D01*
X165354000Y-69232500D02*
X164580000Y-69232500D01*
X166590000Y-69232500D02*
X165354000Y-69232500D01*
X166954200Y-70785000D02*
X166590000Y-70420800D01*
X166954200Y-70785000D02*
X166132500Y-70785000D01*
X185175000Y-70785000D02*
X166954200Y-70785000D01*
%TO.N,Net-(R3-Pad2)*%
X161106600Y-56413400D02*
X160740000Y-56780000D01*
X163753800Y-56413400D02*
X161106600Y-56413400D01*
X164490000Y-57149600D02*
X163753800Y-56413400D01*
X164490000Y-67317500D02*
X164490000Y-57149600D01*
%TO.N,+48V*%
X160062500Y-69025000D02*
X160090000Y-69052500D01*
D25*
X166490000Y-75020000D02*
X164800000Y-75020000D01*
D24*
X160090000Y-70170000D02*
X159655000Y-69735000D01*
D25*
X178540000Y-72630000D02*
X179190000Y-72630000D01*
D24*
X159547500Y-72462500D02*
X159830000Y-72180000D01*
X160090000Y-71590000D02*
X164160000Y-75660000D01*
D25*
X176150000Y-75020000D02*
X178490000Y-72680000D01*
D24*
X160580000Y-70910000D02*
X162770000Y-73100000D01*
X162745000Y-75660000D02*
X164160000Y-75660000D01*
X172460000Y-73600000D02*
X172330000Y-73600000D01*
D25*
X167810000Y-74640000D02*
X165850000Y-74640000D01*
X178800000Y-77031000D02*
X179789000Y-77031000D01*
D24*
X172460000Y-73600000D02*
X175880000Y-73600000D01*
X162510000Y-74010000D02*
X162510000Y-73360000D01*
X162137500Y-75052500D02*
X162745000Y-75660000D01*
D25*
X169510000Y-75020000D02*
X170910000Y-75020000D01*
D24*
X167910000Y-73600000D02*
X166490000Y-75020000D01*
X172990000Y-74020000D02*
X171990000Y-75020000D01*
D25*
X178061792Y-75020000D02*
X175960000Y-75020000D01*
X180520000Y-75410000D02*
X180520000Y-73960000D01*
D24*
X160090000Y-70910000D02*
X160580000Y-70910000D01*
X158785000Y-70285000D02*
X164160000Y-75660000D01*
D25*
X178800000Y-77031000D02*
X178800000Y-75758208D01*
D24*
X157860000Y-69360000D02*
X158235000Y-69735000D01*
X159547500Y-72462500D02*
X160067500Y-72982500D01*
D25*
X164160000Y-72950000D02*
X163570000Y-72950000D01*
D24*
X159810000Y-71662500D02*
X158747500Y-71662500D01*
D25*
X169510000Y-75020000D02*
X169510000Y-73990000D01*
X180520000Y-76300000D02*
X180520000Y-75410000D01*
D24*
X158945000Y-69025000D02*
X160090000Y-70170000D01*
X169900000Y-73600000D02*
X168850000Y-73600000D01*
D25*
X178451792Y-75410000D02*
X178061792Y-75020000D01*
X166490000Y-75020000D02*
X169510000Y-75020000D01*
X164350000Y-72680000D02*
X164120000Y-72910000D01*
D24*
X164160000Y-75660000D02*
X166220000Y-73600000D01*
X158900000Y-70170000D02*
X158785000Y-70285000D01*
X160270000Y-72180000D02*
X160680000Y-72180000D01*
D25*
X180520000Y-75410000D02*
X178451792Y-75410000D01*
X164800000Y-75020000D02*
X164160000Y-75660000D01*
D24*
X160090000Y-70170000D02*
X160090000Y-70910000D01*
X159655000Y-69735000D02*
X158235000Y-69735000D01*
X160680000Y-72180000D02*
X160162500Y-71662500D01*
X160090000Y-69052500D02*
X160090000Y-69580000D01*
D25*
X162770000Y-73100000D02*
X162510000Y-73360000D01*
X178800000Y-75758208D02*
X178061792Y-75020000D01*
X165850000Y-74640000D02*
X164160000Y-72950000D01*
D24*
X175880000Y-73600000D02*
X173410000Y-73600000D01*
X158235000Y-69735000D02*
X158785000Y-70285000D01*
X158747500Y-71662500D02*
X159547500Y-72462500D01*
D25*
X175960000Y-75020000D02*
X176150000Y-75020000D01*
D24*
X159830000Y-72180000D02*
X160270000Y-72180000D01*
X157860000Y-69025000D02*
X157860000Y-69360000D01*
D25*
X175960000Y-75020000D02*
X167810000Y-75020000D01*
X177001792Y-73960000D02*
X176641792Y-73600000D01*
D24*
X161400000Y-72900000D02*
X162510000Y-74010000D01*
D25*
X163570000Y-72950000D02*
X162510000Y-74010000D01*
X179190000Y-72630000D02*
X180520000Y-73960000D01*
D24*
X164160000Y-75660000D02*
X162510000Y-74010000D01*
X160090000Y-71590000D02*
X160017500Y-71662500D01*
X160017500Y-71662500D02*
X159810000Y-71662500D01*
X176641792Y-73600000D02*
X178061792Y-75020000D01*
X160162500Y-71662500D02*
X159810000Y-71662500D01*
D25*
X164350000Y-72680000D02*
X163190000Y-72680000D01*
D24*
X173410000Y-73600000D02*
X172990000Y-74020000D01*
D25*
X164160000Y-72950000D02*
X164160000Y-75660000D01*
X164120000Y-72910000D02*
X164160000Y-72950000D01*
D24*
X160090000Y-69580000D02*
X163190000Y-72680000D01*
D25*
X179789000Y-77031000D02*
X180520000Y-76300000D01*
D24*
X168850000Y-73600000D02*
X167910000Y-73600000D01*
X161472500Y-74387500D02*
X162137500Y-75052500D01*
X160090000Y-70170000D02*
X158900000Y-70170000D01*
D25*
X167810000Y-75020000D02*
X167810000Y-74640000D01*
D24*
X161400000Y-72900000D02*
X160150000Y-72900000D01*
X160580000Y-70910000D02*
X157995000Y-70910000D01*
X160090000Y-70910000D02*
X160090000Y-71590000D01*
X160807500Y-73722500D02*
X161477500Y-74392500D01*
D25*
X167810000Y-74640000D02*
X168850000Y-73600000D01*
D24*
X157860000Y-70775000D02*
X158747500Y-71662500D01*
X176100000Y-73600000D02*
X176641792Y-73600000D01*
X157995000Y-70910000D02*
X157860000Y-70775000D01*
X171210000Y-73600000D02*
X169900000Y-73600000D01*
X162222500Y-73722500D02*
X160807500Y-73722500D01*
X162510000Y-74010000D02*
X162222500Y-73722500D01*
D25*
X164120000Y-72910000D02*
X162960000Y-72910000D01*
X180520000Y-73960000D02*
X177001792Y-73960000D01*
D24*
X170910000Y-73900000D02*
X171210000Y-73600000D01*
X157860000Y-69025000D02*
X157860000Y-70775000D01*
D25*
X178490000Y-72680000D02*
X164350000Y-72680000D01*
D24*
X170910000Y-75020000D02*
X170910000Y-73900000D01*
X172330000Y-73600000D02*
X170910000Y-75020000D01*
X171210000Y-73600000D02*
X172460000Y-73600000D01*
D25*
X170910000Y-75020000D02*
X171990000Y-75020000D01*
D24*
X160150000Y-72900000D02*
X160067500Y-72982500D01*
X160680000Y-72180000D02*
X161400000Y-72900000D01*
X157860000Y-69025000D02*
X158945000Y-69025000D01*
D25*
X162960000Y-72910000D02*
X162770000Y-73100000D01*
D24*
X166220000Y-73600000D02*
X171210000Y-73600000D01*
X160090000Y-69052500D02*
X160090000Y-70170000D01*
X175880000Y-73600000D02*
X176100000Y-73600000D01*
D25*
X167810000Y-75020000D02*
X166490000Y-75020000D01*
D24*
X160067500Y-72982500D02*
X160807500Y-73722500D01*
X175680000Y-74020000D02*
X176100000Y-73600000D01*
D25*
X178540000Y-72630000D02*
X178490000Y-72680000D01*
X169510000Y-73990000D02*
X169900000Y-73600000D01*
X163190000Y-72680000D02*
X162770000Y-73100000D01*
D24*
X172990000Y-74020000D02*
X175680000Y-74020000D01*
X157860000Y-69025000D02*
X160062500Y-69025000D01*
%TO.N,Net-(Q3-G)*%
X166132500Y-70785000D02*
X164490000Y-69142500D01*
X185175000Y-70785000D02*
X191370000Y-76980000D01*
X164580000Y-69232500D02*
X164490000Y-69142500D01*
%TO.N,FET1*%
X201080000Y-78310000D02*
X201430000Y-78660000D01*
X201080000Y-70972500D02*
X201080000Y-78310000D01*
%TO.N,Net-(R1-Pad2)*%
X201080000Y-69147500D02*
X201080000Y-64865000D01*
X201080000Y-64865000D02*
X206430000Y-59515000D01*
%TO.N,Net-(Q1-G)*%
X176260000Y-77031000D02*
X172780857Y-80510143D01*
X157160000Y-67200000D02*
X157860000Y-67200000D01*
X156410000Y-71022056D02*
X156410000Y-67950000D01*
X172780857Y-80510143D02*
X165898087Y-80510143D01*
X165898087Y-80510143D02*
X156410000Y-71022056D01*
X156410000Y-67950000D02*
X157160000Y-67200000D01*
%TO.N,Net-(R6-Pad1)*%
X198800000Y-61646321D02*
X200310000Y-60136321D01*
X198800000Y-69137500D02*
X198800000Y-61646321D01*
X200310000Y-60136321D02*
X200310000Y-58475000D01*
X200310000Y-58475000D02*
X198810000Y-56975000D01*
%TO.N,FET\uFF12*%
X201906994Y-80551814D02*
X204965534Y-77493274D01*
X189840468Y-69262500D02*
X201129782Y-80551814D01*
X168890000Y-69262500D02*
X189840468Y-69262500D01*
X204965534Y-77493274D02*
X204965534Y-75124466D01*
X201129782Y-80551814D02*
X201906994Y-80551814D01*
%TO.N,Net-(R8-Pad2)*%
X168360000Y-66907500D02*
X168890000Y-67437500D01*
X168360000Y-59320000D02*
X168360000Y-66907500D01*
D25*
%TO.N,+15V*%
X160740000Y-65200000D02*
X160740000Y-66577500D01*
D24*
X161770000Y-61350000D02*
X160740000Y-61350000D01*
X162270000Y-62500000D02*
X162270000Y-61660000D01*
X162270000Y-64140000D02*
X160870000Y-64140000D01*
X162270000Y-67257500D02*
X162270000Y-66530000D01*
X162270000Y-64140000D02*
X162270000Y-63250000D01*
X162270000Y-66530000D02*
X160787500Y-66530000D01*
X162240000Y-67227500D02*
X162270000Y-67257500D01*
X160830000Y-62500000D02*
X160740000Y-62410000D01*
X162270000Y-64900000D02*
X162270000Y-64140000D01*
X162270000Y-65770000D02*
X162270000Y-64900000D01*
X162270000Y-63250000D02*
X161760000Y-63250000D01*
X161040000Y-64900000D02*
X160740000Y-65200000D01*
D25*
X160740000Y-61350000D02*
X160740000Y-62410000D01*
D24*
X162270000Y-66530000D02*
X162270000Y-65770000D01*
X160870000Y-64140000D02*
X160740000Y-64270000D01*
X161547500Y-65770000D02*
X160740000Y-66577500D01*
X161490000Y-61660000D02*
X160740000Y-62410000D01*
X162270000Y-62500000D02*
X160830000Y-62500000D01*
X162270000Y-63250000D02*
X162270000Y-62500000D01*
D25*
X160740000Y-59320000D02*
X160740000Y-61350000D01*
D24*
X162270000Y-64900000D02*
X161040000Y-64900000D01*
X162270000Y-60850000D02*
X161770000Y-61350000D01*
D25*
X160740000Y-62410000D02*
X160740000Y-64270000D01*
D24*
X160787500Y-66530000D02*
X160740000Y-66577500D01*
X162270000Y-61660000D02*
X161490000Y-61660000D01*
X162270000Y-61660000D02*
X162270000Y-60850000D01*
X160090000Y-67227500D02*
X162240000Y-67227500D01*
X161760000Y-63250000D02*
X160740000Y-64270000D01*
D25*
X160740000Y-66577500D02*
X160090000Y-67227500D01*
D24*
X162270000Y-60850000D02*
X160740000Y-59320000D01*
D25*
X160740000Y-64270000D02*
X160740000Y-65200000D01*
D24*
X162270000Y-65770000D02*
X161547500Y-65770000D01*
%TD*%
%TA.AperFunction,Conductor*%
%TO.N,GND*%
G36*
X218079046Y-41544843D02*
G01*
X218084575Y-41545154D01*
X218242819Y-41561193D01*
X218384611Y-41580779D01*
X218389728Y-41581708D01*
X218544709Y-41616665D01*
X218683374Y-41653988D01*
X218688073Y-41655457D01*
X218721476Y-41667373D01*
X218836252Y-41708319D01*
X218838890Y-41709328D01*
X218970866Y-41763359D01*
X218975027Y-41765248D01*
X219115656Y-41835536D01*
X219118381Y-41836986D01*
X219242641Y-41907186D01*
X219246332Y-41909445D01*
X219377352Y-41996098D01*
X219380153Y-41998065D01*
X219494674Y-42083314D01*
X219497838Y-42085834D01*
X219516666Y-42101859D01*
X219617414Y-42187609D01*
X219620180Y-42190112D01*
X219723138Y-42289067D01*
X219725755Y-42291738D01*
X219832174Y-42407166D01*
X219834805Y-42410214D01*
X219924549Y-42521294D01*
X219926639Y-42524033D01*
X220018385Y-42651467D01*
X220020789Y-42655065D01*
X220020802Y-42655085D01*
X220095864Y-42776450D01*
X220097446Y-42779159D01*
X220173220Y-42916829D01*
X220175303Y-42920974D01*
X220234501Y-43050653D01*
X220235623Y-43053269D01*
X220294318Y-43199236D01*
X220295979Y-43203894D01*
X220338768Y-43340967D01*
X220379829Y-43494394D01*
X220380970Y-43499513D01*
X220406164Y-43640430D01*
X220428459Y-43797880D01*
X220428990Y-43803399D01*
X220436293Y-43945758D01*
X220439455Y-44105072D01*
X220439295Y-44110914D01*
X220428759Y-44252260D01*
X220412638Y-44411337D01*
X220411717Y-44417411D01*
X220383777Y-44555191D01*
X220348406Y-44712021D01*
X220346664Y-44718224D01*
X220302241Y-44849750D01*
X220247723Y-45002580D01*
X220245115Y-45008799D01*
X220185902Y-45130944D01*
X220112096Y-45278621D01*
X220108595Y-45284732D01*
X220038447Y-45392492D01*
X219943572Y-45535949D01*
X219939165Y-45541825D01*
X219878377Y-45613595D01*
X219746508Y-45768533D01*
X219743133Y-45772191D01*
X219243085Y-46272238D01*
X219154769Y-46360553D01*
X219154766Y-46360556D01*
X218995129Y-46568592D01*
X218995125Y-46568597D01*
X218864011Y-46795687D01*
X218864006Y-46795698D01*
X218763646Y-47037980D01*
X218695772Y-47291286D01*
X218661543Y-47551272D01*
X218661543Y-47813528D01*
X218695772Y-48073514D01*
X218763646Y-48326820D01*
X218763652Y-48326837D01*
X218864000Y-48569088D01*
X218864011Y-48569112D01*
X218995126Y-48796203D01*
X218995130Y-48796208D01*
X219154766Y-49004243D01*
X219154776Y-49004254D01*
X219240349Y-49089825D01*
X219240353Y-49089830D01*
X219247420Y-49096897D01*
X219247421Y-49096898D01*
X224239618Y-54089094D01*
X224242378Y-54092041D01*
X224296401Y-54153642D01*
X224415671Y-54291284D01*
X224420361Y-54297433D01*
X224486282Y-54396089D01*
X224566052Y-54520211D01*
X224569503Y-54526314D01*
X224625113Y-54639079D01*
X224683762Y-54767499D01*
X224686076Y-54773330D01*
X224727464Y-54895254D01*
X224766608Y-55028563D01*
X224767928Y-55033937D01*
X224793034Y-55160147D01*
X224793595Y-55163420D01*
X224813022Y-55298539D01*
X224813521Y-55303309D01*
X224821973Y-55432261D01*
X224822106Y-55436318D01*
X224822106Y-55572455D01*
X224821973Y-55576511D01*
X224813521Y-55705485D01*
X224813022Y-55710256D01*
X224793600Y-55845347D01*
X224793039Y-55848619D01*
X224767932Y-55974848D01*
X224766611Y-55980222D01*
X224727467Y-56113534D01*
X224686083Y-56235446D01*
X224683770Y-56241275D01*
X224625122Y-56369702D01*
X224569513Y-56482466D01*
X224566062Y-56488569D01*
X224486287Y-56612703D01*
X224420393Y-56711322D01*
X224415691Y-56717487D01*
X224294976Y-56856783D01*
X224242578Y-56916530D01*
X224239804Y-56919492D01*
X217353386Y-63805909D01*
X217353324Y-63805942D01*
X217187854Y-63971450D01*
X217187850Y-63971454D01*
X216954042Y-64252384D01*
X216746835Y-64553441D01*
X216567934Y-64872143D01*
X216567932Y-64872147D01*
X216418835Y-65205822D01*
X216418598Y-65206518D01*
X216300774Y-65551720D01*
X216214742Y-65906933D01*
X216188077Y-66087864D01*
X216161453Y-66268515D01*
X216141352Y-66633421D01*
X216141352Y-66633458D01*
X216154603Y-66998663D01*
X216154606Y-66998702D01*
X216201101Y-67361195D01*
X216240010Y-67536124D01*
X216272412Y-67681799D01*
X216280456Y-67717960D01*
X216392002Y-68065997D01*
X216392003Y-68065998D01*
X216392004Y-68066001D01*
X216393552Y-68069647D01*
X216534815Y-68402417D01*
X216534819Y-68402425D01*
X216707704Y-68724413D01*
X216707708Y-68724419D01*
X216707715Y-68724432D01*
X216798144Y-68861281D01*
X216798183Y-68861365D01*
X216806984Y-68874663D01*
X216809741Y-68879246D01*
X216827918Y-68912647D01*
X216888762Y-69027770D01*
X216896551Y-69045850D01*
X216918040Y-69109153D01*
X216947452Y-69207513D01*
X216949299Y-69215646D01*
X216961214Y-69291358D01*
X216961689Y-69295121D01*
X216970766Y-69390451D01*
X216971038Y-69397269D01*
X216969854Y-69475748D01*
X216969547Y-69481047D01*
X216960051Y-69575031D01*
X216959293Y-69580282D01*
X216944759Y-69657406D01*
X216943128Y-69664035D01*
X216915162Y-69755632D01*
X216913946Y-69759220D01*
X216887134Y-69831009D01*
X216883697Y-69838611D01*
X216835200Y-69929108D01*
X216801486Y-69986830D01*
X216790243Y-70002983D01*
X216708032Y-70103101D01*
X216683011Y-70132818D01*
X216679422Y-70136729D01*
X203602521Y-83213629D01*
X203599800Y-83216191D01*
X203545372Y-83264423D01*
X203415487Y-83377981D01*
X203409915Y-83382319D01*
X203319693Y-83444649D01*
X203204370Y-83520943D01*
X203199008Y-83524115D01*
X203095790Y-83578378D01*
X202976774Y-83635944D01*
X202971815Y-83638081D01*
X202861495Y-83680038D01*
X202858755Y-83681008D01*
X202736278Y-83721126D01*
X202731887Y-83722387D01*
X202616439Y-83750991D01*
X202612785Y-83751780D01*
X202486633Y-83775073D01*
X202482938Y-83775641D01*
X202364880Y-83790151D01*
X202360328Y-83790541D01*
X202231609Y-83796805D01*
X202228702Y-83796878D01*
X202110673Y-83797082D01*
X202105280Y-83796857D01*
X201973554Y-83785590D01*
X201857748Y-83771763D01*
X201851607Y-83770715D01*
X201716620Y-83740628D01*
X201610088Y-83714627D01*
X201603352Y-83712571D01*
X201515012Y-83680017D01*
X201446485Y-83654764D01*
X201372604Y-83626958D01*
X201369151Y-83625538D01*
X200833344Y-83386147D01*
X200142929Y-83099856D01*
X200140259Y-83098710D01*
X200140086Y-83098677D01*
X199744060Y-82934459D01*
X198642933Y-82512459D01*
X197530773Y-82120459D01*
X196408397Y-81758746D01*
X195276630Y-81427586D01*
X194136303Y-81127222D01*
X192988254Y-80857876D01*
X191833327Y-80619743D01*
X190672369Y-80413001D01*
X189506235Y-80237801D01*
X189080674Y-80185615D01*
X189080554Y-80185563D01*
X189077614Y-80185239D01*
X188335781Y-80094270D01*
X187749506Y-80038451D01*
X187748819Y-80038385D01*
X187745283Y-80038049D01*
X187621033Y-80026220D01*
X187620497Y-80026203D01*
X187362837Y-80034919D01*
X187108435Y-80076626D01*
X186861480Y-80150641D01*
X186861473Y-80150643D01*
X186626079Y-80255728D01*
X186626064Y-80255735D01*
X186406083Y-80390172D01*
X186406082Y-80390173D01*
X186205192Y-80551711D01*
X186205183Y-80551719D01*
X186026677Y-80737711D01*
X186026671Y-80737719D01*
X185873501Y-80945092D01*
X185873495Y-80945100D01*
X185811717Y-81056138D01*
X185809857Y-81059261D01*
X185761707Y-81134961D01*
X185733606Y-81179139D01*
X185651435Y-81307334D01*
X185647261Y-81313091D01*
X185552576Y-81429065D01*
X185458337Y-81542069D01*
X185453789Y-81546961D01*
X185345199Y-81651832D01*
X185238223Y-81751609D01*
X185233445Y-81755635D01*
X185112745Y-81847359D01*
X184994343Y-81932874D01*
X184989472Y-81936056D01*
X184858447Y-82013121D01*
X184834028Y-82026474D01*
X184730310Y-82083187D01*
X184725476Y-82085564D01*
X184585945Y-82146795D01*
X184450056Y-82200331D01*
X184445376Y-82201962D01*
X184300628Y-82246005D01*
X184297930Y-82246760D01*
X184157661Y-82282607D01*
X184153239Y-82283567D01*
X184004282Y-82310245D01*
X184001087Y-82310731D01*
X183857483Y-82328790D01*
X183853407Y-82329167D01*
X183702319Y-82338104D01*
X183698658Y-82338212D01*
X183553945Y-82338212D01*
X183550284Y-82338104D01*
X183399195Y-82329167D01*
X183395119Y-82328790D01*
X183251515Y-82310731D01*
X183248320Y-82310245D01*
X183099363Y-82283567D01*
X183094941Y-82282607D01*
X182954672Y-82246760D01*
X182951974Y-82246005D01*
X182807226Y-82201961D01*
X182802546Y-82200331D01*
X182666658Y-82146795D01*
X182527126Y-82085564D01*
X182522292Y-82083187D01*
X182394170Y-82013129D01*
X182263123Y-81936051D01*
X182258264Y-81932877D01*
X182210303Y-81898238D01*
X182139858Y-81847359D01*
X182019157Y-81755635D01*
X182014379Y-81751608D01*
X181907404Y-81651832D01*
X181798813Y-81546961D01*
X181794264Y-81542068D01*
X181700027Y-81429065D01*
X181637345Y-81352290D01*
X181605331Y-81313077D01*
X181601166Y-81307333D01*
X181560845Y-81244427D01*
X181519070Y-81179252D01*
X181442748Y-81059264D01*
X181440875Y-81056118D01*
X181417447Y-81013985D01*
X181417324Y-81013803D01*
X181379109Y-80945104D01*
X181379101Y-80945093D01*
X181225944Y-80737712D01*
X181047435Y-80551703D01*
X180946982Y-80470923D01*
X180846531Y-80390144D01*
X180846531Y-80390143D01*
X180626558Y-80255708D01*
X180391135Y-80150612D01*
X180144179Y-80076603D01*
X180080575Y-80066177D01*
X179889772Y-80034901D01*
X179889752Y-80034899D01*
X179632108Y-80026196D01*
X179632107Y-80026196D01*
X179503738Y-80038390D01*
X179503240Y-80038438D01*
X178916823Y-80094271D01*
X178174958Y-80185243D01*
X178172092Y-80185559D01*
X178171930Y-80185615D01*
X177746369Y-80237801D01*
X176580235Y-80413002D01*
X175419278Y-80619744D01*
X174264349Y-80857876D01*
X173589970Y-81016092D01*
X173520206Y-81012240D01*
X173463600Y-80971283D01*
X173438123Y-80906224D01*
X173451864Y-80837719D01*
X173473963Y-80807692D01*
X174363892Y-79917763D01*
X181815787Y-79917763D01*
X181845413Y-80187013D01*
X181845415Y-80187024D01*
X181913926Y-80449082D01*
X181913928Y-80449088D01*
X182019870Y-80698390D01*
X182107505Y-80841985D01*
X182160979Y-80929605D01*
X182160986Y-80929615D01*
X182334253Y-81137819D01*
X182334259Y-81137824D01*
X182440891Y-81233366D01*
X182535998Y-81318582D01*
X182761910Y-81468044D01*
X183007176Y-81583020D01*
X183007183Y-81583022D01*
X183007185Y-81583023D01*
X183266557Y-81661057D01*
X183266564Y-81661058D01*
X183266569Y-81661060D01*
X183534561Y-81700500D01*
X183534566Y-81700500D01*
X183737636Y-81700500D01*
X183789133Y-81696730D01*
X183940156Y-81685677D01*
X184052758Y-81660593D01*
X184204546Y-81626782D01*
X184204548Y-81626781D01*
X184204553Y-81626780D01*
X184457558Y-81530014D01*
X184693777Y-81397441D01*
X184908177Y-81231888D01*
X185096186Y-81036881D01*
X185253799Y-80816579D01*
X185354999Y-80619744D01*
X185377649Y-80575690D01*
X185377651Y-80575684D01*
X185377656Y-80575675D01*
X185465118Y-80319305D01*
X185514319Y-80052933D01*
X185524212Y-79782235D01*
X185494586Y-79512982D01*
X185426072Y-79250912D01*
X185320130Y-79001610D01*
X185179018Y-78770390D01*
X185177845Y-78768981D01*
X185005746Y-78562180D01*
X185005740Y-78562175D01*
X184804002Y-78381418D01*
X184578092Y-78231957D01*
X184576910Y-78231403D01*
X184332824Y-78116980D01*
X184332819Y-78116978D01*
X184332814Y-78116976D01*
X184073442Y-78038942D01*
X184073428Y-78038939D01*
X183957791Y-78021921D01*
X183805439Y-77999500D01*
X183602369Y-77999500D01*
X183602364Y-77999500D01*
X183399844Y-78014323D01*
X183399831Y-78014325D01*
X183135453Y-78073217D01*
X183135446Y-78073220D01*
X182882439Y-78169987D01*
X182646226Y-78302557D01*
X182646224Y-78302558D01*
X182646223Y-78302559D01*
X182630149Y-78314971D01*
X182431822Y-78468112D01*
X182243822Y-78663109D01*
X182243816Y-78663116D01*
X182086202Y-78883419D01*
X182086199Y-78883424D01*
X181962350Y-79124309D01*
X181962343Y-79124327D01*
X181874884Y-79380685D01*
X181874881Y-79380699D01*
X181825681Y-79647068D01*
X181825680Y-79647075D01*
X181815787Y-79917763D01*
X174363892Y-79917763D01*
X176113837Y-78167819D01*
X176175160Y-78134334D01*
X176201518Y-78131500D01*
X176361974Y-78131500D01*
X176361976Y-78131500D01*
X176562456Y-78094024D01*
X176752637Y-78020348D01*
X176926041Y-77912981D01*
X177054122Y-77796219D01*
X177076762Y-77775581D01*
X177103878Y-77739674D01*
X177199673Y-77612821D01*
X177290582Y-77430250D01*
X177346397Y-77234083D01*
X177365215Y-77031000D01*
X177352642Y-76895318D01*
X177346397Y-76827917D01*
X177328184Y-76763907D01*
X177290582Y-76631750D01*
X177287941Y-76626447D01*
X177215020Y-76480000D01*
X177199673Y-76449179D01*
X177076764Y-76286421D01*
X177076452Y-76286136D01*
X177076346Y-76285962D01*
X177072901Y-76282183D01*
X177073640Y-76281508D01*
X177040172Y-76226427D01*
X177041932Y-76156579D01*
X177081175Y-76098771D01*
X177145441Y-76071357D01*
X177159991Y-76070500D01*
X177575298Y-76070500D01*
X177642337Y-76090185D01*
X177662979Y-76106819D01*
X177670337Y-76114177D01*
X177674417Y-76118679D01*
X177705382Y-76156410D01*
X177709685Y-76160713D01*
X177708549Y-76161848D01*
X177743499Y-76213157D01*
X177749500Y-76251264D01*
X177749500Y-76684457D01*
X177744766Y-76718391D01*
X177713603Y-76827915D01*
X177713602Y-76827917D01*
X177694785Y-77030999D01*
X177694785Y-77031000D01*
X177713602Y-77234082D01*
X177769417Y-77430247D01*
X177769422Y-77430260D01*
X177860327Y-77612821D01*
X177983237Y-77775581D01*
X178133958Y-77912980D01*
X178133960Y-77912982D01*
X178224995Y-77969348D01*
X178307363Y-78020348D01*
X178497544Y-78094024D01*
X178698024Y-78131500D01*
X178698026Y-78131500D01*
X178901974Y-78131500D01*
X178901976Y-78131500D01*
X179102456Y-78094024D01*
X179113169Y-78089873D01*
X179157962Y-78081500D01*
X179734343Y-78081500D01*
X179740424Y-78081799D01*
X179754580Y-78083192D01*
X179789000Y-78086583D01*
X179994934Y-78066300D01*
X180192955Y-78006232D01*
X180375450Y-77908685D01*
X180413703Y-77877291D01*
X180436809Y-77858330D01*
X180535411Y-77777409D01*
X180566378Y-77739674D01*
X180570458Y-77735171D01*
X181224171Y-77081458D01*
X181228674Y-77077378D01*
X181266409Y-77046411D01*
X181279054Y-77031003D01*
X181397685Y-76886450D01*
X181436256Y-76814289D01*
X181495232Y-76703955D01*
X181555300Y-76505934D01*
X181575583Y-76300000D01*
X181570799Y-76251424D01*
X181570500Y-76245343D01*
X181570500Y-75464655D01*
X181570799Y-75458574D01*
X181572070Y-75445668D01*
X181575583Y-75410000D01*
X181570799Y-75361424D01*
X181570500Y-75355343D01*
X181570500Y-74014655D01*
X181570799Y-74008574D01*
X181573564Y-73980495D01*
X181575583Y-73960000D01*
X181555300Y-73754066D01*
X181495232Y-73556045D01*
X181397685Y-73373550D01*
X181381603Y-73353954D01*
X181266410Y-73213589D01*
X181228674Y-73182621D01*
X181224172Y-73178541D01*
X179971456Y-71925825D01*
X179967378Y-71921325D01*
X179936408Y-71883588D01*
X179776450Y-71752315D01*
X179767549Y-71747557D01*
X179713857Y-71718858D01*
X179664013Y-71669895D01*
X179648553Y-71601757D01*
X179672385Y-71536078D01*
X179727943Y-71493709D01*
X179772311Y-71485500D01*
X184833481Y-71485500D01*
X184900520Y-71505185D01*
X184921162Y-71521819D01*
X189075441Y-75676098D01*
X189108926Y-75737421D01*
X189103942Y-75807113D01*
X189062070Y-75863046D01*
X188996606Y-75887463D01*
X188964978Y-75885668D01*
X188931980Y-75879500D01*
X188931976Y-75879500D01*
X188728024Y-75879500D01*
X188527544Y-75916976D01*
X188527541Y-75916976D01*
X188527541Y-75916977D01*
X188337364Y-75990651D01*
X188337357Y-75990655D01*
X188163960Y-76098017D01*
X188163958Y-76098019D01*
X188013237Y-76235418D01*
X187890327Y-76398178D01*
X187799422Y-76580739D01*
X187799417Y-76580752D01*
X187743602Y-76776917D01*
X187724785Y-76979999D01*
X187724785Y-76980000D01*
X187743602Y-77183082D01*
X187799417Y-77379247D01*
X187799422Y-77379260D01*
X187890327Y-77561821D01*
X188013237Y-77724581D01*
X188163958Y-77861980D01*
X188163960Y-77861982D01*
X188239282Y-77908619D01*
X188337363Y-77969348D01*
X188527544Y-78043024D01*
X188728024Y-78080500D01*
X188728026Y-78080500D01*
X188931974Y-78080500D01*
X188931976Y-78080500D01*
X189132456Y-78043024D01*
X189322637Y-77969348D01*
X189496041Y-77861981D01*
X189643538Y-77727520D01*
X189646762Y-77724581D01*
X189646764Y-77724579D01*
X189769673Y-77561821D01*
X189860582Y-77379250D01*
X189916397Y-77183083D01*
X189935215Y-76980000D01*
X189935214Y-76979994D01*
X189927368Y-76895318D01*
X189921545Y-76832475D01*
X189934960Y-76763907D01*
X189983317Y-76713475D01*
X190051263Y-76697192D01*
X190117226Y-76720229D01*
X190132697Y-76733354D01*
X190233338Y-76833995D01*
X190266823Y-76895318D01*
X190269128Y-76933114D01*
X190264785Y-76979995D01*
X190264785Y-76980000D01*
X190283602Y-77183082D01*
X190339417Y-77379247D01*
X190339422Y-77379260D01*
X190430327Y-77561821D01*
X190553237Y-77724581D01*
X190703958Y-77861980D01*
X190703960Y-77861982D01*
X190779282Y-77908619D01*
X190877363Y-77969348D01*
X191067544Y-78043024D01*
X191268024Y-78080500D01*
X191268026Y-78080500D01*
X191471974Y-78080500D01*
X191471976Y-78080500D01*
X191672456Y-78043024D01*
X191862637Y-77969348D01*
X192036041Y-77861981D01*
X192183538Y-77727520D01*
X192186762Y-77724581D01*
X192186764Y-77724579D01*
X192309673Y-77561821D01*
X192361665Y-77457406D01*
X192365292Y-77450123D01*
X192412794Y-77398886D01*
X192480457Y-77381464D01*
X192546798Y-77403389D01*
X192589848Y-77455584D01*
X192674516Y-77648609D01*
X192758811Y-77777633D01*
X193426922Y-77109523D01*
X193450507Y-77189844D01*
X193528239Y-77310798D01*
X193636900Y-77404952D01*
X193767685Y-77464680D01*
X193777466Y-77466086D01*
X193111199Y-78132351D01*
X193141650Y-78156050D01*
X193345697Y-78266476D01*
X193345706Y-78266479D01*
X193565139Y-78341811D01*
X193793993Y-78380000D01*
X194026007Y-78380000D01*
X194254860Y-78341811D01*
X194474293Y-78266479D01*
X194474302Y-78266476D01*
X194678350Y-78156050D01*
X194708798Y-78132351D01*
X194042533Y-77466086D01*
X194052315Y-77464680D01*
X194183100Y-77404952D01*
X194291761Y-77310798D01*
X194369493Y-77189844D01*
X194393076Y-77109524D01*
X195061186Y-77777634D01*
X195145484Y-77648606D01*
X195238682Y-77436135D01*
X195295638Y-77211218D01*
X195314798Y-76980005D01*
X195314798Y-76979994D01*
X195295638Y-76748781D01*
X195238682Y-76523864D01*
X195145483Y-76311390D01*
X195061186Y-76182364D01*
X194393076Y-76850475D01*
X194369493Y-76770156D01*
X194291761Y-76649202D01*
X194183100Y-76555048D01*
X194052315Y-76495320D01*
X194042534Y-76493913D01*
X194708799Y-75827648D01*
X194708799Y-75827647D01*
X194678349Y-75803949D01*
X194474302Y-75693523D01*
X194474293Y-75693520D01*
X194254860Y-75618188D01*
X194026007Y-75580000D01*
X193793993Y-75580000D01*
X193565139Y-75618188D01*
X193345706Y-75693520D01*
X193345698Y-75693523D01*
X193141644Y-75803952D01*
X193111200Y-75827646D01*
X193111200Y-75827647D01*
X193777466Y-76493913D01*
X193767685Y-76495320D01*
X193636900Y-76555048D01*
X193528239Y-76649202D01*
X193450507Y-76770156D01*
X193426923Y-76850475D01*
X192758812Y-76182365D01*
X192674516Y-76311391D01*
X192674514Y-76311395D01*
X192589848Y-76504415D01*
X192544892Y-76557901D01*
X192478156Y-76578591D01*
X192410828Y-76559916D01*
X192365292Y-76509877D01*
X192335067Y-76449178D01*
X192309673Y-76398179D01*
X192186764Y-76235421D01*
X192186762Y-76235418D01*
X192036041Y-76098019D01*
X192036039Y-76098017D01*
X191862642Y-75990655D01*
X191862635Y-75990651D01*
X191748992Y-75946626D01*
X191672456Y-75916976D01*
X191471976Y-75879500D01*
X191311519Y-75879500D01*
X191244480Y-75859815D01*
X191223838Y-75843181D01*
X188559189Y-73178532D01*
X185686598Y-70305941D01*
X185684064Y-70303250D01*
X185642929Y-70256817D01*
X185642928Y-70256816D01*
X185642924Y-70256812D01*
X185591896Y-70221591D01*
X185588887Y-70219377D01*
X185571264Y-70205571D01*
X185544510Y-70184610D01*
X185503878Y-70127770D01*
X185500426Y-70057986D01*
X185535251Y-69997413D01*
X185597295Y-69965284D01*
X185620984Y-69963000D01*
X189498949Y-69963000D01*
X189565988Y-69982685D01*
X189586630Y-69999319D01*
X200618181Y-81030870D01*
X200620717Y-81033564D01*
X200661853Y-81079997D01*
X200711145Y-81114021D01*
X200712888Y-81115224D01*
X200715904Y-81117444D01*
X200738264Y-81134961D01*
X200764725Y-81155692D01*
X200767525Y-81156952D01*
X200773964Y-81159850D01*
X200793515Y-81170877D01*
X200801852Y-81176632D01*
X200859847Y-81198626D01*
X200863256Y-81200037D01*
X200910569Y-81221331D01*
X200919846Y-81225507D01*
X200919847Y-81225507D01*
X200919851Y-81225509D01*
X200929816Y-81227335D01*
X200951438Y-81233362D01*
X200951449Y-81233366D01*
X200960910Y-81236954D01*
X201006033Y-81242432D01*
X201022456Y-81244427D01*
X201026153Y-81244989D01*
X201087176Y-81256172D01*
X201142534Y-81252823D01*
X201149085Y-81252427D01*
X201152830Y-81252314D01*
X201883946Y-81252314D01*
X201887691Y-81252427D01*
X201895036Y-81252871D01*
X201949600Y-81256172D01*
X201987308Y-81249261D01*
X202010615Y-81244991D01*
X202014319Y-81244427D01*
X202032164Y-81242260D01*
X202075866Y-81236954D01*
X202085329Y-81233364D01*
X202106955Y-81227336D01*
X202107887Y-81227165D01*
X202116926Y-81225509D01*
X202173506Y-81200043D01*
X202176936Y-81198623D01*
X202234924Y-81176632D01*
X202243260Y-81170876D01*
X202262815Y-81159848D01*
X202272051Y-81155692D01*
X202320890Y-81117427D01*
X202323870Y-81115235D01*
X202374923Y-81079997D01*
X202416059Y-81033562D01*
X202418593Y-81030870D01*
X205444590Y-78004873D01*
X205447282Y-78002339D01*
X205493717Y-77961203D01*
X205528951Y-77910157D01*
X205531154Y-77907161D01*
X205569412Y-77858330D01*
X205573571Y-77849087D01*
X205584595Y-77829542D01*
X205590352Y-77821204D01*
X205612344Y-77763213D01*
X205613766Y-77759777D01*
X205639229Y-77703205D01*
X205641056Y-77693233D01*
X205647080Y-77671621D01*
X205650674Y-77662146D01*
X205658147Y-77600598D01*
X205658711Y-77596893D01*
X205665138Y-77561819D01*
X205669892Y-77535880D01*
X205666147Y-77473970D01*
X205666034Y-77470225D01*
X205666034Y-76128126D01*
X205685719Y-76061087D01*
X205711370Y-76032272D01*
X205718609Y-76026331D01*
X205800332Y-75959264D01*
X205931607Y-75799304D01*
X206029154Y-75616809D01*
X206089222Y-75418788D01*
X206109505Y-75212854D01*
X206089222Y-75006920D01*
X206029154Y-74808899D01*
X205931607Y-74626404D01*
X205833230Y-74506531D01*
X205833229Y-74506530D01*
X205833225Y-74506525D01*
X205583474Y-74256774D01*
X205463599Y-74158395D01*
X205463597Y-74158394D01*
X205463596Y-74158393D01*
X205391250Y-74119722D01*
X205281104Y-74060847D01*
X205281101Y-74060846D01*
X205083080Y-74000778D01*
X205083077Y-74000777D01*
X205083079Y-74000777D01*
X204877146Y-73980495D01*
X204671214Y-74000777D01*
X204473187Y-74060847D01*
X204337840Y-74133193D01*
X204290696Y-74158393D01*
X204290694Y-74158394D01*
X204290693Y-74158395D01*
X204130735Y-74289667D01*
X203999463Y-74449625D01*
X203901915Y-74632119D01*
X203841845Y-74830146D01*
X203821563Y-75036078D01*
X203841845Y-75242009D01*
X203841846Y-75242012D01*
X203901914Y-75440033D01*
X203901915Y-75440036D01*
X203901916Y-75440037D01*
X203904248Y-75445668D01*
X203902212Y-75446511D01*
X203914423Y-75505232D01*
X203889405Y-75570469D01*
X203833090Y-75611825D01*
X203763355Y-75616169D01*
X203728825Y-75602637D01*
X203682097Y-75575658D01*
X203682090Y-75575655D01*
X203460119Y-75494863D01*
X203227490Y-75453845D01*
X202991267Y-75453845D01*
X202758639Y-75494863D01*
X202536667Y-75575655D01*
X202536660Y-75575658D01*
X202332090Y-75693766D01*
X202151137Y-75845603D01*
X201999490Y-76026331D01*
X201941318Y-76065034D01*
X201871457Y-76066142D01*
X201812087Y-76029306D01*
X201782058Y-75966218D01*
X201780500Y-75946626D01*
X201780500Y-71672628D01*
X201800185Y-71605589D01*
X201830866Y-71572857D01*
X201852150Y-71557150D01*
X201932793Y-71447882D01*
X201957352Y-71377697D01*
X201977646Y-71319701D01*
X201977646Y-71319699D01*
X201980500Y-71289269D01*
X201980500Y-70773934D01*
X208229817Y-70773934D01*
X208250058Y-70908220D01*
X208250058Y-70908223D01*
X208308978Y-71030572D01*
X208308981Y-71030577D01*
X208321550Y-71045747D01*
X208328482Y-71054114D01*
X208328491Y-71054123D01*
X208328499Y-71054132D01*
X209465867Y-72191500D01*
X209465876Y-72191508D01*
X209465886Y-72191518D01*
X209477391Y-72201050D01*
X209489422Y-72211018D01*
X209489427Y-72211021D01*
X209604162Y-72266274D01*
X209611779Y-72269942D01*
X209746066Y-72290183D01*
X209880353Y-72269942D01*
X210002708Y-72211019D01*
X210026246Y-72191518D01*
X210951518Y-71266246D01*
X210971019Y-71242708D01*
X210976182Y-71231988D01*
X211025600Y-71129369D01*
X211029942Y-71120353D01*
X211050183Y-70986066D01*
X211029942Y-70851779D01*
X210997778Y-70784989D01*
X210971021Y-70729427D01*
X210971018Y-70729422D01*
X210961050Y-70717391D01*
X210951518Y-70705886D01*
X210951508Y-70705876D01*
X210951500Y-70705867D01*
X209814132Y-69568499D01*
X209814123Y-69568491D01*
X209814114Y-69568482D01*
X209799846Y-69556661D01*
X209790577Y-69548981D01*
X209790572Y-69548978D01*
X209668222Y-69490058D01*
X209533934Y-69469817D01*
X209399647Y-69490058D01*
X209399644Y-69490058D01*
X209277295Y-69548978D01*
X209277290Y-69548981D01*
X209253762Y-69568475D01*
X209253735Y-69568499D01*
X208328499Y-70493735D01*
X208328475Y-70493762D01*
X208308981Y-70517290D01*
X208308978Y-70517295D01*
X208250058Y-70639644D01*
X208250058Y-70639647D01*
X208229817Y-70773934D01*
X201980500Y-70773934D01*
X201980500Y-70655730D01*
X201977646Y-70625300D01*
X201977646Y-70625298D01*
X201932793Y-70497119D01*
X201932792Y-70497117D01*
X201852150Y-70387850D01*
X201742882Y-70307207D01*
X201742880Y-70307206D01*
X201614700Y-70262353D01*
X201584270Y-70259500D01*
X201584266Y-70259500D01*
X200575734Y-70259500D01*
X200575730Y-70259500D01*
X200545300Y-70262353D01*
X200545298Y-70262353D01*
X200417119Y-70307206D01*
X200417117Y-70307207D01*
X200307850Y-70387850D01*
X200227208Y-70497116D01*
X200216816Y-70526814D01*
X200176093Y-70583589D01*
X200111140Y-70609335D01*
X200042578Y-70595878D01*
X199992176Y-70547489D01*
X199982069Y-70524861D01*
X199934358Y-70380880D01*
X199934356Y-70380875D01*
X199842315Y-70231654D01*
X199718345Y-70107684D01*
X199569124Y-70015643D01*
X199569121Y-70015642D01*
X199524026Y-70000699D01*
X199466582Y-69960926D01*
X199439759Y-69896410D01*
X199452074Y-69827634D01*
X199489394Y-69783225D01*
X199572150Y-69722150D01*
X199652793Y-69612882D01*
X199682331Y-69528468D01*
X199697646Y-69484701D01*
X199697646Y-69484699D01*
X199699562Y-69464269D01*
X200179500Y-69464269D01*
X200182353Y-69494699D01*
X200182353Y-69494701D01*
X200225189Y-69617116D01*
X200227207Y-69622882D01*
X200307850Y-69732150D01*
X200417118Y-69812793D01*
X200418696Y-69813345D01*
X200545299Y-69857646D01*
X200575730Y-69860500D01*
X200575734Y-69860500D01*
X201584270Y-69860500D01*
X201614699Y-69857646D01*
X201614701Y-69857646D01*
X201691406Y-69830805D01*
X201742882Y-69812793D01*
X201852150Y-69732150D01*
X201932793Y-69622882D01*
X201958653Y-69548978D01*
X201977646Y-69494701D01*
X201977646Y-69494699D01*
X201980500Y-69464269D01*
X201980500Y-69006167D01*
X210246118Y-69006167D01*
X210266400Y-69212098D01*
X210326470Y-69410125D01*
X210355461Y-69464362D01*
X210419135Y-69583486D01*
X210424018Y-69592620D01*
X210522397Y-69712495D01*
X210807504Y-69997602D01*
X210926567Y-70095315D01*
X210927383Y-70095984D01*
X211109878Y-70193531D01*
X211307899Y-70253599D01*
X211513833Y-70273882D01*
X211719767Y-70253599D01*
X211917788Y-70193531D01*
X212100283Y-70095984D01*
X212260243Y-69964709D01*
X212391518Y-69804749D01*
X212489065Y-69622254D01*
X212549133Y-69424233D01*
X212569416Y-69218299D01*
X212549133Y-69012365D01*
X212489065Y-68814344D01*
X212481523Y-68800235D01*
X212458477Y-68757119D01*
X212391518Y-68631849D01*
X212377082Y-68614259D01*
X212293136Y-68511970D01*
X212008029Y-68226863D01*
X211888154Y-68128484D01*
X211888152Y-68128483D01*
X211888151Y-68128482D01*
X211771259Y-68066001D01*
X211705659Y-68030936D01*
X211676695Y-68022150D01*
X211507635Y-67970867D01*
X211507632Y-67970866D01*
X211507634Y-67970866D01*
X211301701Y-67950584D01*
X211095769Y-67970866D01*
X210897742Y-68030936D01*
X210763313Y-68102792D01*
X210715251Y-68128482D01*
X210715249Y-68128483D01*
X210715248Y-68128484D01*
X210555290Y-68259756D01*
X210424018Y-68419714D01*
X210424016Y-68419717D01*
X210414579Y-68437372D01*
X210326470Y-68602208D01*
X210266400Y-68800235D01*
X210246118Y-69006167D01*
X201980500Y-69006167D01*
X201980500Y-68830730D01*
X201977646Y-68800300D01*
X201977646Y-68800298D01*
X201942231Y-68699091D01*
X201932793Y-68672118D01*
X201852150Y-68562850D01*
X201830865Y-68547141D01*
X201788615Y-68491494D01*
X201780500Y-68447372D01*
X201780500Y-65206518D01*
X201800185Y-65139479D01*
X201816819Y-65118837D01*
X206383837Y-60551819D01*
X206445160Y-60518334D01*
X206471518Y-60515500D01*
X207249750Y-60515500D01*
X207249751Y-60515499D01*
X207264568Y-60512552D01*
X207308229Y-60503868D01*
X207308229Y-60503867D01*
X207308231Y-60503867D01*
X207374552Y-60459552D01*
X207418867Y-60393231D01*
X207418867Y-60393229D01*
X207418868Y-60393229D01*
X207428211Y-60346254D01*
X207430500Y-60334748D01*
X207430500Y-58695252D01*
X207430500Y-58695249D01*
X207430499Y-58695247D01*
X207418868Y-58636770D01*
X207418867Y-58636769D01*
X207374552Y-58570447D01*
X207308230Y-58526132D01*
X207308229Y-58526131D01*
X207249752Y-58514500D01*
X207249748Y-58514500D01*
X206589332Y-58514500D01*
X206522293Y-58494815D01*
X206476538Y-58442011D01*
X206466594Y-58372853D01*
X206495619Y-58309297D01*
X206554397Y-58271523D01*
X206578525Y-58266972D01*
X206656599Y-58260141D01*
X206656610Y-58260139D01*
X206876317Y-58201269D01*
X206876326Y-58201265D01*
X207082482Y-58105134D01*
X207268820Y-57974657D01*
X207429657Y-57813820D01*
X207560134Y-57627482D01*
X207656265Y-57421326D01*
X207656269Y-57421317D01*
X207708872Y-57225000D01*
X206745686Y-57225000D01*
X206757641Y-57213045D01*
X206815165Y-57100148D01*
X206834986Y-56975000D01*
X206815165Y-56849852D01*
X206757641Y-56736955D01*
X206745686Y-56725000D01*
X207708872Y-56725000D01*
X207708872Y-56724999D01*
X207656269Y-56528682D01*
X207656265Y-56528673D01*
X207560134Y-56322517D01*
X207429657Y-56136179D01*
X207377747Y-56084269D01*
X214839500Y-56084269D01*
X214842353Y-56114699D01*
X214842353Y-56114701D01*
X214887206Y-56242880D01*
X214887207Y-56242882D01*
X214967850Y-56352150D01*
X215077118Y-56432793D01*
X215103856Y-56442149D01*
X215205299Y-56477646D01*
X215235730Y-56480500D01*
X215235734Y-56480500D01*
X216544270Y-56480500D01*
X216574699Y-56477646D01*
X216574701Y-56477646D01*
X216646965Y-56452359D01*
X216702882Y-56432793D01*
X216812150Y-56352150D01*
X216892793Y-56242882D01*
X216916803Y-56174266D01*
X216937646Y-56114701D01*
X216937646Y-56114699D01*
X216940500Y-56084269D01*
X216940500Y-56075236D01*
X216960185Y-56008197D01*
X217012989Y-55962442D01*
X217082147Y-55952498D01*
X217145703Y-55981523D01*
X217176882Y-56022832D01*
X217216397Y-56107573D01*
X217216399Y-56107577D01*
X217351886Y-56301073D01*
X217351891Y-56301079D01*
X217518917Y-56468105D01*
X217712421Y-56603600D01*
X217926507Y-56703429D01*
X217926516Y-56703433D01*
X218140000Y-56760634D01*
X218140000Y-55715501D01*
X218247685Y-55764680D01*
X218354237Y-55780000D01*
X218425763Y-55780000D01*
X218532315Y-55764680D01*
X218640000Y-55715501D01*
X218640000Y-56760633D01*
X218853483Y-56703433D01*
X218853492Y-56703429D01*
X219067577Y-56603600D01*
X219067579Y-56603599D01*
X219261073Y-56468113D01*
X219261079Y-56468108D01*
X219428108Y-56301079D01*
X219428113Y-56301073D01*
X219563601Y-56107577D01*
X219663429Y-55893492D01*
X219663433Y-55893483D01*
X219724567Y-55665326D01*
X219724569Y-55665315D01*
X219736407Y-55530000D01*
X218823686Y-55530000D01*
X218849493Y-55489844D01*
X218890000Y-55351889D01*
X218890000Y-55208111D01*
X218849493Y-55070156D01*
X218823686Y-55030000D01*
X219736407Y-55030000D01*
X219736407Y-55029999D01*
X219724569Y-54894684D01*
X219724567Y-54894673D01*
X219663433Y-54666516D01*
X219663429Y-54666507D01*
X219563600Y-54452422D01*
X219563599Y-54452420D01*
X219428113Y-54258926D01*
X219428108Y-54258920D01*
X219261082Y-54091894D01*
X219067578Y-53956399D01*
X218853492Y-53856570D01*
X218853486Y-53856567D01*
X218640000Y-53799364D01*
X218640000Y-54844498D01*
X218532315Y-54795320D01*
X218425763Y-54780000D01*
X218354237Y-54780000D01*
X218247685Y-54795320D01*
X218140000Y-54844498D01*
X218140000Y-53799364D01*
X218139999Y-53799364D01*
X217926513Y-53856567D01*
X217926507Y-53856570D01*
X217712422Y-53956399D01*
X217712420Y-53956400D01*
X217518926Y-54091886D01*
X217518920Y-54091891D01*
X217351891Y-54258920D01*
X217351886Y-54258926D01*
X217216400Y-54452420D01*
X217216399Y-54452422D01*
X217176882Y-54537168D01*
X217130710Y-54589607D01*
X217063516Y-54608759D01*
X216996635Y-54588543D01*
X216951300Y-54535378D01*
X216940500Y-54484763D01*
X216940500Y-54475730D01*
X216937646Y-54445300D01*
X216937646Y-54445298D01*
X216892793Y-54317119D01*
X216892792Y-54317117D01*
X216887285Y-54309655D01*
X216812150Y-54207850D01*
X216702882Y-54127207D01*
X216702880Y-54127206D01*
X216574700Y-54082353D01*
X216544270Y-54079500D01*
X216544266Y-54079500D01*
X215235734Y-54079500D01*
X215235730Y-54079500D01*
X215205300Y-54082353D01*
X215205298Y-54082353D01*
X215077119Y-54127206D01*
X215077117Y-54127207D01*
X214967850Y-54207850D01*
X214887207Y-54317117D01*
X214887206Y-54317119D01*
X214842353Y-54445298D01*
X214842353Y-54445300D01*
X214839500Y-54475730D01*
X214839500Y-56084269D01*
X207377747Y-56084269D01*
X207268820Y-55975342D01*
X207082482Y-55844865D01*
X206876328Y-55748734D01*
X206680000Y-55696127D01*
X206680000Y-56659314D01*
X206668045Y-56647359D01*
X206555148Y-56589835D01*
X206461481Y-56575000D01*
X206398519Y-56575000D01*
X206304852Y-56589835D01*
X206191955Y-56647359D01*
X206180000Y-56659314D01*
X206180000Y-55696127D01*
X205983671Y-55748734D01*
X205777517Y-55844865D01*
X205591179Y-55975342D01*
X205430342Y-56136179D01*
X205299865Y-56322517D01*
X205203734Y-56528673D01*
X205203730Y-56528682D01*
X205151127Y-56724999D01*
X205151128Y-56725000D01*
X206114314Y-56725000D01*
X206102359Y-56736955D01*
X206044835Y-56849852D01*
X206025014Y-56975000D01*
X206044835Y-57100148D01*
X206102359Y-57213045D01*
X206114314Y-57225000D01*
X205151128Y-57225000D01*
X205203730Y-57421317D01*
X205203734Y-57421326D01*
X205299865Y-57627482D01*
X205430342Y-57813820D01*
X205591179Y-57974657D01*
X205777517Y-58105134D01*
X205983673Y-58201265D01*
X205983682Y-58201269D01*
X206203389Y-58260139D01*
X206203400Y-58260141D01*
X206281475Y-58266972D01*
X206346544Y-58292424D01*
X206387523Y-58349015D01*
X206391401Y-58418777D01*
X206356947Y-58479561D01*
X206295100Y-58512069D01*
X206270668Y-58514500D01*
X205610247Y-58514500D01*
X205551770Y-58526131D01*
X205551769Y-58526132D01*
X205485447Y-58570447D01*
X205441132Y-58636769D01*
X205441131Y-58636770D01*
X205429500Y-58695247D01*
X205429500Y-59473480D01*
X205409815Y-59540519D01*
X205393181Y-59561161D01*
X200600966Y-64353375D01*
X200598240Y-64355942D01*
X200551818Y-64397068D01*
X200516586Y-64448109D01*
X200514368Y-64451124D01*
X200476124Y-64499939D01*
X200476119Y-64499948D01*
X200471960Y-64509188D01*
X200460942Y-64528723D01*
X200455187Y-64537061D01*
X200455183Y-64537067D01*
X200455182Y-64537070D01*
X200455180Y-64537074D01*
X200455179Y-64537077D01*
X200433189Y-64595055D01*
X200431757Y-64598513D01*
X200406305Y-64655068D01*
X200404477Y-64665042D01*
X200398453Y-64686653D01*
X200394860Y-64696127D01*
X200394859Y-64696128D01*
X200387384Y-64757685D01*
X200386821Y-64761386D01*
X200375642Y-64822390D01*
X200375642Y-64822395D01*
X200379387Y-64884302D01*
X200379500Y-64888047D01*
X200379500Y-68447372D01*
X200359815Y-68514411D01*
X200329134Y-68547142D01*
X200307850Y-68562850D01*
X200227207Y-68672117D01*
X200227206Y-68672119D01*
X200182353Y-68800298D01*
X200182353Y-68800300D01*
X200179500Y-68830730D01*
X200179500Y-69464269D01*
X199699562Y-69464269D01*
X199700500Y-69454269D01*
X199700500Y-68820730D01*
X199697646Y-68790300D01*
X199697646Y-68790298D01*
X199656292Y-68672117D01*
X199652793Y-68662118D01*
X199572150Y-68552850D01*
X199550865Y-68537141D01*
X199508615Y-68481494D01*
X199500500Y-68437372D01*
X199500500Y-61987838D01*
X199520185Y-61920799D01*
X199536814Y-61900162D01*
X200789048Y-60647927D01*
X200791740Y-60645393D01*
X200838183Y-60604250D01*
X200873423Y-60553193D01*
X200875630Y-60550194D01*
X200913877Y-60501378D01*
X200918029Y-60492149D01*
X200929062Y-60472589D01*
X200929419Y-60472071D01*
X200934818Y-60464251D01*
X200956812Y-60406254D01*
X200958231Y-60402826D01*
X200983694Y-60346253D01*
X200985520Y-60336286D01*
X200991548Y-60314661D01*
X200995140Y-60305193D01*
X201002615Y-60243630D01*
X201003179Y-60239926D01*
X201010819Y-60198231D01*
X201014357Y-60178927D01*
X201011987Y-60139752D01*
X201010613Y-60117028D01*
X201010500Y-60113284D01*
X201010500Y-58498035D01*
X201010613Y-58494290D01*
X201014357Y-58432394D01*
X201003177Y-58371386D01*
X201002615Y-58367689D01*
X200995140Y-58306129D01*
X200995139Y-58306125D01*
X200991546Y-58296651D01*
X200985519Y-58275029D01*
X200983694Y-58265070D01*
X200983694Y-58265068D01*
X200981476Y-58260141D01*
X200958243Y-58208520D01*
X200956809Y-58205057D01*
X200946492Y-58177853D01*
X200934818Y-58147070D01*
X200929059Y-58138727D01*
X200918030Y-58119172D01*
X200913877Y-58109943D01*
X200913874Y-58109938D01*
X200875633Y-58061127D01*
X200873413Y-58058110D01*
X200859829Y-58038431D01*
X200838183Y-58007071D01*
X200791750Y-57965935D01*
X200789056Y-57963399D01*
X199848318Y-57022661D01*
X199814833Y-56961338D01*
X199812596Y-56947134D01*
X199811860Y-56939664D01*
X199796024Y-56778868D01*
X199738814Y-56590273D01*
X199738811Y-56590269D01*
X199738811Y-56590266D01*
X199645913Y-56416467D01*
X199645909Y-56416460D01*
X199520883Y-56264116D01*
X199368539Y-56139090D01*
X199368532Y-56139086D01*
X199194733Y-56046188D01*
X199194727Y-56046186D01*
X199006132Y-55988976D01*
X199006129Y-55988975D01*
X198810000Y-55969659D01*
X198613870Y-55988975D01*
X198425266Y-56046188D01*
X198251467Y-56139086D01*
X198251460Y-56139090D01*
X198099116Y-56264116D01*
X197974090Y-56416460D01*
X197974086Y-56416467D01*
X197881188Y-56590266D01*
X197823975Y-56778870D01*
X197804659Y-56975000D01*
X197823975Y-57171129D01*
X197881188Y-57359733D01*
X197974086Y-57533532D01*
X197974090Y-57533539D01*
X198099116Y-57685883D01*
X198251460Y-57810909D01*
X198251467Y-57810913D01*
X198425266Y-57903811D01*
X198425269Y-57903811D01*
X198425273Y-57903814D01*
X198613868Y-57961024D01*
X198782135Y-57977596D01*
X198846921Y-58003757D01*
X198857661Y-58013318D01*
X199183162Y-58338819D01*
X199216647Y-58400142D01*
X199211663Y-58469834D01*
X199169791Y-58525767D01*
X199104327Y-58550184D01*
X199059486Y-58545161D01*
X199006130Y-58528975D01*
X198810000Y-58509659D01*
X198613870Y-58528975D01*
X198425266Y-58586188D01*
X198251467Y-58679086D01*
X198251460Y-58679090D01*
X198099116Y-58804116D01*
X197974090Y-58956460D01*
X197974086Y-58956467D01*
X197881188Y-59130266D01*
X197823975Y-59318870D01*
X197804659Y-59515000D01*
X197823975Y-59711129D01*
X197881188Y-59899733D01*
X197974086Y-60073532D01*
X197974090Y-60073539D01*
X198099116Y-60225883D01*
X198251460Y-60350909D01*
X198251467Y-60350913D01*
X198425266Y-60443811D01*
X198425269Y-60443811D01*
X198425273Y-60443814D01*
X198613868Y-60501024D01*
X198663172Y-60505879D01*
X198727957Y-60532038D01*
X198768317Y-60589072D01*
X198771436Y-60658872D01*
X198738699Y-60716963D01*
X198320966Y-61134696D01*
X198318240Y-61137263D01*
X198271818Y-61178389D01*
X198236586Y-61229430D01*
X198234368Y-61232445D01*
X198196124Y-61281260D01*
X198196119Y-61281269D01*
X198191960Y-61290509D01*
X198180942Y-61310044D01*
X198175187Y-61318382D01*
X198175183Y-61318388D01*
X198175182Y-61318391D01*
X198175180Y-61318395D01*
X198175179Y-61318398D01*
X198153189Y-61376376D01*
X198151757Y-61379834D01*
X198126305Y-61436389D01*
X198124477Y-61446363D01*
X198118453Y-61467974D01*
X198114860Y-61477448D01*
X198114859Y-61477449D01*
X198107384Y-61539006D01*
X198106821Y-61542707D01*
X198095642Y-61603711D01*
X198095642Y-61603716D01*
X198099387Y-61665623D01*
X198099500Y-61669368D01*
X198099500Y-68437372D01*
X198079815Y-68504411D01*
X198049134Y-68537142D01*
X198027850Y-68552850D01*
X197947207Y-68662117D01*
X197947206Y-68662119D01*
X197902353Y-68790298D01*
X197902353Y-68790300D01*
X197899500Y-68820730D01*
X197899500Y-69454269D01*
X197902353Y-69484699D01*
X197902353Y-69484701D01*
X197947206Y-69612880D01*
X197947207Y-69612882D01*
X198020724Y-69712495D01*
X198027851Y-69722151D01*
X198110601Y-69783223D01*
X198152852Y-69838870D01*
X198158311Y-69908526D01*
X198125244Y-69970076D01*
X198075974Y-70000698D01*
X198030883Y-70015640D01*
X198030875Y-70015643D01*
X197881654Y-70107684D01*
X197757684Y-70231654D01*
X197665643Y-70380875D01*
X197665641Y-70380880D01*
X197610494Y-70547302D01*
X197610493Y-70547309D01*
X197600000Y-70650013D01*
X197600000Y-70712500D01*
X198926000Y-70712500D01*
X198993039Y-70732185D01*
X199038794Y-70784989D01*
X199050000Y-70836500D01*
X199050000Y-71974999D01*
X199299972Y-71974999D01*
X199299986Y-71974998D01*
X199402697Y-71964505D01*
X199569119Y-71909358D01*
X199569124Y-71909356D01*
X199718345Y-71817315D01*
X199842315Y-71693345D01*
X199934356Y-71544124D01*
X199934358Y-71544119D01*
X199978665Y-71410410D01*
X200018437Y-71352965D01*
X200082953Y-71326142D01*
X200151729Y-71338457D01*
X200202929Y-71386000D01*
X200213412Y-71408458D01*
X200227207Y-71447882D01*
X200289544Y-71532347D01*
X200307850Y-71557150D01*
X200329132Y-71572857D01*
X200371384Y-71628503D01*
X200379500Y-71672628D01*
X200379500Y-77996730D01*
X200359815Y-78063769D01*
X200343181Y-78084411D01*
X200136164Y-78291427D01*
X200116657Y-78314971D01*
X200112586Y-78321319D01*
X200111496Y-78320620D01*
X200069906Y-78366684D01*
X200002478Y-78384996D01*
X199935855Y-78363948D01*
X199917328Y-78348703D01*
X195322691Y-73754066D01*
X192781125Y-71212500D01*
X197600001Y-71212500D01*
X197600001Y-71274986D01*
X197610494Y-71377697D01*
X197665641Y-71544119D01*
X197665643Y-71544124D01*
X197757684Y-71693345D01*
X197881654Y-71817315D01*
X198030875Y-71909356D01*
X198030880Y-71909358D01*
X198197302Y-71964505D01*
X198197309Y-71964506D01*
X198300019Y-71974999D01*
X198549999Y-71974999D01*
X198550000Y-71974998D01*
X198550000Y-71212500D01*
X197600001Y-71212500D01*
X192781125Y-71212500D01*
X190352066Y-68783441D01*
X190349532Y-68780750D01*
X190308397Y-68734317D01*
X190308396Y-68734316D01*
X190308392Y-68734312D01*
X190257364Y-68699091D01*
X190254355Y-68696877D01*
X190222753Y-68672119D01*
X190205528Y-68658624D01*
X190205523Y-68658620D01*
X190196281Y-68654461D01*
X190176734Y-68643436D01*
X190175125Y-68642326D01*
X190168398Y-68637682D01*
X190110409Y-68615689D01*
X190106958Y-68614259D01*
X190050398Y-68588804D01*
X190040414Y-68586974D01*
X190018811Y-68580951D01*
X190009342Y-68577360D01*
X190009338Y-68577359D01*
X189947781Y-68569884D01*
X189944080Y-68569321D01*
X189883076Y-68558142D01*
X189883071Y-68558142D01*
X189821165Y-68561887D01*
X189817420Y-68562000D01*
X169473335Y-68562000D01*
X169432379Y-68555041D01*
X169424698Y-68552353D01*
X169424699Y-68552353D01*
X169394270Y-68549500D01*
X169394266Y-68549500D01*
X168385734Y-68549500D01*
X168385730Y-68549500D01*
X168355300Y-68552353D01*
X168355298Y-68552353D01*
X168227119Y-68597206D01*
X168227117Y-68597207D01*
X168117850Y-68677850D01*
X168037207Y-68787117D01*
X168037206Y-68787119D01*
X167992353Y-68915298D01*
X167992353Y-68915300D01*
X167989500Y-68945730D01*
X167989500Y-69579269D01*
X167992353Y-69609699D01*
X167992353Y-69609701D01*
X168035201Y-69732149D01*
X168037207Y-69737882D01*
X168105940Y-69831013D01*
X168117851Y-69847151D01*
X168136250Y-69860730D01*
X168178501Y-69916377D01*
X168183960Y-69986033D01*
X168150893Y-70047583D01*
X168089799Y-70081484D01*
X168062617Y-70084500D01*
X167415469Y-70084500D01*
X167348430Y-70064815D01*
X167302675Y-70012011D01*
X167291695Y-69953013D01*
X167292819Y-69934431D01*
X167293505Y-69923089D01*
X167317202Y-69857361D01*
X167343644Y-69830807D01*
X167362150Y-69817150D01*
X167442793Y-69707882D01*
X167472536Y-69622882D01*
X167487646Y-69579701D01*
X167487646Y-69579699D01*
X167490500Y-69549269D01*
X167490500Y-68915730D01*
X167487646Y-68885300D01*
X167487646Y-68885298D01*
X167451546Y-68782134D01*
X167442793Y-68757118D01*
X167362150Y-68647850D01*
X167279396Y-68586775D01*
X167237147Y-68531129D01*
X167231688Y-68461472D01*
X167264756Y-68399923D01*
X167314028Y-68369300D01*
X167359117Y-68354359D01*
X167359124Y-68354356D01*
X167508345Y-68262315D01*
X167632315Y-68138345D01*
X167724356Y-67989124D01*
X167724359Y-67989117D01*
X167774988Y-67836327D01*
X167814760Y-67778882D01*
X167879276Y-67752058D01*
X167948052Y-67764373D01*
X167999252Y-67811915D01*
X168009735Y-67834374D01*
X168029786Y-67891675D01*
X168037207Y-67912882D01*
X168117850Y-68022150D01*
X168227118Y-68102793D01*
X168268077Y-68117125D01*
X168355299Y-68147646D01*
X168385730Y-68150500D01*
X168385734Y-68150500D01*
X169394270Y-68150500D01*
X169424699Y-68147646D01*
X169424701Y-68147646D01*
X169511923Y-68117125D01*
X169552882Y-68102793D01*
X169662150Y-68022150D01*
X169742793Y-67912882D01*
X169784783Y-67792882D01*
X169787646Y-67784701D01*
X169787646Y-67784699D01*
X169790500Y-67754269D01*
X169790500Y-67120730D01*
X169787646Y-67090300D01*
X169787646Y-67090298D01*
X169742793Y-66962119D01*
X169742792Y-66962117D01*
X169662150Y-66852850D01*
X169552882Y-66772207D01*
X169552880Y-66772206D01*
X169424700Y-66727353D01*
X169394270Y-66724500D01*
X169394266Y-66724500D01*
X169219019Y-66724500D01*
X169151980Y-66704815D01*
X169131338Y-66688181D01*
X169096819Y-66653662D01*
X169063334Y-66592339D01*
X169060500Y-66565981D01*
X169060500Y-60444500D01*
X169080185Y-60377461D01*
X169132989Y-60331706D01*
X169173857Y-60322815D01*
X169173688Y-60321097D01*
X169179742Y-60320500D01*
X169179748Y-60320500D01*
X169194568Y-60317552D01*
X169238229Y-60308868D01*
X169238229Y-60308867D01*
X169238231Y-60308867D01*
X169304552Y-60264552D01*
X169348867Y-60198231D01*
X169348867Y-60198229D01*
X169348868Y-60198229D01*
X169360499Y-60139752D01*
X169360500Y-60139750D01*
X169360500Y-58500249D01*
X169360499Y-58500247D01*
X169348868Y-58441770D01*
X169348867Y-58441769D01*
X169304552Y-58375447D01*
X169238230Y-58331132D01*
X169238229Y-58331131D01*
X169179752Y-58319500D01*
X169179748Y-58319500D01*
X168519332Y-58319500D01*
X168452293Y-58299815D01*
X168406538Y-58247011D01*
X168396594Y-58177853D01*
X168425619Y-58114297D01*
X168484397Y-58076523D01*
X168508525Y-58071972D01*
X168586599Y-58065141D01*
X168586610Y-58065139D01*
X168806317Y-58006269D01*
X168806326Y-58006265D01*
X169012482Y-57910134D01*
X169198820Y-57779657D01*
X169359657Y-57618820D01*
X169490134Y-57432482D01*
X169586265Y-57226326D01*
X169586269Y-57226317D01*
X169638872Y-57030000D01*
X168675686Y-57030000D01*
X168687641Y-57018045D01*
X168745165Y-56905148D01*
X168764986Y-56780000D01*
X168745165Y-56654852D01*
X168687641Y-56541955D01*
X168675686Y-56530000D01*
X169638872Y-56530000D01*
X169638872Y-56529999D01*
X169586269Y-56333682D01*
X169586265Y-56333673D01*
X169490134Y-56127517D01*
X169359657Y-55941179D01*
X169198820Y-55780342D01*
X169012482Y-55649865D01*
X168806328Y-55553734D01*
X168610000Y-55501127D01*
X168610000Y-56464314D01*
X168598045Y-56452359D01*
X168485148Y-56394835D01*
X168391481Y-56380000D01*
X168328519Y-56380000D01*
X168234852Y-56394835D01*
X168121955Y-56452359D01*
X168110000Y-56464314D01*
X168110000Y-55501127D01*
X167913671Y-55553734D01*
X167707517Y-55649865D01*
X167521179Y-55780342D01*
X167360342Y-55941179D01*
X167229865Y-56127517D01*
X167133734Y-56333673D01*
X167133730Y-56333682D01*
X167081127Y-56529999D01*
X167081128Y-56530000D01*
X168044314Y-56530000D01*
X168032359Y-56541955D01*
X167974835Y-56654852D01*
X167955014Y-56780000D01*
X167974835Y-56905148D01*
X168032359Y-57018045D01*
X168044314Y-57030000D01*
X167081128Y-57030000D01*
X167133730Y-57226317D01*
X167133734Y-57226326D01*
X167229865Y-57432482D01*
X167360342Y-57618820D01*
X167521179Y-57779657D01*
X167707517Y-57910134D01*
X167913673Y-58006265D01*
X167913682Y-58006269D01*
X168133389Y-58065139D01*
X168133400Y-58065141D01*
X168211475Y-58071972D01*
X168276544Y-58097424D01*
X168317523Y-58154015D01*
X168321401Y-58223777D01*
X168286947Y-58284561D01*
X168225100Y-58317069D01*
X168200668Y-58319500D01*
X167540247Y-58319500D01*
X167481770Y-58331131D01*
X167481769Y-58331132D01*
X167415447Y-58375447D01*
X167371132Y-58441769D01*
X167371131Y-58441770D01*
X167359500Y-58500247D01*
X167359500Y-60139752D01*
X167371131Y-60198229D01*
X167371132Y-60198230D01*
X167415447Y-60264552D01*
X167481769Y-60308867D01*
X167481770Y-60308868D01*
X167539852Y-60320420D01*
X167540252Y-60320500D01*
X167540257Y-60320500D01*
X167546312Y-60321097D01*
X167546065Y-60323602D01*
X167602539Y-60340185D01*
X167648294Y-60392989D01*
X167659500Y-60444500D01*
X167659500Y-66423742D01*
X167639815Y-66490781D01*
X167587011Y-66536536D01*
X167517853Y-66546480D01*
X167470403Y-66529281D01*
X167359124Y-66460643D01*
X167359119Y-66460641D01*
X167192697Y-66405494D01*
X167192690Y-66405493D01*
X167089986Y-66395000D01*
X166840000Y-66395000D01*
X166840000Y-67533500D01*
X166820315Y-67600539D01*
X166767511Y-67646294D01*
X166716000Y-67657500D01*
X166464000Y-67657500D01*
X166396961Y-67637815D01*
X166351206Y-67585011D01*
X166340000Y-67533500D01*
X166340000Y-66395000D01*
X166090029Y-66395000D01*
X166090012Y-66395001D01*
X165987302Y-66405494D01*
X165820880Y-66460641D01*
X165820875Y-66460643D01*
X165671654Y-66552684D01*
X165547683Y-66676655D01*
X165547680Y-66676659D01*
X165495146Y-66761830D01*
X165443198Y-66808555D01*
X165374236Y-66819776D01*
X165310154Y-66791933D01*
X165289838Y-66770366D01*
X165262151Y-66732851D01*
X165254703Y-66727354D01*
X165240865Y-66717141D01*
X165198615Y-66661494D01*
X165190500Y-66617372D01*
X165190500Y-57172647D01*
X165190613Y-57168902D01*
X165192990Y-57129602D01*
X165194358Y-57106994D01*
X165183175Y-57045970D01*
X165182613Y-57042273D01*
X165175140Y-56980727D01*
X165171548Y-56971256D01*
X165165522Y-56949642D01*
X165163695Y-56939668D01*
X165138234Y-56883096D01*
X165136806Y-56879649D01*
X165128134Y-56856783D01*
X165114818Y-56821670D01*
X165109063Y-56813333D01*
X165098036Y-56793782D01*
X165093879Y-56784546D01*
X165093878Y-56784543D01*
X165075146Y-56760633D01*
X165055630Y-56735722D01*
X165053410Y-56732706D01*
X165045756Y-56721617D01*
X165018183Y-56681671D01*
X164971750Y-56640535D01*
X164969056Y-56637999D01*
X164265398Y-55934341D01*
X164262864Y-55931650D01*
X164221729Y-55885217D01*
X164221728Y-55885216D01*
X164221724Y-55885212D01*
X164170696Y-55849991D01*
X164167687Y-55847777D01*
X164118860Y-55809524D01*
X164118855Y-55809520D01*
X164109613Y-55805361D01*
X164090066Y-55794336D01*
X164081731Y-55788583D01*
X164081732Y-55788583D01*
X164081730Y-55788582D01*
X164023741Y-55766589D01*
X164020290Y-55765159D01*
X163963730Y-55739704D01*
X163953746Y-55737874D01*
X163932143Y-55731851D01*
X163922674Y-55728260D01*
X163922670Y-55728259D01*
X163861113Y-55720784D01*
X163857412Y-55720221D01*
X163796408Y-55709042D01*
X163796403Y-55709042D01*
X163734497Y-55712787D01*
X163730752Y-55712900D01*
X161129648Y-55712900D01*
X161125903Y-55712787D01*
X161063996Y-55709042D01*
X161063989Y-55709042D01*
X161002986Y-55720221D01*
X160999285Y-55720784D01*
X160937728Y-55728259D01*
X160937721Y-55728261D01*
X160928247Y-55731854D01*
X160906649Y-55737875D01*
X160896669Y-55739704D01*
X160840109Y-55765160D01*
X160836643Y-55766594D01*
X160827023Y-55770243D01*
X160770907Y-55777702D01*
X160740003Y-55774659D01*
X160740000Y-55774659D01*
X160543870Y-55793975D01*
X160355266Y-55851188D01*
X160181467Y-55944086D01*
X160181460Y-55944090D01*
X160029116Y-56069116D01*
X159904090Y-56221460D01*
X159904086Y-56221467D01*
X159811188Y-56395266D01*
X159753975Y-56583870D01*
X159734659Y-56780000D01*
X159753975Y-56976129D01*
X159811188Y-57164733D01*
X159904086Y-57338532D01*
X159904090Y-57338539D01*
X160029116Y-57490883D01*
X160181460Y-57615909D01*
X160181467Y-57615913D01*
X160355266Y-57708811D01*
X160355269Y-57708811D01*
X160355273Y-57708814D01*
X160543868Y-57766024D01*
X160740000Y-57785341D01*
X160936132Y-57766024D01*
X161124727Y-57708814D01*
X161298538Y-57615910D01*
X161450883Y-57490883D01*
X161575910Y-57338538D01*
X161575910Y-57338536D01*
X161575914Y-57338532D01*
X161660947Y-57179447D01*
X161709909Y-57129602D01*
X161770305Y-57113900D01*
X163412281Y-57113900D01*
X163479320Y-57133585D01*
X163499962Y-57150219D01*
X163753181Y-57403438D01*
X163786666Y-57464761D01*
X163789500Y-57491119D01*
X163789500Y-66617372D01*
X163769815Y-66684411D01*
X163739134Y-66717141D01*
X163729004Y-66724618D01*
X163717850Y-66732850D01*
X163637207Y-66842117D01*
X163637206Y-66842119D01*
X163592353Y-66970298D01*
X163592353Y-66970300D01*
X163589500Y-67000730D01*
X163589500Y-67634269D01*
X163592353Y-67664699D01*
X163592353Y-67664701D01*
X163634344Y-67784701D01*
X163637207Y-67792882D01*
X163717850Y-67902150D01*
X163827118Y-67982793D01*
X163869845Y-67997744D01*
X163955299Y-68027646D01*
X163985730Y-68030500D01*
X163985734Y-68030500D01*
X164994270Y-68030500D01*
X165024699Y-68027646D01*
X165024701Y-68027646D01*
X165088790Y-68005219D01*
X165152882Y-67982793D01*
X165256906Y-67906020D01*
X165322529Y-67882051D01*
X165390700Y-67897366D01*
X165439768Y-67947106D01*
X165448240Y-67966785D01*
X165455640Y-67989118D01*
X165455643Y-67989124D01*
X165547684Y-68138345D01*
X165671654Y-68262315D01*
X165736741Y-68302461D01*
X165783465Y-68354409D01*
X165794688Y-68423371D01*
X165766844Y-68487454D01*
X165708776Y-68526310D01*
X165671644Y-68532000D01*
X165267927Y-68532000D01*
X165200888Y-68512315D01*
X165194293Y-68507770D01*
X165152882Y-68477207D01*
X165152880Y-68477206D01*
X165024700Y-68432353D01*
X164994270Y-68429500D01*
X164994266Y-68429500D01*
X163985734Y-68429500D01*
X163985730Y-68429500D01*
X163955300Y-68432353D01*
X163955298Y-68432353D01*
X163827119Y-68477206D01*
X163827117Y-68477207D01*
X163717850Y-68557850D01*
X163656695Y-68640712D01*
X163601047Y-68682963D01*
X163531391Y-68688421D01*
X163469842Y-68655353D01*
X163439219Y-68606082D01*
X163404358Y-68500880D01*
X163404356Y-68500875D01*
X163312315Y-68351654D01*
X163188345Y-68227684D01*
X163039124Y-68135643D01*
X163039121Y-68135642D01*
X162994026Y-68120699D01*
X162936582Y-68080926D01*
X162909759Y-68016410D01*
X162922074Y-67947634D01*
X162959394Y-67903225D01*
X163042150Y-67842150D01*
X163122793Y-67732882D01*
X163145219Y-67668790D01*
X163167646Y-67604701D01*
X163167646Y-67604699D01*
X163170500Y-67574269D01*
X163170500Y-66940730D01*
X163167646Y-66910300D01*
X163167646Y-66910298D01*
X163122793Y-66782119D01*
X163122792Y-66782117D01*
X163115478Y-66772207D01*
X163042150Y-66672850D01*
X163020865Y-66657141D01*
X162978615Y-66601494D01*
X162970500Y-66557372D01*
X162970500Y-60924927D01*
X162972531Y-60902575D01*
X162974358Y-60892604D01*
X162972007Y-60853747D01*
X162972007Y-60846251D01*
X162972308Y-60841272D01*
X162974358Y-60807394D01*
X162967337Y-60769088D01*
X162966436Y-60761666D01*
X162964086Y-60722804D01*
X162961071Y-60713129D01*
X162956360Y-60691178D01*
X162955140Y-60681128D01*
X162951547Y-60671656D01*
X162945521Y-60650038D01*
X162943695Y-60640069D01*
X162927713Y-60604562D01*
X162925059Y-60597564D01*
X162913478Y-60560394D01*
X162908233Y-60551718D01*
X162898412Y-60531547D01*
X162894818Y-60522070D01*
X162889056Y-60513722D01*
X162878038Y-60494187D01*
X162873878Y-60484944D01*
X162849863Y-60454291D01*
X162845612Y-60448132D01*
X162843416Y-60444500D01*
X162825472Y-60414815D01*
X162818307Y-60407650D01*
X162803940Y-60390412D01*
X162798183Y-60382071D01*
X162751750Y-60340935D01*
X162749056Y-60338399D01*
X162705185Y-60294528D01*
X161826819Y-59416162D01*
X161793334Y-59354839D01*
X161790500Y-59328481D01*
X161790500Y-59268395D01*
X161776895Y-59130266D01*
X161775300Y-59114066D01*
X161715232Y-58916046D01*
X161617685Y-58733550D01*
X161538260Y-58636770D01*
X161486410Y-58573589D01*
X161326452Y-58442317D01*
X161326453Y-58442317D01*
X161326450Y-58442315D01*
X161143954Y-58344768D01*
X160945934Y-58284700D01*
X160945932Y-58284699D01*
X160945934Y-58284699D01*
X160740000Y-58264417D01*
X160534067Y-58284699D01*
X160336043Y-58344769D01*
X160283503Y-58372853D01*
X160153550Y-58442315D01*
X160153548Y-58442316D01*
X160153547Y-58442317D01*
X159993589Y-58573589D01*
X159862317Y-58733547D01*
X159764769Y-58916043D01*
X159704699Y-59114067D01*
X159689500Y-59268395D01*
X159689500Y-66091006D01*
X159669815Y-66158045D01*
X159653181Y-66178687D01*
X159310696Y-66521171D01*
X159212317Y-66641046D01*
X159114769Y-66823541D01*
X159054699Y-67021568D01*
X159034417Y-67227500D01*
X159054699Y-67433431D01*
X159054700Y-67433434D01*
X159100660Y-67584948D01*
X159114769Y-67631458D01*
X159141678Y-67681799D01*
X159212315Y-67813950D01*
X159230679Y-67836327D01*
X159343589Y-67973910D01*
X159502893Y-68104646D01*
X159542228Y-68162392D01*
X159544099Y-68232237D01*
X159507912Y-68292005D01*
X159445156Y-68322721D01*
X159424229Y-68324500D01*
X159019927Y-68324500D01*
X158997576Y-68322469D01*
X158987607Y-68320642D01*
X158987603Y-68320642D01*
X158925697Y-68324387D01*
X158921952Y-68324500D01*
X158443335Y-68324500D01*
X158402379Y-68317541D01*
X158394698Y-68314853D01*
X158394699Y-68314853D01*
X158364270Y-68312000D01*
X158364266Y-68312000D01*
X157355734Y-68312000D01*
X157355728Y-68312000D01*
X157348353Y-68312691D01*
X157279770Y-68299346D01*
X157229289Y-68251041D01*
X157212937Y-68183111D01*
X157235907Y-68117125D01*
X157249093Y-68101563D01*
X157401340Y-67949316D01*
X157462661Y-67915834D01*
X157489019Y-67913000D01*
X158364270Y-67913000D01*
X158394699Y-67910146D01*
X158394701Y-67910146D01*
X158474990Y-67882051D01*
X158522882Y-67865293D01*
X158632150Y-67784650D01*
X158712793Y-67675382D01*
X158744439Y-67584943D01*
X158757646Y-67547201D01*
X158757646Y-67547199D01*
X158760500Y-67516769D01*
X158760500Y-66883230D01*
X158757646Y-66852800D01*
X158757646Y-66852798D01*
X158712793Y-66724619D01*
X158712792Y-66724617D01*
X158712706Y-66724500D01*
X158632150Y-66615350D01*
X158522882Y-66534707D01*
X158522880Y-66534706D01*
X158394700Y-66489853D01*
X158364270Y-66487000D01*
X158364266Y-66487000D01*
X157355734Y-66487000D01*
X157355730Y-66487000D01*
X157325301Y-66489853D01*
X157317621Y-66492541D01*
X157276665Y-66499500D01*
X157183037Y-66499500D01*
X157179293Y-66499387D01*
X157117397Y-66495643D01*
X157117390Y-66495643D01*
X157056402Y-66506819D01*
X157052701Y-66507382D01*
X156991125Y-66514860D01*
X156981642Y-66518456D01*
X156960038Y-66524478D01*
X156958535Y-66524754D01*
X156950065Y-66526306D01*
X156893522Y-66551754D01*
X156890063Y-66553187D01*
X156856331Y-66565981D01*
X156832070Y-66575182D01*
X156832068Y-66575183D01*
X156832066Y-66575184D01*
X156832061Y-66575186D01*
X156823722Y-66580942D01*
X156804190Y-66591959D01*
X156794946Y-66596120D01*
X156746124Y-66634368D01*
X156743109Y-66636586D01*
X156692068Y-66671818D01*
X156650942Y-66718240D01*
X156648375Y-66720966D01*
X155930966Y-67438375D01*
X155928240Y-67440942D01*
X155881818Y-67482068D01*
X155846586Y-67533109D01*
X155844368Y-67536124D01*
X155806124Y-67584939D01*
X155806119Y-67584948D01*
X155801960Y-67594188D01*
X155790942Y-67613723D01*
X155785187Y-67622061D01*
X155785183Y-67622067D01*
X155785182Y-67622070D01*
X155785180Y-67622074D01*
X155785179Y-67622077D01*
X155763189Y-67680055D01*
X155761757Y-67683513D01*
X155736305Y-67740068D01*
X155734477Y-67750042D01*
X155728453Y-67771653D01*
X155724860Y-67781127D01*
X155724859Y-67781128D01*
X155717384Y-67842685D01*
X155716821Y-67846386D01*
X155705642Y-67907390D01*
X155705642Y-67907395D01*
X155709387Y-67969302D01*
X155709500Y-67973047D01*
X155709500Y-70999007D01*
X155709387Y-71002752D01*
X155705642Y-71064659D01*
X155705642Y-71064661D01*
X155716821Y-71125668D01*
X155717384Y-71129369D01*
X155724859Y-71190926D01*
X155724860Y-71190930D01*
X155728451Y-71200399D01*
X155734474Y-71222002D01*
X155736304Y-71231986D01*
X155761759Y-71288546D01*
X155763189Y-71291997D01*
X155785182Y-71349986D01*
X155785183Y-71349987D01*
X155790936Y-71358322D01*
X155801961Y-71377869D01*
X155806120Y-71387111D01*
X155806124Y-71387116D01*
X155810282Y-71392423D01*
X155841658Y-71432472D01*
X155844371Y-71435934D01*
X155846591Y-71438952D01*
X155881812Y-71489980D01*
X155881816Y-71489984D01*
X155881817Y-71489985D01*
X155928250Y-71531120D01*
X155930941Y-71533654D01*
X165386486Y-80989199D01*
X165389022Y-80991893D01*
X165430158Y-81038326D01*
X165458990Y-81058227D01*
X165481197Y-81073556D01*
X165484214Y-81075776D01*
X165533025Y-81114017D01*
X165533030Y-81114020D01*
X165542261Y-81118174D01*
X165561814Y-81129202D01*
X165570157Y-81134961D01*
X165624824Y-81155693D01*
X165628144Y-81156952D01*
X165631599Y-81158382D01*
X165645133Y-81164474D01*
X165688150Y-81183835D01*
X165688151Y-81183835D01*
X165688155Y-81183837D01*
X165698117Y-81185662D01*
X165719738Y-81191689D01*
X165729212Y-81195282D01*
X165729215Y-81195283D01*
X165745958Y-81197316D01*
X165790776Y-81202758D01*
X165794473Y-81203320D01*
X165855481Y-81214500D01*
X165855482Y-81214499D01*
X165855483Y-81214500D01*
X165917380Y-81210756D01*
X165921124Y-81210643D01*
X171852065Y-81210643D01*
X171919104Y-81230328D01*
X171964859Y-81283132D01*
X171974803Y-81352290D01*
X171945778Y-81415846D01*
X171887000Y-81453620D01*
X171886909Y-81453646D01*
X171625925Y-81530012D01*
X170844207Y-81758746D01*
X169721831Y-82120459D01*
X168609671Y-82512459D01*
X167508544Y-82934458D01*
X167112516Y-83098676D01*
X167112392Y-83098689D01*
X167109745Y-83099825D01*
X166419259Y-83386146D01*
X165882658Y-83625893D01*
X165879199Y-83627314D01*
X165811123Y-83652929D01*
X165649255Y-83712599D01*
X165642502Y-83714661D01*
X165535959Y-83740658D01*
X165400997Y-83770729D01*
X165394857Y-83771777D01*
X165279058Y-83785596D01*
X165147346Y-83796857D01*
X165141952Y-83797083D01*
X165023895Y-83796872D01*
X165020989Y-83796799D01*
X164892286Y-83790531D01*
X164887734Y-83790141D01*
X164769670Y-83775625D01*
X164765976Y-83775058D01*
X164639841Y-83751765D01*
X164636190Y-83750976D01*
X164520729Y-83722368D01*
X164516343Y-83721108D01*
X164393863Y-83680986D01*
X164391123Y-83680017D01*
X164280797Y-83638057D01*
X164275839Y-83635919D01*
X164156840Y-83578362D01*
X164053605Y-83524092D01*
X164048243Y-83520920D01*
X163932907Y-83444618D01*
X163871133Y-83401943D01*
X163842692Y-83382295D01*
X163837124Y-83377960D01*
X163708374Y-83265414D01*
X163692830Y-83251640D01*
X163652612Y-83216002D01*
X163649911Y-83213458D01*
X157116996Y-76680543D01*
X150573090Y-70136637D01*
X150569513Y-70132739D01*
X150544974Y-70103594D01*
X150484006Y-70029358D01*
X150462346Y-70002983D01*
X150451109Y-69986840D01*
X150417386Y-69929102D01*
X150368892Y-69838608D01*
X150365461Y-69831019D01*
X150338643Y-69759216D01*
X150337436Y-69755660D01*
X150309463Y-69664035D01*
X150307836Y-69657427D01*
X150293292Y-69580256D01*
X150292541Y-69575054D01*
X150283041Y-69481022D01*
X150282737Y-69475771D01*
X150281552Y-69397269D01*
X150281824Y-69390452D01*
X150281824Y-69390451D01*
X150290905Y-69295084D01*
X150291371Y-69291394D01*
X150303291Y-69215643D01*
X150305138Y-69207513D01*
X150334551Y-69109153D01*
X150356043Y-69045837D01*
X150363821Y-69027783D01*
X150425017Y-68912010D01*
X150442802Y-68879332D01*
X150445549Y-68874767D01*
X150472396Y-68834206D01*
X150472633Y-68833746D01*
X150544878Y-68724419D01*
X150717770Y-68402417D01*
X150860585Y-68065995D01*
X150972133Y-67717953D01*
X151051486Y-67361190D01*
X151082751Y-67117432D01*
X151097980Y-66998699D01*
X151097983Y-66998665D01*
X151106200Y-66772206D01*
X151111235Y-66633439D01*
X151106778Y-66552526D01*
X151091134Y-66268518D01*
X151091133Y-66268515D01*
X151091133Y-66268511D01*
X151037845Y-65906936D01*
X150951814Y-65551725D01*
X150833757Y-65205837D01*
X150684656Y-64872152D01*
X150505755Y-64553451D01*
X150298543Y-64252387D01*
X150064745Y-63971469D01*
X149994069Y-63900776D01*
X149993851Y-63900377D01*
X149935543Y-63842236D01*
X149935544Y-63842236D01*
X149935190Y-63841883D01*
X143012977Y-56919669D01*
X143010218Y-56916723D01*
X143000067Y-56905148D01*
X142956149Y-56855069D01*
X142836928Y-56717479D01*
X142832237Y-56711327D01*
X142826962Y-56703433D01*
X142766332Y-56612693D01*
X142686557Y-56488560D01*
X142683115Y-56482475D01*
X142627485Y-56369667D01*
X142568852Y-56241275D01*
X142568852Y-56241274D01*
X142566539Y-56235445D01*
X142545772Y-56174267D01*
X147769500Y-56174267D01*
X147772353Y-56204699D01*
X147772353Y-56204701D01*
X147813580Y-56322517D01*
X147817207Y-56332882D01*
X147897850Y-56442150D01*
X148007118Y-56522793D01*
X148023948Y-56528682D01*
X148135299Y-56567646D01*
X148165730Y-56570500D01*
X148165734Y-56570500D01*
X149474270Y-56570500D01*
X149504699Y-56567646D01*
X149504701Y-56567646D01*
X149578120Y-56541955D01*
X149632882Y-56522793D01*
X149742150Y-56442150D01*
X149822793Y-56332882D01*
X149846855Y-56264116D01*
X149867646Y-56204701D01*
X149867646Y-56204699D01*
X149870500Y-56174267D01*
X149870500Y-56165236D01*
X149890185Y-56098197D01*
X149942989Y-56052442D01*
X150012147Y-56042498D01*
X150075703Y-56071523D01*
X150106882Y-56112832D01*
X150146397Y-56197573D01*
X150146399Y-56197577D01*
X150281886Y-56391073D01*
X150281891Y-56391079D01*
X150448917Y-56558105D01*
X150642421Y-56693600D01*
X150856507Y-56793429D01*
X150856516Y-56793433D01*
X151070000Y-56850634D01*
X151070000Y-55805501D01*
X151177685Y-55854680D01*
X151284237Y-55870000D01*
X151355763Y-55870000D01*
X151462315Y-55854680D01*
X151570000Y-55805501D01*
X151570000Y-56850633D01*
X151783483Y-56793433D01*
X151783492Y-56793429D01*
X151997577Y-56693600D01*
X151997579Y-56693599D01*
X152191073Y-56558113D01*
X152191079Y-56558108D01*
X152358108Y-56391079D01*
X152358113Y-56391073D01*
X152493601Y-56197577D01*
X152593429Y-55983492D01*
X152593433Y-55983483D01*
X152654567Y-55755326D01*
X152654569Y-55755315D01*
X152666407Y-55620000D01*
X151753686Y-55620000D01*
X151779493Y-55579844D01*
X151820000Y-55441889D01*
X151820000Y-55298111D01*
X151779493Y-55160156D01*
X151753686Y-55120000D01*
X152666407Y-55120000D01*
X152666407Y-55119999D01*
X152654569Y-54984684D01*
X152654567Y-54984673D01*
X152593433Y-54756516D01*
X152593429Y-54756507D01*
X152493600Y-54542422D01*
X152493599Y-54542420D01*
X152358113Y-54348926D01*
X152358108Y-54348920D01*
X152191082Y-54181894D01*
X151997578Y-54046399D01*
X151783492Y-53946570D01*
X151783486Y-53946567D01*
X151570000Y-53889364D01*
X151570000Y-54934498D01*
X151462315Y-54885320D01*
X151355763Y-54870000D01*
X151284237Y-54870000D01*
X151177685Y-54885320D01*
X151070000Y-54934498D01*
X151070000Y-53889364D01*
X151069999Y-53889364D01*
X150856513Y-53946567D01*
X150856507Y-53946570D01*
X150642422Y-54046399D01*
X150642420Y-54046400D01*
X150448926Y-54181886D01*
X150448920Y-54181891D01*
X150281891Y-54348920D01*
X150281886Y-54348926D01*
X150146400Y-54542420D01*
X150146399Y-54542422D01*
X150106882Y-54627168D01*
X150060710Y-54679607D01*
X149993516Y-54698759D01*
X149926635Y-54678543D01*
X149881300Y-54625378D01*
X149870500Y-54574763D01*
X149870500Y-54565730D01*
X149867646Y-54535300D01*
X149867646Y-54535298D01*
X149830000Y-54427715D01*
X149822793Y-54407118D01*
X149742150Y-54297850D01*
X149632882Y-54217207D01*
X149632880Y-54217206D01*
X149504700Y-54172353D01*
X149474270Y-54169500D01*
X149474266Y-54169500D01*
X148165734Y-54169500D01*
X148165730Y-54169500D01*
X148135300Y-54172353D01*
X148135298Y-54172353D01*
X148007119Y-54217206D01*
X148007117Y-54217207D01*
X147897850Y-54297850D01*
X147817207Y-54407117D01*
X147817206Y-54407119D01*
X147772353Y-54535298D01*
X147772353Y-54535300D01*
X147769500Y-54565730D01*
X147769500Y-56174267D01*
X142545772Y-56174267D01*
X142525150Y-56113516D01*
X142512819Y-56071523D01*
X142486003Y-55980196D01*
X142484696Y-55974875D01*
X142460093Y-55851186D01*
X142459580Y-55848605D01*
X142459024Y-55845364D01*
X142439597Y-55710247D01*
X142439099Y-55705479D01*
X142439064Y-55704952D01*
X142430647Y-55576510D01*
X142430514Y-55572469D01*
X142430515Y-55436257D01*
X142430645Y-55432303D01*
X142439102Y-55303270D01*
X142439593Y-55298578D01*
X142459028Y-55163416D01*
X142459581Y-55160183D01*
X142484702Y-55033894D01*
X142486002Y-55028604D01*
X142525150Y-54895278D01*
X142566554Y-54773309D01*
X142568850Y-54767523D01*
X142627499Y-54639101D01*
X142683118Y-54526321D01*
X142686563Y-54520228D01*
X142766294Y-54396163D01*
X142832266Y-54297432D01*
X142836942Y-54291299D01*
X142954578Y-54155523D01*
X143010459Y-54091804D01*
X143013181Y-54088898D01*
X148004759Y-49097321D01*
X148005113Y-49096968D01*
X148005112Y-49096967D01*
X148005183Y-49096897D01*
X148005183Y-49096895D01*
X148022167Y-49080152D01*
X148022553Y-49079577D01*
X148040948Y-49061234D01*
X148041390Y-49060686D01*
X148097825Y-49004250D01*
X148097831Y-49004243D01*
X148257459Y-48796205D01*
X148257458Y-48796205D01*
X148257463Y-48796200D01*
X148388579Y-48569094D01*
X148488932Y-48326817D01*
X148556802Y-48073514D01*
X148591031Y-47813519D01*
X148591031Y-47551281D01*
X148556803Y-47291287D01*
X148488932Y-47037984D01*
X148488927Y-47037974D01*
X148488926Y-47037968D01*
X148388585Y-46795719D01*
X148388584Y-46795718D01*
X148388580Y-46795707D01*
X148257463Y-46568600D01*
X148097825Y-46360551D01*
X148063651Y-46326375D01*
X148063446Y-46326000D01*
X148005112Y-46267833D01*
X148005113Y-46267833D01*
X148004759Y-46267480D01*
X147509514Y-45772234D01*
X147506151Y-45768589D01*
X147373894Y-45613196D01*
X147343612Y-45577442D01*
X147313437Y-45541813D01*
X147309032Y-45535941D01*
X147284324Y-45498581D01*
X147214164Y-45392492D01*
X147144010Y-45284724D01*
X147140514Y-45278621D01*
X147066724Y-45130977D01*
X147007487Y-45008784D01*
X147004891Y-45002592D01*
X146950388Y-44849803D01*
X146905936Y-44718196D01*
X146904203Y-44712024D01*
X146868841Y-44555231D01*
X146840886Y-44417374D01*
X146839971Y-44411337D01*
X146823851Y-44252260D01*
X146816807Y-44157763D01*
X147455787Y-44157763D01*
X147485413Y-44427013D01*
X147485415Y-44427024D01*
X147553926Y-44689082D01*
X147553928Y-44689088D01*
X147659870Y-44938390D01*
X147777450Y-45131052D01*
X147800979Y-45169605D01*
X147800986Y-45169615D01*
X147974253Y-45377819D01*
X147974259Y-45377824D01*
X147990630Y-45392492D01*
X148175998Y-45558582D01*
X148401910Y-45708044D01*
X148647176Y-45823020D01*
X148647183Y-45823022D01*
X148647185Y-45823023D01*
X148906557Y-45901057D01*
X148906564Y-45901058D01*
X148906569Y-45901060D01*
X149174561Y-45940500D01*
X149174566Y-45940500D01*
X149377636Y-45940500D01*
X149429133Y-45936730D01*
X149580156Y-45925677D01*
X149692758Y-45900593D01*
X149844546Y-45866782D01*
X149844548Y-45866781D01*
X149844553Y-45866780D01*
X150097558Y-45770014D01*
X150333777Y-45637441D01*
X150548177Y-45471888D01*
X150736186Y-45276881D01*
X150893799Y-45056579D01*
X151000137Y-44849750D01*
X151017649Y-44815690D01*
X151017651Y-44815684D01*
X151017656Y-44815675D01*
X151105118Y-44559305D01*
X151154319Y-44292933D01*
X151164212Y-44022235D01*
X151134586Y-43752982D01*
X151066072Y-43490912D01*
X150960130Y-43241610D01*
X150819018Y-43010390D01*
X150755770Y-42934389D01*
X150645746Y-42802180D01*
X150645740Y-42802175D01*
X150444002Y-42621418D01*
X150218092Y-42471957D01*
X150188957Y-42458299D01*
X149972824Y-42356980D01*
X149972819Y-42356978D01*
X149972814Y-42356976D01*
X149713442Y-42278942D01*
X149713428Y-42278939D01*
X149597791Y-42261921D01*
X149445439Y-42239500D01*
X149242369Y-42239500D01*
X149242364Y-42239500D01*
X149039844Y-42254323D01*
X149039831Y-42254325D01*
X148775453Y-42313217D01*
X148775446Y-42313220D01*
X148522439Y-42409987D01*
X148286226Y-42542557D01*
X148071822Y-42708112D01*
X147883822Y-42903109D01*
X147883816Y-42903116D01*
X147726202Y-43123419D01*
X147726199Y-43123424D01*
X147602350Y-43364309D01*
X147602343Y-43364327D01*
X147514884Y-43620685D01*
X147514881Y-43620699D01*
X147496794Y-43718624D01*
X147476764Y-43827067D01*
X147465681Y-43887068D01*
X147465680Y-43887075D01*
X147455787Y-44157763D01*
X146816807Y-44157763D01*
X146813312Y-44110879D01*
X146813154Y-44105112D01*
X146816316Y-43945753D01*
X146818212Y-43908800D01*
X146823620Y-43803377D01*
X146824145Y-43797916D01*
X146846446Y-43640430D01*
X146871643Y-43499492D01*
X146872772Y-43494427D01*
X146913842Y-43340967D01*
X146956643Y-43203856D01*
X146958279Y-43199265D01*
X147016992Y-43053253D01*
X147018065Y-43050752D01*
X147077315Y-42920956D01*
X147079384Y-42916841D01*
X147155184Y-42779123D01*
X147156728Y-42776480D01*
X147231835Y-42655043D01*
X147234196Y-42651510D01*
X147326001Y-42523992D01*
X147328045Y-42521313D01*
X147417826Y-42410190D01*
X147420410Y-42407198D01*
X147526868Y-42291728D01*
X147529447Y-42289095D01*
X147632472Y-42190077D01*
X147635179Y-42187627D01*
X147754770Y-42085839D01*
X147757869Y-42083369D01*
X147872513Y-41998028D01*
X147875242Y-41996112D01*
X148006274Y-41909452D01*
X148009939Y-41907209D01*
X148134276Y-41836966D01*
X148136936Y-41835551D01*
X148277587Y-41765252D01*
X148281708Y-41763381D01*
X148413774Y-41709313D01*
X148416344Y-41708330D01*
X148564526Y-41655467D01*
X148569212Y-41654003D01*
X148707923Y-41616667D01*
X148862882Y-41581716D01*
X148867980Y-41580791D01*
X149009805Y-41561201D01*
X149168023Y-41545164D01*
X149173516Y-41544853D01*
X149316099Y-41543199D01*
X149475419Y-41546357D01*
X149481206Y-41546745D01*
X149622035Y-41562877D01*
X149780383Y-41585297D01*
X149786379Y-41586452D01*
X149909971Y-41616661D01*
X149922967Y-41619837D01*
X150078284Y-41661400D01*
X150084366Y-41663372D01*
X150214040Y-41712980D01*
X150364570Y-41773506D01*
X150364595Y-41773516D01*
X150370706Y-41776368D01*
X150490453Y-41840401D01*
X150526591Y-41860290D01*
X150635047Y-41919982D01*
X150641008Y-41923719D01*
X150745976Y-41998137D01*
X150885495Y-42098578D01*
X150891189Y-42103212D01*
X150958641Y-42165090D01*
X151110751Y-42305323D01*
X151113428Y-42307944D01*
X151691919Y-42909842D01*
X151691920Y-42909842D01*
X151700144Y-42918399D01*
X151700279Y-42918514D01*
X151776548Y-42997779D01*
X151965999Y-43152004D01*
X151966003Y-43152007D01*
X152156904Y-43272035D01*
X152172806Y-43282033D01*
X152393897Y-43385936D01*
X152625986Y-43462169D01*
X152625995Y-43462170D01*
X152625999Y-43462172D01*
X152814564Y-43499492D01*
X152865626Y-43509598D01*
X153109256Y-43527520D01*
X153353257Y-43515668D01*
X153594003Y-43474217D01*
X153827918Y-43403785D01*
X153893926Y-43374790D01*
X153894018Y-43374778D01*
X153937904Y-43355476D01*
X153941595Y-43353992D01*
X153997917Y-43333443D01*
X154191559Y-43264564D01*
X154198767Y-43262483D01*
X154236726Y-43253969D01*
X154307352Y-43238130D01*
X154460995Y-43207562D01*
X154467381Y-43206638D01*
X154587895Y-43195591D01*
X154735813Y-43188037D01*
X154741290Y-43188002D01*
X154864196Y-43192651D01*
X154867672Y-43192880D01*
X155011098Y-43206451D01*
X155015533Y-43207034D01*
X155137698Y-43227629D01*
X155142052Y-43228527D01*
X155282044Y-43262741D01*
X155285342Y-43263647D01*
X155403028Y-43299566D01*
X155408183Y-43301393D01*
X155505869Y-43340986D01*
X155545447Y-43357027D01*
X155561558Y-43364327D01*
X155655672Y-43406972D01*
X155661439Y-43409959D01*
X155720941Y-43444857D01*
X155796526Y-43489187D01*
X155801709Y-43492398D01*
X155891157Y-43547814D01*
X155897261Y-43552127D01*
X156007416Y-43640435D01*
X156056843Y-43680059D01*
X156104157Y-43718624D01*
X156107251Y-43721320D01*
X156148732Y-43759968D01*
X156149245Y-43760311D01*
X156558548Y-44140443D01*
X157489644Y-44953712D01*
X158445126Y-45738187D01*
X159028289Y-46187901D01*
X159048491Y-46203925D01*
X159049979Y-46204627D01*
X159424103Y-46493138D01*
X159469599Y-46526059D01*
X160046868Y-46943767D01*
X160052795Y-46948175D01*
X160053200Y-46948349D01*
X160425663Y-47217861D01*
X161448874Y-47911682D01*
X162492781Y-48573953D01*
X163556414Y-49204059D01*
X164638780Y-49801412D01*
X165738872Y-50365455D01*
X166855664Y-50895664D01*
X167988117Y-51391543D01*
X169135176Y-51852633D01*
X170295772Y-52278502D01*
X171468823Y-52668754D01*
X172653238Y-53023025D01*
X173847913Y-53340987D01*
X175051734Y-53622341D01*
X176263581Y-53866827D01*
X177482325Y-54074217D01*
X178706830Y-54244317D01*
X179935956Y-54376969D01*
X181168557Y-54472049D01*
X182403486Y-54529469D01*
X183639593Y-54549175D01*
X184875724Y-54531149D01*
X186110730Y-54475407D01*
X187343460Y-54382003D01*
X188572765Y-54251022D01*
X189797500Y-54082586D01*
X191016525Y-53876854D01*
X192228703Y-53634015D01*
X193432906Y-53354297D01*
X194628011Y-53037960D01*
X195812907Y-52685298D01*
X196986488Y-52296641D01*
X198147661Y-51872349D01*
X199295345Y-51412820D01*
X200428471Y-50918480D01*
X201545984Y-50389790D01*
X202646841Y-49827242D01*
X203730018Y-49231361D01*
X204794506Y-48602702D01*
X205839313Y-47941850D01*
X206863465Y-47249420D01*
X207236302Y-46980408D01*
X207236628Y-46980293D01*
X207242588Y-46975872D01*
X207866010Y-46526059D01*
X208240524Y-46238057D01*
X208241706Y-46237599D01*
X208262130Y-46221443D01*
X208846012Y-45772439D01*
X209802559Y-44989264D01*
X210734760Y-44177261D01*
X210820592Y-44097763D01*
X216105787Y-44097763D01*
X216135413Y-44367013D01*
X216135415Y-44367024D01*
X216203926Y-44629082D01*
X216203928Y-44629088D01*
X216309870Y-44878390D01*
X216389449Y-45008784D01*
X216450979Y-45109605D01*
X216450986Y-45109615D01*
X216624253Y-45317819D01*
X216624259Y-45317824D01*
X216785649Y-45462429D01*
X216825998Y-45498582D01*
X217051910Y-45648044D01*
X217297176Y-45763020D01*
X217297183Y-45763022D01*
X217297185Y-45763023D01*
X217556557Y-45841057D01*
X217556564Y-45841058D01*
X217556569Y-45841060D01*
X217824561Y-45880500D01*
X217824566Y-45880500D01*
X218027636Y-45880500D01*
X218079133Y-45876730D01*
X218230156Y-45865677D01*
X218342758Y-45840593D01*
X218494546Y-45806782D01*
X218494548Y-45806781D01*
X218494553Y-45806780D01*
X218747558Y-45710014D01*
X218983777Y-45577441D01*
X219198177Y-45411888D01*
X219386186Y-45216881D01*
X219543799Y-44996579D01*
X219619289Y-44849750D01*
X219667649Y-44755690D01*
X219667651Y-44755684D01*
X219667656Y-44755675D01*
X219755118Y-44499305D01*
X219804319Y-44232933D01*
X219814212Y-43962235D01*
X219784586Y-43692982D01*
X219716072Y-43430912D01*
X219610130Y-43181610D01*
X219469018Y-42950390D01*
X219444523Y-42920956D01*
X219295746Y-42742180D01*
X219295740Y-42742175D01*
X219094002Y-42561418D01*
X218868092Y-42411957D01*
X218863890Y-42409987D01*
X218622824Y-42296980D01*
X218622819Y-42296978D01*
X218622814Y-42296976D01*
X218363442Y-42218942D01*
X218363428Y-42218939D01*
X218247791Y-42201921D01*
X218095439Y-42179500D01*
X217892369Y-42179500D01*
X217892364Y-42179500D01*
X217689844Y-42194323D01*
X217689831Y-42194325D01*
X217425453Y-42253217D01*
X217425446Y-42253220D01*
X217172439Y-42349987D01*
X216936226Y-42482557D01*
X216936224Y-42482558D01*
X216936223Y-42482559D01*
X216882512Y-42524033D01*
X216721822Y-42648112D01*
X216533822Y-42843109D01*
X216533816Y-42843116D01*
X216376202Y-43063419D01*
X216376199Y-43063424D01*
X216252350Y-43304309D01*
X216252343Y-43304327D01*
X216164884Y-43560685D01*
X216164881Y-43560699D01*
X216141501Y-43687279D01*
X216128581Y-43757230D01*
X216115681Y-43827068D01*
X216115680Y-43827075D01*
X216105787Y-44097763D01*
X210820592Y-44097763D01*
X211186825Y-43758556D01*
X211189766Y-43756001D01*
X211236939Y-43717586D01*
X211393688Y-43592000D01*
X211399692Y-43587752D01*
X211493512Y-43529453D01*
X211496797Y-43527519D01*
X211625993Y-43451452D01*
X211631650Y-43448504D01*
X211740671Y-43398691D01*
X211875353Y-43343526D01*
X211880385Y-43341717D01*
X211996673Y-43305597D01*
X211999894Y-43304695D01*
X212137391Y-43270257D01*
X212141628Y-43269357D01*
X212262348Y-43248170D01*
X212266712Y-43247566D01*
X212284165Y-43245778D01*
X212407656Y-43233131D01*
X212411002Y-43232882D01*
X212532627Y-43227246D01*
X212537995Y-43227234D01*
X212683435Y-43233243D01*
X212802856Y-43242951D01*
X212809187Y-43243798D01*
X212960339Y-43272030D01*
X213068385Y-43294895D01*
X213075516Y-43296855D01*
X213097484Y-43304327D01*
X213244133Y-43354207D01*
X213261758Y-43360201D01*
X213323736Y-43381845D01*
X213327332Y-43383228D01*
X213345695Y-43390955D01*
X213436065Y-43429147D01*
X213668045Y-43495649D01*
X213906336Y-43533785D01*
X214147484Y-43543001D01*
X214387991Y-43523163D01*
X214624370Y-43474559D01*
X214853192Y-43397894D01*
X215071140Y-43294280D01*
X215275053Y-43165219D01*
X215461974Y-43012583D01*
X215539083Y-42932318D01*
X215560686Y-42909842D01*
X215636868Y-42830577D01*
X216139326Y-42307788D01*
X216142003Y-42305166D01*
X216292957Y-42166000D01*
X216361424Y-42103186D01*
X216367089Y-42098575D01*
X216506638Y-41998113D01*
X216611593Y-41923704D01*
X216617544Y-41919974D01*
X216762159Y-41840381D01*
X216881902Y-41776351D01*
X216887985Y-41773512D01*
X217038577Y-41712962D01*
X217168219Y-41663365D01*
X217174311Y-41661391D01*
X217329673Y-41619816D01*
X217466235Y-41586437D01*
X217472214Y-41585286D01*
X217630558Y-41562868D01*
X217771372Y-41546736D01*
X217777181Y-41546347D01*
X217936538Y-41543189D01*
X218079046Y-41544843D01*
G37*
%TD.AperFunction*%
%TA.AperFunction,Conductor*%
G36*
X167761424Y-76070799D02*
G01*
X167774563Y-76072092D01*
X167810000Y-76075583D01*
X167845436Y-76072092D01*
X167858576Y-76070799D01*
X167864657Y-76070500D01*
X169455343Y-76070500D01*
X169461424Y-76070799D01*
X169474563Y-76072092D01*
X169510000Y-76075583D01*
X169545436Y-76072092D01*
X169558576Y-76070799D01*
X169564657Y-76070500D01*
X170858392Y-76070500D01*
X172041608Y-76070500D01*
X172820009Y-76070500D01*
X172887048Y-76090185D01*
X172932803Y-76142989D01*
X172942747Y-76212147D01*
X172913722Y-76275703D01*
X172903551Y-76286133D01*
X172903236Y-76286421D01*
X172903235Y-76286422D01*
X172780327Y-76449178D01*
X172689422Y-76631739D01*
X172689417Y-76631752D01*
X172633602Y-76827917D01*
X172614785Y-77030999D01*
X172614785Y-77031000D01*
X172633602Y-77234082D01*
X172689417Y-77430247D01*
X172689422Y-77430260D01*
X172780327Y-77612821D01*
X172903237Y-77775581D01*
X173053958Y-77912980D01*
X173053960Y-77912982D01*
X173144995Y-77969348D01*
X173227363Y-78020348D01*
X173417544Y-78094024D01*
X173618024Y-78131500D01*
X173618026Y-78131500D01*
X173821975Y-78131500D01*
X173821976Y-78131500D01*
X173854975Y-78125331D01*
X173924487Y-78132360D01*
X173979167Y-78175856D01*
X174001651Y-78242009D01*
X173984800Y-78309817D01*
X173965441Y-78334900D01*
X172527019Y-79773324D01*
X172465696Y-79806809D01*
X172439338Y-79809643D01*
X168508577Y-79809643D01*
X168441538Y-79789958D01*
X168395783Y-79737154D01*
X168385839Y-79667996D01*
X168409310Y-79611332D01*
X168520440Y-79462879D01*
X168520441Y-79462878D01*
X168647258Y-79230630D01*
X168739742Y-78982671D01*
X168795989Y-78724105D01*
X168795990Y-78724097D01*
X168796988Y-78710143D01*
X167775519Y-78710143D01*
X167783990Y-78688883D01*
X167813901Y-78506432D01*
X167803892Y-78321817D01*
X167772885Y-78210143D01*
X168796989Y-78210143D01*
X168796988Y-78210142D01*
X168795990Y-78196188D01*
X168795989Y-78196180D01*
X168739742Y-77937614D01*
X168647258Y-77689655D01*
X168520441Y-77457407D01*
X168520440Y-77457406D01*
X168361851Y-77245557D01*
X168361841Y-77245545D01*
X168174740Y-77058444D01*
X168174728Y-77058434D01*
X167962879Y-76899845D01*
X167962878Y-76899844D01*
X167730629Y-76773027D01*
X167730630Y-76773027D01*
X167482671Y-76680543D01*
X167224103Y-76624296D01*
X167224093Y-76624294D01*
X167210143Y-76623295D01*
X167210143Y-77644823D01*
X167052586Y-77610143D01*
X166914059Y-77610143D01*
X166776341Y-77625121D01*
X166710143Y-77647425D01*
X166710143Y-76623296D01*
X166710142Y-76623295D01*
X166696192Y-76624294D01*
X166696182Y-76624296D01*
X166437614Y-76680543D01*
X166189655Y-76773027D01*
X165957407Y-76899844D01*
X165957406Y-76899845D01*
X165745557Y-77058434D01*
X165745545Y-77058444D01*
X165558444Y-77245545D01*
X165558434Y-77245557D01*
X165399845Y-77457406D01*
X165399844Y-77457407D01*
X165273027Y-77689655D01*
X165180543Y-77937614D01*
X165124296Y-78196180D01*
X165124295Y-78196188D01*
X165123297Y-78210142D01*
X165123297Y-78210143D01*
X166144767Y-78210143D01*
X166136296Y-78231403D01*
X166106385Y-78413854D01*
X166116394Y-78598469D01*
X166147401Y-78710143D01*
X165140106Y-78710143D01*
X165073067Y-78690458D01*
X165052425Y-78673824D01*
X164237500Y-77858899D01*
X164204015Y-77797576D01*
X164208999Y-77727884D01*
X164250871Y-77671951D01*
X164288637Y-77652725D01*
X164294282Y-77650983D01*
X164294287Y-77650983D01*
X164416643Y-77592059D01*
X164440180Y-77572558D01*
X165905917Y-76106818D01*
X165967240Y-76073334D01*
X165993598Y-76070500D01*
X166438392Y-76070500D01*
X167755343Y-76070500D01*
X167761424Y-76070799D01*
G37*
%TD.AperFunction*%
%TA.AperFunction,Conductor*%
G36*
X162463039Y-68852185D02*
G01*
X162508794Y-68904989D01*
X162520000Y-68956500D01*
X162520000Y-70094999D01*
X162769972Y-70094999D01*
X162769986Y-70094998D01*
X162872697Y-70084505D01*
X163039119Y-70029358D01*
X163039124Y-70029356D01*
X163188345Y-69937315D01*
X163312315Y-69813345D01*
X163404356Y-69664124D01*
X163404359Y-69664116D01*
X163412041Y-69640933D01*
X163451811Y-69583486D01*
X163516326Y-69556661D01*
X163585102Y-69568973D01*
X163630594Y-69611212D01*
X163631689Y-69610405D01*
X163635966Y-69616200D01*
X163636304Y-69616514D01*
X163636641Y-69617116D01*
X163640897Y-69622882D01*
X163717850Y-69727150D01*
X163827118Y-69807793D01*
X163842985Y-69813345D01*
X163955299Y-69852646D01*
X163985730Y-69855500D01*
X163985734Y-69855500D01*
X164160981Y-69855500D01*
X164228020Y-69875185D01*
X164248662Y-69891819D01*
X165620899Y-71264056D01*
X165623435Y-71266750D01*
X165664571Y-71313183D01*
X165715630Y-71348427D01*
X165718612Y-71350621D01*
X165767444Y-71388878D01*
X165775321Y-71392423D01*
X165828377Y-71437886D01*
X165848431Y-71504816D01*
X165829117Y-71571963D01*
X165776566Y-71618008D01*
X165724433Y-71629500D01*
X164404657Y-71629500D01*
X164398576Y-71629201D01*
X164350000Y-71624417D01*
X164301424Y-71629201D01*
X164295343Y-71629500D01*
X163244657Y-71629500D01*
X163238576Y-71629201D01*
X163190000Y-71624417D01*
X163189992Y-71624417D01*
X163189240Y-71624491D01*
X163188850Y-71624417D01*
X163183908Y-71624417D01*
X163183908Y-71623478D01*
X163120596Y-71611462D01*
X163089424Y-71588767D01*
X161807337Y-70306680D01*
X161773852Y-70245357D01*
X161778836Y-70175665D01*
X161820708Y-70119732D01*
X161886172Y-70095315D01*
X161895018Y-70094999D01*
X162019999Y-70094999D01*
X162020000Y-70094998D01*
X162020000Y-68956500D01*
X162039685Y-68889461D01*
X162092489Y-68843706D01*
X162144000Y-68832500D01*
X162396000Y-68832500D01*
X162463039Y-68852185D01*
G37*
%TD.AperFunction*%
%TD*%
M02*
