M48
; DRILL file {KiCad 7.0.9} date Mon Dec 16 15:21:01 2024
; FORMAT={-:-/ absolute / metric / decimal}
; #@! TF.CreationDate,2024-12-16T15:21:01+09:00
; #@! TF.GenerationSoftware,Kicad,Pcbnew,7.0.9
; #@! TF.FileFunction,Plated,1,2,PTH
FMAT,2
METRIC
; #@! TA.AperFunction,Plated,PTH,ViaDrill
T1C0.400
; #@! TA.AperFunction,Plated,PTH,ComponentDrill
T2C0.800
; #@! TA.AperFunction,Plated,PTH,ComponentDrill
T3C0.950
; #@! TA.AperFunction,Plated,PTH,ComponentDrill
T4C1.000
; #@! TA.AperFunction,Plated,PTH,ComponentDrill
T5C1.700
%
G90
G05
T1
X153.289Y-56.845
X163.69Y-70.75
X166.37Y-65.73
X170.231Y-58.039
X187.046Y-70.536
X187.528Y-67.894
X193.243Y-70.637
X194.488Y-57.988
X199.644Y-72.288
X199.771Y-77.216
X212.573Y-56.591
T2
X160.74Y-56.78
X160.74Y-59.32
X168.36Y-56.78
X168.36Y-59.32
X198.81Y-56.975
X198.81Y-59.515
X206.43Y-56.975
X206.43Y-59.515
T3
X201.43Y-78.66
X203.198Y-76.892
X204.966Y-75.124
T4
X148.82Y-55.37
X151.32Y-55.37
X173.72Y-77.031
X176.26Y-77.031
X178.8Y-77.031
X188.83Y-76.98
X191.37Y-76.98
X193.91Y-76.98
X209.64Y-70.88
X211.408Y-69.112
X215.89Y-55.28
X218.39Y-55.28
T5
X164.16Y-75.66
X166.96Y-78.46
T0
M30
