%TF.GenerationSoftware,KiCad,Pcbnew,7.0.9*%
%TF.CreationDate,2024-12-16T15:20:58+09:00*%
%TF.ProjectId,kicker,6b69636b-6572-42e6-9b69-6361645f7063,rev?*%
%TF.SameCoordinates,Original*%
%TF.FileFunction,Profile,NP*%
%FSLAX46Y46*%
G04 Gerber Fmt 4.6, Leading zero omitted, Abs format (unit mm)*
G04 Created by KiCad (PCBNEW 7.0.9) date 2024-12-16 15:20:58*
%MOMM*%
%LPD*%
G01*
G04 APERTURE LIST*
%TA.AperFunction,Profile*%
%ADD10C,0.200000*%
%TD*%
G04 APERTURE END LIST*
D10*
X219247845Y-46268187D02*
G75*
G03*
X219247846Y-49096613I1414155J-1414213D01*
G01*
X143011214Y-54090187D02*
G75*
G03*
X143011201Y-56918599I1414186J-1414213D01*
G01*
X151692219Y-42909416D02*
G75*
G03*
X153939549Y-43354206I1441981J1385916D01*
G01*
X143011200Y-56918600D02*
X149935190Y-63842590D01*
X150443720Y-68876607D02*
G75*
G03*
X150570864Y-70135119I834280J-551393D01*
G01*
X187748777Y-80038884D02*
G75*
G03*
X185811267Y-81057979I-189477J-1991116D01*
G01*
X150570864Y-70135119D02*
X163651056Y-83215310D01*
X148004758Y-49096613D02*
G75*
G03*
X148004758Y-46268188I-1414258J1414213D01*
G01*
X213325115Y-43381715D02*
G75*
G03*
X215545208Y-42925224I778185J1842215D01*
G01*
X216140267Y-42306087D02*
X215545208Y-42925224D01*
X219745208Y-45770834D02*
G75*
G03*
X216140268Y-42306088I-1802508J1732334D01*
G01*
X201371464Y-83627120D02*
G75*
G03*
X187748777Y-80038884I-17745164J-39715980D01*
G01*
X217317403Y-63842579D02*
G75*
G03*
X216808876Y-68876613I2828397J-2828421D01*
G01*
X150443715Y-68876604D02*
G75*
G03*
X149935190Y-63842590I-3336915J2205604D01*
G01*
X219247845Y-46268187D02*
X219745203Y-45770829D01*
X216681732Y-70135111D02*
G75*
G03*
X216808875Y-68876613I-707132J707111D01*
G01*
X185276302Y-79843101D02*
G75*
G03*
X185276302Y-79843101I-1650000J0D01*
G01*
X213325085Y-43381787D02*
G75*
G03*
X211187919Y-43756864I-778185J-1842213D01*
G01*
X148004759Y-49096614D02*
X143011200Y-54090173D01*
X150959869Y-44038458D02*
G75*
G03*
X150959869Y-44038458I-1650000J0D01*
G01*
X179503827Y-80038885D02*
G75*
G03*
X165881139Y-83627120I4122473J-43304215D01*
G01*
X156105950Y-43719442D02*
G75*
G03*
X153939549Y-43354208I-1361050J-1465458D01*
G01*
X156105962Y-43719429D02*
G75*
G03*
X211187918Y-43756863I27561158J29675459D01*
G01*
X151692211Y-42909424D02*
X151112337Y-42306087D01*
X203601548Y-83215310D02*
X216681740Y-70135119D01*
X151112327Y-42306097D02*
G75*
G03*
X147507401Y-45770829I-1802427J-1732403D01*
G01*
X181441329Y-81057984D02*
G75*
G03*
X179503827Y-80038884I-1747929J-971816D01*
G01*
X201371486Y-83627071D02*
G75*
G03*
X203601548Y-83215310I815914J1825871D01*
G01*
X181441339Y-81057979D02*
G75*
G03*
X185811265Y-81057979I2184963J1214877D01*
G01*
X163651066Y-83215300D02*
G75*
G03*
X165881139Y-83627118I1414234J1414300D01*
G01*
X224241417Y-56918613D02*
G75*
G03*
X224241403Y-54090174I-1414217J1414213D01*
G01*
X224241404Y-54090173D02*
X219247845Y-49096614D01*
X217317414Y-63842590D02*
X224241404Y-56918600D01*
X147507401Y-45770829D02*
X148004759Y-46268187D01*
X219592735Y-44038458D02*
G75*
G03*
X219592735Y-44038458I-1650000J0D01*
G01*
M02*
