%TF.GenerationSoftware,KiCad,Pcbnew,7.0.9*%
%TF.CreationDate,2024-12-16T15:20:58+09:00*%
%TF.ProjectId,kicker,6b69636b-6572-42e6-9b69-6361645f7063,rev?*%
%TF.SameCoordinates,Original*%
%TF.FileFunction,Legend,Bot*%
%TF.FilePolarity,Positive*%
%FSLAX46Y46*%
G04 Gerber Fmt 4.6, Leading zero omitted, Abs format (unit mm)*
G04 Created by KiCad (PCBNEW 7.0.9) date 2024-12-16 15:20:58*
%MOMM*%
%LPD*%
G01*
G04 APERTURE LIST*
%ADD10C,0.010000*%
G04 APERTURE END LIST*
%TO.C,G\u002A\u002A\u002A*%
G36*
X194009946Y-60809469D02*
G01*
X193983921Y-60844264D01*
X193957896Y-60809469D01*
X193983921Y-60774675D01*
X194009946Y-60809469D01*
G37*
G36*
X193749700Y-60600702D02*
G01*
X193723675Y-60635497D01*
X193697651Y-60600702D01*
X193723675Y-60565908D01*
X193749700Y-60600702D01*
G37*
G36*
X193073060Y-59208921D02*
G01*
X193047036Y-59243716D01*
X193021011Y-59208921D01*
X193047036Y-59174127D01*
X193073060Y-59208921D01*
G37*
G36*
X182207794Y-58985331D02*
G01*
X182533101Y-59140307D01*
X182547149Y-60618587D01*
X182561196Y-62096866D01*
X182221841Y-62096866D01*
X181882487Y-62096866D01*
X181882487Y-60463611D01*
X181882487Y-58830356D01*
X182207794Y-58985331D01*
G37*
G36*
X193170763Y-59371440D02*
G01*
X193194980Y-59413813D01*
X193248040Y-59458426D01*
X193251073Y-59458045D01*
X193229208Y-59487277D01*
X193255233Y-59522072D01*
X193281257Y-59487277D01*
X193258681Y-59457091D01*
X193309584Y-59450709D01*
X193369842Y-59465741D01*
X193335052Y-59519157D01*
X193258543Y-59541577D01*
X193166367Y-59481828D01*
X193125907Y-59356976D01*
X193133019Y-59326255D01*
X193170763Y-59371440D01*
G37*
G36*
X194333960Y-60103587D02*
G01*
X194397718Y-60081665D01*
X194440933Y-60050662D01*
X194461039Y-60114684D01*
X194460835Y-60127605D01*
X194440181Y-60194463D01*
X194369119Y-60203055D01*
X194224246Y-60157623D01*
X194168684Y-60134477D01*
X194133535Y-60090881D01*
X194166182Y-60043990D01*
X194218142Y-60043990D01*
X194244167Y-60078784D01*
X194270192Y-60043990D01*
X194244167Y-60009195D01*
X194218142Y-60043990D01*
X194166182Y-60043990D01*
X194184594Y-60017544D01*
X194200819Y-60000020D01*
X194263533Y-59962755D01*
X194301679Y-60037928D01*
X194304659Y-60043990D01*
X194333960Y-60103587D01*
G37*
G36*
X192975664Y-60225381D02*
G01*
X192991927Y-60355068D01*
X192990863Y-60504116D01*
X192974018Y-60620023D01*
X192942937Y-60650291D01*
X192924784Y-60647831D01*
X192955998Y-60716332D01*
X192996173Y-60837220D01*
X193008360Y-60996881D01*
X192990722Y-61134243D01*
X192944597Y-61193274D01*
X192928028Y-61207886D01*
X192968962Y-61268161D01*
X192985133Y-61283579D01*
X193020636Y-61326351D01*
X192968962Y-61313790D01*
X192931661Y-61276664D01*
X192894799Y-61136210D01*
X192874955Y-60876460D01*
X192872453Y-60796268D01*
X192874058Y-60523441D01*
X192890667Y-60312396D01*
X192919263Y-60188856D01*
X192956828Y-60178542D01*
X192975664Y-60225381D01*
G37*
G36*
X194811755Y-60103079D02*
G01*
X194799332Y-60140590D01*
X194757474Y-60192366D01*
X194804052Y-60236634D01*
X194843698Y-60247238D01*
X194950177Y-60215197D01*
X194990573Y-60194254D01*
X195061771Y-60239033D01*
X195090016Y-60285096D01*
X195102181Y-60235360D01*
X195118166Y-60167904D01*
X195171640Y-60159367D01*
X195224441Y-60247676D01*
X195227577Y-60260215D01*
X195216424Y-60310766D01*
X195141285Y-60327871D01*
X194982776Y-60317099D01*
X194885044Y-60306539D01*
X194727814Y-60290625D01*
X194630198Y-60282187D01*
X194563619Y-60260312D01*
X194548485Y-60200439D01*
X194601372Y-60135399D01*
X194708323Y-60098082D01*
X194726675Y-60096522D01*
X194811755Y-60103079D01*
G37*
G36*
X193158641Y-60113332D02*
G01*
X193214321Y-60126788D01*
X193292636Y-60143049D01*
X193307595Y-60164686D01*
X193296803Y-60264173D01*
X193286100Y-60325500D01*
X193314518Y-60337870D01*
X193329542Y-60333647D01*
X193408105Y-60381543D01*
X193509948Y-60500427D01*
X193539301Y-60539958D01*
X193648748Y-60657703D01*
X193731159Y-60705086D01*
X193764743Y-60714383D01*
X193775142Y-60775934D01*
X193749920Y-60790678D01*
X193666392Y-60758103D01*
X193562820Y-60677489D01*
X193474669Y-60578695D01*
X193437405Y-60491580D01*
X193431663Y-60465751D01*
X193368404Y-60426729D01*
X193365116Y-60426553D01*
X193281952Y-60374524D01*
X193180726Y-60257834D01*
X193113378Y-60156367D01*
X193102027Y-60108807D01*
X193158641Y-60113332D01*
G37*
G36*
X193614110Y-59742665D02*
G01*
X193604338Y-59789449D01*
X193663088Y-59779643D01*
X193710780Y-59765370D01*
X193749700Y-59796484D01*
X193781731Y-59832131D01*
X193878373Y-59838877D01*
X193957646Y-59841808D01*
X193979399Y-59879799D01*
X193977488Y-59911145D01*
X194035970Y-59939606D01*
X194075541Y-59950844D01*
X194086457Y-60012574D01*
X194059443Y-60046915D01*
X193987511Y-60013178D01*
X193950999Y-59983559D01*
X193888046Y-59986603D01*
X193874691Y-59997994D01*
X193853798Y-59951204D01*
X193851481Y-59924203D01*
X193814761Y-59878258D01*
X193666505Y-59868757D01*
X193482208Y-59735414D01*
X193447923Y-59696044D01*
X193489454Y-59696044D01*
X193515478Y-59730839D01*
X193541503Y-59696044D01*
X193515478Y-59661250D01*
X193489454Y-59696044D01*
X193447923Y-59696044D01*
X193412599Y-59655480D01*
X193399909Y-59617620D01*
X193463429Y-59625706D01*
X193527479Y-59640241D01*
X193609636Y-59655926D01*
X193624372Y-59666764D01*
X193620413Y-59696044D01*
X193614110Y-59742665D01*
G37*
G36*
X180410043Y-58902496D02*
G01*
X180682140Y-58939879D01*
X180885090Y-59017614D01*
X181038444Y-59144226D01*
X181161753Y-59328240D01*
X181260613Y-59582048D01*
X181301209Y-59912318D01*
X181258967Y-60235245D01*
X181143843Y-60527325D01*
X180965792Y-60765054D01*
X180734768Y-60924927D01*
X180460726Y-60983442D01*
X180364105Y-60989223D01*
X180288149Y-61028598D01*
X180268962Y-61122620D01*
X180269233Y-61140055D01*
X180280732Y-61196381D01*
X180322701Y-61232031D01*
X180413546Y-61251693D01*
X180571670Y-61260053D01*
X180815478Y-61261798D01*
X181361995Y-61261798D01*
X181361995Y-61714127D01*
X181361995Y-62166455D01*
X180776442Y-62166347D01*
X180690506Y-62165787D01*
X180375132Y-62148555D01*
X180138881Y-62100756D01*
X179962312Y-62013637D01*
X179825988Y-61878449D01*
X179710471Y-61686438D01*
X179633196Y-61478632D01*
X179590836Y-61137654D01*
X179631350Y-60793280D01*
X179749014Y-60481878D01*
X179938107Y-60239818D01*
X179991142Y-60201868D01*
X180157511Y-60125811D01*
X180343973Y-60079462D01*
X180449437Y-60060983D01*
X180570008Y-60012613D01*
X180607282Y-59939606D01*
X180607105Y-59933504D01*
X180582953Y-59883929D01*
X180506107Y-59850639D01*
X180359440Y-59829209D01*
X180125827Y-59815214D01*
X179644372Y-59795205D01*
X179644372Y-59345488D01*
X179644372Y-58895771D01*
X180170010Y-58895771D01*
X180410043Y-58902496D01*
G37*
G36*
X190930401Y-60426729D02*
G01*
X191398011Y-62062072D01*
X191077442Y-62097081D01*
X190926639Y-62108132D01*
X190784850Y-62105840D01*
X190713472Y-62087769D01*
X190675865Y-62006591D01*
X190616919Y-61831089D01*
X190550092Y-61600430D01*
X190430111Y-61157414D01*
X189865976Y-61157414D01*
X189301841Y-61157414D01*
X189172068Y-61627140D01*
X189042295Y-62096866D01*
X188685933Y-62096866D01*
X188683459Y-62096866D01*
X188496781Y-62092950D01*
X188393864Y-62076330D01*
X188354651Y-62039533D01*
X188359088Y-61975086D01*
X188367065Y-61944911D01*
X188408797Y-61794493D01*
X188480695Y-61538971D01*
X188578021Y-61195073D01*
X188696034Y-60779531D01*
X188829996Y-60309073D01*
X188836139Y-60287551D01*
X189536335Y-60287551D01*
X189847320Y-60287551D01*
X189986191Y-60282492D01*
X190115505Y-60254666D01*
X190155265Y-60200565D01*
X190154521Y-60191808D01*
X190132548Y-60084190D01*
X190087402Y-59904838D01*
X190028654Y-59687613D01*
X189965875Y-59466375D01*
X189908634Y-59274984D01*
X189866503Y-59147302D01*
X189849053Y-59117188D01*
X189845962Y-59134963D01*
X189816123Y-59258423D01*
X189761659Y-59466523D01*
X189691173Y-59726092D01*
X189536335Y-60287551D01*
X188836139Y-60287551D01*
X188975167Y-59800428D01*
X189561728Y-57747551D01*
X189866367Y-57747551D01*
X190171006Y-57747551D01*
X190316899Y-58269469D01*
X190350205Y-58388024D01*
X190429832Y-58669592D01*
X190534931Y-59039796D01*
X190658236Y-59473086D01*
X190792481Y-59943913D01*
X190865796Y-60200565D01*
X190930401Y-60426729D01*
G37*
G36*
X188151389Y-60104070D02*
G01*
X188209624Y-60455256D01*
X188206969Y-60760741D01*
X188201696Y-60796332D01*
X188080805Y-61248952D01*
X187876952Y-61629681D01*
X187602441Y-61920876D01*
X187269577Y-62104894D01*
X187072077Y-62140321D01*
X186774010Y-62100969D01*
X186483528Y-61970716D01*
X186240059Y-61762668D01*
X186194614Y-61697942D01*
X186191311Y-61629604D01*
X186243237Y-61529159D01*
X186360151Y-61364227D01*
X186572875Y-61074436D01*
X186778363Y-61210364D01*
X186978057Y-61301379D01*
X187166586Y-61277972D01*
X187354081Y-61125818D01*
X187477774Y-60988072D01*
X186661071Y-60985757D01*
X186493369Y-60983910D01*
X186232102Y-60975040D01*
X186019544Y-60960224D01*
X185874156Y-60940926D01*
X185814399Y-60918610D01*
X185810256Y-60908467D01*
X185792855Y-60750145D01*
X185811381Y-60510420D01*
X185859056Y-60230139D01*
X185896474Y-60080571D01*
X186566913Y-60080571D01*
X186571805Y-60091173D01*
X186648267Y-60120797D01*
X186801137Y-60140941D01*
X187009331Y-60148373D01*
X187090956Y-60147246D01*
X187275469Y-60135080D01*
X187403697Y-60112393D01*
X187451749Y-60082730D01*
X187431168Y-60014590D01*
X187336670Y-59911932D01*
X187196992Y-59832384D01*
X187047214Y-59800428D01*
X187028969Y-59800940D01*
X186877546Y-59834073D01*
X186727518Y-59904873D01*
X186612700Y-59993614D01*
X186566913Y-60080571D01*
X185896474Y-60080571D01*
X185929101Y-59950152D01*
X186014738Y-59711307D01*
X186219226Y-59375090D01*
X186479624Y-59135722D01*
X186775167Y-58998448D01*
X187086518Y-58965300D01*
X187394339Y-59038308D01*
X187679293Y-59219505D01*
X187922043Y-59510923D01*
X188044445Y-59760610D01*
X188144744Y-60082730D01*
X188151389Y-60104070D01*
G37*
G36*
X185524939Y-60593561D02*
G01*
X185463978Y-61008655D01*
X185323852Y-61391597D01*
X185108851Y-61718295D01*
X184823265Y-61964658D01*
X184724052Y-62015243D01*
X184473231Y-62082120D01*
X184213218Y-62087995D01*
X183993867Y-62029000D01*
X183942693Y-62007015D01*
X183870098Y-62008930D01*
X183869720Y-62075454D01*
X183936936Y-62187771D01*
X184067121Y-62327064D01*
X184164553Y-62395179D01*
X184383768Y-62439747D01*
X184614162Y-62363113D01*
X184673567Y-62332190D01*
X184747474Y-62330983D01*
X184831110Y-62398386D01*
X184954930Y-62551209D01*
X185038695Y-62664865D01*
X185127228Y-62798531D01*
X185161585Y-62870793D01*
X185145175Y-62907834D01*
X185060032Y-62999848D01*
X184929232Y-63109052D01*
X184783453Y-63210734D01*
X184653374Y-63280178D01*
X184646061Y-63283081D01*
X184335336Y-63335808D01*
X184024202Y-63263422D01*
X183730849Y-63077366D01*
X183473466Y-62789084D01*
X183270241Y-62410017D01*
X183235092Y-62316075D01*
X183200779Y-62189058D01*
X183178355Y-62033974D01*
X183165404Y-61823052D01*
X183159511Y-61528524D01*
X183158260Y-61122620D01*
X183158590Y-60974944D01*
X183164877Y-60554640D01*
X183170481Y-60458231D01*
X183813674Y-60458231D01*
X183836408Y-60746791D01*
X183950889Y-60989168D01*
X184151757Y-61164765D01*
X184247281Y-61216596D01*
X184347914Y-61251021D01*
X184440999Y-61231455D01*
X184577980Y-61156955D01*
X184656831Y-61095374D01*
X184794003Y-60889859D01*
X184872701Y-60625271D01*
X184874439Y-60351813D01*
X184843430Y-60235187D01*
X184719216Y-60017752D01*
X184542359Y-59860783D01*
X184347407Y-59800428D01*
X184178475Y-59822540D01*
X184009091Y-59931486D01*
X183886919Y-60146980D01*
X183813674Y-60458231D01*
X183170481Y-60458231D01*
X183183347Y-60236902D01*
X183219493Y-59993585D01*
X183278812Y-59796544D01*
X183366796Y-59617635D01*
X183488941Y-59428712D01*
X183521275Y-59383923D01*
X183787895Y-59119023D01*
X184089963Y-58969086D01*
X184407929Y-58933296D01*
X184722244Y-59010838D01*
X185013357Y-59200896D01*
X185261719Y-59502655D01*
X185392204Y-59763279D01*
X185502444Y-60170405D01*
X185512088Y-60351813D01*
X185524939Y-60593561D01*
G37*
G36*
X194276253Y-61049578D02*
G01*
X194382750Y-61131991D01*
X194426339Y-61197251D01*
X194459055Y-61227028D01*
X194556462Y-61230445D01*
X194642616Y-61233971D01*
X194686585Y-61275474D01*
X194689545Y-61295046D01*
X194735038Y-61299564D01*
X194756108Y-61290039D01*
X194818376Y-61334996D01*
X194842758Y-61365308D01*
X194928041Y-61372099D01*
X194967135Y-61365551D01*
X195030474Y-61430080D01*
X195056796Y-61475934D01*
X195145614Y-61503820D01*
X195191205Y-61492634D01*
X195273427Y-61475889D01*
X195313173Y-61427406D01*
X195363224Y-61296592D01*
X195407960Y-61180011D01*
X195457360Y-61122620D01*
X195477845Y-61110917D01*
X195502022Y-61018236D01*
X195497164Y-60970382D01*
X195458648Y-60913853D01*
X195457728Y-60913806D01*
X195427712Y-60850321D01*
X195415274Y-60702637D01*
X195391111Y-60510062D01*
X195324187Y-60304178D01*
X195233101Y-60116934D01*
X195377638Y-60254434D01*
X195420109Y-60297796D01*
X195496785Y-60431517D01*
X195505626Y-60613218D01*
X195504272Y-60633700D01*
X195507615Y-60764510D01*
X195532639Y-60798506D01*
X195560331Y-60813754D01*
X195555974Y-60921074D01*
X195525235Y-61087392D01*
X195476025Y-61277682D01*
X195416256Y-61456916D01*
X195393547Y-61505360D01*
X195360927Y-61574949D01*
X195353841Y-61590065D01*
X195341750Y-61608512D01*
X195253409Y-61675811D01*
X195180527Y-61608608D01*
X195166199Y-61586656D01*
X195099014Y-61578224D01*
X195068397Y-61582732D01*
X195063197Y-61574949D01*
X195207077Y-61574949D01*
X195233101Y-61609743D01*
X195259126Y-61574949D01*
X195233101Y-61540154D01*
X195207077Y-61574949D01*
X195063197Y-61574949D01*
X195018459Y-61507994D01*
X195017131Y-61505360D01*
X195311175Y-61505360D01*
X195337200Y-61540154D01*
X195363224Y-61505360D01*
X195337200Y-61470565D01*
X195311175Y-61505360D01*
X195017131Y-61505360D01*
X194985691Y-61442986D01*
X194920806Y-61470565D01*
X194867017Y-61501598D01*
X194819986Y-61422100D01*
X194815229Y-61405905D01*
X194780673Y-61340478D01*
X194736631Y-61402926D01*
X194705868Y-61453351D01*
X194687382Y-61420557D01*
X194675633Y-61382500D01*
X194608511Y-61375811D01*
X194567560Y-61384292D01*
X194530437Y-61327234D01*
X194527005Y-61293595D01*
X194495555Y-61285238D01*
X194438495Y-61288155D01*
X194339408Y-61225643D01*
X194254961Y-61163268D01*
X194218142Y-61160263D01*
X194207790Y-61165242D01*
X194133816Y-61129804D01*
X194012062Y-61046260D01*
X193977918Y-61018236D01*
X194114044Y-61018236D01*
X194140069Y-61053031D01*
X194166093Y-61018236D01*
X194140069Y-60983442D01*
X194114044Y-61018236D01*
X193977918Y-61018236D01*
X193950474Y-60995711D01*
X193858828Y-60895074D01*
X193836396Y-60825610D01*
X193853176Y-60802630D01*
X193901601Y-60835077D01*
X193936582Y-60879677D01*
X194038230Y-60935400D01*
X194143251Y-60974574D01*
X194220675Y-61018236D01*
X194276253Y-61049578D01*
G37*
G36*
X193437405Y-61975208D02*
G01*
X193451767Y-62030144D01*
X193515478Y-62141602D01*
X193566228Y-62193463D01*
X193593552Y-62166455D01*
X193611470Y-62138235D01*
X193675344Y-62196279D01*
X193733850Y-62261057D01*
X193808539Y-62305634D01*
X193827797Y-62314630D01*
X193822307Y-62387048D01*
X193811439Y-62432200D01*
X193863630Y-62427954D01*
X193936020Y-62434041D01*
X194031522Y-62526312D01*
X194101798Y-62605398D01*
X194208336Y-62617861D01*
X194257521Y-62593474D01*
X194351215Y-62557763D01*
X194362330Y-62553134D01*
X194444864Y-62483713D01*
X194530437Y-62483713D01*
X194530944Y-62493441D01*
X194561074Y-62508766D01*
X194613481Y-62434060D01*
X194626146Y-62395170D01*
X194590529Y-62403372D01*
X194567407Y-62424854D01*
X194530437Y-62483713D01*
X194444864Y-62483713D01*
X194444956Y-62483636D01*
X194554065Y-62361689D01*
X194578887Y-62332713D01*
X194698774Y-62231172D01*
X194795347Y-62202451D01*
X194853102Y-62201244D01*
X194860355Y-62127479D01*
X194860410Y-62061735D01*
X194928418Y-61979056D01*
X194997725Y-61928236D01*
X195102978Y-61804898D01*
X195173344Y-61727717D01*
X195259126Y-61748256D01*
X195279742Y-61767458D01*
X195292614Y-61806673D01*
X195211414Y-61817445D01*
X195135814Y-61828519D01*
X195116321Y-61859545D01*
X195110754Y-61919149D01*
X195049590Y-62032765D01*
X194956501Y-62159705D01*
X194858988Y-62262988D01*
X194784556Y-62305634D01*
X194724677Y-62336659D01*
X194682808Y-62395170D01*
X194645354Y-62447512D01*
X194592454Y-62530635D01*
X194536301Y-62554040D01*
X194531557Y-62551410D01*
X194465249Y-62584136D01*
X194372783Y-62690518D01*
X194317951Y-62757962D01*
X194271099Y-62815591D01*
X194193587Y-62858374D01*
X194166093Y-62788650D01*
X194162006Y-62763480D01*
X194114044Y-62757962D01*
X194218142Y-62757962D01*
X194244167Y-62792757D01*
X194270192Y-62757962D01*
X194244167Y-62723168D01*
X194218142Y-62757962D01*
X194114044Y-62757962D01*
X194093882Y-62768836D01*
X194061995Y-62727275D01*
X194052039Y-62692014D01*
X193980849Y-62653579D01*
X193943530Y-62644398D01*
X193929572Y-62588965D01*
X193921009Y-62541769D01*
X193841558Y-62500327D01*
X193770105Y-62464989D01*
X193737511Y-62387664D01*
X193735244Y-62347947D01*
X193678495Y-62319727D01*
X193642415Y-62314082D01*
X193622782Y-62301348D01*
X193645601Y-62270839D01*
X193619577Y-62236044D01*
X193593552Y-62270839D01*
X193610334Y-62293275D01*
X193542105Y-62249026D01*
X193419985Y-62138198D01*
X193303933Y-62010692D01*
X193221831Y-61895604D01*
X193208124Y-61845856D01*
X193242292Y-61845856D01*
X193280268Y-61921301D01*
X193307993Y-61963990D01*
X193367209Y-62023478D01*
X193385355Y-61965134D01*
X193373241Y-61927119D01*
X193299920Y-61859157D01*
X193283416Y-61850960D01*
X193242292Y-61845856D01*
X193208124Y-61845856D01*
X193201558Y-61822026D01*
X193194461Y-61778362D01*
X193119287Y-61726722D01*
X193059079Y-61686778D01*
X193044871Y-61614427D01*
X193054143Y-61583396D01*
X193024083Y-61540154D01*
X193008975Y-61537480D01*
X192968962Y-61470565D01*
X192969264Y-61458736D01*
X192998381Y-61400101D01*
X193052679Y-61435031D01*
X193100330Y-61545398D01*
X193127282Y-61627732D01*
X193160343Y-61655422D01*
X193170598Y-61650768D01*
X193236187Y-61690799D01*
X193325247Y-61784450D01*
X193403683Y-61892369D01*
X193433304Y-61965134D01*
X193437405Y-61975208D01*
G37*
G36*
X194590079Y-58416893D02*
G01*
X194592112Y-58443442D01*
X194596888Y-58505809D01*
X194595811Y-58532662D01*
X194650569Y-58487113D01*
X194681035Y-58457400D01*
X194738999Y-58446900D01*
X194746577Y-58558086D01*
X194763940Y-58577836D01*
X194843879Y-58567588D01*
X194907902Y-58563223D01*
X194978301Y-58646090D01*
X194981512Y-58652209D01*
X195016195Y-58718292D01*
X195083032Y-58680259D01*
X195136282Y-58635769D01*
X195155028Y-58682590D01*
X195161762Y-58714728D01*
X195215119Y-58715153D01*
X195242017Y-58698839D01*
X195241503Y-58738417D01*
X195254332Y-58800501D01*
X195342153Y-58856420D01*
X195369225Y-58866224D01*
X195438941Y-58917247D01*
X195420318Y-58992027D01*
X195396631Y-59044555D01*
X195399003Y-59129176D01*
X195403700Y-59139656D01*
X195424461Y-59256297D01*
X195446031Y-59465860D01*
X195464428Y-59731678D01*
X195468431Y-59811321D01*
X195475364Y-60054059D01*
X195471984Y-60223719D01*
X195458633Y-60287551D01*
X195422069Y-60252954D01*
X195390250Y-60120053D01*
X195367590Y-59874804D01*
X195352281Y-59503890D01*
X195342955Y-59264124D01*
X195324766Y-59073343D01*
X195294232Y-58969854D01*
X195246114Y-58925091D01*
X195197600Y-58893805D01*
X195155028Y-58817385D01*
X195152454Y-58796927D01*
X195108515Y-58786812D01*
X195094917Y-58790143D01*
X195001085Y-58766492D01*
X194845868Y-58701509D01*
X194747839Y-58652209D01*
X194894782Y-58652209D01*
X194920806Y-58687003D01*
X194946831Y-58652209D01*
X194920806Y-58617414D01*
X194894782Y-58652209D01*
X194747839Y-58652209D01*
X194654659Y-58605348D01*
X194587857Y-58569769D01*
X194403967Y-58477085D01*
X194329087Y-58443442D01*
X194478388Y-58443442D01*
X194504413Y-58478236D01*
X194530437Y-58443442D01*
X194504413Y-58408647D01*
X194478388Y-58443442D01*
X194329087Y-58443442D01*
X194263877Y-58414144D01*
X194193692Y-58392971D01*
X194111558Y-58412086D01*
X193991249Y-58448596D01*
X193905847Y-58481153D01*
X193840786Y-58486477D01*
X193831077Y-58486620D01*
X193801749Y-58547825D01*
X193797162Y-58573455D01*
X193736687Y-58617843D01*
X193734834Y-58617895D01*
X193643883Y-58650406D01*
X193523867Y-58721798D01*
X193518901Y-58724752D01*
X193512817Y-58728929D01*
X193388040Y-58790548D01*
X193297692Y-58796096D01*
X193266706Y-58787029D01*
X193229208Y-58823676D01*
X193210451Y-58867860D01*
X193127772Y-58929435D01*
X193078737Y-58962930D01*
X193006101Y-59079025D01*
X192981762Y-59214123D01*
X193020998Y-59313294D01*
X193053354Y-59352042D01*
X193026568Y-59413097D01*
X192975741Y-59504594D01*
X192988804Y-59662762D01*
X193078566Y-59843058D01*
X193139938Y-59935075D01*
X193142358Y-59938703D01*
X193151509Y-59983165D01*
X193091578Y-59979180D01*
X193035390Y-59977440D01*
X192967285Y-60016035D01*
X192952488Y-59990313D01*
X192937733Y-59857095D01*
X192935232Y-59804959D01*
X192981723Y-59804959D01*
X192994987Y-59870017D01*
X193005680Y-59890617D01*
X193053179Y-59939606D01*
X193060299Y-59935075D01*
X193047036Y-59870017D01*
X193036342Y-59849417D01*
X192988843Y-59800428D01*
X192981723Y-59804959D01*
X192935232Y-59804959D01*
X192927544Y-59644733D01*
X192927794Y-59458399D01*
X192944734Y-59196191D01*
X192976536Y-58972097D01*
X193017940Y-58819804D01*
X193063685Y-58772997D01*
X193115231Y-58760468D01*
X193179101Y-58721798D01*
X193281257Y-58721798D01*
X193307282Y-58756592D01*
X193333306Y-58721798D01*
X193307282Y-58687003D01*
X193281257Y-58721798D01*
X193179101Y-58721798D01*
X193216196Y-58699339D01*
X193295128Y-58652853D01*
X193333306Y-58658281D01*
X193347277Y-58669174D01*
X193409100Y-58619944D01*
X193460057Y-58582708D01*
X193547265Y-58587381D01*
X193577168Y-58605564D01*
X193575115Y-58564240D01*
X193573130Y-58559259D01*
X193599426Y-58494074D01*
X193709445Y-58439978D01*
X193855977Y-58379922D01*
X193865517Y-58373853D01*
X194374290Y-58373853D01*
X194400315Y-58408647D01*
X194426339Y-58373853D01*
X194400315Y-58339058D01*
X194374290Y-58373853D01*
X193865517Y-58373853D01*
X193983158Y-58299015D01*
X194081932Y-58252881D01*
X194225098Y-58246265D01*
X194376180Y-58277685D01*
X194507175Y-58337706D01*
X194545019Y-58373853D01*
X194590079Y-58416893D01*
G37*
D10*
X184416488Y-55954355D02*
X184433632Y-55973133D01*
X184430050Y-55982870D01*
X184401882Y-55994300D01*
X184387277Y-55991912D01*
X184370132Y-55973133D01*
X184373715Y-55963396D01*
X184401882Y-55951967D01*
X184416488Y-55954355D01*
G36*
X184416488Y-55954355D02*
G01*
X184433632Y-55973133D01*
X184430050Y-55982870D01*
X184401882Y-55994300D01*
X184387277Y-55991912D01*
X184370132Y-55973133D01*
X184373715Y-55963396D01*
X184401882Y-55951967D01*
X184416488Y-55954355D01*
G37*
X183845189Y-56823488D02*
X183862132Y-56851550D01*
X183858445Y-56866357D01*
X183830382Y-56883300D01*
X183815576Y-56879612D01*
X183798632Y-56851550D01*
X183802320Y-56836743D01*
X183830382Y-56819800D01*
X183845189Y-56823488D01*
G36*
X183845189Y-56823488D02*
G01*
X183862132Y-56851550D01*
X183858445Y-56866357D01*
X183830382Y-56883300D01*
X183815576Y-56879612D01*
X183798632Y-56851550D01*
X183802320Y-56836743D01*
X183830382Y-56819800D01*
X183845189Y-56823488D01*
G37*
X183718189Y-56759988D02*
X183735132Y-56788050D01*
X183731445Y-56802857D01*
X183703382Y-56819800D01*
X183688576Y-56816112D01*
X183671632Y-56788050D01*
X183675320Y-56773243D01*
X183703382Y-56756300D01*
X183718189Y-56759988D01*
G36*
X183718189Y-56759988D02*
G01*
X183735132Y-56788050D01*
X183731445Y-56802857D01*
X183703382Y-56819800D01*
X183688576Y-56816112D01*
X183671632Y-56788050D01*
X183675320Y-56773243D01*
X183703382Y-56756300D01*
X183718189Y-56759988D01*
G37*
X183718189Y-56505988D02*
X183735132Y-56534050D01*
X183731445Y-56548857D01*
X183703382Y-56565800D01*
X183688576Y-56562112D01*
X183671632Y-56534050D01*
X183675320Y-56519243D01*
X183703382Y-56502300D01*
X183718189Y-56505988D01*
G36*
X183718189Y-56505988D02*
G01*
X183735132Y-56534050D01*
X183731445Y-56548857D01*
X183703382Y-56565800D01*
X183688576Y-56562112D01*
X183671632Y-56534050D01*
X183675320Y-56519243D01*
X183703382Y-56502300D01*
X183718189Y-56505988D01*
G37*
X184167931Y-55876982D02*
X184205485Y-55881399D01*
X184273836Y-55893066D01*
X184302307Y-55904457D01*
X184292660Y-55914748D01*
X184246657Y-55923117D01*
X184166060Y-55928742D01*
X184052632Y-55930800D01*
X183952337Y-55931434D01*
X183875377Y-55934113D01*
X183828424Y-55939652D01*
X183805001Y-55948861D01*
X183798632Y-55962550D01*
X183785546Y-55984834D01*
X183735132Y-55994300D01*
X183701617Y-55996245D01*
X183676877Y-56012823D01*
X183671632Y-56057800D01*
X183665089Y-56102368D01*
X183639882Y-56121300D01*
X183626416Y-56125173D01*
X183612288Y-56153769D01*
X183608132Y-56216550D01*
X183609423Y-56256949D01*
X183618956Y-56299334D01*
X183639882Y-56311800D01*
X183662166Y-56324887D01*
X183671632Y-56375300D01*
X183665089Y-56419868D01*
X183639882Y-56438800D01*
X183625076Y-56435112D01*
X183608132Y-56407050D01*
X183604445Y-56392243D01*
X183576382Y-56375300D01*
X183564194Y-56371663D01*
X183552306Y-56349439D01*
X183546296Y-56300286D01*
X183544632Y-56216550D01*
X183545360Y-56155609D01*
X183549805Y-56096167D01*
X183559635Y-56066116D01*
X183576382Y-56057800D01*
X183591189Y-56054112D01*
X183608132Y-56026050D01*
X183611820Y-56011243D01*
X183639882Y-55994300D01*
X183654689Y-55990612D01*
X183671632Y-55962550D01*
X183684256Y-55940492D01*
X183733369Y-55930800D01*
X183778518Y-55924059D01*
X183803055Y-55906949D01*
X183828918Y-55889616D01*
X183887663Y-55877139D01*
X183969955Y-55870365D01*
X184066481Y-55870057D01*
X184167931Y-55876982D01*
G36*
X184167931Y-55876982D02*
G01*
X184205485Y-55881399D01*
X184273836Y-55893066D01*
X184302307Y-55904457D01*
X184292660Y-55914748D01*
X184246657Y-55923117D01*
X184166060Y-55928742D01*
X184052632Y-55930800D01*
X183952337Y-55931434D01*
X183875377Y-55934113D01*
X183828424Y-55939652D01*
X183805001Y-55948861D01*
X183798632Y-55962550D01*
X183785546Y-55984834D01*
X183735132Y-55994300D01*
X183701617Y-55996245D01*
X183676877Y-56012823D01*
X183671632Y-56057800D01*
X183665089Y-56102368D01*
X183639882Y-56121300D01*
X183626416Y-56125173D01*
X183612288Y-56153769D01*
X183608132Y-56216550D01*
X183609423Y-56256949D01*
X183618956Y-56299334D01*
X183639882Y-56311800D01*
X183662166Y-56324887D01*
X183671632Y-56375300D01*
X183665089Y-56419868D01*
X183639882Y-56438800D01*
X183625076Y-56435112D01*
X183608132Y-56407050D01*
X183604445Y-56392243D01*
X183576382Y-56375300D01*
X183564194Y-56371663D01*
X183552306Y-56349439D01*
X183546296Y-56300286D01*
X183544632Y-56216550D01*
X183545360Y-56155609D01*
X183549805Y-56096167D01*
X183559635Y-56066116D01*
X183576382Y-56057800D01*
X183591189Y-56054112D01*
X183608132Y-56026050D01*
X183611820Y-56011243D01*
X183639882Y-55994300D01*
X183654689Y-55990612D01*
X183671632Y-55962550D01*
X183684256Y-55940492D01*
X183733369Y-55930800D01*
X183778518Y-55924059D01*
X183803055Y-55906949D01*
X183828918Y-55889616D01*
X183887663Y-55877139D01*
X183969955Y-55870365D01*
X184066481Y-55870057D01*
X184167931Y-55876982D01*
G37*
X183227132Y-55835550D02*
X183228423Y-55875949D01*
X183237956Y-55918334D01*
X183258882Y-55930800D01*
X183271071Y-55934437D01*
X183282959Y-55956661D01*
X183288969Y-56005814D01*
X183290632Y-56089550D01*
X183291360Y-56150490D01*
X183295805Y-56209933D01*
X183305635Y-56239984D01*
X183322382Y-56248300D01*
X183334571Y-56251937D01*
X183346459Y-56274161D01*
X183352469Y-56323314D01*
X183354132Y-56407050D01*
X183354860Y-56467990D01*
X183359305Y-56527433D01*
X183369135Y-56557484D01*
X183385882Y-56565800D01*
X183399349Y-56569673D01*
X183413477Y-56598269D01*
X183417632Y-56661050D01*
X183416342Y-56701449D01*
X183406809Y-56743834D01*
X183385882Y-56756300D01*
X183371076Y-56759988D01*
X183354132Y-56788050D01*
X183352408Y-56795595D01*
X183338593Y-56805878D01*
X183305992Y-56812851D01*
X183248721Y-56817104D01*
X183160896Y-56819224D01*
X183036632Y-56819800D01*
X182719132Y-56819800D01*
X182719132Y-56756300D01*
X182712589Y-56711732D01*
X182687382Y-56692800D01*
X182672576Y-56689112D01*
X182655632Y-56661050D01*
X182660706Y-56648513D01*
X182682135Y-56638893D01*
X182726449Y-56633024D01*
X182800122Y-56630096D01*
X182909632Y-56629300D01*
X183163632Y-56629300D01*
X183163632Y-56534050D01*
X183162342Y-56493651D01*
X183152809Y-56451265D01*
X183131882Y-56438800D01*
X183119694Y-56435163D01*
X183107806Y-56412939D01*
X183101796Y-56363786D01*
X183100132Y-56280050D01*
X183099405Y-56219109D01*
X183094960Y-56159667D01*
X183085130Y-56129616D01*
X183068382Y-56121300D01*
X183056194Y-56117663D01*
X183044306Y-56095439D01*
X183038296Y-56046286D01*
X183036632Y-55962550D01*
X183035905Y-55901609D01*
X183031460Y-55842167D01*
X183021630Y-55812116D01*
X183004882Y-55803800D01*
X182990076Y-55800112D01*
X182973132Y-55772050D01*
X182973383Y-55768224D01*
X182986797Y-55751382D01*
X183026389Y-55742738D01*
X183100132Y-55740300D01*
X183227132Y-55740300D01*
X183227132Y-55835550D01*
G36*
X183227132Y-55835550D02*
G01*
X183228423Y-55875949D01*
X183237956Y-55918334D01*
X183258882Y-55930800D01*
X183271071Y-55934437D01*
X183282959Y-55956661D01*
X183288969Y-56005814D01*
X183290632Y-56089550D01*
X183291360Y-56150490D01*
X183295805Y-56209933D01*
X183305635Y-56239984D01*
X183322382Y-56248300D01*
X183334571Y-56251937D01*
X183346459Y-56274161D01*
X183352469Y-56323314D01*
X183354132Y-56407050D01*
X183354860Y-56467990D01*
X183359305Y-56527433D01*
X183369135Y-56557484D01*
X183385882Y-56565800D01*
X183399349Y-56569673D01*
X183413477Y-56598269D01*
X183417632Y-56661050D01*
X183416342Y-56701449D01*
X183406809Y-56743834D01*
X183385882Y-56756300D01*
X183371076Y-56759988D01*
X183354132Y-56788050D01*
X183352408Y-56795595D01*
X183338593Y-56805878D01*
X183305992Y-56812851D01*
X183248721Y-56817104D01*
X183160896Y-56819224D01*
X183036632Y-56819800D01*
X182719132Y-56819800D01*
X182719132Y-56756300D01*
X182712589Y-56711732D01*
X182687382Y-56692800D01*
X182672576Y-56689112D01*
X182655632Y-56661050D01*
X182660706Y-56648513D01*
X182682135Y-56638893D01*
X182726449Y-56633024D01*
X182800122Y-56630096D01*
X182909632Y-56629300D01*
X183163632Y-56629300D01*
X183163632Y-56534050D01*
X183162342Y-56493651D01*
X183152809Y-56451265D01*
X183131882Y-56438800D01*
X183119694Y-56435163D01*
X183107806Y-56412939D01*
X183101796Y-56363786D01*
X183100132Y-56280050D01*
X183099405Y-56219109D01*
X183094960Y-56159667D01*
X183085130Y-56129616D01*
X183068382Y-56121300D01*
X183056194Y-56117663D01*
X183044306Y-56095439D01*
X183038296Y-56046286D01*
X183036632Y-55962550D01*
X183035905Y-55901609D01*
X183031460Y-55842167D01*
X183021630Y-55812116D01*
X183004882Y-55803800D01*
X182990076Y-55800112D01*
X182973132Y-55772050D01*
X182973383Y-55768224D01*
X182986797Y-55751382D01*
X183026389Y-55742738D01*
X183100132Y-55740300D01*
X183227132Y-55740300D01*
X183227132Y-55835550D01*
G37*
X185068632Y-55867300D02*
X185068695Y-55882602D01*
X185072049Y-55949971D01*
X185081947Y-55984546D01*
X185100382Y-55994300D01*
X185112571Y-55997937D01*
X185124459Y-56020161D01*
X185130469Y-56069314D01*
X185132132Y-56153050D01*
X185132860Y-56213990D01*
X185137305Y-56273433D01*
X185147135Y-56303484D01*
X185163882Y-56311800D01*
X185167708Y-56312050D01*
X185184550Y-56325464D01*
X185193194Y-56365057D01*
X185195632Y-56438800D01*
X185195695Y-56454102D01*
X185199049Y-56521471D01*
X185208947Y-56556046D01*
X185227382Y-56565800D01*
X185242189Y-56569488D01*
X185259132Y-56597550D01*
X185259383Y-56601375D01*
X185272797Y-56618218D01*
X185312389Y-56626861D01*
X185386132Y-56629300D01*
X185401435Y-56629237D01*
X185468804Y-56625884D01*
X185503379Y-56615986D01*
X185513132Y-56597550D01*
X185513139Y-56596968D01*
X185531921Y-56572774D01*
X185581997Y-56566515D01*
X185656007Y-56579141D01*
X185660539Y-56580573D01*
X185691356Y-56606057D01*
X185704984Y-56643751D01*
X185699226Y-56677914D01*
X185671882Y-56692800D01*
X185657076Y-56696488D01*
X185640132Y-56724550D01*
X185627046Y-56746834D01*
X185576632Y-56756300D01*
X185532065Y-56762843D01*
X185513132Y-56788050D01*
X185512882Y-56791875D01*
X185499468Y-56808718D01*
X185459876Y-56817361D01*
X185386132Y-56819800D01*
X185370830Y-56819737D01*
X185303461Y-56816384D01*
X185268886Y-56806486D01*
X185259132Y-56788050D01*
X185246046Y-56765766D01*
X185195632Y-56756300D01*
X185151065Y-56749756D01*
X185132132Y-56724550D01*
X185128445Y-56709743D01*
X185100382Y-56692800D01*
X185085576Y-56689112D01*
X185068632Y-56661050D01*
X185064945Y-56646243D01*
X185036882Y-56629300D01*
X185014599Y-56616213D01*
X185005132Y-56565800D01*
X184998589Y-56521232D01*
X184973382Y-56502300D01*
X184961194Y-56498663D01*
X184949306Y-56476439D01*
X184943296Y-56427286D01*
X184941632Y-56343550D01*
X184940905Y-56282609D01*
X184936460Y-56223167D01*
X184926630Y-56193116D01*
X184909882Y-56184800D01*
X184897694Y-56181163D01*
X184885806Y-56158939D01*
X184879796Y-56109786D01*
X184878132Y-56026050D01*
X184877405Y-55965109D01*
X184872960Y-55905667D01*
X184863130Y-55875616D01*
X184846382Y-55867300D01*
X184824099Y-55854213D01*
X184814632Y-55803800D01*
X184814632Y-55740300D01*
X185068632Y-55740300D01*
X185068632Y-55867300D01*
G36*
X185068632Y-55867300D02*
G01*
X185068695Y-55882602D01*
X185072049Y-55949971D01*
X185081947Y-55984546D01*
X185100382Y-55994300D01*
X185112571Y-55997937D01*
X185124459Y-56020161D01*
X185130469Y-56069314D01*
X185132132Y-56153050D01*
X185132860Y-56213990D01*
X185137305Y-56273433D01*
X185147135Y-56303484D01*
X185163882Y-56311800D01*
X185167708Y-56312050D01*
X185184550Y-56325464D01*
X185193194Y-56365057D01*
X185195632Y-56438800D01*
X185195695Y-56454102D01*
X185199049Y-56521471D01*
X185208947Y-56556046D01*
X185227382Y-56565800D01*
X185242189Y-56569488D01*
X185259132Y-56597550D01*
X185259383Y-56601375D01*
X185272797Y-56618218D01*
X185312389Y-56626861D01*
X185386132Y-56629300D01*
X185401435Y-56629237D01*
X185468804Y-56625884D01*
X185503379Y-56615986D01*
X185513132Y-56597550D01*
X185513139Y-56596968D01*
X185531921Y-56572774D01*
X185581997Y-56566515D01*
X185656007Y-56579141D01*
X185660539Y-56580573D01*
X185691356Y-56606057D01*
X185704984Y-56643751D01*
X185699226Y-56677914D01*
X185671882Y-56692800D01*
X185657076Y-56696488D01*
X185640132Y-56724550D01*
X185627046Y-56746834D01*
X185576632Y-56756300D01*
X185532065Y-56762843D01*
X185513132Y-56788050D01*
X185512882Y-56791875D01*
X185499468Y-56808718D01*
X185459876Y-56817361D01*
X185386132Y-56819800D01*
X185370830Y-56819737D01*
X185303461Y-56816384D01*
X185268886Y-56806486D01*
X185259132Y-56788050D01*
X185246046Y-56765766D01*
X185195632Y-56756300D01*
X185151065Y-56749756D01*
X185132132Y-56724550D01*
X185128445Y-56709743D01*
X185100382Y-56692800D01*
X185085576Y-56689112D01*
X185068632Y-56661050D01*
X185064945Y-56646243D01*
X185036882Y-56629300D01*
X185014599Y-56616213D01*
X185005132Y-56565800D01*
X184998589Y-56521232D01*
X184973382Y-56502300D01*
X184961194Y-56498663D01*
X184949306Y-56476439D01*
X184943296Y-56427286D01*
X184941632Y-56343550D01*
X184940905Y-56282609D01*
X184936460Y-56223167D01*
X184926630Y-56193116D01*
X184909882Y-56184800D01*
X184897694Y-56181163D01*
X184885806Y-56158939D01*
X184879796Y-56109786D01*
X184878132Y-56026050D01*
X184877405Y-55965109D01*
X184872960Y-55905667D01*
X184863130Y-55875616D01*
X184846382Y-55867300D01*
X184824099Y-55854213D01*
X184814632Y-55803800D01*
X184814632Y-55740300D01*
X185068632Y-55740300D01*
X185068632Y-55867300D01*
G37*
X184543488Y-56017855D02*
X184560632Y-56036633D01*
X184564215Y-56046370D01*
X184592382Y-56057800D01*
X184607189Y-56061488D01*
X184624132Y-56089550D01*
X184627820Y-56104357D01*
X184655882Y-56121300D01*
X184678166Y-56134387D01*
X184687632Y-56184800D01*
X184694176Y-56229368D01*
X184719382Y-56248300D01*
X184741666Y-56261387D01*
X184751132Y-56311800D01*
X184757676Y-56356368D01*
X184782882Y-56375300D01*
X184795071Y-56378937D01*
X184806959Y-56401161D01*
X184812969Y-56450314D01*
X184814632Y-56534050D01*
X184813905Y-56594990D01*
X184809460Y-56654433D01*
X184799630Y-56684484D01*
X184782882Y-56692800D01*
X184760599Y-56705887D01*
X184751132Y-56756300D01*
X184744589Y-56800868D01*
X184719382Y-56819800D01*
X184704576Y-56823488D01*
X184687632Y-56851550D01*
X184674546Y-56873834D01*
X184624132Y-56883300D01*
X184579565Y-56889843D01*
X184560632Y-56915050D01*
X184558908Y-56922595D01*
X184545093Y-56932878D01*
X184512492Y-56939851D01*
X184455221Y-56944104D01*
X184367396Y-56946224D01*
X184243132Y-56946800D01*
X184234615Y-56946797D01*
X184109550Y-56945917D01*
X184021306Y-56943139D01*
X183964696Y-56938005D01*
X183934534Y-56930059D01*
X183925632Y-56918844D01*
X183930936Y-56907856D01*
X183957799Y-56899300D01*
X184013389Y-56897002D01*
X184104368Y-56900270D01*
X184172436Y-56902916D01*
X184294320Y-56902873D01*
X184400782Y-56896806D01*
X184485121Y-56885456D01*
X184540638Y-56869562D01*
X184560632Y-56849865D01*
X184564301Y-56835879D01*
X184592382Y-56819800D01*
X184607189Y-56816112D01*
X184624132Y-56788050D01*
X184627820Y-56773243D01*
X184655882Y-56756300D01*
X184670689Y-56752612D01*
X184687632Y-56724550D01*
X184691320Y-56709743D01*
X184719382Y-56692800D01*
X184731571Y-56689163D01*
X184743459Y-56666939D01*
X184749469Y-56617786D01*
X184751132Y-56534050D01*
X184750405Y-56473109D01*
X184745960Y-56413667D01*
X184736130Y-56383616D01*
X184719382Y-56375300D01*
X184697099Y-56362213D01*
X184687632Y-56311800D01*
X184681089Y-56267232D01*
X184655882Y-56248300D01*
X184633599Y-56235213D01*
X184624132Y-56184800D01*
X184617589Y-56140232D01*
X184592382Y-56121300D01*
X184577576Y-56117612D01*
X184560632Y-56089550D01*
X184556945Y-56074743D01*
X184528882Y-56057800D01*
X184514277Y-56055412D01*
X184497132Y-56036633D01*
X184500715Y-56026896D01*
X184528882Y-56015467D01*
X184543488Y-56017855D01*
G36*
X184543488Y-56017855D02*
G01*
X184560632Y-56036633D01*
X184564215Y-56046370D01*
X184592382Y-56057800D01*
X184607189Y-56061488D01*
X184624132Y-56089550D01*
X184627820Y-56104357D01*
X184655882Y-56121300D01*
X184678166Y-56134387D01*
X184687632Y-56184800D01*
X184694176Y-56229368D01*
X184719382Y-56248300D01*
X184741666Y-56261387D01*
X184751132Y-56311800D01*
X184757676Y-56356368D01*
X184782882Y-56375300D01*
X184795071Y-56378937D01*
X184806959Y-56401161D01*
X184812969Y-56450314D01*
X184814632Y-56534050D01*
X184813905Y-56594990D01*
X184809460Y-56654433D01*
X184799630Y-56684484D01*
X184782882Y-56692800D01*
X184760599Y-56705887D01*
X184751132Y-56756300D01*
X184744589Y-56800868D01*
X184719382Y-56819800D01*
X184704576Y-56823488D01*
X184687632Y-56851550D01*
X184674546Y-56873834D01*
X184624132Y-56883300D01*
X184579565Y-56889843D01*
X184560632Y-56915050D01*
X184558908Y-56922595D01*
X184545093Y-56932878D01*
X184512492Y-56939851D01*
X184455221Y-56944104D01*
X184367396Y-56946224D01*
X184243132Y-56946800D01*
X184234615Y-56946797D01*
X184109550Y-56945917D01*
X184021306Y-56943139D01*
X183964696Y-56938005D01*
X183934534Y-56930059D01*
X183925632Y-56918844D01*
X183930936Y-56907856D01*
X183957799Y-56899300D01*
X184013389Y-56897002D01*
X184104368Y-56900270D01*
X184172436Y-56902916D01*
X184294320Y-56902873D01*
X184400782Y-56896806D01*
X184485121Y-56885456D01*
X184540638Y-56869562D01*
X184560632Y-56849865D01*
X184564301Y-56835879D01*
X184592382Y-56819800D01*
X184607189Y-56816112D01*
X184624132Y-56788050D01*
X184627820Y-56773243D01*
X184655882Y-56756300D01*
X184670689Y-56752612D01*
X184687632Y-56724550D01*
X184691320Y-56709743D01*
X184719382Y-56692800D01*
X184731571Y-56689163D01*
X184743459Y-56666939D01*
X184749469Y-56617786D01*
X184751132Y-56534050D01*
X184750405Y-56473109D01*
X184745960Y-56413667D01*
X184736130Y-56383616D01*
X184719382Y-56375300D01*
X184697099Y-56362213D01*
X184687632Y-56311800D01*
X184681089Y-56267232D01*
X184655882Y-56248300D01*
X184633599Y-56235213D01*
X184624132Y-56184800D01*
X184617589Y-56140232D01*
X184592382Y-56121300D01*
X184577576Y-56117612D01*
X184560632Y-56089550D01*
X184556945Y-56074743D01*
X184528882Y-56057800D01*
X184514277Y-56055412D01*
X184497132Y-56036633D01*
X184500715Y-56026896D01*
X184528882Y-56015467D01*
X184543488Y-56017855D01*
G37*
X183906700Y-56127843D02*
X183925632Y-56153050D01*
X183925684Y-56155037D01*
X183941639Y-56180251D01*
X183971592Y-56181894D01*
X183994424Y-56158342D01*
X184005272Y-56147715D01*
X184056039Y-56135826D01*
X184147882Y-56131883D01*
X184206417Y-56133220D01*
X184274265Y-56141781D01*
X184301341Y-56158342D01*
X184307445Y-56168995D01*
X184340146Y-56184800D01*
X184354094Y-56188467D01*
X184370132Y-56216550D01*
X184373820Y-56231357D01*
X184401882Y-56248300D01*
X184416689Y-56251988D01*
X184433632Y-56280050D01*
X184437320Y-56294857D01*
X184465382Y-56311800D01*
X184480189Y-56315488D01*
X184497132Y-56343550D01*
X184500820Y-56358357D01*
X184528882Y-56375300D01*
X184532708Y-56375550D01*
X184549550Y-56388964D01*
X184558194Y-56428557D01*
X184560632Y-56502300D01*
X184560570Y-56517602D01*
X184557216Y-56584971D01*
X184547318Y-56619546D01*
X184528882Y-56629300D01*
X184514076Y-56632988D01*
X184497132Y-56661050D01*
X184496882Y-56664875D01*
X184483468Y-56681718D01*
X184443876Y-56690361D01*
X184370132Y-56692800D01*
X184312778Y-56690552D01*
X184262412Y-56682908D01*
X184243132Y-56671633D01*
X184253578Y-56658380D01*
X184290757Y-56650177D01*
X184298201Y-56650112D01*
X184370119Y-56644369D01*
X184411034Y-56623332D01*
X184429390Y-56578115D01*
X184433632Y-56499831D01*
X184433596Y-56488373D01*
X184430369Y-56420234D01*
X184420476Y-56385203D01*
X184401882Y-56375300D01*
X184379599Y-56362213D01*
X184370132Y-56311800D01*
X184363589Y-56267232D01*
X184338382Y-56248300D01*
X184323576Y-56244612D01*
X184306632Y-56216550D01*
X184306382Y-56212724D01*
X184292968Y-56195882D01*
X184253376Y-56187238D01*
X184179632Y-56184800D01*
X184052632Y-56184800D01*
X184052632Y-56343550D01*
X184053360Y-56404490D01*
X184057805Y-56463933D01*
X184067635Y-56493984D01*
X184084382Y-56502300D01*
X184099189Y-56505988D01*
X184116132Y-56534050D01*
X184119820Y-56548857D01*
X184147882Y-56565800D01*
X184162689Y-56569488D01*
X184179632Y-56597550D01*
X184175945Y-56612357D01*
X184147882Y-56629300D01*
X184133076Y-56632988D01*
X184116132Y-56661050D01*
X184115882Y-56664875D01*
X184102468Y-56681718D01*
X184062876Y-56690361D01*
X183989132Y-56692800D01*
X183973830Y-56692737D01*
X183906461Y-56689384D01*
X183871886Y-56679486D01*
X183862132Y-56661050D01*
X183858445Y-56646243D01*
X183830382Y-56629300D01*
X183815777Y-56626912D01*
X183798632Y-56608133D01*
X183802215Y-56598396D01*
X183830382Y-56586967D01*
X183844988Y-56589355D01*
X183862132Y-56608133D01*
X183862137Y-56608397D01*
X183881047Y-56623169D01*
X183925632Y-56629300D01*
X183949589Y-56628761D01*
X183976663Y-56620362D01*
X183987292Y-56592621D01*
X183989132Y-56534050D01*
X183987842Y-56493651D01*
X183978309Y-56451265D01*
X183957382Y-56438800D01*
X183935099Y-56425713D01*
X183925632Y-56375300D01*
X183919089Y-56330732D01*
X183893882Y-56311800D01*
X183871599Y-56298713D01*
X183862132Y-56248300D01*
X183855589Y-56203732D01*
X183830382Y-56184800D01*
X183815576Y-56181112D01*
X183798632Y-56153050D01*
X183811719Y-56130766D01*
X183862132Y-56121300D01*
X183906700Y-56127843D01*
G36*
X183906700Y-56127843D02*
G01*
X183925632Y-56153050D01*
X183925684Y-56155037D01*
X183941639Y-56180251D01*
X183971592Y-56181894D01*
X183994424Y-56158342D01*
X184005272Y-56147715D01*
X184056039Y-56135826D01*
X184147882Y-56131883D01*
X184206417Y-56133220D01*
X184274265Y-56141781D01*
X184301341Y-56158342D01*
X184307445Y-56168995D01*
X184340146Y-56184800D01*
X184354094Y-56188467D01*
X184370132Y-56216550D01*
X184373820Y-56231357D01*
X184401882Y-56248300D01*
X184416689Y-56251988D01*
X184433632Y-56280050D01*
X184437320Y-56294857D01*
X184465382Y-56311800D01*
X184480189Y-56315488D01*
X184497132Y-56343550D01*
X184500820Y-56358357D01*
X184528882Y-56375300D01*
X184532708Y-56375550D01*
X184549550Y-56388964D01*
X184558194Y-56428557D01*
X184560632Y-56502300D01*
X184560570Y-56517602D01*
X184557216Y-56584971D01*
X184547318Y-56619546D01*
X184528882Y-56629300D01*
X184514076Y-56632988D01*
X184497132Y-56661050D01*
X184496882Y-56664875D01*
X184483468Y-56681718D01*
X184443876Y-56690361D01*
X184370132Y-56692800D01*
X184312778Y-56690552D01*
X184262412Y-56682908D01*
X184243132Y-56671633D01*
X184253578Y-56658380D01*
X184290757Y-56650177D01*
X184298201Y-56650112D01*
X184370119Y-56644369D01*
X184411034Y-56623332D01*
X184429390Y-56578115D01*
X184433632Y-56499831D01*
X184433596Y-56488373D01*
X184430369Y-56420234D01*
X184420476Y-56385203D01*
X184401882Y-56375300D01*
X184379599Y-56362213D01*
X184370132Y-56311800D01*
X184363589Y-56267232D01*
X184338382Y-56248300D01*
X184323576Y-56244612D01*
X184306632Y-56216550D01*
X184306382Y-56212724D01*
X184292968Y-56195882D01*
X184253376Y-56187238D01*
X184179632Y-56184800D01*
X184052632Y-56184800D01*
X184052632Y-56343550D01*
X184053360Y-56404490D01*
X184057805Y-56463933D01*
X184067635Y-56493984D01*
X184084382Y-56502300D01*
X184099189Y-56505988D01*
X184116132Y-56534050D01*
X184119820Y-56548857D01*
X184147882Y-56565800D01*
X184162689Y-56569488D01*
X184179632Y-56597550D01*
X184175945Y-56612357D01*
X184147882Y-56629300D01*
X184133076Y-56632988D01*
X184116132Y-56661050D01*
X184115882Y-56664875D01*
X184102468Y-56681718D01*
X184062876Y-56690361D01*
X183989132Y-56692800D01*
X183973830Y-56692737D01*
X183906461Y-56689384D01*
X183871886Y-56679486D01*
X183862132Y-56661050D01*
X183858445Y-56646243D01*
X183830382Y-56629300D01*
X183815777Y-56626912D01*
X183798632Y-56608133D01*
X183802215Y-56598396D01*
X183830382Y-56586967D01*
X183844988Y-56589355D01*
X183862132Y-56608133D01*
X183862137Y-56608397D01*
X183881047Y-56623169D01*
X183925632Y-56629300D01*
X183949589Y-56628761D01*
X183976663Y-56620362D01*
X183987292Y-56592621D01*
X183989132Y-56534050D01*
X183987842Y-56493651D01*
X183978309Y-56451265D01*
X183957382Y-56438800D01*
X183935099Y-56425713D01*
X183925632Y-56375300D01*
X183919089Y-56330732D01*
X183893882Y-56311800D01*
X183871599Y-56298713D01*
X183862132Y-56248300D01*
X183855589Y-56203732D01*
X183830382Y-56184800D01*
X183815576Y-56181112D01*
X183798632Y-56153050D01*
X183811719Y-56130766D01*
X183862132Y-56121300D01*
X183906700Y-56127843D01*
G37*
X178800350Y-55615996D02*
X178877235Y-55620116D01*
X178925007Y-55626641D01*
X178940274Y-55631690D01*
X178961153Y-55649311D01*
X178970488Y-55686004D01*
X178972632Y-55753352D01*
X178975215Y-55819437D01*
X178985055Y-55856662D01*
X179004382Y-55867300D01*
X179008208Y-55867550D01*
X179025050Y-55880964D01*
X179033694Y-55920557D01*
X179036132Y-55994300D01*
X179036195Y-56009602D01*
X179039549Y-56076971D01*
X179049447Y-56111546D01*
X179067882Y-56121300D01*
X179071708Y-56121550D01*
X179088550Y-56134964D01*
X179097194Y-56174557D01*
X179099632Y-56248300D01*
X179099695Y-56263602D01*
X179103049Y-56330971D01*
X179112947Y-56365546D01*
X179131382Y-56375300D01*
X179135208Y-56375550D01*
X179152050Y-56388964D01*
X179160694Y-56428557D01*
X179163132Y-56502300D01*
X179163195Y-56517602D01*
X179166549Y-56584971D01*
X179176447Y-56619546D01*
X179194882Y-56629300D01*
X179198708Y-56629550D01*
X179215550Y-56642964D01*
X179224194Y-56682557D01*
X179226632Y-56756300D01*
X179226695Y-56771602D01*
X179230049Y-56838971D01*
X179239947Y-56873546D01*
X179258382Y-56883300D01*
X179262208Y-56883550D01*
X179279050Y-56896964D01*
X179287694Y-56936557D01*
X179290132Y-57010300D01*
X179290195Y-57025602D01*
X179293549Y-57092971D01*
X179303447Y-57127546D01*
X179321882Y-57137300D01*
X179335349Y-57141173D01*
X179349477Y-57169769D01*
X179353632Y-57232550D01*
X179353632Y-57327800D01*
X178686882Y-57327800D01*
X178619134Y-57327778D01*
X178444733Y-57327397D01*
X178307098Y-57326388D01*
X178202062Y-57324553D01*
X178125462Y-57321695D01*
X178073134Y-57317613D01*
X178040912Y-57312111D01*
X178024633Y-57304989D01*
X178020132Y-57296050D01*
X178016445Y-57281243D01*
X177988382Y-57264300D01*
X177974916Y-57260427D01*
X177960788Y-57231830D01*
X177956632Y-57169050D01*
X177955342Y-57128651D01*
X177945809Y-57086265D01*
X177924882Y-57073800D01*
X177904173Y-57063443D01*
X177893132Y-57020883D01*
X177893132Y-56967967D01*
X178718632Y-56967967D01*
X178718632Y-56830383D01*
X178718400Y-56799159D01*
X178714590Y-56734805D01*
X178704692Y-56701985D01*
X178686882Y-56692800D01*
X178683057Y-56692549D01*
X178666215Y-56679135D01*
X178657571Y-56639543D01*
X178655132Y-56565800D01*
X178655070Y-56550498D01*
X178651716Y-56483128D01*
X178641818Y-56448553D01*
X178623382Y-56438800D01*
X178619557Y-56438549D01*
X178602715Y-56425135D01*
X178594071Y-56385543D01*
X178591632Y-56311800D01*
X178591570Y-56296498D01*
X178588216Y-56229128D01*
X178578318Y-56194553D01*
X178559882Y-56184800D01*
X178556057Y-56184549D01*
X178539215Y-56171135D01*
X178530571Y-56131543D01*
X178528132Y-56057800D01*
X178528070Y-56042498D01*
X178524716Y-55975128D01*
X178514818Y-55940553D01*
X178496382Y-55930800D01*
X178492557Y-55930549D01*
X178475715Y-55917135D01*
X178467071Y-55877543D01*
X178464632Y-55803800D01*
X178464570Y-55788498D01*
X178461216Y-55721128D01*
X178451318Y-55686553D01*
X178432882Y-55676800D01*
X178426213Y-55676555D01*
X178402507Y-55665236D01*
X178411180Y-55644937D01*
X178448757Y-55626641D01*
X178464742Y-55623562D01*
X178526549Y-55618064D01*
X178611854Y-55614970D01*
X178707505Y-55614281D01*
X178800350Y-55615996D01*
G36*
X178800350Y-55615996D02*
G01*
X178877235Y-55620116D01*
X178925007Y-55626641D01*
X178940274Y-55631690D01*
X178961153Y-55649311D01*
X178970488Y-55686004D01*
X178972632Y-55753352D01*
X178975215Y-55819437D01*
X178985055Y-55856662D01*
X179004382Y-55867300D01*
X179008208Y-55867550D01*
X179025050Y-55880964D01*
X179033694Y-55920557D01*
X179036132Y-55994300D01*
X179036195Y-56009602D01*
X179039549Y-56076971D01*
X179049447Y-56111546D01*
X179067882Y-56121300D01*
X179071708Y-56121550D01*
X179088550Y-56134964D01*
X179097194Y-56174557D01*
X179099632Y-56248300D01*
X179099695Y-56263602D01*
X179103049Y-56330971D01*
X179112947Y-56365546D01*
X179131382Y-56375300D01*
X179135208Y-56375550D01*
X179152050Y-56388964D01*
X179160694Y-56428557D01*
X179163132Y-56502300D01*
X179163195Y-56517602D01*
X179166549Y-56584971D01*
X179176447Y-56619546D01*
X179194882Y-56629300D01*
X179198708Y-56629550D01*
X179215550Y-56642964D01*
X179224194Y-56682557D01*
X179226632Y-56756300D01*
X179226695Y-56771602D01*
X179230049Y-56838971D01*
X179239947Y-56873546D01*
X179258382Y-56883300D01*
X179262208Y-56883550D01*
X179279050Y-56896964D01*
X179287694Y-56936557D01*
X179290132Y-57010300D01*
X179290195Y-57025602D01*
X179293549Y-57092971D01*
X179303447Y-57127546D01*
X179321882Y-57137300D01*
X179335349Y-57141173D01*
X179349477Y-57169769D01*
X179353632Y-57232550D01*
X179353632Y-57327800D01*
X178686882Y-57327800D01*
X178619134Y-57327778D01*
X178444733Y-57327397D01*
X178307098Y-57326388D01*
X178202062Y-57324553D01*
X178125462Y-57321695D01*
X178073134Y-57317613D01*
X178040912Y-57312111D01*
X178024633Y-57304989D01*
X178020132Y-57296050D01*
X178016445Y-57281243D01*
X177988382Y-57264300D01*
X177974916Y-57260427D01*
X177960788Y-57231830D01*
X177956632Y-57169050D01*
X177955342Y-57128651D01*
X177945809Y-57086265D01*
X177924882Y-57073800D01*
X177904173Y-57063443D01*
X177893132Y-57020883D01*
X177893132Y-56967967D01*
X178718632Y-56967967D01*
X178718632Y-56830383D01*
X178718400Y-56799159D01*
X178714590Y-56734805D01*
X178704692Y-56701985D01*
X178686882Y-56692800D01*
X178683057Y-56692549D01*
X178666215Y-56679135D01*
X178657571Y-56639543D01*
X178655132Y-56565800D01*
X178655070Y-56550498D01*
X178651716Y-56483128D01*
X178641818Y-56448553D01*
X178623382Y-56438800D01*
X178619557Y-56438549D01*
X178602715Y-56425135D01*
X178594071Y-56385543D01*
X178591632Y-56311800D01*
X178591570Y-56296498D01*
X178588216Y-56229128D01*
X178578318Y-56194553D01*
X178559882Y-56184800D01*
X178556057Y-56184549D01*
X178539215Y-56171135D01*
X178530571Y-56131543D01*
X178528132Y-56057800D01*
X178528070Y-56042498D01*
X178524716Y-55975128D01*
X178514818Y-55940553D01*
X178496382Y-55930800D01*
X178492557Y-55930549D01*
X178475715Y-55917135D01*
X178467071Y-55877543D01*
X178464632Y-55803800D01*
X178464570Y-55788498D01*
X178461216Y-55721128D01*
X178451318Y-55686553D01*
X178432882Y-55676800D01*
X178426213Y-55676555D01*
X178402507Y-55665236D01*
X178411180Y-55644937D01*
X178448757Y-55626641D01*
X178464742Y-55623562D01*
X178526549Y-55618064D01*
X178611854Y-55614970D01*
X178707505Y-55614281D01*
X178800350Y-55615996D01*
G37*
X183288256Y-54936062D02*
X183388853Y-54937963D01*
X183470256Y-54941928D01*
X183524753Y-54947468D01*
X183544632Y-54954094D01*
X183544947Y-54955289D01*
X183568772Y-54966093D01*
X183623025Y-54977205D01*
X183697185Y-54986399D01*
X183705005Y-54987148D01*
X183779979Y-54996705D01*
X183835920Y-55007958D01*
X183861227Y-55018627D01*
X183875741Y-55027222D01*
X183922968Y-55040698D01*
X183989132Y-55052383D01*
X184036859Y-55060380D01*
X184091770Y-55074500D01*
X184118374Y-55088300D01*
X184123584Y-55093198D01*
X184161255Y-55108458D01*
X184218915Y-55120275D01*
X184233511Y-55122419D01*
X184289102Y-55136567D01*
X184303521Y-55151744D01*
X184277402Y-55163853D01*
X184211382Y-55168800D01*
X184170983Y-55167509D01*
X184128598Y-55157977D01*
X184116132Y-55137050D01*
X184111988Y-55126435D01*
X184093784Y-55117460D01*
X184055810Y-55111371D01*
X183992428Y-55107656D01*
X183897998Y-55105804D01*
X183766882Y-55105300D01*
X183650122Y-55105677D01*
X183551389Y-55107331D01*
X183484412Y-55110784D01*
X183443553Y-55116546D01*
X183423173Y-55125130D01*
X183417632Y-55137050D01*
X183417382Y-55140875D01*
X183403968Y-55157718D01*
X183364376Y-55166361D01*
X183290632Y-55168800D01*
X183275330Y-55168862D01*
X183207961Y-55172216D01*
X183173386Y-55182114D01*
X183163632Y-55200550D01*
X183150546Y-55222834D01*
X183100132Y-55232300D01*
X183055565Y-55238843D01*
X183036632Y-55264050D01*
X183032945Y-55278857D01*
X183004882Y-55295800D01*
X182990076Y-55299488D01*
X182973132Y-55327550D01*
X182960046Y-55349834D01*
X182909632Y-55359300D01*
X182876117Y-55361245D01*
X182851377Y-55377823D01*
X182846132Y-55422800D01*
X182839589Y-55467368D01*
X182814382Y-55486300D01*
X182799576Y-55489988D01*
X182782632Y-55518050D01*
X182781708Y-55523328D01*
X182771000Y-55533091D01*
X182744086Y-55540178D01*
X182695741Y-55544990D01*
X182620742Y-55547930D01*
X182513864Y-55549399D01*
X182369882Y-55549800D01*
X182301267Y-55549729D01*
X182174346Y-55548905D01*
X182082217Y-55546835D01*
X182019656Y-55543116D01*
X181981438Y-55537347D01*
X181962338Y-55529125D01*
X181957132Y-55518050D01*
X181960820Y-55503243D01*
X181988882Y-55486300D01*
X182003689Y-55482612D01*
X182020632Y-55454550D01*
X182024320Y-55439743D01*
X182052382Y-55422800D01*
X182067189Y-55419112D01*
X182084132Y-55391050D01*
X182087820Y-55376243D01*
X182115882Y-55359300D01*
X182130689Y-55355612D01*
X182147632Y-55327550D01*
X182151320Y-55312743D01*
X182179382Y-55295800D01*
X182193963Y-55293610D01*
X182211132Y-55276315D01*
X182211144Y-55275933D01*
X182230195Y-55258242D01*
X182274632Y-55242883D01*
X182275618Y-55242663D01*
X182319803Y-55223975D01*
X182338132Y-55198868D01*
X182341801Y-55184880D01*
X182369882Y-55168800D01*
X182384455Y-55166681D01*
X182401632Y-55149928D01*
X182417680Y-55132902D01*
X182459629Y-55116500D01*
X182502128Y-55101152D01*
X182530662Y-55080850D01*
X182535904Y-55075763D01*
X182573690Y-55060009D01*
X182631415Y-55047991D01*
X182653270Y-55044544D01*
X182700362Y-55032491D01*
X182719132Y-55019924D01*
X182733237Y-55010844D01*
X182779247Y-54999106D01*
X182846132Y-54988883D01*
X182904100Y-54980037D01*
X182953956Y-54967335D01*
X182973132Y-54955055D01*
X182974642Y-54953093D01*
X183004603Y-54946373D01*
X183067104Y-54940935D01*
X183154434Y-54937294D01*
X183258882Y-54935967D01*
X183288256Y-54936062D01*
G36*
X183288256Y-54936062D02*
G01*
X183388853Y-54937963D01*
X183470256Y-54941928D01*
X183524753Y-54947468D01*
X183544632Y-54954094D01*
X183544947Y-54955289D01*
X183568772Y-54966093D01*
X183623025Y-54977205D01*
X183697185Y-54986399D01*
X183705005Y-54987148D01*
X183779979Y-54996705D01*
X183835920Y-55007958D01*
X183861227Y-55018627D01*
X183875741Y-55027222D01*
X183922968Y-55040698D01*
X183989132Y-55052383D01*
X184036859Y-55060380D01*
X184091770Y-55074500D01*
X184118374Y-55088300D01*
X184123584Y-55093198D01*
X184161255Y-55108458D01*
X184218915Y-55120275D01*
X184233511Y-55122419D01*
X184289102Y-55136567D01*
X184303521Y-55151744D01*
X184277402Y-55163853D01*
X184211382Y-55168800D01*
X184170983Y-55167509D01*
X184128598Y-55157977D01*
X184116132Y-55137050D01*
X184111988Y-55126435D01*
X184093784Y-55117460D01*
X184055810Y-55111371D01*
X183992428Y-55107656D01*
X183897998Y-55105804D01*
X183766882Y-55105300D01*
X183650122Y-55105677D01*
X183551389Y-55107331D01*
X183484412Y-55110784D01*
X183443553Y-55116546D01*
X183423173Y-55125130D01*
X183417632Y-55137050D01*
X183417382Y-55140875D01*
X183403968Y-55157718D01*
X183364376Y-55166361D01*
X183290632Y-55168800D01*
X183275330Y-55168862D01*
X183207961Y-55172216D01*
X183173386Y-55182114D01*
X183163632Y-55200550D01*
X183150546Y-55222834D01*
X183100132Y-55232300D01*
X183055565Y-55238843D01*
X183036632Y-55264050D01*
X183032945Y-55278857D01*
X183004882Y-55295800D01*
X182990076Y-55299488D01*
X182973132Y-55327550D01*
X182960046Y-55349834D01*
X182909632Y-55359300D01*
X182876117Y-55361245D01*
X182851377Y-55377823D01*
X182846132Y-55422800D01*
X182839589Y-55467368D01*
X182814382Y-55486300D01*
X182799576Y-55489988D01*
X182782632Y-55518050D01*
X182781708Y-55523328D01*
X182771000Y-55533091D01*
X182744086Y-55540178D01*
X182695741Y-55544990D01*
X182620742Y-55547930D01*
X182513864Y-55549399D01*
X182369882Y-55549800D01*
X182301267Y-55549729D01*
X182174346Y-55548905D01*
X182082217Y-55546835D01*
X182019656Y-55543116D01*
X181981438Y-55537347D01*
X181962338Y-55529125D01*
X181957132Y-55518050D01*
X181960820Y-55503243D01*
X181988882Y-55486300D01*
X182003689Y-55482612D01*
X182020632Y-55454550D01*
X182024320Y-55439743D01*
X182052382Y-55422800D01*
X182067189Y-55419112D01*
X182084132Y-55391050D01*
X182087820Y-55376243D01*
X182115882Y-55359300D01*
X182130689Y-55355612D01*
X182147632Y-55327550D01*
X182151320Y-55312743D01*
X182179382Y-55295800D01*
X182193963Y-55293610D01*
X182211132Y-55276315D01*
X182211144Y-55275933D01*
X182230195Y-55258242D01*
X182274632Y-55242883D01*
X182275618Y-55242663D01*
X182319803Y-55223975D01*
X182338132Y-55198868D01*
X182341801Y-55184880D01*
X182369882Y-55168800D01*
X182384455Y-55166681D01*
X182401632Y-55149928D01*
X182417680Y-55132902D01*
X182459629Y-55116500D01*
X182502128Y-55101152D01*
X182530662Y-55080850D01*
X182535904Y-55075763D01*
X182573690Y-55060009D01*
X182631415Y-55047991D01*
X182653270Y-55044544D01*
X182700362Y-55032491D01*
X182719132Y-55019924D01*
X182733237Y-55010844D01*
X182779247Y-54999106D01*
X182846132Y-54988883D01*
X182904100Y-54980037D01*
X182953956Y-54967335D01*
X182973132Y-54955055D01*
X182974642Y-54953093D01*
X183004603Y-54946373D01*
X183067104Y-54940935D01*
X183154434Y-54937294D01*
X183258882Y-54935967D01*
X183288256Y-54936062D01*
G37*
X181830888Y-55697968D02*
X181875228Y-55703438D01*
X181893632Y-55716346D01*
X181896399Y-55721291D01*
X181927268Y-55735302D01*
X181981350Y-55746491D01*
X182001570Y-55749708D01*
X182054566Y-55763561D01*
X182082103Y-55779350D01*
X182106120Y-55797385D01*
X182153136Y-55815000D01*
X182193083Y-55830247D01*
X182211132Y-55848428D01*
X182214697Y-55857089D01*
X182242882Y-55867300D01*
X182257689Y-55870988D01*
X182274632Y-55899050D01*
X182278320Y-55913857D01*
X182306382Y-55930800D01*
X182321189Y-55934488D01*
X182338132Y-55962550D01*
X182341820Y-55977357D01*
X182369882Y-55994300D01*
X182392166Y-56007387D01*
X182401632Y-56057800D01*
X182408176Y-56102368D01*
X182433382Y-56121300D01*
X182441748Y-56123059D01*
X182453443Y-56138647D01*
X182460588Y-56176035D01*
X182464159Y-56242058D01*
X182465132Y-56343550D01*
X182464881Y-56402110D01*
X182462654Y-56483975D01*
X182457313Y-56533989D01*
X182447881Y-56558986D01*
X182433382Y-56565800D01*
X182411099Y-56578887D01*
X182401632Y-56629300D01*
X182395089Y-56673868D01*
X182369882Y-56692800D01*
X182355076Y-56696488D01*
X182338132Y-56724550D01*
X182334260Y-56738016D01*
X182305663Y-56752145D01*
X182242882Y-56756300D01*
X182202483Y-56757591D01*
X182160098Y-56767123D01*
X182147632Y-56788050D01*
X182147382Y-56791875D01*
X182133968Y-56808718D01*
X182094376Y-56817361D01*
X182020632Y-56819800D01*
X182005330Y-56819737D01*
X181937961Y-56816384D01*
X181903386Y-56806486D01*
X181893632Y-56788050D01*
X181880546Y-56765766D01*
X181830132Y-56756300D01*
X181785565Y-56749756D01*
X181766632Y-56724550D01*
X181753546Y-56702266D01*
X181703132Y-56692800D01*
X181658565Y-56686256D01*
X181639632Y-56661050D01*
X181643320Y-56646243D01*
X181671382Y-56629300D01*
X181687168Y-56624763D01*
X181703132Y-56595255D01*
X181703666Y-56586995D01*
X181718445Y-56570466D01*
X181761129Y-56575767D01*
X181803269Y-56590265D01*
X181829921Y-56607791D01*
X181829964Y-56607860D01*
X181857986Y-56620505D01*
X181916572Y-56629697D01*
X181994074Y-56634257D01*
X182078841Y-56633005D01*
X182128056Y-56623291D01*
X182147632Y-56597550D01*
X182151320Y-56582743D01*
X182179382Y-56565800D01*
X182191919Y-56560727D01*
X182201539Y-56539297D01*
X182207409Y-56494984D01*
X182210336Y-56421310D01*
X182211132Y-56311800D01*
X182210498Y-56211505D01*
X182207820Y-56134544D01*
X182202280Y-56087591D01*
X182193071Y-56064168D01*
X182179382Y-56057800D01*
X182164576Y-56054112D01*
X182147632Y-56026050D01*
X182143945Y-56011243D01*
X182115882Y-55994300D01*
X182101076Y-55990612D01*
X182084132Y-55962550D01*
X182071046Y-55940266D01*
X182020632Y-55930800D01*
X181976065Y-55924256D01*
X181957132Y-55899050D01*
X181956882Y-55895224D01*
X181943468Y-55878382D01*
X181903876Y-55869738D01*
X181830132Y-55867300D01*
X181814830Y-55867362D01*
X181747461Y-55870716D01*
X181712886Y-55880614D01*
X181703132Y-55899050D01*
X181690046Y-55921334D01*
X181639632Y-55930800D01*
X181595065Y-55924256D01*
X181576132Y-55899050D01*
X181572445Y-55884243D01*
X181544382Y-55867300D01*
X181529576Y-55863612D01*
X181512632Y-55835550D01*
X181516096Y-55820782D01*
X181542619Y-55803800D01*
X181555405Y-55801859D01*
X181580115Y-55781268D01*
X181584821Y-55775271D01*
X181620355Y-55758951D01*
X181677129Y-55746731D01*
X181700563Y-55742945D01*
X181747832Y-55730105D01*
X181766632Y-55716346D01*
X181766637Y-55716128D01*
X181785536Y-55703294D01*
X181830132Y-55697967D01*
X181830888Y-55697968D01*
G36*
X181830888Y-55697968D02*
G01*
X181875228Y-55703438D01*
X181893632Y-55716346D01*
X181896399Y-55721291D01*
X181927268Y-55735302D01*
X181981350Y-55746491D01*
X182001570Y-55749708D01*
X182054566Y-55763561D01*
X182082103Y-55779350D01*
X182106120Y-55797385D01*
X182153136Y-55815000D01*
X182193083Y-55830247D01*
X182211132Y-55848428D01*
X182214697Y-55857089D01*
X182242882Y-55867300D01*
X182257689Y-55870988D01*
X182274632Y-55899050D01*
X182278320Y-55913857D01*
X182306382Y-55930800D01*
X182321189Y-55934488D01*
X182338132Y-55962550D01*
X182341820Y-55977357D01*
X182369882Y-55994300D01*
X182392166Y-56007387D01*
X182401632Y-56057800D01*
X182408176Y-56102368D01*
X182433382Y-56121300D01*
X182441748Y-56123059D01*
X182453443Y-56138647D01*
X182460588Y-56176035D01*
X182464159Y-56242058D01*
X182465132Y-56343550D01*
X182464881Y-56402110D01*
X182462654Y-56483975D01*
X182457313Y-56533989D01*
X182447881Y-56558986D01*
X182433382Y-56565800D01*
X182411099Y-56578887D01*
X182401632Y-56629300D01*
X182395089Y-56673868D01*
X182369882Y-56692800D01*
X182355076Y-56696488D01*
X182338132Y-56724550D01*
X182334260Y-56738016D01*
X182305663Y-56752145D01*
X182242882Y-56756300D01*
X182202483Y-56757591D01*
X182160098Y-56767123D01*
X182147632Y-56788050D01*
X182147382Y-56791875D01*
X182133968Y-56808718D01*
X182094376Y-56817361D01*
X182020632Y-56819800D01*
X182005330Y-56819737D01*
X181937961Y-56816384D01*
X181903386Y-56806486D01*
X181893632Y-56788050D01*
X181880546Y-56765766D01*
X181830132Y-56756300D01*
X181785565Y-56749756D01*
X181766632Y-56724550D01*
X181753546Y-56702266D01*
X181703132Y-56692800D01*
X181658565Y-56686256D01*
X181639632Y-56661050D01*
X181643320Y-56646243D01*
X181671382Y-56629300D01*
X181687168Y-56624763D01*
X181703132Y-56595255D01*
X181703666Y-56586995D01*
X181718445Y-56570466D01*
X181761129Y-56575767D01*
X181803269Y-56590265D01*
X181829921Y-56607791D01*
X181829964Y-56607860D01*
X181857986Y-56620505D01*
X181916572Y-56629697D01*
X181994074Y-56634257D01*
X182078841Y-56633005D01*
X182128056Y-56623291D01*
X182147632Y-56597550D01*
X182151320Y-56582743D01*
X182179382Y-56565800D01*
X182191919Y-56560727D01*
X182201539Y-56539297D01*
X182207409Y-56494984D01*
X182210336Y-56421310D01*
X182211132Y-56311800D01*
X182210498Y-56211505D01*
X182207820Y-56134544D01*
X182202280Y-56087591D01*
X182193071Y-56064168D01*
X182179382Y-56057800D01*
X182164576Y-56054112D01*
X182147632Y-56026050D01*
X182143945Y-56011243D01*
X182115882Y-55994300D01*
X182101076Y-55990612D01*
X182084132Y-55962550D01*
X182071046Y-55940266D01*
X182020632Y-55930800D01*
X181976065Y-55924256D01*
X181957132Y-55899050D01*
X181956882Y-55895224D01*
X181943468Y-55878382D01*
X181903876Y-55869738D01*
X181830132Y-55867300D01*
X181814830Y-55867362D01*
X181747461Y-55870716D01*
X181712886Y-55880614D01*
X181703132Y-55899050D01*
X181690046Y-55921334D01*
X181639632Y-55930800D01*
X181595065Y-55924256D01*
X181576132Y-55899050D01*
X181572445Y-55884243D01*
X181544382Y-55867300D01*
X181529576Y-55863612D01*
X181512632Y-55835550D01*
X181516096Y-55820782D01*
X181542619Y-55803800D01*
X181555405Y-55801859D01*
X181580115Y-55781268D01*
X181584821Y-55775271D01*
X181620355Y-55758951D01*
X181677129Y-55746731D01*
X181700563Y-55742945D01*
X181747832Y-55730105D01*
X181766632Y-55716346D01*
X181766637Y-55716128D01*
X181785536Y-55703294D01*
X181830132Y-55697967D01*
X181830888Y-55697968D01*
G37*
X179823603Y-55613310D02*
X179954822Y-55613923D01*
X180050028Y-55615804D01*
X180114642Y-55619405D01*
X180154084Y-55625179D01*
X180173774Y-55633577D01*
X180179132Y-55645050D01*
X180182820Y-55659857D01*
X180210882Y-55676800D01*
X180214708Y-55677050D01*
X180231550Y-55690464D01*
X180240194Y-55730057D01*
X180242632Y-55803800D01*
X180242632Y-55930800D01*
X180052132Y-55930800D01*
X180052132Y-56057800D01*
X180052195Y-56073102D01*
X180055549Y-56140471D01*
X180065447Y-56175046D01*
X180083882Y-56184800D01*
X180087708Y-56185050D01*
X180104550Y-56198464D01*
X180113194Y-56238057D01*
X180115632Y-56311800D01*
X180115695Y-56327102D01*
X180119049Y-56394471D01*
X180128947Y-56429046D01*
X180147382Y-56438800D01*
X180151208Y-56439050D01*
X180168050Y-56452464D01*
X180176694Y-56492057D01*
X180179132Y-56565800D01*
X180179195Y-56581102D01*
X180182549Y-56648471D01*
X180192447Y-56683046D01*
X180210882Y-56692800D01*
X180233166Y-56705887D01*
X180242632Y-56756300D01*
X180249176Y-56800868D01*
X180274382Y-56819800D01*
X180292898Y-56827657D01*
X180306132Y-56862133D01*
X180311805Y-56886836D01*
X180336119Y-56904467D01*
X180348938Y-56906715D01*
X180375020Y-56930925D01*
X180377154Y-56934510D01*
X180400996Y-56945063D01*
X180453480Y-56951944D01*
X180539146Y-56955555D01*
X180662534Y-56956295D01*
X180941132Y-56955207D01*
X180941132Y-57014503D01*
X180947551Y-57055074D01*
X180972882Y-57073800D01*
X180976708Y-57074050D01*
X180993550Y-57087464D01*
X181002194Y-57127057D01*
X181004632Y-57200800D01*
X181004632Y-57327800D01*
X180623632Y-57327800D01*
X180598162Y-57327789D01*
X180466943Y-57327177D01*
X180371737Y-57325296D01*
X180307123Y-57321694D01*
X180267681Y-57315921D01*
X180247991Y-57307523D01*
X180242632Y-57296050D01*
X180238760Y-57282583D01*
X180210163Y-57268455D01*
X180147382Y-57264300D01*
X180106983Y-57263009D01*
X180064598Y-57253477D01*
X180052132Y-57232550D01*
X180048445Y-57217743D01*
X180020382Y-57200800D01*
X180005576Y-57197112D01*
X179988632Y-57169050D01*
X179984945Y-57154243D01*
X179956882Y-57137300D01*
X179942076Y-57133612D01*
X179925132Y-57105550D01*
X179921445Y-57090743D01*
X179893382Y-57073800D01*
X179878576Y-57070112D01*
X179861632Y-57042050D01*
X179857945Y-57027243D01*
X179829882Y-57010300D01*
X179807599Y-56997213D01*
X179798132Y-56946800D01*
X179791589Y-56902232D01*
X179766382Y-56883300D01*
X179752916Y-56879427D01*
X179738788Y-56850830D01*
X179734632Y-56788050D01*
X179733342Y-56747651D01*
X179723809Y-56705265D01*
X179702882Y-56692800D01*
X179689416Y-56688927D01*
X179675288Y-56660330D01*
X179671132Y-56597550D01*
X179669842Y-56557151D01*
X179660309Y-56514765D01*
X179639382Y-56502300D01*
X179635557Y-56502049D01*
X179618715Y-56488635D01*
X179610071Y-56449043D01*
X179607632Y-56375300D01*
X179607570Y-56359998D01*
X179604216Y-56292628D01*
X179594318Y-56258053D01*
X179575882Y-56248300D01*
X179572057Y-56248049D01*
X179555215Y-56234635D01*
X179546571Y-56195043D01*
X179544132Y-56121300D01*
X179544070Y-56105998D01*
X179540716Y-56038628D01*
X179530818Y-56004053D01*
X179512382Y-55994300D01*
X179508557Y-55994049D01*
X179491715Y-55980635D01*
X179483071Y-55941043D01*
X179480632Y-55867300D01*
X179480570Y-55851998D01*
X179477216Y-55784628D01*
X179467318Y-55750053D01*
X179448882Y-55740300D01*
X179426599Y-55727213D01*
X179417132Y-55676800D01*
X179417132Y-55613300D01*
X179798132Y-55613300D01*
X179823603Y-55613310D01*
G36*
X179823603Y-55613310D02*
G01*
X179954822Y-55613923D01*
X180050028Y-55615804D01*
X180114642Y-55619405D01*
X180154084Y-55625179D01*
X180173774Y-55633577D01*
X180179132Y-55645050D01*
X180182820Y-55659857D01*
X180210882Y-55676800D01*
X180214708Y-55677050D01*
X180231550Y-55690464D01*
X180240194Y-55730057D01*
X180242632Y-55803800D01*
X180242632Y-55930800D01*
X180052132Y-55930800D01*
X180052132Y-56057800D01*
X180052195Y-56073102D01*
X180055549Y-56140471D01*
X180065447Y-56175046D01*
X180083882Y-56184800D01*
X180087708Y-56185050D01*
X180104550Y-56198464D01*
X180113194Y-56238057D01*
X180115632Y-56311800D01*
X180115695Y-56327102D01*
X180119049Y-56394471D01*
X180128947Y-56429046D01*
X180147382Y-56438800D01*
X180151208Y-56439050D01*
X180168050Y-56452464D01*
X180176694Y-56492057D01*
X180179132Y-56565800D01*
X180179195Y-56581102D01*
X180182549Y-56648471D01*
X180192447Y-56683046D01*
X180210882Y-56692800D01*
X180233166Y-56705887D01*
X180242632Y-56756300D01*
X180249176Y-56800868D01*
X180274382Y-56819800D01*
X180292898Y-56827657D01*
X180306132Y-56862133D01*
X180311805Y-56886836D01*
X180336119Y-56904467D01*
X180348938Y-56906715D01*
X180375020Y-56930925D01*
X180377154Y-56934510D01*
X180400996Y-56945063D01*
X180453480Y-56951944D01*
X180539146Y-56955555D01*
X180662534Y-56956295D01*
X180941132Y-56955207D01*
X180941132Y-57014503D01*
X180947551Y-57055074D01*
X180972882Y-57073800D01*
X180976708Y-57074050D01*
X180993550Y-57087464D01*
X181002194Y-57127057D01*
X181004632Y-57200800D01*
X181004632Y-57327800D01*
X180623632Y-57327800D01*
X180598162Y-57327789D01*
X180466943Y-57327177D01*
X180371737Y-57325296D01*
X180307123Y-57321694D01*
X180267681Y-57315921D01*
X180247991Y-57307523D01*
X180242632Y-57296050D01*
X180238760Y-57282583D01*
X180210163Y-57268455D01*
X180147382Y-57264300D01*
X180106983Y-57263009D01*
X180064598Y-57253477D01*
X180052132Y-57232550D01*
X180048445Y-57217743D01*
X180020382Y-57200800D01*
X180005576Y-57197112D01*
X179988632Y-57169050D01*
X179984945Y-57154243D01*
X179956882Y-57137300D01*
X179942076Y-57133612D01*
X179925132Y-57105550D01*
X179921445Y-57090743D01*
X179893382Y-57073800D01*
X179878576Y-57070112D01*
X179861632Y-57042050D01*
X179857945Y-57027243D01*
X179829882Y-57010300D01*
X179807599Y-56997213D01*
X179798132Y-56946800D01*
X179791589Y-56902232D01*
X179766382Y-56883300D01*
X179752916Y-56879427D01*
X179738788Y-56850830D01*
X179734632Y-56788050D01*
X179733342Y-56747651D01*
X179723809Y-56705265D01*
X179702882Y-56692800D01*
X179689416Y-56688927D01*
X179675288Y-56660330D01*
X179671132Y-56597550D01*
X179669842Y-56557151D01*
X179660309Y-56514765D01*
X179639382Y-56502300D01*
X179635557Y-56502049D01*
X179618715Y-56488635D01*
X179610071Y-56449043D01*
X179607632Y-56375300D01*
X179607570Y-56359998D01*
X179604216Y-56292628D01*
X179594318Y-56258053D01*
X179575882Y-56248300D01*
X179572057Y-56248049D01*
X179555215Y-56234635D01*
X179546571Y-56195043D01*
X179544132Y-56121300D01*
X179544070Y-56105998D01*
X179540716Y-56038628D01*
X179530818Y-56004053D01*
X179512382Y-55994300D01*
X179508557Y-55994049D01*
X179491715Y-55980635D01*
X179483071Y-55941043D01*
X179480632Y-55867300D01*
X179480570Y-55851998D01*
X179477216Y-55784628D01*
X179467318Y-55750053D01*
X179448882Y-55740300D01*
X179426599Y-55727213D01*
X179417132Y-55676800D01*
X179417132Y-55613300D01*
X179798132Y-55613300D01*
X179823603Y-55613310D01*
G37*
X175483549Y-56330971D02*
X175493447Y-56365546D01*
X175511882Y-56375300D01*
X175515708Y-56375550D01*
X175532550Y-56388964D01*
X175541194Y-56428557D01*
X175543632Y-56502300D01*
X175543695Y-56517602D01*
X175547049Y-56584971D01*
X175556947Y-56619546D01*
X175575382Y-56629300D01*
X175579208Y-56629550D01*
X175596050Y-56642964D01*
X175604694Y-56682557D01*
X175607132Y-56756300D01*
X175607195Y-56771602D01*
X175610549Y-56838971D01*
X175620447Y-56873546D01*
X175638882Y-56883300D01*
X175642708Y-56883550D01*
X175659550Y-56896964D01*
X175668194Y-56936557D01*
X175670632Y-57010300D01*
X175670695Y-57025602D01*
X175674049Y-57092971D01*
X175683947Y-57127546D01*
X175702382Y-57137300D01*
X175715849Y-57141173D01*
X175729977Y-57169769D01*
X175734132Y-57232550D01*
X175734132Y-57327800D01*
X175226132Y-57327800D01*
X175226132Y-57264300D01*
X175219589Y-57219732D01*
X175194382Y-57200800D01*
X175190557Y-57200549D01*
X175173715Y-57187135D01*
X175165071Y-57147543D01*
X175162632Y-57073800D01*
X175162570Y-57058498D01*
X175159216Y-56991128D01*
X175149318Y-56956553D01*
X175130882Y-56946800D01*
X175117416Y-56942927D01*
X175103288Y-56914330D01*
X175099132Y-56851550D01*
X175099132Y-56756300D01*
X174813382Y-56756300D01*
X174781027Y-56756265D01*
X174673375Y-56755218D01*
X174600370Y-56752208D01*
X174555853Y-56746550D01*
X174533661Y-56737559D01*
X174527632Y-56724550D01*
X174527382Y-56720724D01*
X174513968Y-56703882D01*
X174474376Y-56695238D01*
X174400632Y-56692800D01*
X174385330Y-56692737D01*
X174317961Y-56689384D01*
X174283386Y-56679486D01*
X174273632Y-56661050D01*
X174260546Y-56638766D01*
X174210132Y-56629300D01*
X174165565Y-56622756D01*
X174146632Y-56597550D01*
X174142945Y-56582743D01*
X174114882Y-56565800D01*
X174100076Y-56562112D01*
X174083132Y-56534050D01*
X174079445Y-56519243D01*
X174051382Y-56502300D01*
X174036576Y-56498612D01*
X174019632Y-56470550D01*
X174015945Y-56455743D01*
X173987882Y-56438800D01*
X173973076Y-56435112D01*
X173956132Y-56407050D01*
X173952445Y-56392243D01*
X173924382Y-56375300D01*
X173920557Y-56375049D01*
X173903715Y-56361635D01*
X173895071Y-56322043D01*
X173892632Y-56248300D01*
X173892570Y-56232998D01*
X173889216Y-56165628D01*
X173885615Y-56153050D01*
X174400632Y-56153050D01*
X174401923Y-56193449D01*
X174411456Y-56235834D01*
X174432382Y-56248300D01*
X174447189Y-56251988D01*
X174464132Y-56280050D01*
X174467820Y-56294857D01*
X174495882Y-56311800D01*
X174510636Y-56315175D01*
X174527632Y-56341081D01*
X174546097Y-56368472D01*
X174597009Y-56388369D01*
X174670507Y-56396177D01*
X174700185Y-56401000D01*
X174718132Y-56417633D01*
X174731622Y-56427192D01*
X174777485Y-56435587D01*
X174845132Y-56438800D01*
X174972132Y-56438800D01*
X174972132Y-56311800D01*
X174972070Y-56296498D01*
X174968716Y-56229128D01*
X174958818Y-56194553D01*
X174940382Y-56184800D01*
X174936557Y-56184549D01*
X174919715Y-56171135D01*
X174911071Y-56131543D01*
X174908632Y-56057800D01*
X174908632Y-55930800D01*
X174718132Y-55930800D01*
X174704289Y-55930817D01*
X174616150Y-55932399D01*
X174562151Y-55937412D01*
X174535056Y-55947060D01*
X174527632Y-55962550D01*
X174523945Y-55977357D01*
X174495882Y-55994300D01*
X174481076Y-55997988D01*
X174464132Y-56026050D01*
X174460445Y-56040857D01*
X174432382Y-56057800D01*
X174418916Y-56061673D01*
X174404788Y-56090269D01*
X174400632Y-56153050D01*
X173885615Y-56153050D01*
X173879318Y-56131053D01*
X173860882Y-56121300D01*
X173838599Y-56108213D01*
X173829132Y-56057800D01*
X173835676Y-56013232D01*
X173860882Y-55994300D01*
X173883166Y-55981213D01*
X173892632Y-55930800D01*
X173899176Y-55886232D01*
X173924382Y-55867300D01*
X173944788Y-55857362D01*
X173956132Y-55816065D01*
X173956620Y-55804454D01*
X173972662Y-55769633D01*
X174019632Y-55750883D01*
X174020930Y-55750595D01*
X174064906Y-55735773D01*
X174083132Y-55719746D01*
X174099198Y-55703868D01*
X174141129Y-55688000D01*
X174183898Y-55672004D01*
X174213915Y-55649513D01*
X174215833Y-55647629D01*
X174247249Y-55639110D01*
X174316059Y-55631848D01*
X174423493Y-55625770D01*
X174570786Y-55620802D01*
X174759169Y-55616871D01*
X174890518Y-55614839D01*
X175025085Y-55613320D01*
X175125835Y-55613239D01*
X175197549Y-55614827D01*
X175245005Y-55618314D01*
X175272985Y-55623931D01*
X175286267Y-55631909D01*
X175289632Y-55642479D01*
X175293927Y-55659662D01*
X175321382Y-55676800D01*
X175325208Y-55677050D01*
X175342050Y-55690464D01*
X175350694Y-55730057D01*
X175353132Y-55803800D01*
X175353195Y-55819102D01*
X175356549Y-55886471D01*
X175366447Y-55921046D01*
X175384882Y-55930800D01*
X175398349Y-55934673D01*
X175412477Y-55963269D01*
X175416632Y-56026050D01*
X175417923Y-56066449D01*
X175427456Y-56108834D01*
X175448382Y-56121300D01*
X175452208Y-56121550D01*
X175469050Y-56134964D01*
X175477694Y-56174557D01*
X175480132Y-56248300D01*
X175480195Y-56263602D01*
X175482595Y-56311800D01*
X175483549Y-56330971D01*
G36*
X175483549Y-56330971D02*
G01*
X175493447Y-56365546D01*
X175511882Y-56375300D01*
X175515708Y-56375550D01*
X175532550Y-56388964D01*
X175541194Y-56428557D01*
X175543632Y-56502300D01*
X175543695Y-56517602D01*
X175547049Y-56584971D01*
X175556947Y-56619546D01*
X175575382Y-56629300D01*
X175579208Y-56629550D01*
X175596050Y-56642964D01*
X175604694Y-56682557D01*
X175607132Y-56756300D01*
X175607195Y-56771602D01*
X175610549Y-56838971D01*
X175620447Y-56873546D01*
X175638882Y-56883300D01*
X175642708Y-56883550D01*
X175659550Y-56896964D01*
X175668194Y-56936557D01*
X175670632Y-57010300D01*
X175670695Y-57025602D01*
X175674049Y-57092971D01*
X175683947Y-57127546D01*
X175702382Y-57137300D01*
X175715849Y-57141173D01*
X175729977Y-57169769D01*
X175734132Y-57232550D01*
X175734132Y-57327800D01*
X175226132Y-57327800D01*
X175226132Y-57264300D01*
X175219589Y-57219732D01*
X175194382Y-57200800D01*
X175190557Y-57200549D01*
X175173715Y-57187135D01*
X175165071Y-57147543D01*
X175162632Y-57073800D01*
X175162570Y-57058498D01*
X175159216Y-56991128D01*
X175149318Y-56956553D01*
X175130882Y-56946800D01*
X175117416Y-56942927D01*
X175103288Y-56914330D01*
X175099132Y-56851550D01*
X175099132Y-56756300D01*
X174813382Y-56756300D01*
X174781027Y-56756265D01*
X174673375Y-56755218D01*
X174600370Y-56752208D01*
X174555853Y-56746550D01*
X174533661Y-56737559D01*
X174527632Y-56724550D01*
X174527382Y-56720724D01*
X174513968Y-56703882D01*
X174474376Y-56695238D01*
X174400632Y-56692800D01*
X174385330Y-56692737D01*
X174317961Y-56689384D01*
X174283386Y-56679486D01*
X174273632Y-56661050D01*
X174260546Y-56638766D01*
X174210132Y-56629300D01*
X174165565Y-56622756D01*
X174146632Y-56597550D01*
X174142945Y-56582743D01*
X174114882Y-56565800D01*
X174100076Y-56562112D01*
X174083132Y-56534050D01*
X174079445Y-56519243D01*
X174051382Y-56502300D01*
X174036576Y-56498612D01*
X174019632Y-56470550D01*
X174015945Y-56455743D01*
X173987882Y-56438800D01*
X173973076Y-56435112D01*
X173956132Y-56407050D01*
X173952445Y-56392243D01*
X173924382Y-56375300D01*
X173920557Y-56375049D01*
X173903715Y-56361635D01*
X173895071Y-56322043D01*
X173892632Y-56248300D01*
X173892570Y-56232998D01*
X173889216Y-56165628D01*
X173885615Y-56153050D01*
X174400632Y-56153050D01*
X174401923Y-56193449D01*
X174411456Y-56235834D01*
X174432382Y-56248300D01*
X174447189Y-56251988D01*
X174464132Y-56280050D01*
X174467820Y-56294857D01*
X174495882Y-56311800D01*
X174510636Y-56315175D01*
X174527632Y-56341081D01*
X174546097Y-56368472D01*
X174597009Y-56388369D01*
X174670507Y-56396177D01*
X174700185Y-56401000D01*
X174718132Y-56417633D01*
X174731622Y-56427192D01*
X174777485Y-56435587D01*
X174845132Y-56438800D01*
X174972132Y-56438800D01*
X174972132Y-56311800D01*
X174972070Y-56296498D01*
X174968716Y-56229128D01*
X174958818Y-56194553D01*
X174940382Y-56184800D01*
X174936557Y-56184549D01*
X174919715Y-56171135D01*
X174911071Y-56131543D01*
X174908632Y-56057800D01*
X174908632Y-55930800D01*
X174718132Y-55930800D01*
X174704289Y-55930817D01*
X174616150Y-55932399D01*
X174562151Y-55937412D01*
X174535056Y-55947060D01*
X174527632Y-55962550D01*
X174523945Y-55977357D01*
X174495882Y-55994300D01*
X174481076Y-55997988D01*
X174464132Y-56026050D01*
X174460445Y-56040857D01*
X174432382Y-56057800D01*
X174418916Y-56061673D01*
X174404788Y-56090269D01*
X174400632Y-56153050D01*
X173885615Y-56153050D01*
X173879318Y-56131053D01*
X173860882Y-56121300D01*
X173838599Y-56108213D01*
X173829132Y-56057800D01*
X173835676Y-56013232D01*
X173860882Y-55994300D01*
X173883166Y-55981213D01*
X173892632Y-55930800D01*
X173899176Y-55886232D01*
X173924382Y-55867300D01*
X173944788Y-55857362D01*
X173956132Y-55816065D01*
X173956620Y-55804454D01*
X173972662Y-55769633D01*
X174019632Y-55750883D01*
X174020930Y-55750595D01*
X174064906Y-55735773D01*
X174083132Y-55719746D01*
X174099198Y-55703868D01*
X174141129Y-55688000D01*
X174183898Y-55672004D01*
X174213915Y-55649513D01*
X174215833Y-55647629D01*
X174247249Y-55639110D01*
X174316059Y-55631848D01*
X174423493Y-55625770D01*
X174570786Y-55620802D01*
X174759169Y-55616871D01*
X174890518Y-55614839D01*
X175025085Y-55613320D01*
X175125835Y-55613239D01*
X175197549Y-55614827D01*
X175245005Y-55618314D01*
X175272985Y-55623931D01*
X175286267Y-55631909D01*
X175289632Y-55642479D01*
X175293927Y-55659662D01*
X175321382Y-55676800D01*
X175325208Y-55677050D01*
X175342050Y-55690464D01*
X175350694Y-55730057D01*
X175353132Y-55803800D01*
X175353195Y-55819102D01*
X175356549Y-55886471D01*
X175366447Y-55921046D01*
X175384882Y-55930800D01*
X175398349Y-55934673D01*
X175412477Y-55963269D01*
X175416632Y-56026050D01*
X175417923Y-56066449D01*
X175427456Y-56108834D01*
X175448382Y-56121300D01*
X175452208Y-56121550D01*
X175469050Y-56134964D01*
X175477694Y-56174557D01*
X175480132Y-56248300D01*
X175480195Y-56263602D01*
X175482595Y-56311800D01*
X175483549Y-56330971D01*
G37*
X172601671Y-55571449D02*
X172677577Y-55575132D01*
X172730045Y-55581649D01*
X172749632Y-55590055D01*
X172763724Y-55600403D01*
X172809735Y-55613237D01*
X172876632Y-55623883D01*
X172934615Y-55632545D01*
X172984461Y-55644637D01*
X173003632Y-55656030D01*
X173003646Y-55656387D01*
X173022714Y-55672630D01*
X173067132Y-55687383D01*
X173068413Y-55687668D01*
X173112400Y-55702674D01*
X173130632Y-55719133D01*
X173130645Y-55719495D01*
X173149711Y-55736015D01*
X173194132Y-55750883D01*
X173195367Y-55751158D01*
X173239385Y-55766672D01*
X173257632Y-55784315D01*
X173261201Y-55793263D01*
X173289382Y-55803800D01*
X173304189Y-55807488D01*
X173321132Y-55835550D01*
X173324820Y-55850357D01*
X173352882Y-55867300D01*
X173367689Y-55870988D01*
X173384632Y-55899050D01*
X173388320Y-55913857D01*
X173416382Y-55930800D01*
X173431189Y-55934488D01*
X173448132Y-55962550D01*
X173451820Y-55977357D01*
X173479882Y-55994300D01*
X173494689Y-55997988D01*
X173511632Y-56026050D01*
X173515320Y-56040857D01*
X173543382Y-56057800D01*
X173565666Y-56070887D01*
X173575132Y-56121300D01*
X173581676Y-56165868D01*
X173606882Y-56184800D01*
X173629166Y-56197887D01*
X173638632Y-56248300D01*
X173645176Y-56292868D01*
X173670382Y-56311800D01*
X173677928Y-56313524D01*
X173688211Y-56327339D01*
X173695184Y-56359940D01*
X173699437Y-56417211D01*
X173701557Y-56505036D01*
X173702132Y-56629300D01*
X173701960Y-56704754D01*
X173700579Y-56807582D01*
X173697318Y-56877316D01*
X173691591Y-56919841D01*
X173682809Y-56941041D01*
X173670382Y-56946800D01*
X173648099Y-56959887D01*
X173638632Y-57010300D01*
X173632089Y-57054868D01*
X173606882Y-57073800D01*
X173592076Y-57077488D01*
X173575132Y-57105550D01*
X173571445Y-57120357D01*
X173543382Y-57137300D01*
X173528576Y-57140988D01*
X173511632Y-57169050D01*
X173498546Y-57191334D01*
X173448132Y-57200800D01*
X173403565Y-57207343D01*
X173384632Y-57232550D01*
X173371546Y-57254834D01*
X173321132Y-57264300D01*
X173276565Y-57270843D01*
X173257632Y-57296050D01*
X173253488Y-57306664D01*
X173235284Y-57315640D01*
X173197310Y-57321729D01*
X173133928Y-57325443D01*
X173039498Y-57327296D01*
X172908382Y-57327800D01*
X172791622Y-57327423D01*
X172692889Y-57325768D01*
X172625912Y-57322316D01*
X172585053Y-57316554D01*
X172564673Y-57307969D01*
X172559132Y-57296050D01*
X172555260Y-57282583D01*
X172526663Y-57268455D01*
X172463882Y-57264300D01*
X172423483Y-57263009D01*
X172381098Y-57253477D01*
X172368632Y-57232550D01*
X172355546Y-57210266D01*
X172305132Y-57200800D01*
X172271617Y-57198854D01*
X172246877Y-57182277D01*
X172241632Y-57137300D01*
X172235089Y-57092732D01*
X172209882Y-57073800D01*
X172199943Y-57071640D01*
X172186714Y-57052208D01*
X172180000Y-57006135D01*
X172178132Y-56925633D01*
X172178595Y-56879247D01*
X172182759Y-56817512D01*
X172192632Y-56786180D01*
X172209882Y-56777467D01*
X172224488Y-56779855D01*
X172241632Y-56798633D01*
X172245215Y-56808370D01*
X172273382Y-56819800D01*
X172288189Y-56823488D01*
X172305132Y-56851550D01*
X172318219Y-56873834D01*
X172368632Y-56883300D01*
X172413055Y-56889990D01*
X172432132Y-56912972D01*
X172438986Y-56926569D01*
X172479507Y-56944046D01*
X172559132Y-56957383D01*
X172617100Y-56966229D01*
X172666956Y-56978931D01*
X172686132Y-56991211D01*
X172700134Y-56999898D01*
X172746152Y-57007410D01*
X172813132Y-57010300D01*
X172870927Y-57008152D01*
X172920905Y-57001091D01*
X172940132Y-56990815D01*
X172940144Y-56990433D01*
X172959195Y-56972742D01*
X173003632Y-56957383D01*
X173004618Y-56957163D01*
X173048803Y-56938475D01*
X173067132Y-56913368D01*
X173070801Y-56899380D01*
X173098882Y-56883300D01*
X173113689Y-56879612D01*
X173130632Y-56851550D01*
X173134320Y-56836743D01*
X173162382Y-56819800D01*
X173170748Y-56818041D01*
X173182443Y-56802453D01*
X173189588Y-56765064D01*
X173193159Y-56699041D01*
X173194132Y-56597550D01*
X173193881Y-56538989D01*
X173191654Y-56457124D01*
X173186313Y-56407110D01*
X173176881Y-56382114D01*
X173162382Y-56375300D01*
X173140099Y-56362213D01*
X173130632Y-56311800D01*
X173124089Y-56267232D01*
X173098882Y-56248300D01*
X173076599Y-56235213D01*
X173067132Y-56184800D01*
X173060589Y-56140232D01*
X173035382Y-56121300D01*
X173020576Y-56117612D01*
X173003632Y-56089550D01*
X172990546Y-56067266D01*
X172940132Y-56057800D01*
X172895565Y-56051256D01*
X172876632Y-56026050D01*
X172863546Y-56003766D01*
X172813132Y-55994300D01*
X172768565Y-55987756D01*
X172749632Y-55962550D01*
X172749532Y-55960243D01*
X172740035Y-55945553D01*
X172709959Y-55936553D01*
X172652070Y-55932037D01*
X172559132Y-55930800D01*
X172545289Y-55930817D01*
X172457150Y-55932399D01*
X172403151Y-55937412D01*
X172376056Y-55947060D01*
X172368632Y-55962550D01*
X172355546Y-55984834D01*
X172305132Y-55994300D01*
X172260565Y-56000843D01*
X172241632Y-56026050D01*
X172228546Y-56048334D01*
X172178132Y-56057800D01*
X172133565Y-56064343D01*
X172114632Y-56089550D01*
X172110945Y-56104357D01*
X172082882Y-56121300D01*
X172068076Y-56124988D01*
X172051132Y-56153050D01*
X172047445Y-56167857D01*
X172019382Y-56184800D01*
X171997099Y-56171713D01*
X171987632Y-56121300D01*
X171981089Y-56076732D01*
X171955882Y-56057800D01*
X171952057Y-56057549D01*
X171935215Y-56044135D01*
X171926571Y-56004543D01*
X171924132Y-55930800D01*
X171924070Y-55915498D01*
X171920716Y-55848128D01*
X171910818Y-55813553D01*
X171892382Y-55803800D01*
X171877576Y-55800112D01*
X171860632Y-55772050D01*
X171864320Y-55757243D01*
X171892382Y-55740300D01*
X171906955Y-55738181D01*
X171924132Y-55721428D01*
X171940180Y-55704402D01*
X171982129Y-55688000D01*
X172024416Y-55673155D01*
X172051826Y-55654510D01*
X172052618Y-55653529D01*
X172081479Y-55642279D01*
X172139841Y-55630788D01*
X172216080Y-55621399D01*
X172225896Y-55620449D01*
X172298180Y-55610900D01*
X172349266Y-55599706D01*
X172368632Y-55589094D01*
X172373452Y-55585046D01*
X172410202Y-55577823D01*
X172475243Y-55572830D01*
X172559132Y-55570967D01*
X172601671Y-55571449D01*
G36*
X172601671Y-55571449D02*
G01*
X172677577Y-55575132D01*
X172730045Y-55581649D01*
X172749632Y-55590055D01*
X172763724Y-55600403D01*
X172809735Y-55613237D01*
X172876632Y-55623883D01*
X172934615Y-55632545D01*
X172984461Y-55644637D01*
X173003632Y-55656030D01*
X173003646Y-55656387D01*
X173022714Y-55672630D01*
X173067132Y-55687383D01*
X173068413Y-55687668D01*
X173112400Y-55702674D01*
X173130632Y-55719133D01*
X173130645Y-55719495D01*
X173149711Y-55736015D01*
X173194132Y-55750883D01*
X173195367Y-55751158D01*
X173239385Y-55766672D01*
X173257632Y-55784315D01*
X173261201Y-55793263D01*
X173289382Y-55803800D01*
X173304189Y-55807488D01*
X173321132Y-55835550D01*
X173324820Y-55850357D01*
X173352882Y-55867300D01*
X173367689Y-55870988D01*
X173384632Y-55899050D01*
X173388320Y-55913857D01*
X173416382Y-55930800D01*
X173431189Y-55934488D01*
X173448132Y-55962550D01*
X173451820Y-55977357D01*
X173479882Y-55994300D01*
X173494689Y-55997988D01*
X173511632Y-56026050D01*
X173515320Y-56040857D01*
X173543382Y-56057800D01*
X173565666Y-56070887D01*
X173575132Y-56121300D01*
X173581676Y-56165868D01*
X173606882Y-56184800D01*
X173629166Y-56197887D01*
X173638632Y-56248300D01*
X173645176Y-56292868D01*
X173670382Y-56311800D01*
X173677928Y-56313524D01*
X173688211Y-56327339D01*
X173695184Y-56359940D01*
X173699437Y-56417211D01*
X173701557Y-56505036D01*
X173702132Y-56629300D01*
X173701960Y-56704754D01*
X173700579Y-56807582D01*
X173697318Y-56877316D01*
X173691591Y-56919841D01*
X173682809Y-56941041D01*
X173670382Y-56946800D01*
X173648099Y-56959887D01*
X173638632Y-57010300D01*
X173632089Y-57054868D01*
X173606882Y-57073800D01*
X173592076Y-57077488D01*
X173575132Y-57105550D01*
X173571445Y-57120357D01*
X173543382Y-57137300D01*
X173528576Y-57140988D01*
X173511632Y-57169050D01*
X173498546Y-57191334D01*
X173448132Y-57200800D01*
X173403565Y-57207343D01*
X173384632Y-57232550D01*
X173371546Y-57254834D01*
X173321132Y-57264300D01*
X173276565Y-57270843D01*
X173257632Y-57296050D01*
X173253488Y-57306664D01*
X173235284Y-57315640D01*
X173197310Y-57321729D01*
X173133928Y-57325443D01*
X173039498Y-57327296D01*
X172908382Y-57327800D01*
X172791622Y-57327423D01*
X172692889Y-57325768D01*
X172625912Y-57322316D01*
X172585053Y-57316554D01*
X172564673Y-57307969D01*
X172559132Y-57296050D01*
X172555260Y-57282583D01*
X172526663Y-57268455D01*
X172463882Y-57264300D01*
X172423483Y-57263009D01*
X172381098Y-57253477D01*
X172368632Y-57232550D01*
X172355546Y-57210266D01*
X172305132Y-57200800D01*
X172271617Y-57198854D01*
X172246877Y-57182277D01*
X172241632Y-57137300D01*
X172235089Y-57092732D01*
X172209882Y-57073800D01*
X172199943Y-57071640D01*
X172186714Y-57052208D01*
X172180000Y-57006135D01*
X172178132Y-56925633D01*
X172178595Y-56879247D01*
X172182759Y-56817512D01*
X172192632Y-56786180D01*
X172209882Y-56777467D01*
X172224488Y-56779855D01*
X172241632Y-56798633D01*
X172245215Y-56808370D01*
X172273382Y-56819800D01*
X172288189Y-56823488D01*
X172305132Y-56851550D01*
X172318219Y-56873834D01*
X172368632Y-56883300D01*
X172413055Y-56889990D01*
X172432132Y-56912972D01*
X172438986Y-56926569D01*
X172479507Y-56944046D01*
X172559132Y-56957383D01*
X172617100Y-56966229D01*
X172666956Y-56978931D01*
X172686132Y-56991211D01*
X172700134Y-56999898D01*
X172746152Y-57007410D01*
X172813132Y-57010300D01*
X172870927Y-57008152D01*
X172920905Y-57001091D01*
X172940132Y-56990815D01*
X172940144Y-56990433D01*
X172959195Y-56972742D01*
X173003632Y-56957383D01*
X173004618Y-56957163D01*
X173048803Y-56938475D01*
X173067132Y-56913368D01*
X173070801Y-56899380D01*
X173098882Y-56883300D01*
X173113689Y-56879612D01*
X173130632Y-56851550D01*
X173134320Y-56836743D01*
X173162382Y-56819800D01*
X173170748Y-56818041D01*
X173182443Y-56802453D01*
X173189588Y-56765064D01*
X173193159Y-56699041D01*
X173194132Y-56597550D01*
X173193881Y-56538989D01*
X173191654Y-56457124D01*
X173186313Y-56407110D01*
X173176881Y-56382114D01*
X173162382Y-56375300D01*
X173140099Y-56362213D01*
X173130632Y-56311800D01*
X173124089Y-56267232D01*
X173098882Y-56248300D01*
X173076599Y-56235213D01*
X173067132Y-56184800D01*
X173060589Y-56140232D01*
X173035382Y-56121300D01*
X173020576Y-56117612D01*
X173003632Y-56089550D01*
X172990546Y-56067266D01*
X172940132Y-56057800D01*
X172895565Y-56051256D01*
X172876632Y-56026050D01*
X172863546Y-56003766D01*
X172813132Y-55994300D01*
X172768565Y-55987756D01*
X172749632Y-55962550D01*
X172749532Y-55960243D01*
X172740035Y-55945553D01*
X172709959Y-55936553D01*
X172652070Y-55932037D01*
X172559132Y-55930800D01*
X172545289Y-55930817D01*
X172457150Y-55932399D01*
X172403151Y-55937412D01*
X172376056Y-55947060D01*
X172368632Y-55962550D01*
X172355546Y-55984834D01*
X172305132Y-55994300D01*
X172260565Y-56000843D01*
X172241632Y-56026050D01*
X172228546Y-56048334D01*
X172178132Y-56057800D01*
X172133565Y-56064343D01*
X172114632Y-56089550D01*
X172110945Y-56104357D01*
X172082882Y-56121300D01*
X172068076Y-56124988D01*
X172051132Y-56153050D01*
X172047445Y-56167857D01*
X172019382Y-56184800D01*
X171997099Y-56171713D01*
X171987632Y-56121300D01*
X171981089Y-56076732D01*
X171955882Y-56057800D01*
X171952057Y-56057549D01*
X171935215Y-56044135D01*
X171926571Y-56004543D01*
X171924132Y-55930800D01*
X171924070Y-55915498D01*
X171920716Y-55848128D01*
X171910818Y-55813553D01*
X171892382Y-55803800D01*
X171877576Y-55800112D01*
X171860632Y-55772050D01*
X171864320Y-55757243D01*
X171892382Y-55740300D01*
X171906955Y-55738181D01*
X171924132Y-55721428D01*
X171940180Y-55704402D01*
X171982129Y-55688000D01*
X172024416Y-55673155D01*
X172051826Y-55654510D01*
X172052618Y-55653529D01*
X172081479Y-55642279D01*
X172139841Y-55630788D01*
X172216080Y-55621399D01*
X172225896Y-55620449D01*
X172298180Y-55610900D01*
X172349266Y-55599706D01*
X172368632Y-55589094D01*
X172373452Y-55585046D01*
X172410202Y-55577823D01*
X172475243Y-55572830D01*
X172559132Y-55570967D01*
X172601671Y-55571449D01*
G37*
X171606632Y-56248300D02*
X171606695Y-56263602D01*
X171610049Y-56330971D01*
X171619947Y-56365546D01*
X171638382Y-56375300D01*
X171642208Y-56375550D01*
X171659050Y-56388964D01*
X171667694Y-56428557D01*
X171670132Y-56502300D01*
X171670195Y-56517602D01*
X171673549Y-56584971D01*
X171683447Y-56619546D01*
X171701882Y-56629300D01*
X171705708Y-56629550D01*
X171722550Y-56642964D01*
X171731194Y-56682557D01*
X171733632Y-56756300D01*
X171733695Y-56771602D01*
X171737049Y-56838971D01*
X171746947Y-56873546D01*
X171765382Y-56883300D01*
X171769208Y-56883550D01*
X171786050Y-56896964D01*
X171792118Y-56924755D01*
X171794694Y-56936557D01*
X171797132Y-57010300D01*
X171797195Y-57025602D01*
X171800549Y-57092971D01*
X171810447Y-57127546D01*
X171828882Y-57137300D01*
X171842349Y-57141173D01*
X171856477Y-57169769D01*
X171860632Y-57232550D01*
X171860632Y-57327800D01*
X171320882Y-57327800D01*
X171240706Y-57327748D01*
X171091137Y-57327167D01*
X170977217Y-57325722D01*
X170894342Y-57323141D01*
X170837902Y-57319155D01*
X170803292Y-57313492D01*
X170785905Y-57305880D01*
X170781132Y-57296050D01*
X170780882Y-57292224D01*
X170767468Y-57275382D01*
X170727876Y-57266738D01*
X170654132Y-57264300D01*
X170638830Y-57264237D01*
X170571461Y-57260884D01*
X170536886Y-57250986D01*
X170527132Y-57232550D01*
X170514046Y-57210266D01*
X170463632Y-57200800D01*
X170419065Y-57194256D01*
X170400132Y-57169050D01*
X170387046Y-57146766D01*
X170336632Y-57137300D01*
X170292065Y-57130756D01*
X170273132Y-57105550D01*
X170269445Y-57090743D01*
X170241382Y-57073800D01*
X170219099Y-57060713D01*
X170209632Y-57010300D01*
X170203089Y-56965732D01*
X170177882Y-56946800D01*
X170164416Y-56942927D01*
X170150288Y-56914330D01*
X170146132Y-56851550D01*
X170144842Y-56811151D01*
X170135309Y-56768765D01*
X170114382Y-56756300D01*
X170105168Y-56754005D01*
X170654132Y-56754005D01*
X170655380Y-56822480D01*
X170662325Y-56862381D01*
X170679673Y-56882211D01*
X170712129Y-56893267D01*
X170754973Y-56909455D01*
X170785413Y-56932603D01*
X170787015Y-56934303D01*
X170818719Y-56944152D01*
X170880117Y-56952513D01*
X170960341Y-56958880D01*
X171048520Y-56962747D01*
X171133784Y-56963610D01*
X171205265Y-56960963D01*
X171252091Y-56954300D01*
X171262616Y-56950142D01*
X171285840Y-56924755D01*
X171284533Y-56896600D01*
X171257382Y-56883300D01*
X171253557Y-56883049D01*
X171236715Y-56869635D01*
X171228071Y-56830043D01*
X171225632Y-56756300D01*
X171225570Y-56740998D01*
X171222216Y-56673628D01*
X171212318Y-56639053D01*
X171193882Y-56629300D01*
X171179076Y-56625612D01*
X171162132Y-56597550D01*
X171158495Y-56585362D01*
X171136271Y-56573473D01*
X171087119Y-56567463D01*
X171003382Y-56565800D01*
X170942442Y-56566527D01*
X170883000Y-56570972D01*
X170852948Y-56580803D01*
X170844632Y-56597550D01*
X170840760Y-56611016D01*
X170812163Y-56625145D01*
X170749382Y-56629300D01*
X170654132Y-56629300D01*
X170654132Y-56754005D01*
X170105168Y-56754005D01*
X170099576Y-56752612D01*
X170082632Y-56724550D01*
X170086320Y-56709743D01*
X170114382Y-56692800D01*
X170136666Y-56679713D01*
X170146132Y-56629300D01*
X170152676Y-56584732D01*
X170177882Y-56565800D01*
X170192689Y-56562112D01*
X170209632Y-56534050D01*
X170213320Y-56519243D01*
X170241382Y-56502300D01*
X170256189Y-56498612D01*
X170273132Y-56470550D01*
X170276820Y-56455743D01*
X170304882Y-56438800D01*
X170319689Y-56435112D01*
X170336632Y-56407050D01*
X170332945Y-56392243D01*
X170304882Y-56375300D01*
X170290076Y-56371612D01*
X170273132Y-56343550D01*
X170260046Y-56321266D01*
X170209632Y-56311800D01*
X170165065Y-56305256D01*
X170146132Y-56280050D01*
X170142445Y-56265243D01*
X170114382Y-56248300D01*
X170100916Y-56244427D01*
X170086788Y-56215830D01*
X170082632Y-56153050D01*
X170081342Y-56112651D01*
X170076146Y-56089550D01*
X170590632Y-56089550D01*
X170591923Y-56129949D01*
X170601456Y-56172334D01*
X170622382Y-56184800D01*
X170637128Y-56188124D01*
X170654132Y-56213673D01*
X170655552Y-56219887D01*
X170686000Y-56240955D01*
X170752337Y-56256006D01*
X170800146Y-56261370D01*
X170900619Y-56266537D01*
X170993445Y-56264352D01*
X171061591Y-56254876D01*
X171071552Y-56250368D01*
X171093095Y-56219504D01*
X171099949Y-56176326D01*
X171091437Y-56137901D01*
X171066882Y-56121300D01*
X171053416Y-56117427D01*
X171039288Y-56088830D01*
X171035132Y-56026050D01*
X171035132Y-55930800D01*
X170844632Y-55930800D01*
X170830789Y-55930817D01*
X170742650Y-55932399D01*
X170688651Y-55937412D01*
X170661556Y-55947060D01*
X170654132Y-55962550D01*
X170650445Y-55977357D01*
X170622382Y-55994300D01*
X170608916Y-55998173D01*
X170594788Y-56026769D01*
X170590632Y-56089550D01*
X170076146Y-56089550D01*
X170071809Y-56070265D01*
X170050882Y-56057800D01*
X170028599Y-56044713D01*
X170019132Y-55994300D01*
X170025676Y-55949732D01*
X170050882Y-55930800D01*
X170073166Y-55917713D01*
X170082632Y-55867300D01*
X170089176Y-55822732D01*
X170114382Y-55803800D01*
X170129189Y-55800112D01*
X170146132Y-55772050D01*
X170149596Y-55757282D01*
X170176119Y-55740300D01*
X170188899Y-55738429D01*
X170213327Y-55718634D01*
X170216795Y-55713724D01*
X170250127Y-55696920D01*
X170305049Y-55683611D01*
X170322072Y-55680508D01*
X170375602Y-55664893D01*
X170404642Y-55647068D01*
X170427244Y-55640377D01*
X170485447Y-55633772D01*
X170571823Y-55627773D01*
X170679120Y-55622555D01*
X170800085Y-55618295D01*
X170927467Y-55615169D01*
X171054012Y-55613354D01*
X171172469Y-55613025D01*
X171275585Y-55614358D01*
X171356107Y-55617531D01*
X171406783Y-55622718D01*
X171407942Y-55622936D01*
X171449220Y-55632664D01*
X171470522Y-55649581D01*
X171478456Y-55685403D01*
X171479632Y-55751842D01*
X171482315Y-55819892D01*
X171492166Y-55856777D01*
X171511382Y-55867300D01*
X171515208Y-55867550D01*
X171532050Y-55880964D01*
X171540694Y-55920557D01*
X171543132Y-55994300D01*
X171543195Y-56009602D01*
X171546549Y-56076971D01*
X171556447Y-56111546D01*
X171574882Y-56121300D01*
X171578708Y-56121550D01*
X171595550Y-56134964D01*
X171604194Y-56174557D01*
X171604253Y-56176326D01*
X171606632Y-56248300D01*
G36*
X171606632Y-56248300D02*
G01*
X171606695Y-56263602D01*
X171610049Y-56330971D01*
X171619947Y-56365546D01*
X171638382Y-56375300D01*
X171642208Y-56375550D01*
X171659050Y-56388964D01*
X171667694Y-56428557D01*
X171670132Y-56502300D01*
X171670195Y-56517602D01*
X171673549Y-56584971D01*
X171683447Y-56619546D01*
X171701882Y-56629300D01*
X171705708Y-56629550D01*
X171722550Y-56642964D01*
X171731194Y-56682557D01*
X171733632Y-56756300D01*
X171733695Y-56771602D01*
X171737049Y-56838971D01*
X171746947Y-56873546D01*
X171765382Y-56883300D01*
X171769208Y-56883550D01*
X171786050Y-56896964D01*
X171792118Y-56924755D01*
X171794694Y-56936557D01*
X171797132Y-57010300D01*
X171797195Y-57025602D01*
X171800549Y-57092971D01*
X171810447Y-57127546D01*
X171828882Y-57137300D01*
X171842349Y-57141173D01*
X171856477Y-57169769D01*
X171860632Y-57232550D01*
X171860632Y-57327800D01*
X171320882Y-57327800D01*
X171240706Y-57327748D01*
X171091137Y-57327167D01*
X170977217Y-57325722D01*
X170894342Y-57323141D01*
X170837902Y-57319155D01*
X170803292Y-57313492D01*
X170785905Y-57305880D01*
X170781132Y-57296050D01*
X170780882Y-57292224D01*
X170767468Y-57275382D01*
X170727876Y-57266738D01*
X170654132Y-57264300D01*
X170638830Y-57264237D01*
X170571461Y-57260884D01*
X170536886Y-57250986D01*
X170527132Y-57232550D01*
X170514046Y-57210266D01*
X170463632Y-57200800D01*
X170419065Y-57194256D01*
X170400132Y-57169050D01*
X170387046Y-57146766D01*
X170336632Y-57137300D01*
X170292065Y-57130756D01*
X170273132Y-57105550D01*
X170269445Y-57090743D01*
X170241382Y-57073800D01*
X170219099Y-57060713D01*
X170209632Y-57010300D01*
X170203089Y-56965732D01*
X170177882Y-56946800D01*
X170164416Y-56942927D01*
X170150288Y-56914330D01*
X170146132Y-56851550D01*
X170144842Y-56811151D01*
X170135309Y-56768765D01*
X170114382Y-56756300D01*
X170105168Y-56754005D01*
X170654132Y-56754005D01*
X170655380Y-56822480D01*
X170662325Y-56862381D01*
X170679673Y-56882211D01*
X170712129Y-56893267D01*
X170754973Y-56909455D01*
X170785413Y-56932603D01*
X170787015Y-56934303D01*
X170818719Y-56944152D01*
X170880117Y-56952513D01*
X170960341Y-56958880D01*
X171048520Y-56962747D01*
X171133784Y-56963610D01*
X171205265Y-56960963D01*
X171252091Y-56954300D01*
X171262616Y-56950142D01*
X171285840Y-56924755D01*
X171284533Y-56896600D01*
X171257382Y-56883300D01*
X171253557Y-56883049D01*
X171236715Y-56869635D01*
X171228071Y-56830043D01*
X171225632Y-56756300D01*
X171225570Y-56740998D01*
X171222216Y-56673628D01*
X171212318Y-56639053D01*
X171193882Y-56629300D01*
X171179076Y-56625612D01*
X171162132Y-56597550D01*
X171158495Y-56585362D01*
X171136271Y-56573473D01*
X171087119Y-56567463D01*
X171003382Y-56565800D01*
X170942442Y-56566527D01*
X170883000Y-56570972D01*
X170852948Y-56580803D01*
X170844632Y-56597550D01*
X170840760Y-56611016D01*
X170812163Y-56625145D01*
X170749382Y-56629300D01*
X170654132Y-56629300D01*
X170654132Y-56754005D01*
X170105168Y-56754005D01*
X170099576Y-56752612D01*
X170082632Y-56724550D01*
X170086320Y-56709743D01*
X170114382Y-56692800D01*
X170136666Y-56679713D01*
X170146132Y-56629300D01*
X170152676Y-56584732D01*
X170177882Y-56565800D01*
X170192689Y-56562112D01*
X170209632Y-56534050D01*
X170213320Y-56519243D01*
X170241382Y-56502300D01*
X170256189Y-56498612D01*
X170273132Y-56470550D01*
X170276820Y-56455743D01*
X170304882Y-56438800D01*
X170319689Y-56435112D01*
X170336632Y-56407050D01*
X170332945Y-56392243D01*
X170304882Y-56375300D01*
X170290076Y-56371612D01*
X170273132Y-56343550D01*
X170260046Y-56321266D01*
X170209632Y-56311800D01*
X170165065Y-56305256D01*
X170146132Y-56280050D01*
X170142445Y-56265243D01*
X170114382Y-56248300D01*
X170100916Y-56244427D01*
X170086788Y-56215830D01*
X170082632Y-56153050D01*
X170081342Y-56112651D01*
X170076146Y-56089550D01*
X170590632Y-56089550D01*
X170591923Y-56129949D01*
X170601456Y-56172334D01*
X170622382Y-56184800D01*
X170637128Y-56188124D01*
X170654132Y-56213673D01*
X170655552Y-56219887D01*
X170686000Y-56240955D01*
X170752337Y-56256006D01*
X170800146Y-56261370D01*
X170900619Y-56266537D01*
X170993445Y-56264352D01*
X171061591Y-56254876D01*
X171071552Y-56250368D01*
X171093095Y-56219504D01*
X171099949Y-56176326D01*
X171091437Y-56137901D01*
X171066882Y-56121300D01*
X171053416Y-56117427D01*
X171039288Y-56088830D01*
X171035132Y-56026050D01*
X171035132Y-55930800D01*
X170844632Y-55930800D01*
X170830789Y-55930817D01*
X170742650Y-55932399D01*
X170688651Y-55937412D01*
X170661556Y-55947060D01*
X170654132Y-55962550D01*
X170650445Y-55977357D01*
X170622382Y-55994300D01*
X170608916Y-55998173D01*
X170594788Y-56026769D01*
X170590632Y-56089550D01*
X170076146Y-56089550D01*
X170071809Y-56070265D01*
X170050882Y-56057800D01*
X170028599Y-56044713D01*
X170019132Y-55994300D01*
X170025676Y-55949732D01*
X170050882Y-55930800D01*
X170073166Y-55917713D01*
X170082632Y-55867300D01*
X170089176Y-55822732D01*
X170114382Y-55803800D01*
X170129189Y-55800112D01*
X170146132Y-55772050D01*
X170149596Y-55757282D01*
X170176119Y-55740300D01*
X170188899Y-55738429D01*
X170213327Y-55718634D01*
X170216795Y-55713724D01*
X170250127Y-55696920D01*
X170305049Y-55683611D01*
X170322072Y-55680508D01*
X170375602Y-55664893D01*
X170404642Y-55647068D01*
X170427244Y-55640377D01*
X170485447Y-55633772D01*
X170571823Y-55627773D01*
X170679120Y-55622555D01*
X170800085Y-55618295D01*
X170927467Y-55615169D01*
X171054012Y-55613354D01*
X171172469Y-55613025D01*
X171275585Y-55614358D01*
X171356107Y-55617531D01*
X171406783Y-55622718D01*
X171407942Y-55622936D01*
X171449220Y-55632664D01*
X171470522Y-55649581D01*
X171478456Y-55685403D01*
X171479632Y-55751842D01*
X171482315Y-55819892D01*
X171492166Y-55856777D01*
X171511382Y-55867300D01*
X171515208Y-55867550D01*
X171532050Y-55880964D01*
X171540694Y-55920557D01*
X171543132Y-55994300D01*
X171543195Y-56009602D01*
X171546549Y-56076971D01*
X171556447Y-56111546D01*
X171574882Y-56121300D01*
X171578708Y-56121550D01*
X171595550Y-56134964D01*
X171604194Y-56174557D01*
X171604253Y-56176326D01*
X171606632Y-56248300D01*
G37*
X176411671Y-55571449D02*
X176487577Y-55575132D01*
X176540045Y-55581649D01*
X176559632Y-55590055D01*
X176573724Y-55600403D01*
X176619735Y-55613237D01*
X176686632Y-55623883D01*
X176744626Y-55632424D01*
X176794464Y-55644114D01*
X176813632Y-55654924D01*
X176816772Y-55659618D01*
X176848425Y-55672470D01*
X176903136Y-55683231D01*
X176925685Y-55686937D01*
X176976371Y-55701311D01*
X177000150Y-55717768D01*
X177005773Y-55726890D01*
X177037646Y-55740300D01*
X177050836Y-55743384D01*
X177067632Y-55770368D01*
X177067640Y-55770836D01*
X177086612Y-55795926D01*
X177131132Y-55814383D01*
X177132367Y-55814658D01*
X177176385Y-55830172D01*
X177194632Y-55847815D01*
X177198201Y-55856763D01*
X177226382Y-55867300D01*
X177241189Y-55870988D01*
X177258132Y-55899050D01*
X177261820Y-55913857D01*
X177289882Y-55930800D01*
X177304689Y-55934488D01*
X177321632Y-55962550D01*
X177325320Y-55977357D01*
X177353382Y-55994300D01*
X177375666Y-56007387D01*
X177385132Y-56057800D01*
X177391676Y-56102368D01*
X177416882Y-56121300D01*
X177431689Y-56124988D01*
X177448632Y-56153050D01*
X177452320Y-56167857D01*
X177480382Y-56184800D01*
X177493849Y-56188673D01*
X177507977Y-56217269D01*
X177512132Y-56280050D01*
X177513423Y-56320449D01*
X177522956Y-56362834D01*
X177543882Y-56375300D01*
X177547478Y-56375615D01*
X177559439Y-56385033D01*
X177567551Y-56412124D01*
X177572497Y-56463049D01*
X177574963Y-56543971D01*
X177575632Y-56661050D01*
X177575597Y-56693405D01*
X177574551Y-56801058D01*
X177571541Y-56874062D01*
X177565883Y-56918579D01*
X177556891Y-56940772D01*
X177543882Y-56946800D01*
X177521599Y-56959887D01*
X177512132Y-57010300D01*
X177505589Y-57054868D01*
X177480382Y-57073800D01*
X177465576Y-57077488D01*
X177448632Y-57105550D01*
X177444945Y-57120357D01*
X177416882Y-57137300D01*
X177402076Y-57140988D01*
X177385132Y-57169050D01*
X177372046Y-57191334D01*
X177321632Y-57200800D01*
X177277065Y-57207343D01*
X177258132Y-57232550D01*
X177245046Y-57254834D01*
X177194632Y-57264300D01*
X177150065Y-57270843D01*
X177131132Y-57296050D01*
X177131007Y-57298172D01*
X177123659Y-57309107D01*
X177101085Y-57317041D01*
X177057866Y-57322426D01*
X176988581Y-57325712D01*
X176887810Y-57327353D01*
X176750132Y-57327800D01*
X176724662Y-57327789D01*
X176593443Y-57327177D01*
X176498237Y-57325296D01*
X176433623Y-57321694D01*
X176394181Y-57315921D01*
X176374491Y-57307523D01*
X176369132Y-57296050D01*
X176365260Y-57282583D01*
X176336663Y-57268455D01*
X176273882Y-57264300D01*
X176233483Y-57263009D01*
X176191098Y-57253477D01*
X176178632Y-57232550D01*
X176174945Y-57217743D01*
X176146882Y-57200800D01*
X176124599Y-57187713D01*
X176115132Y-57137300D01*
X176108589Y-57092732D01*
X176083382Y-57073800D01*
X176069916Y-57069927D01*
X176055788Y-57041330D01*
X176051632Y-56978550D01*
X176050342Y-56938151D01*
X176040809Y-56895765D01*
X176019882Y-56883300D01*
X176005076Y-56879612D01*
X175988132Y-56851550D01*
X175991820Y-56836743D01*
X176019882Y-56819800D01*
X176034488Y-56817412D01*
X176051632Y-56798633D01*
X176055215Y-56788896D01*
X176083382Y-56777467D01*
X176097988Y-56779855D01*
X176115132Y-56798633D01*
X176118715Y-56808370D01*
X176146882Y-56819800D01*
X176161653Y-56823274D01*
X176178632Y-56849868D01*
X176178640Y-56850336D01*
X176197612Y-56875426D01*
X176242132Y-56893883D01*
X176243424Y-56894170D01*
X176287404Y-56909057D01*
X176305632Y-56925237D01*
X176319732Y-56934820D01*
X176365743Y-56946992D01*
X176432632Y-56957383D01*
X176490600Y-56966229D01*
X176540456Y-56978931D01*
X176559632Y-56991211D01*
X176573634Y-56999898D01*
X176619652Y-57007410D01*
X176686632Y-57010300D01*
X176744427Y-57008152D01*
X176794405Y-57001091D01*
X176813632Y-56990815D01*
X176813644Y-56990433D01*
X176832695Y-56972742D01*
X176877132Y-56957383D01*
X176878118Y-56957163D01*
X176922303Y-56938475D01*
X176940632Y-56913368D01*
X176944301Y-56899380D01*
X176972382Y-56883300D01*
X176994666Y-56870213D01*
X177004132Y-56819800D01*
X177010676Y-56775232D01*
X177035882Y-56756300D01*
X177039708Y-56756049D01*
X177056550Y-56742635D01*
X177065194Y-56703043D01*
X177067632Y-56629300D01*
X177067570Y-56613998D01*
X177064216Y-56546628D01*
X177054318Y-56512053D01*
X177035882Y-56502300D01*
X177032057Y-56502049D01*
X177015215Y-56488635D01*
X177006571Y-56449043D01*
X177004132Y-56375300D01*
X177004070Y-56359998D01*
X177000716Y-56292628D01*
X176990818Y-56258053D01*
X176972382Y-56248300D01*
X176957576Y-56244612D01*
X176940632Y-56216550D01*
X176936945Y-56201743D01*
X176908882Y-56184800D01*
X176894076Y-56181112D01*
X176877132Y-56153050D01*
X176873445Y-56138243D01*
X176845382Y-56121300D01*
X176830576Y-56117612D01*
X176813632Y-56089550D01*
X176809945Y-56074743D01*
X176781882Y-56057800D01*
X176767076Y-56054112D01*
X176750132Y-56026050D01*
X176737046Y-56003766D01*
X176686632Y-55994300D01*
X176642065Y-55987756D01*
X176623132Y-55962550D01*
X176621373Y-55954184D01*
X176605786Y-55942489D01*
X176568397Y-55935344D01*
X176502374Y-55931773D01*
X176400882Y-55930800D01*
X176342322Y-55931051D01*
X176260457Y-55933278D01*
X176210443Y-55938619D01*
X176185446Y-55948051D01*
X176178632Y-55962550D01*
X176165546Y-55984834D01*
X176115132Y-55994300D01*
X176070565Y-56000843D01*
X176051632Y-56026050D01*
X176047945Y-56040857D01*
X176019882Y-56057800D01*
X176005076Y-56061488D01*
X175988132Y-56089550D01*
X175975046Y-56111834D01*
X175924632Y-56121300D01*
X175880065Y-56114756D01*
X175861132Y-56089550D01*
X175857445Y-56074743D01*
X175829382Y-56057800D01*
X175815916Y-56053927D01*
X175801788Y-56025330D01*
X175797632Y-55962550D01*
X175796342Y-55922151D01*
X175786809Y-55879765D01*
X175765882Y-55867300D01*
X175758008Y-55866195D01*
X175739698Y-55843039D01*
X175734132Y-55785102D01*
X175736469Y-55748728D01*
X175755236Y-55705341D01*
X175799450Y-55683451D01*
X175877007Y-55677089D01*
X175906671Y-55672727D01*
X175924632Y-55657711D01*
X175938724Y-55647363D01*
X175984735Y-55634530D01*
X176051632Y-55623883D01*
X176109600Y-55615037D01*
X176159456Y-55602335D01*
X176178632Y-55590055D01*
X176183452Y-55585792D01*
X176220203Y-55578187D01*
X176285244Y-55572929D01*
X176369132Y-55570967D01*
X176411671Y-55571449D01*
G36*
X176411671Y-55571449D02*
G01*
X176487577Y-55575132D01*
X176540045Y-55581649D01*
X176559632Y-55590055D01*
X176573724Y-55600403D01*
X176619735Y-55613237D01*
X176686632Y-55623883D01*
X176744626Y-55632424D01*
X176794464Y-55644114D01*
X176813632Y-55654924D01*
X176816772Y-55659618D01*
X176848425Y-55672470D01*
X176903136Y-55683231D01*
X176925685Y-55686937D01*
X176976371Y-55701311D01*
X177000150Y-55717768D01*
X177005773Y-55726890D01*
X177037646Y-55740300D01*
X177050836Y-55743384D01*
X177067632Y-55770368D01*
X177067640Y-55770836D01*
X177086612Y-55795926D01*
X177131132Y-55814383D01*
X177132367Y-55814658D01*
X177176385Y-55830172D01*
X177194632Y-55847815D01*
X177198201Y-55856763D01*
X177226382Y-55867300D01*
X177241189Y-55870988D01*
X177258132Y-55899050D01*
X177261820Y-55913857D01*
X177289882Y-55930800D01*
X177304689Y-55934488D01*
X177321632Y-55962550D01*
X177325320Y-55977357D01*
X177353382Y-55994300D01*
X177375666Y-56007387D01*
X177385132Y-56057800D01*
X177391676Y-56102368D01*
X177416882Y-56121300D01*
X177431689Y-56124988D01*
X177448632Y-56153050D01*
X177452320Y-56167857D01*
X177480382Y-56184800D01*
X177493849Y-56188673D01*
X177507977Y-56217269D01*
X177512132Y-56280050D01*
X177513423Y-56320449D01*
X177522956Y-56362834D01*
X177543882Y-56375300D01*
X177547478Y-56375615D01*
X177559439Y-56385033D01*
X177567551Y-56412124D01*
X177572497Y-56463049D01*
X177574963Y-56543971D01*
X177575632Y-56661050D01*
X177575597Y-56693405D01*
X177574551Y-56801058D01*
X177571541Y-56874062D01*
X177565883Y-56918579D01*
X177556891Y-56940772D01*
X177543882Y-56946800D01*
X177521599Y-56959887D01*
X177512132Y-57010300D01*
X177505589Y-57054868D01*
X177480382Y-57073800D01*
X177465576Y-57077488D01*
X177448632Y-57105550D01*
X177444945Y-57120357D01*
X177416882Y-57137300D01*
X177402076Y-57140988D01*
X177385132Y-57169050D01*
X177372046Y-57191334D01*
X177321632Y-57200800D01*
X177277065Y-57207343D01*
X177258132Y-57232550D01*
X177245046Y-57254834D01*
X177194632Y-57264300D01*
X177150065Y-57270843D01*
X177131132Y-57296050D01*
X177131007Y-57298172D01*
X177123659Y-57309107D01*
X177101085Y-57317041D01*
X177057866Y-57322426D01*
X176988581Y-57325712D01*
X176887810Y-57327353D01*
X176750132Y-57327800D01*
X176724662Y-57327789D01*
X176593443Y-57327177D01*
X176498237Y-57325296D01*
X176433623Y-57321694D01*
X176394181Y-57315921D01*
X176374491Y-57307523D01*
X176369132Y-57296050D01*
X176365260Y-57282583D01*
X176336663Y-57268455D01*
X176273882Y-57264300D01*
X176233483Y-57263009D01*
X176191098Y-57253477D01*
X176178632Y-57232550D01*
X176174945Y-57217743D01*
X176146882Y-57200800D01*
X176124599Y-57187713D01*
X176115132Y-57137300D01*
X176108589Y-57092732D01*
X176083382Y-57073800D01*
X176069916Y-57069927D01*
X176055788Y-57041330D01*
X176051632Y-56978550D01*
X176050342Y-56938151D01*
X176040809Y-56895765D01*
X176019882Y-56883300D01*
X176005076Y-56879612D01*
X175988132Y-56851550D01*
X175991820Y-56836743D01*
X176019882Y-56819800D01*
X176034488Y-56817412D01*
X176051632Y-56798633D01*
X176055215Y-56788896D01*
X176083382Y-56777467D01*
X176097988Y-56779855D01*
X176115132Y-56798633D01*
X176118715Y-56808370D01*
X176146882Y-56819800D01*
X176161653Y-56823274D01*
X176178632Y-56849868D01*
X176178640Y-56850336D01*
X176197612Y-56875426D01*
X176242132Y-56893883D01*
X176243424Y-56894170D01*
X176287404Y-56909057D01*
X176305632Y-56925237D01*
X176319732Y-56934820D01*
X176365743Y-56946992D01*
X176432632Y-56957383D01*
X176490600Y-56966229D01*
X176540456Y-56978931D01*
X176559632Y-56991211D01*
X176573634Y-56999898D01*
X176619652Y-57007410D01*
X176686632Y-57010300D01*
X176744427Y-57008152D01*
X176794405Y-57001091D01*
X176813632Y-56990815D01*
X176813644Y-56990433D01*
X176832695Y-56972742D01*
X176877132Y-56957383D01*
X176878118Y-56957163D01*
X176922303Y-56938475D01*
X176940632Y-56913368D01*
X176944301Y-56899380D01*
X176972382Y-56883300D01*
X176994666Y-56870213D01*
X177004132Y-56819800D01*
X177010676Y-56775232D01*
X177035882Y-56756300D01*
X177039708Y-56756049D01*
X177056550Y-56742635D01*
X177065194Y-56703043D01*
X177067632Y-56629300D01*
X177067570Y-56613998D01*
X177064216Y-56546628D01*
X177054318Y-56512053D01*
X177035882Y-56502300D01*
X177032057Y-56502049D01*
X177015215Y-56488635D01*
X177006571Y-56449043D01*
X177004132Y-56375300D01*
X177004070Y-56359998D01*
X177000716Y-56292628D01*
X176990818Y-56258053D01*
X176972382Y-56248300D01*
X176957576Y-56244612D01*
X176940632Y-56216550D01*
X176936945Y-56201743D01*
X176908882Y-56184800D01*
X176894076Y-56181112D01*
X176877132Y-56153050D01*
X176873445Y-56138243D01*
X176845382Y-56121300D01*
X176830576Y-56117612D01*
X176813632Y-56089550D01*
X176809945Y-56074743D01*
X176781882Y-56057800D01*
X176767076Y-56054112D01*
X176750132Y-56026050D01*
X176737046Y-56003766D01*
X176686632Y-55994300D01*
X176642065Y-55987756D01*
X176623132Y-55962550D01*
X176621373Y-55954184D01*
X176605786Y-55942489D01*
X176568397Y-55935344D01*
X176502374Y-55931773D01*
X176400882Y-55930800D01*
X176342322Y-55931051D01*
X176260457Y-55933278D01*
X176210443Y-55938619D01*
X176185446Y-55948051D01*
X176178632Y-55962550D01*
X176165546Y-55984834D01*
X176115132Y-55994300D01*
X176070565Y-56000843D01*
X176051632Y-56026050D01*
X176047945Y-56040857D01*
X176019882Y-56057800D01*
X176005076Y-56061488D01*
X175988132Y-56089550D01*
X175975046Y-56111834D01*
X175924632Y-56121300D01*
X175880065Y-56114756D01*
X175861132Y-56089550D01*
X175857445Y-56074743D01*
X175829382Y-56057800D01*
X175815916Y-56053927D01*
X175801788Y-56025330D01*
X175797632Y-55962550D01*
X175796342Y-55922151D01*
X175786809Y-55879765D01*
X175765882Y-55867300D01*
X175758008Y-55866195D01*
X175739698Y-55843039D01*
X175734132Y-55785102D01*
X175736469Y-55748728D01*
X175755236Y-55705341D01*
X175799450Y-55683451D01*
X175877007Y-55677089D01*
X175906671Y-55672727D01*
X175924632Y-55657711D01*
X175938724Y-55647363D01*
X175984735Y-55634530D01*
X176051632Y-55623883D01*
X176109600Y-55615037D01*
X176159456Y-55602335D01*
X176178632Y-55590055D01*
X176183452Y-55585792D01*
X176220203Y-55578187D01*
X176285244Y-55572929D01*
X176369132Y-55570967D01*
X176411671Y-55571449D01*
G37*
X182501998Y-56946871D02*
X182628919Y-56947695D01*
X182721048Y-56949765D01*
X182783609Y-56953484D01*
X182821827Y-56959253D01*
X182840927Y-56967474D01*
X182846132Y-56978550D01*
X182849820Y-56993357D01*
X182877882Y-57010300D01*
X182896398Y-57018157D01*
X182909632Y-57052633D01*
X182915525Y-57077320D01*
X182941382Y-57094967D01*
X182956189Y-57098654D01*
X182973132Y-57126717D01*
X182976820Y-57141523D01*
X183004882Y-57158467D01*
X183019689Y-57162154D01*
X183036632Y-57190217D01*
X183040320Y-57205023D01*
X183068382Y-57221967D01*
X183083189Y-57225654D01*
X183100132Y-57253717D01*
X183103820Y-57268523D01*
X183131882Y-57285467D01*
X183146488Y-57287855D01*
X183163632Y-57306633D01*
X183167215Y-57316370D01*
X183195382Y-57327800D01*
X183210153Y-57331274D01*
X183227132Y-57357868D01*
X183227140Y-57358336D01*
X183246112Y-57383426D01*
X183290632Y-57401883D01*
X183291867Y-57402158D01*
X183335885Y-57417672D01*
X183354132Y-57435315D01*
X183357701Y-57444263D01*
X183385882Y-57454800D01*
X183400629Y-57458135D01*
X183417632Y-57483763D01*
X183418286Y-57488086D01*
X183444921Y-57509810D01*
X183505350Y-57524491D01*
X183525570Y-57527708D01*
X183578566Y-57541561D01*
X183606103Y-57557350D01*
X183630120Y-57575385D01*
X183677136Y-57593000D01*
X183717110Y-57607587D01*
X183735132Y-57623989D01*
X183747389Y-57632682D01*
X183791563Y-57644875D01*
X183856841Y-57655593D01*
X183909693Y-57663826D01*
X183964368Y-57676899D01*
X183990174Y-57689446D01*
X184012828Y-57697516D01*
X184069549Y-57706593D01*
X184151361Y-57715217D01*
X184249466Y-57722273D01*
X184344026Y-57729040D01*
X184423569Y-57737428D01*
X184477363Y-57746225D01*
X184497132Y-57754359D01*
X184501497Y-57759717D01*
X184535569Y-57768735D01*
X184592382Y-57772300D01*
X184620829Y-57771474D01*
X184668708Y-57765027D01*
X184687632Y-57754277D01*
X184691292Y-57750439D01*
X184725822Y-57740608D01*
X184788964Y-57731023D01*
X184871110Y-57723306D01*
X184905875Y-57720534D01*
X184984356Y-57711682D01*
X185041527Y-57701501D01*
X185066902Y-57691685D01*
X185070776Y-57687882D01*
X185106304Y-57672618D01*
X185162170Y-57659906D01*
X185178166Y-57657046D01*
X185230350Y-57642546D01*
X185257632Y-57626561D01*
X185281345Y-57609076D01*
X185328136Y-57591767D01*
X185368102Y-57576974D01*
X185386132Y-57560020D01*
X185386146Y-57559666D01*
X185405216Y-57543573D01*
X185449633Y-57528883D01*
X185450618Y-57528663D01*
X185494803Y-57509975D01*
X185513133Y-57484868D01*
X185516801Y-57470880D01*
X185544882Y-57454800D01*
X185559689Y-57451112D01*
X185576632Y-57423050D01*
X185580320Y-57408243D01*
X185608382Y-57391300D01*
X185623189Y-57387612D01*
X185640132Y-57359550D01*
X185643820Y-57344743D01*
X185671882Y-57327800D01*
X185694166Y-57314713D01*
X185703632Y-57264300D01*
X185710176Y-57219732D01*
X185735382Y-57200800D01*
X185757666Y-57213887D01*
X185767132Y-57264300D01*
X185760589Y-57308868D01*
X185735382Y-57327800D01*
X185713099Y-57340887D01*
X185703632Y-57391300D01*
X185697089Y-57435868D01*
X185671882Y-57454800D01*
X185657076Y-57458488D01*
X185640132Y-57486550D01*
X185636445Y-57501357D01*
X185608382Y-57518300D01*
X185586099Y-57531387D01*
X185576632Y-57581800D01*
X185570089Y-57626368D01*
X185544882Y-57645300D01*
X185530076Y-57648988D01*
X185513132Y-57677050D01*
X185509445Y-57691857D01*
X185481382Y-57708800D01*
X185466576Y-57712488D01*
X185449632Y-57740550D01*
X185436546Y-57762834D01*
X185386132Y-57772300D01*
X185341565Y-57778843D01*
X185322632Y-57804050D01*
X185318945Y-57818857D01*
X185290882Y-57835800D01*
X185276076Y-57839488D01*
X185259132Y-57867550D01*
X185246046Y-57889834D01*
X185195632Y-57899300D01*
X185151065Y-57905843D01*
X185132132Y-57931050D01*
X185119046Y-57953334D01*
X185068632Y-57962800D01*
X185024065Y-57969343D01*
X185005132Y-57994550D01*
X185004882Y-57998375D01*
X184991468Y-58015218D01*
X184951876Y-58023861D01*
X184878132Y-58026300D01*
X184862830Y-58026362D01*
X184795461Y-58029716D01*
X184760886Y-58039614D01*
X184751132Y-58058050D01*
X184749373Y-58066416D01*
X184733786Y-58078111D01*
X184696397Y-58085255D01*
X184630374Y-58088826D01*
X184528882Y-58089800D01*
X184470322Y-58090051D01*
X184388457Y-58092278D01*
X184338443Y-58097619D01*
X184313446Y-58107051D01*
X184306632Y-58121550D01*
X184302945Y-58136357D01*
X184274882Y-58153300D01*
X184260076Y-58149612D01*
X184243132Y-58121550D01*
X184238059Y-58109013D01*
X184216630Y-58099393D01*
X184172316Y-58093524D01*
X184098643Y-58090596D01*
X183989132Y-58089800D01*
X183888837Y-58089166D01*
X183811877Y-58086487D01*
X183764924Y-58080948D01*
X183741501Y-58071739D01*
X183735132Y-58058050D01*
X183734882Y-58054224D01*
X183721468Y-58037382D01*
X183681876Y-58028738D01*
X183608132Y-58026300D01*
X183592830Y-58026237D01*
X183525461Y-58022884D01*
X183490886Y-58012986D01*
X183481132Y-57994550D01*
X183477260Y-57981083D01*
X183448663Y-57966955D01*
X183385882Y-57962800D01*
X183345483Y-57961509D01*
X183303098Y-57951977D01*
X183290632Y-57931050D01*
X183277546Y-57908766D01*
X183227132Y-57899300D01*
X183182565Y-57892756D01*
X183163632Y-57867550D01*
X183159760Y-57854083D01*
X183131163Y-57839955D01*
X183068382Y-57835800D01*
X183027983Y-57834509D01*
X182985598Y-57824977D01*
X182973132Y-57804050D01*
X182969445Y-57789243D01*
X182941382Y-57772300D01*
X182926576Y-57768612D01*
X182909632Y-57740550D01*
X182896546Y-57718266D01*
X182846132Y-57708800D01*
X182801565Y-57702256D01*
X182782632Y-57677050D01*
X182769546Y-57654766D01*
X182719132Y-57645300D01*
X182674565Y-57638756D01*
X182655632Y-57613550D01*
X182651945Y-57598743D01*
X182623882Y-57581800D01*
X182609076Y-57578112D01*
X182592132Y-57550050D01*
X182588445Y-57535243D01*
X182560382Y-57518300D01*
X182545576Y-57514612D01*
X182528632Y-57486550D01*
X182515546Y-57464266D01*
X182465132Y-57454800D01*
X182420565Y-57448256D01*
X182401632Y-57423050D01*
X182397945Y-57408243D01*
X182369882Y-57391300D01*
X182355076Y-57387612D01*
X182338132Y-57359550D01*
X182334445Y-57344743D01*
X182306382Y-57327800D01*
X182291576Y-57324112D01*
X182274632Y-57296050D01*
X182270945Y-57281243D01*
X182242882Y-57264300D01*
X182220599Y-57251213D01*
X182211132Y-57200800D01*
X182204589Y-57156232D01*
X182179382Y-57137300D01*
X182164576Y-57133612D01*
X182147632Y-57105550D01*
X182143945Y-57090743D01*
X182115882Y-57073800D01*
X182101076Y-57070112D01*
X182084132Y-57042050D01*
X182080445Y-57027243D01*
X182052382Y-57010300D01*
X182037576Y-57006612D01*
X182020632Y-56978550D01*
X182021557Y-56973272D01*
X182032265Y-56963509D01*
X182059179Y-56956422D01*
X182107524Y-56951609D01*
X182182523Y-56948669D01*
X182289401Y-56947200D01*
X182433382Y-56946800D01*
X182501998Y-56946871D01*
G36*
X182501998Y-56946871D02*
G01*
X182628919Y-56947695D01*
X182721048Y-56949765D01*
X182783609Y-56953484D01*
X182821827Y-56959253D01*
X182840927Y-56967474D01*
X182846132Y-56978550D01*
X182849820Y-56993357D01*
X182877882Y-57010300D01*
X182896398Y-57018157D01*
X182909632Y-57052633D01*
X182915525Y-57077320D01*
X182941382Y-57094967D01*
X182956189Y-57098654D01*
X182973132Y-57126717D01*
X182976820Y-57141523D01*
X183004882Y-57158467D01*
X183019689Y-57162154D01*
X183036632Y-57190217D01*
X183040320Y-57205023D01*
X183068382Y-57221967D01*
X183083189Y-57225654D01*
X183100132Y-57253717D01*
X183103820Y-57268523D01*
X183131882Y-57285467D01*
X183146488Y-57287855D01*
X183163632Y-57306633D01*
X183167215Y-57316370D01*
X183195382Y-57327800D01*
X183210153Y-57331274D01*
X183227132Y-57357868D01*
X183227140Y-57358336D01*
X183246112Y-57383426D01*
X183290632Y-57401883D01*
X183291867Y-57402158D01*
X183335885Y-57417672D01*
X183354132Y-57435315D01*
X183357701Y-57444263D01*
X183385882Y-57454800D01*
X183400629Y-57458135D01*
X183417632Y-57483763D01*
X183418286Y-57488086D01*
X183444921Y-57509810D01*
X183505350Y-57524491D01*
X183525570Y-57527708D01*
X183578566Y-57541561D01*
X183606103Y-57557350D01*
X183630120Y-57575385D01*
X183677136Y-57593000D01*
X183717110Y-57607587D01*
X183735132Y-57623989D01*
X183747389Y-57632682D01*
X183791563Y-57644875D01*
X183856841Y-57655593D01*
X183909693Y-57663826D01*
X183964368Y-57676899D01*
X183990174Y-57689446D01*
X184012828Y-57697516D01*
X184069549Y-57706593D01*
X184151361Y-57715217D01*
X184249466Y-57722273D01*
X184344026Y-57729040D01*
X184423569Y-57737428D01*
X184477363Y-57746225D01*
X184497132Y-57754359D01*
X184501497Y-57759717D01*
X184535569Y-57768735D01*
X184592382Y-57772300D01*
X184620829Y-57771474D01*
X184668708Y-57765027D01*
X184687632Y-57754277D01*
X184691292Y-57750439D01*
X184725822Y-57740608D01*
X184788964Y-57731023D01*
X184871110Y-57723306D01*
X184905875Y-57720534D01*
X184984356Y-57711682D01*
X185041527Y-57701501D01*
X185066902Y-57691685D01*
X185070776Y-57687882D01*
X185106304Y-57672618D01*
X185162170Y-57659906D01*
X185178166Y-57657046D01*
X185230350Y-57642546D01*
X185257632Y-57626561D01*
X185281345Y-57609076D01*
X185328136Y-57591767D01*
X185368102Y-57576974D01*
X185386132Y-57560020D01*
X185386146Y-57559666D01*
X185405216Y-57543573D01*
X185449633Y-57528883D01*
X185450618Y-57528663D01*
X185494803Y-57509975D01*
X185513133Y-57484868D01*
X185516801Y-57470880D01*
X185544882Y-57454800D01*
X185559689Y-57451112D01*
X185576632Y-57423050D01*
X185580320Y-57408243D01*
X185608382Y-57391300D01*
X185623189Y-57387612D01*
X185640132Y-57359550D01*
X185643820Y-57344743D01*
X185671882Y-57327800D01*
X185694166Y-57314713D01*
X185703632Y-57264300D01*
X185710176Y-57219732D01*
X185735382Y-57200800D01*
X185757666Y-57213887D01*
X185767132Y-57264300D01*
X185760589Y-57308868D01*
X185735382Y-57327800D01*
X185713099Y-57340887D01*
X185703632Y-57391300D01*
X185697089Y-57435868D01*
X185671882Y-57454800D01*
X185657076Y-57458488D01*
X185640132Y-57486550D01*
X185636445Y-57501357D01*
X185608382Y-57518300D01*
X185586099Y-57531387D01*
X185576632Y-57581800D01*
X185570089Y-57626368D01*
X185544882Y-57645300D01*
X185530076Y-57648988D01*
X185513132Y-57677050D01*
X185509445Y-57691857D01*
X185481382Y-57708800D01*
X185466576Y-57712488D01*
X185449632Y-57740550D01*
X185436546Y-57762834D01*
X185386132Y-57772300D01*
X185341565Y-57778843D01*
X185322632Y-57804050D01*
X185318945Y-57818857D01*
X185290882Y-57835800D01*
X185276076Y-57839488D01*
X185259132Y-57867550D01*
X185246046Y-57889834D01*
X185195632Y-57899300D01*
X185151065Y-57905843D01*
X185132132Y-57931050D01*
X185119046Y-57953334D01*
X185068632Y-57962800D01*
X185024065Y-57969343D01*
X185005132Y-57994550D01*
X185004882Y-57998375D01*
X184991468Y-58015218D01*
X184951876Y-58023861D01*
X184878132Y-58026300D01*
X184862830Y-58026362D01*
X184795461Y-58029716D01*
X184760886Y-58039614D01*
X184751132Y-58058050D01*
X184749373Y-58066416D01*
X184733786Y-58078111D01*
X184696397Y-58085255D01*
X184630374Y-58088826D01*
X184528882Y-58089800D01*
X184470322Y-58090051D01*
X184388457Y-58092278D01*
X184338443Y-58097619D01*
X184313446Y-58107051D01*
X184306632Y-58121550D01*
X184302945Y-58136357D01*
X184274882Y-58153300D01*
X184260076Y-58149612D01*
X184243132Y-58121550D01*
X184238059Y-58109013D01*
X184216630Y-58099393D01*
X184172316Y-58093524D01*
X184098643Y-58090596D01*
X183989132Y-58089800D01*
X183888837Y-58089166D01*
X183811877Y-58086487D01*
X183764924Y-58080948D01*
X183741501Y-58071739D01*
X183735132Y-58058050D01*
X183734882Y-58054224D01*
X183721468Y-58037382D01*
X183681876Y-58028738D01*
X183608132Y-58026300D01*
X183592830Y-58026237D01*
X183525461Y-58022884D01*
X183490886Y-58012986D01*
X183481132Y-57994550D01*
X183477260Y-57981083D01*
X183448663Y-57966955D01*
X183385882Y-57962800D01*
X183345483Y-57961509D01*
X183303098Y-57951977D01*
X183290632Y-57931050D01*
X183277546Y-57908766D01*
X183227132Y-57899300D01*
X183182565Y-57892756D01*
X183163632Y-57867550D01*
X183159760Y-57854083D01*
X183131163Y-57839955D01*
X183068382Y-57835800D01*
X183027983Y-57834509D01*
X182985598Y-57824977D01*
X182973132Y-57804050D01*
X182969445Y-57789243D01*
X182941382Y-57772300D01*
X182926576Y-57768612D01*
X182909632Y-57740550D01*
X182896546Y-57718266D01*
X182846132Y-57708800D01*
X182801565Y-57702256D01*
X182782632Y-57677050D01*
X182769546Y-57654766D01*
X182719132Y-57645300D01*
X182674565Y-57638756D01*
X182655632Y-57613550D01*
X182651945Y-57598743D01*
X182623882Y-57581800D01*
X182609076Y-57578112D01*
X182592132Y-57550050D01*
X182588445Y-57535243D01*
X182560382Y-57518300D01*
X182545576Y-57514612D01*
X182528632Y-57486550D01*
X182515546Y-57464266D01*
X182465132Y-57454800D01*
X182420565Y-57448256D01*
X182401632Y-57423050D01*
X182397945Y-57408243D01*
X182369882Y-57391300D01*
X182355076Y-57387612D01*
X182338132Y-57359550D01*
X182334445Y-57344743D01*
X182306382Y-57327800D01*
X182291576Y-57324112D01*
X182274632Y-57296050D01*
X182270945Y-57281243D01*
X182242882Y-57264300D01*
X182220599Y-57251213D01*
X182211132Y-57200800D01*
X182204589Y-57156232D01*
X182179382Y-57137300D01*
X182164576Y-57133612D01*
X182147632Y-57105550D01*
X182143945Y-57090743D01*
X182115882Y-57073800D01*
X182101076Y-57070112D01*
X182084132Y-57042050D01*
X182080445Y-57027243D01*
X182052382Y-57010300D01*
X182037576Y-57006612D01*
X182020632Y-56978550D01*
X182021557Y-56973272D01*
X182032265Y-56963509D01*
X182059179Y-56956422D01*
X182107524Y-56951609D01*
X182182523Y-56948669D01*
X182289401Y-56947200D01*
X182433382Y-56946800D01*
X182501998Y-56946871D01*
G37*
%TD*%
M02*
