M48
; DRILL file {KiCad 7.0.9} date Mon Dec 16 14:56:06 2024
; FORMAT={-:-/ absolute / metric / decimal}
; #@! TF.CreationDate,2024-12-16T14:56:06+09:00
; #@! TF.GenerationSoftware,Kicad,Pcbnew,7.0.9
; #@! TF.FileFunction,Plated,1,2,PTH
FMAT,2
METRIC
; #@! TA.AperFunction,Plated,PTH,ViaDrill
T1C0.400
; #@! TA.AperFunction,Plated,PTH,ComponentDrill
T2C0.500
; #@! TA.AperFunction,Plated,PTH,ComponentDrill
T3C0.700
; #@! TA.AperFunction,Plated,PTH,ComponentDrill
T4C0.762
; #@! TA.AperFunction,Plated,PTH,ComponentDrill
T5C0.800
; #@! TA.AperFunction,Plated,PTH,ComponentDrill
T6C0.950
; #@! TA.AperFunction,Plated,PTH,ComponentDrill
T7C1.000
; #@! TA.AperFunction,Plated,PTH,ComponentDrill
T8C1.200
; #@! TA.AperFunction,Plated,PTH,ComponentDrill
T9C1.700
%
G90
G05
T1
X113.36Y-89.764
X119.278Y-115.011
X123.952Y-115.24
X126.06Y-82.652
X129.896Y-73.0
T3
X117.145Y-80.823
X117.145Y-85.903
X122.453Y-125.197
X127.533Y-125.197
T4
X109.423Y-88.976
X109.423Y-129.616
X127.203Y-88.976
X127.203Y-129.616
T5
X119.939Y-116.992
X122.479Y-116.992
X125.019Y-116.992
X125.338Y-70.18
X127.838Y-70.18
X134.95Y-77.038
X134.95Y-79.538
T6
X105.943Y-95.66
X105.943Y-98.16
X105.943Y-100.66
X106.096Y-113.665
X106.096Y-116.165
X106.096Y-118.665
X113.055Y-113.69
X113.055Y-116.19
X113.055Y-118.69
T7
X102.845Y-125.832
X104.612Y-127.599
X105.649Y-86.223
X107.417Y-84.455
X111.592Y-80.203
X113.36Y-78.435
T8
X112.344Y-128.524
X117.373Y-121.895
X122.504Y-128.524
X127.533Y-121.895
T9
X124.987Y-143.669
X127.787Y-140.868
X131.297Y-137.323
X134.098Y-134.523
T2
G00X109.509Y-134.15
M15
G01X109.509Y-132.55
M16
G05
G00X113.209Y-134.15
M15
G01X113.209Y-132.55
M16
G05
G00X117.509Y-134.15
M15
G01X117.509Y-132.55
M16
G05
G00X121.209Y-134.15
M15
G01X121.209Y-132.55
M16
G05
T7
G00X117.288Y-91.993
M15
G01X119.288Y-91.993
M16
G05
G00X117.288Y-97.993
M15
G01X119.288Y-97.993
M16
G05
T0
M30
