%TF.GenerationSoftware,KiCad,Pcbnew,7.0.9*%
%TF.CreationDate,2024-12-16T14:55:58+09:00*%
%TF.ProjectId,____,fb90fa7f-2e6b-4696-9361-645f70636258,rev?*%
%TF.SameCoordinates,Original*%
%TF.FileFunction,Soldermask,Top*%
%TF.FilePolarity,Negative*%
%FSLAX46Y46*%
G04 Gerber Fmt 4.6, Leading zero omitted, Abs format (unit mm)*
G04 Created by KiCad (PCBNEW 7.0.9) date 2024-12-16 14:55:58*
%MOMM*%
%LPD*%
G01*
G04 APERTURE LIST*
G04 Aperture macros list*
%AMRoundRect*
0 Rectangle with rounded corners*
0 $1 Rounding radius*
0 $2 $3 $4 $5 $6 $7 $8 $9 X,Y pos of 4 corners*
0 Add a 4 corners polygon primitive as box body*
4,1,4,$2,$3,$4,$5,$6,$7,$8,$9,$2,$3,0*
0 Add four circle primitives for the rounded corners*
1,1,$1+$1,$2,$3*
1,1,$1+$1,$4,$5*
1,1,$1+$1,$6,$7*
1,1,$1+$1,$8,$9*
0 Add four rect primitives between the rounded corners*
20,1,$1+$1,$2,$3,$4,$5,0*
20,1,$1+$1,$4,$5,$6,$7,0*
20,1,$1+$1,$6,$7,$8,$9,0*
20,1,$1+$1,$8,$9,$2,$3,0*%
%AMHorizOval*
0 Thick line with rounded ends*
0 $1 width*
0 $2 $3 position (X,Y) of the first rounded end (center of the circle)*
0 $4 $5 position (X,Y) of the second rounded end (center of the circle)*
0 Add line between two ends*
20,1,$1,$2,$3,$4,$5,0*
0 Add two circle primitives to create the rounded ends*
1,1,$1,$2,$3*
1,1,$1,$4,$5*%
%AMOutline4P*
0 Free polygon, 4 corners , with rotation*
0 The origin of the aperture is its center*
0 number of corners: always 4*
0 $1 to $8 corner X, Y*
0 $9 Rotation angle, in degrees counterclockwise*
0 create outline with 4 corners*
4,1,4,$1,$2,$3,$4,$5,$6,$7,$8,$1,$2,$9*%
G04 Aperture macros list end*
%ADD10RoundRect,0.250000X-0.954594X-0.106066X-0.106066X-0.954594X0.954594X0.106066X0.106066X0.954594X0*%
%ADD11HorizOval,1.700000X-0.106066X-0.106066X0.106066X0.106066X0*%
%ADD12R,2.400000X2.400000*%
%ADD13O,2.400000X2.400000*%
%ADD14C,1.400000*%
%ADD15O,1.400000X1.400000*%
%ADD16C,3.200000*%
%ADD17C,1.440000*%
%ADD18O,1.500000X2.700000*%
%ADD19RoundRect,0.250000X-0.725000X0.600000X-0.725000X-0.600000X0.725000X-0.600000X0.725000X0.600000X0*%
%ADD20O,1.950000X1.700000*%
%ADD21O,4.000000X2.000000*%
%ADD22RoundRect,0.250001X0.000000X1.555634X-1.555634X0.000000X0.000000X-1.555634X1.555634X0.000000X0*%
%ADD23C,2.700000*%
%ADD24RoundRect,0.250000X-0.106066X0.954594X-0.954594X0.106066X0.106066X-0.954594X0.954594X-0.106066X0*%
%ADD25HorizOval,1.700000X-0.106066X0.106066X0.106066X-0.106066X0*%
%ADD26C,1.600000*%
%ADD27Outline4P,-1.500000X-0.600000X1.500000X-0.600000X1.500000X0.600000X-1.500000X0.600000X0.000000*%
%ADD28Outline4P,-2.035000X-0.885000X2.035000X-0.885000X2.035000X0.885000X-2.035000X0.885000X0.000000*%
%ADD29Outline4P,-0.600000X-1.500000X0.600000X-1.500000X0.600000X1.500000X-0.600000X1.500000X0.000000*%
%ADD30Outline4P,-0.885000X-2.035000X0.885000X-2.035000X0.885000X2.035000X-0.885000X2.035000X0.000000*%
%ADD31Outline4P,-0.750000X-0.600000X0.750000X-0.600000X0.750000X0.600000X-0.750000X0.600000X0.000000*%
%ADD32Outline4P,-0.500000X-0.600000X0.500000X-0.600000X0.500000X0.600000X-0.500000X0.600000X0.000000*%
%ADD33C,1.524000*%
G04 APERTURE END LIST*
D10*
%TO.C,Voltmeter*%
X102844600Y-125831600D03*
D11*
X104612367Y-127599367D03*
%TD*%
D12*
%TO.C,D1*%
X117373400Y-121894600D03*
D13*
X127533400Y-121894600D03*
%TD*%
D14*
%TO.C,R2*%
X122453400Y-125196600D03*
D15*
X127533400Y-125196600D03*
%TD*%
D16*
%TO.C,REF\u002A\u002A*%
X138150600Y-141452600D03*
%TD*%
D17*
%TO.C,RV1*%
X125018800Y-116992400D03*
X122478800Y-116992400D03*
X119938800Y-116992400D03*
%TD*%
D18*
%TO.C,Fuse*%
X121208800Y-133350000D03*
X117508800Y-133350000D03*
X113208800Y-133350000D03*
X109508800Y-133350000D03*
%TD*%
D19*
%TO.C,12V_Out*%
X106095800Y-113665000D03*
D20*
X106095800Y-116165000D03*
X106095800Y-118665000D03*
%TD*%
D19*
%TO.C,SW2*%
X113055400Y-113690400D03*
D20*
X113055400Y-116190400D03*
X113055400Y-118690400D03*
%TD*%
D21*
%TO.C,SW1*%
X118287800Y-97993200D03*
X118287800Y-91993200D03*
%TD*%
D16*
%TO.C,REF\u002A\u002A*%
X138125200Y-72847200D03*
%TD*%
D22*
%TO.C,BT_Input*%
X134097580Y-134523238D03*
D23*
X131297437Y-137323381D03*
%TD*%
D14*
%TO.C,R1*%
X117144800Y-85902800D03*
D15*
X117144800Y-80822800D03*
%TD*%
D24*
%TO.C,5V_out*%
X107416600Y-84455000D03*
D25*
X105648833Y-86222767D03*
%TD*%
D26*
%TO.C,C3*%
X134950200Y-77038200D03*
X134950200Y-79538200D03*
%TD*%
D24*
%TO.C,J4*%
X113360200Y-78435200D03*
D25*
X111592433Y-80202967D03*
%TD*%
D19*
%TO.C,J2*%
X105943400Y-95660200D03*
D20*
X105943400Y-98160200D03*
X105943400Y-100660200D03*
%TD*%
D26*
%TO.C,C2*%
X125338200Y-70180200D03*
X127838200Y-70180200D03*
%TD*%
D12*
%TO.C,D2*%
X122504200Y-128524000D03*
D13*
X112344200Y-128524000D03*
%TD*%
D22*
%TO.C,J3*%
X127787400Y-140868400D03*
D23*
X124987257Y-143668543D03*
%TD*%
D16*
%TO.C,REF\u002A\u002A*%
X102362000Y-107162600D03*
%TD*%
D27*
%TO.C,U1*%
X120206200Y-79629000D03*
X120206200Y-75049000D03*
D28*
X122371200Y-75049000D03*
D29*
X123516200Y-74029000D03*
X125806200Y-74029000D03*
D28*
X126951200Y-75049000D03*
D29*
X128096200Y-74029000D03*
D30*
X130406200Y-76194000D03*
D27*
X131406200Y-75049000D03*
X131406200Y-79629000D03*
X131406200Y-84209000D03*
D29*
X125806200Y-85229000D03*
X123516200Y-85229000D03*
D27*
X120206200Y-84209000D03*
X120206200Y-81919000D03*
D31*
X132156200Y-81919000D03*
D29*
X128096200Y-85229000D03*
D32*
X130406200Y-81919000D03*
%TD*%
D33*
%TO.C,U2*%
X109423200Y-88976200D03*
X127203200Y-88976200D03*
X109423200Y-129616200D03*
X127203200Y-129616200D03*
%TD*%
M02*
