%TF.GenerationSoftware,KiCad,Pcbnew,7.0.9*%
%TF.CreationDate,2024-12-16T14:55:58+09:00*%
%TF.ProjectId,____,fb90fa7f-2e6b-4696-9361-645f70636258,rev?*%
%TF.SameCoordinates,Original*%
%TF.FileFunction,Profile,NP*%
%FSLAX46Y46*%
G04 Gerber Fmt 4.6, Leading zero omitted, Abs format (unit mm)*
G04 Created by KiCad (PCBNEW 7.0.9) date 2024-12-16 14:55:58*
%MOMM*%
%LPD*%
G01*
G04 APERTURE LIST*
%TA.AperFunction,Profile*%
%ADD10C,0.200000*%
%TD*%
G04 APERTURE END LIST*
D10*
X138779637Y-136884529D02*
G75*
G03*
X139236191Y-139104648I1842663J-778071D01*
G01*
X125242815Y-66570640D02*
X118318825Y-73494630D01*
X139855360Y-74671810D02*
G75*
G03*
X136390586Y-71066841I-1732360J1802510D01*
G01*
X98534292Y-124930903D02*
G75*
G03*
X102122530Y-111308217I-39716092J17745203D01*
G01*
X98946105Y-127160988D02*
X112026296Y-140241180D01*
X133064801Y-71564199D02*
X128071242Y-66570640D01*
X101103434Y-105000775D02*
G75*
G03*
X101103436Y-109370706I1214796J-2184965D01*
G01*
X103968314Y-107185742D02*
G75*
G03*
X103968314Y-107185742I-1650000J0D01*
G01*
X128071242Y-147800844D02*
X133064801Y-142807285D01*
X138441970Y-79665387D02*
G75*
G03*
X138807208Y-77498989I-1465670J1361087D01*
G01*
X118318825Y-140876854D02*
X125242815Y-147800844D01*
X139251991Y-75251651D02*
X139855328Y-74671777D01*
X118318837Y-140876842D02*
G75*
G03*
X113284802Y-140368316I-2828437J-2828558D01*
G01*
X139855328Y-139699707D02*
X139236191Y-139104648D01*
X125242816Y-147800843D02*
G75*
G03*
X128071242Y-147800844I1414213J1414170D01*
G01*
X138441982Y-79665398D02*
G75*
G03*
X138404552Y-134747358I29675464J-27561158D01*
G01*
X136390586Y-143304643D02*
G75*
G03*
X139855328Y-139699707I1732324J1802513D01*
G01*
X112026296Y-74130304D02*
X98946105Y-87210496D01*
X128071241Y-66570641D02*
G75*
G03*
X125242815Y-66570640I-1414213J-1414214D01*
G01*
X102122525Y-103063268D02*
G75*
G03*
X98534295Y-89440579I-43304125J-4122432D01*
G01*
X138779667Y-136884542D02*
G75*
G03*
X138404551Y-134747359I-1842367J778142D01*
G01*
X98946100Y-87210491D02*
G75*
G03*
X98534296Y-89440579I1414200J-1414209D01*
G01*
X133064802Y-71564198D02*
G75*
G03*
X135893227Y-71564198I1414213J1414210D01*
G01*
X113284786Y-74003193D02*
G75*
G03*
X112026297Y-74130305I-551386J-834407D01*
G01*
X102122536Y-111308217D02*
G75*
G03*
X101103436Y-109370707I-1991036J189517D01*
G01*
X101103441Y-105000786D02*
G75*
G03*
X102122530Y-103063267I-971941J1747986D01*
G01*
X135893228Y-142807285D02*
G75*
G03*
X133064801Y-142807285I-1414213J-1414205D01*
G01*
X113284789Y-74003188D02*
G75*
G03*
X118318825Y-73494630I2205611J3336788D01*
G01*
X98534263Y-124930890D02*
G75*
G03*
X98946105Y-127160988I1825737J-815910D01*
G01*
X139772957Y-141502175D02*
G75*
G03*
X139772957Y-141502175I-1650000J0D01*
G01*
X112026305Y-140241171D02*
G75*
G03*
X113284801Y-140368314I707095J706971D01*
G01*
X135893228Y-142807285D02*
X136390586Y-143304643D01*
X139772957Y-72869309D02*
G75*
G03*
X139772957Y-72869309I-1650000J0D01*
G01*
X139251985Y-75251645D02*
G75*
G03*
X138807209Y-77498989I1385815J-1441955D01*
G01*
X136390586Y-71066841D02*
X135893228Y-71564199D01*
M02*
