%TF.GenerationSoftware,KiCad,Pcbnew,7.0.9*%
%TF.CreationDate,2024-12-16T14:55:57+09:00*%
%TF.ProjectId,____,fb90fa7f-2e6b-4696-9361-645f70636258,rev?*%
%TF.SameCoordinates,Original*%
%TF.FileFunction,Copper,L2,Bot*%
%TF.FilePolarity,Positive*%
%FSLAX46Y46*%
G04 Gerber Fmt 4.6, Leading zero omitted, Abs format (unit mm)*
G04 Created by KiCad (PCBNEW 7.0.9) date 2024-12-16 14:55:57*
%MOMM*%
%LPD*%
G01*
G04 APERTURE LIST*
G04 Aperture macros list*
%AMRoundRect*
0 Rectangle with rounded corners*
0 $1 Rounding radius*
0 $2 $3 $4 $5 $6 $7 $8 $9 X,Y pos of 4 corners*
0 Add a 4 corners polygon primitive as box body*
4,1,4,$2,$3,$4,$5,$6,$7,$8,$9,$2,$3,0*
0 Add four circle primitives for the rounded corners*
1,1,$1+$1,$2,$3*
1,1,$1+$1,$4,$5*
1,1,$1+$1,$6,$7*
1,1,$1+$1,$8,$9*
0 Add four rect primitives between the rounded corners*
20,1,$1+$1,$2,$3,$4,$5,0*
20,1,$1+$1,$4,$5,$6,$7,0*
20,1,$1+$1,$6,$7,$8,$9,0*
20,1,$1+$1,$8,$9,$2,$3,0*%
%AMHorizOval*
0 Thick line with rounded ends*
0 $1 width*
0 $2 $3 position (X,Y) of the first rounded end (center of the circle)*
0 $4 $5 position (X,Y) of the second rounded end (center of the circle)*
0 Add line between two ends*
20,1,$1,$2,$3,$4,$5,0*
0 Add two circle primitives to create the rounded ends*
1,1,$1,$2,$3*
1,1,$1,$4,$5*%
G04 Aperture macros list end*
%TA.AperFunction,ComponentPad*%
%ADD10RoundRect,0.250000X-0.954594X-0.106066X-0.106066X-0.954594X0.954594X0.106066X0.106066X0.954594X0*%
%TD*%
%TA.AperFunction,ComponentPad*%
%ADD11HorizOval,1.700000X-0.106066X-0.106066X0.106066X0.106066X0*%
%TD*%
%TA.AperFunction,ComponentPad*%
%ADD12R,2.400000X2.400000*%
%TD*%
%TA.AperFunction,ComponentPad*%
%ADD13O,2.400000X2.400000*%
%TD*%
%TA.AperFunction,ComponentPad*%
%ADD14C,1.400000*%
%TD*%
%TA.AperFunction,ComponentPad*%
%ADD15O,1.400000X1.400000*%
%TD*%
%TA.AperFunction,ComponentPad*%
%ADD16C,1.440000*%
%TD*%
%TA.AperFunction,ComponentPad*%
%ADD17O,1.500000X2.700000*%
%TD*%
%TA.AperFunction,ComponentPad*%
%ADD18RoundRect,0.250000X-0.725000X0.600000X-0.725000X-0.600000X0.725000X-0.600000X0.725000X0.600000X0*%
%TD*%
%TA.AperFunction,ComponentPad*%
%ADD19O,1.950000X1.700000*%
%TD*%
%TA.AperFunction,ComponentPad*%
%ADD20O,4.000000X2.000000*%
%TD*%
%TA.AperFunction,ComponentPad*%
%ADD21RoundRect,0.250001X0.000000X1.555634X-1.555634X0.000000X0.000000X-1.555634X1.555634X0.000000X0*%
%TD*%
%TA.AperFunction,ComponentPad*%
%ADD22C,2.700000*%
%TD*%
%TA.AperFunction,ComponentPad*%
%ADD23RoundRect,0.250000X-0.106066X0.954594X-0.954594X0.106066X0.106066X-0.954594X0.954594X-0.106066X0*%
%TD*%
%TA.AperFunction,ComponentPad*%
%ADD24HorizOval,1.700000X-0.106066X0.106066X0.106066X-0.106066X0*%
%TD*%
%TA.AperFunction,ComponentPad*%
%ADD25C,1.600000*%
%TD*%
%TA.AperFunction,ComponentPad*%
%ADD26C,1.524000*%
%TD*%
%TA.AperFunction,ViaPad*%
%ADD27C,0.800000*%
%TD*%
%TA.AperFunction,Conductor*%
%ADD28C,1.500000*%
%TD*%
G04 APERTURE END LIST*
D10*
%TO.P,Voltmeter,1,Pin_1*%
%TO.N,GND*%
X102844600Y-125831600D03*
D11*
%TO.P,Voltmeter,2,Pin_2*%
%TO.N,\u96FB\u5727\u8A08*%
X104612367Y-127599367D03*
%TD*%
D12*
%TO.P,D1,1,K*%
%TO.N,\u96FB\u5727\u8A08*%
X117373400Y-121894600D03*
D13*
%TO.P,D1,2,A*%
%TO.N,GND*%
X127533400Y-121894600D03*
%TD*%
D14*
%TO.P,R2,1*%
%TO.N,Net-(R2-Pad1)*%
X122453400Y-125196600D03*
D15*
%TO.P,R2,2*%
%TO.N,GND*%
X127533400Y-125196600D03*
%TD*%
D16*
%TO.P,RV1,1,1*%
%TO.N,Net-(R2-Pad1)*%
X125018800Y-116992400D03*
%TO.P,RV1,2,2*%
X122478800Y-116992400D03*
%TO.P,RV1,3,3*%
%TO.N,Net-(U1-TRIM)*%
X119938800Y-116992400D03*
%TD*%
D17*
%TO.P,Fuse,1*%
%TO.N,Net-(BT1-+)*%
X121208800Y-133350000D03*
X117508800Y-133350000D03*
%TO.P,Fuse,2*%
%TO.N,\u96FB\u5727\u8A08*%
X113208800Y-133350000D03*
X109508800Y-133350000D03*
%TD*%
D18*
%TO.P,12V_Out,1,Pin_1*%
%TO.N,+12V*%
X106095800Y-113665000D03*
D19*
%TO.P,12V_Out,2,Pin_2*%
%TO.N,unconnected-(J1-Pin_2-Pad2)*%
X106095800Y-116165000D03*
%TO.P,12V_Out,3,Pin_3*%
%TO.N,GND*%
X106095800Y-118665000D03*
%TD*%
D18*
%TO.P,SW2,1*%
%TO.N,GND*%
X113055400Y-113690400D03*
D19*
%TO.P,SW2,2*%
%TO.N,Net-(U1-ON{slash}OFF_CTRL)*%
X113055400Y-116190400D03*
%TO.P,SW2,3*%
%TO.N,N/C*%
X113055400Y-118690400D03*
%TD*%
D20*
%TO.P,SW1,1*%
%TO.N,\u96FB\u5727\u8A08*%
X118287800Y-97993200D03*
%TO.P,SW1,2*%
%TO.N,+12V*%
X118287800Y-91993200D03*
%TD*%
D21*
%TO.P,BT_Input,1,+*%
%TO.N,Net-(BT1-+)*%
X134097580Y-134523238D03*
D22*
%TO.P,BT_Input,2,-*%
%TO.N,GND*%
X131297437Y-137323381D03*
%TD*%
D14*
%TO.P,R1,1*%
%TO.N,+12V*%
X117144800Y-85902800D03*
D15*
%TO.P,R1,2*%
%TO.N,Net-(U1-ON{slash}OFF_CTRL)*%
X117144800Y-80822800D03*
%TD*%
D23*
%TO.P,5V_out,1,Pin_1*%
%TO.N,+5V*%
X107416600Y-84455000D03*
D24*
%TO.P,5V_out,2,Pin_2*%
%TO.N,GND*%
X105648833Y-86222767D03*
%TD*%
D25*
%TO.P,C3,1*%
%TO.N,+5V*%
X134950200Y-77038200D03*
%TO.P,C3,2*%
%TO.N,GND*%
X134950200Y-79538200D03*
%TD*%
D23*
%TO.P,J4,1,Pin_1*%
%TO.N,+5V*%
X113360200Y-78435200D03*
D24*
%TO.P,J4,2,Pin_2*%
%TO.N,GND*%
X111592433Y-80202967D03*
%TD*%
D18*
%TO.P,J2,1,Pin_1*%
%TO.N,+12V*%
X105943400Y-95660200D03*
D19*
%TO.P,J2,2,Pin_2*%
%TO.N,unconnected-(J2-Pin_2-Pad2)*%
X105943400Y-98160200D03*
%TO.P,J2,3,Pin_3*%
%TO.N,GND*%
X105943400Y-100660200D03*
%TD*%
D25*
%TO.P,C2,1*%
%TO.N,+12V*%
X125338200Y-70180200D03*
%TO.P,C2,2*%
%TO.N,GND*%
X127838200Y-70180200D03*
%TD*%
D12*
%TO.P,D2,1,K*%
%TO.N,+48V*%
X122504200Y-128524000D03*
D13*
%TO.P,D2,2,A*%
%TO.N,Net-(D2-A)*%
X112344200Y-128524000D03*
%TD*%
D21*
%TO.P,J3,1,Pin_1*%
%TO.N,+48V*%
X127787400Y-140868400D03*
D22*
%TO.P,J3,2,Pin_2*%
%TO.N,GND*%
X124987257Y-143668543D03*
%TD*%
D26*
%TO.P,U2,1,IN\uFF0B*%
%TO.N,+12V*%
X109423200Y-88976200D03*
%TO.P,U2,2,IN\uFF0D*%
%TO.N,GND*%
X127203200Y-88976200D03*
%TO.P,U2,3,OUT\uFF0B*%
%TO.N,Net-(D2-A)*%
X109423200Y-129616200D03*
%TO.P,U2,4,OUT\uFF0D*%
%TO.N,GND*%
X127203200Y-129616200D03*
%TD*%
D27*
%TO.N,GND*%
X113360200Y-89763600D03*
X129895600Y-72999600D03*
X119278400Y-115011200D03*
X123952000Y-115239800D03*
X126060200Y-82651600D03*
%TD*%
D28*
%TO.N,+12V*%
X117144800Y-85902800D02*
X125338200Y-77709400D01*
X125338200Y-77709400D02*
X125338200Y-70180200D01*
%TO.N,+5V*%
X107416600Y-81621084D02*
X110740783Y-78296901D01*
X113221901Y-78296901D02*
X113360200Y-78435200D01*
X107416600Y-84455000D02*
X107416600Y-81621084D01*
X110740783Y-78296901D02*
X113221901Y-78296901D01*
%TO.N,Net-(U1-ON{slash}OFF_CTRL)*%
X117144800Y-83108800D02*
X117144800Y-80822800D01*
X113055400Y-116190400D02*
X112526416Y-116190400D01*
X111130400Y-89123200D02*
X117144800Y-83108800D01*
X111130400Y-114794384D02*
X111130400Y-89123200D01*
X112526416Y-116190400D02*
X111130400Y-114794384D01*
%TO.N,+48V*%
X123469400Y-131292600D02*
X123469400Y-132943600D01*
X126034800Y-132054600D02*
X126542800Y-132562600D01*
X125374400Y-134848600D02*
X123469400Y-132943600D01*
X125018800Y-133731000D02*
X123850400Y-132562600D01*
X125349000Y-132054600D02*
X126034800Y-132054600D01*
X127303900Y-135609700D02*
X126542800Y-134848600D01*
X126542800Y-134848600D02*
X126542800Y-135661400D01*
X128151134Y-134053066D02*
X126542800Y-135661400D01*
X123469400Y-136550400D02*
X126060200Y-139141200D01*
X123469400Y-129489200D02*
X123469400Y-131292600D01*
X123850400Y-132562600D02*
X126542800Y-132562600D01*
X126542800Y-137947400D02*
X125755400Y-137947400D01*
X126864866Y-134053066D02*
X126542800Y-133731000D01*
X127303900Y-137008500D02*
X125956800Y-135661400D01*
X126263400Y-136906000D02*
X126085600Y-136728200D01*
X126542800Y-135661400D02*
X125956800Y-135661400D01*
X126060200Y-139141200D02*
X127787400Y-140868400D01*
X126542800Y-136728200D02*
X126441200Y-136728200D01*
X126542800Y-137947400D02*
X126542800Y-138658600D01*
X126034800Y-132054600D02*
X124231400Y-132054600D01*
X128151134Y-134053066D02*
X126864866Y-134053066D01*
X126085600Y-136728200D02*
X125728200Y-136728200D01*
X128143000Y-137847600D02*
X127303900Y-137008500D01*
X122504200Y-128524000D02*
X122908800Y-128928600D01*
X126542800Y-138658600D02*
X126060200Y-139141200D01*
X126542800Y-135661400D02*
X126542800Y-136728200D01*
X123469400Y-132943600D02*
X123469400Y-133781800D01*
X126441200Y-136728200D02*
X126263400Y-136906000D01*
X122504200Y-128524000D02*
X123469400Y-129489200D01*
X128143000Y-138023600D02*
X128143000Y-137847600D01*
X128143000Y-138023600D02*
X127787400Y-138379200D01*
X128143000Y-139039600D02*
X128143000Y-134162800D01*
X126263400Y-136906000D02*
X125018800Y-135661400D01*
X125349000Y-131368800D02*
X125349000Y-132054600D01*
X124536200Y-134848600D02*
X123469400Y-133781800D01*
X123469400Y-133781800D02*
X123469400Y-135661400D01*
X125018800Y-135661400D02*
X123469400Y-135661400D01*
X128143000Y-134162800D02*
X125349000Y-131368800D01*
X123469400Y-132943600D02*
X123850400Y-132562600D01*
X126542800Y-134848600D02*
X125374400Y-134848600D01*
X127787400Y-140868400D02*
X127787400Y-139395200D01*
X126542800Y-138658600D02*
X126517400Y-138658600D01*
X126542800Y-133731000D02*
X125018800Y-133731000D01*
X122504200Y-128524000D02*
X125349000Y-131368800D01*
X127303900Y-137008500D02*
X127303900Y-135609700D01*
X123469400Y-135661400D02*
X123469400Y-136550400D01*
X126542800Y-133731000D02*
X126542800Y-134848600D01*
X127787400Y-138379200D02*
X127787400Y-140868400D01*
X124231400Y-132054600D02*
X123469400Y-131292600D01*
X126542800Y-134848600D02*
X124536200Y-134848600D01*
X126542800Y-132562600D02*
X126542800Y-133731000D01*
X125755400Y-137947400D02*
X123469400Y-135661400D01*
X127787400Y-139395200D02*
X128143000Y-139039600D01*
X126542800Y-136728200D02*
X126542800Y-137947400D01*
%TD*%
%TA.AperFunction,Conductor*%
%TO.N,GND*%
G36*
X126729137Y-65990082D02*
G01*
X126793319Y-65994288D01*
X126858145Y-65998536D01*
X126862882Y-65999032D01*
X126998041Y-66018465D01*
X127001183Y-66019004D01*
X127127519Y-66044133D01*
X127132821Y-66045435D01*
X127232886Y-66074817D01*
X127266143Y-66084583D01*
X127323360Y-66104005D01*
X127388105Y-66125983D01*
X127393912Y-66128287D01*
X127522298Y-66186920D01*
X127522317Y-66186928D01*
X127635114Y-66242553D01*
X127641184Y-66245985D01*
X127765272Y-66325731D01*
X127863981Y-66391686D01*
X127870129Y-66396375D01*
X128007768Y-66515640D01*
X128069365Y-66569658D01*
X128072311Y-66572417D01*
X133064094Y-71564199D01*
X133064447Y-71564553D01*
X133064447Y-71564552D01*
X133119546Y-71619809D01*
X133119616Y-71619844D01*
X133122991Y-71623094D01*
X133157163Y-71657266D01*
X133157169Y-71657271D01*
X133161141Y-71660319D01*
X133365213Y-71816908D01*
X133592318Y-71948028D01*
X133745091Y-72011308D01*
X133784433Y-72027605D01*
X133834596Y-72048383D01*
X134087899Y-72116255D01*
X134336203Y-72148945D01*
X134347879Y-72150483D01*
X134347895Y-72150485D01*
X134347902Y-72150485D01*
X134610127Y-72150485D01*
X134610134Y-72150485D01*
X134870130Y-72116256D01*
X135123434Y-72048383D01*
X135365711Y-71948028D01*
X135592817Y-71816909D01*
X135800865Y-71657267D01*
X135881589Y-71576542D01*
X135881600Y-71576534D01*
X135893510Y-71564623D01*
X135893512Y-71564623D01*
X136389182Y-71068950D01*
X136392788Y-71065622D01*
X136539470Y-70940771D01*
X136619937Y-70872637D01*
X136625759Y-70868270D01*
X136763641Y-70777077D01*
X136877082Y-70703226D01*
X136883131Y-70699759D01*
X137027032Y-70627834D01*
X137029750Y-70626517D01*
X137153069Y-70566731D01*
X137159224Y-70564150D01*
X137309084Y-70510687D01*
X137443680Y-70465222D01*
X137449842Y-70463492D01*
X137604167Y-70428684D01*
X137744526Y-70400219D01*
X137750569Y-70399303D01*
X137907430Y-70383403D01*
X138051049Y-70372694D01*
X138056852Y-70372535D01*
X138214221Y-70375655D01*
X138358622Y-70383060D01*
X138364058Y-70383583D01*
X138519773Y-70405631D01*
X138662509Y-70431149D01*
X138667567Y-70432275D01*
X138819406Y-70472909D01*
X138958149Y-70516217D01*
X138962786Y-70517871D01*
X138973672Y-70522248D01*
X139107281Y-70575972D01*
X139109860Y-70577078D01*
X139217346Y-70626144D01*
X139241062Y-70636970D01*
X139245207Y-70639052D01*
X139381532Y-70714085D01*
X139384224Y-70715657D01*
X139483577Y-70777105D01*
X139506965Y-70791570D01*
X139510578Y-70793984D01*
X139636795Y-70884851D01*
X139639510Y-70886922D01*
X139751834Y-70977672D01*
X139754873Y-70980296D01*
X139813517Y-71034364D01*
X139869200Y-71085701D01*
X139871867Y-71088312D01*
X139896725Y-71114176D01*
X139971913Y-71192407D01*
X139974426Y-71195185D01*
X140075201Y-71313585D01*
X140077722Y-71316750D01*
X140163922Y-71432549D01*
X140165902Y-71435369D01*
X140251693Y-71565088D01*
X140253962Y-71568794D01*
X140324944Y-71694439D01*
X140326422Y-71697217D01*
X140395979Y-71836384D01*
X140397899Y-71840614D01*
X140452541Y-71974085D01*
X140453559Y-71976745D01*
X140505869Y-72123384D01*
X140507343Y-72128103D01*
X140545115Y-72268442D01*
X140579691Y-72421747D01*
X140580627Y-72426908D01*
X140600462Y-72570523D01*
X140616313Y-72726929D01*
X140616625Y-72732465D01*
X140618300Y-72877031D01*
X140615178Y-73034355D01*
X140614787Y-73040185D01*
X140598394Y-73183262D01*
X140576290Y-73339350D01*
X140575129Y-73345382D01*
X140541120Y-73484510D01*
X140500229Y-73637296D01*
X140498243Y-73643426D01*
X140447481Y-73776105D01*
X140388141Y-73923676D01*
X140385288Y-73929787D01*
X140319242Y-74053290D01*
X140241698Y-74194169D01*
X140237957Y-74200137D01*
X140159582Y-74310680D01*
X140063129Y-74444650D01*
X140058493Y-74450345D01*
X139982027Y-74533686D01*
X139856798Y-74669512D01*
X139854178Y-74672188D01*
X139285807Y-75218456D01*
X139285702Y-75218510D01*
X139163620Y-75335973D01*
X139009392Y-75525420D01*
X139009386Y-75525429D01*
X138879357Y-75732227D01*
X138775448Y-75953329D01*
X138775445Y-75953334D01*
X138699219Y-76185409D01*
X138699217Y-76185416D01*
X138659624Y-76385466D01*
X138651787Y-76425065D01*
X138633870Y-76668690D01*
X138633870Y-76668692D01*
X138642646Y-76849300D01*
X138645727Y-76912692D01*
X138645728Y-76912705D01*
X138687186Y-77153448D01*
X138757623Y-77387353D01*
X138791138Y-77463647D01*
X138791146Y-77463714D01*
X138805942Y-77497354D01*
X138807436Y-77501070D01*
X138828064Y-77557623D01*
X138896806Y-77750877D01*
X138898891Y-77758097D01*
X138923402Y-77867406D01*
X138953803Y-78020240D01*
X138954737Y-78026682D01*
X138965827Y-78147709D01*
X138973348Y-78295070D01*
X138973384Y-78300577D01*
X138968719Y-78423871D01*
X138968488Y-78427368D01*
X138954959Y-78570334D01*
X138954372Y-78574801D01*
X138933721Y-78697296D01*
X138932811Y-78701710D01*
X138898724Y-78841186D01*
X138897796Y-78844566D01*
X138861772Y-78962596D01*
X138859932Y-78967788D01*
X138804509Y-79104540D01*
X138754359Y-79215225D01*
X138751365Y-79221005D01*
X138672519Y-79355454D01*
X138613536Y-79450666D01*
X138609201Y-79456800D01*
X138481851Y-79615664D01*
X138442719Y-79663678D01*
X138440088Y-79666701D01*
X138020968Y-80117985D01*
X137207700Y-81049081D01*
X136423225Y-82004563D01*
X135973316Y-82587978D01*
X135957395Y-82608050D01*
X135956692Y-82609536D01*
X135668274Y-82983540D01*
X135217501Y-83606503D01*
X135213159Y-83612340D01*
X135212985Y-83612742D01*
X134943550Y-83985100D01*
X134249730Y-85008311D01*
X133587458Y-86052219D01*
X132957353Y-87115851D01*
X132360000Y-88198217D01*
X131795957Y-89298309D01*
X131265747Y-90415102D01*
X130935328Y-91169691D01*
X130769869Y-91547555D01*
X130308779Y-92694614D01*
X129882911Y-93855210D01*
X129492658Y-95028261D01*
X129138387Y-96212676D01*
X128820426Y-97407351D01*
X128539071Y-98611172D01*
X128294585Y-99823020D01*
X128087196Y-101041763D01*
X127917096Y-102266269D01*
X127784444Y-103495395D01*
X127689364Y-104727996D01*
X127631944Y-105962925D01*
X127612238Y-107199032D01*
X127630264Y-108435163D01*
X127686006Y-109670169D01*
X127779411Y-110902899D01*
X127910392Y-112132204D01*
X128078827Y-113356939D01*
X128284560Y-114575964D01*
X128527399Y-115788142D01*
X128807117Y-116992345D01*
X129123454Y-118187451D01*
X129476116Y-119372346D01*
X129864773Y-120545927D01*
X130289065Y-121707100D01*
X130748594Y-122854785D01*
X131242935Y-123987911D01*
X131771625Y-125105423D01*
X132334173Y-126206281D01*
X132930054Y-127289458D01*
X133558713Y-128353945D01*
X134219565Y-129398752D01*
X134911995Y-130422905D01*
X135030412Y-130587026D01*
X135180917Y-130795618D01*
X135181029Y-130795937D01*
X135185366Y-130801785D01*
X135230093Y-130863774D01*
X135635356Y-131425449D01*
X135923241Y-131799813D01*
X135923697Y-131800989D01*
X135939822Y-131821376D01*
X136335800Y-132336301D01*
X136388976Y-132405451D01*
X137172152Y-133361999D01*
X137984154Y-134294200D01*
X138348890Y-134687996D01*
X138402832Y-134746235D01*
X138405422Y-134749217D01*
X138443758Y-134796295D01*
X138569395Y-134953110D01*
X138573674Y-134959158D01*
X138631950Y-135052939D01*
X138685624Y-135144104D01*
X138709952Y-135185425D01*
X138712919Y-135191119D01*
X138762705Y-135300083D01*
X138817872Y-135434763D01*
X138819709Y-135439876D01*
X138855806Y-135556087D01*
X138856739Y-135559415D01*
X138891138Y-135696757D01*
X138892063Y-135701103D01*
X138913243Y-135821769D01*
X138913854Y-135826172D01*
X138928284Y-135967046D01*
X138928540Y-135970493D01*
X138934176Y-136092045D01*
X138934189Y-136097477D01*
X138928186Y-136242870D01*
X138918479Y-136362297D01*
X138917629Y-136368660D01*
X138889412Y-136519763D01*
X138866553Y-136627807D01*
X138864589Y-136634951D01*
X138799904Y-136825066D01*
X138780018Y-136882019D01*
X138778596Y-136885710D01*
X138732218Y-136995486D01*
X138679397Y-137179820D01*
X138642007Y-137238843D01*
X138578642Y-137268282D01*
X138562285Y-137269644D01*
X134518399Y-137337799D01*
X134337022Y-142118371D01*
X134314810Y-142184616D01*
X134260309Y-142228336D01*
X134229298Y-142236609D01*
X134133934Y-142249164D01*
X134087899Y-142255226D01*
X133957644Y-142290128D01*
X133834594Y-142323099D01*
X133592325Y-142423449D01*
X133592316Y-142423454D01*
X133365212Y-142554574D01*
X133365203Y-142554580D01*
X133157165Y-142714213D01*
X133110842Y-142760537D01*
X133064519Y-142806860D01*
X133064518Y-142806861D01*
X133064447Y-142806931D01*
X133064094Y-142807284D01*
X128072318Y-147799059D01*
X128069357Y-147801832D01*
X128007753Y-147855859D01*
X127870134Y-147975109D01*
X127863972Y-147979808D01*
X127765305Y-148045738D01*
X127641206Y-148125492D01*
X127635103Y-148128944D01*
X127522326Y-148184560D01*
X127393917Y-148243203D01*
X127388087Y-148245517D01*
X127266147Y-148286911D01*
X127132865Y-148326047D01*
X127127490Y-148327368D01*
X127001259Y-148352476D01*
X126997987Y-148353037D01*
X126862871Y-148372464D01*
X126858101Y-148372963D01*
X126827798Y-148374949D01*
X126729160Y-148381414D01*
X126725112Y-148381547D01*
X126588946Y-148381547D01*
X126584897Y-148381414D01*
X126455948Y-148372962D01*
X126451183Y-148372464D01*
X126316077Y-148353039D01*
X126312804Y-148352478D01*
X126186560Y-148327365D01*
X126181186Y-148326045D01*
X126047909Y-148286911D01*
X125925963Y-148245515D01*
X125920134Y-148243201D01*
X125791736Y-148184563D01*
X125678946Y-148128939D01*
X125672844Y-148125488D01*
X125595039Y-148075485D01*
X125548737Y-148045728D01*
X125450080Y-147979806D01*
X125443932Y-147975117D01*
X125306279Y-147855837D01*
X125244684Y-147801819D01*
X125241737Y-147799059D01*
X121361222Y-143918543D01*
X123150411Y-143918543D01*
X123151409Y-143932497D01*
X123151410Y-143932505D01*
X123207657Y-144191071D01*
X123300141Y-144439030D01*
X123426958Y-144671278D01*
X123426959Y-144671279D01*
X123585548Y-144883128D01*
X123585558Y-144883140D01*
X123772659Y-145070241D01*
X123772671Y-145070251D01*
X123984520Y-145228840D01*
X123984521Y-145228841D01*
X124216770Y-145355658D01*
X124216769Y-145355658D01*
X124464728Y-145448142D01*
X124723294Y-145504389D01*
X124723302Y-145504390D01*
X124737256Y-145505388D01*
X124737257Y-145505388D01*
X124737257Y-144483862D01*
X124894814Y-144518543D01*
X125033341Y-144518543D01*
X125171059Y-144503565D01*
X125237257Y-144481260D01*
X125237257Y-145505388D01*
X125251211Y-145504390D01*
X125251219Y-145504389D01*
X125509785Y-145448142D01*
X125757744Y-145355658D01*
X125989992Y-145228841D01*
X125989993Y-145228840D01*
X126201842Y-145070251D01*
X126201854Y-145070241D01*
X126388955Y-144883140D01*
X126388965Y-144883128D01*
X126547554Y-144671279D01*
X126547555Y-144671278D01*
X126674372Y-144439030D01*
X126766856Y-144191071D01*
X126823103Y-143932505D01*
X126823104Y-143932497D01*
X126824102Y-143918543D01*
X125802633Y-143918543D01*
X125811104Y-143897283D01*
X125841015Y-143714832D01*
X125831006Y-143530217D01*
X125799999Y-143418543D01*
X126824103Y-143418543D01*
X126824102Y-143418542D01*
X126823104Y-143404588D01*
X126823103Y-143404580D01*
X126766856Y-143146014D01*
X126674372Y-142898055D01*
X126547555Y-142665807D01*
X126547554Y-142665806D01*
X126388965Y-142453957D01*
X126388955Y-142453945D01*
X126201854Y-142266844D01*
X126201842Y-142266834D01*
X125989993Y-142108245D01*
X125989992Y-142108244D01*
X125757743Y-141981427D01*
X125757744Y-141981427D01*
X125509785Y-141888943D01*
X125251217Y-141832696D01*
X125251207Y-141832694D01*
X125237257Y-141831695D01*
X125237257Y-142853223D01*
X125079700Y-142818543D01*
X124941173Y-142818543D01*
X124803455Y-142833521D01*
X124737257Y-142855825D01*
X124737257Y-141831696D01*
X124737256Y-141831695D01*
X124723306Y-141832694D01*
X124723296Y-141832696D01*
X124464728Y-141888943D01*
X124216769Y-141981427D01*
X123984521Y-142108244D01*
X123984520Y-142108245D01*
X123772671Y-142266834D01*
X123772659Y-142266844D01*
X123585558Y-142453945D01*
X123585548Y-142453957D01*
X123426959Y-142665806D01*
X123426958Y-142665807D01*
X123300141Y-142898055D01*
X123207657Y-143146014D01*
X123151410Y-143404580D01*
X123151409Y-143404588D01*
X123150411Y-143418542D01*
X123150411Y-143418543D01*
X124171881Y-143418543D01*
X124163410Y-143439803D01*
X124133499Y-143622254D01*
X124143508Y-143806869D01*
X124174515Y-143918543D01*
X123150411Y-143918543D01*
X121361222Y-143918543D01*
X118355505Y-140912826D01*
X118355466Y-140912755D01*
X118189966Y-140747301D01*
X118189955Y-140747290D01*
X117938591Y-140538098D01*
X117909037Y-140513502D01*
X117909029Y-140513496D01*
X117607971Y-140306296D01*
X117607966Y-140306293D01*
X117289262Y-140127396D01*
X117289258Y-140127394D01*
X116955576Y-139978299D01*
X116609693Y-139860247D01*
X116609676Y-139860243D01*
X116254477Y-139774217D01*
X115892897Y-139720928D01*
X115892894Y-139720927D01*
X115527992Y-139700827D01*
X115527956Y-139700827D01*
X115162749Y-139714076D01*
X115162734Y-139714078D01*
X115109333Y-139720927D01*
X114800224Y-139760571D01*
X114800216Y-139760572D01*
X114800214Y-139760573D01*
X114800205Y-139760574D01*
X114443468Y-139839917D01*
X114443465Y-139839918D01*
X114095421Y-139951462D01*
X114095413Y-139951465D01*
X113759005Y-140094267D01*
X113759002Y-140094268D01*
X113758994Y-140094272D01*
X113436990Y-140267156D01*
X113436977Y-140267163D01*
X113346744Y-140326786D01*
X113346551Y-140326845D01*
X113286765Y-140366414D01*
X113282189Y-140369167D01*
X113248538Y-140387487D01*
X113133720Y-140448191D01*
X113115631Y-140455985D01*
X113051942Y-140477610D01*
X112953995Y-140506905D01*
X112945860Y-140508753D01*
X112869837Y-140520718D01*
X112866076Y-140521192D01*
X112771091Y-140530241D01*
X112764271Y-140530513D01*
X112685503Y-140529325D01*
X112680204Y-140529018D01*
X112586544Y-140519556D01*
X112581289Y-140518797D01*
X112503872Y-140504205D01*
X112497246Y-140502574D01*
X112405981Y-140474708D01*
X112402391Y-140473491D01*
X112330306Y-140446565D01*
X112322705Y-140443127D01*
X112276101Y-140418149D01*
X112232610Y-140394840D01*
X112174511Y-140360902D01*
X112158356Y-140349655D01*
X112058614Y-140267726D01*
X112028567Y-140242424D01*
X112024661Y-140238838D01*
X108763770Y-136977947D01*
X105791978Y-134006155D01*
X108258300Y-134006155D01*
X108262913Y-134057416D01*
X108273422Y-134174186D01*
X108273423Y-134174192D01*
X108333303Y-134391160D01*
X108333308Y-134391173D01*
X108430967Y-134593966D01*
X108430971Y-134593974D01*
X108563273Y-134776072D01*
X108563274Y-134776074D01*
X108563277Y-134776077D01*
X108563278Y-134776078D01*
X108648447Y-134857508D01*
X108725976Y-134931633D01*
X108913833Y-135055636D01*
X109120804Y-135144100D01*
X109120807Y-135144101D01*
X109120812Y-135144103D01*
X109340263Y-135194191D01*
X109565130Y-135204290D01*
X109788187Y-135174075D01*
X110002264Y-135104517D01*
X110200481Y-134997852D01*
X110376466Y-134857508D01*
X110524565Y-134687996D01*
X110640015Y-134494764D01*
X110719107Y-134284024D01*
X110737003Y-134185409D01*
X110759300Y-134062549D01*
X110759300Y-134006155D01*
X111958300Y-134006155D01*
X111962913Y-134057416D01*
X111973422Y-134174186D01*
X111973423Y-134174192D01*
X112033303Y-134391160D01*
X112033308Y-134391173D01*
X112130967Y-134593966D01*
X112130971Y-134593974D01*
X112263273Y-134776072D01*
X112263274Y-134776074D01*
X112263277Y-134776077D01*
X112263278Y-134776078D01*
X112348447Y-134857508D01*
X112425976Y-134931633D01*
X112613833Y-135055636D01*
X112820804Y-135144100D01*
X112820807Y-135144101D01*
X112820812Y-135144103D01*
X113040263Y-135194191D01*
X113265130Y-135204290D01*
X113488187Y-135174075D01*
X113702264Y-135104517D01*
X113900481Y-134997852D01*
X114076466Y-134857508D01*
X114224565Y-134687996D01*
X114340015Y-134494764D01*
X114419107Y-134284024D01*
X114437003Y-134185409D01*
X114459300Y-134062549D01*
X114459300Y-134006155D01*
X116258300Y-134006155D01*
X116262913Y-134057416D01*
X116273422Y-134174186D01*
X116273423Y-134174192D01*
X116333303Y-134391160D01*
X116333308Y-134391173D01*
X116430967Y-134593966D01*
X116430971Y-134593974D01*
X116563273Y-134776072D01*
X116563274Y-134776074D01*
X116563277Y-134776077D01*
X116563278Y-134776078D01*
X116648447Y-134857508D01*
X116725976Y-134931633D01*
X116913833Y-135055636D01*
X117120804Y-135144100D01*
X117120807Y-135144101D01*
X117120812Y-135144103D01*
X117340263Y-135194191D01*
X117565130Y-135204290D01*
X117788187Y-135174075D01*
X118002264Y-135104517D01*
X118200481Y-134997852D01*
X118376466Y-134857508D01*
X118524565Y-134687996D01*
X118640015Y-134494764D01*
X118719107Y-134284024D01*
X118737003Y-134185409D01*
X118759300Y-134062549D01*
X118759300Y-134006155D01*
X119958300Y-134006155D01*
X119962913Y-134057416D01*
X119973422Y-134174186D01*
X119973423Y-134174192D01*
X120033303Y-134391160D01*
X120033308Y-134391173D01*
X120130967Y-134593966D01*
X120130971Y-134593974D01*
X120263273Y-134776072D01*
X120263274Y-134776074D01*
X120263277Y-134776077D01*
X120263278Y-134776078D01*
X120348447Y-134857508D01*
X120425976Y-134931633D01*
X120613833Y-135055636D01*
X120820804Y-135144100D01*
X120820807Y-135144101D01*
X120820812Y-135144103D01*
X121040263Y-135194191D01*
X121265130Y-135204290D01*
X121488187Y-135174075D01*
X121702264Y-135104517D01*
X121900481Y-134997852D01*
X122017588Y-134904461D01*
X122082273Y-134878054D01*
X122150969Y-134890809D01*
X122201863Y-134938680D01*
X122218900Y-135001409D01*
X122218900Y-135587693D01*
X122218510Y-135594631D01*
X122216192Y-135615204D01*
X122214162Y-135633223D01*
X122214161Y-135633234D01*
X122216773Y-135671974D01*
X122216851Y-135678928D01*
X122215109Y-135717724D01*
X122215110Y-135717730D01*
X122218338Y-135741564D01*
X122218900Y-135749895D01*
X122218900Y-136476693D01*
X122218510Y-136483631D01*
X122217978Y-136488359D01*
X122214162Y-136522223D01*
X122214161Y-136522231D01*
X122218759Y-136590413D01*
X122218900Y-136594586D01*
X122218900Y-136606556D01*
X122222677Y-136648524D01*
X122229303Y-136746807D01*
X122229303Y-136746812D01*
X122230372Y-136751052D01*
X122233630Y-136770224D01*
X122234023Y-136774590D01*
X122260235Y-136869565D01*
X122284303Y-136965081D01*
X122286115Y-136969070D01*
X122292740Y-136987344D01*
X122293904Y-136991562D01*
X122293907Y-136991570D01*
X122336653Y-137080335D01*
X122377393Y-137170026D01*
X122377394Y-137170029D01*
X122379883Y-137173621D01*
X122389669Y-137190426D01*
X122391566Y-137194365D01*
X122391574Y-137194379D01*
X122449478Y-137274076D01*
X122505580Y-137355055D01*
X122508673Y-137358148D01*
X122521307Y-137372939D01*
X122523878Y-137376478D01*
X122523881Y-137376481D01*
X122595079Y-137444553D01*
X125155128Y-140004602D01*
X125157051Y-140006613D01*
X125213106Y-140067940D01*
X125213110Y-140067944D01*
X125213114Y-140067948D01*
X125213117Y-140067950D01*
X125213119Y-140067952D01*
X125232252Y-140082520D01*
X125238540Y-140088014D01*
X125538233Y-140387707D01*
X125571718Y-140449030D01*
X125566734Y-140518722D01*
X125561363Y-140531038D01*
X125521726Y-140609963D01*
X125521726Y-140609965D01*
X125521725Y-140609967D01*
X125489180Y-140747289D01*
X125481266Y-140780680D01*
X125481266Y-140956119D01*
X125521725Y-141126834D01*
X125561094Y-141205224D01*
X125600463Y-141283615D01*
X125665720Y-141363723D01*
X127292077Y-142990080D01*
X127372185Y-143055337D01*
X127528967Y-143134075D01*
X127699679Y-143174534D01*
X127699681Y-143174534D01*
X127875119Y-143174534D01*
X127875121Y-143174534D01*
X128045833Y-143134075D01*
X128202615Y-143055337D01*
X128282723Y-142990080D01*
X129909080Y-141363723D01*
X129974337Y-141283615D01*
X130053075Y-141126833D01*
X130093534Y-140956121D01*
X130093534Y-140780679D01*
X130053075Y-140609967D01*
X129974337Y-140453185D01*
X129909080Y-140373077D01*
X129285002Y-139748999D01*
X129251517Y-139687676D01*
X129256501Y-139617984D01*
X129266234Y-139597720D01*
X129274215Y-139584364D01*
X129275747Y-139580279D01*
X129284003Y-139562633D01*
X129286153Y-139558845D01*
X129318692Y-139465853D01*
X129353307Y-139373624D01*
X129354085Y-139369337D01*
X129359056Y-139350502D01*
X129360498Y-139346383D01*
X129375910Y-139249072D01*
X129393500Y-139152147D01*
X129393500Y-139147769D01*
X129395027Y-139128370D01*
X129395710Y-139124060D01*
X129393500Y-139025597D01*
X129393500Y-138182615D01*
X129413185Y-138115576D01*
X129465989Y-138069821D01*
X129535147Y-138059877D01*
X129598703Y-138088902D01*
X129626332Y-138123188D01*
X129737138Y-138326117D01*
X129895728Y-138537966D01*
X129895738Y-138537978D01*
X130082839Y-138725079D01*
X130082851Y-138725089D01*
X130294700Y-138883678D01*
X130294701Y-138883679D01*
X130526950Y-139010496D01*
X130526949Y-139010496D01*
X130774908Y-139102980D01*
X131033474Y-139159227D01*
X131033482Y-139159228D01*
X131047436Y-139160226D01*
X131047437Y-139160226D01*
X131047437Y-138138700D01*
X131204994Y-138173381D01*
X131343521Y-138173381D01*
X131481239Y-138158403D01*
X131547437Y-138136098D01*
X131547437Y-139160226D01*
X131561391Y-139159228D01*
X131561399Y-139159227D01*
X131819965Y-139102980D01*
X132067924Y-139010496D01*
X132300172Y-138883679D01*
X132300173Y-138883678D01*
X132512022Y-138725089D01*
X132512034Y-138725079D01*
X132699135Y-138537978D01*
X132699145Y-138537966D01*
X132857734Y-138326117D01*
X132857735Y-138326116D01*
X132984552Y-138093868D01*
X133077036Y-137845909D01*
X133133283Y-137587343D01*
X133133284Y-137587335D01*
X133134282Y-137573381D01*
X132112813Y-137573381D01*
X132121284Y-137552121D01*
X132151195Y-137369670D01*
X132141186Y-137185055D01*
X132110179Y-137073381D01*
X133134283Y-137073381D01*
X133134282Y-137073380D01*
X133133284Y-137059426D01*
X133133283Y-137059418D01*
X133077036Y-136800852D01*
X132984552Y-136552893D01*
X132857735Y-136320645D01*
X132857734Y-136320644D01*
X132699145Y-136108795D01*
X132699135Y-136108783D01*
X132512034Y-135921682D01*
X132512022Y-135921672D01*
X132300173Y-135763083D01*
X132300172Y-135763082D01*
X132067923Y-135636265D01*
X132067924Y-135636265D01*
X131819965Y-135543781D01*
X131561397Y-135487534D01*
X131561387Y-135487532D01*
X131547437Y-135486533D01*
X131547437Y-136508061D01*
X131389880Y-136473381D01*
X131251353Y-136473381D01*
X131113635Y-136488359D01*
X131047437Y-136510663D01*
X131047437Y-135486534D01*
X131047436Y-135486533D01*
X131033486Y-135487532D01*
X131033476Y-135487534D01*
X130774908Y-135543781D01*
X130526949Y-135636265D01*
X130294701Y-135763082D01*
X130294700Y-135763083D01*
X130082851Y-135921672D01*
X130082839Y-135921682D01*
X129895738Y-136108783D01*
X129895728Y-136108795D01*
X129737139Y-136320644D01*
X129737138Y-136320645D01*
X129626332Y-136523573D01*
X129576927Y-136572978D01*
X129508654Y-136587830D01*
X129443190Y-136563413D01*
X129401318Y-136507480D01*
X129393500Y-136464146D01*
X129393500Y-134610957D01*
X131791446Y-134610957D01*
X131831905Y-134781672D01*
X131839249Y-134796295D01*
X131910643Y-134938453D01*
X131975900Y-135018561D01*
X133602257Y-136644918D01*
X133682365Y-136710175D01*
X133839147Y-136788913D01*
X134009859Y-136829372D01*
X134009861Y-136829372D01*
X134185299Y-136829372D01*
X134185301Y-136829372D01*
X134356013Y-136788913D01*
X134512795Y-136710175D01*
X134592903Y-136644918D01*
X136219260Y-135018561D01*
X136284517Y-134938453D01*
X136363255Y-134781671D01*
X136403714Y-134610959D01*
X136403714Y-134435517D01*
X136363255Y-134264805D01*
X136284517Y-134108023D01*
X136219260Y-134027915D01*
X134592903Y-132401558D01*
X134512795Y-132336301D01*
X134434404Y-132296932D01*
X134356014Y-132257563D01*
X134299109Y-132244076D01*
X134185301Y-132217104D01*
X134009859Y-132217104D01*
X133924503Y-132237333D01*
X133839145Y-132257563D01*
X133682365Y-132336301D01*
X133602256Y-132401558D01*
X131975900Y-134027914D01*
X131910643Y-134108023D01*
X131831905Y-134264803D01*
X131791446Y-134435518D01*
X131791446Y-134610957D01*
X129393500Y-134610957D01*
X129393500Y-134239261D01*
X129394062Y-134230929D01*
X129395323Y-134221610D01*
X129395325Y-134221603D01*
X129395587Y-134215741D01*
X129395913Y-134211600D01*
X129398238Y-134190973D01*
X129398237Y-134190962D01*
X129398363Y-134185403D01*
X129398632Y-134185409D01*
X129399569Y-134164515D01*
X129403845Y-134137525D01*
X129402310Y-134069153D01*
X129402356Y-134065029D01*
X129405424Y-133996736D01*
X129400209Y-133958243D01*
X129399665Y-133951326D01*
X129398794Y-133912488D01*
X129385081Y-133845519D01*
X129384383Y-133841413D01*
X129375209Y-133773679D01*
X129363205Y-133736739D01*
X129361431Y-133730015D01*
X129353642Y-133691971D01*
X129328195Y-133628533D01*
X129326772Y-133624608D01*
X129305651Y-133559602D01*
X129287248Y-133525404D01*
X129284300Y-133519102D01*
X129269841Y-133483056D01*
X129233469Y-133425171D01*
X129231372Y-133421570D01*
X129198986Y-133361385D01*
X129174773Y-133331023D01*
X129170746Y-133325348D01*
X129150084Y-133292464D01*
X129103965Y-133242007D01*
X129101254Y-133238833D01*
X129058645Y-133185403D01*
X129058642Y-133185400D01*
X129029400Y-133159851D01*
X129024426Y-133154988D01*
X128998220Y-133126318D01*
X128943838Y-133084911D01*
X128940603Y-133082272D01*
X128889136Y-133037306D01*
X128889135Y-133037305D01*
X128889133Y-133037304D01*
X128889130Y-133037301D01*
X128855786Y-133017379D01*
X128850033Y-133013488D01*
X128819129Y-132989958D01*
X128819128Y-132989957D01*
X128758221Y-132958923D01*
X128754567Y-132956904D01*
X128695898Y-132921851D01*
X128695893Y-132921849D01*
X128680406Y-132916036D01*
X128636299Y-132887625D01*
X127503529Y-131754855D01*
X127490893Y-131740061D01*
X127488321Y-131736521D01*
X127488317Y-131736517D01*
X127470936Y-131719898D01*
X127465303Y-131713736D01*
X127450308Y-131694934D01*
X127398831Y-131649959D01*
X127395797Y-131647123D01*
X126971156Y-131222482D01*
X126966519Y-131217293D01*
X126942307Y-131186932D01*
X126890831Y-131141959D01*
X126887797Y-131139123D01*
X126803968Y-131055294D01*
X126770483Y-130993971D01*
X126775467Y-130924279D01*
X126817339Y-130868346D01*
X126882803Y-130843929D01*
X126923743Y-130847838D01*
X126983217Y-130863774D01*
X126983223Y-130863775D01*
X127203199Y-130883021D01*
X127203201Y-130883021D01*
X127423176Y-130863775D01*
X127423186Y-130863773D01*
X127636470Y-130806624D01*
X127636484Y-130806619D01*
X127836608Y-130713300D01*
X127836620Y-130713293D01*
X127901386Y-130667942D01*
X127901387Y-130667940D01*
X127230647Y-129997200D01*
X127234769Y-129997200D01*
X127328621Y-129981539D01*
X127440451Y-129921020D01*
X127526571Y-129827469D01*
X127577648Y-129711023D01*
X127583305Y-129642752D01*
X128254940Y-130314387D01*
X128254942Y-130314386D01*
X128300293Y-130249620D01*
X128300300Y-130249608D01*
X128393619Y-130049484D01*
X128393624Y-130049470D01*
X128450773Y-129836186D01*
X128450775Y-129836176D01*
X128470021Y-129616200D01*
X128470021Y-129616199D01*
X128450775Y-129396223D01*
X128450773Y-129396213D01*
X128393624Y-129182929D01*
X128393620Y-129182920D01*
X128300298Y-128982790D01*
X128254940Y-128918011D01*
X127588103Y-129584848D01*
X127588149Y-129584302D01*
X127556934Y-129461038D01*
X127487387Y-129354588D01*
X127387043Y-129276487D01*
X127266778Y-129235200D01*
X127230647Y-129235200D01*
X127901387Y-128564458D01*
X127836609Y-128519100D01*
X127836607Y-128519099D01*
X127636484Y-128425780D01*
X127636470Y-128425775D01*
X127423186Y-128368626D01*
X127423176Y-128368624D01*
X127203201Y-128349379D01*
X127203199Y-128349379D01*
X126983223Y-128368624D01*
X126983213Y-128368626D01*
X126769929Y-128425775D01*
X126769920Y-128425779D01*
X126569786Y-128519103D01*
X126505012Y-128564457D01*
X126505011Y-128564458D01*
X127175754Y-129235200D01*
X127171631Y-129235200D01*
X127077779Y-129250861D01*
X126965949Y-129311380D01*
X126879829Y-129404931D01*
X126828752Y-129521377D01*
X126823094Y-129589647D01*
X126151458Y-128918011D01*
X126151457Y-128918012D01*
X126106103Y-128982786D01*
X126012779Y-129182920D01*
X126012775Y-129182929D01*
X125955626Y-129396213D01*
X125955624Y-129396223D01*
X125936379Y-129616199D01*
X125936379Y-129616200D01*
X125955624Y-129836176D01*
X125955627Y-129836189D01*
X125971561Y-129895658D01*
X125969898Y-129965507D01*
X125930735Y-130023370D01*
X125866506Y-130050873D01*
X125797604Y-130039286D01*
X125764105Y-130015431D01*
X124430129Y-128681455D01*
X124417493Y-128666661D01*
X124414921Y-128663121D01*
X124414919Y-128663119D01*
X124343720Y-128595046D01*
X124241018Y-128492344D01*
X124207533Y-128431021D01*
X124204699Y-128404663D01*
X124204699Y-127276129D01*
X124204698Y-127276123D01*
X124204697Y-127276116D01*
X124198291Y-127216517D01*
X124188687Y-127190768D01*
X124147997Y-127081671D01*
X124147993Y-127081664D01*
X124061747Y-126966455D01*
X124061744Y-126966452D01*
X123946535Y-126880206D01*
X123946528Y-126880202D01*
X123811682Y-126829908D01*
X123811683Y-126829908D01*
X123752083Y-126823501D01*
X123752081Y-126823500D01*
X123752073Y-126823500D01*
X123752064Y-126823500D01*
X121256329Y-126823500D01*
X121256323Y-126823501D01*
X121196716Y-126829908D01*
X121061871Y-126880202D01*
X121061864Y-126880206D01*
X120946655Y-126966452D01*
X120946652Y-126966455D01*
X120860406Y-127081664D01*
X120860402Y-127081671D01*
X120810108Y-127216517D01*
X120803701Y-127276116D01*
X120803701Y-127276123D01*
X120803700Y-127276135D01*
X120803700Y-129771870D01*
X120803701Y-129771876D01*
X120810108Y-129831483D01*
X120860402Y-129966328D01*
X120860406Y-129966335D01*
X120946652Y-130081544D01*
X120946655Y-130081547D01*
X121061864Y-130167793D01*
X121061871Y-130167797D01*
X121196717Y-130218091D01*
X121196716Y-130218091D01*
X121203644Y-130218835D01*
X121256327Y-130224500D01*
X122094900Y-130224499D01*
X122161939Y-130244183D01*
X122207694Y-130296987D01*
X122218900Y-130348499D01*
X122218900Y-131218893D01*
X122218510Y-131225831D01*
X122216192Y-131246404D01*
X122214162Y-131264423D01*
X122214161Y-131264431D01*
X122218759Y-131332613D01*
X122218900Y-131336786D01*
X122218900Y-131695552D01*
X122199215Y-131762591D01*
X122146411Y-131808346D01*
X122077253Y-131818290D01*
X122013697Y-131789265D01*
X122009209Y-131785179D01*
X121991627Y-131768369D01*
X121803766Y-131644363D01*
X121596795Y-131555899D01*
X121596782Y-131555895D01*
X121377342Y-131505810D01*
X121377338Y-131505809D01*
X121377337Y-131505809D01*
X121377336Y-131505808D01*
X121377331Y-131505808D01*
X121152474Y-131495710D01*
X121152473Y-131495710D01*
X121152470Y-131495710D01*
X120929413Y-131525925D01*
X120929410Y-131525925D01*
X120929409Y-131525926D01*
X120715334Y-131595483D01*
X120517121Y-131702146D01*
X120517118Y-131702148D01*
X120341136Y-131842489D01*
X120193036Y-132012003D01*
X120077587Y-132205232D01*
X120077586Y-132205234D01*
X119998492Y-132415976D01*
X119958300Y-132637450D01*
X119958300Y-132637453D01*
X119958300Y-134006155D01*
X118759300Y-134006155D01*
X118759300Y-132693852D01*
X118759300Y-132693845D01*
X118744177Y-132525812D01*
X118713864Y-132415976D01*
X118684296Y-132308839D01*
X118684291Y-132308826D01*
X118586632Y-132106033D01*
X118586628Y-132106025D01*
X118454326Y-131923927D01*
X118454325Y-131923925D01*
X118291623Y-131768366D01*
X118103766Y-131644363D01*
X117896795Y-131555899D01*
X117896782Y-131555895D01*
X117677342Y-131505810D01*
X117677338Y-131505809D01*
X117677337Y-131505809D01*
X117677336Y-131505808D01*
X117677331Y-131505808D01*
X117452474Y-131495710D01*
X117452473Y-131495710D01*
X117452470Y-131495710D01*
X117229413Y-131525925D01*
X117229410Y-131525925D01*
X117229409Y-131525926D01*
X117015334Y-131595483D01*
X116817121Y-131702146D01*
X116817118Y-131702148D01*
X116641136Y-131842489D01*
X116493036Y-132012003D01*
X116377587Y-132205232D01*
X116377586Y-132205234D01*
X116298492Y-132415976D01*
X116258300Y-132637450D01*
X116258300Y-132637453D01*
X116258300Y-134006155D01*
X114459300Y-134006155D01*
X114459300Y-132693852D01*
X114459300Y-132693845D01*
X114444177Y-132525812D01*
X114413864Y-132415976D01*
X114384296Y-132308839D01*
X114384291Y-132308826D01*
X114286632Y-132106033D01*
X114286628Y-132106025D01*
X114154326Y-131923927D01*
X114154325Y-131923925D01*
X113991623Y-131768366D01*
X113803766Y-131644363D01*
X113596795Y-131555899D01*
X113596782Y-131555895D01*
X113377342Y-131505810D01*
X113377338Y-131505809D01*
X113377337Y-131505809D01*
X113377336Y-131505808D01*
X113377331Y-131505808D01*
X113152474Y-131495710D01*
X113152473Y-131495710D01*
X113152470Y-131495710D01*
X112929413Y-131525925D01*
X112929410Y-131525925D01*
X112929409Y-131525926D01*
X112715334Y-131595483D01*
X112517121Y-131702146D01*
X112517118Y-131702148D01*
X112341136Y-131842489D01*
X112193036Y-132012003D01*
X112077587Y-132205232D01*
X112077586Y-132205234D01*
X111998492Y-132415976D01*
X111958300Y-132637450D01*
X111958300Y-132637453D01*
X111958300Y-134006155D01*
X110759300Y-134006155D01*
X110759300Y-132693852D01*
X110759300Y-132693845D01*
X110744177Y-132525812D01*
X110713864Y-132415976D01*
X110684296Y-132308839D01*
X110684291Y-132308826D01*
X110586632Y-132106033D01*
X110586628Y-132106025D01*
X110454326Y-131923927D01*
X110454325Y-131923925D01*
X110291623Y-131768366D01*
X110103766Y-131644363D01*
X109896795Y-131555899D01*
X109896782Y-131555895D01*
X109677342Y-131505810D01*
X109677338Y-131505809D01*
X109677337Y-131505809D01*
X109677336Y-131505808D01*
X109677331Y-131505808D01*
X109452474Y-131495710D01*
X109452473Y-131495710D01*
X109452470Y-131495710D01*
X109229413Y-131525925D01*
X109229410Y-131525925D01*
X109229409Y-131525926D01*
X109015334Y-131595483D01*
X108817121Y-131702146D01*
X108817118Y-131702148D01*
X108641136Y-131842489D01*
X108493036Y-132012003D01*
X108377587Y-132205232D01*
X108377586Y-132205234D01*
X108298492Y-132415976D01*
X108258300Y-132637450D01*
X108258300Y-132637453D01*
X108258300Y-134006155D01*
X105791978Y-134006155D01*
X101402026Y-129616202D01*
X108155877Y-129616202D01*
X108175129Y-129836262D01*
X108175130Y-129836270D01*
X108232304Y-130049645D01*
X108232305Y-130049647D01*
X108232306Y-130049650D01*
X108287397Y-130167793D01*
X108325666Y-130249862D01*
X108325668Y-130249866D01*
X108452370Y-130430815D01*
X108452375Y-130430821D01*
X108608578Y-130587024D01*
X108608584Y-130587029D01*
X108789533Y-130713731D01*
X108789535Y-130713732D01*
X108789538Y-130713734D01*
X108989750Y-130807094D01*
X109203132Y-130864270D01*
X109360323Y-130878022D01*
X109423198Y-130883523D01*
X109423200Y-130883523D01*
X109423202Y-130883523D01*
X109478217Y-130878709D01*
X109643268Y-130864270D01*
X109856650Y-130807094D01*
X110056862Y-130713734D01*
X110237820Y-130587026D01*
X110394026Y-130430820D01*
X110520734Y-130249862D01*
X110614094Y-130049650D01*
X110671270Y-129836268D01*
X110690523Y-129616200D01*
X110681996Y-129518740D01*
X110695762Y-129450244D01*
X110744377Y-129400061D01*
X110812406Y-129384127D01*
X110878249Y-129407502D01*
X110912910Y-129445935D01*
X110935239Y-129484609D01*
X110935241Y-129484612D01*
X111094150Y-129683877D01*
X111280983Y-129857232D01*
X111491566Y-130000805D01*
X111491571Y-130000807D01*
X111491572Y-130000808D01*
X111491573Y-130000809D01*
X111592996Y-130049651D01*
X111721192Y-130111387D01*
X111721193Y-130111387D01*
X111721196Y-130111389D01*
X111964742Y-130186513D01*
X112216765Y-130224500D01*
X112471635Y-130224500D01*
X112723658Y-130186513D01*
X112967204Y-130111389D01*
X113196834Y-130000805D01*
X113407417Y-129857232D01*
X113594250Y-129683877D01*
X113753159Y-129484612D01*
X113880593Y-129263888D01*
X113973708Y-129026637D01*
X114030422Y-128778157D01*
X114040372Y-128645375D01*
X114049468Y-128524004D01*
X114049468Y-128523995D01*
X114030422Y-128269845D01*
X113983948Y-128066231D01*
X113973708Y-128021363D01*
X113880593Y-127784112D01*
X113753159Y-127563388D01*
X113594250Y-127364123D01*
X113407417Y-127190768D01*
X113196834Y-127047195D01*
X113196830Y-127047193D01*
X113196827Y-127047191D01*
X113196826Y-127047190D01*
X112967206Y-126936612D01*
X112967208Y-126936612D01*
X112723666Y-126861489D01*
X112723662Y-126861488D01*
X112723658Y-126861487D01*
X112602431Y-126843214D01*
X112471640Y-126823500D01*
X112471635Y-126823500D01*
X112216765Y-126823500D01*
X112216759Y-126823500D01*
X112059809Y-126847157D01*
X111964742Y-126861487D01*
X111964739Y-126861488D01*
X111964733Y-126861489D01*
X111721192Y-126936612D01*
X111491573Y-127047190D01*
X111491572Y-127047191D01*
X111280982Y-127190768D01*
X111094152Y-127364121D01*
X111094150Y-127364123D01*
X110935241Y-127563388D01*
X110807808Y-127784109D01*
X110714692Y-128021362D01*
X110714690Y-128021369D01*
X110657977Y-128269845D01*
X110638932Y-128523995D01*
X110638932Y-128524004D01*
X110657837Y-128776294D01*
X110643217Y-128844617D01*
X110593980Y-128894190D01*
X110525758Y-128909273D01*
X110460211Y-128885079D01*
X110432610Y-128856684D01*
X110394026Y-128801580D01*
X110237820Y-128645374D01*
X110237816Y-128645371D01*
X110237815Y-128645370D01*
X110056866Y-128518668D01*
X110056862Y-128518666D01*
X110000414Y-128492344D01*
X109856650Y-128425306D01*
X109856647Y-128425305D01*
X109856645Y-128425304D01*
X109643270Y-128368130D01*
X109643262Y-128368129D01*
X109423202Y-128348877D01*
X109423198Y-128348877D01*
X109203137Y-128368129D01*
X109203129Y-128368130D01*
X108989754Y-128425304D01*
X108989748Y-128425307D01*
X108789540Y-128518665D01*
X108789538Y-128518666D01*
X108608577Y-128645375D01*
X108452375Y-128801577D01*
X108325666Y-128982538D01*
X108325665Y-128982540D01*
X108232307Y-129182748D01*
X108232304Y-129182754D01*
X108175130Y-129396129D01*
X108175129Y-129396137D01*
X108155877Y-129616197D01*
X108155877Y-129616202D01*
X101402026Y-129616202D01*
X98947766Y-127161941D01*
X98945225Y-127159242D01*
X98898007Y-127105968D01*
X98783235Y-126974679D01*
X98778903Y-126969114D01*
X98717814Y-126880705D01*
X98640261Y-126763500D01*
X98637089Y-126758139D01*
X98583492Y-126656201D01*
X98525254Y-126535813D01*
X98523133Y-126530894D01*
X98481582Y-126421658D01*
X98480625Y-126418955D01*
X98440086Y-126295211D01*
X98438836Y-126290858D01*
X98435116Y-126275847D01*
X98410488Y-126176461D01*
X98409706Y-126172841D01*
X98386175Y-126045427D01*
X98385617Y-126041788D01*
X98383593Y-126025326D01*
X101140005Y-126025326D01*
X101180439Y-126195930D01*
X101259122Y-126352601D01*
X101259123Y-126352602D01*
X101324331Y-126432652D01*
X101324336Y-126432657D01*
X101607163Y-126715482D01*
X102361522Y-125961123D01*
X102385107Y-126041444D01*
X102462839Y-126162398D01*
X102571500Y-126256552D01*
X102702285Y-126316280D01*
X102712066Y-126317686D01*
X101960716Y-127069035D01*
X102243552Y-127351870D01*
X102243559Y-127351876D01*
X102323589Y-127417070D01*
X102323602Y-127417079D01*
X102480269Y-127495760D01*
X102650874Y-127536195D01*
X102826197Y-127536195D01*
X103003204Y-127494243D01*
X103072976Y-127497936D01*
X103129675Y-127538765D01*
X103155300Y-127603766D01*
X103155801Y-127614900D01*
X103155801Y-127823588D01*
X103159431Y-127844172D01*
X103196835Y-128056303D01*
X103274932Y-128270876D01*
X103277654Y-128278353D01*
X103277658Y-128278363D01*
X103395809Y-128483005D01*
X103395811Y-128483008D01*
X103547704Y-128664029D01*
X103678545Y-128773816D01*
X103728727Y-128815924D01*
X103933375Y-128934078D01*
X104155430Y-129014899D01*
X104388148Y-129055933D01*
X104388152Y-129055933D01*
X104624450Y-129055933D01*
X104624454Y-129055933D01*
X104857172Y-129014899D01*
X105079227Y-128934078D01*
X105283875Y-128815924D01*
X105342022Y-128767132D01*
X105419549Y-128702080D01*
X105419548Y-128702080D01*
X105419553Y-128702076D01*
X105715076Y-128406553D01*
X105828924Y-128270874D01*
X105947078Y-128066227D01*
X106027899Y-127844172D01*
X106068933Y-127611454D01*
X106068933Y-127375148D01*
X106027899Y-127142431D01*
X105947078Y-126920375D01*
X105828924Y-126715727D01*
X105705719Y-126568896D01*
X105677029Y-126534704D01*
X105496008Y-126382811D01*
X105496007Y-126382810D01*
X105336742Y-126290858D01*
X105291363Y-126264658D01*
X105291360Y-126264657D01*
X105291359Y-126264656D01*
X105192815Y-126228789D01*
X105069303Y-126183834D01*
X104836588Y-126142801D01*
X104836586Y-126142801D01*
X104627900Y-126142801D01*
X104560861Y-126123116D01*
X104515106Y-126070312D01*
X104505162Y-126001154D01*
X104507243Y-125990204D01*
X104549195Y-125813197D01*
X104549195Y-125637873D01*
X104508760Y-125467269D01*
X104430077Y-125310598D01*
X104430076Y-125310597D01*
X104364868Y-125230547D01*
X104364863Y-125230542D01*
X104330921Y-125196600D01*
X121247757Y-125196600D01*
X121268284Y-125418135D01*
X121268285Y-125418137D01*
X121329169Y-125632123D01*
X121329175Y-125632138D01*
X121428338Y-125831283D01*
X121428343Y-125831291D01*
X121562420Y-126008838D01*
X121726837Y-126158723D01*
X121726839Y-126158725D01*
X121915995Y-126275845D01*
X121915996Y-126275845D01*
X121915999Y-126275847D01*
X122123460Y-126356218D01*
X122342157Y-126397100D01*
X122342159Y-126397100D01*
X122564641Y-126397100D01*
X122564643Y-126397100D01*
X122783340Y-126356218D01*
X122990801Y-126275847D01*
X123179962Y-126158724D01*
X123344381Y-126008836D01*
X123478458Y-125831289D01*
X123577629Y-125632128D01*
X123630416Y-125446600D01*
X126356905Y-125446600D01*
X126409639Y-125631949D01*
X126508768Y-125831025D01*
X126642791Y-126008500D01*
X126807138Y-126158321D01*
X126996220Y-126275397D01*
X126996222Y-126275398D01*
X127203595Y-126355735D01*
X127283400Y-126370652D01*
X127283400Y-125446600D01*
X126356905Y-125446600D01*
X123630416Y-125446600D01*
X123638515Y-125418136D01*
X123656328Y-125225902D01*
X127179772Y-125225902D01*
X127208447Y-125339138D01*
X127272336Y-125436927D01*
X127364515Y-125508672D01*
X127474995Y-125546600D01*
X127562405Y-125546600D01*
X127648616Y-125532214D01*
X127751347Y-125476619D01*
X127778981Y-125446600D01*
X127783400Y-125446600D01*
X127783400Y-126370652D01*
X127863204Y-126355735D01*
X128070577Y-126275398D01*
X128070579Y-126275397D01*
X128259661Y-126158321D01*
X128424008Y-126008500D01*
X128558031Y-125831025D01*
X128657160Y-125631949D01*
X128709895Y-125446600D01*
X127783400Y-125446600D01*
X127778981Y-125446600D01*
X127830460Y-125390679D01*
X127877382Y-125283708D01*
X127887028Y-125167298D01*
X127858353Y-125054062D01*
X127794464Y-124956273D01*
X127702285Y-124884528D01*
X127591805Y-124846600D01*
X127504395Y-124846600D01*
X127418184Y-124860986D01*
X127315453Y-124916581D01*
X127236340Y-125002521D01*
X127189418Y-125109492D01*
X127179772Y-125225902D01*
X123656328Y-125225902D01*
X123659043Y-125196600D01*
X123638515Y-124975064D01*
X123630416Y-124946600D01*
X126356905Y-124946600D01*
X127283400Y-124946600D01*
X127283400Y-124022546D01*
X127783400Y-124022546D01*
X127783400Y-124946600D01*
X128709895Y-124946600D01*
X128657160Y-124761250D01*
X128558031Y-124562174D01*
X128424008Y-124384699D01*
X128259661Y-124234878D01*
X128070579Y-124117802D01*
X128070577Y-124117801D01*
X127863199Y-124037464D01*
X127783400Y-124022546D01*
X127283400Y-124022546D01*
X127203600Y-124037464D01*
X126996222Y-124117801D01*
X126996220Y-124117802D01*
X126807138Y-124234878D01*
X126642791Y-124384699D01*
X126508768Y-124562174D01*
X126409639Y-124761250D01*
X126356905Y-124946600D01*
X123630416Y-124946600D01*
X123577629Y-124761072D01*
X123547333Y-124700229D01*
X123478461Y-124561916D01*
X123478456Y-124561908D01*
X123344379Y-124384361D01*
X123179962Y-124234476D01*
X123179960Y-124234474D01*
X122990804Y-124117354D01*
X122990798Y-124117352D01*
X122783340Y-124036982D01*
X122564643Y-123996100D01*
X122342157Y-123996100D01*
X122123460Y-124036982D01*
X121992264Y-124087807D01*
X121916001Y-124117352D01*
X121915995Y-124117354D01*
X121726839Y-124234474D01*
X121726837Y-124234476D01*
X121562420Y-124384361D01*
X121428343Y-124561908D01*
X121428338Y-124561916D01*
X121329175Y-124761061D01*
X121329169Y-124761076D01*
X121268285Y-124975062D01*
X121268284Y-124975064D01*
X121247757Y-125196599D01*
X121247757Y-125196600D01*
X104330921Y-125196600D01*
X104082035Y-124947716D01*
X103327676Y-125702075D01*
X103304093Y-125621756D01*
X103226361Y-125500802D01*
X103117700Y-125406648D01*
X102986915Y-125346920D01*
X102977134Y-125345513D01*
X103728483Y-124594163D01*
X103445647Y-124311329D01*
X103445640Y-124311323D01*
X103365610Y-124246129D01*
X103365597Y-124246120D01*
X103208930Y-124167439D01*
X103038326Y-124127005D01*
X102863006Y-124127005D01*
X102692401Y-124167439D01*
X102535730Y-124246122D01*
X102535729Y-124246123D01*
X102455679Y-124311331D01*
X102455663Y-124311346D01*
X102066782Y-124700228D01*
X102066782Y-124700229D01*
X102712066Y-125345513D01*
X102702285Y-125346920D01*
X102571500Y-125406648D01*
X102462839Y-125500802D01*
X102385107Y-125621756D01*
X102361523Y-125702076D01*
X101713229Y-125053782D01*
X101324329Y-125442684D01*
X101324323Y-125442691D01*
X101259129Y-125522721D01*
X101259120Y-125522734D01*
X101180439Y-125679401D01*
X101140005Y-125850005D01*
X101140005Y-126025326D01*
X98383593Y-126025326D01*
X98371232Y-125924783D01*
X98370849Y-125920311D01*
X98364514Y-125790176D01*
X98364443Y-125787375D01*
X98364239Y-125670497D01*
X98364463Y-125665154D01*
X98375862Y-125531879D01*
X98389515Y-125417523D01*
X98390557Y-125411419D01*
X98421114Y-125274320D01*
X98446617Y-125169835D01*
X98448670Y-125163108D01*
X98510366Y-124995796D01*
X98533843Y-124933422D01*
X98535295Y-124929896D01*
X98556291Y-124883065D01*
X98556472Y-124882481D01*
X98775265Y-124392783D01*
X99061669Y-123702093D01*
X99062698Y-123699697D01*
X99062726Y-123699545D01*
X99108694Y-123588691D01*
X99226953Y-123303498D01*
X99288666Y-123142470D01*
X115672900Y-123142470D01*
X115672901Y-123142476D01*
X115679308Y-123202083D01*
X115729602Y-123336928D01*
X115729606Y-123336935D01*
X115815852Y-123452144D01*
X115815855Y-123452147D01*
X115931064Y-123538393D01*
X115931071Y-123538397D01*
X116065917Y-123588691D01*
X116065916Y-123588691D01*
X116072844Y-123589435D01*
X116125527Y-123595100D01*
X118621272Y-123595099D01*
X118680883Y-123588691D01*
X118815731Y-123538396D01*
X118930946Y-123452146D01*
X119017196Y-123336931D01*
X119067491Y-123202083D01*
X119073900Y-123142473D01*
X119073900Y-122144600D01*
X125847368Y-122144600D01*
X125847674Y-122148679D01*
X125847675Y-122148686D01*
X125904367Y-122397075D01*
X125904373Y-122397094D01*
X125997458Y-122634271D01*
X125997457Y-122634271D01*
X126124855Y-122854928D01*
X126283720Y-123054140D01*
X126470497Y-123227442D01*
X126681016Y-123370971D01*
X126681024Y-123370976D01*
X126910576Y-123481521D01*
X126910574Y-123481521D01*
X127154052Y-123556624D01*
X127154060Y-123556626D01*
X127283400Y-123576120D01*
X127283400Y-122440481D01*
X127376769Y-122479156D01*
X127494077Y-122494600D01*
X127572723Y-122494600D01*
X127690031Y-122479156D01*
X127783400Y-122440481D01*
X127783400Y-123576119D01*
X127912739Y-123556626D01*
X127912747Y-123556624D01*
X128156224Y-123481521D01*
X128385776Y-123370976D01*
X128385777Y-123370975D01*
X128596305Y-123227440D01*
X128783079Y-123054140D01*
X128941944Y-122854928D01*
X129069341Y-122634271D01*
X129162426Y-122397094D01*
X129162432Y-122397075D01*
X129219124Y-122148686D01*
X129219125Y-122148679D01*
X129219432Y-122144600D01*
X128079282Y-122144600D01*
X128117956Y-122051231D01*
X128138577Y-121894600D01*
X128117956Y-121737969D01*
X128079282Y-121644600D01*
X129219431Y-121644600D01*
X129219125Y-121640520D01*
X129219124Y-121640513D01*
X129162432Y-121392124D01*
X129162426Y-121392105D01*
X129069341Y-121154928D01*
X129069342Y-121154928D01*
X128941944Y-120934271D01*
X128783079Y-120735059D01*
X128596305Y-120561759D01*
X128385777Y-120418224D01*
X128385776Y-120418223D01*
X128156223Y-120307678D01*
X128156225Y-120307678D01*
X127912754Y-120232577D01*
X127912748Y-120232576D01*
X127783400Y-120213079D01*
X127783400Y-121348718D01*
X127690031Y-121310044D01*
X127572723Y-121294600D01*
X127494077Y-121294600D01*
X127376769Y-121310044D01*
X127283400Y-121348718D01*
X127283400Y-120213079D01*
X127154051Y-120232576D01*
X127154045Y-120232577D01*
X126910575Y-120307678D01*
X126681024Y-120418223D01*
X126681016Y-120418228D01*
X126470497Y-120561757D01*
X126283720Y-120735059D01*
X126124855Y-120934271D01*
X125997458Y-121154928D01*
X125904373Y-121392105D01*
X125904367Y-121392124D01*
X125847675Y-121640513D01*
X125847674Y-121640520D01*
X125847368Y-121644600D01*
X126987518Y-121644600D01*
X126948844Y-121737969D01*
X126928223Y-121894600D01*
X126948844Y-122051231D01*
X126987518Y-122144600D01*
X125847368Y-122144600D01*
X119073900Y-122144600D01*
X119073899Y-120646728D01*
X119067491Y-120587117D01*
X119058032Y-120561757D01*
X119017197Y-120452271D01*
X119017193Y-120452264D01*
X118930947Y-120337055D01*
X118930944Y-120337052D01*
X118815735Y-120250806D01*
X118815728Y-120250802D01*
X118680882Y-120200508D01*
X118680883Y-120200508D01*
X118621283Y-120194101D01*
X118621281Y-120194100D01*
X118621273Y-120194100D01*
X118621264Y-120194100D01*
X116125529Y-120194100D01*
X116125523Y-120194101D01*
X116065916Y-120200508D01*
X115931071Y-120250802D01*
X115931064Y-120250806D01*
X115815855Y-120337052D01*
X115815852Y-120337055D01*
X115729606Y-120452264D01*
X115729602Y-120452271D01*
X115679308Y-120587117D01*
X115672901Y-120646716D01*
X115672901Y-120646723D01*
X115672900Y-120646735D01*
X115672900Y-123142470D01*
X99288666Y-123142470D01*
X99648952Y-122202371D01*
X100040952Y-121090211D01*
X100402665Y-119967836D01*
X100733825Y-118836068D01*
X101034189Y-117695742D01*
X101303537Y-116547693D01*
X101382444Y-116165000D01*
X104615141Y-116165000D01*
X104635736Y-116400403D01*
X104635738Y-116400413D01*
X104696894Y-116628655D01*
X104696896Y-116628659D01*
X104696897Y-116628663D01*
X104708742Y-116654064D01*
X104796764Y-116842828D01*
X104796765Y-116842830D01*
X104932305Y-117036402D01*
X105099397Y-117203494D01*
X105256831Y-117313730D01*
X105300456Y-117368307D01*
X105307650Y-117437805D01*
X105276127Y-117500160D01*
X105256832Y-117516880D01*
X105099722Y-117626890D01*
X105099720Y-117626891D01*
X104932694Y-117793917D01*
X104797199Y-117987421D01*
X104697370Y-118201507D01*
X104697367Y-118201513D01*
X104640164Y-118414999D01*
X104640164Y-118415000D01*
X105691831Y-118415000D01*
X105659281Y-118465649D01*
X105620800Y-118596705D01*
X105620800Y-118733295D01*
X105659281Y-118864351D01*
X105691831Y-118915000D01*
X104640164Y-118915000D01*
X104697367Y-119128486D01*
X104697370Y-119128492D01*
X104797199Y-119342577D01*
X104797200Y-119342579D01*
X104932686Y-119536073D01*
X104932691Y-119536079D01*
X105099720Y-119703108D01*
X105099726Y-119703113D01*
X105293220Y-119838599D01*
X105293222Y-119838600D01*
X105507307Y-119938429D01*
X105507316Y-119938433D01*
X105735478Y-119999568D01*
X105845800Y-120009219D01*
X105845800Y-119073018D01*
X105960601Y-119125446D01*
X106061825Y-119140000D01*
X106129775Y-119140000D01*
X106230999Y-119125446D01*
X106345800Y-119073018D01*
X106345800Y-120009219D01*
X106456120Y-119999568D01*
X106456123Y-119999568D01*
X106684283Y-119938433D01*
X106684292Y-119938429D01*
X106898377Y-119838600D01*
X106898379Y-119838599D01*
X107091873Y-119703113D01*
X107091879Y-119703108D01*
X107258905Y-119536082D01*
X107394400Y-119342578D01*
X107494229Y-119128492D01*
X107494232Y-119128486D01*
X107551436Y-118915000D01*
X106499769Y-118915000D01*
X106532319Y-118864351D01*
X106570800Y-118733295D01*
X106570800Y-118596705D01*
X106532319Y-118465649D01*
X106499769Y-118415000D01*
X107551436Y-118415000D01*
X107551435Y-118414999D01*
X107494232Y-118201513D01*
X107494229Y-118201507D01*
X107394400Y-117987422D01*
X107394399Y-117987420D01*
X107258913Y-117793926D01*
X107258908Y-117793920D01*
X107091879Y-117626891D01*
X107091873Y-117626886D01*
X106934767Y-117516880D01*
X106891142Y-117462303D01*
X106883948Y-117392805D01*
X106915471Y-117330450D01*
X106934760Y-117313735D01*
X107092201Y-117203495D01*
X107259295Y-117036401D01*
X107394835Y-116842830D01*
X107494703Y-116628663D01*
X107555863Y-116400408D01*
X107576459Y-116165000D01*
X107555863Y-115929592D01*
X107494703Y-115701337D01*
X107394835Y-115487171D01*
X107394834Y-115487169D01*
X107259294Y-115293597D01*
X107112095Y-115146398D01*
X107078610Y-115085075D01*
X107083594Y-115015383D01*
X107125466Y-114959450D01*
X107134680Y-114953178D01*
X107140134Y-114949814D01*
X107289456Y-114857712D01*
X107413512Y-114733656D01*
X107505614Y-114584334D01*
X107560799Y-114417797D01*
X107571300Y-114315009D01*
X107571299Y-113014992D01*
X107560799Y-112912203D01*
X107505614Y-112745666D01*
X107413512Y-112596344D01*
X107289456Y-112472288D01*
X107140134Y-112380186D01*
X106973597Y-112325001D01*
X106973595Y-112325000D01*
X106870810Y-112314500D01*
X105320798Y-112314500D01*
X105320781Y-112314501D01*
X105218003Y-112325000D01*
X105218000Y-112325001D01*
X105051468Y-112380185D01*
X105051463Y-112380187D01*
X104902142Y-112472289D01*
X104778089Y-112596342D01*
X104685987Y-112745663D01*
X104685986Y-112745666D01*
X104630801Y-112912203D01*
X104630801Y-112912204D01*
X104630800Y-112912204D01*
X104620300Y-113014983D01*
X104620300Y-114315001D01*
X104620301Y-114315018D01*
X104630800Y-114417796D01*
X104630801Y-114417799D01*
X104683212Y-114575964D01*
X104685986Y-114584334D01*
X104772230Y-114724159D01*
X104778089Y-114733657D01*
X104902144Y-114857712D01*
X105056920Y-114953178D01*
X105103645Y-115005126D01*
X105114868Y-115074088D01*
X105087024Y-115138171D01*
X105079506Y-115146398D01*
X104932301Y-115293603D01*
X104932301Y-115293604D01*
X104796767Y-115487165D01*
X104796765Y-115487169D01*
X104696898Y-115701335D01*
X104696894Y-115701344D01*
X104635738Y-115929586D01*
X104635736Y-115929596D01*
X104615141Y-116164999D01*
X104615141Y-116165000D01*
X101382444Y-116165000D01*
X101541669Y-115392766D01*
X101748412Y-114231809D01*
X101923613Y-113065675D01*
X102067144Y-111895221D01*
X102117636Y-111364900D01*
X102117660Y-111364838D01*
X102123031Y-111308264D01*
X102123033Y-111308265D01*
X102135218Y-111179939D01*
X102126508Y-110922279D01*
X102126244Y-110920670D01*
X102126302Y-110920200D01*
X102126116Y-110918305D01*
X102126542Y-110918263D01*
X102134818Y-110851332D01*
X102179520Y-110797634D01*
X102246157Y-110776627D01*
X102262928Y-110777432D01*
X107071613Y-111336583D01*
X106944613Y-103056183D01*
X106944612Y-103056182D01*
X102244739Y-103135394D01*
X102177377Y-103116842D01*
X102130739Y-103064817D01*
X102119208Y-103023168D01*
X102067139Y-102476264D01*
X101923610Y-101305809D01*
X101748410Y-100139675D01*
X101541668Y-98978718D01*
X101372900Y-98160200D01*
X104462741Y-98160200D01*
X104483336Y-98395603D01*
X104483338Y-98395613D01*
X104544494Y-98623855D01*
X104544496Y-98623859D01*
X104544497Y-98623863D01*
X104594431Y-98730946D01*
X104644364Y-98838028D01*
X104644365Y-98838030D01*
X104779905Y-99031602D01*
X104946997Y-99198694D01*
X105104431Y-99308930D01*
X105148056Y-99363507D01*
X105155250Y-99433005D01*
X105123727Y-99495360D01*
X105104432Y-99512080D01*
X104947322Y-99622090D01*
X104947320Y-99622091D01*
X104780294Y-99789117D01*
X104644799Y-99982621D01*
X104544970Y-100196707D01*
X104544967Y-100196713D01*
X104487764Y-100410199D01*
X104487764Y-100410200D01*
X105539431Y-100410200D01*
X105506881Y-100460849D01*
X105468400Y-100591905D01*
X105468400Y-100728495D01*
X105506881Y-100859551D01*
X105539431Y-100910200D01*
X104487764Y-100910200D01*
X104544967Y-101123686D01*
X104544970Y-101123692D01*
X104644799Y-101337777D01*
X104644800Y-101337779D01*
X104780286Y-101531273D01*
X104780291Y-101531279D01*
X104947320Y-101698308D01*
X104947326Y-101698313D01*
X105140820Y-101833799D01*
X105140822Y-101833800D01*
X105354907Y-101933629D01*
X105354916Y-101933633D01*
X105583078Y-101994768D01*
X105693400Y-102004419D01*
X105693400Y-101068218D01*
X105808201Y-101120646D01*
X105909425Y-101135200D01*
X105977375Y-101135200D01*
X106078599Y-101120646D01*
X106193400Y-101068218D01*
X106193400Y-102004419D01*
X106303720Y-101994768D01*
X106303723Y-101994768D01*
X106531883Y-101933633D01*
X106531892Y-101933629D01*
X106745977Y-101833800D01*
X106745979Y-101833799D01*
X106939473Y-101698313D01*
X106939479Y-101698308D01*
X107106505Y-101531282D01*
X107242000Y-101337778D01*
X107341829Y-101123692D01*
X107341832Y-101123686D01*
X107399036Y-100910200D01*
X106347369Y-100910200D01*
X106379919Y-100859551D01*
X106418400Y-100728495D01*
X106418400Y-100591905D01*
X106379919Y-100460849D01*
X106347369Y-100410200D01*
X107399036Y-100410200D01*
X107399035Y-100410199D01*
X107341832Y-100196713D01*
X107341829Y-100196707D01*
X107242000Y-99982622D01*
X107241999Y-99982620D01*
X107106513Y-99789126D01*
X107106508Y-99789120D01*
X106939479Y-99622091D01*
X106939473Y-99622086D01*
X106782367Y-99512080D01*
X106738742Y-99457503D01*
X106731548Y-99388005D01*
X106763071Y-99325650D01*
X106782360Y-99308935D01*
X106939801Y-99198695D01*
X107106895Y-99031601D01*
X107242435Y-98838030D01*
X107342303Y-98623863D01*
X107403463Y-98395608D01*
X107424059Y-98160200D01*
X107403463Y-97924792D01*
X107342303Y-97696537D01*
X107242435Y-97482371D01*
X107242434Y-97482369D01*
X107106894Y-97288797D01*
X106959695Y-97141598D01*
X106926210Y-97080275D01*
X106931194Y-97010583D01*
X106973066Y-96954650D01*
X106982280Y-96948378D01*
X106987734Y-96945014D01*
X107137056Y-96852912D01*
X107261112Y-96728856D01*
X107353214Y-96579534D01*
X107408399Y-96412997D01*
X107418900Y-96310209D01*
X107418899Y-95010192D01*
X107408399Y-94907403D01*
X107353214Y-94740866D01*
X107261112Y-94591544D01*
X107137056Y-94467488D01*
X106987734Y-94375386D01*
X106821197Y-94320201D01*
X106821195Y-94320200D01*
X106718410Y-94309700D01*
X105168398Y-94309700D01*
X105168381Y-94309701D01*
X105065603Y-94320200D01*
X105065600Y-94320201D01*
X104899068Y-94375385D01*
X104899063Y-94375387D01*
X104749742Y-94467489D01*
X104625689Y-94591542D01*
X104533587Y-94740863D01*
X104533586Y-94740866D01*
X104478401Y-94907403D01*
X104478401Y-94907404D01*
X104478400Y-94907404D01*
X104467900Y-95010183D01*
X104467900Y-96310201D01*
X104467901Y-96310218D01*
X104478400Y-96412996D01*
X104478401Y-96412999D01*
X104509912Y-96508092D01*
X104533586Y-96579534D01*
X104588785Y-96669027D01*
X104625689Y-96728857D01*
X104749744Y-96852912D01*
X104904520Y-96948378D01*
X104951245Y-97000326D01*
X104962468Y-97069288D01*
X104934624Y-97133371D01*
X104927106Y-97141598D01*
X104779901Y-97288803D01*
X104779901Y-97288804D01*
X104644367Y-97482365D01*
X104644365Y-97482369D01*
X104544498Y-97696535D01*
X104544494Y-97696544D01*
X104483338Y-97924786D01*
X104483336Y-97924796D01*
X104462741Y-98160199D01*
X104462741Y-98160200D01*
X101372900Y-98160200D01*
X101303537Y-97823791D01*
X101034191Y-96675742D01*
X100733827Y-95535415D01*
X100402668Y-94403647D01*
X100040955Y-93281271D01*
X99648956Y-92169111D01*
X99226957Y-91067984D01*
X99062737Y-90671955D01*
X99062724Y-90671833D01*
X99061648Y-90669327D01*
X98775268Y-89978699D01*
X98535515Y-89442084D01*
X98534102Y-89438644D01*
X98508595Y-89370864D01*
X98493439Y-89329753D01*
X98448787Y-89208630D01*
X98446727Y-89201881D01*
X98421825Y-89099842D01*
X98420830Y-89095763D01*
X98394186Y-88976202D01*
X108155877Y-88976202D01*
X108175129Y-89196262D01*
X108175130Y-89196270D01*
X108232304Y-89409645D01*
X108232305Y-89409647D01*
X108232306Y-89409650D01*
X108323331Y-89604854D01*
X108325666Y-89609862D01*
X108325668Y-89609866D01*
X108452370Y-89790815D01*
X108452375Y-89790821D01*
X108608578Y-89947024D01*
X108608584Y-89947029D01*
X108789533Y-90073731D01*
X108789535Y-90073732D01*
X108789538Y-90073734D01*
X108989750Y-90167094D01*
X109203132Y-90224270D01*
X109360323Y-90238022D01*
X109423198Y-90243523D01*
X109423200Y-90243523D01*
X109423202Y-90243523D01*
X109478217Y-90238709D01*
X109643268Y-90224270D01*
X109723808Y-90202689D01*
X109793656Y-90204352D01*
X109851518Y-90243514D01*
X109879023Y-90307742D01*
X109879900Y-90322464D01*
X109879900Y-114720677D01*
X109879510Y-114727615D01*
X109878830Y-114733656D01*
X109875162Y-114766207D01*
X109875161Y-114766215D01*
X109879759Y-114834397D01*
X109879900Y-114838570D01*
X109879900Y-114850540D01*
X109883677Y-114892508D01*
X109890303Y-114990791D01*
X109890303Y-114990796D01*
X109891372Y-114995036D01*
X109894630Y-115014208D01*
X109895023Y-115018574D01*
X109921235Y-115113549D01*
X109945303Y-115209065D01*
X109947115Y-115213054D01*
X109953740Y-115231328D01*
X109954904Y-115235546D01*
X109954907Y-115235554D01*
X109997653Y-115324319D01*
X110038393Y-115414010D01*
X110038394Y-115414013D01*
X110040883Y-115417605D01*
X110050669Y-115434410D01*
X110052566Y-115438349D01*
X110052574Y-115438363D01*
X110110478Y-115518060D01*
X110166580Y-115599039D01*
X110169673Y-115602132D01*
X110182307Y-115616923D01*
X110184878Y-115620462D01*
X110184881Y-115620465D01*
X110256079Y-115688537D01*
X111590058Y-117022516D01*
X111594695Y-117027704D01*
X111618908Y-117058066D01*
X111670383Y-117103039D01*
X111673416Y-117105874D01*
X111681887Y-117114345D01*
X111681891Y-117114349D01*
X111681895Y-117114352D01*
X111714227Y-117141344D01*
X111788418Y-117206164D01*
X111792171Y-117208406D01*
X111808042Y-117219666D01*
X111811398Y-117222468D01*
X111811400Y-117222469D01*
X111897079Y-117271085D01*
X111981643Y-117321610D01*
X111981646Y-117321611D01*
X111981652Y-117321615D01*
X111985743Y-117323150D01*
X112003362Y-117331392D01*
X112007171Y-117333554D01*
X112007174Y-117333555D01*
X112100176Y-117366098D01*
X112109969Y-117369772D01*
X112118784Y-117373081D01*
X112174631Y-117415065D01*
X112198916Y-117480578D01*
X112183926Y-117548821D01*
X112146338Y-117590748D01*
X112058998Y-117651904D01*
X111891906Y-117818997D01*
X111891901Y-117819004D01*
X111756367Y-118012565D01*
X111756365Y-118012569D01*
X111656498Y-118226735D01*
X111656494Y-118226744D01*
X111595338Y-118454986D01*
X111595336Y-118454996D01*
X111574741Y-118690399D01*
X111574741Y-118690400D01*
X111595336Y-118925803D01*
X111595338Y-118925813D01*
X111656494Y-119154055D01*
X111656496Y-119154059D01*
X111656497Y-119154063D01*
X111706431Y-119261146D01*
X111756364Y-119368228D01*
X111756365Y-119368230D01*
X111891905Y-119561802D01*
X112058997Y-119728894D01*
X112252569Y-119864434D01*
X112252571Y-119864435D01*
X112466737Y-119964303D01*
X112694992Y-120025463D01*
X112871434Y-120040900D01*
X113239366Y-120040900D01*
X113415808Y-120025463D01*
X113644063Y-119964303D01*
X113858229Y-119864435D01*
X114051801Y-119728895D01*
X114218895Y-119561801D01*
X114354435Y-119368230D01*
X114454303Y-119154063D01*
X114515463Y-118925808D01*
X114536059Y-118690400D01*
X114515463Y-118454992D01*
X114454303Y-118226737D01*
X114354435Y-118012571D01*
X114354434Y-118012569D01*
X114218894Y-117818997D01*
X114051803Y-117651906D01*
X113964459Y-117590748D01*
X113894801Y-117541973D01*
X113851178Y-117487399D01*
X113843984Y-117417900D01*
X113875506Y-117355545D01*
X113894798Y-117338828D01*
X114051801Y-117228895D01*
X114218895Y-117061801D01*
X114267489Y-116992401D01*
X118713638Y-116992401D01*
X118732250Y-117205141D01*
X118732252Y-117205152D01*
X118787521Y-117411422D01*
X118787523Y-117411426D01*
X118787524Y-117411430D01*
X118822949Y-117487399D01*
X118877777Y-117604978D01*
X119000272Y-117779921D01*
X119151278Y-117930927D01*
X119151281Y-117930929D01*
X119326219Y-118053421D01*
X119326221Y-118053422D01*
X119326220Y-118053422D01*
X119390736Y-118083506D01*
X119519770Y-118143676D01*
X119726053Y-118198949D01*
X119878015Y-118212244D01*
X119938798Y-118217562D01*
X119938800Y-118217562D01*
X119938802Y-118217562D01*
X119991986Y-118212908D01*
X120151547Y-118198949D01*
X120357830Y-118143676D01*
X120551381Y-118053421D01*
X120726319Y-117930929D01*
X120877329Y-117779919D01*
X120999821Y-117604981D01*
X121090076Y-117411430D01*
X121090080Y-117411413D01*
X121091930Y-117406336D01*
X121094053Y-117407109D01*
X121125376Y-117355705D01*
X121188219Y-117325166D01*
X121257596Y-117333450D01*
X121311480Y-117377928D01*
X121324627Y-117406715D01*
X121325670Y-117406336D01*
X121327522Y-117411422D01*
X121327524Y-117411430D01*
X121362949Y-117487399D01*
X121417777Y-117604978D01*
X121540272Y-117779921D01*
X121691278Y-117930927D01*
X121691281Y-117930929D01*
X121866219Y-118053421D01*
X121866221Y-118053422D01*
X121866220Y-118053422D01*
X121930736Y-118083506D01*
X122059770Y-118143676D01*
X122266053Y-118198949D01*
X122418015Y-118212244D01*
X122478798Y-118217562D01*
X122478800Y-118217562D01*
X122478802Y-118217562D01*
X122531986Y-118212908D01*
X122691547Y-118198949D01*
X122897830Y-118143676D01*
X123091381Y-118053421D01*
X123266319Y-117930929D01*
X123417329Y-117779919D01*
X123539821Y-117604981D01*
X123630076Y-117411430D01*
X123630080Y-117411413D01*
X123631930Y-117406336D01*
X123634053Y-117407109D01*
X123665376Y-117355705D01*
X123728219Y-117325166D01*
X123797596Y-117333450D01*
X123851480Y-117377928D01*
X123864627Y-117406715D01*
X123865670Y-117406336D01*
X123867522Y-117411422D01*
X123867524Y-117411430D01*
X123902949Y-117487399D01*
X123957777Y-117604978D01*
X124080272Y-117779921D01*
X124231278Y-117930927D01*
X124231281Y-117930929D01*
X124406219Y-118053421D01*
X124406221Y-118053422D01*
X124406220Y-118053422D01*
X124470736Y-118083506D01*
X124599770Y-118143676D01*
X124806053Y-118198949D01*
X124958015Y-118212244D01*
X125018798Y-118217562D01*
X125018800Y-118217562D01*
X125018802Y-118217562D01*
X125071986Y-118212908D01*
X125231547Y-118198949D01*
X125437830Y-118143676D01*
X125631381Y-118053421D01*
X125806319Y-117930929D01*
X125957329Y-117779919D01*
X126079821Y-117604981D01*
X126170076Y-117411430D01*
X126225349Y-117205147D01*
X126243962Y-116992400D01*
X126225349Y-116779653D01*
X126170076Y-116573370D01*
X126079821Y-116379819D01*
X125957329Y-116204881D01*
X125957327Y-116204878D01*
X125806321Y-116053872D01*
X125631378Y-115931377D01*
X125631379Y-115931377D01*
X125502347Y-115871209D01*
X125437830Y-115841124D01*
X125437826Y-115841123D01*
X125437822Y-115841121D01*
X125231552Y-115785852D01*
X125231548Y-115785851D01*
X125231547Y-115785851D01*
X125231546Y-115785850D01*
X125231541Y-115785850D01*
X125018802Y-115767238D01*
X125018798Y-115767238D01*
X124806058Y-115785850D01*
X124806047Y-115785852D01*
X124599777Y-115841121D01*
X124599768Y-115841125D01*
X124406221Y-115931377D01*
X124231278Y-116053872D01*
X124080272Y-116204878D01*
X123957777Y-116379821D01*
X123867525Y-116573368D01*
X123865670Y-116578464D01*
X123863549Y-116577692D01*
X123832206Y-116629110D01*
X123769358Y-116659637D01*
X123699983Y-116651339D01*
X123646107Y-116606852D01*
X123632969Y-116578085D01*
X123631930Y-116578464D01*
X123630079Y-116573383D01*
X123630076Y-116573370D01*
X123539821Y-116379819D01*
X123417329Y-116204881D01*
X123417327Y-116204878D01*
X123266321Y-116053872D01*
X123091378Y-115931377D01*
X123091379Y-115931377D01*
X122962347Y-115871209D01*
X122897830Y-115841124D01*
X122897826Y-115841123D01*
X122897822Y-115841121D01*
X122691552Y-115785852D01*
X122691548Y-115785851D01*
X122691547Y-115785851D01*
X122691546Y-115785850D01*
X122691541Y-115785850D01*
X122478802Y-115767238D01*
X122478798Y-115767238D01*
X122266058Y-115785850D01*
X122266047Y-115785852D01*
X122059777Y-115841121D01*
X122059768Y-115841125D01*
X121866221Y-115931377D01*
X121691278Y-116053872D01*
X121540272Y-116204878D01*
X121417777Y-116379821D01*
X121327525Y-116573368D01*
X121325670Y-116578464D01*
X121323549Y-116577692D01*
X121292206Y-116629110D01*
X121229358Y-116659637D01*
X121159983Y-116651339D01*
X121106107Y-116606852D01*
X121092969Y-116578085D01*
X121091930Y-116578464D01*
X121090079Y-116573383D01*
X121090076Y-116573370D01*
X120999821Y-116379819D01*
X120877329Y-116204881D01*
X120877327Y-116204878D01*
X120726321Y-116053872D01*
X120551378Y-115931377D01*
X120551379Y-115931377D01*
X120422347Y-115871209D01*
X120357830Y-115841124D01*
X120357826Y-115841123D01*
X120357822Y-115841121D01*
X120151552Y-115785852D01*
X120151548Y-115785851D01*
X120151547Y-115785851D01*
X120151546Y-115785850D01*
X120151541Y-115785850D01*
X119938802Y-115767238D01*
X119938798Y-115767238D01*
X119726058Y-115785850D01*
X119726047Y-115785852D01*
X119519777Y-115841121D01*
X119519768Y-115841125D01*
X119326221Y-115931377D01*
X119151278Y-116053872D01*
X119000272Y-116204878D01*
X118877777Y-116379821D01*
X118787525Y-116573368D01*
X118787521Y-116573377D01*
X118732252Y-116779647D01*
X118732250Y-116779658D01*
X118713638Y-116992398D01*
X118713638Y-116992401D01*
X114267489Y-116992401D01*
X114354435Y-116868230D01*
X114454303Y-116654063D01*
X114515463Y-116425808D01*
X114536059Y-116190400D01*
X114515463Y-115954992D01*
X114454303Y-115726737D01*
X114354435Y-115512571D01*
X114336650Y-115487170D01*
X114218894Y-115318997D01*
X114071332Y-115171435D01*
X114037847Y-115110112D01*
X114042831Y-115040420D01*
X114084703Y-114984487D01*
X114093916Y-114978215D01*
X114248745Y-114882715D01*
X114372715Y-114758745D01*
X114464756Y-114609524D01*
X114464758Y-114609519D01*
X114519905Y-114443097D01*
X114519906Y-114443090D01*
X114530399Y-114340386D01*
X114530400Y-114340373D01*
X114530400Y-113940400D01*
X113459369Y-113940400D01*
X113491919Y-113889751D01*
X113530400Y-113758695D01*
X113530400Y-113622105D01*
X113491919Y-113491049D01*
X113459369Y-113440400D01*
X114530399Y-113440400D01*
X114530399Y-113040428D01*
X114530398Y-113040413D01*
X114519905Y-112937702D01*
X114464758Y-112771280D01*
X114464756Y-112771275D01*
X114372715Y-112622054D01*
X114248745Y-112498084D01*
X114099524Y-112406043D01*
X114099519Y-112406041D01*
X113933097Y-112350894D01*
X113933090Y-112350893D01*
X113830386Y-112340400D01*
X113305400Y-112340400D01*
X113305400Y-113282381D01*
X113190599Y-113229954D01*
X113089375Y-113215400D01*
X113021425Y-113215400D01*
X112920201Y-113229954D01*
X112805400Y-113282381D01*
X112805400Y-112340400D01*
X112504900Y-112340400D01*
X112437861Y-112320715D01*
X112392106Y-112267911D01*
X112380900Y-112216400D01*
X112380900Y-98117534D01*
X115787300Y-98117534D01*
X115828229Y-98362816D01*
X115908969Y-98598002D01*
X115908972Y-98598011D01*
X115922963Y-98623864D01*
X116027326Y-98816709D01*
X116180062Y-99012944D01*
X116339544Y-99159757D01*
X116363017Y-99181366D01*
X116571193Y-99317373D01*
X116798918Y-99417263D01*
X116861082Y-99433005D01*
X117039979Y-99478308D01*
X117039981Y-99478308D01*
X117039986Y-99478309D01*
X117173176Y-99489345D01*
X117225733Y-99493700D01*
X117225735Y-99493700D01*
X119349865Y-99493700D01*
X119349867Y-99493700D01*
X119411084Y-99488627D01*
X119535613Y-99478309D01*
X119535616Y-99478308D01*
X119535621Y-99478308D01*
X119776681Y-99417263D01*
X120004407Y-99317373D01*
X120212585Y-99181364D01*
X120395538Y-99012944D01*
X120548274Y-98816709D01*
X120666628Y-98598010D01*
X120747371Y-98362814D01*
X120788300Y-98117535D01*
X120788300Y-97868865D01*
X120747371Y-97623586D01*
X120666628Y-97388390D01*
X120548274Y-97169691D01*
X120395538Y-96973456D01*
X120212585Y-96805036D01*
X120212582Y-96805033D01*
X120004406Y-96669026D01*
X119776681Y-96569136D01*
X119535624Y-96508092D01*
X119535613Y-96508090D01*
X119370348Y-96494397D01*
X119349867Y-96492700D01*
X117225733Y-96492700D01*
X117206321Y-96494308D01*
X117039986Y-96508090D01*
X117039975Y-96508092D01*
X116798918Y-96569136D01*
X116571193Y-96669026D01*
X116363017Y-96805033D01*
X116180061Y-96973457D01*
X116027324Y-97169693D01*
X115908972Y-97388388D01*
X115908969Y-97388397D01*
X115828229Y-97623583D01*
X115787300Y-97868865D01*
X115787300Y-98117534D01*
X112380900Y-98117534D01*
X112380900Y-92117534D01*
X115787300Y-92117534D01*
X115828229Y-92362816D01*
X115908969Y-92598002D01*
X115908972Y-92598011D01*
X116027324Y-92816706D01*
X116027326Y-92816709D01*
X116180062Y-93012944D01*
X116339544Y-93159757D01*
X116363017Y-93181366D01*
X116571193Y-93317373D01*
X116798918Y-93417263D01*
X117039975Y-93478307D01*
X117039979Y-93478308D01*
X117039981Y-93478308D01*
X117039986Y-93478309D01*
X117173176Y-93489345D01*
X117225733Y-93493700D01*
X117225735Y-93493700D01*
X119349865Y-93493700D01*
X119349867Y-93493700D01*
X119411084Y-93488627D01*
X119535613Y-93478309D01*
X119535616Y-93478308D01*
X119535621Y-93478308D01*
X119776681Y-93417263D01*
X120004407Y-93317373D01*
X120212585Y-93181364D01*
X120395538Y-93012944D01*
X120548274Y-92816709D01*
X120666628Y-92598010D01*
X120747371Y-92362814D01*
X120788300Y-92117535D01*
X120788300Y-91868865D01*
X120747371Y-91623586D01*
X120666628Y-91388390D01*
X120548274Y-91169691D01*
X120395538Y-90973456D01*
X120212585Y-90805036D01*
X120212582Y-90805033D01*
X120004406Y-90669026D01*
X119776681Y-90569136D01*
X119535624Y-90508092D01*
X119535613Y-90508090D01*
X119370348Y-90494397D01*
X119349867Y-90492700D01*
X117225733Y-90492700D01*
X117206321Y-90494308D01*
X117039986Y-90508090D01*
X117039975Y-90508092D01*
X116798918Y-90569136D01*
X116571193Y-90669026D01*
X116363017Y-90805033D01*
X116180061Y-90973457D01*
X116027324Y-91169693D01*
X115908972Y-91388388D01*
X115908969Y-91388397D01*
X115828229Y-91623583D01*
X115787300Y-91868865D01*
X115787300Y-92117534D01*
X112380900Y-92117534D01*
X112380900Y-89692535D01*
X112400585Y-89625496D01*
X112417214Y-89604859D01*
X113045873Y-88976200D01*
X125936379Y-88976200D01*
X125955624Y-89196176D01*
X125955626Y-89196186D01*
X126012775Y-89409470D01*
X126012780Y-89409484D01*
X126106099Y-89609607D01*
X126106100Y-89609609D01*
X126151458Y-89674387D01*
X126818296Y-89007549D01*
X126818251Y-89008098D01*
X126849466Y-89131362D01*
X126919013Y-89237812D01*
X127019357Y-89315913D01*
X127139622Y-89357200D01*
X127175753Y-89357200D01*
X126505011Y-90027941D01*
X126569782Y-90073294D01*
X126569792Y-90073300D01*
X126769915Y-90166619D01*
X126769929Y-90166624D01*
X126983213Y-90223773D01*
X126983223Y-90223775D01*
X127203199Y-90243021D01*
X127203201Y-90243021D01*
X127423176Y-90223775D01*
X127423186Y-90223773D01*
X127636470Y-90166624D01*
X127636484Y-90166619D01*
X127836608Y-90073300D01*
X127836620Y-90073293D01*
X127901386Y-90027942D01*
X127901387Y-90027940D01*
X127230648Y-89357200D01*
X127234769Y-89357200D01*
X127328621Y-89341539D01*
X127440451Y-89281020D01*
X127526571Y-89187469D01*
X127577648Y-89071023D01*
X127583305Y-89002752D01*
X128254940Y-89674387D01*
X128254942Y-89674386D01*
X128300293Y-89609620D01*
X128300300Y-89609608D01*
X128393619Y-89409484D01*
X128393624Y-89409470D01*
X128450773Y-89196186D01*
X128450775Y-89196176D01*
X128470021Y-88976200D01*
X128470021Y-88976199D01*
X128450775Y-88756223D01*
X128450773Y-88756213D01*
X128393624Y-88542929D01*
X128393620Y-88542920D01*
X128300298Y-88342790D01*
X128254940Y-88278011D01*
X127588103Y-88944848D01*
X127588149Y-88944302D01*
X127556934Y-88821038D01*
X127487387Y-88714588D01*
X127387043Y-88636487D01*
X127266778Y-88595200D01*
X127230647Y-88595200D01*
X127901387Y-87924458D01*
X127836609Y-87879100D01*
X127836607Y-87879099D01*
X127636484Y-87785780D01*
X127636470Y-87785775D01*
X127423186Y-87728626D01*
X127423176Y-87728624D01*
X127203201Y-87709379D01*
X127203199Y-87709379D01*
X126983223Y-87728624D01*
X126983213Y-87728626D01*
X126769929Y-87785775D01*
X126769920Y-87785779D01*
X126569786Y-87879103D01*
X126505012Y-87924457D01*
X126505011Y-87924458D01*
X127175754Y-88595200D01*
X127171631Y-88595200D01*
X127077779Y-88610861D01*
X126965949Y-88671380D01*
X126879829Y-88764931D01*
X126828752Y-88881377D01*
X126823094Y-88949647D01*
X126151458Y-88278011D01*
X126151457Y-88278012D01*
X126106103Y-88342786D01*
X126012779Y-88542920D01*
X126012775Y-88542929D01*
X125955626Y-88756213D01*
X125955624Y-88756223D01*
X125936379Y-88976199D01*
X125936379Y-88976200D01*
X113045873Y-88976200D01*
X115756752Y-86265320D01*
X115818073Y-86231837D01*
X115887765Y-86236821D01*
X115943698Y-86278693D01*
X115959517Y-86306838D01*
X116026093Y-86472810D01*
X116145851Y-86663404D01*
X116297711Y-86829545D01*
X116297714Y-86829548D01*
X116476805Y-86965908D01*
X116677365Y-87068099D01*
X116892949Y-87132836D01*
X117116627Y-87158038D01*
X117116629Y-87158037D01*
X117116631Y-87158038D01*
X117216442Y-87151308D01*
X117341212Y-87142896D01*
X117559483Y-87087896D01*
X117764426Y-86994807D01*
X117949454Y-86866620D01*
X126170327Y-78645745D01*
X126175487Y-78641133D01*
X126205866Y-78616908D01*
X126250832Y-78565439D01*
X126253678Y-78562395D01*
X126262129Y-78553945D01*
X126262129Y-78553944D01*
X126262144Y-78553930D01*
X126289147Y-78521585D01*
X126353965Y-78447396D01*
X126356206Y-78443643D01*
X126367474Y-78427764D01*
X126370268Y-78424419D01*
X126418883Y-78338740D01*
X126469415Y-78254164D01*
X126470947Y-78250079D01*
X126479203Y-78232433D01*
X126481353Y-78228645D01*
X126513892Y-78135653D01*
X126548507Y-78043424D01*
X126549285Y-78039137D01*
X126554256Y-78020302D01*
X126555698Y-78016183D01*
X126571110Y-77918872D01*
X126578647Y-77877341D01*
X126588700Y-77821949D01*
X126588700Y-77817569D01*
X126590227Y-77798170D01*
X126590910Y-77793860D01*
X126588700Y-77695397D01*
X126588700Y-77038201D01*
X133644732Y-77038201D01*
X133664564Y-77264886D01*
X133664566Y-77264897D01*
X133723458Y-77484688D01*
X133723461Y-77484697D01*
X133819631Y-77690932D01*
X133819632Y-77690934D01*
X133950154Y-77877341D01*
X134111058Y-78038245D01*
X134157893Y-78071039D01*
X134297466Y-78168768D01*
X134313175Y-78176093D01*
X134365614Y-78222264D01*
X134384767Y-78289457D01*
X134364552Y-78356338D01*
X134313179Y-78400856D01*
X134297712Y-78408068D01*
X134224727Y-78459172D01*
X134224726Y-78459173D01*
X134905800Y-79140246D01*
X134825052Y-79153035D01*
X134712155Y-79210559D01*
X134622559Y-79300155D01*
X134565035Y-79413052D01*
X134552246Y-79493799D01*
X133871173Y-78812726D01*
X133871172Y-78812727D01*
X133820068Y-78885713D01*
X133723934Y-79091873D01*
X133723930Y-79091882D01*
X133665060Y-79311589D01*
X133665058Y-79311600D01*
X133645234Y-79538197D01*
X133645234Y-79538202D01*
X133665058Y-79764799D01*
X133665060Y-79764810D01*
X133723930Y-79984517D01*
X133723934Y-79984526D01*
X133820065Y-80190681D01*
X133820066Y-80190683D01*
X133871173Y-80263671D01*
X133871174Y-80263672D01*
X134552246Y-79582599D01*
X134565035Y-79663348D01*
X134622559Y-79776245D01*
X134712155Y-79865841D01*
X134825052Y-79923365D01*
X134905799Y-79936153D01*
X134224726Y-80617225D01*
X134224726Y-80617226D01*
X134297712Y-80668331D01*
X134297716Y-80668333D01*
X134503873Y-80764465D01*
X134503882Y-80764469D01*
X134723589Y-80823339D01*
X134723600Y-80823341D01*
X134950198Y-80843166D01*
X134950202Y-80843166D01*
X135176799Y-80823341D01*
X135176810Y-80823339D01*
X135396517Y-80764469D01*
X135396531Y-80764464D01*
X135602678Y-80668336D01*
X135675672Y-80617225D01*
X134994601Y-79936153D01*
X135075348Y-79923365D01*
X135188245Y-79865841D01*
X135277841Y-79776245D01*
X135335365Y-79663348D01*
X135348153Y-79582600D01*
X136029225Y-80263672D01*
X136080336Y-80190678D01*
X136176464Y-79984531D01*
X136176469Y-79984517D01*
X136235339Y-79764810D01*
X136235341Y-79764799D01*
X136255166Y-79538202D01*
X136255166Y-79538197D01*
X136235341Y-79311600D01*
X136235339Y-79311589D01*
X136176469Y-79091882D01*
X136176465Y-79091873D01*
X136080333Y-78885716D01*
X136080331Y-78885712D01*
X136029226Y-78812726D01*
X136029225Y-78812726D01*
X135348153Y-79493798D01*
X135335365Y-79413052D01*
X135277841Y-79300155D01*
X135188245Y-79210559D01*
X135075348Y-79153035D01*
X134994600Y-79140246D01*
X135675672Y-78459174D01*
X135675671Y-78459173D01*
X135602683Y-78408066D01*
X135602681Y-78408065D01*
X135587223Y-78400857D01*
X135534784Y-78354684D01*
X135515632Y-78287490D01*
X135535848Y-78220609D01*
X135587223Y-78176093D01*
X135602934Y-78168768D01*
X135789339Y-78038247D01*
X135950247Y-77877339D01*
X136080768Y-77690934D01*
X136176939Y-77484696D01*
X136235835Y-77264892D01*
X136254985Y-77046011D01*
X136255668Y-77038201D01*
X136255668Y-77038198D01*
X136244851Y-76914561D01*
X136235835Y-76811508D01*
X136176939Y-76591704D01*
X136080768Y-76385466D01*
X135950247Y-76199061D01*
X135950245Y-76199058D01*
X135789341Y-76038154D01*
X135602934Y-75907632D01*
X135602932Y-75907631D01*
X135396697Y-75811461D01*
X135396688Y-75811458D01*
X135176897Y-75752566D01*
X135176893Y-75752565D01*
X135176892Y-75752565D01*
X135176891Y-75752564D01*
X135176886Y-75752564D01*
X134950202Y-75732732D01*
X134950198Y-75732732D01*
X134723513Y-75752564D01*
X134723502Y-75752566D01*
X134503711Y-75811458D01*
X134503702Y-75811461D01*
X134297467Y-75907631D01*
X134297465Y-75907632D01*
X134111058Y-76038154D01*
X133950154Y-76199058D01*
X133819632Y-76385465D01*
X133819631Y-76385467D01*
X133723461Y-76591702D01*
X133723458Y-76591711D01*
X133664566Y-76811502D01*
X133664564Y-76811513D01*
X133644732Y-77038198D01*
X133644732Y-77038201D01*
X126588700Y-77038201D01*
X126588700Y-72914963D01*
X136270987Y-72914963D01*
X136300613Y-73184213D01*
X136300615Y-73184224D01*
X136348799Y-73368530D01*
X136369128Y-73446288D01*
X136475070Y-73695590D01*
X136609330Y-73915582D01*
X136616179Y-73926805D01*
X136616186Y-73926815D01*
X136789453Y-74135019D01*
X136789459Y-74135024D01*
X136991198Y-74315782D01*
X137217110Y-74465244D01*
X137462376Y-74580220D01*
X137462383Y-74580222D01*
X137462385Y-74580223D01*
X137721757Y-74658257D01*
X137721764Y-74658258D01*
X137721769Y-74658260D01*
X137989761Y-74697700D01*
X137989766Y-74697700D01*
X138192836Y-74697700D01*
X138244333Y-74693930D01*
X138395356Y-74682877D01*
X138540122Y-74650629D01*
X138659746Y-74623982D01*
X138659748Y-74623981D01*
X138659753Y-74623980D01*
X138912758Y-74527214D01*
X139148977Y-74394641D01*
X139363377Y-74229088D01*
X139551386Y-74034081D01*
X139708999Y-73813779D01*
X139788007Y-73660107D01*
X139832849Y-73572890D01*
X139832851Y-73572884D01*
X139832856Y-73572875D01*
X139920318Y-73316505D01*
X139969519Y-73050133D01*
X139979412Y-72779435D01*
X139949786Y-72510182D01*
X139881272Y-72248112D01*
X139775330Y-71998810D01*
X139634218Y-71767590D01*
X139608174Y-71736295D01*
X139460946Y-71559380D01*
X139460940Y-71559375D01*
X139259202Y-71378618D01*
X139033292Y-71229157D01*
X138954897Y-71192407D01*
X138788024Y-71114180D01*
X138788019Y-71114178D01*
X138788014Y-71114176D01*
X138528642Y-71036142D01*
X138528628Y-71036139D01*
X138412991Y-71019121D01*
X138260639Y-70996700D01*
X138057569Y-70996700D01*
X138057564Y-70996700D01*
X137855044Y-71011523D01*
X137855031Y-71011525D01*
X137590653Y-71070417D01*
X137590646Y-71070420D01*
X137337639Y-71167187D01*
X137101426Y-71299757D01*
X137101424Y-71299758D01*
X137101423Y-71299759D01*
X137083518Y-71313585D01*
X136887022Y-71465312D01*
X136699022Y-71660309D01*
X136699016Y-71660316D01*
X136541402Y-71880619D01*
X136541399Y-71880624D01*
X136417550Y-72121509D01*
X136417543Y-72121527D01*
X136330084Y-72377885D01*
X136330081Y-72377899D01*
X136305649Y-72510175D01*
X136285969Y-72616724D01*
X136280881Y-72644268D01*
X136280880Y-72644275D01*
X136270987Y-72914963D01*
X126588700Y-72914963D01*
X126588700Y-71026079D01*
X126608385Y-70959040D01*
X126661189Y-70913285D01*
X126723509Y-70902551D01*
X126759174Y-70905671D01*
X127440246Y-70224599D01*
X127453035Y-70305348D01*
X127510559Y-70418245D01*
X127600155Y-70507841D01*
X127713052Y-70565365D01*
X127793799Y-70578153D01*
X127112726Y-71259225D01*
X127112726Y-71259226D01*
X127185712Y-71310331D01*
X127185716Y-71310333D01*
X127391873Y-71406465D01*
X127391882Y-71406469D01*
X127611589Y-71465339D01*
X127611600Y-71465341D01*
X127838198Y-71485166D01*
X127838202Y-71485166D01*
X128064799Y-71465341D01*
X128064810Y-71465339D01*
X128284517Y-71406469D01*
X128284531Y-71406464D01*
X128490678Y-71310336D01*
X128563672Y-71259225D01*
X127882601Y-70578153D01*
X127963348Y-70565365D01*
X128076245Y-70507841D01*
X128165841Y-70418245D01*
X128223365Y-70305348D01*
X128236153Y-70224600D01*
X128917225Y-70905672D01*
X128968336Y-70832678D01*
X129064464Y-70626531D01*
X129064469Y-70626517D01*
X129123339Y-70406810D01*
X129123341Y-70406799D01*
X129143166Y-70180202D01*
X129143166Y-70180197D01*
X129123341Y-69953600D01*
X129123339Y-69953589D01*
X129064469Y-69733882D01*
X129064465Y-69733873D01*
X128968333Y-69527716D01*
X128968331Y-69527712D01*
X128917226Y-69454726D01*
X128917225Y-69454726D01*
X128236153Y-70135798D01*
X128223365Y-70055052D01*
X128165841Y-69942155D01*
X128076245Y-69852559D01*
X127963348Y-69795035D01*
X127882600Y-69782246D01*
X128563672Y-69101174D01*
X128563671Y-69101173D01*
X128490683Y-69050066D01*
X128490681Y-69050065D01*
X128284526Y-68953934D01*
X128284517Y-68953930D01*
X128064810Y-68895060D01*
X128064799Y-68895058D01*
X127838202Y-68875234D01*
X127838198Y-68875234D01*
X127611600Y-68895058D01*
X127611589Y-68895060D01*
X127391882Y-68953930D01*
X127391873Y-68953934D01*
X127185713Y-69050068D01*
X127112727Y-69101172D01*
X127112726Y-69101173D01*
X127793800Y-69782246D01*
X127713052Y-69795035D01*
X127600155Y-69852559D01*
X127510559Y-69942155D01*
X127453035Y-70055052D01*
X127440246Y-70135799D01*
X126759173Y-69454726D01*
X126759172Y-69454727D01*
X126708068Y-69527712D01*
X126700856Y-69543179D01*
X126654682Y-69595617D01*
X126587488Y-69614767D01*
X126520607Y-69594550D01*
X126476093Y-69543176D01*
X126468768Y-69527466D01*
X126338247Y-69341061D01*
X126338245Y-69341058D01*
X126177341Y-69180154D01*
X125990934Y-69049632D01*
X125990932Y-69049631D01*
X125784697Y-68953461D01*
X125784688Y-68953458D01*
X125564897Y-68894566D01*
X125564893Y-68894565D01*
X125564892Y-68894565D01*
X125564891Y-68894564D01*
X125564886Y-68894564D01*
X125338202Y-68874732D01*
X125338198Y-68874732D01*
X125111513Y-68894564D01*
X125111502Y-68894566D01*
X124891711Y-68953458D01*
X124891702Y-68953461D01*
X124685467Y-69049631D01*
X124685465Y-69049632D01*
X124499058Y-69180154D01*
X124338154Y-69341058D01*
X124207632Y-69527465D01*
X124207631Y-69527467D01*
X124111461Y-69733702D01*
X124111458Y-69733711D01*
X124052566Y-69953502D01*
X124052564Y-69953513D01*
X124032732Y-70180198D01*
X124032732Y-70180201D01*
X124052557Y-70406810D01*
X124052565Y-70406892D01*
X124083475Y-70522252D01*
X124087700Y-70554342D01*
X124087700Y-77140064D01*
X124068015Y-77207103D01*
X124051381Y-77227745D01*
X118606981Y-82672145D01*
X118545658Y-82705630D01*
X118475966Y-82700646D01*
X118420033Y-82658774D01*
X118395616Y-82593310D01*
X118395300Y-82584464D01*
X118395300Y-80766652D01*
X118395300Y-80766645D01*
X118380177Y-80598612D01*
X118376196Y-80584186D01*
X118320296Y-80381639D01*
X118320291Y-80381626D01*
X118222632Y-80178833D01*
X118222628Y-80178825D01*
X118090326Y-79996727D01*
X118090325Y-79996725D01*
X118077556Y-79984517D01*
X117927625Y-79841168D01*
X117927623Y-79841166D01*
X117739766Y-79717163D01*
X117532795Y-79628699D01*
X117532782Y-79628695D01*
X117313342Y-79578610D01*
X117313338Y-79578609D01*
X117313337Y-79578609D01*
X117313336Y-79578608D01*
X117313331Y-79578608D01*
X117088474Y-79568510D01*
X117088473Y-79568510D01*
X117088470Y-79568510D01*
X116865413Y-79598725D01*
X116865410Y-79598725D01*
X116865409Y-79598726D01*
X116651334Y-79668283D01*
X116453121Y-79774946D01*
X116453118Y-79774948D01*
X116277136Y-79915289D01*
X116205986Y-79996727D01*
X116129035Y-80084804D01*
X116095881Y-80140295D01*
X116013587Y-80278032D01*
X116013586Y-80278034D01*
X115934492Y-80488776D01*
X115894300Y-80710250D01*
X115894300Y-82539464D01*
X115874615Y-82606503D01*
X115857981Y-82627145D01*
X110446467Y-88038659D01*
X110385144Y-88072144D01*
X110315452Y-88067160D01*
X110271105Y-88038659D01*
X110237821Y-88005375D01*
X110237815Y-88005370D01*
X110056866Y-87878668D01*
X110056862Y-87878666D01*
X110056860Y-87878665D01*
X109856650Y-87785306D01*
X109856647Y-87785305D01*
X109856645Y-87785304D01*
X109643270Y-87728130D01*
X109643262Y-87728129D01*
X109423202Y-87708877D01*
X109423198Y-87708877D01*
X109203137Y-87728129D01*
X109203129Y-87728130D01*
X108989754Y-87785304D01*
X108989748Y-87785307D01*
X108789540Y-87878665D01*
X108789538Y-87878666D01*
X108608577Y-88005375D01*
X108452375Y-88161577D01*
X108325666Y-88342538D01*
X108325665Y-88342540D01*
X108232307Y-88542748D01*
X108232304Y-88542754D01*
X108175130Y-88756129D01*
X108175129Y-88756137D01*
X108155877Y-88976197D01*
X108155877Y-88976202D01*
X98394186Y-88976202D01*
X98390654Y-88960354D01*
X98389611Y-88954241D01*
X98375821Y-88838707D01*
X98368767Y-88756213D01*
X98364531Y-88706679D01*
X98364306Y-88701323D01*
X98364514Y-88583445D01*
X98364583Y-88580685D01*
X98370868Y-88451587D01*
X98371256Y-88447071D01*
X98385751Y-88329157D01*
X98386298Y-88325602D01*
X98409659Y-88199091D01*
X98410420Y-88195567D01*
X98438999Y-88080225D01*
X98440245Y-88075887D01*
X98480458Y-87953127D01*
X98481411Y-87950430D01*
X98523309Y-87840269D01*
X98525415Y-87835385D01*
X98583114Y-87716092D01*
X98637273Y-87613071D01*
X98640424Y-87607746D01*
X98716958Y-87492060D01*
X98779060Y-87402168D01*
X98783377Y-87396623D01*
X98897793Y-87265754D01*
X98945139Y-87212326D01*
X98947653Y-87209655D01*
X99922496Y-86234812D01*
X104192767Y-86234812D01*
X104233785Y-86467441D01*
X104314577Y-86689412D01*
X104314580Y-86689419D01*
X104432688Y-86893989D01*
X104520000Y-86998045D01*
X104520001Y-86998045D01*
X105165756Y-86352290D01*
X105189340Y-86432611D01*
X105267072Y-86553565D01*
X105375733Y-86647719D01*
X105506518Y-86707447D01*
X105516299Y-86708853D01*
X104873553Y-87351597D01*
X104873554Y-87351598D01*
X104977610Y-87438911D01*
X105182180Y-87557019D01*
X105182187Y-87557022D01*
X105404159Y-87637814D01*
X105636787Y-87678832D01*
X105636792Y-87678833D01*
X105873006Y-87678833D01*
X105873010Y-87678832D01*
X106105638Y-87637814D01*
X106327610Y-87557022D01*
X106327617Y-87557019D01*
X106519023Y-87446510D01*
X105781366Y-86708853D01*
X105791148Y-86707447D01*
X105921933Y-86647719D01*
X106030594Y-86553565D01*
X106108326Y-86432611D01*
X106131909Y-86352290D01*
X106872576Y-87092957D01*
X106983085Y-86901551D01*
X106983088Y-86901544D01*
X107063880Y-86679573D01*
X107104898Y-86446944D01*
X107104899Y-86446939D01*
X107104899Y-86238694D01*
X107124584Y-86171655D01*
X107177388Y-86125900D01*
X107246546Y-86115956D01*
X107257497Y-86118037D01*
X107264231Y-86119633D01*
X107264233Y-86119634D01*
X107351820Y-86140393D01*
X107434939Y-86160094D01*
X107434942Y-86160094D01*
X107434945Y-86160095D01*
X107434948Y-86160095D01*
X107610384Y-86160095D01*
X107610387Y-86160095D01*
X107754662Y-86125900D01*
X107781096Y-86119635D01*
X107781097Y-86119634D01*
X107781099Y-86119634D01*
X107937881Y-86040896D01*
X108017988Y-85975639D01*
X108937238Y-85056388D01*
X109002496Y-84976281D01*
X109081234Y-84819499D01*
X109121695Y-84648787D01*
X109121695Y-84473345D01*
X109081234Y-84302633D01*
X109081234Y-84302632D01*
X109002498Y-84145856D01*
X109002496Y-84145852D01*
X108937239Y-84065744D01*
X108703419Y-83831924D01*
X108669934Y-83770601D01*
X108667100Y-83744243D01*
X108667100Y-82190419D01*
X108686785Y-82123380D01*
X108703414Y-82102743D01*
X110099391Y-80706766D01*
X110160710Y-80673284D01*
X110230402Y-80678268D01*
X110286335Y-80720140D01*
X110294455Y-80732450D01*
X110376288Y-80874189D01*
X110463600Y-80978245D01*
X111109355Y-80332489D01*
X111132940Y-80412811D01*
X111210672Y-80533765D01*
X111319333Y-80627919D01*
X111450118Y-80687647D01*
X111459899Y-80689053D01*
X110817153Y-81331797D01*
X110817154Y-81331798D01*
X110921210Y-81419111D01*
X111125780Y-81537219D01*
X111125787Y-81537222D01*
X111347759Y-81618014D01*
X111580387Y-81659032D01*
X111580392Y-81659033D01*
X111816606Y-81659033D01*
X111816610Y-81659032D01*
X112049238Y-81618014D01*
X112271210Y-81537222D01*
X112271217Y-81537219D01*
X112462623Y-81426710D01*
X111724966Y-80689053D01*
X111734748Y-80687647D01*
X111865533Y-80627919D01*
X111974194Y-80533765D01*
X112051926Y-80412811D01*
X112075509Y-80332490D01*
X112816176Y-81073157D01*
X112926685Y-80881751D01*
X112926688Y-80881744D01*
X113007480Y-80659773D01*
X113048498Y-80427144D01*
X113048499Y-80427139D01*
X113048499Y-80218894D01*
X113068184Y-80151855D01*
X113120988Y-80106100D01*
X113190146Y-80096156D01*
X113201097Y-80098237D01*
X113207831Y-80099833D01*
X113207833Y-80099834D01*
X113284415Y-80117985D01*
X113378539Y-80140294D01*
X113378542Y-80140294D01*
X113378545Y-80140295D01*
X113378548Y-80140295D01*
X113553984Y-80140295D01*
X113553987Y-80140295D01*
X113698262Y-80106100D01*
X113724696Y-80099835D01*
X113724697Y-80099834D01*
X113724699Y-80099834D01*
X113881481Y-80021096D01*
X113961588Y-79955839D01*
X114880838Y-79036588D01*
X114946096Y-78956481D01*
X115024834Y-78799699D01*
X115065295Y-78628987D01*
X115065295Y-78453545D01*
X115024834Y-78282833D01*
X115024834Y-78282832D01*
X114946098Y-78126056D01*
X114946096Y-78126052D01*
X114880839Y-78045944D01*
X113749456Y-76914562D01*
X113709402Y-76881933D01*
X113669350Y-76849305D01*
X113669342Y-76849300D01*
X113512566Y-76770565D01*
X113341862Y-76730106D01*
X113341857Y-76730105D01*
X113341855Y-76730105D01*
X113166413Y-76730105D01*
X113166411Y-76730105D01*
X113166405Y-76730106D01*
X112995703Y-76770564D01*
X112838919Y-76849304D01*
X112758816Y-76914557D01*
X112758809Y-76914563D01*
X112663291Y-77010082D01*
X112601968Y-77043567D01*
X112575610Y-77046401D01*
X110814490Y-77046401D01*
X110807551Y-77046011D01*
X110784260Y-77043387D01*
X110768959Y-77041663D01*
X110768952Y-77041662D01*
X110723470Y-77044729D01*
X110700745Y-77046261D01*
X110696592Y-77046401D01*
X110684621Y-77046401D01*
X110642683Y-77050175D01*
X110544371Y-77056803D01*
X110544364Y-77056804D01*
X110540110Y-77057876D01*
X110520957Y-77061131D01*
X110516594Y-77061524D01*
X110516585Y-77061525D01*
X110421635Y-77087731D01*
X110326102Y-77111803D01*
X110322105Y-77113619D01*
X110303842Y-77120240D01*
X110299621Y-77121405D01*
X110299613Y-77121408D01*
X110210838Y-77164159D01*
X110121159Y-77204892D01*
X110117555Y-77207389D01*
X110100763Y-77217168D01*
X110096812Y-77219071D01*
X110096801Y-77219077D01*
X110017097Y-77276986D01*
X109936130Y-77333079D01*
X109933022Y-77336187D01*
X109918248Y-77348804D01*
X109914711Y-77351374D01*
X109914704Y-77351379D01*
X109846629Y-77422580D01*
X106584485Y-80684723D01*
X106579299Y-80689358D01*
X106548937Y-80713572D01*
X106548933Y-80713576D01*
X106503965Y-80765044D01*
X106501121Y-80768087D01*
X106492664Y-80776545D01*
X106492654Y-80776556D01*
X106465649Y-80808902D01*
X106400834Y-80883088D01*
X106400830Y-80883094D01*
X106398581Y-80886858D01*
X106387346Y-80902692D01*
X106384534Y-80906061D01*
X106384532Y-80906065D01*
X106335916Y-80991743D01*
X106307921Y-81038598D01*
X106285383Y-81076322D01*
X106283847Y-81080416D01*
X106275608Y-81098029D01*
X106273450Y-81101831D01*
X106273446Y-81101841D01*
X106240907Y-81194830D01*
X106206294Y-81287054D01*
X106206289Y-81287072D01*
X106205509Y-81291372D01*
X106200552Y-81310153D01*
X106199103Y-81314293D01*
X106199102Y-81314299D01*
X106183689Y-81411611D01*
X106166100Y-81508532D01*
X106166100Y-81512911D01*
X106164573Y-81532313D01*
X106163889Y-81536624D01*
X106166100Y-81635105D01*
X106166100Y-83532111D01*
X106146415Y-83599150D01*
X106129781Y-83619792D01*
X105895969Y-83853604D01*
X105895950Y-83853625D01*
X105830709Y-83933711D01*
X105830705Y-83933717D01*
X105751964Y-84090503D01*
X105711506Y-84261205D01*
X105711505Y-84261216D01*
X105711505Y-84436651D01*
X105711506Y-84436662D01*
X105753562Y-84614104D01*
X105749869Y-84683876D01*
X105709041Y-84740575D01*
X105644040Y-84766200D01*
X105632905Y-84766701D01*
X105424655Y-84766701D01*
X105192027Y-84807719D01*
X104970055Y-84888511D01*
X104970051Y-84888513D01*
X104778641Y-84999022D01*
X105516299Y-85736680D01*
X105506518Y-85738087D01*
X105375733Y-85797815D01*
X105267072Y-85891969D01*
X105189340Y-86012923D01*
X105165756Y-86093243D01*
X104425088Y-85352575D01*
X104314579Y-85543985D01*
X104314577Y-85543989D01*
X104233785Y-85765960D01*
X104192767Y-85998589D01*
X104192767Y-86234812D01*
X99922496Y-86234812D01*
X112024773Y-74132533D01*
X112028667Y-74128960D01*
X112058241Y-74104065D01*
X112158289Y-74021895D01*
X112174442Y-74010651D01*
X112232959Y-73976481D01*
X112237457Y-73974070D01*
X112322624Y-73928439D01*
X112330188Y-73925018D01*
X112402686Y-73897946D01*
X112406167Y-73896766D01*
X112497143Y-73868997D01*
X112503743Y-73867373D01*
X112581497Y-73852722D01*
X112586655Y-73851977D01*
X112680075Y-73842541D01*
X112685284Y-73842239D01*
X112764408Y-73841045D01*
X112771204Y-73841316D01*
X112865865Y-73850330D01*
X112869562Y-73850797D01*
X112945980Y-73862821D01*
X112954074Y-73864659D01*
X113051529Y-73893798D01*
X113115721Y-73915586D01*
X113133790Y-73923369D01*
X113246724Y-73983047D01*
X113282249Y-74002379D01*
X113286765Y-74005093D01*
X113434584Y-74102776D01*
X113436977Y-74104357D01*
X113623630Y-74204580D01*
X113758976Y-74277254D01*
X114095401Y-74420074D01*
X114443446Y-74531627D01*
X114800211Y-74610983D01*
X114901558Y-74623982D01*
X115162708Y-74657478D01*
X115162717Y-74657478D01*
X115162726Y-74657480D01*
X115162730Y-74657480D01*
X115162739Y-74657481D01*
X115392737Y-74665826D01*
X115527971Y-74670733D01*
X115892903Y-74650629D01*
X116254481Y-74597338D01*
X116254486Y-74597336D01*
X116254491Y-74597336D01*
X116525784Y-74531626D01*
X116609695Y-74511302D01*
X116609701Y-74511299D01*
X116609708Y-74511298D01*
X116955575Y-74393242D01*
X116955577Y-74393241D01*
X116955586Y-74393238D01*
X117289271Y-74244130D01*
X117607972Y-74065220D01*
X117909034Y-73857998D01*
X118189949Y-73624191D01*
X118307188Y-73506969D01*
X118307205Y-73506957D01*
X118319107Y-73495054D01*
X118319109Y-73495054D01*
X125241737Y-66572424D01*
X125244660Y-66569685D01*
X125306325Y-66515607D01*
X125443958Y-66396348D01*
X125450049Y-66391703D01*
X125548789Y-66325726D01*
X125672866Y-66245988D01*
X125678916Y-66242566D01*
X125791756Y-66186920D01*
X125920150Y-66128284D01*
X125925939Y-66125987D01*
X126047921Y-66084579D01*
X126181219Y-66045440D01*
X126186554Y-66044130D01*
X126312857Y-66019007D01*
X126316026Y-66018463D01*
X126451174Y-65999032D01*
X126455912Y-65998536D01*
X126517709Y-65994486D01*
X126584919Y-65990082D01*
X126588975Y-65989949D01*
X126725081Y-65989949D01*
X126729137Y-65990082D01*
G37*
%TD.AperFunction*%
%TD*%
M02*
