%TF.GenerationSoftware,KiCad,Pcbnew,7.0.9*%
%TF.CreationDate,2024-07-26T16:53:17+09:00*%
%TF.ProjectId,IR_Borred,49525f42-6f72-4726-9564-2e6b69636164,rev?*%
%TF.SameCoordinates,Original*%
%TF.FileFunction,Soldermask,Bot*%
%TF.FilePolarity,Negative*%
%FSLAX46Y46*%
G04 Gerber Fmt 4.6, Leading zero omitted, Abs format (unit mm)*
G04 Created by KiCad (PCBNEW 7.0.9) date 2024-07-26 16:53:17*
%MOMM*%
%LPD*%
G01*
G04 APERTURE LIST*
G04 Aperture macros list*
%AMHorizOval*
0 Thick line with rounded ends*
0 $1 width*
0 $2 $3 position (X,Y) of the first rounded end (center of the circle)*
0 $4 $5 position (X,Y) of the second rounded end (center of the circle)*
0 Add line between two ends*
20,1,$1,$2,$3,$4,$5,0*
0 Add two circle primitives to create the rounded ends*
1,1,$1,$2,$3*
1,1,$1,$4,$5*%
%AMRotRect*
0 Rectangle, with rotation*
0 The origin of the aperture is its center*
0 $1 length*
0 $2 width*
0 $3 Rotation angle, in degrees counterclockwise*
0 Add horizontal line*
21,1,$1,$2,0,0,$3*%
G04 Aperture macros list end*
%ADD10R,1.700000X1.700000*%
%ADD11O,1.700000X1.700000*%
%ADD12C,3.200000*%
%ADD13C,1.600000*%
%ADD14C,1.400000*%
%ADD15HorizOval,1.400000X0.000000X0.000000X0.000000X0.000000X0*%
%ADD16HorizOval,1.400000X0.000000X0.000000X0.000000X0.000000X0*%
%ADD17HorizOval,1.400000X0.000000X0.000000X0.000000X0.000000X0*%
%ADD18HorizOval,1.400000X0.000000X0.000000X0.000000X0.000000X0*%
%ADD19RotRect,1.700000X1.700000X135.000000*%
%ADD20HorizOval,1.700000X0.000000X0.000000X0.000000X0.000000X0*%
%ADD21RotRect,1.700000X1.700000X45.000000*%
%ADD22HorizOval,1.700000X0.000000X0.000000X0.000000X0.000000X0*%
%ADD23RotRect,1.700000X1.700000X292.500000*%
%ADD24HorizOval,1.700000X0.000000X0.000000X0.000000X0.000000X0*%
%ADD25C,2.000000*%
%ADD26HorizOval,1.400000X0.000000X0.000000X0.000000X0.000000X0*%
%ADD27RotRect,1.700000X1.700000X22.500000*%
%ADD28HorizOval,1.700000X0.000000X0.000000X0.000000X0.000000X0*%
%ADD29RotRect,1.700000X1.700000X157.500000*%
%ADD30HorizOval,1.700000X0.000000X0.000000X0.000000X0.000000X0*%
%ADD31HorizOval,1.400000X0.000000X0.000000X0.000000X0.000000X0*%
%ADD32RotRect,1.700000X1.700000X202.500000*%
%ADD33HorizOval,1.700000X0.000000X0.000000X0.000000X0.000000X0*%
%ADD34HorizOval,1.400000X0.000000X0.000000X0.000000X0.000000X0*%
%ADD35HorizOval,1.400000X0.000000X0.000000X0.000000X0.000000X0*%
%ADD36HorizOval,1.400000X0.000000X0.000000X0.000000X0.000000X0*%
%ADD37O,1.400000X1.400000*%
%ADD38RotRect,1.700000X1.700000X315.000000*%
%ADD39HorizOval,1.700000X0.000000X0.000000X0.000000X0.000000X0*%
%ADD40RotRect,1.700000X1.700000X67.500000*%
%ADD41HorizOval,1.700000X0.000000X0.000000X0.000000X0.000000X0*%
%ADD42RotRect,1.700000X1.700000X112.500000*%
%ADD43HorizOval,1.700000X0.000000X0.000000X0.000000X0.000000X0*%
%ADD44RotRect,1.700000X1.700000X337.500000*%
%ADD45HorizOval,1.700000X0.000000X0.000000X0.000000X0.000000X0*%
%ADD46HorizOval,1.400000X0.000000X0.000000X0.000000X0.000000X0*%
%ADD47HorizOval,1.400000X0.000000X0.000000X0.000000X0.000000X0*%
%ADD48HorizOval,1.400000X0.000000X0.000000X0.000000X0.000000X0*%
%ADD49C,1.700000*%
%ADD50RotRect,1.700000X1.700000X225.000000*%
%ADD51HorizOval,1.700000X0.000000X0.000000X0.000000X0.000000X0*%
%ADD52RotRect,1.700000X1.700000X247.500000*%
%ADD53HorizOval,1.700000X0.000000X0.000000X0.000000X0.000000X0*%
G04 APERTURE END LIST*
D10*
%TO.C,U17*%
X146305699Y-150285716D03*
D11*
X143765699Y-150285716D03*
X141225699Y-150285716D03*
%TD*%
D12*
%TO.C,REF\u002A\u002A*%
X178240000Y-118330000D03*
%TD*%
D13*
%TO.C,C4*%
X114545975Y-132673010D03*
X112778208Y-134440777D03*
%TD*%
%TO.C,C9*%
X185040399Y-71910620D03*
X187350098Y-70953911D03*
%TD*%
D14*
%TO.C,R6*%
X108662859Y-63842233D03*
D15*
X105070757Y-60250131D03*
%TD*%
D14*
%TO.C,R9*%
X186222619Y-74895407D03*
D16*
X190915927Y-72951375D03*
%TD*%
D14*
%TO.C,R11*%
X159368090Y-50833441D03*
D17*
X161312122Y-46140133D03*
%TD*%
D13*
%TO.C,C5*%
X98028116Y-82609129D03*
X95718417Y-81652420D03*
%TD*%
D10*
%TO.C,U5*%
X88744983Y-97836415D03*
D11*
X88744983Y-95296415D03*
X88744983Y-92756415D03*
%TD*%
D14*
%TO.C,R4*%
X112311516Y-130367840D03*
D18*
X108719414Y-133959942D03*
%TD*%
D19*
%TO.C,U7*%
X103048418Y-58193452D03*
D20*
X104844469Y-56397401D03*
X106640520Y-54601350D03*
%TD*%
D10*
%TO.C,U13*%
X198755000Y-92725000D03*
D11*
X198755000Y-95265000D03*
X198755000Y-97805000D03*
%TD*%
D10*
%TO.C,J1*%
X147570000Y-102400000D03*
D11*
X145030000Y-102400000D03*
X142490000Y-102400000D03*
X139950000Y-102400000D03*
%TD*%
D21*
%TO.C,U11*%
X180837247Y-54579135D03*
D22*
X182633298Y-56375186D03*
X184429349Y-58171237D03*
%TD*%
D13*
%TO.C,C14*%
X181142292Y-124484725D03*
X182910059Y-126252492D03*
%TD*%
D23*
%TO.C,U16*%
X167160663Y-145120682D03*
D24*
X164814009Y-146092698D03*
X162467355Y-147064714D03*
%TD*%
D25*
%TO.C,SW1*%
X133340000Y-138250000D03*
X133340000Y-131750000D03*
X137840000Y-138250000D03*
X137840000Y-131750000D03*
%TD*%
D13*
%TO.C,C1*%
X102459584Y-118650797D03*
X100149885Y-119607506D03*
%TD*%
D10*
%TO.C,SW4*%
X159855000Y-119180000D03*
D11*
X162395000Y-119180000D03*
%TD*%
D10*
%TO.C,U9*%
X141194283Y-40275699D03*
D11*
X143734283Y-40275699D03*
X146274283Y-40275699D03*
%TD*%
D14*
%TO.C,R7*%
X123364691Y-52808080D03*
D26*
X121420659Y-48114772D03*
%TD*%
D27*
%TO.C,U12*%
X193589965Y-71870036D03*
D28*
X194561981Y-74216690D03*
X195533997Y-76563344D03*
%TD*%
D12*
%TO.C,REF\u002A\u002A*%
X109260000Y-118250000D03*
%TD*%
D29*
%TO.C,U6*%
X91953963Y-76592368D03*
D30*
X92925979Y-74245714D03*
X93897995Y-71899060D03*
%TD*%
D12*
%TO.C,REF\u002A\u002A*%
X169120000Y-80640000D03*
%TD*%
%TO.C,REF\u002A\u002A*%
X169100000Y-109930000D03*
%TD*%
D13*
%TO.C,C6*%
X106357690Y-66076691D03*
X104589923Y-64308924D03*
%TD*%
%TO.C,C15*%
X167120079Y-136571116D03*
X168076788Y-138880815D03*
%TD*%
%TO.C,C12*%
X172954008Y-57888407D03*
X174721775Y-56120640D03*
%TD*%
%TO.C,C10*%
X190839999Y-86560000D03*
X193339999Y-86560000D03*
%TD*%
D14*
%TO.C,R14*%
X178837124Y-126719183D03*
D31*
X182429226Y-130311285D03*
%TD*%
D32*
%TO.C,U4*%
X94187016Y-118414381D03*
D33*
X93215000Y-116067727D03*
X92242984Y-113721073D03*
%TD*%
D14*
%TO.C,R13*%
X188197259Y-110898807D03*
D34*
X192890567Y-112842839D03*
%TD*%
D14*
%TO.C,R1*%
X101277363Y-115666008D03*
D35*
X96584055Y-117610040D03*
%TD*%
D14*
%TO.C,R3*%
X128131892Y-139727975D03*
D36*
X126187860Y-144421283D03*
%TD*%
D13*
%TO.C,C7*%
X120379903Y-53990300D03*
X119423194Y-51680601D03*
%TD*%
D12*
%TO.C,REF\u002A\u002A*%
X96290000Y-95260000D03*
%TD*%
D14*
%TO.C,R8*%
X138640000Y-48620000D03*
D37*
X138640000Y-43540000D03*
%TD*%
D38*
%TO.C,U15*%
X184451564Y-132367964D03*
D39*
X182655513Y-134164015D03*
X180859462Y-135960066D03*
%TD*%
D40*
%TO.C,U10*%
X162438330Y-43484680D03*
D41*
X164784984Y-44456696D03*
X167131638Y-45428712D03*
%TD*%
D13*
%TO.C,C16*%
X149539984Y-142371416D03*
X149539984Y-144871416D03*
%TD*%
D10*
%TO.C,J2*%
X162560000Y-87630000D03*
D11*
X160020000Y-87630000D03*
X162560000Y-90170000D03*
X160020000Y-90170000D03*
X162560000Y-92710000D03*
X160020000Y-92710000D03*
X162560000Y-95250000D03*
X160020000Y-95250000D03*
X162560000Y-97790000D03*
X160020000Y-97790000D03*
X162560000Y-100330000D03*
X160020000Y-100330000D03*
X162560000Y-102870000D03*
X160020000Y-102870000D03*
%TD*%
D42*
%TO.C,U8*%
X120325460Y-45446472D03*
D43*
X122672114Y-44474456D03*
X125018768Y-43502440D03*
%TD*%
D44*
%TO.C,U14*%
X195546020Y-113969047D03*
D45*
X194574004Y-116315701D03*
X193601988Y-118662355D03*
%TD*%
D12*
%TO.C,REF\u002A\u002A*%
X118390000Y-80690000D03*
%TD*%
D13*
%TO.C,C3*%
X131078413Y-141002584D03*
X130121704Y-143312283D03*
%TD*%
D14*
%TO.C,R10*%
X190790000Y-89770000D03*
D37*
X195870000Y-89770000D03*
%TD*%
D12*
%TO.C,REF\u002A\u002A*%
X118440000Y-109920000D03*
%TD*%
D14*
%TO.C,R12*%
X175188466Y-60193575D03*
D46*
X178780568Y-56601473D03*
%TD*%
D14*
%TO.C,R16*%
X146329982Y-142321416D03*
D37*
X146329982Y-147401416D03*
%TD*%
D12*
%TO.C,REF\u002A\u002A*%
X191260000Y-95320000D03*
%TD*%
D14*
%TO.C,R15*%
X164135292Y-137753336D03*
D47*
X166079324Y-142446644D03*
%TD*%
D14*
%TO.C,R5*%
X99302724Y-79662609D03*
D48*
X94609416Y-77718577D03*
%TD*%
D13*
%TO.C,C2*%
X96659283Y-103980001D03*
X94159283Y-103980001D03*
%TD*%
D49*
%TO.C,U1*%
X151560000Y-81230000D03*
X151560000Y-78690000D03*
X151560000Y-76150000D03*
X151560000Y-73610000D03*
X151560000Y-71070000D03*
X151560000Y-68530000D03*
X151560000Y-65990000D03*
X136320000Y-65990000D03*
X136320000Y-68530000D03*
X136320000Y-71070000D03*
X136320000Y-73610000D03*
X136320000Y-76150000D03*
X136320000Y-78690000D03*
X136320000Y-81230000D03*
%TD*%
D13*
%TO.C,C13*%
X189471866Y-107952288D03*
X191781565Y-108908997D03*
%TD*%
D25*
%TO.C,SW2*%
X141560000Y-138260000D03*
X141560000Y-131760000D03*
X146060000Y-138260000D03*
X146060000Y-131760000D03*
%TD*%
D13*
%TO.C,C11*%
X155985646Y-50684850D03*
X156942355Y-48375151D03*
%TD*%
D14*
%TO.C,R2*%
X96709283Y-100770000D03*
D37*
X91629283Y-100770000D03*
%TD*%
D13*
%TO.C,C8*%
X135430000Y-48570000D03*
X135430000Y-46070000D03*
%TD*%
D50*
%TO.C,U3*%
X106662735Y-135982280D03*
D51*
X104866684Y-134186229D03*
X103070633Y-132390178D03*
%TD*%
D49*
%TO.C,U19*%
X159740000Y-78266000D03*
X159740000Y-75726000D03*
X159740000Y-73186000D03*
X159740000Y-70646000D03*
X159740000Y-68106000D03*
X159740000Y-65566000D03*
X159740000Y-63026000D03*
X159740000Y-60486000D03*
X127740000Y-78266000D03*
X127740000Y-75726000D03*
X127740000Y-73186000D03*
X127740000Y-70646000D03*
X127740000Y-68106000D03*
X127740000Y-65566000D03*
X127740000Y-63026000D03*
X127740000Y-60486000D03*
%TD*%
D25*
%TO.C,SW3*%
X150150000Y-138250000D03*
X150150000Y-131750000D03*
X154650000Y-138250000D03*
X154650000Y-131750000D03*
%TD*%
D52*
%TO.C,U2*%
X125075510Y-147082477D03*
D53*
X122728856Y-146110461D03*
X120382202Y-145138445D03*
%TD*%
D12*
%TO.C,REF\u002A\u002A*%
X143830000Y-50290000D03*
%TD*%
D25*
%TO.C,Camera_RST1*%
X124610000Y-124230000D03*
X124610000Y-117730000D03*
X129110000Y-124230000D03*
X129110000Y-117730000D03*
%TD*%
M02*
