0
SECTION
2
HEADER
9
$INSUNITS
70
4
9
$ACADVER
1
AC1014
9
$HANDSEED
5
FFFF
0
ENDSEC
0
SECTION
2
TABLES
0
TABLE
2
VPORT
5
8
100
AcDbSymbolTable
0
ENDTAB
0
TABLE
2
LTYPE
5
5
100
AcDbSymbolTable
0
LTYPE
5
14
100
AcDbSymbolTableRecord
100
AcDbLinetypeTableRecord
2
BYBLOCK
70
0
0
LTYPE
5
15
100
AcDbSymbolTableRecord
100
AcDbLinetypeTableRecord
2
BYLAYER
70
0
0
LTYPE
5
16
100
AcDbSymbolTableRecord
100
AcDbLinetypeTableRecord
2
DASHED
70
0
3
Dashed __ __ __ __ __ __ __ __ __ __ __ __ __ _
72
65
73
2
40
0.75
49
0.5
74
0
49
-0.25
74
0
0
ENDTAB
0
TABLE
2
LAYER
5
2
100
AcDbSymbolTable
70
2
0
LAYER
5
50
100
AcDbSymbolTableRecord
100
AcDbLayerTableRecord
2
0
70
0
62
7
6
CONTINUOUS
0
ENDTAB
0
TABLE
2
STYLE
5
3
100
AcDbSymbolTable
70
1
0
STYLE
5
11
100
AcDbSymbolTableRecord
100
AcDbTextStyleTableRecord
2
STANDARD
70
0
0
ENDTAB
0
TABLE
2
VIEW
5
6
100
AcDbSymbolTable
70
0
0
ENDTAB
0
TABLE
2
UCS
5
7
100
AcDbSymbolTable
70
0
0
ENDTAB
0
TABLE
2
APPID
5
9
100
AcDbSymbolTable
70
2
0
APPID
5
12
100
AcDbSymbolTableRecord
100
AcDbRegAppTableRecord
2
ACAD
70
0
0
ENDTAB
0
TABLE
2
DIMSTYLE
5
A
100
AcDbSymbolTable
70
1
0
ENDTAB
0
TABLE
2
BLOCK_RECORD
5
1
100
AcDbSymbolTable
70
1
0
BLOCK_RECORD
5
1F
100
AcDbSymbolTableRecord
100
AcDbBlockTableRecord
2
*MODEL_SPACE
0
BLOCK_RECORD
5
1B
100
AcDbSymbolTableRecord
100
AcDbBlockTableRecord
2
*PAPER_SPACE
0
ENDTAB
0
ENDSEC
0
SECTION
2
BLOCKS
0
BLOCK
5
20
100
AcDbEntity
100
AcDbBlockBegin
2
*MODEL_SPACE
0
ENDBLK
5
21
100
AcDbEntity
100
AcDbBlockEnd
0
BLOCK
5
1C
100
AcDbEntity
100
AcDbBlockBegin
2
*PAPER_SPACE
0
ENDBLK
5
1D
100
AcDbEntity
100
AcDbBlockEnd
0
ENDSEC
0
SECTION
2
ENTITIES
0
LWPOLYLINE
5
100
100
AcDbEntity
8
0
100
AcDbPolyline
90
14
70
1
43
0.0
10
6.6796968218371475
20
-60.282408096343893
42
0.19828759033362581
10
7.990921116100953
20
-61.063594571891727
42
-0.1522998070323737
10
37.504580067994283
20
-75.250577012298507
42
-0.42451390773539027
10
37.55499071880395
20
-78.127678683315281
10
34.724684468167901
20
-80.957984933951352
42
-0.40315576427757821
10
31.950859848415412
20
-81.010556213554651
42
0.39218212821199155
10
-31.950859848415405
20
-81.010556213554651
42
-0.40315576427757582
10
-34.724684468167872
20
-80.957984933951337
10
-37.554990718803921
20
-78.127678683315281
42
-0.42451390773539222
10
-37.504580067994311
20
-75.250577012298464
42
-0.1522998070323737
10
-7.9909211161009566
20
-61.063594571891727
42
0.19828759033362456
10
-6.67969682183716
20
-60.282408096343886
42
-0.23646502255696192
10
-5.0778935778969592
20
-59.47999999999999
10
5.0778935778969538
20
-59.479999999999997
42
-0.23646502255696239
0
LWPOLYLINE
5
101
100
AcDbEntity
8
0
100
AcDbPolyline
90
14
70
1
43
0.0
10
80.891921414564948
20
-35.153377230699391
42
0.27778901052875499
10
72.882900180605773
20
-37.142914972020996
10
66.839268491658387
20
-43.186546660968411
42
-0.41421356237309503
10
62.596627804539089
20
-43.186546660968411
10
58.984572077006732
20
-39.574490933436046
42
-0.38324739595236706
10
58.627619258777415
20
-32.900717536606848
42
0.38324739595236823
10
58.449142849662756
20
-29.563830838192246
10
55.678985710256725
20
-26.793673698786215
42
-0.31034766920309981
10
55.265632074402227
20
-24.567057443186073
42
0.064476777575967731
10
59.700334865795341
20
-9.6798975672215306
42
-0.36787947003554594
10
61.674552288606037
20
-8.0000000000000089
10
87.429973597395488
20
-8.0000000000000071
42
-0.44797621669333976
10
89.417018415543083
20
-10.227272723116464
42
-0.0684767206422046
10
83.331780471376945
20
-33.997274201747658
42
-0.38839963703995617
0
LWPOLYLINE
5
102
100
AcDbEntity
8
0
100
AcDbPolyline
90
14
70
1
43
0.0
10
-80.891921414564933
20
35.153377230699377
42
0.2777890105287556
10
-72.882900180605773
20
37.142914972020989
10
-66.839268491658387
20
43.186546660968403
42
-0.41421356237309503
10
-62.596627804539089
20
43.186546660968403
10
-58.984572077006739
20
39.574490933436053
42
-0.38324739595236812
10
-58.627619258777422
20
32.900717536606841
42
0.38324739595236756
10
-58.449142849662756
20
29.563830838192239
10
-55.678985710256725
20
26.793673698786211
42
-0.31034766920309942
10
-55.265632074402227
20
24.567057443186066
42
0.064476777575967953
10
-59.700334865795341
20
9.6798975672215253
42
-0.36787947003554655
10
-61.674552288606037
20
8
10
-87.429973597395488
20
8.0000000000000053
42
-0.44797621669333954
10
-89.417018415543112
20
10.227272723116418
42
-0.068476720642204711
10
-83.331780471376945
20
33.997274201747651
42
-0.38839963703996172
0
LWPOLYLINE
5
103
100
AcDbEntity
8
0
100
AcDbPolyline
90
16
70
1
43
0.0
10
-87.429973597395488
20
-4.9999999999999991
42
0.44797621669334042
10
-92.397585642764511
20
-10.568181807791031
42
0.059296923037246013
10
-87.336359294186309
20
-31.958733463191624
42
-0.29194185310140264
10
-87.800346974455522
20
-34.060231604277874
10
-92.448256520844168
20
-38.708141150666549
42
-0.53918108930867814
10
-95.721132827526603
20
-38.032421192136162
42
-0.19138589008116672
10
-95.721132827526617
20
38.032421192136084
42
-0.53918108930868502
10
-92.448256520844183
20
38.708141150666549
10
-87.800346974455522
20
34.060231604277867
42
-0.29194185310139614
10
-87.336359294186309
20
31.958733463191678
42
0.059296923037245777
10
-92.397585642764511
20
10.568181807791079
42
0.44797621669334264
10
-87.429973597395488
20
4.9999999999999929
10
-62.272965747505744
20
5.0000000000000018
42
-0.4142135623730952
10
-60.272965747505737
20
2.9999999999999991
10
-60.272965747505729
20
-3.0000000000000004
42
-0.41421356237309503
10
-62.272965747505737
20
-5.0000000000000009
0
LWPOLYLINE
5
104
100
AcDbEntity
8
0
100
AcDbPolyline
90
36
70
1
43
0.0
10
-43.481728536008468
20
-98.86020070544501
42
0.41921643450507545
10
-41.494660296459742
20
-98.0675571248198
42
-0.66484595675009162
10
41.494660296459678
20
-98.067557124819842
42
0.41921643450507146
10
43.481728536008447
20
-98.860200705445024
42
0.017834044697978099
10
50.416746363863815
20
-95.509955952674531
42
0.50498199825253909
10
51.137601530649484
20
-90.735581277096145
10
40.870771952582459
20
-80.468751699029113
42
-0.41421356237309387
10
40.870771952582466
20
-76.226111011909822
10
76.226111011909836
20
-40.870771952582466
42
-0.4142135623730932
10
80.468751699029113
20
-40.870771952582452
10
90.735581277096145
20
-51.137601530649476
42
0.50498199825253287
10
95.509955952674503
20
-50.416746363863851
42
0.24773601924216451
10
95.509955952674517
20
50.416746363863787
42
0.50498199825253953
10
90.735581277096117
20
51.137601530649491
10
80.468751699029113
20
40.870771952582459
42
-0.4142135623730957
10
76.226111011909822
20
40.870771952582459
10
40.870771952582466
20
76.226111011909808
42
-0.41421356237309626
10
40.870771952582459
20
80.468751699029113
10
51.137601530649484
20
90.735581277096145
42
0.50498199825253898
10
50.416746363863822
20
95.509955952674517
42
0.24773601924216446
10
-50.416746363863815
20
95.509955952674517
42
0.5049819982525402
10
-51.137601530649455
20
90.735581277096145
10
-40.870771952582459
20
80.468751699029113
42
-0.41421356237309387
10
-40.870771952582466
20
76.226111011909822
10
-76.226111011909836
20
40.870771952582466
42
-0.4142135623730932
10
-80.468751699029113
20
40.870771952582452
10
-90.735581277096145
20
51.137601530649476
42
0.50498199825253953
10
-95.509955952674517
20
50.416746363863822
42
0.24773601924216446
10
-95.509955952674517
20
-50.416746363863815
42
0.50498199825254186
10
-90.735581277096145
20
-51.137601530649476
10
-80.468751699029113
20
-40.870771952582459
42
-0.4142135623730957
10
-76.226111011909822
20
-40.870771952582459
10
-40.870771952582466
20
-76.226111011909808
42
-0.41421356237309626
10
-40.870771952582459
20
-80.468751699029113
10
-51.137601530649484
20
-90.735581277096145
42
0.50498199825254186
10
-50.416746363863822
20
-95.509955952674517
42
0.017834044697978099
0
CIRCLE
5
105
100
AcDbEntity
8
0
100
AcDbCircle
10
37.931404238844848
20
-81.286799069207092
30
0
40
1.4499999999999957
210
0
220
-0
230
1
0
CIRCLE
5
106
100
AcDbEntity
8
0
100
AcDbCircle
10
-37.931404238844863
20
-81.286799069207092
30
0
40
1.4500000000000002
210
0
220
-0
230
1
0
CIRCLE
5
107
100
AcDbEntity
8
0
100
AcDbCircle
10
-31.331597791158604
20
-56.681375896696409
30
0
40
1.6499999999999959
210
0
220
0
230
1
0
CIRCLE
5
108
100
AcDbEntity
8
0
100
AcDbCircle
10
56.681375896696395
20
-31.331597791158615
30
0
40
1.6500000000000004
210
0
220
0
230
1
0
CIRCLE
5
109
100
AcDbEntity
8
0
100
AcDbCircle
10
-39.471340224780931
20
89.638134806954199
30
0
40
1.4500000000000002
210
0
220
0
230
1
0
CIRCLE
5
110
100
AcDbEntity
8
0
100
AcDbCircle
10
89.638134806954213
20
-39.471340224780953
30
0
40
1.4500000000000135
210
0
220
0
230
1
0
CIRCLE
5
111
100
AcDbEntity
8
0
100
AcDbCircle
10
-89.638134806954199
20
-39.471340224780931
30
0
40
1.4499999999999957
210
0
220
0
230
1
0
CIRCLE
5
112
100
AcDbEntity
8
0
100
AcDbCircle
10
-56.681375896696395
20
-31.331597791158607
30
0
40
1.6500000000000004
210
0
220
0
230
1
0
CIRCLE
5
113
100
AcDbEntity
8
0
100
AcDbCircle
10
-31.331597791158593
20
56.681375896696402
30
0
40
1.6499999999999959
210
0
220
0
230
1
0
CIRCLE
5
114
100
AcDbEntity
8
0
100
AcDbCircle
10
31.331597791158629
20
-56.681375896696395
30
0
40
1.6499999999999959
210
0
220
0
230
1
0
CIRCLE
5
115
100
AcDbEntity
8
0
100
AcDbCircle
10
56.681375896696395
20
31.3315977911586
30
0
40
1.6500000000000004
210
0
220
0
230
1
0
CIRCLE
5
116
100
AcDbEntity
8
0
100
AcDbCircle
10
39.471340224780924
20
89.638134806954184
30
0
40
1.4499999999999957
210
0
220
0
230
1
0
CIRCLE
5
117
100
AcDbEntity
8
0
100
AcDbCircle
10
89.638134806954199
20
39.47134022478091
30
0
40
1.4500000000000135
210
0
220
0
230
1
0
CIRCLE
5
118
100
AcDbEntity
8
0
100
AcDbCircle
10
-89.638134806954213
20
39.471340224780946
30
0
40
1.4499999999999957
210
0
220
0
230
1
0
CIRCLE
5
119
100
AcDbEntity
8
0
100
AcDbCircle
10
-56.681375896696395
20
31.331597791158607
30
0
40
1.6500000000000004
210
0
220
0
230
1
0
CIRCLE
5
120
100
AcDbEntity
8
0
100
AcDbCircle
10
31.331597791158622
20
56.68137589669638
30
0
40
1.6499999999999959
210
0
220
0
230
1
0
CIRCLE
5
121
100
AcDbEntity
8
0
100
AcDbCircle
10
-48.181797401335459
20
-92.729524616088042
30
0
40
1.6500000000000004
210
0
220
-0
230
1
0
CIRCLE
5
122
100
AcDbEntity
8
0
100
AcDbCircle
10
55.172006602080394
20
39.297459364442396
30
0
40
1.6500000000000004
210
0
220
-0
230
1
0
CIRCLE
5
123
100
AcDbEntity
8
0
100
AcDbCircle
10
-42.765818126162387
20
42.765818126162401
30
0
40
1.4499999999999957
210
0
220
-0
230
1
0
CIRCLE
5
124
100
AcDbEntity
8
0
100
AcDbCircle
10
42.765818126162394
20
42.765818126162415
30
0
40
1.4499999999999957
210
0
220
-0
230
1
0
CIRCLE
5
125
100
AcDbEntity
8
0
100
AcDbCircle
10
-55.172006602080359
20
39.29745936444241
30
0
40
1.6500000000000004
210
0
220
-0
230
1
0
CIRCLE
5
126
100
AcDbEntity
8
0
100
AcDbCircle
10
48.181797401335452
20
92.729524616088042
30
0
40
1.6500000000000004
210
0
220
-0
230
1
0
LWPOLYLINE
5
127
100
AcDbEntity
8
0
100
AcDbPolyline
90
11
70
1
43
0.0
10
-43.186546660968403
20
-62.596627804539082
10
-39.574490933436067
20
-58.984572077006746
42
-0.38324739595236867
10
-32.900717536606841
20
-58.627619258777429
42
0.38324739595236901
10
-29.563830838192231
20
-58.449142849662778
10
-26.793673698786208
20
-55.678985710256725
42
-0.31034766920309981
10
-24.567057443186052
20
-55.265632074402227
42
0.027985540377970991
10
-18.241335270429509
20
-57.663542100288851
42
-0.72533731694564629
10
-18.205755587698647
20
-61.465645764473102
42
0.086659546151041753
10
-35.435047274566337
20
-70.832968467665751
42
-0.3810531858279948
10
-39.421370106261072
20
-70.604445046365726
10
-43.186546660968403
20
-66.839268491658373
42
-0.41421356237309503
0
LWPOLYLINE
5
128
100
AcDbEntity
8
0
100
AcDbPolyline
90
12
70
1
43
0.0
10
50.87372780323517
20
-38.534714471529924
10
59.061093898606373
20
-46.722080566901113
42
-0.41421356237309503
10
59.061093898606373
20
-50.964721254020411
10
50.964721254020411
20
-59.061093898606359
42
-0.41421356237309503
10
46.722080566901113
20
-59.061093898606359
10
38.534714471529924
20
-50.873727803235163
42
-0.44091861261891724
10
38.734672111162851
20
-46.448418449293897
42
0.0016058714861443475
10
39.032231451113645
20
-46.198650499194194
42
-0.25687708765921957
10
41.867086084548575
20
-45.628034176249571
42
0.60600588550402146
10
45.628034176249585
20
-41.867086084548575
42
-0.25687708765921863
10
46.198650499194201
20
-39.03223145111366
42
0.0016058714861443475
10
46.448418449293889
20
-38.734672111162851
42
-0.44091861261891896
0
CIRCLE
5
129
100
AcDbEntity
8
0
100
AcDbCircle
10
39.297459364442396
20
55.172006602080387
30
0
40
1.6500000000000004
210
0
220
-0
230
1
0
CIRCLE
5
130
100
AcDbEntity
8
0
100
AcDbCircle
10
92.729524616088028
20
-48.181797401335473
30
0
40
1.6499999999999915
210
0
220
-0
230
1
0
LWPOLYLINE
5
131
100
AcDbEntity
8
0
100
AcDbPolyline
90
12
70
1
43
0.0
10
59.061093898606359
20
46.722080566901127
10
50.87372780323517
20
38.534714471529917
42
-0.44091861261891691
10
46.448418449293897
20
38.734672111162844
42
0.0016058714861443475
10
46.198650499194194
20
39.032231451113638
42
-0.25687708765922074
10
45.628034176249585
20
41.867086084548582
42
0.60600588550402323
10
41.867086084548568
20
45.628034176249599
42
-0.25687708765922024
10
39.032231451113624
20
46.198650499194201
42
0.0016058714861357055
10
38.734672111162837
20
46.448418449293882
42
-0.44091861261891913
10
38.534714471529902
20
50.873727803235191
10
46.722080566901099
20
59.061093898606387
42
-0.41421356237309503
10
50.96472125402039
20
59.061093898606387
10
59.061093898606359
20
50.964721254020404
42
-0.41421356237309503
0
CIRCLE
5
132
100
AcDbEntity
8
0
100
AcDbCircle
10
-48.181797401335515
20
92.729524616088014
30
0
40
1.6500000000000004
210
0
220
-0
230
1
0
CIRCLE
5
133
100
AcDbEntity
8
0
100
AcDbCircle
10
64.08155204503089
20
48.207004807392913
30
0
40
1.6500000000000004
210
0
220
-0
230
1
0
CIRCLE
5
134
100
AcDbEntity
8
0
100
AcDbCircle
10
48.181797401335473
20
-92.729524616088028
30
0
40
1.6500000000000004
210
0
220
-0
230
1
0
LWPOLYLINE
5
135
100
AcDbEntity
8
0
100
AcDbPolyline
90
14
70
1
43
0.0
10
-89.417018415543112
20
-10.227272723116423
42
0.068476720642204558
10
-83.331780471376959
20
-33.997274201747615
42
0.38839963703995828
10
-80.891921414564962
20
-35.153377230699363
42
-0.27778901052875515
10
-72.882900180605816
20
-37.142914972020975
10
-66.839268491658402
20
-43.186546660968389
42
0.41421356237309503
10
-62.596627804539111
20
-43.186546660968375
10
-58.98457207700676
20
-39.574490933436032
42
0.38324739595236773
10
-58.627619258777429
20
-32.900717536606834
42
-0.38324739595236657
10
-58.449142849662756
20
-29.563830838192239
10
-55.678985710256725
20
-26.793673698786222
42
0.31034766920310092
10
-55.265632074402248
20
-24.567057443186044
42
-0.064476777575967703
10
-59.700334865795348
20
-9.6798975672215111
42
0.36787947003554439
10
-61.674552288606037
20
-8
10
-87.429973597395488
20
-7.9999999999999982
42
0.44797621669334309
0
CIRCLE
5
136
100
AcDbEntity
8
0
100
AcDbCircle
10
-64.081552045030861
20
48.207004807392906
30
0
40
1.6500000000000004
210
0
220
-0
230
1
0
CIRCLE
5
137
100
AcDbEntity
8
0
100
AcDbCircle
10
-39.297459364442361
20
55.172006602080401
30
0
40
1.6500000000000004
210
0
220
-0
230
1
0
CIRCLE
5
138
100
AcDbEntity
8
0
100
AcDbCircle
10
64.081552045030875
20
-48.207004807392899
30
0
40
1.6500000000000004
210
0
220
-0
230
1
0
CIRCLE
5
139
100
AcDbEntity
8
0
100
AcDbCircle
10
48.207004807392892
20
64.081552045030904
30
0
40
1.6500000000000004
210
0
220
-0
230
1
0
LWPOLYLINE
5
140
100
AcDbEntity
8
0
100
AcDbPolyline
90
14
70
1
43
0.0
10
89.417018415543112
20
10.227272723116423
42
0.068476720642204558
10
83.331780471376959
20
33.997274201747615
42
0.38839963703996139
10
80.891921414564962
20
35.153377230699377
42
-0.27778901052875526
10
72.882900180605802
20
37.142914972021003
10
66.839268491658402
20
43.186546660968446
42
0.41421356237309503
10
62.596627804539118
20
43.186546660968439
10
58.984572077006725
20
39.574490933436046
42
0.38324739595236756
10
58.627619258777415
20
32.900717536606841
42
-0.38324739595236901
10
58.449142849662756
20
29.563830838192228
10
55.678985710256718
20
26.793673698786225
42
0.31034766920310086
10
55.265632074402227
20
24.567057443186108
42
-0.064476777575967925
10
59.700334865795348
20
9.6798975672215182
42
0.36787947003554422
10
61.674552288606037
20
8
10
87.429973597395488
20
8
42
0.44797621669334109
0
LWPOLYLINE
5
141
100
AcDbEntity
8
0
100
AcDbPolyline
90
12
70
1
43
0.0
10
-59.06109389860638
20
-46.722080566901099
10
-50.873727803235191
20
-38.534714471529902
42
-0.44091861261891718
10
-46.448418449293897
20
-38.734672111162823
42
0.0016058714861443475
10
-46.19865049919418
20
-39.03223145111366
42
-0.25687708765921707
10
-45.628034176249585
20
-41.867086084548568
42
0.60600588550402146
10
-41.867086084548582
20
-45.628034176249571
42
-0.25687708765921979
10
-39.032231451113653
20
-46.198650499194194
42
0.0016058714861443475
10
-38.734672111162851
20
-46.448418449293868
42
-0.44091861261891779
10
-38.534714471529945
20
-50.873727803235155
10
-46.722080566901134
20
-59.061093898606352
42
-0.41421356237309626
10
-50.964721254020432
20
-59.061093898606352
10
-59.06109389860638
20
-50.96472125402039
42
-0.4142135623730957
0
CIRCLE
5
142
100
AcDbEntity
8
0
100
AcDbCircle
10
-55.172006602080401
20
-39.297459364442361
30
0
40
1.6500000000000004
210
0
220
-0
230
1
0
CIRCLE
5
143
100
AcDbEntity
8
0
100
AcDbCircle
10
-39.29745936444241
20
-55.172006602080359
30
0
40
1.6499999999999959
210
0
220
-0
230
1
0
CIRCLE
5
144
100
AcDbEntity
8
0
100
AcDbCircle
10
-42.765818126162401
20
-42.765818126162387
30
0
40
1.4499999999999957
210
0
220
-0
230
1
0
CIRCLE
5
145
100
AcDbEntity
8
0
100
AcDbCircle
10
92.729524616088014
20
48.181797401335487
30
0
40
1.6499999999999915
210
0
220
-0
230
1
0
CIRCLE
5
146
100
AcDbEntity
8
0
100
AcDbCircle
10
48.207004807392892
20
-64.081552045030875
30
0
40
1.6500000000000004
210
0
220
-0
230
1
0
CIRCLE
5
147
100
AcDbEntity
8
0
100
AcDbCircle
10
-64.08155204503089
20
-48.20700480739287
30
0
40
1.6500000000000004
210
0
220
-0
230
1
0
CIRCLE
5
148
100
AcDbEntity
8
0
100
AcDbCircle
10
39.297459364442375
20
-55.172006602080394
30
0
40
1.6499999999999959
210
0
220
-0
230
1
0
LWPOLYLINE
5
149
100
AcDbEntity
8
0
100
AcDbPolyline
90
12
70
1
43
0.0
10
-50.873727803235163
20
38.534714471529931
10
-59.061093898606373
20
46.722080566901141
42
-0.4142135623730957
10
-59.061093898606373
20
50.964721254020439
10
-50.964721254020418
20
59.061093898606401
42
-0.41421356237309442
10
-46.722080566901127
20
59.061093898606401
10
-38.534714471529909
20
50.873727803235184
42
-0.44091861261891691
10
-38.734672111162823
20
46.448418449293889
42
0.0016058714861443475
10
-39.032231451113624
20
46.198650499194201
42
-0.25687708765922024
10
-41.867086084548568
20
45.628034176249585
42
0.60600588550402146
10
-45.628034176249571
20
41.867086084548582
42
-0.25687708765921979
10
-46.198650499194194
20
39.032231451113653
42
0.0016058714861443475
10
-46.448418449293875
20
38.734672111162858
42
-0.44091861261891874
0
CIRCLE
5
150
100
AcDbEntity
8
0
100
AcDbCircle
10
-48.207004807392913
20
-64.081552045030861
30
0
40
1.6500000000000004
210
0
220
-0
230
1
0
LWPOLYLINE
5
151
100
AcDbEntity
8
0
100
AcDbPolyline
90
14
70
1
43
0.0
10
-10.227272723116418
20
89.417018415543112
42
0.068476720642204558
10
-33.997274201747601
20
83.331780471376959
42
0.38839963703996061
10
-35.153377230699341
20
80.891921414564962
42
-0.27778901052875538
10
-37.142914972020968
20
72.88290018060583
10
-43.186546660968403
20
66.839268491658402
42
0.41421356237309503
10
-43.186546660968396
20
62.596627804539111
10
-39.574490933436039
20
58.984572077006739
42
0.38324739595236879
10
-32.90071753660682
20
58.627619258777443
42
-0.38324739595236657
10
-29.563830838192224
20
58.449142849662763
10
-26.793673698786201
20
55.678985710256725
42
0.31034766920309775
10
-24.567057443186098
20
55.26563207440222
42
-0.064476777575967925
10
-9.6798975672215146
20
59.700334865795348
42
0.36787947003554439
10
-8
20
61.674552288606037
10
-7.9999999999999964
20
87.429973597395488
42
0.44797621669334087
0
CIRCLE
5
152
100
AcDbEntity
8
0
100
AcDbCircle
10
-48.207004807392877
20
64.08155204503089
30
0
40
1.6500000000000004
210
0
220
-0
230
1
0
CIRCLE
5
153
100
AcDbEntity
8
0
100
AcDbCircle
10
55.172006602080366
20
-39.297459364442403
30
0
40
1.6500000000000004
210
0
220
-0
230
1
0
CIRCLE
5
154
100
AcDbEntity
8
0
100
AcDbCircle
10
0
20
0
30
0
40
57.480000000000004
210
0
220
-0
230
1
0
CIRCLE
5
155
100
AcDbEntity
8
0
100
AcDbCircle
10
42.765818126162394
20
-42.765818126162394
30
0
40
1.4499999999999957
210
0
220
-0
230
1
0
CIRCLE
5
156
100
AcDbEntity
8
0
100
AcDbCircle
10
-92.729524616088014
20
-48.18179740133548
30
0
40
1.6499999999999915
210
0
220
-0
230
1
0
CIRCLE
5
157
100
AcDbEntity
8
0
100
AcDbCircle
10
-92.729524616088085
20
48.181797401335444
30
0
40
1.6499999999999915
210
0
220
-0
230
1
0
LWPOLYLINE
5
158
100
AcDbEntity
8
0
100
AcDbPolyline
90
11
70
1
43
0.0
10
39.574490933436053
20
-58.98457207700676
10
43.186546660968396
20
-62.596627804539096
42
-0.4142135623730957
10
43.186546660968396
20
-66.839268491658402
10
39.42137010626108
20
-70.604445046365711
42
-0.38105318582799386
10
35.435047274566358
20
-70.832968467665751
42
0.086659546151041753
10
18.205755587698668
20
-61.465645764473123
42
-0.72533731694565318
10
18.241335270429502
20
-57.663542100288865
42
0.027985540377970495
10
24.567057443186044
20
-55.265632074402234
42
-0.31034766920310486
10
26.793673698786233
20
-55.678985710256718
10
29.563830838192256
20
-58.449142849662756
42
0.3832473959523669
10
32.900717536606848
20
-58.627619258777422
42
-0.38324739595236701
0
LWPOLYLINE
5
159
100
AcDbEntity
8
0
100
AcDbPolyline
90
16
70
1
43
0.0
10
10.568181807791035
20
92.397585642764497
42
0.44797621669334042
10
5
20
87.429973597395488
10
5.0000000000000018
20
62.272965747505744
42
-0.4142135623730952
10
2.9999999999999991
20
60.272965747505737
10
-3.0000000000000004
20
60.272965747505729
42
-0.41421356237309503
10
-5.0000000000000009
20
62.272965747505737
10
-5
20
87.429973597395488
42
0.44797621669333954
10
-10.568181807791028
20
92.39758564276454
42
0.059296923037246131
10
-31.958733463191624
20
87.336359294186309
42
-0.29194185310140314
10
-34.060231604277881
20
87.800346974455522
10
-38.708141150666549
20
92.448256520844183
42
-0.53918108930867714
10
-38.032421192136162
20
95.721132827526603
42
-0.19138589008116672
10
38.032421192136084
20
95.721132827526617
42
-0.53918108930868047
10
38.70814115066657
20
92.448256520844211
10
34.060231604277966
20
87.800346974455493
42
-0.29194185310139859
10
31.958733463191756
20
87.336359294186266
42
0.059296923037246367
0
LWPOLYLINE
5
160
100
AcDbEntity
8
0
100
AcDbPolyline
90
16
70
1
43
0.0
10
92.397585642764497
20
-10.568181807791031
42
0.44797621669333976
10
87.429973597395488
20
-4.9999999999999956
10
62.272965747505744
20
-5.0000000000000018
42
-0.4142135623730952
10
60.272965747505737
20
-2.9999999999999991
10
60.272965747505729
20
3.0000000000000004
42
-0.41421356237309503
10
62.272965747505737
20
5.0000000000000009
10
87.429973597395488
20
5
42
0.44797621669333976
10
92.397585642764511
20
10.568181807791033
42
0.059296923037246013
10
87.336359294186309
20
31.958733463191628
42
-0.29194185310140325
10
87.800346974455522
20
34.060231604277881
10
92.448256520844168
20
38.708141150666542
42
-0.5391810893086777
10
95.721132827526603
20
38.032421192136113
42
-0.19138589008116694
10
95.721132827526588
20
-38.032421192136205
42
-0.53918108930867381
10
92.448256520844168
20
-38.708141150666577
10
87.800346974455522
20
-34.060231604277874
42
-0.29194185310139459
10
87.336359294186323
20
-31.958733463191685
42
0.059296923037246131
0
LWPOLYLINE
5
161
100
AcDbEntity
8
0
100
AcDbPolyline
90
14
70
1
43
0.0
10
35.153377230699363
20
80.891921414564948
42
0.27778901052875421
10
37.142914972020989
20
72.882900180605787
10
43.186546660968389
20
66.839268491658402
42
-0.41421356237309503
10
43.186546660968389
20
62.596627804539096
10
39.574490933436039
20
58.98457207700676
42
-0.38324739595236618
10
32.900717536606841
20
58.627619258777415
42
0.38324739595236529
10
29.563830838192256
20
58.449142849662756
10
26.793673698786236
20
55.678985710256718
42
-0.31034766920309931
10
24.567057443186084
20
55.26563207440222
42
0.064476777575967953
10
9.6798975672214986
20
59.700334865795348
42
-0.367879470035543
10
7.9999999999999973
20
61.674552288606037
10
7.9999999999999982
20
87.429973597395488
42
-0.44797621669334142
10
10.227272723116467
20
89.417018415543083
42
-0.0684767206422046
10
33.997274201747658
20
83.331780471376931
42
-0.38839963703995439
0
ENDSEC
0
SECTION
2
OBJECTS
0
DICTIONARY
5
C
100
AcDbDictionary
3
ACAD_GROUP
350
D
3
ACAD_MLINESTYLE
350
17
0
DICTIONARY
5
D
100
AcDbDictionary
0
DICTIONARY
5
1A
330
C
100
AcDbDictionary
0
DICTIONARY
5
17
100
AcDbDictionary
0
ENDSEC
0
EOF
